<svg xmlns="http://www.w3.org/2000/svg" width="251.5pt" height="147.8" viewBox="0 0 251.5 110.85"><path fill="#33BAAB" stroke="#00A99F" stroke-miterlimit="10" stroke-width=".399" d="M7.75 43.727h238.113v-31.18H7.75Zm0 0"/><path fill="#FBC151" stroke="#FAB42C" stroke-miterlimit="10" stroke-width=".399" d="M128.324 40.895h116.223V15.383H128.324Zm0 0"/><path fill="#F46A47" stroke="#F14B2E" stroke-miterlimit="10" stroke-width=".399" d="M187.953 38.059h55.274V18.215h-55.274Zm0 0"/><path fill="#F03595" stroke="#EC047E" stroke-miterlimit="10" stroke-width=".399" d="M217.105 35.223h24.805V21.05h-24.805Zm0 0"/><path d="M226.5 29.406c0-.656-.609-1.281-1.609-1.39.86-.188 1.375-.704 1.375-1.25 0-.72-.797-1.345-1.875-1.345h-3.031v.266h.188c.609 0 .625.078.625.375v4.156c0 .297-.016.375-.625.375h-.188v.266h3.266c1.093 0 1.875-.703 1.875-1.453zm-1.015-2.64c0 .546-.469 1.155-1.39 1.155h-1.25V26c0-.266.015-.313.39-.313h1.11c.78 0 1.14.61 1.14 1.078Zm.203 2.624c0 .64-.531 1.203-1.344 1.203h-1.109c-.375 0-.39-.047-.39-.328V28.14h1.624c.766 0 1.22.625 1.22 1.25zm6.572-2.484c0-.781-.844-1.485-1.985-1.485h-2.937v.266h.187c.61 0 .625.078.625.375v4.156c0 .297-.015.375-.625.375h-.187v.266l1.172-.031 1.172.031v-.266h-.172c-.61 0-.625-.078-.625-.375v-1.843h1.453c.969 0 1.922-.625 1.922-1.47zm-.828 0c0 .344 0 1.234-1.36 1.234h-1.218V26c0-.266.015-.313.39-.313h.828c1.36 0 1.36.86 1.36 1.219zm6.246 1.874h-.25c-.093.829-.218 1.813-1.671 1.813h-.75c-.36 0-.375-.047-.375-.328v-4.203c0-.266 0-.375.75-.375h.25v-.266c-.36.016-.938.016-1.313.016l-1.234-.016v.266h.187c.61 0 .625.078.625.375v4.156c0 .297-.015.375-.625.375h-.187v.266h4.359zm-173.29 1.276c0-.047 0-.156-.125-.156s-.125.094-.125.14c-.047.5-.312.672-.547.672-.422 0-.468-.359-.61-1.375-.062-.453-.14-1-1.015-1.265.625-.172 1.375-.625 1.375-1.313 0-.78-1-1.422-2.187-1.422h-2.61v.266h.188c.61 0 .625.078.625.375v4.156c0 .297-.016.375-.625.375h-.188v.266l1.157-.031 1.172.031v-.266H60.7c-.625 0-.641-.078-.641-.375v-1.968h1.016c.578 0 .843.296.906.359.234.25.234.406.234.938 0 .5 0 .843.328 1.14.344.297.782.344 1.016.344.672 0 .828-.656.828-.89zm-1.875-3.297c0 .891-.625 1.172-1.469 1.172h-.984v-2.015c0-.204.016-.282.203-.313h.485c.718 0 1.765 0 1.765 1.156zm7.42 2.563c0-.656-.61-1.281-1.61-1.39.86-.188 1.376-.704 1.376-1.25 0-.72-.797-1.345-1.875-1.345h-3.031v.266h.187c.61 0 .625.078.625.375v4.156c0 .297-.016.375-.625.375h-.187v.266h3.265c1.094 0 1.875-.703 1.875-1.453zm-1.015-2.64c0 .546-.47 1.155-1.391 1.155h-1.25v-1.921c0-.266.016-.313.39-.313h1.11c.781 0 1.14.61 1.14 1.078Zm.203 2.624c0 .64-.532 1.203-1.344 1.203h-1.11c-.374 0-.39-.047-.39-.328v-2.125h1.625c.766 0 1.219.625 1.219 1.25zm6.571-2.484c0-.781-.843-1.485-1.984-1.485h-2.937v.266h.187c.61 0 .625.078.625.375v4.156c0 .297-.016.375-.625.375h-.187v.266l1.171-.031 1.172.031v-.266h-.172c-.609 0-.625-.078-.625-.375v-1.843h1.454c.968 0 1.921-.625 1.921-1.47zm-.828 0c0 .344 0 1.234-1.36 1.234h-1.218v-2.14c0-.266.016-.313.39-.313h.829c1.36 0 1.36.86 1.36 1.219zm79.172 1.958h-.25c-.203 1.204-.375 1.813-1.813 1.813h-1.187c-.36 0-.375-.047-.375-.328v-2.094h.765c.797 0 .907.235.907.938h.25v-2.125h-.25c0 .687-.11.922-.907.922h-.765V26.03c0-.266.015-.328.375-.328h1.14c1.313 0 1.485.484 1.625 1.547h.25l-.234-1.813h-4.703v.266h.187c.61 0 .625.093.625.39v4.125c0 .297-.015.375-.625.375h-.187v.266h4.812zm5.762.626c0-.656-.61-1.281-1.61-1.39.86-.188 1.376-.704 1.376-1.25 0-.72-.797-1.345-1.875-1.345h-3.032v.266h.188c.61 0 .625.078.625.375v4.156c0 .297-.016.375-.625.375h-.188v.266h3.266c1.094 0 1.875-.703 1.875-1.453zm-1.016-2.64c0 .546-.468 1.155-1.39 1.155h-1.25V26c0-.266.015-.313.39-.313h1.11c.781 0 1.14.61 1.14 1.078Zm.204 2.624c0 .64-.532 1.203-1.344 1.203h-1.11c-.375 0-.39-.047-.39-.328V28.14h1.625c.765 0 1.219.625 1.219 1.25zm6.571-2.484c0-.781-.844-1.485-1.984-1.485h-2.938v.266h.188c.61 0 .625.078.625.375v4.156c0 .297-.016.375-.625.375h-.188v.266l1.172-.031 1.172.031v-.266h-.172c-.61 0-.625-.078-.625-.375v-1.843h1.453c.969 0 1.922-.625 1.922-1.47zm-.828 0c0 .344 0 1.234-1.36 1.234h-1.218V26c0-.266.016-.313.39-.313h.829c1.359 0 1.359.86 1.359 1.219zm36.58 2.5c0-.656-.61-1.281-1.61-1.39.86-.188 1.375-.704 1.375-1.25 0-.72-.797-1.345-1.875-1.345h-3.031v.266h.188c.609 0 .625.078.625.375v4.156c0 .297-.016.375-.625.375h-.188v.266h3.266c1.093 0 1.875-.703 1.875-1.453zm-1.016-2.64c0 .546-.469 1.155-1.39 1.155h-1.25V26c0-.266.015-.313.39-.313h1.11c.78 0 1.14.61 1.14 1.078Zm.203 2.624c0 .64-.531 1.203-1.344 1.203h-1.109c-.375 0-.39-.047-.39-.328V28.14h1.624c.766 0 1.22.625 1.22 1.25zm6.572-2.484c0-.781-.844-1.485-1.985-1.485h-2.937v.266h.187c.61 0 .625.078.625.375v4.156c0 .297-.015.375-.625.375h-.187v.266l1.172-.031 1.172.031v-.266h-.172c-.61 0-.625-.078-.625-.375v-1.843h1.453c.969 0 1.922-.625 1.922-1.47zm-.828 0c0 .344 0 1.234-1.36 1.234h-1.218V26c0-.266.015-.313.39-.313h.828c1.36 0 1.36.86 1.36 1.219zM7.194 7.035c0-1.031-.797-1.766-1.672-1.766-.578 0-.922.36-1.11.75 0-.656.063-1.234.345-1.718.25-.407.656-.735 1.156-.735.156 0 .515.031.703.297-.36.031-.39.297-.39.375 0 .25.187.375.374.375.14 0 .375-.078.375-.39 0-.47-.36-.86-1.078-.86-1.11 0-2.234 1.047-2.234 2.766 0 2.172 1.015 2.703 1.781 2.703.39 0 .797-.11 1.156-.453.328-.313.594-.64.594-1.344Zm-.75 0c0 .406 0 .75-.156 1.047-.219.36-.485.5-.844.5a.88.88 0 0 1-.797-.516c-.187-.36-.203-.89-.203-1.203 0-.781.422-1.375 1.047-1.375.39 0 .64.203.781.484.172.297.172.657.172 1.063Zm4.982.265c0-.671-.531-1.265-1.344-1.453.625-.218 1.11-.75 1.11-1.39 0-.64-.719-1.094-1.547-1.094-.86 0-1.5.453-1.5 1.063 0 .296.187.421.406.421.25 0 .406-.171.406-.406 0-.297-.265-.406-.437-.406.344-.438.953-.469 1.094-.469.203 0 .812.063.812.89 0 .548-.234.891-.344 1.016-.234.25-.422.266-.906.297-.156 0-.219.016-.219.125 0 .11.078.11.22.11h.39c.625 0 1.031.453 1.031 1.297 0 1-.563 1.28-.984 1.28-.438 0-1.047-.155-1.329-.577.297 0 .5-.188.5-.438 0-.265-.187-.437-.453-.437-.203 0-.437.125-.437.453 0 .75.812 1.25 1.734 1.25 1.047 0 1.797-.735 1.797-1.531Zm236.412-1.187c0-.844-.078-1.36-.344-1.875-.344-.703-1-.875-1.438-.875-1 0-1.375.75-1.484.969-.281.578-.297 1.375-.297 1.781 0 .531.016 1.328.406 1.969.36.594.954.75 1.375.75.391 0 1.063-.125 1.47-.906.296-.579.312-1.297.312-1.813zm-.703-.094c0 .47 0 1.188-.094 1.641-.172.828-.719.937-.985.937-.265 0-.812-.125-.984-.953-.094-.453-.094-1.203-.094-1.625 0-.547 0-1.109.094-1.547.172-.812.781-.89.984-.89.266 0 .829.14.985.86.094.437.094 1.046.094 1.577zM126.45 7.3c0-.671-.531-1.265-1.344-1.453.625-.218 1.11-.75 1.11-1.39 0-.64-.72-1.094-1.547-1.094-.86 0-1.5.453-1.5 1.063 0 .296.187.421.406.421.25 0 .406-.171.406-.406 0-.297-.265-.406-.437-.406.344-.438.953-.469 1.094-.469.203 0 .812.063.812.89 0 .548-.234.891-.344 1.016-.234.25-.422.266-.906.297-.156 0-.219.016-.219.125 0 .11.078.11.219.11h.39c.626 0 1.032.453 1.032 1.297 0 1-.563 1.28-.984 1.28-.438 0-1.047-.155-1.329-.577.297 0 .5-.188.5-.438 0-.265-.187-.437-.453-.437-.203 0-.437.125-.437.453 0 .75.812 1.25 1.734 1.25 1.047 0 1.797-.735 1.797-1.531Zm3.92 1.36v-.266h-.282c-.75 0-.78-.093-.78-.39V3.582c0-.219-.017-.219-.235-.219-.328.313-.75.5-1.5.5v.266c.218 0 .64 0 1.11-.203v4.078c0 .297-.032.39-.782.39h-.281v.266c.328-.031 1.015-.031 1.375-.031.359 0 1.046 0 1.375.031zm55.396 0v-.266h-.282c-.75 0-.781-.093-.781-.39V3.582c0-.219-.016-.219-.234-.219-.328.313-.75.5-1.5.5v.266c.218 0 .64 0 1.109-.203v4.078c0 .297-.031.39-.781.39h-.281v.266c.328-.031 1.015-.031 1.375-.031.359 0 1.046 0 1.375.031zm4.466-1.594c0-.922-.672-1.75-1.61-1.75-.39 0-.765.125-1.078.406V4.176c.11.03.422.125.766.125 1 0 1.594-.704 1.594-.829 0-.093-.047-.109-.094-.109 0 0-.031 0-.094.031a2.982 2.982 0 0 1-1.109.22c-.469 0-.86-.11-1.11-.22-.078-.03-.109-.03-.109-.03-.094 0-.094.077-.094.233v2.329c0 .14 0 .234.125.234.063 0 .079-.031.125-.094.094-.11.391-.515 1.079-.515.437 0 .656.359.734.515.125.281.14.656.14.953 0 .297 0 .735-.218 1.078-.156.25-.485.485-.906.485a1.271 1.271 0 0 1-1.204-.844c.016.016.079.016.079.016.218 0 .406-.14.406-.39a.388.388 0 0 0-.39-.407c-.157 0-.407.078-.407.422 0 .718.625 1.453 1.531 1.453 1 0 1.844-.781 1.844-1.766zm28.01-3.487h-2.03a8.79 8.79 0 0 1-.641-.031c-.422-.031-.422-.11-.454-.235h-.25l-.265 1.688h.25c.015-.125.11-.672.219-.734.078-.047.687-.047.796-.047h1.688l-.813 1.109c-.906 1.203-1.109 2.469-1.109 3.094 0 .078 0 .453.375.453s.375-.36.375-.453v-.39c0-1.141.203-2.079.594-2.61l1.187-1.578c.078-.078.078-.094.078-.266Zm0 0"/><path fill="#33BAAB" stroke="#00A99F" stroke-miterlimit="10" stroke-width=".399" d="M7.75 95.152h238.113V63.97H7.75Zm0 0"/><path fill="#FBC151" stroke="#FAB42C" stroke-miterlimit="10" stroke-width=".399" d="M128.324 92.316h116.223V66.805H128.324Zm0 0"/><path fill="#F46A47" stroke="#F14B2E" stroke-miterlimit="10" stroke-width=".399" d="M187.953 89.48h55.274V69.637h-55.274Zm0 0"/><path fill="#F03595" stroke="#EC047E" stroke-miterlimit="10" stroke-width=".399" d="M217.105 86.648h24.805V72.473h-24.805Zm0 0"/><path d="M225.849 80.813a1.62 1.62 0 0 0-1.266-1.594l-1.094-.265c-.515-.11-.89-.516-.89-1 0-.547.469-1.047 1.156-1.047 1.375 0 1.563 1.297 1.61 1.594.015.093.015.14.124.14.125 0 .125-.047.125-.203v-1.562c0-.125 0-.203-.109-.203-.063 0-.078.015-.125.109l-.281.453c-.406-.437-.906-.562-1.344-.562-.953 0-1.656.718-1.656 1.53 0 .61.344.938.5 1.095.281.28.547.343 1.406.546.688.157.797.188 1.063.47a1.133 1.133 0 0 1-.89 1.875c-.876 0-1.782-.423-1.83-1.532-.015-.125-.015-.188-.124-.188-.125 0-.125.063-.125.22v1.546c0 .14 0 .219.11.219.062 0 .062-.016.124-.094.031-.047.063-.125.281-.453.5.437 1.094.547 1.578.547.985 0 1.657-.797 1.657-1.64zm5.765-2.484c0-.781-.844-1.485-1.985-1.485h-2.937v.266h.187c.61 0 .625.078.625.375v4.156c0 .297-.015.375-.625.375h-.187v.266l1.172-.031 1.171.031v-.266h-.171c-.61 0-.625-.078-.625-.375v-1.843h1.453c.968 0 1.922-.625 1.922-1.47zm-.829 0c0 .344 0 1.234-1.359 1.234h-1.219v-2.14c0-.266.016-.313.391-.313h.828c1.36 0 1.36.86 1.36 1.219zm6.247 1.875h-.25c-.094.828-.219 1.812-1.672 1.812h-.75c-.359 0-.375-.047-.375-.328v-4.203c0-.266 0-.375.75-.375h.25v-.266c-.359.016-.937.016-1.312.016l-1.235-.016v.266h.188c.61 0 .625.078.625.375v4.156c0 .297-.016.375-.625.375h-.188v.266h4.36zM65.033 81.563c0-.047 0-.156-.125-.156s-.125.094-.125.14c-.047.5-.312.672-.547.672-.422 0-.468-.359-.61-1.375-.062-.453-.14-1-1.015-1.265.625-.172 1.375-.625 1.375-1.313 0-.78-1-1.422-2.187-1.422h-2.61v.266h.188c.61 0 .625.078.625.375v4.156c0 .297-.016.375-.625.375h-.188v.266l1.157-.031 1.172.031v-.266h-.172c-.625 0-.641-.078-.641-.375v-1.968h1.016c.578 0 .843.296.906.359.234.25.234.406.234.937 0 .5 0 .844.328 1.141.344.297.782.344 1.016.344.672 0 .828-.656.828-.89zm-1.875-3.297c0 .891-.625 1.172-1.469 1.172h-.984v-2.015c0-.204.016-.282.203-.313h.485c.718 0 1.765 0 1.765 1.156zm6.123 2.547a1.62 1.62 0 0 0-1.265-1.594l-1.094-.265c-.516-.11-.89-.516-.89-1 0-.547.468-1.047 1.156-1.047 1.375 0 1.562 1.297 1.609 1.594.016.093.016.14.125.14.125 0 .125-.047.125-.203v-1.562c0-.125 0-.203-.11-.203-.062 0-.078.015-.124.109l-.282.453c-.406-.437-.906-.562-1.343-.562-.954 0-1.657.718-1.657 1.53 0 .61.344.938.5 1.095.282.28.547.343 1.407.546.687.157.796.188 1.062.47.078.077.281.343.281.734 0 .562-.422 1.14-1.172 1.14-.875 0-1.78-.422-1.828-1.531-.015-.125-.015-.188-.125-.188-.125 0-.125.063-.125.22v1.546c0 .14 0 .219.11.219.062 0 .062-.016.125-.094.031-.047.062-.125.281-.453.5.437 1.094.547 1.578.547.984 0 1.656-.797 1.656-1.64zm5.765-2.484c0-.781-.844-1.485-1.984-1.485h-2.938v.266h.188c.61 0 .625.078.625.375v4.156c0 .297-.016.375-.625.375h-.188v.266l1.172-.031 1.172.031v-.266h-.172c-.61 0-.625-.078-.625-.375v-1.843h1.453c.97 0 1.922-.625 1.922-1.47zm-.828 0c0 .344 0 1.234-1.36 1.234H71.64v-2.14c0-.266.016-.313.39-.313h.829c1.36 0 1.36.86 1.36 1.219zm80.464 1.875h-.25c-.203 1.203-.375 1.812-1.813 1.812h-1.187c-.36 0-.375-.047-.375-.328v-2.094h.765c.797 0 .906.235.906.938h.25v-2.125h-.25c0 .687-.109.922-.906.922h-.765v-1.875c0-.266.015-.328.375-.328h1.14c1.313 0 1.485.484 1.625 1.547h.25l-.234-1.813h-4.703v.266h.187c.61 0 .625.093.625.39v4.125c0 .297-.015.375-.625.375h-.187v.266h4.812zm4.465.609a1.62 1.62 0 0 0-1.265-1.594l-1.094-.265c-.516-.11-.89-.516-.89-1 0-.547.468-1.047 1.155-1.047 1.375 0 1.563 1.297 1.61 1.594.015.093.015.14.125.14.125 0 .125-.047.125-.203v-1.562c0-.125 0-.203-.11-.203-.062 0-.078.015-.125.109l-.28.453c-.407-.437-.907-.562-1.345-.562-.953 0-1.656.718-1.656 1.53 0 .61.344.938.5 1.095.281.28.547.343 1.406.546.688.157.797.188 1.063.47.078.077.281.343.281.734 0 .562-.422 1.14-1.172 1.14-.875 0-1.781-.422-1.828-1.531-.015-.125-.015-.188-.125-.188-.125 0-.125.063-.125.22v1.546c0 .14 0 .219.11.219.062 0 .062-.016.125-.094.03-.047.062-.125.28-.453.5.437 1.095.547 1.579.547.984 0 1.656-.797 1.656-1.64zm5.765-2.484c0-.781-.844-1.485-1.984-1.485h-2.938v.266h.188c.609 0 .625.078.625.375v4.156c0 .297-.016.375-.625.375h-.188v.266l1.172-.031 1.172.031v-.266h-.172c-.61 0-.625-.078-.625-.375v-1.843h1.453c.969 0 1.922-.625 1.922-1.47zm-.828 0c0 .344 0 1.234-1.36 1.234h-1.218v-2.14c0-.266.015-.313.39-.313h.828c1.36 0 1.36.86 1.36 1.219zm36.574 2.484a1.62 1.62 0 0 0-1.266-1.594l-1.094-.265c-.515-.11-.89-.516-.89-1 0-.547.469-1.047 1.156-1.047 1.375 0 1.563 1.297 1.61 1.594.015.093.015.14.124.14.125 0 .125-.047.125-.203v-1.562c0-.125 0-.203-.109-.203-.063 0-.078.015-.125.109l-.281.453c-.406-.437-.906-.562-1.344-.562-.953 0-1.656.718-1.656 1.53 0 .61.344.938.5 1.095.281.28.547.343 1.406.546.688.157.797.188 1.063.47a1.133 1.133 0 0 1-.89 1.875c-.876 0-1.782-.423-1.83-1.532-.015-.125-.015-.188-.124-.188-.125 0-.125.063-.125.22v1.546c0 .14 0 .219.11.219.062 0 .062-.016.124-.094.031-.047.063-.125.281-.453.5.437 1.094.547 1.578.547.985 0 1.657-.797 1.657-1.64zm5.765-2.484c0-.781-.844-1.485-1.985-1.485h-2.937v.266h.187c.61 0 .625.078.625.375v4.156c0 .297-.015.375-.625.375h-.187v.266l1.172-.031 1.171.031v-.266h-.171c-.61 0-.625-.078-.625-.375v-1.843h1.453c.968 0 1.922-.625 1.922-1.47zm-.829 0c0 .344 0 1.234-1.359 1.234h-1.219v-2.14c0-.266.016-.313.391-.313h.828c1.36 0 1.36.86 1.36 1.219zM96.3 51.325c0-.266-.157-.531-.516-.531a.582.582 0 0 0-.407.156c0 .015-.03.031-.03.031s-.017-.14-.017-.172c0-.328.063-1.047.704-1.656.109-.125.109-.14.109-.172 0-.078-.047-.11-.094-.11-.11 0-.937.75-.937 1.938 0 .594.234 1.047.672 1.047.343 0 .515-.281.515-.531zm1.937 0c0-.266-.172-.531-.532-.531a.57.57 0 0 0-.39.156l-.031.031s-.016-.14-.016-.172c0-.328.062-1.047.687-1.656.125-.125.125-.14.125-.172 0-.078-.046-.11-.093-.11-.11 0-.938.75-.938 1.938 0 .594.235 1.047.656 1.047.36 0 .532-.281.532-.531zm7.343 2.625c0-.86-.813-1.61-1.922-1.735.969-.187 1.656-.828 1.656-1.562 0-.86-.922-1.688-2.219-1.688h-3.64v.313h.234c.766 0 .797.11.797.469v5.25c0 .36-.031.468-.797.468h-.234v.313h3.906c1.328 0 2.219-.89 2.219-1.828zm-1.235-3.297c0 .64-.484 1.469-1.593 1.469h-1.438v-2.438c0-.343.016-.406.484-.406h1.235c.969 0 1.312.844 1.312 1.375zm.25 3.297c0 .703-.53 1.515-1.547 1.515h-1.25c-.468 0-.484-.062-.484-.39v-2.719h1.875c.984 0 1.406.922 1.406 1.594Zm6.366.937v-.562h-.25v.562c0 .578-.25.641-.359.641-.328 0-.36-.453-.36-.5v-1.984c0-.422 0-.813-.359-1.188-.39-.39-.89-.547-1.375-.547-.812 0-1.5.469-1.5 1.125 0 .297.203.469.453.469a.448.448 0 0 0 .47-.453c0-.125-.063-.453-.517-.453.266-.36.766-.469 1.079-.469.484 0 1.062.39 1.062 1.281v.36c-.516.03-1.219.062-1.844.359-.75.344-1 .86-1 1.297 0 .812.97 1.062 1.594 1.062.672 0 1.125-.406 1.313-.859.046.39.312.813.78.813.204 0 .813-.141.813-.954zm-1.656-.5c0 .938-.719 1.282-1.172 1.282-.484 0-.89-.344-.89-.844 0-.547.406-1.375 2.062-1.438zm5.419.11c0-.516-.297-.828-.422-.938-.328-.328-.719-.406-1.14-.484-.563-.11-1.22-.235-1.22-.813 0-.359.25-.765 1.11-.765 1.094 0 1.156.906 1.172 1.203 0 .094.11.094.11.094.14 0 .14-.047.14-.235v-1.015c0-.157 0-.235-.11-.235-.046 0-.078 0-.203.125a1.66 1.66 0 0 1-.171.157c-.375-.282-.782-.282-.938-.282-1.219 0-1.594.672-1.594 1.235 0 .343.157.625.422.843.328.25.61.313 1.328.453.219.047 1.032.204 1.032.922 0 .5-.344.907-1.125.907-.844 0-1.204-.563-1.391-1.422-.031-.125-.031-.157-.14-.157-.126 0-.126.063-.126.235v1.328c0 .172 0 .234.11.234.047 0 .062-.015.25-.203.015-.015.015-.031.203-.218.437.406.89.421 1.094.421 1.14 0 1.609-.672 1.609-1.39zm4.472.093c0-.093-.078-.125-.14-.125-.079 0-.11.063-.126.141-.343 1.031-1.25 1.031-1.343 1.031-.5 0-.89-.297-1.125-.672-.297-.468-.297-1.125-.297-1.484h2.781c.219 0 .25 0 .25-.219 0-.984-.547-1.953-1.781-1.953-1.156 0-2.078 1.032-2.078 2.282 0 1.328 1.047 2.296 2.187 2.296 1.219 0 1.672-1.109 1.672-1.297Zm-.656-1.328h-2.375c.062-1.484.906-1.734 1.25-1.734 1.015 0 1.125 1.344 1.125 1.734zm10.465-2.437c0-.985-.984-1.86-2.344-1.86h-3.53v.313h.25c.765 0 .78.11.78.469v5.25c0 .36-.015.468-.78.468h-.25v.313c.359-.031 1.093-.031 1.468-.031s1.125 0 1.484.031v-.313h-.25c-.765 0-.781-.109-.781-.468v-2.375h1.688c1.187 0 2.265-.797 2.265-1.797zm-1.031 0c0 .469 0 1.547-1.578 1.547h-1.375v-2.688c0-.343.015-.406.484-.406h.89c1.579 0 1.579 1.063 1.579 1.547Zm6.016 2.812c0-1.265-.985-2.328-2.188-2.328-1.25 0-2.219 1.094-2.219 2.328a2.22 2.22 0 0 0 2.203 2.25c1.203 0 2.203-.984 2.203-2.25zm-.813-.078c0 .36 0 .907-.219 1.344-.234.453-.672.734-1.156.734-.438 0-.875-.203-1.14-.672-.25-.437-.25-1.046-.25-1.406 0-.39 0-.922.234-1.36a1.347 1.347 0 0 1 1.14-.671c.438 0 .86.219 1.125.656.266.422.266 1 .266 1.375zm3.575 2.219v-.313c-.672 0-.703-.046-.703-.437v-3.656l-1.39.11v.312c.64 0 .734.062.734.547v2.687c0 .438-.11.438-.782.438v.312l1.094-.031c.36 0 .703.015 1.047.031Zm-.563-6.016a.523.523 0 0 0-.515-.53.54.54 0 0 0-.547.53c0 .266.234.516.531.516a.513.513 0 0 0 .532-.516zm6.192 6.016v-.313c-.516 0-.766 0-.766-.296v-1.907c0-.859 0-1.156-.312-1.515-.14-.172-.469-.375-1.047-.375-.734 0-1.203.422-1.484 1.047v-1.047l-1.407.11v.312c.703 0 .782.062.782.562v2.672c0 .438-.11.438-.782.438v.312l1.141-.031 1.11.031v-.313c-.673 0-.782 0-.782-.437v-1.844c0-1.031.719-1.593 1.344-1.593.64 0 .75.53.75 1.109v2.328c0 .438-.11.438-.781.438v.312l1.125-.031zm3.245-1.234v-.563h-.25v.547c0 .734-.297 1.11-.672 1.11-.672 0-.672-.907-.672-1.079v-2.765h1.437v-.313h-1.437v-1.828h-.25c0 .813-.297 1.875-1.281 1.922v.219h.843v2.75c0 1.218.938 1.343 1.297 1.343.703 0 .985-.703.985-1.343zm4.704.046c0-.093-.079-.125-.141-.125-.079 0-.11.063-.125.141-.344 1.031-1.25 1.031-1.344 1.031-.5 0-.89-.297-1.125-.672-.297-.468-.297-1.125-.297-1.484h2.781c.219 0 .25 0 .25-.219 0-.984-.547-1.953-1.781-1.953-1.156 0-2.078 1.032-2.078 2.282 0 1.328 1.047 2.296 2.187 2.296 1.219 0 1.672-1.109 1.672-1.297Zm-.657-1.328h-2.375c.062-1.484.906-1.734 1.25-1.734 1.016 0 1.125 1.344 1.125 1.734zm4.564-1.281c0-.312-.313-.61-.734-.61-.735 0-1.094.673-1.22 1.094v-1.093l-1.39.11v.312c.703 0 .781.062.781.562v2.672c0 .438-.109.438-.78.438v.312l1.14-.031c.39 0 .86 0 1.265.031v-.313h-.218c-.735 0-.75-.109-.75-.468v-1.532c0-.984.422-1.875 1.172-1.875.062 0 .093 0 .109.016-.031 0-.234.125-.234.39 0 .266.218.423.437.423a.421.421 0 0 0 .422-.438zm2.327-2.078c0-.594-.234-1.047-.656-1.047-.36 0-.531.266-.531.531 0 .266.172.532.53.532.188 0 .329-.11.392-.157.015-.03.03-.03.03-.03s.016.14.016.171a2.28 2.28 0 0 1-.687 1.656c-.125.125-.125.14-.125.172 0 .063.047.11.094.11.109 0 .937-.75.937-1.938zm1.938 0c0-.594-.235-1.047-.672-1.047-.344 0-.516.266-.516.531 0 .266.156.532.516.532.203 0 .344-.11.406-.157.016-.03.031-.03.031-.03s.016.14.016.171a2.28 2.28 0 0 1-.688 1.656c-.125.125-.125.14-.125.172 0 .063.047.11.094.11.11 0 .938-.75.938-1.938zm-63.911 52.955c0-.266-.156-.531-.515-.531a.582.582 0 0 0-.407.156c0 .016-.03.031-.03.031s-.017-.14-.017-.172c0-.328.063-1.047.704-1.656.109-.125.109-.14.109-.172 0-.078-.047-.11-.094-.11-.11 0-.937.75-.937 1.938 0 .594.234 1.047.672 1.047.343 0 .515-.281.515-.531zm1.938 0c0-.266-.172-.531-.532-.531a.57.57 0 0 0-.39.156l-.031.031s-.016-.14-.016-.172c0-.328.062-1.047.687-1.656.125-.125.125-.14.125-.172 0-.078-.046-.11-.093-.11-.11 0-.938.75-.938 1.938 0 .594.235 1.047.656 1.047.36 0 .532-.281.532-.531zm5.827 2.594c0-.985-.656-1.813-1.484-2.016l-1.282-.297c-.625-.156-1-.687-1-1.265 0-.704.532-1.313 1.313-1.313 1.656 0 1.875 1.64 1.937 2.078.016.063.016.125.125.125.125 0 .125-.047.125-.234v-2c0-.172 0-.25-.109-.25-.062 0-.078.015-.14.14l-.36.563c-.297-.297-.703-.703-1.594-.703a1.917 1.917 0 0 0-1.937 1.937 1.94 1.94 0 0 0 1.297 1.828c.11.032.625.157 1.328.329.265.062.562.14.844.5.203.265.312.593.312.921 0 .704-.5 1.422-1.344 1.422-.28 0-1.047-.047-1.578-.531-.578-.547-.61-1.172-.61-1.531-.015-.11-.093-.11-.124-.11-.125 0-.125.079-.125.25v2c0 .172 0 .235.11.235.062 0 .077-.016.14-.125 0 0 .031-.047.36-.578.312.343.952.703 1.843.703 1.156 0 1.953-.969 1.953-2.078zm3.884.625v-.563h-.25v.547c0 .734-.298 1.11-.673 1.11-.672 0-.672-.907-.672-1.079v-2.765h1.438v-.313h-1.438v-1.828h-.25c0 .813-.297 1.875-1.28 1.922v.219h.843v2.75c0 1.218.937 1.343 1.297 1.343.703 0 .984-.703.984-1.343zm5.375.343v-.562h-.25v.562c0 .579-.25.641-.36.641-.328 0-.36-.453-.36-.5v-1.984c0-.422 0-.813-.359-1.188-.39-.39-.89-.547-1.375-.547-.812 0-1.5.469-1.5 1.125 0 .297.204.469.454.469a.448.448 0 0 0 .468-.453c0-.125-.062-.453-.515-.453.265-.36.765-.469 1.078-.469.484 0 1.062.39 1.062 1.281v.36c-.515.03-1.218.062-1.843.359-.75.344-1 .86-1 1.297 0 .812.968 1.062 1.593 1.062.672 0 1.125-.406 1.313-.859.047.39.312.813.781.813.203 0 .813-.141.813-.954zm-1.657-.5c0 .938-.718 1.282-1.172 1.282-.484 0-.89-.344-.89-.844 0-.547.406-1.375 2.062-1.438zm5.966.204c0-.094-.11-.094-.14-.094-.079 0-.11.031-.126.094-.281.921-.937 1.046-1.297 1.046-.53 0-1.406-.421-1.406-2.03 0-1.626.813-2.048 1.344-2.048.094 0 .719.016 1.062.375-.406.032-.468.328-.468.453 0 .266.187.454.453.454.265 0 .469-.157.469-.47 0-.671-.766-1.062-1.532-1.062-1.25 0-2.156 1.078-2.156 2.313 0 1.281.984 2.265 2.14 2.265 1.329 0 1.657-1.203 1.657-1.296zm5.098 1.187v-.313c-.376 0-.594 0-.97-.53l-1.265-1.782c-.016-.016-.062-.078-.062-.11 0-.03.718-.64.812-.718.625-.5 1.047-.531 1.25-.531v-.313a5.096 5.096 0 0 1-.687.031c-.36 0-.985-.015-1.125-.03v.312c.187 0 .297.109.297.25 0 .203-.141.312-.22.39l-1.406 1.203v-4.78l-1.437.109v.312c.703 0 .781.063.781.563v5.187c0 .438-.11.438-.781.438v.312l1.078-.031 1.11.031v-.313c-.672 0-.782 0-.782-.437v-1.031l.64-.547c.767 1.047 1.188 1.61 1.188 1.797 0 .187-.171.219-.359.219v.312l1.078-.031c.281 0 .578.015.86.031zm9.692-4.953c0-.984-.984-1.86-2.343-1.86h-3.532v.313h.25c.766 0 .782.11.782.469v5.25c0 .36-.016.469-.782.469h-.25v.312c.36-.031 1.094-.031 1.47-.031.374 0 1.124 0 1.483.031v-.313h-.25c-.765 0-.78-.109-.78-.468v-2.375h1.687c1.187 0 2.265-.797 2.265-1.797zm-1.03 0c0 .469 0 1.547-1.579 1.547h-1.375v-2.688c0-.343.016-.406.484-.406h.891c1.578 0 1.578 1.063 1.578 1.547Zm6.015 2.812c0-1.265-.985-2.328-2.188-2.328-1.25 0-2.219 1.094-2.219 2.328a2.22 2.22 0 0 0 2.203 2.25c1.204 0 2.204-.984 2.204-2.25zm-.813-.078c0 .36 0 .907-.219 1.344-.234.453-.672.734-1.156.734-.437 0-.875-.203-1.14-.671-.25-.438-.25-1.047-.25-1.407 0-.39 0-.922.234-1.36a1.347 1.347 0 0 1 1.14-.671c.438 0 .86.219 1.125.656.266.422.266 1 .266 1.375zm3.575 2.219v-.313c-.672 0-.703-.046-.703-.437v-3.656l-1.39.11v.312c.64 0 .734.062.734.547v2.687c0 .438-.11.438-.781.438v.312l1.093-.031c.36 0 .703.015 1.047.031Zm-.562-6.016a.523.523 0 0 0-.516-.53.54.54 0 0 0-.547.53c0 .266.235.516.531.516a.513.513 0 0 0 .532-.516zm6.191 6.016v-.313c-.515 0-.765 0-.765-.296v-1.907c0-.859 0-1.156-.313-1.515-.14-.172-.469-.375-1.047-.375-.734 0-1.203.422-1.484 1.047v-1.047l-1.406.11v.312c.703 0 .78.062.78.562v2.672c0 .438-.109.438-.78.438v.312l1.14-.031 1.11.031v-.313c-.672 0-.782 0-.782-.437v-1.844c0-1.031.719-1.593 1.344-1.593.64 0 .75.53.75 1.109v2.328c0 .438-.11.438-.781.438v.312l1.125-.031zm3.245-1.234v-.563h-.25v.547c0 .734-.297 1.11-.672 1.11-.672 0-.672-.907-.672-1.079v-2.765h1.438v-.313h-1.438v-1.828h-.25c0 .813-.297 1.875-1.281 1.922v.219h.844v2.75c0 1.218.937 1.343 1.296 1.343.704 0 .985-.703.985-1.343zm4.703.047c0-.094-.078-.125-.14-.125-.078 0-.11.062-.125.14-.344 1.031-1.25 1.031-1.344 1.031-.5 0-.89-.296-1.125-.671-.297-.47-.297-1.125-.297-1.485h2.781c.22 0 .25 0 .25-.219 0-.984-.547-1.953-1.78-1.953-1.157 0-2.079 1.032-2.079 2.282 0 1.328 1.047 2.296 2.187 2.296 1.22 0 1.672-1.109 1.672-1.296Zm-.656-1.329h-2.375c.063-1.484.906-1.734 1.25-1.734 1.016 0 1.125 1.344 1.125 1.734zm4.564-1.281c0-.312-.312-.61-.734-.61-.735 0-1.094.673-1.219 1.095v-1.094l-1.39.11v.312c.702 0 .78.062.78.562v2.672c0 .438-.109.438-.78.438v.312l1.14-.031c.39 0 .86 0 1.266.031v-.313h-.22c-.734 0-.75-.109-.75-.468v-1.531c0-.985.423-1.875 1.173-1.875.062 0 .093 0 .11.015-.032 0-.235.125-.235.39 0 .266.218.423.437.423a.421.421 0 0 0 .422-.438zm2.327-2.078c0-.594-.234-1.047-.656-1.047-.36 0-.531.266-.531.531 0 .266.172.532.531.532.188 0 .328-.11.39-.157.016-.03.032-.03.032-.03s.016.14.016.171a2.28 2.28 0 0 1-.688 1.656c-.125.125-.125.14-.125.172 0 .063.047.11.094.11.11 0 .937-.75.937-1.938zm1.938 0c0-.594-.235-1.047-.672-1.047-.344 0-.516.266-.516.531 0 .266.157.532.516.532.203 0 .344-.11.406-.157.016-.03.031-.03.031-.03s.016.14.016.171a2.28 2.28 0 0 1-.687 1.656c-.125.125-.125.14-.125.172 0 .063.046.11.093.11.11 0 .938-.75.938-1.938zm0 0"/></svg>