<svg xmlns="http://www.w3.org/2000/svg" width="327.773" height="397.013" viewBox="0 0 245.83 297.76"><path fill="#33BAAB" stroke="#00A99F" stroke-miterlimit="10" stroke-width=".399" d="M7.75 102.504h232.445V62.816H7.75Zm0 0"/><path fill="#FBC151" stroke="#FAB42C" stroke-miterlimit="10" stroke-width=".399" d="M126.906 99.668h110.551V65.652h-110.55Zm0 0"/><path fill="#F46A47" d="M185.117 96.832h49.606V68.488h-49.606Zm0 0"/><path d="M209.623 78.319v-.266h-.14c-.5 0-.579-.062-.673-.328l-1.859-4.922c-.047-.109-.063-.171-.203-.171s-.172.062-.203.171l-1.781 4.688c-.079.219-.25.562-.907.562v.266c.266-.031.688-.031.828-.031.25 0 .5 0 .875.031v-.266c-.343 0-.547-.171-.547-.39 0-.063 0-.078.032-.172l.375-1h2.172l.453 1.187c.031.094.031.141.031.141 0 .234-.406.234-.64.234v.266l1.14-.031c.438 0 .594 0 1.047.031zm-2.14-2.094h-1.97l1-2.593zm8.547 2.094v-.266h-.141c-.484 0-.594-.062-.75-.28l-1.813-2.516 1.172-1.594c.375-.516.985-.516 1.172-.516v-.266c-.281.016-.703.016-.89.016-.422 0-.5 0-.985-.016v.266c.344.016.438.219.438.328a.339.339 0 0 1-.078.219l-.985 1.344-1.125-1.547c-.031-.031-.062-.078-.062-.11 0-.093.156-.234.468-.234v-.266l-1.14.016c-.485 0-.578 0-1.047-.016v.266h.14c.47 0 .594.063.75.266l1.594 2.203-1.437 1.937c-.375.5-1 .5-1.172.5v.266c.281-.031.734-.031.906-.031.39 0 .5 0 .985.031v-.266c-.375-.015-.438-.265-.438-.343 0-.016 0-.094.094-.235l1.219-1.64 1.328 1.859c.078.078.078.094.078.125 0 .11-.156.234-.469.234v.266l1.14-.031c.391 0 .626 0 1.048.031zm0 0"/><path fill="#F03595" d="M185.016 96.934h24.804V82.758h-24.804Zm0 0"/><path d="M197.122 92.692v-.266h-.14c-.5 0-.579-.062-.673-.328l-1.859-4.922c-.047-.109-.063-.171-.203-.171s-.172.062-.203.171l-1.782 4.688c-.078.219-.25.562-.906.562v.266c.266-.031.688-.031.828-.031.25 0 .5 0 .875.031v-.266c-.343 0-.547-.171-.547-.39 0-.063 0-.078.032-.172l.375-1h2.172l.453 1.187c.031.094.031.141.031.141 0 .234-.406.234-.64.234v.266l1.14-.031c.438 0 .594 0 1.047.031zm-2.14-2.094h-1.97l1-2.593zm8.422 2.094v-.266h-.172c-.61 0-.64-.078-.64-.375v-4.156c0-.297.03-.375.64-.375h.172v-.265l-1.172.015-1.172-.015v.265h.172c.625 0 .64.078.64.375v1.828h-2.562v-1.828c0-.297.015-.375.625-.375h.172v-.265l-1.172.015-1.172-.015v.265h.187c.61 0 .625.078.625.375v4.156c0 .297-.015.375-.625.375h-.187v.266l1.172-.031 1.172.031v-.266h-.172c-.61 0-.625-.078-.625-.375V89.99h2.562v2.062c0 .297-.015.375-.64.375h-.172v.266l1.172-.031Zm0 0"/><path fill="#F03595" d="M210.02 96.934h24.804V82.758H210.02Zm0 0"/><path d="M222.65 92.692v-.266h-.14c-.5 0-.579-.062-.673-.328l-1.859-4.922c-.047-.109-.063-.171-.203-.171s-.172.062-.203.171l-1.781 4.688c-.079.219-.25.562-.907.562v.266c.266-.031.688-.031.828-.031.25 0 .5 0 .875.031v-.266c-.343 0-.546-.171-.546-.39 0-.063 0-.078.03-.172l.376-1h2.172l.453 1.187c.031.094.031.141.031.141 0 .234-.406.234-.64.234v.266l1.14-.031c.438 0 .594 0 1.047.031zm-2.14-2.094h-1.97l1-2.593zm7.375.016h-.25c-.094.828-.219 1.812-1.672 1.812h-.75c-.36 0-.375-.046-.375-.328v-4.203c0-.265 0-.375.75-.375h.25v-.265c-.36.015-.938.015-1.313.015l-1.234-.015v.265h.187c.61 0 .625.078.625.375v4.156c0 .297-.015.375-.625.375h-.187v.266h4.36zm0 0"/><path fill="none" stroke="#EC047E" stroke-dasharray="2.98883 2.98883" stroke-miterlimit="10" stroke-width=".399" d="M184.918 82.66h50.004m-25 0v14.371"/><path fill="none" stroke="#F14B2E" stroke-miterlimit="10" stroke-width=".399" d="M184.918 68.29h50.004v28.74h-50.004Zm0 0"/><path d="M150.735 83.427h-.25c-.204 1.203-.375 1.812-1.813 1.812h-1.187c-.36 0-.375-.047-.375-.328v-2.094h.765c.797 0 .906.235.906.938h.25V81.63h-.25c0 .687-.109.922-.906.922h-.765v-1.875c0-.266.015-.328.375-.328h1.14c1.313 0 1.485.484 1.625 1.547h.25l-.234-1.813h-4.703v.266h.187c.61 0 .625.093.625.39v4.125c0 .297-.015.375-.625.375h-.187v.266h4.812zm6.293 2.078v-.266h-.14c-.5 0-.578-.062-.672-.328l-1.86-4.922c-.046-.109-.062-.172-.203-.172-.14 0-.172.063-.203.172l-1.781 4.688c-.078.219-.25.562-.906.562v.266c.265-.031.687-.031.828-.031.25 0 .5 0 .875.031v-.266c-.344 0-.547-.172-.547-.39 0-.063 0-.078.031-.172l.375-1h2.172l.453 1.187c.031.094.031.141.031.141 0 .234-.406.234-.64.234v.266l1.14-.031c.438 0 .594 0 1.047.031zm-2.14-2.094h-1.97l1-2.594zm8.547 2.094v-.266h-.14c-.485 0-.594-.062-.75-.28l-1.813-2.517 1.172-1.593c.375-.516.984-.516 1.172-.516v-.266c-.282.016-.704.016-.891.016-.422 0-.5 0-.984-.016v.266c.343.016.437.219.437.328a.339.339 0 0 1-.078.219l-.984 1.344-1.125-1.547c-.032-.031-.063-.078-.063-.11 0-.093.156-.234.469-.234v-.266l-1.14.016c-.485 0-.579 0-1.048-.016v.266h.141c.469 0 .594.063.75.266l1.594 2.203-1.438 1.937c-.375.5-1 .5-1.172.5v.266c.282-.031.735-.031.907-.031.39 0 .5 0 .984.031v-.266c-.375-.015-.438-.265-.438-.343 0-.016 0-.094.094-.235l1.219-1.64 1.328 1.859c.078.078.078.094.078.125 0 .11-.156.234-.469.234v.266l1.141-.031c.39 0 .625 0 1.047.031zm-100.931-.802c0-.047 0-.156-.125-.156s-.125.094-.125.14c-.047.5-.312.672-.547.672-.422 0-.469-.359-.61-1.375-.062-.453-.14-1-1.015-1.265.625-.172 1.375-.625 1.375-1.313 0-.78-1-1.422-2.187-1.422h-2.61v.266h.188c.61 0 .625.078.625.375v4.156c0 .297-.016.375-.625.375h-.188v.266l1.157-.031 1.171.031v-.266h-.171c-.625 0-.641-.078-.641-.375v-1.968h1.016c.578 0 .843.296.906.359.234.25.234.406.234.937 0 .5 0 .844.328 1.141.344.297.782.344 1.016.344.672 0 .828-.656.828-.89zm-1.875-3.297c0 .891-.625 1.172-1.469 1.172h-.984v-2.015c0-.204.016-.282.203-.313h.484c.72 0 1.766 0 1.766 1.156zm7.951 4.016v-.266h-.14c-.5 0-.578-.062-.672-.328l-1.86-4.922c-.046-.109-.062-.172-.203-.172-.14 0-.171.063-.203.172l-1.78 4.688c-.079.219-.25.562-.907.562v.266c.265-.031.687-.031.828-.031.25 0 .5 0 .875.031v-.266c-.344 0-.547-.172-.547-.39 0-.063 0-.078.031-.172l.375-1h2.172l.453 1.187c.032.094.032.141.032.141 0 .234-.407.234-.641.234v.266l1.14-.031c.438 0 .594 0 1.047.031zm-2.14-2.094h-1.97l1-2.594zm8.547 2.094v-.266h-.14c-.485 0-.594-.062-.75-.28l-1.813-2.517 1.172-1.593c.375-.516.984-.516 1.172-.516v-.266c-.281.016-.703.016-.89.016-.423 0-.5 0-.985-.016v.266c.344.016.437.219.437.328a.339.339 0 0 1-.078.219l-.984 1.344-1.125-1.547c-.031-.031-.063-.078-.063-.11 0-.093.157-.234.47-.234v-.266L70.267 80c-.484 0-.578 0-1.046-.016v.266h.14c.469 0 .594.063.75.266l1.594 2.203-1.438 1.937c-.375.5-1 .5-1.171.5v.266c.28-.031.734-.031.906-.031.39 0 .5 0 .984.031v-.266c-.375-.015-.437-.265-.437-.343 0-.016 0-.094.093-.235l1.22-1.64 1.327 1.859c.078.078.078.094.078.125 0 .11-.156.234-.468.234v.266l1.14-.031c.39 0 .625 0 1.047.031zM7.194 57.306c0-1.031-.797-1.766-1.672-1.766-.578 0-.922.36-1.11.75 0-.656.063-1.234.345-1.718.25-.407.656-.735 1.156-.735.156 0 .515.031.703.297-.36.031-.39.297-.39.375 0 .25.187.375.374.375.14 0 .375-.078.375-.39 0-.47-.36-.86-1.078-.86-1.11 0-2.234 1.047-2.234 2.766 0 2.172 1.015 2.703 1.781 2.703.39 0 .797-.11 1.156-.453.328-.313.594-.64.594-1.344Zm-.75 0c0 .406 0 .75-.156 1.047-.219.36-.485.5-.844.5a.88.88 0 0 1-.797-.516c-.187-.36-.203-.89-.203-1.203 0-.781.422-1.375 1.047-1.375.39 0 .64.203.781.484.172.297.172.657.172 1.063Zm4.982.266c0-.672-.531-1.266-1.344-1.454.625-.218 1.11-.75 1.11-1.39 0-.64-.719-1.094-1.547-1.094-.86 0-1.5.453-1.5 1.063 0 .296.187.421.406.421.25 0 .406-.171.406-.406 0-.297-.265-.406-.437-.406.344-.438.953-.469 1.094-.469.203 0 .812.063.812.89 0 .548-.234.892-.344 1.017-.234.25-.422.265-.906.296-.156 0-.219.016-.219.125 0 .11.078.11.22.11h.39c.625 0 1.031.453 1.031 1.297 0 1-.563 1.28-.984 1.28-.438 0-1.047-.155-1.329-.577.297 0 .5-.188.5-.438 0-.265-.187-.437-.453-.437-.203 0-.437.125-.437.453 0 .75.812 1.25 1.734 1.25 1.047 0 1.797-.735 1.797-1.531Zm230.742-1.188c0-.844-.079-1.36-.344-1.875-.344-.703-1-.875-1.438-.875-1 0-1.375.75-1.484.969-.281.578-.297 1.375-.297 1.781 0 .531.016 1.328.406 1.969.36.594.953.75 1.375.75.391 0 1.063-.125 1.47-.906.296-.579.312-1.297.312-1.813zm-.704-.094c0 .47 0 1.188-.093 1.641-.172.828-.719.938-.985.938-.265 0-.812-.126-.984-.954-.094-.453-.094-1.203-.094-1.625 0-.547 0-1.109.094-1.547.172-.812.781-.89.984-.89.266 0 .828.14.985.86.093.437.093 1.046.093 1.577zm-117.849 1.282c0-.672-.531-1.266-1.344-1.454.625-.218 1.11-.75 1.11-1.39 0-.64-.72-1.094-1.547-1.094-.86 0-1.5.453-1.5 1.063 0 .296.187.421.406.421.25 0 .406-.171.406-.406 0-.297-.265-.406-.437-.406.343-.438.953-.469 1.093-.469.204 0 .813.063.813.89 0 .548-.234.892-.344 1.017-.234.25-.422.265-.906.296-.156 0-.219.016-.219.125 0 .11.078.11.219.11h.39c.626 0 1.032.453 1.032 1.297 0 1-.563 1.28-.985 1.28-.437 0-1.046-.155-1.328-.577.297 0 .5-.188.5-.438 0-.265-.187-.437-.453-.437-.203 0-.437.125-.437.453 0 .75.812 1.25 1.734 1.25 1.047 0 1.797-.735 1.797-1.531Zm3.92 1.359v-.266h-.282c-.75 0-.78-.093-.78-.39v-4.422c0-.219-.017-.219-.235-.219-.328.313-.75.5-1.5.5v.266c.218 0 .64 0 1.11-.203v4.078c0 .297-.032.39-.782.39h-.281v.266c.328-.031 1.015-.031 1.375-.031.359 0 1.046 0 1.375.031zm53.977 0v-.266h-.28c-.75 0-.782-.093-.782-.39v-4.422c0-.219-.016-.219-.234-.219-.329.313-.75.5-1.5.5v.266c.218 0 .64 0 1.109-.203v4.078c0 .297-.031.39-.781.39h-.282v.266c.329-.031 1.016-.031 1.375-.031.36 0 1.047 0 1.375.031zm4.467-1.594c0-.922-.672-1.75-1.61-1.75-.39 0-.765.125-1.077.406v-1.546c.109.03.421.125.765.125 1 0 1.594-.704 1.594-.829 0-.093-.047-.109-.094-.109 0 0-.031 0-.094.031a2.982 2.982 0 0 1-1.109.22c-.469 0-.86-.11-1.11-.22-.077-.03-.109-.03-.109-.03-.093 0-.093.077-.093.233v2.329c0 .14 0 .234.125.234.062 0 .078-.031.125-.094.093-.11.39-.515 1.078-.515.437 0 .656.359.734.515.125.281.14.656.14.953 0 .297 0 .735-.218 1.078-.156.25-.484.485-.906.485a1.271 1.271 0 0 1-1.203-.844c.015.016.078.016.078.016.218 0 .406-.14.406-.39a.388.388 0 0 0-.39-.407c-.157 0-.407.078-.407.422 0 .718.625 1.453 1.531 1.453 1 0 1.844-.781 1.844-1.766zm27.302-3.487h-2.03a8.79 8.79 0 0 1-.642-.031c-.421-.032-.421-.11-.453-.235h-.25l-.265 1.688h.25c.015-.125.11-.672.219-.735.078-.046.687-.046.796-.046h1.688l-.813 1.109c-.906 1.203-1.109 2.469-1.109 3.094 0 .078 0 .453.375.453s.375-.36.375-.453v-.39c0-1.142.203-2.079.594-2.61l1.187-1.578c.078-.079.078-.094.078-.266Zm0 0"/><path fill="none" stroke="#000" stroke-dasharray="2.98883 2.98883" stroke-miterlimit="10" stroke-width=".399" d="M7.55 48.695V17.512m116.423 31.183V33.102m116.422 15.593V17.512"/><path d="M182.273 48.738c1.063-2.125 3.454-3.39 6.997-3.39.261 0 .261-.399 0-.399-3.543 0-6.114 1.574-7.176 3.7-.059.117.117.206.18.09m28.926-7.176c-1.063 2.124-3.454 3.386-7 3.386-.262 0-.262.399 0 .399 3.546 0 6.113-1.57 7.179-3.696.059-.117-.121-.207-.18-.09"/><path fill="none" stroke="#000" stroke-miterlimit="10" stroke-width=".399" d="M189.27 45.148h14.93"/><path d="M211.2 41.652c1.062 2.125 3.632 3.696 7.175 3.696.262 0 .262-.399 0-.399-3.543 0-5.934-1.261-6.996-3.386-.063-.118-.238-.028-.18.09m29.281 6.995c-1.062-2.125-3.628-3.699-7.175-3.699-.262 0-.262.399 0 .399 3.547 0 5.937 1.265 7 3.39.058.117.238.028.175-.09"/><path fill="none" stroke="#000" stroke-miterlimit="10" stroke-width=".399" d="M218.375 45.148h14.93"/><path d="M206.698 38.533c0-.5-.266-.828-.406-.969-.125-.125-.14-.14-.828-.562.453-.219 1-.61 1-1.234 0-.766-.782-1.188-1.516-1.188-.844 0-1.531.578-1.531 1.328 0 .297.094.563.297.797.14.172.172.188.656.5-.984.438-1.203 1.016-1.203 1.453 0 .89.89 1.39 1.765 1.39.97 0 1.766-.671 1.766-1.515Zm-.64-2.765c0 .453-.36.843-.829 1.078l-1-.594c-.234-.14-.422-.375-.422-.64 0-.5.547-.829 1.125-.829.61 0 1.125.422 1.125.985zm.187 3.046c0 .61-.656.985-1.297.985-.719 0-1.313-.485-1.313-1.14 0-.595.438-1.063.985-1.313l1.078.656c.125.078.547.328.547.812Zm4.701-1.484c0-.844-.078-1.36-.344-1.875-.344-.703-1-.875-1.437-.875-1 0-1.375.75-1.485.969-.281.578-.297 1.375-.297 1.781 0 .531.016 1.328.407 1.969.359.594.953.75 1.375.75.39 0 1.062-.125 1.468-.906.297-.579.313-1.297.313-1.813zm-.703-.094c0 .47 0 1.188-.094 1.641-.172.828-.719.937-.984.937-.266 0-.813-.125-.985-.953-.094-.453-.094-1.203-.094-1.625 0-.547 0-1.109.094-1.547.172-.812.781-.89.985-.89.265 0 .828.14.984.86.094.437.094 1.046.094 1.577zm4.919 1.297c0-.5-.265-.828-.406-.969-.125-.125-.14-.14-.828-.562.453-.219 1-.61 1-1.234 0-.766-.781-1.188-1.516-1.188-.844 0-1.531.578-1.531 1.328 0 .297.094.563.297.797.14.172.172.188.656.5-.984.438-1.203 1.016-1.203 1.453 0 .89.89 1.39 1.766 1.39.968 0 1.765-.671 1.765-1.515Zm-.64-2.765c0 .453-.36.843-.828 1.078l-1-.594c-.235-.14-.422-.375-.422-.64 0-.5.547-.829 1.125-.829.609 0 1.125.422 1.125.985zm.187 3.046c0 .61-.656.985-1.297.985-.719 0-1.312-.485-1.312-1.14 0-.595.437-1.063.984-1.313l1.078.656c.125.078.547.328.547.812Zm4.685-.562c0-1.031-.797-1.766-1.672-1.766-.578 0-.921.36-1.109.75 0-.656.063-1.234.344-1.718.25-.407.656-.735 1.156-.735.156 0 .516.031.703.297-.36.031-.39.297-.39.375 0 .25.187.375.375.375.14 0 .375-.078.375-.39 0-.47-.36-.86-1.079-.86-1.109 0-2.234 1.047-2.234 2.766 0 2.172 1.016 2.703 1.781 2.703.391 0 .797-.11 1.157-.453.328-.313.593-.64.593-1.344Zm-.75 0c0 .406 0 .75-.156 1.047-.219.36-.484.5-.844.5a.88.88 0 0 1-.797-.516c-.187-.36-.203-.89-.203-1.203 0-.781.422-1.375 1.047-1.375.39 0 .64.203.781.484.172.297.172.657.172 1.063Zm-94.581-5.104c1.062-2.128 3.453-3.39 6.996-3.39.261 0 .261-.399 0-.399-3.543 0-6.114 1.575-7.176 3.7-.059.117.12.207.18.09m58.031-7.176c-1.063 2.125-3.453 3.386-6.996 3.386-.266 0-.266.399 0 .399 3.543 0 6.109-1.57 7.175-3.695.059-.122-.12-.208-.18-.09"/><path fill="none" stroke="#000" stroke-miterlimit="10" stroke-width=".399" d="M131.059 29.559h44.039"/><path d="M182.094 26.063c1.062 2.125 3.633 3.695 7.176 3.695.261 0 .261-.399 0-.399-3.543 0-5.934-1.261-6.997-3.386-.062-.118-.238-.032-.18.09m58.387 6.996c-1.062-2.125-3.628-3.7-7.175-3.7-.262 0-.262.399 0 .399 3.547 0 5.937 1.262 7 3.39.058.118.238.028.175-.09"/><path fill="none" stroke="#000" stroke-miterlimit="10" stroke-width=".399" d="M189.27 29.559h44.035"/><path d="M180.043 24.33v-.266c-.484 0-.562-.03-.781-.28l-1.094-1.313c.219-.282.453-.563.688-.813.265-.281.547-.484 1.047-.5v-.266c-.313.032-.329.032-.688.032-.031 0-.5 0-.75-.032v.266c.156.016.188.11.188.219a.504.504 0 0 1-.141.312l-.5.578-.625-.75c-.11-.109-.11-.171-.11-.171 0-.063.063-.172.25-.188v-.266c-.312.032-.765.032-.843.032-.14 0-.547 0-.797-.032v.266c.547 0 .547.016.969.5l.812.984-.719.86c-.203.219-.5.547-1.093.562v.266c.297-.031.343-.031.687-.031 0 0 .5 0 .75.031v-.266c-.11-.015-.187-.062-.187-.218 0-.141.093-.25.109-.282l.625-.718.656.78c.156.188.156.204.156.25 0 .079-.046.188-.25.188v.266c.344-.031.704-.031.86-.031.14 0 .547 0 .781.031zm4.018-1.344c0-.5-.265-.828-.406-.969-.125-.125-.14-.14-.828-.562.453-.219 1-.61 1-1.234 0-.766-.781-1.188-1.516-1.188-.844 0-1.531.578-1.531 1.328 0 .297.094.563.297.797.14.172.172.188.656.5-.984.438-1.203 1.016-1.203 1.453 0 .89.89 1.39 1.766 1.39.968 0 1.765-.671 1.765-1.515Zm-.64-2.765c0 .453-.36.843-.829 1.078l-1-.594c-.234-.14-.421-.375-.421-.64 0-.5.546-.829 1.125-.829.609 0 1.125.422 1.125.985zm.187 3.046c0 .61-.656.985-1.297.985-.719 0-1.312-.485-1.312-1.14 0-.595.437-1.063.984-1.313l1.078.656c.125.078.547.328.547.813Zm4.685-.562c0-1.031-.797-1.766-1.672-1.766-.578 0-.921.36-1.109.75 0-.656.063-1.234.344-1.718.25-.407.656-.735 1.156-.735.156 0 .516.031.703.297-.36.031-.39.297-.39.375 0 .25.187.375.375.375.14 0 .375-.078.375-.39 0-.47-.36-.86-1.079-.86-1.109 0-2.234 1.047-2.234 2.766 0 2.172 1.016 2.703 1.781 2.703.391 0 .797-.11 1.157-.453.328-.313.593-.64.593-1.344Zm-.75 0c0 .406 0 .75-.156 1.047-.219.36-.484.5-.844.5a.88.88 0 0 1-.797-.516c-.187-.36-.203-.89-.203-1.203 0-.781.422-1.375 1.047-1.375.39 0 .64.203.781.484.172.297.172.657.172 1.063ZM7.64 17.555c1.063-2.125 3.454-3.387 6.997-3.387.265 0 .265-.398 0-.398-3.543 0-6.114 1.57-7.176 3.699-.059.117.121.207.18.086m116.242-7.176c-1.063 2.129-3.453 3.39-6.996 3.39-.266 0-.266.399 0 .399 3.543 0 6.113-1.57 7.175-3.7.06-.116-.12-.206-.18-.09"/><path fill="none" stroke="#000" stroke-miterlimit="10" stroke-width=".399" d="M14.637 13.969h102.25"/><path d="M123.883 10.469c1.062 2.129 3.633 3.699 7.176 3.699.261 0 .261-.398 0-.398-3.543 0-5.934-1.262-6.996-3.391-.06-.117-.239-.027-.18.09m116.597 7c-1.062-2.13-3.628-3.7-7.175-3.7-.262 0-.262.399 0 .399 3.547 0 5.937 1.262 7 3.387.058.12.238.03.175-.086"/><path fill="none" stroke="#000" stroke-miterlimit="10" stroke-width=".399" d="M131.059 13.969h102.246"/><path d="M115.84 8.136V7.7h-.25v.437c0 .328-.11.453-.282.453-.296 0-.296-.359-.296-.453V6.48c0-.781-.75-1.172-1.485-1.172-.656 0-1.25.25-1.25.781a.36.36 0 0 0 .375.375.361.361 0 0 0 .375-.375.356.356 0 0 0-.297-.359c.297-.203.735-.203.782-.203.453 0 .89.312.89.969v.234c-.453.031-.984.047-1.547.281-.703.313-.843.766-.843 1.031 0 .688.812.891 1.359.891a1.23 1.23 0 0 0 1.11-.64c.046.296.25.609.609.609.078 0 .75-.031.75-.766zm-1.438-.406c0 .781-.64.984-.969.984-.406 0-.765-.28-.765-.672 0-.515.5-1.062 1.734-1.093zm8.404 1.125v-.266c-.515 0-.61 0-.61-.359V6.433c0-.64-.28-1.094-1.14-1.094-.734 0-1.11.5-1.234.735-.14-.578-.594-.735-1.11-.735a1.37 1.37 0 0 0-1.25.766v-.766l-1.156.094V5.7c.547 0 .61.047.61.437V8.23c0 .36-.094.36-.61.36v.265c.344-.031.688-.031.907-.031.234 0 .562 0 .906.031v-.266c-.5 0-.61 0-.61-.359V6.792c0-.843.641-1.234 1.141-1.234.516 0 .61.406.61.844V8.23c0 .36-.11.36-.61.36v.265c.344-.031.688-.031.906-.031.235 0 .563 0 .907.031v-.266c-.516 0-.61 0-.61-.359V6.792c0-.843.64-1.234 1.14-1.234.516 0 .61.406.61.844V8.23c0 .36-.11.36-.61.36v.265c.345-.031.688-.031.907-.031.234 0 .563 0 .906.031zm4.648 0v-.266c-.547 0-.61-.047-.61-.437V3.324l-1.187.093v.266c.53 0 .609.047.609.438v1.687a1.409 1.409 0 0 0-1.078-.469c-1 0-1.875.782-1.875 1.797 0 .985.797 1.797 1.797 1.797.469 0 .86-.219 1.125-.5v.5zm-1.22-.984c0 .14 0 .171-.124.328a1.146 1.146 0 0 1-.953.515c-.375 0-.688-.187-.875-.484-.22-.313-.266-.703-.266-1.078 0-.469.078-.797.266-1.063a1.15 1.15 0 0 1 .953-.53c.375 0 .765.202 1 .608zm5.375-.641c0-1.031-.797-1.766-1.672-1.766-.578 0-.922.36-1.11.75 0-.656.063-1.234.345-1.718.25-.407.656-.735 1.156-.735.156 0 .515.031.703.297-.36.031-.39.297-.39.375 0 .25.187.375.374.375.14 0 .375-.078.375-.39 0-.47-.36-.86-1.078-.86-1.11 0-2.234 1.047-2.234 2.766 0 2.172 1.015 2.703 1.781 2.703.39 0 .797-.11 1.156-.453.328-.313.594-.64.594-1.344Zm-.75 0c0 .406 0 .75-.156 1.047-.219.36-.485.5-.844.5a.88.88 0 0 1-.797-.516c-.187-.36-.203-.89-.203-1.203 0-.781.422-1.375 1.047-1.375.39 0 .64.203.781.484.172.297.172.657.172 1.063Zm5.091.312v-.25h-.843V3.7c0-.157 0-.219-.172-.219-.094 0-.11 0-.188.11l-2.546 3.702v.25h2.25v.672c0 .297-.016.375-.641.375h-.172v.266l1.14-.031 1.141.031V8.59h-.172c-.625 0-.64-.078-.64-.375v-.672Zm-1.437-.25h-2.031l2.031-2.953zm0 0"/><path fill="#33BAAB" stroke="#00A99F" stroke-miterlimit="10" stroke-width=".399" d="M7.75 162.43h232.445v-39.688H7.75Zm0 0"/><path fill="#FBC151" stroke="#FAB42C" stroke-miterlimit="10" stroke-width=".399" d="M126.906 159.594h110.551v-34.016h-110.55Zm0 0"/><path fill="#F46A47" d="M185.117 156.762h49.606v-28.348h-49.606Zm0 0"/><path d="M209.267 136.669c0-.656-.61-1.281-1.61-1.39.86-.188 1.375-.704 1.375-1.25 0-.72-.797-1.345-1.875-1.345h-3.031v.266h.188c.609 0 .625.078.625.375v4.156c0 .297-.016.375-.625.375h-.188v.266h3.266c1.093 0 1.875-.703 1.875-1.453zm-1.016-2.64c0 .546-.469 1.155-1.39 1.155h-1.25v-1.921c0-.266.015-.313.39-.313h1.11c.78 0 1.14.61 1.14 1.078Zm.203 2.624c0 .64-.531 1.203-1.344 1.203h-1.109c-.375 0-.39-.047-.39-.328v-2.125h1.624c.766 0 1.22.625 1.22 1.25zm7.4 1.469v-.266h-.14c-.485 0-.594-.062-.75-.28l-1.813-2.517 1.172-1.593c.375-.516.984-.516 1.172-.516v-.266c-.282.016-.704.016-.891.016-.422 0-.5 0-.984-.016v.266c.343.016.437.219.437.328a.339.339 0 0 1-.078.219l-.984 1.344-1.125-1.547c-.032-.031-.063-.078-.063-.11 0-.093.156-.234.469-.234v-.266l-1.14.016c-.485 0-.579 0-1.048-.016v.266h.14c.47 0 .595.063.75.266l1.595 2.203-1.438 1.937c-.375.5-1 .5-1.172.5v.266c.282-.031.735-.031.907-.031.39 0 .5 0 .984.031v-.266c-.375-.015-.438-.265-.438-.343 0-.016 0-.094.094-.235l1.219-1.64 1.328 1.859c.078.078.078.094.078.125 0 .11-.156.234-.469.234v.266l1.141-.031c.39 0 .625 0 1.047.031zm0 0"/><path fill="#F03595" d="M185.016 156.86h24.804v-14.173h-24.804Zm0 0"/><path d="M196.766 151.042c0-.656-.61-1.281-1.61-1.39.86-.188 1.375-.704 1.375-1.25 0-.72-.797-1.344-1.875-1.344h-3.031v.265h.188c.609 0 .625.078.625.375v4.156c0 .297-.016.375-.625.375h-.188v.266h3.266c1.093 0 1.875-.703 1.875-1.453zm-1.016-2.64c0 .546-.469 1.156-1.39 1.156h-1.25v-1.922c0-.266.015-.313.39-.313h1.11c.78 0 1.14.61 1.14 1.078Zm.203 2.624c0 .64-.531 1.203-1.344 1.203H193.5c-.375 0-.39-.047-.39-.328v-2.125h1.624c.766 0 1.22.625 1.22 1.25zm7.275 1.469v-.266h-.172c-.61 0-.64-.078-.64-.375v-4.156c0-.297.03-.375.64-.375h.172v-.266l-1.172.016-1.172-.016v.266h.172c.625 0 .64.078.64.375v1.828h-2.562v-1.828c0-.297.016-.375.625-.375h.172v-.266l-1.172.016-1.172-.016v.266h.188c.61 0 .625.078.625.375v4.156c0 .297-.016.375-.625.375h-.188v.266l1.172-.031 1.172.031v-.266h-.172c-.61 0-.625-.078-.625-.375v-2.062h2.563v2.062c0 .297-.016.375-.641.375h-.172v.266l1.172-.031Zm0 0"/><path fill="#F03595" d="M210.02 156.86h24.804v-14.173H210.02Zm0 0"/><path d="M222.295 151.042c0-.656-.61-1.281-1.61-1.39.86-.188 1.375-.704 1.375-1.25 0-.72-.797-1.344-1.875-1.344h-3.031v.265h.188c.609 0 .625.078.625.375v4.156c0 .297-.016.375-.625.375h-.188v.266h3.266c1.093 0 1.875-.703 1.875-1.453zm-1.016-2.64c0 .546-.469 1.156-1.39 1.156h-1.25v-1.922c0-.266.015-.313.39-.313h1.11c.78 0 1.14.61 1.14 1.078Zm.203 2.624c0 .64-.531 1.203-1.344 1.203h-1.109c-.375 0-.39-.047-.39-.328v-2.125h1.624c.766 0 1.22.625 1.22 1.25zm6.228-.609h-.25c-.094.828-.219 1.812-1.672 1.812h-.75c-.36 0-.375-.047-.375-.328v-4.203c0-.266 0-.375.75-.375h.25v-.266c-.36.016-.937.016-1.312.016l-1.235-.016v.266h.188c.61 0 .625.078.625.375v4.156c0 .297-.016.375-.625.375h-.188v.266h4.36zm0 0"/><path fill="none" stroke="#EC047E" stroke-dasharray="2.98883 2.98883" stroke-miterlimit="10" stroke-width=".399" d="M184.918 142.586h50.004m-25 0v14.375"/><path fill="none" stroke="#F14B2E" stroke-miterlimit="10" stroke-width=".399" d="M184.918 128.215h50.004v28.746h-50.004Zm0 0"/><path d="M150.91 143.23h-.25c-.202 1.203-.374 1.812-1.812 1.812h-1.187c-.36 0-.375-.047-.375-.328v-2.094h.765c.797 0 .907.235.907.938h.25v-2.125h-.25c0 .688-.11.922-.907.922h-.765v-1.875c0-.266.015-.328.375-.328h1.14c1.313 0 1.485.484 1.625 1.547h.25l-.234-1.813h-4.703v.266h.187c.61 0 .625.094.625.39v4.125c0 .297-.015.375-.625.375h-.187v.266h4.812zm5.763.625c0-.656-.61-1.281-1.61-1.39.86-.188 1.376-.704 1.376-1.25 0-.72-.797-1.345-1.875-1.345h-3.032v.266h.188c.61 0 .625.078.625.375v4.156c0 .297-.016.375-.625.375h-.188v.266h3.266c1.094 0 1.875-.703 1.875-1.453zm-1.016-2.64c0 .546-.468 1.155-1.39 1.155h-1.25v-1.921c0-.266.015-.313.39-.313h1.11c.781 0 1.14.61 1.14 1.078Zm.204 2.624c0 .64-.532 1.203-1.344 1.203h-1.11c-.375 0-.39-.047-.39-.328v-2.125h1.625c.765 0 1.219.625 1.219 1.25zm7.399 1.469v-.266h-.14c-.485 0-.594-.062-.75-.28l-1.813-2.517 1.172-1.593c.375-.516.984-.516 1.172-.516v-.266c-.281.016-.703.016-.89.016-.423 0-.5 0-.985-.016v.266c.344.016.437.219.437.328a.339.339 0 0 1-.078.219l-.984 1.344-1.125-1.547c-.031-.031-.063-.078-.063-.11 0-.093.157-.234.47-.234v-.266l-1.141.016c-.485 0-.579 0-1.047-.016v.266h.14c.469 0 .594.063.75.266l1.594 2.203-1.437 1.937c-.375.5-1 .5-1.172.5v.266c.28-.031.734-.031.906-.031.39 0 .5 0 .984.031v-.266c-.375-.015-.437-.265-.437-.343 0-.016 0-.094.094-.235l1.218-1.64 1.328 1.859c.079.078.079.094.079.125 0 .11-.157.234-.47.234v.266l1.141-.031c.391 0 .625 0 1.047.031zm-100.58-.802c0-.047 0-.156-.126-.156-.125 0-.125.094-.125.14-.047.5-.312.673-.547.673-.422 0-.468-.36-.61-1.375-.062-.454-.14-1-1.015-1.266.625-.172 1.375-.625 1.375-1.313 0-.78-1-1.421-2.187-1.421h-2.61v.265h.188c.61 0 .625.078.625.375v4.156c0 .297-.016.375-.625.375h-.188v.266l1.157-.031 1.172.031v-.266h-.172c-.625 0-.641-.078-.641-.375v-1.968h1.016c.578 0 .843.297.906.359.234.25.234.406.234.938 0 .5 0 .843.328 1.14.344.297.782.344 1.016.344.672 0 .828-.656.828-.89zm-1.876-3.297c0 .891-.625 1.172-1.469 1.172h-.984v-2.015c0-.203.016-.282.203-.313h.485c.718 0 1.765 0 1.765 1.156zm7.42 2.563c0-.656-.61-1.281-1.61-1.39.86-.188 1.376-.704 1.376-1.25 0-.72-.797-1.344-1.875-1.344h-3.031v.265h.187c.61 0 .625.078.625.375v4.156c0 .297-.016.375-.625.375h-.187v.266h3.265c1.094 0 1.875-.703 1.875-1.453zm-1.015-2.64c0 .546-.47 1.156-1.391 1.156h-1.25v-1.922c0-.266.016-.313.39-.313h1.11c.781 0 1.14.61 1.14 1.078Zm.203 2.624c0 .64-.532 1.203-1.344 1.203h-1.11c-.374 0-.39-.046-.39-.328v-2.125h1.625c.766 0 1.219.625 1.219 1.25zm7.4 1.469v-.266h-.141c-.484 0-.594-.062-.75-.28l-1.813-2.516 1.172-1.594c.375-.516.985-.516 1.172-.516v-.265c-.281.015-.703.015-.89.015-.422 0-.5 0-.985-.015v.265c.344.016.438.219.438.328a.339.339 0 0 1-.078.219l-.985 1.344-1.125-1.547c-.031-.031-.062-.078-.062-.11 0-.093.156-.234.468-.234v-.265l-1.14.015c-.485 0-.578 0-1.047-.015v.265h.14c.47 0 .594.063.75.266l1.594 2.203-1.437 1.937c-.375.5-1 .5-1.172.5v.266c.281-.031.734-.031.906-.031.39 0 .5 0 .985.031v-.266c-.375-.015-.438-.265-.438-.343 0-.016 0-.094.094-.235l1.219-1.64 1.328 1.859c.078.078.078.094.078.125 0 .11-.156.234-.469.234v.266l1.14-.031c.391 0 .626 0 1.048.031zm0 0"/><path fill="#33BAAB" stroke="#00A99F" stroke-miterlimit="10" stroke-width=".399" d="M7.75 222.355h232.445v-39.683H7.75Zm0 0"/><path fill="#FBC151" stroke="#FAB42C" stroke-miterlimit="10" stroke-width=".399" d="M126.906 219.52h110.551v-34.016h-110.55Zm0 0"/><path fill="#F46A47" d="M185.117 216.688h49.606V188.34h-49.606Zm0 0"/><path d="M209.333 196.19c0-.078 0-.157-.141-.157-.078 0-.11.047-.11.125-.062 1.22-1.062 1.797-1.906 1.797-.671 0-2.187-.422-2.187-2.625 0-2.156 1.437-2.625 2.187-2.625.75 0 1.672.531 1.891 1.906 0 .063.016.11.125.11.14 0 .14-.047.14-.203v-1.875c0-.125 0-.203-.109-.203-.062 0-.062 0-.14.109l-.407.594a2.117 2.117 0 0 0-1.578-.703c-1.594 0-2.937 1.28-2.937 2.89s1.328 2.89 2.953 2.89c1.328 0 2.219-1.062 2.219-2.03zm6.581 1.859v-.266h-.14c-.485 0-.594-.062-.75-.28l-1.813-2.516 1.172-1.594c.375-.516.985-.516 1.172-.516v-.266c-.281.016-.703.016-.89.016-.422 0-.5 0-.985-.016v.266c.344.016.438.219.438.328a.339.339 0 0 1-.079.219l-.984 1.344-1.125-1.547c-.031-.031-.062-.078-.062-.11 0-.093.156-.234.468-.234v-.266l-1.14.016c-.485 0-.578 0-1.047-.016v.266h.14c.47 0 .594.063.75.266l1.594 2.203-1.437 1.937c-.375.5-1 .5-1.172.5v.266c.281-.031.734-.031.906-.031.39 0 .5 0 .984.031v-.266c-.375-.015-.437-.265-.437-.343 0-.016 0-.094.094-.235l1.218-1.64 1.329 1.859c.078.078.078.094.078.125 0 .11-.157.234-.47.234v.266l1.142-.031c.39 0 .625 0 1.046.031zm0 0"/><path fill="#F03595" d="M185.016 216.785h24.804v-14.172h-24.804Zm0 0"/><path d="M196.83 210.562c0-.078 0-.157-.14-.157-.078 0-.11.047-.11.125-.062 1.22-1.062 1.797-1.906 1.797-.672 0-2.187-.422-2.187-2.625 0-2.156 1.437-2.625 2.187-2.625.75 0 1.672.532 1.891 1.907 0 .062.016.109.125.109.14 0 .14-.047.14-.203v-1.875c0-.125 0-.203-.109-.203-.062 0-.062 0-.14.109l-.407.594a2.117 2.117 0 0 0-1.578-.703c-1.594 0-2.937 1.28-2.937 2.89s1.328 2.89 2.953 2.89c1.328 0 2.219-1.062 2.219-2.03zm6.457 1.859v-.266h-.171c-.61 0-.641-.078-.641-.375v-4.156c0-.297.031-.375.64-.375h.172v-.265l-1.171.015-1.172-.015v.265h.172c.625 0 .64.078.64.375v1.828h-2.562v-1.828c0-.297.015-.375.625-.375h.172v-.265l-1.172.015-1.172-.015v.265h.187c.61 0 .625.078.625.375v4.156c0 .297-.015.375-.625.375h-.187v.266l1.172-.031 1.172.031v-.266h-.172c-.61 0-.625-.078-.625-.375v-2.062h2.562v2.062c0 .297-.015.375-.64.375h-.172v.266l1.172-.031Zm0 0"/><path fill="#F03595" d="M210.02 216.785h24.804v-14.172H210.02Zm0 0"/><path d="M222.36 210.562c0-.078 0-.157-.141-.157-.078 0-.11.047-.11.125-.062 1.22-1.062 1.797-1.906 1.797-.672 0-2.187-.422-2.187-2.625 0-2.156 1.437-2.625 2.187-2.625.75 0 1.672.532 1.891 1.907 0 .062.016.109.125.109.14 0 .14-.047.14-.203v-1.875c0-.125 0-.203-.109-.203-.062 0-.062 0-.14.109l-.407.594a2.117 2.117 0 0 0-1.578-.703c-1.594 0-2.937 1.28-2.937 2.89s1.328 2.89 2.953 2.89c1.328 0 2.219-1.062 2.219-2.03zm5.41-.219h-.25c-.094.828-.22 1.812-1.672 1.812h-.75c-.36 0-.375-.046-.375-.328v-4.203c0-.265 0-.375.75-.375h.25v-.265c-.36.015-.938.015-1.313.015l-1.234-.015v.265h.187c.61 0 .625.078.625.375v4.156c0 .297-.015.375-.625.375h-.187v.266h4.36zm0 0"/><path fill="none" stroke="#EC047E" stroke-dasharray="2.98883 2.98883" stroke-miterlimit="10" stroke-width=".399" d="M184.918 202.512h50.004m-25 0v14.375"/><path fill="none" stroke="#F14B2E" stroke-miterlimit="10" stroke-width=".399" d="M184.918 188.14h50.004v28.747h-50.004Zm0 0"/><path d="M150.85 203.157h-.25c-.202 1.203-.374 1.812-1.812 1.812h-1.187c-.36 0-.375-.046-.375-.328v-2.093h.765c.797 0 .907.234.907.937h.25v-2.125h-.25c0 .688-.11.922-.907.922h-.765v-1.875c0-.266.015-.328.375-.328h1.14c1.313 0 1.485.484 1.625 1.547h.25l-.234-1.813h-4.703v.266h.187c.61 0 .625.094.625.39v4.125c0 .297-.015.375-.625.375h-.187v.266h4.812zm5.888.219c0-.078 0-.157-.14-.157-.079 0-.11.047-.11.125-.062 1.22-1.062 1.797-1.906 1.797-.672 0-2.188-.422-2.188-2.625 0-2.156 1.438-2.625 2.188-2.625.75 0 1.672.532 1.89 1.907 0 .062.016.109.125.109.141 0 .141-.047.141-.203v-1.875c0-.125 0-.203-.11-.203-.062 0-.062 0-.14.109l-.406.594a2.117 2.117 0 0 0-1.578-.703c-1.594 0-2.938 1.28-2.938 2.89s1.328 2.89 2.953 2.89c1.328 0 2.219-1.062 2.219-2.03zm6.582 1.859v-.266h-.14c-.485 0-.595-.062-.75-.28l-1.813-2.516 1.172-1.594c.375-.516.984-.516 1.171-.516v-.265c-.28.015-.703.015-.89.015-.422 0-.5 0-.985-.015v.265c.344.016.438.219.438.328a.339.339 0 0 1-.078.219l-.985 1.344-1.125-1.547c-.03-.031-.062-.078-.062-.11 0-.093.156-.234.469-.234v-.265l-1.14.015c-.485 0-.579 0-1.048-.015v.265h.14c.47 0 .595.063.75.266l1.595 2.203-1.438 1.937c-.375.5-1 .5-1.172.5v.266c.281-.031.735-.031.906-.031.391 0 .5 0 .985.031v-.266c-.375-.015-.438-.265-.438-.343 0-.016 0-.094.094-.235l1.219-1.64 1.328 1.859c.078.078.078.094.078.125 0 .11-.156.234-.469.234v.266l1.141-.031c.39 0 .625 0 1.047.031zm-100.58-.719c0-.047 0-.156-.126-.156-.125 0-.125.094-.125.14-.047.5-.312.673-.547.673-.422 0-.469-.36-.61-1.375-.062-.454-.14-1-1.015-1.266.625-.172 1.375-.625 1.375-1.313 0-.78-1-1.421-2.187-1.421h-2.61v.265h.188c.61 0 .625.078.625.375v4.156c0 .297-.016.375-.625.375h-.188v.266l1.157-.031 1.171.031v-.266h-.171c-.625 0-.641-.078-.641-.375v-1.968h1.016c.578 0 .843.297.906.359.234.25.234.406.234.938 0 .5 0 .843.328 1.14.344.297.782.344 1.016.344.672 0 .828-.656.828-.89zm-1.876-3.297c0 .891-.625 1.172-1.469 1.172h-.984v-2.015c0-.203.016-.282.203-.313h.484c.72 0 1.766 0 1.766 1.156zm7.314 2.157c0-.078 0-.157-.14-.157-.079 0-.11.047-.11.125-.062 1.22-1.062 1.797-1.906 1.797-.672 0-2.188-.422-2.188-2.625 0-2.156 1.438-2.625 2.188-2.625.75 0 1.672.532 1.89 1.907 0 .062.016.109.125.109.141 0 .141-.047.141-.203v-1.875c0-.125 0-.203-.11-.203-.062 0-.062 0-.14.109l-.406.594a2.117 2.117 0 0 0-1.578-.703c-1.594 0-2.938 1.28-2.938 2.89s1.328 2.89 2.953 2.89c1.328 0 2.22-1.062 2.22-2.03zm6.582 1.859v-.266h-.14c-.485 0-.594-.062-.75-.28l-1.813-2.516 1.172-1.594c.375-.516.984-.516 1.172-.516v-.265c-.282.015-.704.015-.891.015-.422 0-.5 0-.984-.015v.265c.343.016.437.219.437.328a.339.339 0 0 1-.078.219l-.984 1.344-1.125-1.547c-.032-.031-.063-.078-.063-.11 0-.093.156-.234.469-.234v-.265l-1.14.015c-.485 0-.579 0-1.048-.015v.265h.14c.47 0 .595.063.75.266l1.595 2.203-1.438 1.937c-.375.5-1 .5-1.172.5v.266c.282-.031.735-.031.907-.031.39 0 .5 0 .984.031v-.266c-.375-.015-.438-.265-.438-.343 0-.016 0-.094.094-.235l1.219-1.64 1.328 1.859c.078.078.078.094.078.125 0 .11-.156.234-.469.234v.266l1.141-.031c.39 0 .625 0 1.047.031zm0 0"/><path fill="#33BAAB" stroke="#00A99F" stroke-miterlimit="10" stroke-width=".399" d="M7.75 282.281h232.445v-39.683H7.75Zm0 0"/><path fill="#FBC151" stroke="#FAB42C" stroke-miterlimit="10" stroke-width=".399" d="M126.906 279.45h110.551v-34.02h-110.55Zm0 0"/><path fill="#F46A47" d="M185.117 276.613h49.606v-28.347h-49.606Zm0 0"/><path d="M209.62 255.303c0-1.531-1.156-2.765-2.593-2.765h-3.032v.265h.188c.61 0 .625.078.625.375v4.156c0 .297-.016.375-.625.375h-.188v.266h3.032c1.437 0 2.593-1.187 2.593-2.672zm-.812 0c0 .406 0 1.188-.5 1.766-.266.328-.781.64-1.5.64h-.906c-.375 0-.391-.046-.391-.328v-4.265c0-.266.016-.313.39-.313h.907a2 2 0 0 1 1.5.64c.5.61.5 1.47.5 1.86zm7.17 2.672v-.266h-.14c-.485 0-.594-.062-.75-.28l-1.813-2.516 1.172-1.594c.375-.516.984-.516 1.172-.516v-.265c-.282.015-.704.015-.891.015-.422 0-.5 0-.984-.015v.265c.343.016.437.219.437.328a.339.339 0 0 1-.078.219l-.984 1.344-1.125-1.547c-.032-.031-.063-.078-.063-.11 0-.093.156-.234.469-.234v-.265l-1.14.015c-.485 0-.579 0-1.048-.015v.265h.141c.469 0 .594.063.75.266l1.594 2.203-1.438 1.937c-.375.5-1 .5-1.172.5v.266c.282-.031.735-.031.907-.031.39 0 .5 0 .984.031v-.266c-.375-.015-.438-.265-.438-.343 0-.016 0-.094.094-.235l1.219-1.64 1.328 1.859c.078.078.078.094.078.125 0 .11-.156.234-.469.234v.266l1.141-.031c.39 0 .625 0 1.047.031zm0 0"/><path fill="#F03595" d="M185.016 276.71h24.804v-14.17h-24.804Zm0 0"/><path d="M197 269.676c0-1.531-1.157-2.766-2.594-2.766h-3.032v.266h.188c.61 0 .625.078.625.375v4.156c0 .297-.016.375-.625.375h-.188v.266h3.032c1.437 0 2.593-1.188 2.593-2.672zm-.813 0c0 .406 0 1.188-.5 1.766-.266.328-.781.64-1.5.64h-.906c-.375 0-.391-.047-.391-.328v-4.265c0-.266.016-.313.39-.313h.907a2 2 0 0 1 1.5.64c.5.61.5 1.47.5 1.86zm7.276 2.672v-.266h-.172c-.61 0-.64-.078-.64-.375v-4.156c0-.297.03-.375.64-.375h.172v-.266l-1.172.016-1.172-.016v.266h.172c.625 0 .64.078.64.375v1.828h-2.562v-1.828c0-.297.016-.375.625-.375h.172v-.266l-1.172.016-1.172-.016v.266h.188c.61 0 .625.078.625.375v4.156c0 .297-.016.375-.625.375h-.188v.266l1.172-.031 1.172.031v-.266h-.172c-.609 0-.625-.078-.625-.375v-2.062h2.563v2.062c0 .297-.016.375-.64.375h-.173v.266l1.172-.031Zm0 0"/><path fill="#F03595" d="M210.02 276.71h24.804v-14.17H210.02Zm0 0"/><path d="M222.528 269.676c0-1.531-1.156-2.766-2.593-2.766h-3.032v.266h.188c.61 0 .625.078.625.375v4.156c0 .297-.016.375-.625.375h-.188v.266h3.032c1.437 0 2.593-1.188 2.593-2.672zm-.812 0c0 .406 0 1.188-.5 1.766-.266.328-.781.64-1.5.64h-.906c-.375 0-.391-.047-.391-.328v-4.265c0-.266.016-.313.39-.313h.907a2 2 0 0 1 1.5.64c.5.61.5 1.47.5 1.86zm6.229.594h-.25c-.094.828-.219 1.812-1.672 1.812h-.75c-.359 0-.375-.047-.375-.328v-4.203c0-.266 0-.375.75-.375h.25v-.266c-.359.016-.937.016-1.312.016l-1.235-.016v.266h.188c.61 0 .625.078.625.375v4.156c0 .297-.016.375-.625.375h-.188v.266h4.36zm0 0"/><path fill="none" stroke="#EC047E" stroke-dasharray="2.98883 2.98883" stroke-miterlimit="10" stroke-width=".399" d="M184.918 262.441h50.004m-25 0v14.372"/><path fill="none" stroke="#F14B2E" stroke-miterlimit="10" stroke-width=".399" d="M184.918 248.066h50.004v28.746h-50.004Zm0 0"/><path d="M150.795 263.084h-.25c-.203 1.203-.375 1.812-1.813 1.812h-1.187c-.36 0-.375-.047-.375-.328v-2.094h.765c.797 0 .907.235.907.938h.25v-2.125h-.25c0 .687-.11.922-.907.922h-.765v-1.875c0-.266.015-.328.375-.328h1.14c1.313 0 1.485.484 1.625 1.547h.25l-.234-1.813h-4.703v.266h.187c.61 0 .625.093.625.39v4.125c0 .297-.015.375-.625.375h-.187v.266h4.812zm6.231-.594c0-1.531-1.156-2.766-2.594-2.766h-3.031v.266h.187c.61 0 .625.078.625.375v4.156c0 .297-.015.375-.625.375h-.187v.266h3.031c1.438 0 2.594-1.188 2.594-2.672zm-.813 0c0 .406 0 1.188-.5 1.766-.265.328-.781.64-1.5.64h-.906c-.375 0-.39-.047-.39-.328v-4.265c0-.266.015-.313.39-.313h.906a2 2 0 0 1 1.5.64c.5.61.5 1.47.5 1.86zm7.17 2.672v-.266h-.14c-.485 0-.594-.062-.75-.28l-1.813-2.517 1.172-1.593c.375-.516.984-.516 1.172-.516v-.266c-.281.016-.703.016-.89.016-.422 0-.5 0-.985-.016v.266c.344.016.438.219.438.328a.339.339 0 0 1-.079.219l-.984 1.344-1.125-1.547c-.031-.031-.063-.078-.063-.11 0-.093.157-.234.47-.234v-.266l-1.141.016c-.485 0-.578 0-1.047-.016v.266h.14c.47 0 .594.063.75.266l1.594 2.203-1.437 1.937c-.375.5-1 .5-1.172.5v.266c.281-.031.734-.031.906-.031.39 0 .5 0 .984.031v-.266c-.375-.015-.437-.265-.437-.343 0-.016 0-.094.094-.235l1.218-1.64 1.328 1.859c.079.078.079.094.079.125 0 .11-.157.234-.47.234v.266l1.142-.031c.39 0 .625 0 1.046.031zm-100.819-.802c0-.048 0-.157-.125-.157s-.125.094-.125.14c-.047.5-.312.672-.547.672-.422 0-.469-.359-.61-1.375-.062-.453-.14-1-1.015-1.265.625-.172 1.375-.625 1.375-1.313 0-.78-1-1.422-2.187-1.422h-2.61v.266h.188c.61 0 .625.078.625.375v4.156c0 .297-.016.375-.625.375h-.188v.266l1.157-.031 1.171.031v-.266h-.171c-.625 0-.641-.078-.641-.375v-1.968h1.016c.578 0 .843.296.906.359.234.25.234.406.234.938 0 .5 0 .843.328 1.14.344.297.782.344 1.016.344.672 0 .828-.656.828-.89zm-1.875-3.298c0 .891-.625 1.172-1.469 1.172h-.984v-2.015c0-.204.016-.282.203-.313h.484c.72 0 1.766 0 1.766 1.156zm7.889 1.344c0-1.531-1.156-2.766-2.594-2.766h-3.031v.266h.187c.61 0 .625.078.625.375v4.156c0 .297-.015.375-.625.375h-.187v.266h3.031c1.438 0 2.594-1.188 2.594-2.672zm-.813 0c0 .406 0 1.188-.5 1.766-.265.328-.78.64-1.5.64h-.906c-.375 0-.39-.047-.39-.328v-4.265c0-.266.015-.313.39-.313h.906c.625 0 1.141.25 1.5.64.5.61.5 1.47.5 1.86zm7.171 2.672v-.266h-.141c-.484 0-.594-.062-.75-.28l-1.813-2.517 1.172-1.593c.375-.516.985-.516 1.172-.516v-.266c-.281.016-.703.016-.89.016-.422 0-.5 0-.985-.016v.266c.344.016.438.219.438.328a.339.339 0 0 1-.078.219l-.985 1.344-1.125-1.547c-.031-.031-.062-.078-.062-.11 0-.093.156-.234.468-.234v-.266l-1.14.016c-.485 0-.578 0-1.047-.016v.266h.14c.47 0 .594.063.75.266l1.594 2.203-1.437 1.937c-.375.5-1 .5-1.172.5v.266c.281-.031.734-.031.906-.031.39 0 .5 0 .985.031v-.266c-.375-.015-.438-.265-.438-.343 0-.016 0-.094.094-.235l1.219-1.64 1.328 1.859c.078.078.078.094.078.125 0 .11-.156.234-.469.234v.266l1.14-.031c.391 0 .626 0 1.048.031zM93.35 110.319c0-.266-.156-.531-.515-.531a.582.582 0 0 0-.407.156c0 .016-.03.031-.03.031s-.016-.14-.016-.172c0-.328.062-1.047.703-1.656.109-.125.109-.14.109-.172 0-.078-.047-.11-.094-.11-.11 0-.937.75-.937 1.938 0 .594.234 1.047.672 1.047.343 0 .515-.281.515-.531zm1.938 0c0-.266-.172-.531-.531-.531a.57.57 0 0 0-.391.156l-.031.031s-.016-.14-.016-.172c0-.328.063-1.047.688-1.656.124-.125.124-.14.124-.172 0-.078-.046-.11-.093-.11-.11 0-.938.75-.938 1.938 0 .594.235 1.047.657 1.047.359 0 .53-.281.53-.531zm7.999 4.453v-.313h-.172c-.594 0-.734-.062-.844-.39l-2.156-6.234c-.047-.125-.078-.204-.234-.204-.157 0-.188.063-.235.204l-2.062 5.953c-.188.515-.578.672-1.125.672v.312l1.015-.031 1.157.031v-.313c-.5 0-.75-.25-.75-.5 0-.03.015-.14.015-.156l.47-1.297h2.452l.531 1.516a.58.58 0 0 1 .032.14c0 .297-.563.297-.828.297v.313c.359-.031 1.062-.031 1.437-.031zm-2.578-2.578h-2.235l1.11-3.25zm6.781 1.391c0-.094-.11-.094-.14-.094-.079 0-.11.031-.126.094-.281.921-.937 1.046-1.297 1.046-.53 0-1.406-.421-1.406-2.03 0-1.626.813-2.048 1.344-2.048.094 0 .719.016 1.062.375-.406.032-.468.328-.468.453 0 .266.187.454.453.454.265 0 .469-.157.469-.47 0-.671-.766-1.062-1.532-1.062-1.25 0-2.156 1.078-2.156 2.313 0 1.281.984 2.265 2.14 2.265 1.329 0 1.657-1.203 1.657-1.296zm4.423 0c0-.094-.109-.094-.14-.094-.078 0-.11.031-.125.094-.282.921-.938 1.046-1.297 1.046-.531 0-1.406-.421-1.406-2.03 0-1.626.812-2.048 1.343-2.048.094 0 .72.016 1.063.375-.406.032-.469.328-.469.453 0 .266.188.454.453.454.266 0 .469-.157.469-.47 0-.671-.766-1.062-1.531-1.062-1.25 0-2.157 1.078-2.157 2.313 0 1.281.985 2.265 2.141 2.265 1.328 0 1.656-1.203 1.656-1.296zm5.611 1.187v-.313c-.687 0-.765-.062-.765-.562v-3.531l-1.47.11v.312c.688 0 .782.062.782.562v1.766c0 .875-.484 1.547-1.219 1.547-.828 0-.875-.47-.875-.985v-3.312l-1.468.11v.312c.78 0 .78.03.78.906v1.5c0 .781 0 1.687 1.516 1.687.563 0 1-.28 1.282-.89v.89zm8.321 0v-.313c-.516 0-.766 0-.782-.296v-1.907c0-.859 0-1.156-.312-1.515-.14-.172-.469-.375-1.047-.375-.828 0-1.281.594-1.437.984-.141-.875-.875-.984-1.329-.984-.734 0-1.203.422-1.484 1.047v-1.047l-1.406.11v.312c.703 0 .781.062.781.562v2.672c0 .438-.11.438-.781.438v.312l1.14-.031 1.11.031v-.313c-.672 0-.781 0-.781-.437v-1.844c0-1.031.718-1.593 1.343-1.593.64 0 .75.53.75 1.109v2.328c0 .438-.11.438-.781.438v.312l1.125-.031 1.11.031v-.313c-.657 0-.766 0-.766-.437v-1.844c0-1.031.703-1.593 1.344-1.593.625 0 .734.53.734 1.109v2.328c0 .438-.11.438-.781.438v.312l1.125-.031zm5.238 0v-.313c-.687 0-.765-.062-.765-.562v-3.531l-1.47.11v.312c.688 0 .782.062.782.562v1.766c0 .875-.484 1.547-1.219 1.547-.828 0-.875-.47-.875-.985v-3.312l-1.468.11v.312c.781 0 .781.03.781.906v1.5c0 .781 0 1.687 1.516 1.687.562 0 1-.28 1.28-.89v.89zm2.758 0v-.313c-.672 0-.781 0-.781-.437v-6.172l-1.437.11v.312c.703 0 .78.063.78.563v5.187c0 .438-.109.438-.78.438v.312l1.109-.031Zm5.036-.891v-.562h-.25v.562c0 .579-.25.641-.36.641-.328 0-.36-.453-.36-.5v-1.984c0-.422 0-.813-.359-1.188-.39-.39-.89-.547-1.375-.547-.812 0-1.5.469-1.5 1.125 0 .297.204.469.454.469a.448.448 0 0 0 .468-.453c0-.125-.062-.453-.515-.453.265-.36.765-.469 1.078-.469.484 0 1.062.39 1.062 1.281v.36c-.515.03-1.218.062-1.843.359-.75.344-1 .86-1 1.297 0 .812.968 1.062 1.593 1.062.672 0 1.125-.406 1.313-.859.047.39.312.813.781.813.203 0 .813-.141.813-.954zm-1.657-.5c0 .938-.718 1.282-1.172 1.282-.484 0-.89-.344-.89-.844 0-.547.406-1.375 2.062-1.438zm5.138.157v-.563h-.25v.547c0 .734-.297 1.11-.672 1.11-.672 0-.672-.907-.672-1.079v-2.765h1.438v-.313h-1.438v-1.828h-.25c0 .813-.297 1.875-1.281 1.922v.219h.844v2.75c0 1.218.937 1.343 1.296 1.343.704 0 .985-.703.985-1.343zm5.25-.907c0-1.265-.984-2.328-2.187-2.328-1.25 0-2.219 1.094-2.219 2.328a2.22 2.22 0 0 0 2.203 2.25c1.203 0 2.203-.984 2.203-2.25zm-.812-.078c0 .36 0 .907-.219 1.344-.234.453-.672.734-1.156.734-.438 0-.875-.203-1.14-.671-.25-.438-.25-1.047-.25-1.407 0-.39 0-.922.234-1.36a1.347 1.347 0 0 1 1.14-.671c.438 0 .86.219 1.125.656.266.422.266 1 .266 1.375zm4.731-1.578c0-.312-.312-.61-.734-.61-.735 0-1.094.673-1.22 1.095v-1.094l-1.39.11v.312c.703 0 .782.062.782.562v2.672c0 .438-.11.438-.782.438v.312l1.14-.031c.392 0 .86 0 1.267.031v-.313h-.22c-.734 0-.75-.109-.75-.468v-1.531c0-.985.423-1.875 1.173-1.875.062 0 .093 0 .109.015-.031 0-.234.125-.234.39 0 .266.218.423.437.423a.421.421 0 0 0 .422-.438zm2.327-2.078c0-.594-.234-1.047-.656-1.047-.36 0-.531.266-.531.531 0 .266.172.532.531.532.188 0 .328-.11.39-.157.016-.03.032-.03.032-.03s.016.14.016.171a2.28 2.28 0 0 1-.688 1.656c-.125.125-.125.14-.125.172 0 .063.047.11.094.11.11 0 .937-.75.937-1.938zm1.938 0c0-.594-.235-1.047-.672-1.047-.344 0-.516.266-.516.531 0 .266.157.532.516.532.203 0 .344-.11.406-.157.016-.03.031-.03.031-.03s.016.14.016.171a2.28 2.28 0 0 1-.687 1.656c-.125.125-.125.14-.125.172 0 .063.046.11.093.11.11 0 .938-.75.938-1.938zm-44.808 61.13c0-.266-.156-.531-.515-.531a.582.582 0 0 0-.407.156c0 .016-.03.031-.03.031s-.016-.14-.016-.172c0-.328.062-1.047.703-1.656.109-.125.109-.14.109-.172 0-.078-.047-.11-.094-.11-.11 0-.937.75-.937 1.938 0 .594.234 1.047.672 1.047.343 0 .515-.281.515-.531zm1.938 0c0-.266-.172-.531-.531-.531a.57.57 0 0 0-.391.156l-.031.031s-.016-.14-.016-.172c0-.328.063-1.047.688-1.656.124-.125.124-.14.124-.172 0-.078-.046-.11-.093-.11-.11 0-.938.75-.938 1.938 0 .594.235 1.047.657 1.047.359 0 .53-.281.53-.531zm7.343 2.625c0-.86-.813-1.61-1.922-1.734.969-.188 1.656-.829 1.656-1.563 0-.86-.922-1.688-2.219-1.688h-3.64v.313h.234c.766 0 .797.11.797.469v5.25c0 .36-.031.468-.797.468h-.234v.313h3.906c1.328 0 2.219-.89 2.219-1.828zm-1.235-3.297c0 .64-.484 1.469-1.593 1.469h-1.438v-2.438c0-.344.016-.406.484-.406h1.235c.969 0 1.312.844 1.312 1.375zm.25 3.297c0 .703-.53 1.516-1.547 1.516h-1.25c-.468 0-.484-.063-.484-.391v-2.719h1.875c.984 0 1.406.922 1.406 1.594Zm6.366.938v-.563h-.25v.562c0 .578-.25.641-.359.641-.328 0-.36-.453-.36-.5v-1.984c0-.422 0-.813-.359-1.188-.39-.39-.89-.547-1.375-.547-.812 0-1.5.469-1.5 1.125 0 .297.203.469.453.469a.448.448 0 0 0 .47-.453c0-.125-.063-.453-.517-.453.266-.36.766-.469 1.079-.469.484 0 1.062.39 1.062 1.281v.36c-.516.03-1.219.062-1.844.359-.75.344-1 .86-1 1.297 0 .812.97 1.062 1.594 1.062.672 0 1.125-.406 1.313-.859.046.39.312.813.78.813.204 0 .813-.141.813-.954zm-1.656-.5c0 .937-.719 1.28-1.172 1.28-.484 0-.89-.343-.89-.843 0-.547.406-1.375 2.062-1.438zm5.419.109c0-.516-.297-.828-.422-.938-.328-.328-.719-.406-1.14-.484-.563-.11-1.22-.234-1.22-.813 0-.359.25-.765 1.11-.765 1.094 0 1.156.906 1.172 1.203 0 .094.11.094.11.094.14 0 .14-.047.14-.235v-1.015c0-.157 0-.235-.11-.235-.046 0-.078 0-.203.125-.03.031-.125.125-.171.156-.375-.28-.782-.28-.938-.28-1.219 0-1.594.671-1.594 1.234 0 .343.157.625.422.843.328.25.61.313 1.328.453.219.047 1.032.204 1.032.922 0 .5-.344.907-1.125.907-.844 0-1.204-.563-1.391-1.422-.031-.125-.031-.157-.14-.157-.126 0-.126.063-.126.235v1.328c0 .172 0 .234.11.234.047 0 .062-.015.25-.203.015-.015.015-.031.203-.219.437.407.89.422 1.094.422 1.14 0 1.609-.672 1.609-1.39zm4.472.093c0-.093-.078-.125-.14-.125-.079 0-.11.063-.126.141-.343 1.031-1.25 1.031-1.343 1.031-.5 0-.89-.297-1.125-.672-.297-.468-.297-1.125-.297-1.484h2.781c.219 0 .25 0 .25-.219 0-.984-.547-1.953-1.781-1.953-1.156 0-2.078 1.031-2.078 2.281 0 1.329 1.047 2.297 2.187 2.297 1.219 0 1.672-1.109 1.672-1.297Zm-.656-1.328h-2.375c.062-1.484.906-1.734 1.25-1.734 1.015 0 1.125 1.344 1.125 1.734zm2.985-3.359c0-.594-.234-1.047-.656-1.047-.359 0-.53.266-.53.531 0 .266.171.532.53.532.188 0 .329-.11.391-.157.016-.03.031-.03.031-.03s.016.14.016.171a2.28 2.28 0 0 1-.688 1.656c-.125.125-.125.14-.125.172 0 .063.047.11.094.11.11 0 .938-.75.938-1.938zm1.938 0c0-.594-.234-1.047-.672-1.047-.343 0-.515.266-.515.531 0 .266.156.532.515.532.203 0 .344-.11.407-.157.015-.03.03-.03.03-.03s.016.14.016.171a2.28 2.28 0 0 1-.687 1.656c-.125.125-.125.14-.125.172 0 .063.047.11.094.11.11 0 .937-.75.937-1.938zm-30.397 61.458c0-.266-.156-.531-.515-.531a.582.582 0 0 0-.407.156c0 .016-.03.031-.03.031s-.017-.14-.017-.172c0-.328.063-1.047.704-1.656.109-.125.109-.14.109-.172 0-.078-.047-.11-.094-.11-.11 0-.937.75-.937 1.938 0 .594.234 1.047.672 1.047.343 0 .515-.281.515-.531zm1.938 0c0-.266-.172-.531-.531-.531a.57.57 0 0 0-.391.156l-.031.031s-.016-.14-.016-.172c0-.328.063-1.047.688-1.656.124-.125.124-.14.124-.172 0-.078-.046-.11-.093-.11-.11 0-.938.75-.938 1.938 0 .594.235 1.047.656 1.047.36 0 .532-.281.532-.531zm7.483 2.125c0-.094 0-.172-.125-.172-.109 0-.109.063-.125.172-.078 1.422-1.14 2.234-2.234 2.234-.61 0-2.563-.328-2.563-3.312 0-2.969 1.954-3.313 2.563-3.313 1.078 0 1.969.907 2.172 2.36.015.14.015.172.156.172.156 0 .156-.032.156-.235v-2.36c0-.171 0-.25-.109-.25-.031 0-.078 0-.156.126l-.5.734c-.36-.36-.875-.86-1.828-.86-1.875 0-3.47 1.595-3.47 3.626 0 2.062 1.61 3.625 3.47 3.625 1.625 0 2.593-1.39 2.593-2.547zm5.256.187c0-1.265-.985-2.328-2.188-2.328-1.25 0-2.218 1.094-2.218 2.328a2.22 2.22 0 0 0 2.203 2.25c1.203 0 2.203-.984 2.203-2.25zm-.813-.078c0 .36 0 .907-.218 1.344-.235.453-.672.734-1.157.734-.437 0-.875-.203-1.14-.671-.25-.438-.25-1.047-.25-1.407 0-.39 0-.922.234-1.36a1.347 1.347 0 0 1 1.14-.671c.438 0 .86.219 1.126.656.265.422.265 1 .265 1.375zm6.435 2.219v-.312c-.688 0-.766-.063-.766-.563v-3.531l-1.469.11v.312c.688 0 .782.062.782.562v1.766c0 .875-.485 1.547-1.22 1.547-.827 0-.874-.47-.874-.985v-3.312l-1.469.11v.312c.781 0 .781.03.781.906v1.5c0 .781 0 1.687 1.516 1.687.563 0 1-.28 1.281-.89v.89zm5.539 0v-.312c-.516 0-.766 0-.766-.297V232c0-.859 0-1.156-.312-1.515-.14-.172-.469-.375-1.047-.375-.734 0-1.203.422-1.484 1.047v-1.047l-1.407.11v.312c.703 0 .782.062.782.562v2.672c0 .438-.11.438-.782.438v.312l1.141-.031 1.11.031v-.312c-.673 0-.782 0-.782-.438v-1.844c0-1.031.719-1.593 1.344-1.593.64 0 .75.53.75 1.109v2.328c0 .438-.11.438-.781.438v.312l1.125-.031zm3.255-1.234v-.563h-.25v.547c0 .734-.297 1.11-.672 1.11-.672 0-.672-.907-.672-1.079v-2.765h1.437v-.313h-1.437v-1.828H135c0 .813-.297 1.875-1.281 1.922v.219h.843v2.75c0 1.218.938 1.343 1.297 1.343.703 0 .985-.703.985-1.343zm2.609-4.641c0-.594-.234-1.047-.656-1.047-.36 0-.531.266-.531.531 0 .266.172.532.531.532.188 0 .328-.11.39-.157.016-.03.032-.03.032-.03s.016.14.016.171a2.28 2.28 0 0 1-.688 1.656c-.125.125-.125.14-.125.172 0 .063.047.11.094.11.11 0 .937-.75.937-1.938zm1.938 0c0-.594-.234-1.047-.672-1.047-.344 0-.516.266-.516.531 0 .266.157.532.516.532.203 0 .344-.11.406-.157.016-.03.032-.03.032-.03s.015.14.015.171a2.28 2.28 0 0 1-.687 1.656c-.125.125-.125.14-.125.172 0 .063.047.11.093.11.11 0 .938-.75.938-1.938zm-30.94 61.239c0-.266-.156-.531-.515-.531a.582.582 0 0 0-.407.156c0 .016-.03.031-.03.031s-.016-.14-.016-.172c0-.328.062-1.047.703-1.656.109-.125.109-.14.109-.172 0-.078-.047-.11-.094-.11-.11 0-.937.75-.937 1.938 0 .594.234 1.047.672 1.047.343 0 .515-.281.515-.531zm1.938 0c0-.266-.172-.531-.531-.531a.57.57 0 0 0-.391.156l-.031.031s-.016-.14-.016-.172c0-.328.063-1.047.688-1.656.124-.125.124-.14.124-.172 0-.078-.046-.11-.093-.11-.11 0-.938.75-.938 1.938 0 .594.235 1.047.657 1.047.359 0 .53-.281.53-.531zm7.905 1.11c0-1.907-1.344-3.47-3.047-3.47h-3.656v.313h.25c.766 0 .781.11.781.469v5.25c0 .36-.015.469-.78.469h-.25v.312h3.655c1.672 0 3.047-1.469 3.047-3.344zm-1 0c0 1.093-.187 1.702-.547 2.187a2.192 2.192 0 0 1-1.765.844h-1.016c-.469 0-.484-.063-.484-.391v-5.39c0-.344.015-.407.484-.407h1c.625 0 1.313.219 1.813.922.437.594.515 1.453.515 2.234zm6.377 2.452v-.562h-.25v.562c0 .579-.25.641-.36.641-.327 0-.358-.453-.358-.5v-1.984c0-.422 0-.813-.36-1.188-.39-.39-.89-.547-1.375-.547-.812 0-1.5.469-1.5 1.125 0 .297.203.469.453.469a.448.448 0 0 0 .469-.453c0-.125-.062-.453-.516-.453.266-.36.766-.469 1.079-.469.484 0 1.062.39 1.062 1.281v.36c-.516.03-1.219.062-1.844.359-.75.344-1 .86-1 1.297 0 .812.969 1.062 1.594 1.062.672 0 1.125-.406 1.313-.859.046.39.312.813.78.813.204 0 .813-.141.813-.954zm-1.656-.5c0 .938-.719 1.282-1.172 1.282-.484 0-.89-.344-.89-.844 0-.547.406-1.375 2.062-1.438zm5.138.157v-.563h-.25v.547c0 .734-.297 1.11-.672 1.11-.672 0-.672-.907-.672-1.079v-2.765h1.437v-.313h-1.437v-1.828h-.25c0 .813-.297 1.875-1.281 1.922v.219h.843v2.75c0 1.218.938 1.343 1.297 1.343.703 0 .985-.703.985-1.343zm5.375.343v-.562h-.25v.562c0 .579-.25.641-.36.641-.327 0-.359-.453-.359-.5v-1.984c0-.422 0-.813-.36-1.188-.39-.39-.89-.547-1.374-.547-.813 0-1.5.469-1.5 1.125 0 .297.203.469.453.469a.448.448 0 0 0 .469-.453c0-.125-.063-.453-.516-.453.266-.36.766-.469 1.078-.469.485 0 1.063.39 1.063 1.281v.36c-.516.03-1.219.062-1.844.359-.75.344-1 .86-1 1.297 0 .812.969 1.062 1.594 1.062.672 0 1.125-.406 1.312-.859.047.39.313.813.782.813.203 0 .812-.141.812-.954zm-1.656-.5c0 .938-.719 1.282-1.172 1.282-.484 0-.89-.344-.89-.844 0-.547.406-1.375 2.062-1.438zm3.872-4.484c0-.594-.235-1.047-.657-1.047-.359 0-.53.266-.53.531 0 .266.171.532.53.532.188 0 .329-.11.391-.157.016-.03.031-.03.031-.03s.016.14.016.171a2.28 2.28 0 0 1-.688 1.656c-.125.125-.125.14-.125.172 0 .063.047.11.094.11.11 0 .938-.75.938-1.938zm1.937 0c0-.594-.234-1.047-.672-1.047-.343 0-.515.266-.515.531 0 .266.156.532.515.532.203 0 .344-.11.407-.157.015-.03.03-.03.03-.03s.016.14.016.171a2.28 2.28 0 0 1-.687 1.656c-.125.125-.125.14-.125.172 0 .063.047.11.094.11.11 0 .937-.75.937-1.938zm0 0"/></svg>