<svg xmlns="http://www.w3.org/2000/svg" width="251.5pt" height="78.947" viewBox="0 0 251.5 59.21"><path fill="#33BAAB" stroke="#00A99F" stroke-miterlimit="10" stroke-width=".399" d="M7.75 43.73h238.113V12.547H7.75Zm0 0"/><path fill="#FBC151" stroke="#FAB42C" stroke-miterlimit="10" stroke-width=".399" d="M128.324 40.895h116.223V15.383H128.324Zm0 0"/><path fill="#F46A47" stroke="#F14B2E" stroke-miterlimit="10" stroke-width=".399" d="M187.953 38.059h55.274V18.215h-55.274Zm0 0"/><path fill="#F03595" stroke="#EC047E" stroke-miterlimit="10" stroke-width=".399" d="M217.105 35.227h24.805V21.05h-24.805Zm0 0"/><path d="M227.215 30.057c0-.047 0-.156-.125-.156s-.125.094-.125.14c-.047.5-.312.672-.547.672-.422 0-.469-.359-.61-1.375-.062-.453-.14-1-1.015-1.265.625-.172 1.375-.625 1.375-1.313 0-.78-1-1.422-2.187-1.422h-2.61v.266h.188c.61 0 .625.078.625.375v4.156c0 .297-.016.375-.625.375h-.188v.266l1.157-.031 1.171.031v-.266h-.171c-.625 0-.641-.078-.641-.375v-1.968h1.016c.578 0 .843.296.906.359.234.25.234.406.234.937 0 .5 0 .844.328 1.141.344.297.782.344 1.016.344.672 0 .828-.656.828-.89zm-1.875-3.297c0 .891-.625 1.172-1.469 1.172h-.984v-2.015c0-.204.016-.282.203-.313h.484c.72 0 1.766 0 1.766 1.156zm5.905.844a.445.445 0 0 0-.375.422c0 .172.14.297.313.297.171 0 .437-.14.437-.485 0-.453-.5-.578-.797-.578-.36 0-.672.266-.86.578-.171-.421-.577-.578-.905-.578-.875 0-1.36 1-1.36 1.22 0 .077.063.108.125.108.094 0 .11-.046.125-.14.188-.578.672-.969 1.078-.969.313 0 .469.234.469.516 0 .156-.094.531-.156.781-.063.234-.235.937-.281 1.094-.11.422-.391.765-.75.765-.032 0-.235 0-.407-.109.36-.094.36-.422.36-.438 0-.187-.141-.296-.313-.296a.47.47 0 0 0-.453.484c0 .375.39.578.797.578.422 0 .719-.312.86-.578.187.39.546.578.937.578.86 0 1.344-1 1.344-1.219 0-.078-.063-.109-.125-.109-.094 0-.11.062-.141.14-.156.532-.61.97-1.063.97-.265 0-.453-.173-.453-.516 0-.157.047-.344.156-.782.047-.25.22-.937.266-1.093.11-.422.39-.766.75-.766.047 0 .25 0 .422.125zm6.282 1.719c0-.656-.61-1.281-1.61-1.39.86-.188 1.375-.704 1.375-1.25 0-.72-.797-1.345-1.875-1.345h-3.031v.266h.188c.609 0 .624.078.624.375v4.156c0 .297-.015.375-.625.375h-.187v.266h3.266c1.093 0 1.875-.703 1.875-1.453zm-1.016-2.64c0 .546-.469 1.155-1.39 1.155h-1.25v-1.921c0-.266.015-.313.39-.313h1.11c.78 0 1.14.61 1.14 1.078Zm.203 2.624c0 .64-.531 1.203-1.344 1.203h-1.109c-.375 0-.39-.047-.39-.328v-2.125h1.624c.766 0 1.22.625 1.22 1.25zm-38.687.75c0-.047 0-.156-.125-.156s-.125.094-.125.14c-.047.5-.312.672-.547.672-.422 0-.468-.359-.61-1.375-.062-.453-.14-1-1.015-1.265.625-.172 1.375-.625 1.375-1.313 0-.78-1-1.422-2.187-1.422h-2.61v.266h.188c.61 0 .625.078.625.375v4.156c0 .297-.016.375-.625.375h-.188v.266l1.157-.031 1.172.031v-.266h-.172c-.625 0-.641-.078-.641-.375v-1.968h1.016c.578 0 .843.296.906.359.234.25.234.406.234.937 0 .5 0 .844.328 1.141.344.297.782.344 1.016.344.672 0 .828-.656.828-.89zm-1.875-3.297c0 .891-.625 1.172-1.469 1.172h-.984v-2.015c0-.204.016-.282.203-.313h.485c.718 0 1.765 0 1.765 1.156zm5.905.844a.445.445 0 0 0-.375.422c0 .172.14.297.313.297.171 0 .437-.14.437-.485 0-.453-.5-.578-.797-.578-.36 0-.672.266-.86.578-.171-.421-.577-.578-.905-.578-.875 0-1.36 1-1.36 1.22 0 .077.063.108.125.108.094 0 .11-.046.125-.14.188-.578.672-.969 1.078-.969.313 0 .469.234.469.516 0 .156-.094.531-.156.781-.063.234-.235.937-.281 1.094-.11.422-.391.765-.75.765-.032 0-.235 0-.407-.109.36-.094.36-.422.36-.438 0-.187-.141-.296-.313-.296a.47.47 0 0 0-.453.484c0 .375.39.578.797.578.422 0 .719-.312.86-.578.187.39.546.578.937.578.86 0 1.344-1 1.344-1.219 0-.078-.063-.109-.125-.109-.094 0-.11.062-.141.14-.156.532-.61.97-1.063.97-.265 0-.453-.173-.453-.516 0-.157.047-.344.157-.782.046-.25.218-.937.265-1.093.11-.422.39-.766.75-.766.047 0 .25 0 .422.125zm9.297-2v-.266c-.265.016-.531.016-.781.016s-.484 0-.922-.016v.266c.438 0 .656.203.656.422 0 .031 0 .047-.03.156l-1.266 3.672-1.344-3.875c-.031-.094-.031-.11-.031-.14 0-.235.406-.235.64-.235v-.266l-1.11.016c-.296 0-.624 0-.984-.016v.266c.422 0 .547.016.641.14.063.094.203.579.203.579l-.031.094-1.188 3.437-1.328-3.875c-.047-.11-.047-.14-.047-.14 0-.235.422-.235.657-.235v-.266l-1.11.016c-.297 0-.64 0-1-.016v.266c.469 0 .61 0 .719.297l1.672 4.86c.047.109.078.187.203.187.11 0 .156-.078.188-.188l1.406-4.062 1.406 4.062c.031.094.063.188.188.188s.156-.078.203-.188l1.593-4.625c.11-.328.329-.53.797-.53Zm-56.603 4.453c0-.047 0-.156-.125-.156s-.125.094-.125.14c-.047.5-.312.672-.547.672-.422 0-.469-.359-.61-1.375-.062-.453-.14-1-1.015-1.265.625-.172 1.375-.625 1.375-1.313 0-.78-1-1.422-2.187-1.422h-2.61v.266h.188c.61 0 .625.078.625.375v4.156c0 .297-.016.375-.625.375h-.188v.266l1.157-.031 1.172.031v-.266h-.172c-.625 0-.641-.078-.641-.375v-1.968h1.016c.578 0 .843.296.906.359.234.25.234.406.234.937 0 .5 0 .844.328 1.141.344.297.782.344 1.016.344.672 0 .828-.656.828-.89zm-1.875-3.297c0 .891-.625 1.172-1.469 1.172h-.984v-2.015c0-.204.016-.282.203-.313h.484c.72 0 1.766 0 1.766 1.156zm5.905.844a.445.445 0 0 0-.375.422c0 .172.14.297.313.297.171 0 .437-.14.437-.485 0-.453-.5-.578-.797-.578-.36 0-.672.266-.86.578-.171-.421-.577-.578-.905-.578-.875 0-1.36 1-1.36 1.22 0 .077.063.108.125.108.094 0 .11-.046.125-.14.188-.578.672-.969 1.078-.969.313 0 .469.234.469.516 0 .156-.094.531-.156.781-.063.234-.235.937-.281 1.094-.11.422-.391.765-.75.765-.032 0-.235 0-.407-.109.36-.094.36-.422.36-.438 0-.187-.141-.296-.313-.296a.47.47 0 0 0-.453.484c0 .375.39.578.797.578.422 0 .719-.312.86-.578.187.39.546.578.937.578.86 0 1.344-1 1.344-1.219 0-.078-.063-.109-.125-.109-.094 0-.11.062-.141.14-.156.532-.61.97-1.063.97-.265 0-.453-.173-.453-.516 0-.157.047-.344.157-.782.046-.25.218-.937.265-1.093.11-.422.39-.766.75-.766.047 0 .25 0 .422.125zm6.75.5c0-1.531-1.156-2.766-2.593-2.766h-3.032v.266h.188c.61 0 .625.078.625.375v4.156c0 .297-.016.375-.625.375h-.188v.266h3.032c1.437 0 2.593-1.188 2.593-2.672zm-.812 0c0 .406 0 1.188-.5 1.766-.266.328-.781.64-1.5.64h-.906c-.375 0-.391-.047-.391-.328v-4.265c0-.266.016-.313.39-.313h.907a2 2 0 0 1 1.5.64c.5.61.5 1.47.5 1.86zm-96.837 1.953c0-.047 0-.156-.125-.156s-.125.094-.125.14c-.047.5-.312.672-.547.672-.422 0-.468-.359-.61-1.375-.062-.453-.14-1-1.015-1.265.625-.172 1.375-.625 1.375-1.313 0-.78-1-1.422-2.187-1.422h-2.61v.266h.188c.61 0 .625.078.625.375v4.156c0 .297-.016.375-.625.375h-.188v.266l1.157-.031 1.172.031v-.266h-.172c-.625 0-.641-.078-.641-.375v-1.968h1.016c.578 0 .843.296.906.359.234.25.234.406.234.937 0 .5 0 .844.328 1.141.344.297.782.344 1.016.344.672 0 .828-.656.828-.89zm-1.875-3.297c0 .891-.625 1.172-1.469 1.172h-.984v-2.015c0-.204.016-.282.203-.313h.485c.718 0 1.765 0 1.765 1.156zm5.905.844a.445.445 0 0 0-.375.422c0 .172.14.297.313.297.171 0 .437-.14.437-.485 0-.453-.5-.578-.797-.578-.36 0-.672.266-.86.578-.171-.421-.577-.578-.905-.578-.875 0-1.36 1-1.36 1.22 0 .077.063.108.125.108.094 0 .11-.046.125-.14.188-.578.672-.969 1.078-.969.313 0 .469.234.469.516 0 .156-.094.531-.156.781-.063.234-.235.937-.281 1.094-.11.422-.391.765-.75.765-.032 0-.235 0-.407-.109.36-.094.36-.422.36-.438 0-.187-.141-.296-.313-.296a.47.47 0 0 0-.453.484c0 .375.39.578.797.578.422 0 .719-.312.86-.578.187.39.546.578.937.578.86 0 1.344-1 1.344-1.219 0-.078-.063-.109-.125-.109-.094 0-.11.062-.141.14-.156.532-.61.97-1.063.97-.265 0-.453-.173-.453-.516 0-.157.047-.344.157-.782.046-.25.218-.937.265-1.093.11-.422.39-.766.75-.766.047 0 .25 0 .422.125zM7.194 7.036c0-1.031-.797-1.766-1.672-1.766-.578 0-.922.36-1.11.75 0-.656.063-1.234.345-1.718.25-.407.656-.735 1.156-.735.156 0 .515.032.703.297-.36.031-.39.297-.39.375 0 .25.187.375.374.375.14 0 .375-.078.375-.39 0-.47-.36-.86-1.078-.86-1.11 0-2.234 1.047-2.234 2.766 0 2.172 1.015 2.703 1.781 2.703.39 0 .797-.11 1.156-.453.328-.313.594-.64.594-1.344Zm-.75 0c0 .406 0 .75-.156 1.047-.219.36-.485.5-.844.5a.88.88 0 0 1-.797-.516c-.187-.36-.203-.89-.203-1.203 0-.781.422-1.375 1.047-1.375.39 0 .64.203.781.485.172.296.172.656.172 1.062Zm4.982.266c0-.672-.531-1.266-1.344-1.453.625-.22 1.11-.75 1.11-1.391 0-.64-.719-1.094-1.547-1.094-.86 0-1.5.453-1.5 1.063 0 .297.187.422.406.422.25 0 .406-.172.406-.407 0-.297-.265-.406-.437-.406.344-.437.953-.469 1.094-.469.203 0 .812.063.812.89 0 .548-.234.892-.344 1.017-.234.25-.422.265-.906.296-.156 0-.219.016-.219.125 0 .11.078.11.22.11h.39c.625 0 1.031.453 1.031 1.297 0 1-.563 1.28-.984 1.28-.438 0-1.047-.155-1.329-.577.297 0 .5-.188.5-.438 0-.265-.187-.437-.453-.437-.203 0-.437.125-.437.453 0 .75.812 1.25 1.734 1.25 1.047 0 1.797-.734 1.797-1.531Zm236.412-1.188c0-.844-.078-1.36-.344-1.875-.344-.703-1-.875-1.438-.875-1 0-1.375.75-1.484.969-.281.578-.297 1.375-.297 1.781 0 .531.016 1.328.406 1.969.36.594.954.75 1.375.75.391 0 1.063-.125 1.47-.906.296-.578.312-1.297.312-1.813zm-.703-.094c0 .47 0 1.188-.094 1.641-.172.828-.719.938-.985.938-.265 0-.812-.125-.984-.954-.094-.453-.094-1.203-.094-1.625 0-.546 0-1.109.094-1.546.172-.813.781-.891.984-.891.266 0 .829.14.985.86.094.437.094 1.046.094 1.577zM126.45 7.302c0-.672-.531-1.266-1.344-1.453.625-.22 1.11-.75 1.11-1.391 0-.64-.72-1.094-1.547-1.094-.86 0-1.5.453-1.5 1.063 0 .297.187.422.406.422.25 0 .406-.172.406-.407 0-.297-.265-.406-.437-.406.344-.437.953-.469 1.094-.469.203 0 .812.063.812.89 0 .548-.234.892-.344 1.017-.234.25-.422.265-.906.296-.156 0-.219.016-.219.125 0 .11.078.11.219.11h.39c.626 0 1.032.453 1.032 1.297 0 1-.563 1.28-.984 1.28-.438 0-1.047-.155-1.329-.577.297 0 .5-.188.5-.438 0-.265-.187-.437-.453-.437-.203 0-.437.125-.437.453 0 .75.812 1.25 1.734 1.25 1.047 0 1.797-.734 1.797-1.531Zm3.92 1.359v-.266h-.282c-.75 0-.78-.093-.78-.39V3.583c0-.219-.017-.219-.235-.219-.328.313-.75.5-1.5.5v.266c.218 0 .64 0 1.11-.203v4.078c0 .297-.032.39-.782.39h-.281v.266c.328-.031 1.015-.031 1.375-.031.359 0 1.046 0 1.375.031zm55.396 0v-.266h-.282c-.75 0-.781-.093-.781-.39V3.583c0-.219-.016-.219-.234-.219-.328.313-.75.5-1.5.5v.266c.218 0 .64 0 1.109-.203v4.078c0 .297-.031.39-.781.39h-.281v.266c.328-.031 1.015-.031 1.375-.031.359 0 1.046 0 1.375.031zm4.466-1.594c0-.922-.672-1.75-1.61-1.75-.39 0-.765.125-1.078.407V4.177c.11.03.422.125.766.125 1 0 1.594-.703 1.594-.828 0-.094-.047-.11-.094-.11 0 0-.031 0-.094.031a2.982 2.982 0 0 1-1.109.22c-.469 0-.86-.11-1.11-.22-.078-.03-.109-.03-.109-.03-.094 0-.094.077-.094.234v2.328c0 .14 0 .234.125.234.063 0 .079-.031.125-.094.094-.11.391-.515 1.079-.515.437 0 .656.359.734.515.125.282.14.657.14.953 0 .297 0 .735-.218 1.079-.156.25-.485.484-.906.484a1.271 1.271 0 0 1-1.204-.844c.016.016.079.016.079.016.218 0 .406-.14.406-.39a.388.388 0 0 0-.39-.407c-.157 0-.407.078-.407.422 0 .719.625 1.453 1.531 1.453 1 0 1.844-.781 1.844-1.766zm28.01-3.487h-2.03a8.79 8.79 0 0 1-.641-.031c-.422-.032-.422-.11-.454-.235h-.25l-.265 1.688h.25c.015-.125.11-.672.219-.735.078-.046.687-.046.796-.046h1.688l-.813 1.109c-.906 1.203-1.109 2.469-1.109 3.094 0 .078 0 .453.375.453s.375-.36.375-.453v-.39c0-1.142.203-2.079.594-2.61l1.187-1.578c.078-.079.078-.094.078-.266ZM112.107 54.795c0-.063 0-.172-.125-.172-.11 0-.11.094-.125.156-.063.72-.406.891-.656.891-.485 0-.563-.516-.703-1.438l-.141-.796c-.172-.641-.656-.97-1.203-1.157.953-.234 1.734-.843 1.734-1.625 0-.953-1.14-1.797-2.594-1.797h-3.14v.313h.25c.765 0 .781.11.781.469v5.25c0 .36-.016.468-.781.468h-.25v.313c.36-.031 1.078-.031 1.453-.031.39 0 1.11 0 1.469.031v-.313h-.25c-.766 0-.782-.109-.782-.468v-2.516h1.141c.156 0 .578 0 .938.344.374.344.374.656.374 1.328 0 .64 0 1.047.407 1.422.406.36.953.422 1.25.422.781 0 .953-.813.953-1.094zm-2.25-4.14c0 .687-.234 1.5-1.703 1.5h-1.11v-2.579c0-.234 0-.36.22-.39.093-.016.39-.016.593-.016.89 0 2 .047 2 1.484zm6.848 3.343c0-.36-.11-.812-.5-1.234-.188-.203-.344-.297-.984-.703.718-.375 1.203-.891 1.203-1.547 0-.922-.875-1.485-1.782-1.485-1 0-1.812.735-1.812 1.672 0 .172.016.625.437 1.094.11.11.485.36.735.531-.578.297-1.438.844-1.438 1.844 0 1.047 1.016 1.719 2.063 1.719 1.125 0 2.078-.828 2.078-1.89zm-.719-3.484c0 .578-.39 1.047-.984 1.39l-1.235-.797c-.453-.296-.5-.625-.5-.796 0-.61.657-1.032 1.36-1.032.719 0 1.36.516 1.36 1.235zm.219 3.843c0 .735-.75 1.25-1.563 1.25-.859 0-1.578-.609-1.578-1.437 0-.578.313-1.219 1.157-1.688l1.234.782c.281.187.75.484.75 1.093zm11.439-2.015c0-.219-.062-.328-.14-.328-.047 0-.141.078-.141.265-.047.953-.703 1.5-1.406 1.5-.625 0-1.094-.422-1.594-.843-.5-.47-1.016-.922-1.703-.922-1.078 0-1.672 1.093-1.672 2 0 .328.125.328.14.328.11 0 .141-.203.141-.235.047-1.093.781-1.53 1.39-1.53.626 0 1.11.421 1.594.843.516.469 1.032.922 1.704.922 1.093 0 1.687-1.094 1.687-2zm11.161 2.453c0-.063 0-.172-.125-.172-.11 0-.11.094-.125.156-.063.72-.406.891-.656.891-.485 0-.563-.516-.703-1.438l-.141-.796c-.172-.641-.656-.97-1.203-1.157.953-.234 1.734-.843 1.734-1.625 0-.953-1.14-1.797-2.594-1.797h-3.14v.313h.25c.765 0 .781.11.781.469v5.25c0 .36-.016.468-.781.468h-.25v.313c.36-.031 1.078-.031 1.453-.031.39 0 1.11 0 1.469.031v-.313h-.25c-.766 0-.782-.109-.782-.468v-2.516h1.141c.156 0 .578 0 .938.344.375.344.375.656.375 1.328 0 .64 0 1.047.406 1.422.406.36.953.422 1.25.422.781 0 .953-.813.953-1.094zm-2.25-4.14c0 .687-.234 1.5-1.703 1.5h-1.11v-2.579c0-.234 0-.36.22-.39.093-.016.39-.016.593-.016.89 0 2 .047 2 1.484zm6.457 5.015v-.313h-.312c-.906 0-.922-.109-.922-.468v-5.594c0-.25 0-.266-.234-.266-.625.641-1.5.641-1.813.641v.312c.203 0 .781 0 1.297-.265v5.172c0 .36-.031.468-.922.468h-.312v.313c.343-.031 1.203-.031 1.609-.031.39 0 1.266 0 1.61.031zm5.278-2c0-1.188-.812-2.188-1.89-2.188-.469 0-.906.157-1.266.516v-1.953c.203.062.532.125.844.125 1.234 0 1.938-.906 1.938-1.031 0-.063-.032-.11-.11-.11 0 0-.031 0-.078.032a3.22 3.22 0 0 1-1.36.296c-.39 0-.859-.078-1.327-.28-.079-.032-.11-.032-.11-.032-.11 0-.11.078-.11.234v2.953c0 .172 0 .25.141.25.079 0 .094-.015.141-.078.11-.156.469-.703 1.281-.703.516 0 .766.453.844.64.156.376.188.75.188 1.25 0 .36 0 .954-.25 1.376-.235.39-.61.64-1.063.64-.719 0-1.297-.53-1.469-1.109.032 0 .063.016.172.016.328 0 .5-.25.5-.485 0-.25-.172-.5-.5-.5-.14 0-.484.078-.484.532 0 .859.687 1.828 1.797 1.828 1.156 0 2.172-.953 2.172-2.219Zm0 0"/></svg>