<?xml version="1.0" standalone="no"?><!DOCTYPE svg PUBLIC "-//W3C//DTD SVG 1.1//EN" "http://www.w3.org/Graphics/SVG/1.1/DTD/svg11.dtd"><svg t="1672470831235" class="icon" viewBox="0 0 1024 1024" version="1.1" xmlns="http://www.w3.org/2000/svg" p-id="1520" xmlns:xlink="http://www.w3.org/1999/xlink" width="48" height="48"><path d="M588.4 663.3L71.2 765.2 248.8 466l87.9 51.1 452.2-258.3L952.8 354 500.5 612.3l87.9 51" fill="#D4E4FC" p-id="1521"></path><path d="M788.9 251.5c1.3 0 2.5 0.3 3.7 1l163.8 95.2c2.3 1.3 3.7 3.7 3.6 6.4 0 2.6-1.4 5-3.7 6.3l-441.2 252 76.9 44.7c2.6 1.5 4 4.5 3.5 7.5s-2.8 5.4-5.8 6l-517 101.8c-2.8 0.6-5.7-0.6-7.4-3-1.7-2.4-1.8-5.5-0.3-7.9l177.5-299.2c2.1-3.5 6.5-4.6 10-2.6l84.2 48.9 448.6-256.2c1.1-0.6 2.3-0.9 3.6-0.9z m149.2 102.4l-149.2-86.7-448.6 256.2c-2.3 1.3-5.1 1.3-7.3 0L251.4 476 85.9 754.9l482-94.9-71.1-41.3c-2.3-1.3-3.7-3.7-3.6-6.4 0-2.6 1.4-5 3.7-6.3l441.2-252.1z" fill="#0276F7" p-id="1522"></path></svg>