<?xml version="1.0" standalone="no"?><!DOCTYPE svg PUBLIC "-//W3C//DTD SVG 1.1//EN" "http://www.w3.org/Graphics/SVG/1.1/DTD/svg11.dtd"><svg t="1672470834888" class="icon" viewBox="0 0 1024 1024" version="1.1" xmlns="http://www.w3.org/2000/svg" p-id="1672" xmlns:xlink="http://www.w3.org/1999/xlink" width="48" height="48"><path d="M588.1 361.2L72.9 259.8l176.9 298 87.5-50.8 450.5 257.3 163.3-94.9-450.5-257.3 87.5-50.9" fill="#D4E4FC" p-id="1673"></path><path d="M787.8 771.6c-1.2 0-2.5-0.3-3.6-1L337.4 515.4l-83.9 48.8c-3.4 2-7.9 0.8-9.9-2.6l-177-298.1c-1.5-2.5-1.3-5.6 0.3-7.9s4.6-3.5 7.4-2.9l515.2 101.5c3 0.6 5.3 2.9 5.8 5.9 0.5 3-0.9 6-3.5 7.5L515.2 412l439.5 251c2.3 1.3 3.7 3.7 3.7 6.3 0 2.6-1.4 5-3.6 6.3l-163.2 94.9c-1.2 0.7-2.5 1.1-3.8 1.1zM337.3 499.7c1.2 0 2.5 0.3 3.6 1l446.9 255.2 148.6-86.4-439.5-251c-2.3-1.3-3.7-3.7-3.7-6.3 0-2.6 1.4-5 3.6-6.3l70.8-41.2-480.1-94.6 164.9 277.8 81.3-47.2c1.1-0.7 2.4-1 3.6-1z" fill="#0276F7" p-id="1674"></path></svg>