<?xml version="1.0" standalone="no"?><!DOCTYPE svg PUBLIC "-//W3C//DTD SVG 1.1//EN" "http://www.w3.org/Graphics/SVG/1.1/DTD/svg11.dtd"><svg t="1672470728171" class="icon" viewBox="0 0 1024 1024" version="1.1" xmlns="http://www.w3.org/2000/svg" p-id="3506" xmlns:xlink="http://www.w3.org/1999/xlink" width="48" height="48"><path d="M798.8 635.8c-0.1 1.6-0.3 3.2-0.5 4.7-0.1 0.8-0.3 1.7-0.5 2.5-0.3 1.2-0.6 2.4-1 3.6-0.3 0.9-0.6 1.7-0.9 2.5-0.4 1.1-1 2.2-1.5 3.2-0.4 0.8-0.8 1.6-1.3 2.4-0.7 1.1-1.4 2.2-2.2 3.3-0.5 0.7-1 1.4-1.6 2.1-1.5 1.9-3.1 3.7-5 5.4l-0.2 0.2c-3 2.7-6.4 5.3-10.3 7.6-0.5 0.3-1 0.7-1.6 1-2.9 1.7-6.1 3.3-9.4 4.7-1.1 0.5-2.3 0.9-3.4 1.3-2.2 0.9-4.4 1.7-6.7 2.4-5 1.6-10.4 2.9-15.9 4-1.8 0.3-3.5 0.6-5.3 0.9-2.4 0.4-4.8 0.7-7.3 1l-6.6 0.6c-2.2 0.2-4.3 0.3-6.5 0.4-2.4 0.1-4.8 0.2-7.2 0.2-2.2 0-4.5 0.1-6.7 0-2.4 0-4.8-0.1-7.2-0.2-2.6-0.1-5.1-0.2-7.7-0.4-2.3-0.2-4.6-0.4-6.8-0.6-3.1-0.3-6.2-0.6-9.4-1.1-2.1-0.3-4.3-0.6-6.4-0.9-4.2-0.6-8.4-1.4-12.7-2.2-1.7-0.3-3.3-0.6-5-1-6.8-1.4-13.6-3.1-20.4-5-1.2-0.3-2.4-0.7-3.6-1.1-9.1-2.7-18.2-5.7-27.2-9.2-1.5-0.6-2.9-1.2-4.4-1.8-4.7-1.9-9.4-4-14-6.1-1.7-0.8-3.5-1.6-5.2-2.4-5.9-2.9-11.8-5.9-17.5-9.2-46.6-26.9-71.8-59.8-71.7-87.6l-0.1 22.9c-0.1 27.8 25.1 60.7 71.7 87.6 5.7 3.3 11.6 6.3 17.5 9.2 1.7 0.8 3.4 1.6 5.2 2.4 4.6 2.1 9.3 4.2 14 6.1 1.1 0.4 2.1 1 3.2 1.4 0.4 0.2 0.8 0.3 1.2 0.4 8.9 3.5 18 6.5 27.2 9.2 0.7 0.2 1.3 0.5 2 0.7 0.5 0.2 1.1 0.2 1.6 0.4 6.8 1.9 13.6 3.6 20.4 5 0.4 0.1 0.9 0.2 1.3 0.3 1.3 0.3 2.5 0.4 3.8 0.7 4.2 0.8 8.4 1.6 12.6 2.2 1 0.2 2 0.4 3 0.5 1.2 0.2 2.3 0.2 3.5 0.4 3.1 0.4 6.3 0.8 9.4 1.1 1.3 0.1 2.7 0.3 4 0.5 1 0.1 1.9 0.1 2.9 0.2 2.6 0.2 5.2 0.3 7.7 0.4 1.5 0.1 3 0.2 4.5 0.2h13.8c0.9 0 1.8-0.1 2.8-0.2 2.2-0.1 4.4-0.3 6.5-0.4 1.3-0.1 2.7-0.1 4.1-0.3 0.9-0.1 1.7-0.3 2.6-0.4 2.5-0.3 4.9-0.6 7.3-1 1.3-0.2 2.6-0.3 3.9-0.5 0.5-0.1 1-0.3 1.5-0.4 5.6-1.1 10.9-2.4 15.9-4 0.2-0.1 0.5-0.1 0.8-0.2 2-0.7 3.9-1.5 5.9-2.2 1.1-0.4 2.3-0.8 3.4-1.3 3.3-1.4 6.4-3 9.4-4.7l0.9-0.6c0.2-0.1 0.4-0.3 0.6-0.5 3.9-2.4 7.4-4.9 10.3-7.6l0.2-0.2c1.9-1.7 3.5-3.5 5-5.4 0.2-0.2 0.4-0.4 0.5-0.6 0.4-0.5 0.7-1.1 1.1-1.6 0.8-1.1 1.5-2.2 2.2-3.3l0.6-0.9c0.3-0.5 0.5-1 0.7-1.5 0.5-1.1 1.1-2.1 1.5-3.2l0.6-1.2c0.2-0.4 0.2-0.9 0.4-1.4 0.4-1.2 0.7-2.4 1-3.6 0.1-0.5 0.3-1 0.4-1.5 0.1-0.3 0.1-0.7 0.1-1 0.3-1.5 0.4-3.1 0.5-4.7 0-0.5 0.2-1 0.2-1.5v-1.1l0.1-22.9c-0.4 1.2-0.6 2-0.6 2.9z" fill="#D4E4FC" p-id="3507"></path><path d="M698.8 719.9H694l-4.6-0.3c-2.6-0.1-5.2-0.2-7.9-0.4l-7-0.6c-3.2-0.3-6.4-0.7-9.6-1.1l-5.5-0.7c-5.4-0.8-9.7-1.6-14.1-2.5l-5.2-1c-6.9-1.4-13.8-3.2-20.7-5.1l-3.2-0.9c-10.1-3-19.5-6.1-28.2-9.6l-3.3-1.3c-6-2.5-10.8-4.6-15.5-6.8l-5.3-2.5c-6.1-3-12.1-6.1-17.9-9.4-47.2-27.3-75.3-62.3-75.2-93.7l0.1-22.8h14c-0.1 25.9 26.1 57.1 68.2 81.5 5.5 3.2 11.3 6.2 17.1 9l4.3 2c5.3 2.5 9.9 4.4 14.5 6.3l4.3 1.8c8.4 3.3 17.3 6.3 26.6 9l3.5 1c6.7 1.9 13.3 3.5 20 4.9l4.9 1c4.1 0.8 8.3 1.5 12.4 2.2 2.1 0.3 4.2 0.6 6.2 0.9 3.1 0.4 6.1 0.8 9.2 1 2.2 0.2 4.5 0.4 6.7 0.6 2.5 0.2 5 0.3 7.5 0.4 2.4 0.1 4.7 0.2 7 0.2 2.2 0.1 4.3 0 6.5 0 2.3 0 4.6-0.1 7-0.2 2.1-0.1 4.2-0.3 6.3-0.4 2.1-0.2 4.3-0.4 6.4-0.6 2.4-0.3 4.7-0.6 7.1-1l5.1-0.9c5.5-1.1 10.6-2.3 15.1-3.8 2.1-0.7 4.2-1.5 6.2-2.3l3.2-1.2c3.1-1.3 6-2.8 8.7-4.3l5.1 5.1-3.7-6c3.7-2.2 6.8-4.5 9.2-6.8 1.8-1.7 3.2-3.2 4.5-4.8l0.8-1.1c1.2-1.6 1.8-2.5 2.4-3.5 0.4-0.6 0.7-1.3 1-1.9 0.5-1 0.9-1.9 1.3-2.8 0.3-0.7 0.5-1.4 0.8-2.1l0.9-3 0.5-2.1c0.2-1.3 0.3-2.6 0.4-3.9l0.2-2.2h14l-0.1 22.8c0 1.8-0.1 2.4-0.2 2.9-0.2 2-0.3 3.9-0.7 5.7l-0.6 2.7c-0.4 1.6-0.8 3-1.3 4.4-0.1 0.5-0.3 1-0.4 1.5l-0.7 1.5c-0.5 1.2-1.1 2.5-1.7 3.7-0.4 0.8-0.6 1.3-0.8 1.8l-0.8 1.2c-0.7 1.1-1.6 2.4-2.5 3.7-0.5 0.8-0.8 1.3-1.2 1.8-2.3 2.8-4.1 4.8-6.3 6.8-3.4 3.1-7.2 6-11.6 8.7l-5.2-5 3.5 6.1c-3.2 1.8-6.6 3.5-10.1 5.1-0.7 0.3-1.5 0.6-2.4 0.9l-2.9 1.1c-1.5 0.6-3 1.2-4.6 1.7-5.8 1.8-11.3 3.2-17.5 4.4-0.6 0.2-1.1 0.3-1.6 0.4-0.8 0.2-1.8 0.3-2.7 0.4-3.8 0.6-6.4 0.9-9 1.2l-6.8 0.6c-2.2 0.2-4.5 0.3-6.8 0.5l-2.9 0.2h-4.6c-1.8-0.1-3.4-0.1-5-0.1z m-75.7-25.2c6.7 1.8 13.3 3.5 19.9 4.9l5 1c4.1 0.8 8.2 1.5 12.3 2.1l6.3 0.9c3.1 0.4 6.1 0.7 9.1 1l6.7 0.6c2.5 0.2 5 0.3 7.5 0.4l4.5 0.2h2.5c2.2 0.1 4.3 0 6.5 0l7-0.2c2.1-0.1 4.2-0.2 6.3-0.4l6.3-0.6c2.5-0.3 4.8-0.6 7.1-1l5.2-0.9c5.6-1.1 10.6-2.3 15-3.7 2.1-0.6 3.3-1.1 4.6-1.6l4.9-1.9c3.1-1.3 6-2.8 8.7-4.3l1.3-0.8c3.8-2.3 6.9-4.6 9.4-6.9 1.8-1.7 3.2-3.2 4.5-4.8l1.3-1.8c0.7-0.9 1.3-1.9 1.9-2.8l1.1-2c0.1-0.2 0.2-0.5 0.4-0.7-3.2 2.9-6.8 5.6-11 8.1l-1.7 1.1c-3.2 1.8-6.6 3.5-10.1 5.1-0.8 0.4-1.7 0.7-2.6 1-3.4 1.3-5.7 2.2-8.2 3-5.1 1.6-10.7 3-16.7 4.2-1.8 0.3-3.7 0.6-5.6 0.9-2.6 0.4-5.1 0.8-7.6 1.1-2.3 0.2-4.6 0.5-6.9 0.6-2.3 0.2-4.5 0.3-6.8 0.5-2.4 0.1-4.9 0.2-7.4 0.2-2.3 0-4.6 0.1-6.9 0-2.4 0-4.8-0.1-7.2-0.2-2.8-0.1-5.4-0.2-8.1-0.4-2.3-0.2-4.7-0.4-7-0.6-3.2-0.3-6.4-0.7-9.6-1.1l-6.6-0.9c-4.3-0.7-8.6-1.4-13-2.3l-5.1-1c-6.9-1.5-13.9-3.2-20.8-5.1l-3.6-1.1c-9.7-2.8-19-6-27.8-9.4l-4.5-1.8c-4.8-2-9.6-4-14.3-6.2l-5.3-2.5c-6.1-3-12.1-6.1-17.9-9.5-20.9-12.1-38.1-25.7-50.7-39.8 11.4 17.6 31.4 35.4 57.7 50.5 5.5 3.2 11.3 6.1 17.1 9l5.1 2.4c4.5 2.1 9.1 4.1 13.7 6l3.1 1.3c9.6 3.7 18.5 6.7 27.8 9.4l1.3 0.5 0.3 7.4 1.6-7.1z" fill="#0276F7" p-id="3508"></path><path d="M727.2 545.6c73.9 42.7 94 100.4 44.9 128.9s-148.7 17-222.6-25.7c-73.8-42.6-94-100.3-44.9-128.8 49.1-28.5 148.8-17.1 222.6 25.6z" fill="#D4E4FC" p-id="3509"></path><path d="M700.5 697c-49.3 0-107.2-14.7-154.5-42.1-47.1-27.2-75.2-62.1-75.2-93.4 0-19.5 10.5-36 30.3-47.5 50.9-29.6 154-18.2 229.6 25.5 47.1 27.2 75.2 62.1 75.2 93.5 0 19.6-10.5 36-30.3 47.6-19.1 11-45.5 16.4-75.1 16.4z m-124-185.8c-27 0-51.1 4.8-68.4 14.9-15.5 9-23.4 20.9-23.4 35.4 0 26.3 25.5 56.7 68.2 81.3 71.8 41.5 168.5 53 215.6 25.6 15.3-8.9 23.4-21.1 23.4-35.4 0-26.3-25.5-56.7-68.2-81.4-45.4-26.2-100.7-40.4-147.2-40.4z" fill="#0276F7" p-id="3510"></path><path d="M653.2 582.3c21.4 12.4 27.2 29.1 13 37.4-14.2 8.3-43.1 4.9-64.5-7.4-21.4-12.4-27.2-29.1-13-37.3 14.2-8.4 43.1-5.1 64.5 7.3z" fill="#FFFFFF" p-id="3511"></path><path d="M645.3 631.1c-15.1 0-32.6-4.5-47.1-12.9-15.4-8.9-24.3-20.3-24.3-31.4 0-7.4 4-13.9 11.3-18.1 16.4-9.5 47.8-6.3 71.5 7.4 15.4 8.9 24.3 20.4 24.3 31.4 0 7.4-4 13.9-11.3 18.1-6.3 3.8-14.9 5.5-24.4 5.5z m-35.7-53.8c-7.2 0-13.4 1.3-17.5 3.6-4.3 2.5-4.3 5.1-4.3 5.9 0 4.3 4.5 11.9 17.3 19.3 21.1 12.2 46.7 13.7 57.5 7.4 4.3-2.5 4.3-5.1 4.3-6 0-4.3-4.5-11.9-17.3-19.3-13.1-7.5-28-10.9-40-10.9z" fill="#0276F7" p-id="3512"></path><path d="M273.6 548.2l-169.5 98.5c-6.1 3.5-9.8 10-9.9 17.1 0 7.1 3.8 13.7 9.9 17.2l466.8 269.5c6.2 3.6 13.7 3.5 19.9 0L760.3 852c6.1-3.5 9.8-10 9.9-17.1 0-7.1-3.8-13.7-9.9-17.2L293.5 548.2c-6.2-3.5-13.7-3.5-19.9 0z" fill="#D4E4FC" p-id="3513"></path><path d="M580.8 960.2c-4.6 0-9.3-1.2-13.4-3.6L100.6 687.1c-8.3-4.8-13.4-13.7-13.4-23.3 0-9.5 5.1-18.3 13.3-23.1L270 542.2c8.3-4.8 18.6-4.8 26.9 0l466.8 269.5c8.3 4.8 13.5 13.7 13.4 23.3 0 9.5-5.1 18.3-13.3 23.1l-169.5 98.5c-4.1 2.4-8.8 3.6-13.5 3.6zM283.6 552.6c-2.2 0-4.4 0.6-6.4 1.7l-169.5 98.5c-3.9 2.3-6.4 6.5-6.4 11 0 4.6 2.4 8.8 6.4 11.1l466.8 269.5c4 2.3 8.9 2.3 12.9 0L756.8 846c3.9-2.3 6.4-6.5 6.4-11 0-4.6-2.4-8.9-6.4-11.2L290 554.3c-2-1.2-4.2-1.7-6.4-1.7z" fill="#0276F7" p-id="3514"></path><path d="M890.3 359.9l-39.6 369.7-460.3-265.7L430 94.2z" fill="#D4E4FC" p-id="3515"></path><path d="M850.7 736.7c-1.2 0-2.4-0.3-3.5-0.9L386.9 470c-2.4-1.4-3.8-4.1-3.5-6.8L423 93.4c0.2-2.4 1.7-4.4 3.8-5.5 2.1-1.1 4.6-1 6.7 0.2l460.3 265.7c2.4 1.4 3.8 4.1 3.5 6.8l-39.6 369.7c-0.2 2.4-1.7 4.4-3.8 5.5-1 0.6-2.1 0.9-3.2 0.9zM397.9 460.1l447 258.1 37.9-354.5-447-258.1-37.9 354.5z" fill="#0276F7" p-id="3516"></path><path d="M890.3 359.9l39.5-22.9-39.6 369.7-39.5 22.9z" fill="#D4E4FC" p-id="3517"></path><path d="M850.7 736.7c-1.3 0-2.7-0.4-3.8-1.1-2.2-1.4-3.4-4-3.1-6.6l39.6-369.7c0.2-2.2 1.5-4.2 3.4-5.3l39.5-23c2.3-1.3 5.1-1.3 7.3 0.2 2.2 1.4 3.4 4 3.1 6.6l-39.6 369.7c-0.2 2.2-1.5 4.2-3.4 5.3l-39.5 23c-1.1 0.5-2.3 0.9-3.5 0.9z m46.2-372.5l-37.7 352.4 24.5-14.2L921.3 350l-24.4 14.2z" fill="#0276F7" p-id="3518"></path><path d="M430 94.2l39.5-23L929.8 337l-39.5 22.9z" fill="#FFFFFF" p-id="3519"></path><path d="M890.3 366.9c-1.2 0-2.4-0.3-3.5-0.9L426.5 100.3c-2.2-1.3-3.5-3.6-3.5-6.1 0-2.5 1.3-4.8 3.5-6.1l39.5-23c2.2-1.3 4.8-1.3 7 0l460.3 265.7c2.2 1.3 3.5 3.6 3.5 6.1 0 2.5-1.3 4.8-3.5 6.1l-39.5 23c-1.1 0.6-2.3 0.9-3.5 0.9zM444 94.2l446.3 257.7 25.5-14.8L469.5 79.3 444 94.2z" fill="#0276F7" p-id="3520"></path><path d="M463.5 861.7c-2.4 0-4.8-1.2-6.1-3.5-1.9-3.3-0.8-7.6 2.5-9.6l176.8-102.8c3.3-1.9 7.6-0.8 9.6 2.5 1.9 3.3 0.8 7.6-2.5 9.6L467.1 860.7c-1.2 0.7-2.4 1-3.6 1zM398.7 783.7c-1.2 0-2.5-0.3-3.6-1L222.4 679.9c-3.3-2-4.4-6.3-2.4-9.6 2-3.3 6.3-4.4 9.6-2.4l172.7 102.8c3.3 2 4.4 6.3 2.4 9.6-1.3 2.2-3.6 3.4-6 3.4z" fill="#0276F7" p-id="3521"></path><path d="M580.9 928.6c-1.2 0-2.4-0.3-3.5-0.9L98.2 654.3c-3.4-1.9-4.5-6.2-2.6-9.6 1.9-3.4 6.2-4.5 9.6-2.6L581 913.6l145.6-82.1c3.4-1.9 7.7-0.7 9.6 2.7 1.9 3.4 0.7 7.7-2.7 9.6l-149 84.1c-1.3 0.4-2.4 0.7-3.6 0.7z" fill="#0276F7" p-id="3522"></path><path d="M842 380.4l-30.7 286.7-379.1-224.3 30.7-286.7z" fill="#FFFFFF" p-id="3523"></path><path d="M811.3 674.1c-1.2 0-2.5-0.3-3.6-1L428.6 448.8c-2.4-1.4-3.7-4-3.4-6.8l30.7-286.7c0.2-2.4 1.7-4.4 3.8-5.5 2.1-1.1 4.7-1 6.7 0.2l379.1 224.3c2.4 1.4 3.7 4 3.4 6.8l-30.7 286.7c-0.2 2.4-1.7 4.5-3.8 5.5-0.9 0.6-2 0.8-3.1 0.8zM439.7 439l365.9 216.5 29-271.4-365.9-216.4-29 271.3z" fill="#0276F7" p-id="3524"></path></svg>