<?xml version="1.0" standalone="no"?><!DOCTYPE svg PUBLIC "-//W3C//DTD SVG 1.1//EN" "http://www.w3.org/Graphics/SVG/1.1/DTD/svg11.dtd"><svg t="1672470720199" class="icon" viewBox="0 0 1024 1024" version="1.1" xmlns="http://www.w3.org/2000/svg" p-id="3343" xmlns:xlink="http://www.w3.org/1999/xlink" width="48" height="48"><path d="M92.9 644.8c-6 3.5-9.7 9.9-9.7 16.9 0 7 3.7 13.5 9.8 17l470.4 271.6L863 776.9c6-3.5 9.7-9.9 9.7-16.9 0-7-3.7-13.5-9.8-17L392.5 471.4 92.9 644.8z" fill="#D4E4FC" p-id="3344"></path><path d="M563.3 957.6c-1.3 0-2.6-0.3-3.7-1L89.2 685c-8.3-4.8-13.5-13.8-13.5-23.4 0-9.5 5.2-18.4 13.4-23.2L388.8 465c2.3-1.3 5.1-1.3 7.4 0l470.4 271.6c8.3 4.8 13.5 13.8 13.5 23.4 0 9.5-5.2 18.4-13.4 23.2L567 956.6c-1.1 0.7-2.4 1-3.7 1zM96.6 651.2c-3.7 2.2-6 6.2-6.1 10.5 0 4.3 2.3 8.4 6.1 10.6l466.7 269.5 295.9-171.2c3.7-2.2 6-6.2 6-10.5s-2.3-8.4-6.1-10.6L392.5 479.9 96.6 651.2z" fill="#0276F7" p-id="3345"></path><path d="M383.6 780.4c-1.3 0-2.6-0.3-3.8-1L209.4 677.9c-3.5-2.1-4.7-6.6-2.6-10.2 2.1-3.5 6.6-4.7 10.2-2.6l170.4 101.5c3.5 2.1 4.7 6.6 2.6 10.2-1.5 2.3-3.9 3.6-6.4 3.6z" fill="#0276F7" p-id="3346"></path><path d="M563.3 923.4c-1.3 0-2.5-0.3-3.7-1L86.8 652.6c-3.6-2-4.8-6.6-2.8-10.1s6.5-4.8 10.1-2.8l469.2 267.7 143.4-80.9c3.6-2 8.1-0.8 10.1 2.8 2 3.6 0.8 8.1-2.8 10.1l-147 83c-1.2 0.7-2.4 1-3.7 1z" fill="#0276F7" p-id="3347"></path><path d="M900.1 371.3l-40.7 381.1L385 478.5l40.8-381z" fill="#D4E4FC" p-id="3348"></path><path d="M859.4 759.8c-1.3 0-2.6-0.3-3.7-1L381.3 484.9c-2.5-1.5-4-4.3-3.7-7.2l40.8-381c0.3-2.5 1.8-4.7 4-5.8 2.2-1.1 4.9-1.1 7.1 0.2L903.9 365c2.5 1.5 4 4.3 3.7 7.2l-40.8 381c-0.3 2.5-1.8 4.7-4 5.8-1.1 0.5-2.3 0.8-3.4 0.8zM392.9 474.5l460.3 265.8 39-364.9-460.3-265.8-39 364.9z" fill="#0276F7" p-id="3349"></path><path d="M900.1 371.3l40.8-23.6L893 758.3 852.3 782z" fill="#D4E4FC" p-id="3350"></path><path d="M852.3 789.4c-1.4 0-2.8-0.4-4.1-1.2-2.4-1.5-3.6-4.3-3.3-7l47.8-410.6c0.3-2.3 1.6-4.4 3.6-5.6l40.7-23.7c2.4-1.4 5.5-1.3 7.8 0.2 2.4 1.5 3.6 4.3 3.3 7l-47.8 410.6c-0.3 2.3-1.6 4.4-3.6 5.6L856 788.4c-1.1 0.7-2.4 1-3.7 1z m54.8-413.5l-45.7 392.3 24.7-14.4 45.7-392.3-24.7 14.4z" fill="#0276F7" p-id="3351"></path><path d="M425.8 97.5l40.7-23.7 474.4 273.9-40.8 23.6z" fill="#FFFFFF" p-id="3352"></path><path d="M900.1 378.7c-1.3 0-2.6-0.3-3.7-1L422.1 103.9c-2.3-1.3-3.7-3.8-3.7-6.4 0-2.6 1.4-5.1 3.7-6.4l40.7-23.7c2.3-1.3 5.1-1.3 7.4 0l474.4 273.9c2.3 1.3 3.7 3.8 3.7 6.4 0 2.6-1.4 5.1-3.7 6.4l-40.7 23.7c-1.2 0.6-2.5 0.9-3.8 0.9zM440.6 97.4l459.6 265.3 26-15.1L466.5 82.4l-25.9 15z" fill="#0276F7" p-id="3353"></path><path d="M850.4 392.5l-31.6 295.4-390.7-231.2 31.6-295.4z" fill="#FFFFFF" p-id="3354"></path><path d="M818.8 695.3c-1.3 0-2.6-0.3-3.8-1L424.3 463.1c-2.5-1.5-3.9-4.3-3.6-7.2l31.6-295.4c0.3-2.5 1.8-4.7 4-5.8 2.3-1.1 4.9-1 7.1 0.2l390.7 231.2c2.5 1.5 3.9 4.3 3.6 7.2l-31.6 295.4c-0.3 2.5-1.8 4.7-4 5.8-1 0.6-2.2 0.8-3.3 0.8zM435.9 452.8l376.7 222.9 29.9-279.2-376.7-223-29.9 279.3z" fill="#0276F7" p-id="3355"></path><path d="M782.3 768.9c-1.3 0-2.5-0.3-3.7-1L375.8 534.5 192 640.6c-3.6 2.1-8.1 0.8-10.1-2.7s-0.8-8.1 2.7-10.1l187.5-108.2c2.3-1.3 5.1-1.3 7.4 0L786 755.1c3.5 2.1 4.8 6.6 2.7 10.1-1.4 2.4-3.8 3.7-6.4 3.7z" fill="#0276F7" p-id="3356"></path></svg>