<?xml version="1.0" standalone="no"?><!DOCTYPE svg PUBLIC "-//W3C//DTD SVG 1.1//EN" "http://www.w3.org/Graphics/SVG/1.1/DTD/svg11.dtd"><svg t="1672470707309" class="icon" viewBox="0 0 1024 1024" version="1.1" xmlns="http://www.w3.org/2000/svg" p-id="3004" xmlns:xlink="http://www.w3.org/1999/xlink" width="48" height="48"><path d="M945.2 518.5v217.9c0 17.1-9.3 32.9-24.2 41.3l-248.4 139c-14.5 8.1-32.2 8-46.7-0.3L136.6 635.6c-14.7-8.4-23.8-24.1-23.8-41V412.7c0-36.4 19.5-70.1 51.1-88.2L369.1 207c24.6-14.1 54.7-14 79.3 0l473.9 272c14.2 8.2 22.9 23.2 22.9 39.5z" fill="#D4E4FC" p-id="3005"></path><path d="M649.5 930.2c-9.5 0-18.9-2.4-27.3-7.2L132.9 642.1c-17-9.8-27.5-28-27.5-47.6V412.7c0-39 21.1-75.3 54.9-94.8l205.2-117.5c26.8-15.3 60-15.3 86.8 0l473.9 272c16.4 9.4 26.6 27 26.6 45.9v217.9c0 19.8-10.8 38.2-28.1 47.9l-248.4 139c-8.3 4.8-17.5 7.1-26.8 7.1z m-240.7-726c-12.4 0-24.8 3.2-35.8 9.5L167.7 331.1c-29.2 16.7-47.3 48-47.3 81.6v181.8c0 14.2 7.6 27.4 20 34.5l489.3 280.8c12 6.9 27 7 39.2 0.2l248.4-139c12.6-7 20.3-20.3 20.3-34.7V518.5c0-13.5-7.3-26.1-19-32.8l-473.9-272c-11.1-6.4-23.5-9.5-35.9-9.5z" fill="#0276F7" p-id="3006"></path><path d="M698.3 621.8L923.2 492c-3.2-3.9-6.9-7.4-11.4-10L450.2 215a77.154 77.154 0 0 0-77.2 0L173.2 330.2" fill="#FFFFFF" p-id="3007"></path><path d="M649.2 882.7c-4.2 0-7.6-3.4-7.6-7.6v-164c0-39 21.1-75.3 54.9-94.8L883 509.7c3.6-2.1 8.2-0.9 10.3 2.8 2.1 3.6 0.8 8.2-2.8 10.3L704.1 629.5c-29.2 16.7-47.3 48-47.3 81.6v164c0 4.2-3.4 7.6-7.6 7.6zM555.6 875.4c-4.2 0-7.6-3.4-7.6-7.6V628.3c0-6.6-3.6-12.7-9.3-16L224.1 434.9c-3.4-1.9-7.4-1.9-10.7 0.1-3.3 1.9-5.3 5.4-5.3 9.3v223.3c0 4.2-3.4 7.6-7.6 7.6-4.2 0-7.6-3.4-7.6-7.6V444.3c0-9.3 4.8-17.6 12.8-22.3 8-4.7 17.6-4.8 25.7-0.2L546 599.2c10.5 5.9 17 17.1 17 29.1v239.5c0.1 4.2-3.3 7.6-7.4 7.6z" fill="#0276F7" p-id="3008"></path><path d="M555.6 871.7c-4.2 0-7.6-3.4-7.6-7.6v-99.7c0-18.3-9.9-35.2-25.8-44.1L224.1 552.2c-3.4-1.9-7.4-1.9-10.7 0.1-3.3 1.9-5.3 5.4-5.3 9.3V664c0 4.2-3.4 7.6-7.6 7.6-4.2 0-7.6-3.4-7.6-7.6V561.6c0-9.3 4.8-17.6 12.8-22.3 8-4.7 17.6-4.8 25.7-0.2l298.2 168.1c20.6 11.6 33.5 33.6 33.5 57.3v99.7c0 4.1-3.4 7.5-7.5 7.5z" fill="#0276F7" p-id="3009"></path><path d="M426.5 948.6c-1.3 0-2.5-0.3-3.6-0.9L69.3 753.9c-2.3-1.3-3.8-3.7-3.9-6.3-0.1-2.6 1.2-5.1 3.4-6.6l229.9-153.6c3.4-2.3 8.1-1.4 10.5 2.1 2.3 3.5 1.4 8.2-2.1 10.5L87.4 746.7l338.9 185.7 119.5-71c3.6-2.1 8.2-1 10.4 2.6s1 8.2-2.6 10.4l-123.2 73.2c-1.3 0.6-2.6 1-3.9 1z" fill="#0276F7" p-id="3010"></path><path d="M258 631.6L87.2 745.7l339.4 186L547.3 860v-62.6z" fill="#FFFFFF" p-id="3011"></path><path d="M563.7 83l389.8 227.2-52.4 154.6-389.8-224.1z" fill="#D4E4FC" p-id="3012"></path><path d="M901.1 472.3c-1.3 0-2.6-0.3-3.8-1L507.6 247.2c-3.1-1.8-4.5-5.5-3.4-8.9l52.3-157.7c0.7-2.2 2.4-3.9 4.5-4.7 2.2-0.8 4.5-0.6 6.5 0.5l389.8 227.2c3.1 1.8 4.5 5.5 3.3 8.9l-52.4 154.6c-0.7 2.1-2.4 3.9-4.5 4.6-0.8 0.5-1.7 0.6-2.6 0.6zM520.5 237.2l376.4 216.5 47.4-140.1L567.9 94.2l-47.4 143z" fill="#0276F7" p-id="3013"></path><path d="M846.9 493.7c-1.3 0-2.6-0.3-3.8-1L439.3 259.5c-3.6-2.1-4.9-6.7-2.8-10.3 2.1-3.6 6.7-4.8 10.3-2.8l403.9 233.1c3.6 2.1 4.9 6.7 2.8 10.3-1.4 2.5-4 3.9-6.6 3.9z" fill="#0276F7" p-id="3014"></path><path d="M607.8 658.4c-1.2 0-2.4-0.3-3.6-0.9l-19.5-10.4c-3.7-2-5.1-6.5-3.1-10.2 2-3.7 6.6-5 10.2-3.1l19.5 10.4c3.7 2 5.1 6.5 3.1 10.2-1.2 2.5-3.9 4-6.6 4z" fill="#0276F7" p-id="3015"></path></svg>