<svg width="218" height="131" xmlns="http://www.w3.org/2000/svg" xmlns:xlink="http://www.w3.org/1999/xlink" overflow="hidden"><defs><clipPath id="clip0"><rect x="1514" y="554" width="218" height="131"/></clipPath></defs><g clip-path="url(#clip0)" transform="translate(-1514 -554)"><path d="M1678.5 604.799 1678.5 634.201C1678.5 660.324 1657.32 681.5 1631.2 681.5L1564.5 681.5 1564.5 557.5 1631.2 557.5C1657.32 557.5 1678.5 578.676 1678.5 604.799Z" stroke="#000000" stroke-width="6.875" stroke-linejoin="round" stroke-miterlimit="10" fill="none" fill-rule="evenodd"/><path d="M0 0 49.6776 0.000360892" stroke="#000000" stroke-width="6.875" stroke-miterlimit="8" fill="none" fill-rule="evenodd" transform="matrix(1 0 0 -1 1678.5 619.5)"/><path d="M0 0 49.6776 0.000360892" stroke="#000000" stroke-width="6.875" stroke-miterlimit="8" fill="none" fill-rule="evenodd" transform="matrix(1 0 0 -1 1514.5 640.5)"/><path d="M0 0 49.6776 0.000360892" stroke="#000000" stroke-width="6.875" stroke-miterlimit="8" fill="none" fill-rule="evenodd" transform="matrix(1 0 0 -1 1514.5 597.5)"/></g></svg>