<svg width="275" height="130" xmlns="http://www.w3.org/2000/svg" xmlns:xlink="http://www.w3.org/1999/xlink" overflow="hidden"><defs><clipPath id="clip0"><rect x="1132" y="755" width="275" height="130"/></clipPath></defs><g clip-path="url(#clip0)" transform="translate(-1132 -755)"><path d="M1132.5 813.5 1230.06 813.501" stroke="#000000" stroke-width="6.875" stroke-miterlimit="8" fill="none" fill-rule="evenodd"/><path d="M52.7101 0 155 0C143.694 0 101.124 28.6835 101.124 62.6438 101.124 96.604 143.694 123 155 123L52.7101 123C41.4045 123 0 96.0382 0 62.0779 0 28.1177 41.4045 0 52.7101 0Z" stroke="#000000" stroke-width="6.875" stroke-linejoin="round" stroke-miterlimit="10" fill="none" fill-rule="evenodd" transform="matrix(-1 0 0 1 1358.5 758.5)"/><path d="M1160 758C1200.87 758 1234 785.535 1234 819.5 1234 853.257 1201.26 880.704 1160.64 880.998L1160.57 874.333C1197.76 874.075 1227.65 849.316 1227.33 819.033 1227.02 788.932 1196.96 764.666 1160 764.666Z" fill-rule="evenodd"/><path d="M1358.5 813.5 1403.24 813.501" stroke="#000000" stroke-width="6.875" stroke-miterlimit="8" fill="none" fill-rule="evenodd"/></g></svg>