<svg width="211" height="69" xmlns="http://www.w3.org/2000/svg" xmlns:xlink="http://www.w3.org/1999/xlink" overflow="hidden"><defs><clipPath id="clip0"><rect x="1962" y="1101" width="211" height="69"/></clipPath><linearGradient x1="2067.5" y1="1105" x2="2067.5" y2="1155" gradientUnits="userSpaceOnUse" spreadMethod="reflect" id="fill1"><stop offset="0" stop-color="#D2D2D2"/><stop offset="0.5" stop-color="#C8C8C8"/><stop offset="1" stop-color="#C0C0C0"/></linearGradient><clipPath id="clip2"><rect x="1972" y="1107" width="41" height="43"/></clipPath><clipPath id="clip3"><rect x="1972" y="1107" width="41" height="43"/></clipPath><clipPath id="clip4"><rect x="1972" y="1107" width="41" height="43"/></clipPath></defs><g clip-path="url(#clip0)" transform="translate(-1962 -1101)"><path d="M1963 1113.33C1963 1108.73 1966.73 1105 1971.33 1105L2163.67 1105C2168.27 1105 2172 1108.73 2172 1113.33L2172 1146.67C2172 1151.27 2168.27 1155 2163.67 1155L1971.33 1155C1966.73 1155 1963 1151.27 1963 1146.67Z" stroke="#A5A5A5" stroke-width="2.29167" stroke-miterlimit="8" fill="url(#fill1)" fill-rule="evenodd"/><text font-family="Monotype Corsiva,Monotype Corsiva_MSFontService,sans-serif" font-style="italic" font-weight="400" font-size="32" transform="matrix(1 0 0 1 2023.45 1139)">Definition</text><g clip-path="url(#clip2)"><g clip-path="url(#clip3)"><g clip-path="url(#clip4)"><path d="M1997.28 1142.85C1997.28 1143.35 1996.88 1143.76 1996.37 1143.76L1989.08 1143.76C1988.58 1143.76 1988.17 1143.35 1988.17 1142.85 1988.17 1142.35 1988.58 1141.94 1989.08 1141.94L1996.37 1141.94C1996.88 1141.94 1997.28 1142.35 1997.28 1142.85ZM1996.37 1144.22 1989.08 1144.22C1988.48 1144.22 1988.02 1144.8 1988.22 1145.42 1988.34 1145.8 1988.72 1146.04 1989.12 1146.04L1989.14 1146.04C1989.66 1146.04 1990.14 1146.34 1990.38 1146.81L1990.39 1146.83C1990.71 1147.46 1991.35 1147.86 1992.06 1147.86L1993.39 1147.86C1994.1 1147.86 1994.75 1147.46 1995.07 1146.83L1995.08 1146.81C1995.31 1146.34 1995.79 1146.04 1996.32 1146.04L1996.33 1146.04C1996.73 1146.04 1997.12 1145.8 1997.24 1145.42 1997.44 1144.8 1996.97 1144.22 1996.37 1144.22ZM1992.73 1115.06C1993.23 1115.06 1993.64 1114.65 1993.64 1114.15L1993.64 1110.51C1993.64 1110 1993.23 1109.59 1992.73 1109.59 1992.22 1109.59 1991.82 1110 1991.82 1110.51L1991.82 1114.15C1991.82 1114.65 1992.22 1115.06 1992.73 1115.06ZM1983.06 1118.53C1983.24 1118.71 1983.48 1118.8 1983.71 1118.8 1983.94 1118.8 1984.17 1118.71 1984.35 1118.53 1984.71 1118.17 1984.71 1117.6 1984.35 1117.24L1981.78 1114.66C1981.42 1114.31 1980.84 1114.31 1980.49 1114.66 1980.13 1115.02 1980.13 1115.6 1980.49 1115.95L1983.06 1118.53ZM1980.88 1126.91C1980.88 1126.4 1980.48 1125.99 1979.97 1125.99L1976.33 1125.99C1975.82 1125.99 1975.42 1126.4 1975.42 1126.91 1975.42 1127.41 1975.82 1127.82 1976.33 1127.82L1979.97 1127.82C1980.48 1127.82 1980.88 1127.41 1980.88 1126.91ZM1983.06 1135.28 1980.49 1137.86C1980.13 1138.21 1980.13 1138.79 1980.49 1139.15 1980.66 1139.32 1980.9 1139.41 1981.13 1139.41 1981.36 1139.41 1981.6 1139.32 1981.78 1139.15L1984.35 1136.57C1984.71 1136.21 1984.71 1135.64 1984.35 1135.28 1984 1134.93 1983.42 1134.93 1983.06 1135.28ZM2002.39 1135.28C2002.04 1134.93 2001.46 1134.93 2001.1 1135.28 2000.75 1135.64 2000.75 1136.21 2001.1 1136.57L2003.68 1139.15C2003.86 1139.32 2004.09 1139.41 2004.32 1139.41 2004.56 1139.41 2004.79 1139.32 2004.97 1139.15 2005.32 1138.79 2005.32 1138.21 2004.97 1137.86L2002.39 1135.28ZM2009.13 1125.99 2005.48 1125.99C2004.98 1125.99 2004.57 1126.4 2004.57 1126.91 2004.57 1127.41 2004.98 1127.82 2005.48 1127.82L2009.13 1127.82C2009.63 1127.82 2010.04 1127.41 2010.04 1126.91 2010.04 1126.4 2009.63 1125.99 2009.13 1125.99ZM2001.75 1118.8C2001.98 1118.8 2002.21 1118.71 2002.39 1118.53L2004.97 1115.95C2005.32 1115.6 2005.32 1115.02 2004.97 1114.66 2004.61 1114.31 2004.04 1114.31 2003.68 1114.66L2001.1 1117.24C2000.75 1117.6 2000.75 1118.17 2001.1 1118.53 2001.28 1118.71 2001.51 1118.8 2001.75 1118.8ZM1997.28 1140.57C1997.28 1141.08 1996.88 1141.48 1996.37 1141.48L1989.08 1141.48C1988.58 1141.48 1988.17 1141.08 1988.17 1140.57 1988.17 1140.09 1988.55 1139.69 1989.03 1139.67 1988.46 1134.54 1983.16 1133.4 1983.16 1127.36 1983.16 1122.08 1987.44 1117.79 1992.73 1117.79 1998.01 1117.79 2002.29 1122.08 2002.29 1127.36 2002.29 1133.4 1996.99 1134.54 1996.42 1139.67 1996.9 1139.69 1997.28 1140.09 1997.28 1140.57ZM1990.63 1120.35C1990.49 1120 1990.09 1119.83 1989.74 1119.97 1987.41 1120.92 1985.64 1122.93 1985.02 1125.37 1984.92 1125.73 1985.14 1126.11 1985.51 1126.2 1985.56 1126.22 1985.62 1126.22 1985.68 1126.22 1985.98 1126.22 1986.26 1126.02 1986.34 1125.71 1986.86 1123.69 1988.32 1122.02 1990.25 1121.24 1990.6 1121.1 1990.77 1120.7 1990.63 1120.35Z" fill="#888888"/></g></g></g></g></svg>