<svg width="877" height="554" xmlns="http://www.w3.org/2000/svg" xmlns:xlink="http://www.w3.org/1999/xlink" overflow="hidden"><defs><clipPath id="clip0"><rect x="1721" y="1050" width="877" height="554"/></clipPath><linearGradient x1="1891" y1="1130.5" x2="1891" y2="1054.5" gradientUnits="userSpaceOnUse" spreadMethod="reflect" id="fill1"><stop offset="0" stop-color="#6F6F6F" stop-opacity="0.701961"/><stop offset="0.48" stop-color="#A8A8A8" stop-opacity="0.701961"/><stop offset="1" stop-color="#C9C9C9" stop-opacity="0.701961"/></linearGradient><linearGradient x1="1891" y1="1205.5" x2="1891" y2="1130.5" gradientUnits="userSpaceOnUse" spreadMethod="reflect" id="fill2"><stop offset="0" stop-color="#6F6F6F" stop-opacity="0.701961"/><stop offset="0.48" stop-color="#A8A8A8" stop-opacity="0.701961"/><stop offset="1" stop-color="#C9C9C9" stop-opacity="0.701961"/></linearGradient><linearGradient x1="1891" y1="1281.5" x2="1891" y2="1205.5" gradientUnits="userSpaceOnUse" spreadMethod="reflect" id="fill3"><stop offset="0" stop-color="#6F6F6F" stop-opacity="0.701961"/><stop offset="0.48" stop-color="#A8A8A8" stop-opacity="0.701961"/><stop offset="1" stop-color="#C9C9C9" stop-opacity="0.701961"/></linearGradient><linearGradient x1="1891" y1="1358.5" x2="1891" y2="1283.5" gradientUnits="userSpaceOnUse" spreadMethod="reflect" id="fill4"><stop offset="0" stop-color="#6F6F6F" stop-opacity="0.701961"/><stop offset="0.48" stop-color="#A8A8A8" stop-opacity="0.701961"/><stop offset="1" stop-color="#C9C9C9" stop-opacity="0.701961"/></linearGradient><linearGradient x1="1891" y1="1435.5" x2="1891" y2="1360.5" gradientUnits="userSpaceOnUse" spreadMethod="reflect" id="fill5"><stop offset="0" stop-color="#6F6F6F" stop-opacity="0.701961"/><stop offset="0.48" stop-color="#A8A8A8" stop-opacity="0.701961"/><stop offset="1" stop-color="#C9C9C9" stop-opacity="0.701961"/></linearGradient><linearGradient x1="1891" y1="1511.5" x2="1891" y2="1435.5" gradientUnits="userSpaceOnUse" spreadMethod="reflect" id="fill6"><stop offset="0" stop-color="#6F6F6F" stop-opacity="0.701961"/><stop offset="0.48" stop-color="#A8A8A8" stop-opacity="0.701961"/><stop offset="1" stop-color="#C9C9C9" stop-opacity="0.701961"/></linearGradient><linearGradient x1="1891" y1="1587.5" x2="1891" y2="1511.5" gradientUnits="userSpaceOnUse" spreadMethod="reflect" id="fill7"><stop offset="0" stop-color="#6F6F6F" stop-opacity="0.701961"/><stop offset="0.48" stop-color="#A8A8A8" stop-opacity="0.701961"/><stop offset="1" stop-color="#C9C9C9" stop-opacity="0.701961"/></linearGradient></defs><g clip-path="url(#clip0)" transform="translate(-1721 -1050)"><rect x="1723.5" y="1054.5" width="335" height="76" stroke="#A5A5A5" stroke-width="4.58333" stroke-miterlimit="8" fill="url(#fill1)"/><text font-family="NSimSun,NSimSun_MSFontService,sans-serif" font-weight="700" font-size="46" transform="matrix(1 0 0 1 1821.88 1111)">应用层</text><rect x="1723.5" y="1130.5" width="335" height="74.9999" stroke="#A5A5A5" stroke-width="4.58333" stroke-miterlimit="8" fill="url(#fill2)"/><text font-family="NSimSun,NSimSun_MSFontService,sans-serif" font-weight="700" font-size="46" transform="matrix(1 0 0 1 1821.88 1187)">表示<tspan font-size="46" x="91.6666" y="0">层</tspan></text><rect x="1723.5" y="1205.5" width="335" height="76" stroke="#A5A5A5" stroke-width="4.58333" stroke-miterlimit="8" fill="url(#fill3)"/><text font-family="NSimSun,NSimSun_MSFontService,sans-serif" font-weight="700" font-size="46" transform="matrix(1 0 0 1 1821.88 1263)">会话<tspan font-size="46" x="91.6666" y="0">层</tspan></text><rect x="1723.5" y="1283.5" width="335" height="74.9999" stroke="#A5A5A5" stroke-width="4.58333" stroke-miterlimit="8" fill="url(#fill4)"/><text font-family="NSimSun,NSimSun_MSFontService,sans-serif" font-weight="700" font-size="46" transform="matrix(1 0 0 1 1821.88 1340)">传输<tspan font-size="46" x="91.6666" y="0">层</tspan></text><rect x="1723.5" y="1360.5" width="335" height="74.9999" stroke="#A5A5A5" stroke-width="4.58333" stroke-miterlimit="8" fill="url(#fill5)"/><text font-family="NSimSun,NSimSun_MSFontService,sans-serif" font-weight="700" font-size="46" transform="matrix(1 0 0 1 1821.88 1417)">网络<tspan font-size="46" x="91.6666" y="0">层</tspan></text><rect x="1723.5" y="1435.5" width="335" height="76" stroke="#A5A5A5" stroke-width="4.58333" stroke-miterlimit="8" fill="url(#fill6)"/><text font-family="NSimSun,NSimSun_MSFontService,sans-serif" font-weight="700" font-size="46" transform="matrix(1 0 0 1 1776.04 1493)">数据链路层</text><rect x="1723.5" y="1511.5" width="335" height="76" stroke="#A5A5A5" stroke-width="4.58333" stroke-miterlimit="8" fill="url(#fill7)"/><text font-family="NSimSun,NSimSun_MSFontService,sans-serif" font-weight="700" font-size="46" transform="matrix(1 0 0 1 1821.88 1568)">物理<tspan font-size="46" x="91.6666" y="0">层</tspan></text><path d="M2075.5 1054.5C2085.44 1054.5 2093.5 1070.21 2093.5 1089.59L2093.5 1132.91C2093.5 1152.29 2101.56 1168 2111.5 1168 2101.56 1168 2093.5 1183.71 2093.5 1203.09L2093.5 1246.41C2093.5 1265.79 2085.44 1281.5 2075.5 1281.5" stroke="#000000" stroke-width="4.58333" stroke-miterlimit="8" fill="none" fill-rule="evenodd"/><text font-family="NSimSun,NSimSun_MSFontService,sans-serif" font-weight="700" font-size="46" transform="matrix(1 0 0 1 2263.48 1135)">资源子网<tspan font-family="FangSong,FangSong_MSFontService,sans-serif" font-weight="400" font-size="37" x="-110" y="60">实现资源共享功能的设备</tspan><tspan font-family="FangSong,FangSong_MSFontService,sans-serif" font-weight="400" font-size="37" x="-18.3333" y="104">和软件的集合</tspan></text><path d="M2075.5 1360.5C2085.44 1360.5 2093.5 1376.21 2093.5 1395.59L2093.5 1438.91C2093.5 1458.29 2101.56 1474 2111.5 1474 2101.56 1474 2093.5 1489.71 2093.5 1509.09L2093.5 1552.41C2093.5 1571.79 2085.44 1587.5 2075.5 1587.5" stroke="#000000" stroke-width="4.58333" stroke-miterlimit="8" fill="none" fill-rule="evenodd"/><text font-family="NSimSun,NSimSun_MSFontService,sans-serif" font-weight="700" font-size="46" transform="matrix(1 0 0 1 2249.43 1442)">通信<tspan font-size="46" x="91.6668" y="0">子网</tspan><tspan font-family="FangSong,FangSong_MSFontService,sans-serif" font-weight="400" font-size="37" x="-114.285" y="60">各种传输介质、通信设备、</tspan><tspan font-family="FangSong,FangSong_MSFontService,sans-serif" font-weight="400" font-size="37" x="-73.3333" y="104">相应的网络协议组成</tspan></text></g></svg>