<svg width="913" height="504" xmlns="http://www.w3.org/2000/svg" xmlns:xlink="http://www.w3.org/1999/xlink" overflow="hidden"><defs><clipPath id="clip0"><rect x="3116" y="760" width="913" height="504"/></clipPath><linearGradient x1="3586.5" y1="1048.5" x2="3586.5" y2="972.5" gradientUnits="userSpaceOnUse" spreadMethod="reflect" id="fill1"><stop offset="0" stop-color="#6F6F6F" stop-opacity="0.701961"/><stop offset="0.48" stop-color="#A8A8A8" stop-opacity="0.701961"/><stop offset="1" stop-color="#C9C9C9" stop-opacity="0.701961"/></linearGradient><linearGradient x1="3339" y1="1247.5" x2="3339" y2="1171.5" gradientUnits="userSpaceOnUse" spreadMethod="reflect" id="fill2"><stop offset="0" stop-color="#6F6F6F" stop-opacity="0.701961"/><stop offset="0.48" stop-color="#A8A8A8" stop-opacity="0.701961"/><stop offset="1" stop-color="#C9C9C9" stop-opacity="0.701961"/></linearGradient><linearGradient x1="3849" y1="1247.5" x2="3849" y2="1171.5" gradientUnits="userSpaceOnUse" spreadMethod="reflect" id="fill3"><stop offset="0" stop-color="#6F6F6F" stop-opacity="0.701961"/><stop offset="0.48" stop-color="#A8A8A8" stop-opacity="0.701961"/><stop offset="1" stop-color="#C9C9C9" stop-opacity="0.701961"/></linearGradient><linearGradient x1="3916.5" y1="970.5" x2="3916.5" y2="894.5" gradientUnits="userSpaceOnUse" spreadMethod="reflect" id="fill4"><stop offset="0" stop-color="#6F6F6F" stop-opacity="0.701961"/><stop offset="0.48" stop-color="#A8A8A8" stop-opacity="0.701961"/><stop offset="1" stop-color="#C9C9C9" stop-opacity="0.701961"/></linearGradient><linearGradient x1="3599.5" y1="840.5" x2="3599.5" y2="764.5" gradientUnits="userSpaceOnUse" spreadMethod="reflect" id="fill5"><stop offset="0" stop-color="#6F6F6F" stop-opacity="0.701961"/><stop offset="0.48" stop-color="#A8A8A8" stop-opacity="0.701961"/><stop offset="1" stop-color="#C9C9C9" stop-opacity="0.701961"/></linearGradient><linearGradient x1="3229" y1="1010.5" x2="3229" y2="934.5" gradientUnits="userSpaceOnUse" spreadMethod="reflect" id="fill6"><stop offset="0" stop-color="#6F6F6F" stop-opacity="0.701961"/><stop offset="0.48" stop-color="#A8A8A8" stop-opacity="0.701961"/><stop offset="1" stop-color="#C9C9C9" stop-opacity="0.701961"/></linearGradient></defs><g clip-path="url(#clip0)" transform="translate(-3116 -760)"><rect x="3476.5" y="972.5" width="220" height="75.9999" stroke="#A5A5A5" stroke-width="4.58333" stroke-miterlimit="8" fill="url(#fill1)"/><text font-family="NSimSun,NSimSun_MSFontService,sans-serif" font-weight="700" font-size="46" transform="matrix(1 0 0 1 3517.33 1029)">计算机</text><rect x="3228.5" y="1171.5" width="221" height="76" stroke="#A5A5A5" stroke-width="4.58333" stroke-miterlimit="8" fill="url(#fill2)"/><text font-family="NSimSun,NSimSun_MSFontService,sans-serif" font-weight="700" font-size="46" transform="matrix(1 0 0 1 3269.83 1228)">计算机</text><rect x="3738.5" y="1171.5" width="221" height="76" stroke="#A5A5A5" stroke-width="4.58333" stroke-miterlimit="8" fill="url(#fill3)"/><text font-family="NSimSun,NSimSun_MSFontService,sans-serif" font-weight="700" font-size="46" transform="matrix(1 0 0 1 3780.1 1228)">计算机</text><rect x="3806.5" y="894.5" width="220" height="75.9999" stroke="#A5A5A5" stroke-width="4.58333" stroke-miterlimit="8" fill="url(#fill4)"/><text font-family="NSimSun,NSimSun_MSFontService,sans-serif" font-weight="700" font-size="46" transform="matrix(1 0 0 1 3847.33 952)">计算机</text><rect x="3489.5" y="764.5" width="220" height="76" stroke="#A5A5A5" stroke-width="4.58333" stroke-miterlimit="8" fill="url(#fill5)"/><text font-family="NSimSun,NSimSun_MSFontService,sans-serif" font-weight="700" font-size="46" transform="matrix(1 0 0 1 3530.31 822)">计算机</text><rect x="3118.5" y="934.5" width="221" height="75.9999" stroke="#A5A5A5" stroke-width="4.58333" stroke-miterlimit="8" fill="url(#fill6)"/><text font-family="NSimSun,NSimSun_MSFontService,sans-serif" font-weight="700" font-size="46" transform="matrix(1 0 0 1 3159.44 992)">计算机</text><path d="M3476.62 1010.31 3339.5 972.5" stroke="#A5A5A5" stroke-width="4.58333" stroke-miterlimit="8" fill="none" fill-rule="evenodd"/><path d="M0 0 12.986 132.112" stroke="#A5A5A5" stroke-width="4.58333" stroke-miterlimit="8" fill="none" fill-rule="evenodd" transform="matrix(1 0 0 -1 3586.5 972.612)"/><path d="M0 0 109.236 77.8387" stroke="#A5A5A5" stroke-width="4.58333" stroke-miterlimit="8" fill="none" fill-rule="evenodd" transform="matrix(1 0 0 -1 3696.5 1010.34)"/><path d="M0 0 247.5 123.45" stroke="#A5A5A5" stroke-width="4.58333" stroke-miterlimit="8" fill="none" fill-rule="evenodd" transform="matrix(-1 0 0 1 3587 1048.5)"/><path d="M3586.5 1048.5 3849.28 1171.95" stroke="#A5A5A5" stroke-width="4.58333" stroke-miterlimit="8" fill="none" fill-rule="evenodd"/></g></svg>