<svg width="386" height="317" xmlns="http://www.w3.org/2000/svg" xmlns:xlink="http://www.w3.org/1999/xlink" overflow="hidden"><defs><clipPath id="clip0"><rect x="1979" y="1052" width="386" height="317"/></clipPath><linearGradient x1="2172" y1="1144" x2="2172" y2="1364" gradientUnits="userSpaceOnUse" spreadMethod="reflect" id="fill1"><stop offset="0" stop-color="#D2D2D2"/><stop offset="0.5" stop-color="#C8C8C8"/><stop offset="1" stop-color="#C0C0C0"/></linearGradient></defs><g clip-path="url(#clip0)" transform="translate(-1979 -1052)"><rect x="1980" y="1144" width="384" height="220" stroke="#A5A5A5" stroke-width="2.29167" stroke-miterlimit="8" fill="url(#fill1)"/><path d="M2025 1254C2025 1210.92 2059.92 1176 2103 1176 2146.08 1176 2181 1210.92 2181 1254 2181 1297.08 2146.08 1332 2103 1332 2059.92 1332 2025 1297.08 2025 1254Z" fill="#000000" fill-rule="evenodd" fill-opacity="0.501961"/><path d="M2136 1254C2136 1210.92 2170.92 1176 2214 1176 2257.08 1176 2292 1210.92 2292 1254 2292 1297.08 2257.08 1332 2214 1332 2170.92 1332 2136 1297.08 2136 1254Z" fill="#000000" fill-rule="evenodd" fill-opacity="0.501961"/><text font-family="Cambria Math,Cambria Math_MSFontService,sans-serif" font-weight="400" font-size="46" transform="translate(2316.88 1353)">Ω<tspan fill="#FFFFFF" font-size="46" x="-251.751" y="-117">𝐴</tspan><tspan fill="#FFFFFF" font-size="46" x="-101.75" y="-110">𝐵</tspan></text><path d="M2154.78 1231.39 2154.97 1225.57 2155.54 1219.71 2157.81 1208.35 2161.24 1197.67 2165.76 1188.08 2168.34 1183.75 2171.18 1179.86 2174.06 1176.45 2177.2 1173.5 2180.42 1171.12C2180.49 1171.07 2180.56 1171.02 2180.63 1170.98L2183.82 1169.3C2183.91 1169.25 2184.01 1169.21 2184.11 1169.18L2187.3 1168.18C2187.4 1168.14 2187.51 1168.12 2187.62 1168.11L2190.87 1167.73 2194.12 1167.36 2193.8 1167.43 2196.99 1166.43 2196.7 1166.55 2199.88 1164.86 2199.67 1164.99 2202.73 1162.74 2205.57 1160.06 2208.25 1156.89 2210.93 1153.24 2213.34 1149.19 2217.7 1139.96 2220.99 1129.67 2223.19 1118.67 2223.73 1113.09 2223.8 1110.79 2227.23 1110.9 2227.15 1113.42 2226.56 1119.34 2224.26 1130.72 2220.8 1141.43 2216.29 1150.95 2213.7 1155.27 2210.87 1159.12 2207.93 1162.57 2204.77 1165.51 2201.71 1167.76C2201.64 1167.81 2201.57 1167.86 2201.49 1167.9L2198.3 1169.59C2198.21 1169.63 2198.11 1169.68 2198.01 1169.71L2194.83 1170.71C2194.72 1170.74 2194.62 1170.76 2194.51 1170.77L2191.26 1171.15 2188.01 1171.52 2188.33 1171.46 2185.14 1172.46 2185.43 1172.34 2182.24 1174.02 2182.46 1173.89 2179.55 1176.01 2176.69 1178.68 2173.95 1181.9 2171.29 1185.51 2168.87 1189.55 2164.51 1198.72 2161.19 1209.03 2158.96 1220.05 2158.41 1225.68 2158.22 1231.5ZM2207.14 1136.9 2225.63 1107.43 2242.17 1138.03C2242.63 1138.86 2242.31 1139.91 2241.48 1140.36 2240.64 1140.81 2239.6 1140.5 2239.15 1139.66L2224 1111.66 2226.97 1111.76 2210.05 1138.72C2209.55 1139.53 2208.49 1139.77 2207.68 1139.27 2206.88 1138.76 2206.64 1137.7 2207.14 1136.9Z"/><text font-family="Cambria Math,Cambria Math_MSFontService,sans-serif" font-weight="400" font-size="46" transform="translate(2200.53 1097)">𝐴𝐵</text></g></svg>