<svg width="386" height="288" xmlns="http://www.w3.org/2000/svg" xmlns:xlink="http://www.w3.org/1999/xlink" overflow="hidden"><defs><clipPath id="clip0"><rect x="2383" y="1081" width="386" height="288"/></clipPath><linearGradient x1="2576" y1="1144" x2="2576" y2="1364" gradientUnits="userSpaceOnUse" spreadMethod="reflect" id="fill1"><stop offset="0" stop-color="#D2D2D2"/><stop offset="0.5" stop-color="#C8C8C8"/><stop offset="1" stop-color="#C0C0C0"/></linearGradient></defs><g clip-path="url(#clip0)" transform="translate(-2383 -1081)"><rect x="2384" y="1144" width="384" height="220" stroke="#A5A5A5" stroke-width="2.29167" stroke-miterlimit="8" fill="url(#fill1)"/><path d="M2429.5 1254.5C2429.5 1211.42 2464.42 1176.5 2507.5 1176.5 2550.58 1176.5 2585.5 1211.42 2585.5 1254.5 2585.5 1297.58 2550.58 1332.5 2507.5 1332.5 2464.42 1332.5 2429.5 1297.58 2429.5 1254.5Z" stroke="#262626" stroke-width="3.4375" stroke-linejoin="round" stroke-miterlimit="10" fill="#636363" fill-rule="evenodd"/><path d="M2540.5 1254.5C2540.5 1211.42 2575.42 1176.5 2618.5 1176.5 2661.58 1176.5 2696.5 1211.42 2696.5 1254.5 2696.5 1297.58 2661.58 1332.5 2618.5 1332.5 2575.42 1332.5 2540.5 1297.58 2540.5 1254.5Z" stroke="#262626" stroke-width="3.4375" stroke-linejoin="round" stroke-miterlimit="10" fill="#636363" fill-rule="evenodd"/><text font-family="Cambria Math,Cambria Math_MSFontService,sans-serif" font-weight="400" font-size="46" transform="translate(2721.35 1353)">Ω<tspan fill="#FFFFFF" font-size="46" x="-251.751" y="-117">𝐴</tspan><tspan fill="#FFFFFF" font-size="46" x="-101.75" y="-110">𝐵</tspan><tspan font-size="46" x="-202.951" y="-227">𝐴</tspan><tspan font-size="46" x="-163.099" y="-227">+</tspan><tspan font-size="46" x="-118.549" y="-227">𝐵</tspan></text><path d="M0 0 60.4426 81.3361" stroke="#000000" stroke-width="2.29167" stroke-miterlimit="8" fill="none" fill-rule="evenodd" transform="matrix(-1 0 0 1 2576.44 1137)"/><path d="M2576 1137 2604.07 1226.11" stroke="#000000" stroke-width="2.29167" stroke-miterlimit="8" fill="none" fill-rule="evenodd"/></g></svg>