<svg xmlns="http://www.w3.org/2000/svg" width="234.429" height="100.046" viewBox="0 0 175.821 75.035"><path fill="#A80D91" d="M3.66 19.881h1.625c.156 0 .406 0 .406-.296 0-.313-.25-.313-.406-.313H3.66v-.812c0-.188 0-.407-.344-.407s-.344.203-.344.407v.812h-.875c-.156 0-.406 0-.406.313 0 .296.25.296.39.296h.891v2.438c0 .953.672 1.313 1.407 1.313.734 0 1.53-.438 1.53-1.313 0-.188 0-.39-.343-.39-.328 0-.344.203-.344.374 0 .625-.578.72-.797.72-.765 0-.765-.517-.765-.767zm7.246 1.782c.203 0 .39 0 .39-.36 0-1.14-.64-2.125-1.937-2.125-1.188 0-2.14 1-2.14 2.235 0 1.203 1.015 2.218 2.296 2.218 1.313 0 1.781-.906 1.781-1.156 0-.265-.28-.265-.343-.265-.188 0-.266.03-.328.218-.22.5-.766.594-1.047.594-.75 0-1.485-.5-1.657-1.36zm-2.969-.594c.14-.734.734-1.281 1.422-1.281.516 0 1.14.25 1.234 1.281zm5.058-1.5c-.03-.297-.218-.297-.406-.297h-.312c-.157 0-.422 0-.422.297 0 .313.219.313.578.313v3.078c-.36 0-.578 0-.578.312 0 .297.281.297.422.297h.875c.14 0 .406 0 .406-.297 0-.312-.203-.312-.563-.312v-1.782c0-.89.407-1.359.813-1.359.234 0 .36.172.36.813v2.328c-.188 0-.438 0-.438.312 0 .297.281.297.422.297h.734c.156 0 .422 0 .422-.297 0-.312-.219-.312-.578-.312v-1.782c0-.89.406-1.359.828-1.359.219 0 .36.172.36.813v2.328c-.188 0-.438 0-.438.312 0 .297.265.297.406.297h.75c.156 0 .406 0 .406-.297 0-.312-.203-.312-.562-.312v-2.407c0-.203 0-1.343-.89-1.343-.298 0-.704.125-.985.515-.156-.328-.438-.515-.766-.515-.312 0-.61.14-.844.359Zm5.793 1.375c0-.594.578-1.125 1.203-1.125.735 0 1.313.734 1.313 1.594 0 .953-.688 1.61-1.39 1.61-.782 0-1.126-.876-1.126-1.36zm0 2.172c.407.422.844.515 1.157.515 1.078 0 2.046-.953 2.046-2.218 0-1.219-.875-2.203-1.937-2.203a1.93 1.93 0 0 0-1.266.484c0-.281-.015-.422-.406-.422h-.719c-.156 0-.406 0-.406.313 0 .296.25.296.39.296h.454v5.297h-.438c-.156 0-.406 0-.406.297 0 .313.25.313.39.313h1.594c.141 0 .391 0 .391-.313 0-.297-.25-.297-.406-.297h-.438zm6.528-5.235c0-.296-.047-.406-.391-.406h-1.578c-.156 0-.406 0-.406.313 0 .297.265.297.406.297h1.281v4.875h-1.281c-.156 0-.406 0-.406.312 0 .297.265.297.406.297h3.265c.157 0 .407 0 .407-.297 0-.312-.235-.312-.407-.312h-1.296Zm5.934 5.375c.218.297.687.313 1.062.313.28 0 .5 0 .5-.313 0-.296-.25-.296-.391-.296-.422 0-.516-.047-.594-.079v-2.156c0-.703-.547-1.547-1.984-1.547-.422 0-1.438 0-1.438.735 0 .297.203.453.438.453.156 0 .437-.094.437-.453 0-.078.016-.094.22-.11.14-.015.265-.015.358-.015.75 0 1.266.312 1.266 1.015-1.75.032-2.984.532-2.984 1.485 0 .687.625 1.343 1.64 1.343.375 0 1-.078 1.47-.375zm-.126-1.859v.844c0 .219 0 .437-.375.61-.36.171-.812.171-.89.171-.626 0-1.032-.344-1.032-.734 0-.485.86-.86 2.297-.89zm3.918-1.516h1.625c.156 0 .406 0 .406-.296 0-.313-.25-.313-.406-.313h-1.625v-.812c0-.188 0-.407-.344-.407s-.344.203-.344.407v.812h-.875c-.156 0-.406 0-.406.313 0 .296.25.296.39.296h.891v2.438c0 .953.672 1.313 1.407 1.313.734 0 1.531-.438 1.531-1.313 0-.188 0-.39-.344-.39-.328 0-.344.203-.344.374 0 .625-.578.72-.796.72-.766 0-.766-.517-.766-.767zm7.246 1.782c.203 0 .39 0 .39-.36 0-1.14-.64-2.125-1.937-2.125-1.187 0-2.14 1-2.14 2.235 0 1.203 1.015 2.218 2.296 2.218 1.313 0 1.782-.906 1.782-1.156 0-.265-.282-.265-.344-.265-.188 0-.266.03-.328.218-.22.5-.766.594-1.047.594-.75 0-1.485-.5-1.656-1.36zm-2.969-.594c.14-.734.735-1.281 1.422-1.281.516 0 1.14.25 1.234 1.281zm0 0"/><path d="M47.706 18.71c.11-.063.25-.141.25-.329a.362.362 0 0 0-.36-.359c-.078 0-.109.016-.25.11l-3.28 2.062c-.095.063-.22.14-.22.328 0 .125.079.235.172.313l3.328 2.078c.141.093.172.093.25.093.157 0 .36-.109.36-.343 0-.188-.14-.266-.25-.344l-2.86-1.797Zm0 0"/><g fill="#A80D91"><path d="M50.733 19.881h1.625c.156 0 .406 0 .406-.296 0-.313-.25-.313-.406-.313h-1.625v-.812c0-.188 0-.407-.344-.407-.343 0-.343.203-.343.407v.812h-.875c-.157 0-.407 0-.407.313 0 .296.25.296.39.296h.892v2.438c0 .953.671 1.313 1.406 1.313.734 0 1.531-.438 1.531-1.313 0-.188 0-.39-.344-.39-.328 0-.343.203-.343.374 0 .625-.579.72-.797.72-.766 0-.766-.517-.766-.767zm7.293 0h.297c.156 0 .406 0 .406-.296 0-.313-.234-.313-.406-.313h-1.156c-.157 0-.407 0-.407.297 0 .313.25.313.407.313h.28l-.718 2.124c-.14.36-.187.547-.266.86a9.105 9.105 0 0 0-.218-.594l-.922-2.39h.25c.14 0 .39 0 .39-.297 0-.313-.234-.313-.39-.313H54.4c-.156 0-.39 0-.39.313 0 .296.25.296.39.296h.312l1.407 3.563c.047.094.047.11.047.125 0 .016-.25.844-.375 1.094-.297.547-.657.562-.797.578 0-.016.047-.094.047-.219a.424.424 0 0 0-.422-.437c-.282 0-.453.187-.453.437a.82.82 0 0 0 .828.813c1 0 1.453-1.313 1.484-1.422zm2.605 1.063c0-.594.578-1.125 1.203-1.125.735 0 1.313.734 1.313 1.594 0 .953-.688 1.61-1.39 1.61-.782 0-1.126-.876-1.126-1.36zm0 2.172c.407.422.844.515 1.157.515 1.078 0 2.046-.953 2.046-2.218 0-1.219-.875-2.203-1.937-2.203a1.93 1.93 0 0 0-1.266.484c0-.281-.015-.422-.406-.422h-.719c-.156 0-.406 0-.406.313 0 .296.25.296.39.296h.454v5.297h-.438c-.156 0-.406 0-.406.297 0 .313.25.313.39.313h1.594c.141 0 .391 0 .391-.313 0-.297-.25-.297-.406-.297h-.438zm7.809-1.453c.203 0 .39 0 .39-.36 0-1.14-.64-2.125-1.937-2.125-1.188 0-2.14 1-2.14 2.235 0 1.203 1.015 2.218 2.296 2.218 1.313 0 1.781-.906 1.781-1.156 0-.265-.28-.265-.343-.265-.188 0-.266.03-.328.218-.22.5-.766.594-1.047.594-.75 0-1.485-.5-1.657-1.36zm-2.969-.594c.14-.734.734-1.281 1.422-1.281.516 0 1.14.25 1.234 1.281zm5.621-1.329c0-.312 0-.468-.406-.468h-.719c-.156 0-.406 0-.406.313 0 .296.25.296.39.296h.454v3.079h-.438c-.156 0-.406 0-.406.312 0 .297.25.297.39.297h1.594c.14 0 .39 0 .39-.297 0-.312-.25-.312-.405-.312h-.438v-1.766c0-1 .734-1.375 1.25-1.375s.656.281.656.875v2.266h-.375c-.172 0-.422 0-.422.312 0 .297.282.297.422.297h1.516c.14 0 .406 0 .406-.297 0-.312-.25-.312-.422-.312h-.437v-2.313c0-1-.5-1.437-1.297-1.437-.656 0-1.11.343-1.297.53zm7.23 3.516c.22.297.688.313 1.063.313.281 0 .5 0 .5-.313 0-.296-.25-.296-.39-.296-.423 0-.516-.047-.595-.079v-2.156c0-.703-.546-1.547-1.984-1.547-.422 0-1.437 0-1.437.735 0 .297.203.453.437.453.156 0 .438-.094.438-.453 0-.078.015-.094.218-.11.141-.015.266-.015.36-.015.75 0 1.265.312 1.265 1.015-1.75.032-2.984.532-2.984 1.485 0 .687.625 1.343 1.64 1.343.376 0 1-.078 1.47-.375zm-.125-1.859v.844c0 .219 0 .437-.375.61-.359.171-.812.171-.89.171-.625 0-1.032-.344-1.032-.734 0-.485.86-.86 2.297-.89zm0 0"/><path d="M80.99 19.569c-.031-.297-.219-.297-.406-.297h-.313c-.156 0-.421 0-.421.297 0 .313.218.313.578.313v3.078c-.36 0-.578 0-.578.312 0 .297.28.297.421.297h.875c.141 0 .407 0 .407-.297 0-.312-.203-.312-.563-.312v-1.782c0-.89.406-1.359.813-1.359.234 0 .36.172.36.813v2.328c-.188 0-.438 0-.438.312 0 .297.28.297.421.297h.735c.156 0 .422 0 .422-.297 0-.312-.219-.312-.578-.312v-1.782c0-.89.406-1.359.828-1.359.218 0 .36.172.36.813v2.328c-.188 0-.438 0-.438.312 0 .297.265.297.406.297h.75c.156 0 .406 0 .406-.297 0-.312-.203-.312-.562-.312v-2.407c0-.203 0-1.343-.891-1.343-.297 0-.703.125-.984.515-.157-.328-.438-.515-.766-.515-.313 0-.61.14-.844.359Zm8.371 2.094c.203 0 .39 0 .39-.36 0-1.14-.64-2.125-1.937-2.125-1.187 0-2.14 1-2.14 2.235 0 1.203 1.015 2.218 2.297 2.218 1.312 0 1.78-.906 1.78-1.156 0-.265-.28-.265-.343-.265-.187 0-.266.03-.328.218-.219.5-.766.594-1.047.594-.75 0-1.484-.5-1.656-1.36zm-2.969-.594c.141-.734.735-1.281 1.422-1.281.516 0 1.141.25 1.235 1.281zm0 0"/></g><path fill="#406E75" d="M98.54 18.085h1.329v.53c0 .188 0 .407.328.407.36 0 .36-.203.36-.406v-.735c0-.296-.063-.406-.407-.406h-3.89c-.329 0-.407.078-.407.406v.735c0 .187 0 .406.328.406.36 0 .36-.203.36-.406v-.531h1.312v4.875h-.515c-.141 0-.391 0-.391.296 0 .313.234.313.39.313h1.735c.14 0 .39 0 .39-.297 0-.312-.234-.312-.39-.312h-.531zm0 0"/><path d="M105.271 20.85c.078-.062.219-.14.219-.328 0-.14-.094-.25-.188-.312l-3.312-2.079c-.14-.093-.172-.109-.266-.109a.35.35 0 0 0-.343.36c0 .187.125.265.234.328l2.86 1.812-2.86 1.797c-.11.078-.234.156-.234.344 0 .234.187.343.343.343.094 0 .125 0 .266-.093zM4.394 30.04h1.328v.53c0 .188 0 .407.328.407.36 0 .36-.203.36-.406v-.735c0-.296-.063-.406-.406-.406H2.113c-.328 0-.406.078-.406.406v.735c0 .187 0 .406.328.406.36 0 .36-.203.36-.406v-.531h1.312v4.875H3.19c-.14 0-.39 0-.39.296 0 .313.234.313.39.313h1.734c.141 0 .391 0 .391-.297 0-.312-.234-.312-.39-.312h-.532zm8.601 1.484c-.03-.297-.218-.297-.406-.297h-.312c-.157 0-.422 0-.422.297 0 .312.219.312.578.312v3.079c-.36 0-.578 0-.578.312 0 .297.281.297.422.297h.875c.14 0 .406 0 .406-.297 0-.312-.203-.312-.563-.312v-1.782c0-.89.407-1.359.813-1.359.234 0 .36.172.36.812v2.329c-.188 0-.438 0-.438.312 0 .297.281.297.422.297h.734c.156 0 .422 0 .422-.297 0-.312-.219-.312-.578-.312v-1.782c0-.89.406-1.359.828-1.359.219 0 .36.172.36.812v2.329c-.188 0-.438 0-.438.312 0 .297.265.297.406.297h.75c.156 0 .406 0 .406-.297 0-.312-.203-.312-.562-.312v-2.407c0-.203 0-1.343-.89-1.343-.298 0-.704.125-.985.515-.156-.328-.438-.515-.766-.515-.312 0-.61.14-.844.359Zm7.793 3.687c.22.297.688.313 1.063.313.281 0 .5 0 .5-.313 0-.296-.25-.296-.39-.296-.423 0-.516-.047-.595-.079V32.68c0-.703-.546-1.547-1.984-1.547-.422 0-1.437 0-1.437.735 0 .297.203.453.437.453.156 0 .438-.094.438-.453 0-.078.015-.094.218-.11.141-.015.266-.015.36-.015.75 0 1.265.312 1.265 1.015-1.75.032-2.984.532-2.984 1.485 0 .687.625 1.343 1.64 1.343.376 0 1-.078 1.47-.375zm-.125-1.859v.844c0 .219 0 .437-.375.61-.359.171-.812.171-.89.171-.625 0-1.032-.344-1.032-.734 0-.485.86-.86 2.297-.89zm4.559-.047 1.14-1.469h.391c.14 0 .422 0 .422-.296 0-.313-.266-.313-.422-.313h-1.156c-.156 0-.406 0-.406.297 0 .312.218.312.484.312l-.734 1-.75-1c.25 0 .468 0 .468-.312 0-.297-.25-.297-.39-.297h-1.172c-.14 0-.406 0-.406.313 0 .296.265.296.406.296h.406l1.172 1.47-1.234 1.609h-.407c-.14 0-.406 0-.406.312 0 .297.266.297.406.297h1.172c.156 0 .406 0 .406-.297 0-.312-.218-.312-.53-.312l.859-1.22.89 1.22c-.281 0-.5 0-.5.312 0 .297.25.297.406.297h1.157c.14 0 .406 0 .406-.297 0-.312-.25-.312-.406-.312h-.39Zm6.73 2.75c0-.14-.078-.187-.25-.297-1.234-.843-1.703-2.172-1.703-3.28 0-1 .39-2.392 1.719-3.298.156-.11.234-.14.234-.297 0-.078-.047-.28-.312-.28-.282 0-2.328 1.312-2.328 3.874 0 1.188.468 2.078.812 2.578.531.735 1.281 1.281 1.516 1.281.265 0 .312-.187.312-.28zm3.824-6.015h1.328v.53c0 .188 0 .407.329.407.359 0 .359-.203.359-.406v-.735c0-.296-.063-.406-.406-.406h-3.89c-.329 0-.407.078-.407.406v.735c0 .187 0 .406.328.406.36 0 .36-.203.36-.406v-.531h1.312v4.875h-.516c-.14 0-.39 0-.39.296 0 .313.234.313.39.313h1.735c.14 0 .39 0 .39-.297 0-.312-.234-.312-.39-.312h-.532zm11.164 5.171c.219.297.688.313 1.063.313.28 0 .5 0 .5-.313 0-.296-.25-.296-.39-.296-.423 0-.517-.047-.595-.079V32.68c0-.703-.547-1.547-1.984-1.547-.422 0-1.438 0-1.438.735 0 .297.204.453.438.453.156 0 .437-.094.437-.453 0-.078.016-.094.22-.11.14-.015.265-.015.359-.015.75 0 1.265.312 1.265 1.015-1.75.032-2.984.532-2.984 1.485 0 .687.625 1.343 1.64 1.343.375 0 1-.078 1.47-.375zm-.125-1.859v.844c0 .219 0 .437-.375.61-.36.171-.812.171-.89.171-.625 0-1.032-.344-1.032-.734 0-.485.86-.86 2.297-.89zm4.512 2.141c-.157.625-.625.781-.735.812-.11.031-.281.094-.281.281 0 .157.14.329.312.329.329 0 1.344-.547 1.344-1.641 0-.61-.39-1-.828-1-.406 0-.625.297-.625.625 0 .375.281.625.61.625.062 0 .124-.016.203-.031zm10.601-5.453h1.328v.53c0 .188 0 .407.328.407.36 0 .36-.203.36-.406v-.735c0-.296-.063-.406-.407-.406h-3.89c-.329 0-.407.078-.407.406v.735c0 .187 0 .406.328.406.36 0 .36-.203.36-.406v-.531h1.312v4.875h-.515c-.14 0-.39 0-.39.296 0 .313.233.313.39.313h1.734c.14 0 .39 0 .39-.297 0-.312-.234-.312-.39-.312h-.531zm9.164 1.609v-1.813c0-.296-.063-.406-.407-.406h-.718c-.157 0-.407 0-.407.313 0 .297.25.297.391.297h.453v5.078c0 .203 0 .406.344.406s.344-.203.344-.453c.406.422.843.515 1.156.515 1.078 0 2.047-.953 2.047-2.218 0-1.219-.875-2.203-1.938-2.203a1.93 1.93 0 0 0-1.265.484Zm0 1.969v-.719c0-.594.578-1.125 1.203-1.125.734 0 1.312.734 1.312 1.594 0 .953-.687 1.61-1.39 1.61-.782 0-1.125-.876-1.125-1.36zm7.09-1.141a4.511 4.511 0 0 0-.813-2.578c-.531-.734-1.281-1.297-1.515-1.297a.293.293 0 0 0-.313.281c0 .157.11.22.156.25 1.64 1.094 1.797 2.688 1.797 3.344 0 1-.375 2.375-1.719 3.281-.156.11-.234.157-.234.297 0 .094.063.281.313.281.28 0 2.328-1.312 2.328-3.859zm9.898-2.141c0-.25 0-.64.031-.718.188-.39 1.063-.407 1.406-.407a.287.287 0 0 0 .266-.296c0-.313-.234-.313-.422-.313-.703 0-1.781.14-1.953 1.016-.016.047-.016.547-.016.828v.906c0 .36 0 .5-.359.656-.344.157-.844.172-1.078.172a.275.275 0 0 0-.266.297c0 .297.25.313.344.313.266 0 1.344.03 1.36.578v1.64c0 .313 0 .75.53 1.047.407.219.97.297 1.438.297.188 0 .422 0 .422-.312 0-.282-.25-.297-.344-.297-1.36-.032-1.36-.39-1.36-.703v-1.594c0-.25-.015-.656-.577-.969.422-.25.578-.578.578-.828zm0 0"/><path fill="#A80D91" d="M24.58 57.576c0-.938.579-1.891 1.782-1.891.016.234.188.438.438.438a.41.41 0 0 0 .421-.422c0-.203-.125-.625-.953-.625-.5 0-1.14.187-1.687.812v-.344c0-.312-.063-.406-.406-.406H23.08c-.156 0-.406 0-.406.297 0 .313.25.313.406.313h.812v3.078h-.812c-.156 0-.406 0-.406.297 0 .312.25.312.406.312h2.594c.156 0 .421 0 .421-.297 0-.312-.265-.312-.421-.312H24.58Zm7.247-.047c.203 0 .39 0 .39-.36 0-1.14-.64-2.125-1.937-2.125-1.188 0-2.14 1-2.14 2.235 0 1.203 1.015 2.219 2.296 2.219 1.313 0 1.781-.907 1.781-1.157 0-.265-.28-.265-.343-.265-.188 0-.266.03-.328.218-.22.5-.766.594-1.047.594-.75 0-1.485-.5-1.657-1.36zm-2.969-.594c.14-.734.734-1.281 1.422-1.281.516 0 1.14.25 1.234 1.281zm6.183-1.187h1.625c.157 0 .407 0 .407-.297 0-.313-.25-.313-.407-.313h-1.625v-.812c0-.188 0-.407-.343-.407-.344 0-.344.204-.344.407v.812h-.875c-.156 0-.406 0-.406.313 0 .297.25.297.39.297h.891v2.437c0 .953.672 1.313 1.406 1.313.735 0 1.531-.438 1.531-1.313 0-.187 0-.39-.343-.39-.328 0-.344.203-.344.374 0 .625-.578.72-.797.72-.766 0-.766-.516-.766-.766zm6.575 3.375c.015.312.218.312.406.312h.719c.171 0 .421 0 .421-.312 0-.297-.265-.297-.406-.297h-.453v-3.282c0-.312-.047-.406-.39-.406h-.735c-.156 0-.406 0-.406.313 0 .297.265.297.406.297h.438v2.125c0 .89-.797 1.015-1.125 1.015-.782 0-.782-.328-.782-.656v-2.688c0-.312-.062-.406-.406-.406h-.719c-.156 0-.406 0-.406.313 0 .297.25.297.39.297h.454v2.546c0 .97.687 1.204 1.406 1.204.422 0 .828-.11 1.188-.375zm3.886-1.547c0-.938.578-1.891 1.781-1.891.016.234.188.438.438.438a.41.41 0 0 0 .422-.422c0-.203-.125-.625-.953-.625-.5 0-1.14.187-1.688.812v-.344c0-.312-.062-.406-.406-.406h-1.094c-.156 0-.406 0-.406.297 0 .313.25.313.406.313h.813v3.078h-.813c-.156 0-.406 0-.406.297 0 .312.25.312.406.312h2.594c.156 0 .422 0 .422-.297 0-.312-.266-.312-.422-.312h-1.094Zm4.668-1.969c0-.313 0-.469-.406-.469h-.719c-.156 0-.406 0-.406.313 0 .297.25.297.39.297h.454v3.078h-.438c-.156 0-.406 0-.406.312 0 .297.25.297.39.297h1.594c.14 0 .39 0 .39-.297 0-.312-.25-.312-.405-.312h-.438V57.06c0-1 .734-1.375 1.25-1.375s.656.281.656.875v2.266h-.375c-.172 0-.422 0-.422.312 0 .297.282.297.422.297h1.516c.14 0 .406 0 .406-.297 0-.312-.25-.312-.422-.312h-.437v-2.313c0-1-.5-1.437-1.297-1.437-.656 0-1.11.343-1.297.53zm0 0"/><path d="M60.63 55.56v-1.812c0-.297-.062-.407-.405-.407h-.72c-.155 0-.405 0-.405.313 0 .297.25.297.39.297h.453v5.078c0 .203 0 .406.344.406s.344-.203.344-.453c.406.422.844.516 1.156.516 1.078 0 2.047-.954 2.047-2.22 0-1.218-.875-2.202-1.938-2.202a1.93 1.93 0 0 0-1.265.484Zm0 1.969v-.719c0-.594.579-1.125 1.204-1.125.734 0 1.312.734 1.312 1.594 0 .953-.687 1.61-1.39 1.61-.781 0-1.125-.876-1.125-1.36zm13.227-2.953c.11-.063.25-.141.25-.328a.362.362 0 0 0-.36-.36c-.077 0-.109.016-.25.11l-3.28 2.062c-.094.063-.22.14-.22.328 0 .125.079.235.173.313l3.328 2.078c.14.094.172.094.25.094.156 0 .36-.11.36-.344 0-.188-.141-.266-.25-.344l-2.86-1.797Zm9.695 4.547c.219.296.688.312 1.063.312.281 0 .5 0 .5-.312 0-.297-.25-.297-.39-.297-.423 0-.516-.047-.595-.078V56.59c0-.703-.546-1.547-1.984-1.547-.422 0-1.437 0-1.437.735 0 .297.203.453.437.453.156 0 .438-.094.438-.453 0-.078.015-.094.218-.11.14-.015.266-.015.36-.015.75 0 1.265.312 1.265 1.015-1.75.032-2.984.532-2.984 1.485 0 .687.625 1.344 1.64 1.344.376 0 1-.079 1.47-.375zm-.125-1.86v.844c0 .219 0 .437-.375.61-.36.171-.812.171-.89.171-.625 0-1.032-.344-1.032-.734 0-.485.86-.86 2.297-.89zm9.789-.234c0-.469.156-1.031 1.094-1.547.281-.156.656-.438.656-.969 0-.36-.25-1.234-2.094-1.234-1.406 0-1.89.656-1.89 1.219 0 .328.234.468.437.468a.44.44 0 0 0 .438-.453.414.414 0 0 0-.094-.265c.25-.282.719-.36 1.11-.36 1.015 0 1.406.328 1.406.625 0 .266-.22.39-.407.485-1.453.796-1.453 1.687-1.453 2.078 0 .39 0 .53.407.53.296 0 .39-.062.39-.405zm.094 1.906a.49.49 0 0 0-.484-.5c-.282 0-.5.219-.5.5s.218.5.5.5a.49.49 0 0 0 .484-.5zm11.164.188c.218.296.687.312 1.062.312.281 0 .5 0 .5-.312 0-.297-.25-.297-.39-.297-.422 0-.516-.047-.594-.078V56.59c0-.703-.547-1.547-1.985-1.547-.421 0-1.437 0-1.437.735 0 .297.203.453.437.453.157 0 .438-.094.438-.453 0-.078.016-.094.219-.11.14-.015.265-.015.36-.015.75 0 1.265.312 1.265 1.015-1.75.032-2.985.532-2.985 1.485 0 .687.625 1.344 1.641 1.344.375 0 1-.079 1.469-.375zm-.125-1.86v.844c0 .219 0 .437-.375.61-.36.171-.813.171-.89.171-.626 0-1.032-.344-1.032-.734 0-.485.86-.86 2.297-.89zm10.164-1.5a.624.624 0 0 0-.61-.625.626.626 0 0 0-.015 1.25.626.626 0 0 0 .625-.625zm0 3.047a.624.624 0 0 0-.61-.625.626.626 0 0 0-.015 1.25.626.626 0 0 0 .625-.625zm8.882-3.25v-1.812c0-.297-.062-.407-.406-.407h-.719c-.156 0-.406 0-.406.313 0 .297.25.297.39.297h.454v5.078c0 .203 0 .406.343.406.344 0 .344-.203.344-.453.406.422.844.516 1.156.516 1.079 0 2.047-.954 2.047-2.22 0-1.218-.875-2.202-1.937-2.202a1.93 1.93 0 0 0-1.266.484Zm0 1.969v-.719c0-.594.578-1.125 1.203-1.125.735 0 1.313.734 1.313 1.594 0 .953-.688 1.61-1.39 1.61-.782 0-1.126-.876-1.126-1.36zm6.809-1.766a.624.624 0 0 0-.61-.625.626.626 0 0 0-.015 1.25.626.626 0 0 0 .625-.625zm-.578 3.672c-.141.531-.516.734-.657.813-.062.03-.203.093-.203.25 0 .156.14.328.313.328.218 0 1.187-.547 1.187-1.657 0-.656-.312-.984-.687-.984-.36 0-.61.281-.61.625 0 .281.157.625.657.625ZM4.394 65.78c0-.265 0-.718-.515-1.015-.47-.25-1.11-.297-1.454-.297-.171 0-.421 0-.421.313 0 .265.187.296.328.296 1.375.016 1.375.375 1.375.704v1.609c0 .406.156.719.578.953-.547.313-.578.781-.578.828v1.766c0 .297 0 .656-1.438.672a.287.287 0 0 0-.265.297c0 .312.25.312.421.312.875 0 1.813-.203 1.97-1v-1.734c0-.36 0-.516.359-.672.359-.156.843-.156 1.078-.156a.292.292 0 0 0 .265-.313c0-.297-.234-.297-.343-.297-.235-.015-1.329-.031-1.36-.594Zm0 0"/><path fill="none" stroke="#4A6878" stroke-linecap="round" stroke-miterlimit="10" stroke-width=".399" d="M97.984 9.395v5.093"/><path fill="#4A6878" d="m97.984 16.48 1.594-3.187-1.594 1.195-1.593-1.195M63 2.572h1.187v-.266h-1.188V.838h-.25c0 .734-.328 1.484-1.078 1.515v.22h.719v2.171c0 .938.719 1.078 1.078 1.078.547 0 .86-.469.86-1.078v-.438h-.25v.422c0 .547-.25.844-.547.844-.532 0-.532-.687-.532-.812zm5.105 1.359c.172 0 .219 0 .219-.187 0-.703-.39-1.547-1.516-1.547-.984 0-1.765.813-1.765 1.797 0 1.031.859 1.828 1.875 1.828 1 0 1.406-.844 1.406-1.031a.12.12 0 0 0-.125-.11c-.094 0-.11.047-.125.094a1.14 1.14 0 0 1-1.11.797c-.359 0-.734-.156-.968-.531-.235-.36-.235-.875-.235-1.11Zm-2.344-.218c.079-1.11.75-1.297 1.047-1.297.938 0 .969 1.125.969 1.297zm9.029-.391c0-.64-.28-1.094-1.14-1.094-.735 0-1.11.5-1.235.735-.14-.578-.593-.735-1.109-.735a1.37 1.37 0 0 0-1.25.766v-.766l-1.156.094v.266c.547 0 .61.047.61.437V5.12c0 .36-.095.36-.61.36v.265c.344-.031.687-.031.906-.031.234 0 .563 0 .906.031v-.266c-.5 0-.609 0-.609-.359V3.681c0-.843.64-1.234 1.14-1.234.516 0 .61.406.61.844v1.828c0 .36-.11.36-.61.36v.265c.344-.031.688-.031.907-.031.234 0 .562 0 .906.031v-.266c-.516 0-.61 0-.61-.359V3.681c0-.843.641-1.234 1.141-1.234.516 0 .61.406.61.844v1.828c0 .36-.11.36-.61.36v.265c.344-.031.688-.031.907-.031.234 0 .562 0 .906.031v-.266c-.516 0-.61 0-.61-.359zm2.932 3.703c-.515 0-.61 0-.61-.36V5.354a1.37 1.37 0 0 0 1.048.47c1 0 1.89-.782 1.89-1.798 0-1-.812-1.797-1.78-1.797-.313 0-.767.078-1.173.5v-.5l-1.187.094v.266c.562 0 .61.047.61.375v3.703c0 .36-.11.36-.61.36v.265c.343-.031.687-.031.906-.031.234 0 .562 0 .906.03zm-.61-3.937c.188-.313.595-.61 1.095-.61.609 0 1.125.672 1.125 1.547 0 .906-.579 1.578-1.22 1.578-.28 0-.64-.125-.905-.515-.094-.14-.094-.157-.094-.297zM81.849.213 80.66.306v.266c.547 0 .61.047.61.438v4.109c0 .36-.094.36-.61.36v.265c.313-.031.766-.031.907-.031.156 0 .578 0 .89.031v-.266c-.5 0-.61 0-.61-.359zm4.18 3.156c0-.781-.75-1.172-1.484-1.172-.657 0-1.25.25-1.25.781a.36.36 0 0 0 .375.375c.234 0 .375-.156.375-.375 0-.187-.11-.328-.297-.359.297-.203.734-.203.78-.203.454 0 .892.312.892.969v.234c-.454.031-.985.047-1.547.281-.703.313-.844.766-.844 1.031 0 .688.812.891 1.36.891.577 0 .937-.328 1.124-.64.032.296.235.609.594.609.078 0 .75-.031.75-.766v-.437h-.25v.437c0 .328-.11.453-.281.453-.297 0-.297-.359-.297-.453zm-.61 1.25c0 .781-.64.984-.968.984-.406 0-.766-.28-.766-.671 0-.516.5-1.063 1.735-1.094Zm2.985-2.047h1.188v-.266h-1.188V.838h-.25c0 .734-.328 1.484-1.078 1.515v.22h.719v2.171c0 .938.718 1.078 1.078 1.078.547 0 .86-.469.86-1.078v-.438h-.25v.422c0 .547-.25.844-.548.844-.53 0-.53-.687-.53-.812zm5.106 1.359c.172 0 .219 0 .219-.187 0-.703-.391-1.547-1.516-1.547-.984 0-1.766.813-1.766 1.797 0 1.031.86 1.828 1.875 1.828 1 0 1.407-.844 1.407-1.031a.12.12 0 0 0-.125-.11c-.094 0-.11.047-.125.094a1.14 1.14 0 0 1-1.11.797c-.36 0-.734-.156-.969-.531-.234-.36-.234-.875-.234-1.11Zm-2.344-.218c.078-1.11.75-1.297 1.047-1.297.937 0 .969 1.125.969 1.297zm7.726 3.312c-.516 0-.61 0-.61-.36V5.354a1.37 1.37 0 0 0 1.047.47c1 0 1.89-.782 1.89-1.798 0-1-.812-1.797-1.78-1.797-.313 0-.766.078-1.172.5v-.5l-1.188.094v.266c.563 0 .61.047.61.375v3.703c0 .36-.11.36-.61.36v.265c.344-.031.688-.031.906-.031.235 0 .563 0 .907.03zm-.61-3.937c.188-.313.594-.61 1.094-.61.61 0 1.125.672 1.125 1.547 0 .906-.578 1.578-1.219 1.578-.281 0-.64-.125-.906-.515-.094-.14-.094-.157-.094-.297zm6.564.281c0-.781-.75-1.172-1.484-1.172-.656 0-1.25.25-1.25.781a.36.36 0 0 0 .375.375c.234 0 .375-.156.375-.375 0-.187-.11-.328-.297-.359.297-.203.734-.203.781-.203.453 0 .891.312.891.969v.234c-.453.031-.984.047-1.547.281-.703.313-.844.766-.844 1.031 0 .688.813.891 1.36.891.578 0 .937-.328 1.125-.64.031.296.234.609.593.609.079 0 .75-.031.75-.766v-.437h-.25v.437c0 .328-.109.453-.28.453-.298 0-.298-.359-.298-.453zm-.609 1.25c0 .781-.64.984-.969.984-.406 0-.765-.28-.765-.671 0-.516.5-1.063 1.734-1.094Zm2.969-.688c0-.609.25-1.468 1.015-1.484-.046.031-.14.094-.14.281 0 .25.203.36.36.36.187 0 .359-.125.359-.36 0-.28-.25-.5-.61-.5-.515 0-.875.391-1.031.844h-.016v-.844l-1.125.094v.266c.547 0 .61.047.61.437V5.12c0 .36-.11.36-.61.36v.265c.313-.031.75-.031.938-.031.469 0 .484 0 1 .031v-.266h-.156c-.579 0-.594-.078-.594-.375zm5.175-.562c0-.781-.75-1.172-1.484-1.172-.656 0-1.25.25-1.25.781a.36.36 0 0 0 .375.375c.234 0 .375-.156.375-.375 0-.187-.11-.328-.297-.359.297-.203.734-.203.781-.203.453 0 .89.312.89.969v.234c-.452.031-.983.047-1.546.281-.703.313-.844.766-.844 1.031 0 .688.813.891 1.36.891.578 0 .937-.328 1.125-.64.03.296.234.609.593.609.079 0 .75-.031.75-.766v-.437h-.25v.437c0 .328-.109.453-.28.453-.298 0-.298-.359-.298-.453zm-.61 1.25c0 .781-.64.984-.968.984-.406 0-.765-.28-.765-.671 0-.516.5-1.063 1.734-1.094Zm7.719-1.297c0-.64-.28-1.094-1.14-1.094-.734 0-1.11.5-1.234.735-.14-.578-.594-.735-1.11-.735a1.37 1.37 0 0 0-1.25.766v-.766l-1.156.094v.266c.547 0 .61.047.61.437V5.12c0 .36-.094.36-.61.36v.265c.344-.031.688-.031.906-.031.235 0 .563 0 .907.031v-.266c-.5 0-.61 0-.61-.359V3.681c0-.843.64-1.234 1.14-1.234.517 0 .61.406.61.844v1.828c0 .36-.11.36-.61.36v.265c.345-.031.688-.031.907-.031.235 0 .563 0 .906.031v-.266c-.515 0-.609 0-.609-.359V3.681c0-.843.64-1.234 1.14-1.234.516 0 .61.406.61.844v1.828c0 .36-.11.36-.61.36v.265c.344-.031.688-.031.907-.031.234 0 .562 0 .906.031v-.266c-.515 0-.61 0-.61-.359zm4.136.609c.172 0 .218 0 .218-.187 0-.703-.39-1.547-1.515-1.547-.985 0-1.766.813-1.766 1.797 0 1.031.86 1.828 1.875 1.828 1 0 1.406-.844 1.406-1.031a.12.12 0 0 0-.125-.11c-.093 0-.109.047-.125.094a1.14 1.14 0 0 1-1.109.797c-.36 0-.734-.156-.969-.531-.234-.36-.234-.875-.234-1.11Zm-2.344-.218c.078-1.11.75-1.297 1.047-1.297.937 0 .969 1.125.969 1.297zm4.295-1.141h1.187v-.266h-1.187V.838h-.25c0 .734-.328 1.484-1.078 1.515v.22h.718v2.171c0 .938.719 1.078 1.078 1.078.547 0 .86-.469.86-1.078v-.438h-.25v.422c0 .547-.25.844-.547.844-.531 0-.531-.687-.531-.812zm5.105 1.359c.172 0 .22 0 .22-.187 0-.703-.392-1.547-1.517-1.547-.984 0-1.765.813-1.765 1.797 0 1.031.86 1.828 1.875 1.828 1 0 1.406-.844 1.406-1.031a.12.12 0 0 0-.125-.11c-.094 0-.11.047-.125.094a1.14 1.14 0 0 1-1.11.797c-.359 0-.734-.156-.968-.531-.234-.36-.234-.875-.234-1.11Zm-2.343-.218c.078-1.11.75-1.297 1.046-1.297.938 0 .97 1.125.97 1.297zm4.279.218c0-.609.25-1.468 1.015-1.484-.047.031-.14.094-.14.281 0 .25.203.36.36.36.187 0 .358-.125.358-.36 0-.28-.25-.5-.609-.5-.516 0-.875.391-1.031.844h-.016v-.844l-1.125.094v.266c.547 0 .61.047.61.437V5.12c0 .36-.11.36-.61.36v.265c.313-.031.75-.031.938-.031.468 0 .484 0 1 .031v-.266h-.157c-.578 0-.593-.078-.593-.375zm0 0"/><path fill="none" stroke="#4A6878" stroke-linecap="round" stroke-miterlimit="10" stroke-width=".399" d="M45.68 36.941v8.504h68.875"/><path fill="#4A6878" d="m116.547 45.445-3.188-1.593 1.196 1.593-1.196 1.594m9.644-2.757a.336.336 0 0 0-.266.344c0 .218.156.375.375.375s.375-.141.375-.391c0-.484-.531-.719-1.281-.719-1.11 0-1.86.875-1.86 1.828 0 1.016.828 1.797 1.828 1.797 1.125 0 1.407-.937 1.407-1.031 0-.094-.11-.094-.125-.094-.063 0-.094 0-.125.078a1.071 1.071 0 0 1-1.078.797c-.485 0-1.204-.375-1.204-1.562 0-1.141.594-1.578 1.172-1.578.078 0 .5 0 .782.156zm4.169.781c0-.781-.75-1.172-1.484-1.172-.656 0-1.25.25-1.25.781a.36.36 0 0 0 .375.375c.234 0 .375-.156.375-.375 0-.187-.11-.328-.297-.359.297-.203.734-.203.781-.203.453 0 .89.312.89.969v.234c-.452.031-.984.047-1.546.281-.703.313-.844.766-.844 1.032 0 .687.813.89 1.36.89.578 0 .937-.328 1.125-.64.03.296.234.609.593.609.078 0 .75-.031.75-.766v-.437h-.25v.437c0 .328-.109.453-.28.453-.298 0-.298-.359-.298-.453zm-.61 1.25c0 .781-.64.984-.968.984-.406 0-.766-.28-.766-.671 0-.516.5-1.063 1.735-1.094Zm3.017-4.406L128.39 42v.265c.547 0 .61.047.61.438v4.109c0 .36-.094.36-.61.36v.265c.313-.031.766-.031.906-.031.157 0 .578 0 .891.031v-.266c-.5 0-.61 0-.61-.359zm2.351 0-1.187.094v.265c.547 0 .61.047.61.438v4.109c0 .36-.094.36-.61.36v.265c.313-.031.766-.031.906-.031.157 0 .578 0 .891.031v-.266c-.5 0-.61 0-.61-.359zm5.752 6.813c-.515 0-.61 0-.61-.36v-1.313a1.37 1.37 0 0 0 1.048.47c1 0 1.89-.782 1.89-1.798 0-1-.812-1.797-1.781-1.797a1.58 1.58 0 0 0-1.172.5v-.5l-1.187.094v.266c.562 0 .609.047.609.375v3.703c0 .36-.11.36-.61.36v.265c.344-.031.688-.031.907-.031.234 0 .562 0 .906.03zm-.61-3.938c.188-.313.595-.61 1.095-.61.609 0 1.125.672 1.125 1.547 0 .907-.579 1.578-1.22 1.578-.28 0-.64-.125-.905-.515-.094-.14-.094-.156-.094-.297zm6.565.281c0-.781-.75-1.172-1.485-1.172-.656 0-1.25.25-1.25.781a.36.36 0 0 0 .375.375c.235 0 .375-.156.375-.375 0-.187-.109-.328-.296-.359.296-.203.734-.203.78-.203.454 0 .891.312.891.969v.234c-.453.031-.984.047-1.546.281-.704.313-.844.766-.844 1.032 0 .687.812.89 1.36.89.577 0 .937-.328 1.124-.64.031.296.235.609.594.609.078 0 .75-.031.75-.766v-.437h-.25v.437c0 .328-.11.453-.281.453-.297 0-.297-.359-.297-.453zm-.61 1.25c0 .781-.64.984-.968.984-.407 0-.766-.28-.766-.671 0-.516.5-1.063 1.734-1.094Zm2.969-.687c0-.61.25-1.47 1.016-1.485-.047.031-.14.094-.14.281 0 .25.203.36.359.36.187 0 .36-.125.36-.36 0-.28-.25-.5-.61-.5-.516 0-.875.391-1.031.844h-.016v-.844l-1.125.094v.266c.547 0 .61.047.61.437v2.094c0 .36-.11.36-.61.36v.265c.312-.031.75-.031.937-.031.47 0 .485 0 1 .031v-.266h-.156c-.578 0-.594-.078-.594-.375zm5.176-.563c0-.781-.75-1.172-1.485-1.172-.656 0-1.25.25-1.25.781a.36.36 0 0 0 .375.375c.235 0 .375-.156.375-.375 0-.187-.109-.328-.296-.359.296-.203.734-.203.78-.203.454 0 .891.312.891.969v.234c-.453.031-.984.047-1.546.281-.704.313-.844.766-.844 1.032 0 .687.812.89 1.36.89.577 0 .937-.328 1.124-.64.031.296.235.609.594.609.078 0 .75-.031.75-.766v-.437h-.25v.437c0 .328-.11.453-.281.453-.297 0-.297-.359-.297-.453zm-.61 1.25c0 .781-.64.984-.968.984-.407 0-.766-.28-.766-.671 0-.516.5-1.063 1.734-1.094Zm7.719-1.297c0-.64-.28-1.094-1.14-1.094-.735 0-1.11.5-1.235.735-.14-.578-.593-.735-1.109-.735a1.37 1.37 0 0 0-1.25.766v-.766l-1.156.094v.266c.547 0 .61.047.61.437v2.094c0 .36-.095.36-.61.36v.265c.343-.031.687-.031.906-.031.234 0 .562 0 .906.031v-.266c-.5 0-.61 0-.61-.359v-1.438c0-.843.641-1.234 1.141-1.234.516 0 .61.406.61.844v1.828c0 .36-.11.36-.61.36v.265c.344-.031.688-.031.907-.031.234 0 .562 0 .906.031v-.266c-.516 0-.61 0-.61-.359v-1.438c0-.843.641-1.234 1.141-1.234.516 0 .61.406.61.844v1.828c0 .36-.11.36-.61.36v.265c.344-.031.688-.031.906-.031.235 0 .563 0 .907.031v-.266c-.516 0-.61 0-.61-.359zm4.135.61c.172 0 .219 0 .219-.188 0-.703-.39-1.547-1.516-1.547-.984 0-1.765.813-1.765 1.797 0 1.031.86 1.828 1.875 1.828 1 0 1.406-.844 1.406-1.031a.12.12 0 0 0-.125-.11c-.094 0-.11.047-.125.094a1.14 1.14 0 0 1-1.11.797c-.359 0-.734-.156-.968-.531-.235-.36-.235-.875-.235-1.11Zm-2.344-.22c.079-1.109.75-1.296 1.047-1.296.938 0 .97 1.125.97 1.297zm4.295-1.14h1.188v-.265h-1.188v-1.47h-.25c0 .735-.328 1.485-1.078 1.516v.22h.719v2.171c0 .938.719 1.078 1.078 1.078.547 0 .86-.469.86-1.078V46h-.25v.422c0 .547-.25.844-.548.844-.53 0-.53-.687-.53-.812zm5.106 1.36c.172 0 .219 0 .219-.188 0-.703-.391-1.547-1.516-1.547-.984 0-1.766.813-1.766 1.797 0 1.031.86 1.828 1.875 1.828 1 0 1.407-.844 1.407-1.031a.12.12 0 0 0-.125-.11c-.094 0-.11.047-.125.094a1.14 1.14 0 0 1-1.11.797c-.36 0-.734-.156-.968-.531-.235-.36-.235-.875-.235-1.11Zm-2.344-.22c.078-1.109.75-1.296 1.047-1.296.938 0 .969 1.125.969 1.297zm4.279.22c0-.61.25-1.47 1.016-1.485-.047.031-.14.094-.14.281 0 .25.202.36.359.36.187 0 .359-.125.359-.36 0-.28-.25-.5-.61-.5-.515 0-.874.391-1.03.844h-.016v-.844l-1.125.094v.266c.547 0 .61.047.61.437v2.094c0 .36-.11.36-.61.36v.265c.312-.031.75-.031.937-.031.469 0 .485 0 1 .031v-.266h-.156c-.578 0-.594-.078-.594-.375zm0 0"/><path fill="none" stroke="#4A6878" stroke-linecap="round" stroke-miterlimit="10" stroke-width=".399" d="M71.832 36.941v8.504"/></svg>