<svg xmlns="http://www.w3.org/2000/svg" width="284.52" height="137.813" viewBox="0 0 213.39 103.36"><defs><clipPath id="a"><path d="M187 57h26.39v26H187Zm0 0"/></clipPath></defs><path fill="none" stroke="#000" stroke-miterlimit="10" stroke-width=".399" d="M88.477 12.95a7.085 7.085 0 0 1 7.085-7.087h9.52V20.04h-9.52a7.088 7.088 0 0 1-7.085-7.09Zm0 0"/><path d="M96.267 14.425h-.235c-.062.296-.125.734-.234.89-.063.078-.719.078-.938.078h-1.796l1.062-1.03c1.547-1.376 2.14-1.907 2.14-2.907 0-1.14-.89-1.938-2.109-1.938a1.843 1.843 0 0 0-1.859 1.813c0 .547.5.547.531.547.172 0 .516-.11.516-.532a.513.513 0 0 0-.531-.515c-.079 0-.094 0-.125.015.218-.656.765-1.015 1.343-1.015.907 0 1.328.812 1.328 1.625 0 .797-.484 1.578-1.046 2.203l-1.907 2.125c-.109.11-.109.14-.109.375h3.703zm5.09-1.454c0-.796-.046-1.593-.39-2.328-.453-.968-1.281-1.125-1.688-1.125-.61 0-1.328.266-1.75 1.188-.312.687-.36 1.469-.36 2.265 0 .75.032 1.641.454 2.407a1.83 1.83 0 0 0 1.64 1c.532 0 1.298-.203 1.735-1.157.313-.687.36-1.468.36-2.25zm-.812-.125c0 .75 0 1.422-.11 2.063-.156.953-.718 1.25-1.171 1.25-.391 0-.985-.25-1.157-1.203-.109-.594-.109-1.516-.109-2.11 0-.64 0-1.296.078-1.828.188-1.187.938-1.28 1.188-1.28.328 0 .984.187 1.172 1.171.109.562.109 1.312.109 1.937zm0 0"/><path fill="none" stroke="#000" stroke-miterlimit="10" stroke-width=".399" d="M105.48 20.04V5.862h9.516a7.088 7.088 0 0 1 0 14.176Zm0 0"/><path d="M113.362 14.456c0-.813-.64-1.594-1.671-1.813.812-.265 1.39-.953 1.39-1.75 0-.812-.875-1.375-1.828-1.375-1 0-1.766.594-1.766 1.36 0 .328.22.515.516.515.297 0 .5-.218.5-.515 0-.485-.469-.485-.61-.485.298-.5.954-.625 1.313-.625.422 0 .969.22.969 1.11 0 .125-.031.703-.281 1.14-.297.485-.64.516-.89.516a3.29 3.29 0 0 1-.392.031c-.078.016-.14.031-.14.125 0 .11.062.11.234.11h.438c.812 0 1.187.671 1.187 1.656 0 1.36-.687 1.64-1.125 1.64-.437 0-1.187-.171-1.531-.75.344.047.656-.171.656-.546a.537.537 0 0 0-.547-.563c-.25 0-.562.14-.562.578 0 .906.922 1.563 2.016 1.563 1.218 0 2.124-.907 2.124-1.922zm4.998-1.485c0-.796-.047-1.593-.391-2.328-.453-.968-1.281-1.125-1.688-1.125-.61 0-1.328.266-1.75 1.188-.312.687-.36 1.469-.36 2.265 0 .75.032 1.641.454 2.407a1.83 1.83 0 0 0 1.64 1c.532 0 1.298-.203 1.735-1.157.313-.687.36-1.468.36-2.25zm-.813-.125c0 .75 0 1.422-.11 2.063-.156.953-.718 1.25-1.171 1.25-.391 0-.985-.25-1.157-1.203-.109-.594-.109-1.516-.109-2.11 0-.64 0-1.296.078-1.828.188-1.187.938-1.28 1.188-1.28.328 0 .984.187 1.172 1.171.109.562.109 1.312.109 1.937zm0 0"/><path fill="none" stroke="#000" stroke-miterlimit="10" stroke-width=".399" d="M112.367 41.496a7.085 7.085 0 0 0-7.086-7.086 7.085 7.085 0 0 0-7.086 7.086 7.085 7.085 0 0 0 7.086 7.086 7.085 7.085 0 0 0 7.086-7.086Zm0 0"/><path d="M104.768 42.97h-.235c-.062.298-.125.735-.234.891-.063.078-.719.078-.938.078h-1.796l1.062-1.03c1.547-1.376 2.14-1.907 2.14-2.907 0-1.14-.89-1.938-2.109-1.938a1.843 1.843 0 0 0-1.859 1.813c0 .547.5.547.531.547.172 0 .516-.11.516-.531a.513.513 0 0 0-.531-.516c-.078 0-.094 0-.125.016.218-.657.765-1.016 1.343-1.016.907 0 1.329.812 1.329 1.625 0 .797-.485 1.578-1.047 2.203l-1.907 2.125c-.109.11-.109.14-.109.375h3.703zm4.981-.265c0-1.187-.812-2.187-1.89-2.187-.47 0-.907.156-1.266.515V39.08c.203.063.531.125.844.125 1.234 0 1.937-.906 1.937-1.031 0-.063-.031-.11-.11-.11 0 0-.03 0-.077.032a3.22 3.22 0 0 1-1.36.297c-.39 0-.86-.079-1.328-.282-.078-.031-.11-.031-.11-.031-.109 0-.109.078-.109.234v2.954c0 .171 0 .25.14.25.079 0 .095-.016.142-.079.109-.156.468-.703 1.28-.703.516 0 .766.453.845.64.156.376.187.75.187 1.25 0 .36 0 .954-.25 1.376-.234.39-.61.64-1.062.64-.72 0-1.297-.53-1.47-1.109.032 0 .063.016.173.016.328 0 .5-.25.5-.485 0-.25-.172-.5-.5-.5-.141 0-.485.079-.485.532 0 .859.688 1.828 1.797 1.828 1.156 0 2.172-.953 2.172-2.219Zm0 0"/><path fill="none" stroke="#000" stroke-miterlimit="10" stroke-width=".399" d="M20.04 41.496a7.088 7.088 0 0 1 7.089-7.086h7.086v14.172h-7.086a7.088 7.088 0 0 1-7.09-7.086Zm0 0"/><path d="M29.106 42.705c0-1.187-.813-2.187-1.89-2.187-.47 0-.907.156-1.267.515V39.08c.204.063.532.125.844.125 1.235 0 1.938-.906 1.938-1.031 0-.063-.032-.11-.11-.11 0 0-.03 0-.078.032a3.22 3.22 0 0 1-1.36.297c-.39 0-.859-.079-1.327-.282-.078-.031-.11-.031-.11-.031-.109 0-.109.078-.109.234v2.954c0 .171 0 .25.14.25.079 0 .094-.016.141-.079.11-.156.469-.703 1.281-.703.516 0 .766.453.844.64.156.376.188.75.188 1.25 0 .36 0 .954-.25 1.376-.235.39-.61.64-1.063.64-.719 0-1.297-.53-1.469-1.109.032 0 .063.016.172.016.328 0 .5-.25.5-.485 0-.25-.172-.5-.5-.5-.14 0-.484.079-.484.532 0 .859.687 1.828 1.797 1.828 1.156 0 2.172-.953 2.172-2.219Zm0 0"/><path fill="none" stroke="#000" stroke-miterlimit="10" stroke-width=".399" d="M34.613 48.582V34.41h9.516a7.085 7.085 0 0 1 7.086 7.086 7.085 7.085 0 0 1-7.086 7.086Zm0 0"/><path d="M42.105 44.705v-.312h-.313c-.906 0-.922-.11-.922-.47V38.33c0-.25 0-.266-.234-.266-.625.641-1.5.641-1.812.641v.313c.203 0 .78 0 1.296-.266v5.172c0 .36-.03.469-.921.469h-.313v.312c.344-.031 1.203-.031 1.61-.031.39 0 1.265 0 1.609.031zm5.387-3.187c0-.797-.046-1.594-.39-2.329-.453-.968-1.281-1.125-1.688-1.125-.61 0-1.328.266-1.75 1.188-.312.687-.36 1.469-.36 2.266 0 .75.032 1.64.454 2.406a1.83 1.83 0 0 0 1.64 1c.532 0 1.298-.203 1.735-1.156.313-.688.36-1.47.36-2.25zm-.812-.125c0 .75 0 1.421-.11 2.062-.156.953-.718 1.25-1.171 1.25-.391 0-.985-.25-1.157-1.203-.109-.594-.109-1.516-.109-2.11 0-.64 0-1.296.078-1.828.188-1.187.938-1.28 1.188-1.28.328 0 .984.187 1.172 1.171.109.563.109 1.313.109 1.938zm0 0"/><path fill="none" stroke="#000" stroke-miterlimit="10" stroke-width=".399" d="M162.172 41.496a7.088 7.088 0 0 1 7.086-7.086h9.52v14.172h-9.52a7.088 7.088 0 0 1-7.086-7.086Zm0 0"/><path d="M170.056 43.002c0-.813-.64-1.594-1.671-1.813.812-.265 1.39-.953 1.39-1.75 0-.812-.875-1.375-1.828-1.375-1 0-1.766.594-1.766 1.36 0 .328.22.515.516.515.297 0 .5-.218.5-.515 0-.485-.469-.485-.61-.485.298-.5.954-.625 1.313-.625.422 0 .969.22.969 1.11 0 .125-.031.703-.281 1.14-.297.485-.64.516-.89.516a3.29 3.29 0 0 1-.392.031c-.078.016-.14.032-.14.125 0 .11.062.11.234.11h.438c.812 0 1.187.672 1.187 1.656 0 1.36-.687 1.64-1.125 1.64-.437 0-1.187-.171-1.531-.75.344.047.656-.171.656-.546a.537.537 0 0 0-.547-.563c-.25 0-.562.14-.562.578 0 .907.922 1.563 2.016 1.563 1.218 0 2.125-.906 2.125-1.922zm4.888-.297c0-1.187-.812-2.187-1.89-2.187-.47 0-.907.156-1.266.515V39.08c.203.063.531.125.844.125 1.234 0 1.937-.906 1.937-1.031 0-.063-.031-.11-.11-.11 0 0-.03 0-.077.032a3.22 3.22 0 0 1-1.36.297c-.39 0-.86-.079-1.328-.282-.078-.031-.11-.031-.11-.031-.109 0-.109.078-.109.234v2.954c0 .171 0 .25.14.25.079 0 .095-.016.142-.079.109-.156.468-.703 1.28-.703.516 0 .766.453.845.64.156.376.187.75.187 1.25 0 .36 0 .954-.25 1.376-.234.39-.61.64-1.062.64-.72 0-1.297-.53-1.47-1.109.032 0 .063.016.173.016.328 0 .5-.25.5-.485 0-.25-.172-.5-.5-.5-.141 0-.485.079-.485.532 0 .859.688 1.828 1.797 1.828 1.156 0 2.172-.953 2.172-2.219Zm0 0"/><path fill="none" stroke="#000" stroke-miterlimit="10" stroke-width=".399" d="M179.176 48.582V34.41h9.515a7.088 7.088 0 0 1 7.09 7.086 7.088 7.088 0 0 1-7.09 7.086Zm0 0"/><path d="M187.059 41.424c0-2.688-1.157-3.36-2.047-3.36-.547 0-1.032.188-1.453.625-.422.454-.641.875-.641 1.625 0 1.235.875 2.22 1.984 2.22.61 0 1.016-.423 1.25-1v.327c0 2.328-1.031 2.782-1.61 2.782-.171 0-.718-.016-.983-.36.437 0 .515-.281.515-.453 0-.312-.234-.453-.453-.453-.156 0-.453.078-.453.469 0 .672.531 1.078 1.375 1.078 1.297 0 2.516-1.36 2.516-3.5zm-.922-.922c0 .828-.344 1.797-1.22 1.797-.155 0-.624 0-.921-.625-.188-.375-.188-.86-.188-1.36 0-.53 0-1 .22-1.375.265-.5.64-.625.984-.625.468 0 .797.344.968.782.11.328.157.953.157 1.406zm5.918 1.016c0-.797-.046-1.594-.39-2.329-.453-.968-1.281-1.125-1.688-1.125-.61 0-1.328.266-1.75 1.188-.312.687-.36 1.469-.36 2.266 0 .75.032 1.64.454 2.406a1.83 1.83 0 0 0 1.64 1c.532 0 1.298-.203 1.735-1.156.313-.688.36-1.47.36-2.25zm-.812-.125c0 .75 0 1.421-.11 2.062-.156.953-.718 1.25-1.171 1.25-.391 0-.985-.25-1.157-1.203-.109-.594-.109-1.516-.109-2.11 0-.64 0-1.296.078-1.828.188-1.187.938-1.28 1.188-1.28.328 0 .984.187 1.172 1.171.109.563.109 1.313.109 1.938zm0 0"/><path fill="none" stroke="#000" stroke-miterlimit="10" stroke-width=".399" d="M41.5 70.043a7.085 7.085 0 0 0-7.086-7.086 7.085 7.085 0 0 0-7.086 7.086 7.085 7.085 0 0 0 7.086 7.086 7.085 7.085 0 0 0 7.086-7.086Zm0 0"/><path d="M36.486 71.22c0-1.266-.891-2.219-2-2.219-.672 0-1.047.5-1.25.984v-.25c0-2.515 1.234-2.875 1.75-2.875.234 0 .656.063.875.407-.157 0-.547 0-.547.437 0 .313.234.469.453.469.156 0 .468-.094.468-.485 0-.593-.437-1.078-1.265-1.078-1.281 0-2.625 1.282-2.625 3.485 0 2.672 1.156 3.375 2.078 3.375 1.11 0 2.063-.938 2.063-2.25zm-.907-.016c0 .484 0 .984-.172 1.344-.296.594-.75.64-.984.64-.625 0-.922-.593-.984-.75-.188-.468-.188-1.265-.188-1.437 0-.781.328-1.781 1.219-1.781.172 0 .625 0 .937.625.172.36.172.875.172 1.36zm0 0"/><path fill="none" stroke="#000" stroke-miterlimit="10" stroke-width=".399" d="M20.04 70.043a7.085 7.085 0 0 0-7.087-7.086 7.085 7.085 0 0 0-7.086 7.086 7.085 7.085 0 0 0 7.086 7.086 7.085 7.085 0 0 0 7.086-7.086Zm0 0"/><path d="M14.635 73.361v-.313h-.313c-.906 0-.921-.109-.921-.468v-5.594c0-.25 0-.266-.235-.266-.625.641-1.5.641-1.812.641v.313c.203 0 .78 0 1.296-.266v5.172c0 .36-.03.469-.921.469h-.313v.312c.344-.031 1.203-.031 1.61-.031.39 0 1.265 0 1.609.031zm0 0"/><path fill="none" stroke="#000" stroke-miterlimit="10" stroke-width=".399" d="M62.96 70.043a7.088 7.088 0 0 0-14.175 0 7.088 7.088 0 0 0 14.176 0Zm0 0"/><path d="M55.063 73.361v-.313h-.313c-.906 0-.922-.109-.922-.468v-5.594c0-.25 0-.266-.234-.266-.625.641-1.5.641-1.812.641v.313c.203 0 .78 0 1.296-.266v5.172c0 .36-.03.469-.921.469h-.313v.312c.344-.031 1.203-.031 1.61-.031.39 0 1.265 0 1.609.031zm5.278-1.734h-.234c-.063.297-.125.734-.235.89-.062.078-.718.078-.937.078h-1.797l1.062-1.03c1.547-1.376 2.141-1.907 2.141-2.907 0-1.14-.89-1.938-2.11-1.938a1.844 1.844 0 0 0-1.859 1.813c0 .547.5.547.532.547.171 0 .515-.11.515-.531a.513.513 0 0 0-.531-.516c-.078 0-.094 0-.125.016.219-.657.766-1.016 1.344-1.016.906 0 1.328.812 1.328 1.625 0 .797-.485 1.578-1.047 2.203l-1.906 2.125c-.11.11-.11.14-.11.375h3.703zm0 0"/><path fill="none" stroke="#000" stroke-miterlimit="10" stroke-width=".399" d="M98.195 70.043a7.088 7.088 0 0 0-14.175 0 7.088 7.088 0 0 0 14.176 0Zm0 0"/><path d="M90.594 71.517h-.235c-.062.296-.125.734-.234.89-.063.078-.719.078-.938.078h-1.796l1.062-1.03c1.547-1.376 2.14-1.907 2.14-2.907 0-1.14-.89-1.938-2.109-1.938a1.843 1.843 0 0 0-1.859 1.813c0 .547.5.547.531.547.172 0 .516-.11.516-.532a.513.513 0 0 0-.531-.515c-.079 0-.094 0-.125.015.218-.656.765-1.015 1.343-1.015.907 0 1.329.812 1.329 1.625 0 .797-.485 1.578-1.047 2.203l-1.907 2.125c-.109.11-.109.14-.109.375h3.703zm5.075.031c0-.813-.64-1.594-1.672-1.813.812-.265 1.39-.953 1.39-1.75 0-.812-.874-1.375-1.828-1.375-1 0-1.765.594-1.765 1.36 0 .328.219.515.515.515.297 0 .5-.218.5-.515 0-.485-.468-.485-.609-.485.297-.5.953-.625 1.313-.625.421 0 .968.22.968 1.11 0 .125-.03.703-.28 1.14-.298.485-.642.516-.892.516a3.29 3.29 0 0 1-.39.031c-.078.016-.14.031-.14.125 0 .11.062.11.234.11h.437c.813 0 1.188.671 1.188 1.656 0 1.36-.688 1.64-1.125 1.64-.438 0-1.188-.171-1.532-.75.344.047.657-.171.657-.546a.537.537 0 0 0-.547-.563c-.25 0-.563.14-.563.578 0 .906.922 1.563 2.016 1.563 1.219 0 2.125-.907 2.125-1.922zm0 0"/><path fill="none" stroke="#000" stroke-miterlimit="10" stroke-width=".399" d="M111.152 70.043a7.085 7.085 0 0 1 7.086-7.086h9.516v14.172h-9.516a7.085 7.085 0 0 1-7.086-7.086Zm0 0"/><path d="M118.94 71.567h-.234c-.062.297-.125.734-.234.89-.063.078-.719.078-.938.078h-1.796l1.062-1.03c1.547-1.376 2.14-1.907 2.14-2.907 0-1.14-.89-1.938-2.109-1.938a1.843 1.843 0 0 0-1.859 1.813c0 .547.5.547.531.547.172 0 .516-.11.516-.531a.513.513 0 0 0-.531-.516c-.079 0-.094 0-.125.016.218-.657.765-1.016 1.343-1.016.907 0 1.328.812 1.328 1.625 0 .797-.484 1.578-1.046 2.203l-1.907 2.125c-.109.11-.109.14-.109.375h3.703zm5.341-4.687h-2.421c-1.204 0-1.235-.126-1.266-.313h-.25l-.328 2.047h.25c.031-.157.11-.782.25-.907.062-.062.844-.062.969-.062h2.062l-1.11 1.578c-.906 1.344-1.234 2.734-1.234 3.75 0 .094 0 .547.469.547.453 0 .453-.453.453-.547v-.516c0-.547.031-1.093.11-1.625.046-.234.171-1.093.625-1.703l1.343-1.906c.078-.11.078-.125.078-.344zm0 0"/><path fill="none" stroke="#000" stroke-miterlimit="10" stroke-width=".399" d="M128.152 77.129V62.957h9.52a7.085 7.085 0 0 1 7.086 7.086 7.085 7.085 0 0 1-7.086 7.086Zm0 0"/><path d="M135.944 71.517h-.235c-.062.296-.125.734-.234.89-.062.078-.719.078-.937.078h-1.797l1.062-1.03c1.547-1.376 2.14-1.907 2.14-2.907 0-1.14-.89-1.938-2.109-1.938a1.843 1.843 0 0 0-1.859 1.813c0 .547.5.547.531.547.172 0 .516-.11.516-.532a.513.513 0 0 0-.531-.515c-.078 0-.094 0-.125.015.218-.656.765-1.015 1.343-1.015.907 0 1.329.812 1.329 1.625 0 .797-.485 1.578-1.047 2.203l-1.907 2.125c-.109.11-.109.14-.109.375h3.703zm5.075.063c0-.36-.11-.813-.5-1.235-.188-.203-.344-.297-.985-.703.72-.375 1.204-.891 1.204-1.547 0-.922-.875-1.485-1.782-1.485-1 0-1.812.735-1.812 1.672 0 .172.015.625.437 1.094.11.11.485.36.735.531-.578.297-1.438.844-1.438 1.844 0 1.047 1.016 1.719 2.063 1.719 1.125 0 2.078-.828 2.078-1.89zm-.719-3.485c0 .578-.39 1.047-.984 1.39l-1.235-.797c-.453-.296-.5-.625-.5-.796 0-.61.657-1.032 1.36-1.032.718 0 1.359.516 1.359 1.235zm.219 3.843c0 .735-.75 1.25-1.563 1.25-.86 0-1.578-.609-1.578-1.437 0-.578.313-1.219 1.156-1.688l1.235.782c.281.187.75.484.75 1.093zm0 0"/><path fill="none" stroke="#000" stroke-miterlimit="10" stroke-width=".399" d="M186.063 70.043a7.085 7.085 0 0 0-7.086-7.086 7.085 7.085 0 0 0-7.086 7.086 7.085 7.085 0 0 0 7.086 7.086 7.085 7.085 0 0 0 7.085-7.086Zm0 0"/><path d="M178.558 71.548c0-.813-.641-1.594-1.672-1.813.812-.265 1.39-.953 1.39-1.75 0-.812-.875-1.375-1.828-1.375-1 0-1.766.594-1.766 1.36 0 .328.22.515.516.515.297 0 .5-.218.5-.515 0-.485-.469-.485-.61-.485.298-.5.954-.625 1.313-.625.422 0 .969.22.969 1.11 0 .125-.031.703-.281 1.14-.297.485-.64.516-.89.516a3.29 3.29 0 0 1-.392.031c-.078.016-.14.031-.14.125 0 .11.062.11.234.11h.438c.812 0 1.187.671 1.187 1.656 0 1.36-.687 1.64-1.125 1.64-.437 0-1.187-.171-1.531-.75.344.047.656-.171.656-.546a.537.537 0 0 0-.547-.563c-.25 0-.562.14-.562.578 0 .906.922 1.563 2.016 1.563 1.218 0 2.125-.907 2.125-1.922zm4.981.032c0-.36-.11-.813-.5-1.235-.188-.203-.344-.297-.985-.703.72-.375 1.204-.891 1.204-1.547 0-.922-.875-1.485-1.782-1.485-1 0-1.812.735-1.812 1.672 0 .172.015.625.437 1.094.11.11.485.36.735.531-.578.297-1.438.844-1.438 1.844 0 1.047 1.016 1.719 2.063 1.719 1.125 0 2.078-.828 2.078-1.89zm-.719-3.485c0 .578-.39 1.047-.984 1.39l-1.235-.797c-.453-.296-.5-.625-.5-.796 0-.61.657-1.032 1.36-1.032.718 0 1.359.516 1.359 1.235zm.219 3.843c0 .735-.75 1.25-1.563 1.25-.86 0-1.578-.609-1.578-1.437 0-.578.313-1.219 1.156-1.688l1.235.782c.281.187.75.484.75 1.093zm0 0"/><path fill="none" stroke="#000" stroke-miterlimit="10" stroke-width=".399" d="M164.605 70.043a7.088 7.088 0 0 0-14.175 0 7.088 7.088 0 0 0 14.176 0Zm0 0"/><path d="M157.099 71.548c0-.813-.641-1.594-1.672-1.813.812-.265 1.39-.953 1.39-1.75 0-.812-.875-1.375-1.828-1.375-1 0-1.766.594-1.766 1.36 0 .328.22.515.516.515.297 0 .5-.218.5-.515 0-.485-.469-.485-.61-.485.298-.5.954-.625 1.313-.625.422 0 .969.22.969 1.11 0 .125-.031.703-.281 1.14-.297.485-.64.516-.89.516a3.29 3.29 0 0 1-.392.031c-.078.016-.14.031-.14.125 0 .11.062.11.234.11h.438c.812 0 1.187.671 1.187 1.656 0 1.36-.687 1.64-1.125 1.64-.437 0-1.187-.171-1.531-.75.344.047.656-.171.656-.546a.537.537 0 0 0-.547-.563c-.25 0-.562.14-.562.578 0 .906.922 1.563 2.016 1.563 1.218 0 2.125-.907 2.125-1.922zm4.981 0c0-.813-.64-1.594-1.672-1.813.812-.265 1.39-.953 1.39-1.75 0-.812-.874-1.375-1.828-1.375-1 0-1.765.594-1.765 1.36 0 .328.219.515.515.515.297 0 .5-.218.5-.515 0-.485-.468-.485-.609-.485.297-.5.953-.625 1.313-.625.421 0 .968.22.968 1.11 0 .125-.03.703-.28 1.14-.298.485-.642.516-.892.516a3.29 3.29 0 0 1-.39.031c-.078.016-.14.031-.14.125 0 .11.062.11.234.11h.437c.813 0 1.188.671 1.188 1.656 0 1.36-.688 1.64-1.125 1.64-.438 0-1.188-.171-1.532-.75.344.047.657-.171.657-.546a.537.537 0 0 0-.547-.563c-.25 0-.563.14-.563.578 0 .906.922 1.563 2.016 1.563 1.219 0 2.125-.907 2.125-1.922zm0 0"/><g clip-path="url(#a)"><path fill="none" stroke="#000" stroke-miterlimit="10" stroke-width=".399" d="M207.523 70.043a7.088 7.088 0 0 0-14.175 0 7.088 7.088 0 0 0 14.175 0Zm0 0"/></g><path d="M200.016 69.97c0-2.688-1.156-3.36-2.046-3.36-.547 0-1.032.188-1.454.625-.421.453-.64.875-.64 1.625 0 1.235.875 2.22 1.984 2.22.61 0 1.016-.423 1.25-1v.327c0 2.328-1.031 2.781-1.61 2.781-.171 0-.718-.015-.984-.359.438 0 .516-.281.516-.453 0-.313-.234-.453-.453-.453-.156 0-.453.078-.453.469 0 .671.531 1.078 1.375 1.078 1.297 0 2.515-1.36 2.515-3.5zm-.921-.922c0 .828-.344 1.797-1.22 1.797-.155 0-.624 0-.921-.625-.188-.375-.188-.86-.188-1.36 0-.53 0-1 .22-1.375.265-.5.64-.625.984-.625.468 0 .796.344.968.782.11.328.157.953.157 1.406zm5.903.922c0-2.688-1.156-3.36-2.047-3.36-.547 0-1.031.188-1.453.625-.422.453-.64.875-.64 1.625 0 1.235.874 2.22 1.984 2.22.609 0 1.015-.423 1.25-1v.327c0 2.328-1.032 2.781-1.61 2.781-.172 0-.719-.015-.984-.359.437 0 .515-.281.515-.453 0-.313-.234-.453-.453-.453-.156 0-.453.078-.453.469 0 .671.531 1.078 1.375 1.078 1.297 0 2.516-1.36 2.516-3.5zm-.922-.922c0 .828-.344 1.797-1.219 1.797-.156 0-.625 0-.922-.625-.187-.375-.187-.86-.187-1.36 0-.53 0-1 .219-1.375.265-.5.64-.625.984-.625.469 0 .797.344.969.782.11.328.156.953.156 1.406zm0 0"/><path fill="none" stroke="#000" stroke-linecap="round" stroke-miterlimit="10" stroke-width=".399" d="m88.277 12.95-59.27 20.609"/><path d="m27.129 34.21 3.531.458-1.652-1.11.605-1.898"/><path fill="none" stroke="#000" stroke-linecap="round" stroke-miterlimit="10" stroke-width=".399" d="M105.281 20.238v11.98"/><path d="m105.281 34.21 1.594-3.187-1.594 1.196-1.594-1.196"/><path fill="none" stroke="#000" stroke-linecap="round" stroke-miterlimit="10" stroke-width=".399" d="m122.281 12.95 46.371 20.456"/><path d="m170.477 34.21-2.274-2.745.45 1.941-1.739.977"/><path fill="none" stroke="#000" stroke-linecap="round" stroke-miterlimit="10" stroke-width=".399" d="m19.84 41.496-6.274 19.367"/><path d="m12.953 62.758 2.5-2.543-1.887.648-1.148-1.629"/><path fill="none" stroke="#000" stroke-linecap="round" stroke-miterlimit="10" stroke-width=".399" d="M34.414 48.781v11.985"/><path d="m34.414 62.758 1.594-3.188-1.594 1.196-1.594-1.196"/><path fill="none" stroke="#000" stroke-linecap="round" stroke-miterlimit="10" stroke-width=".399" d="m51.414 41.496 4.05 19.313"/><path d="m55.871 62.758.906-3.45-1.312 1.5-1.805-.843"/><path fill="none" stroke="#000" stroke-linecap="round" stroke-miterlimit="10" stroke-width=".399" d="M105.281 48.781 92.527 61.36"/><path d="m91.105 62.758 3.391-1.106-1.969-.293-.27-1.976"/><path fill="none" stroke="#000" stroke-linecap="round" stroke-miterlimit="10" stroke-width=".399" d="m105.281 48.781 12.754 12.578"/><path d="m119.453 62.758-1.152-3.375-.266 1.976-1.969.293"/><path fill="none" stroke="#000" stroke-linecap="round" stroke-miterlimit="10" stroke-width=".399" d="m161.973 41.496-4.047 19.313"/><path d="m157.516 62.758 2.214-2.793-1.804.844-1.317-1.5"/><path fill="none" stroke="#000" stroke-linecap="round" stroke-miterlimit="10" stroke-width=".399" d="M178.977 48.781v11.985"/><path d="m178.977 62.758 1.593-3.188-1.593 1.196-1.594-1.196"/><path fill="none" stroke="#000" stroke-linecap="round" stroke-miterlimit="10" stroke-width=".399" d="m195.98 41.496 4.047 19.313"/><path d="m200.438 62.758.902-3.45-1.313 1.5-1.804-.843M89.773 92.043h-.469c-.03.203-.125.844-.265.907-.11.062-.86.062-1.016.062h-1.469c.47-.39 1-.812 1.438-1.14 1.14-.844 1.781-1.313 1.781-2.25 0-1.157-1.047-1.891-2.437-1.891-1.219 0-2.157.625-2.157 1.515 0 .594.485.735.72.735.327 0 .718-.219.718-.719 0-.516-.422-.672-.563-.719.282-.234.672-.343 1.032-.343.843 0 1.312.671 1.312 1.421 0 .688-.375 1.375-1.078 2.079l-2 2.046c-.14.11-.14.141-.14.344v.172h4.28zm3.744.485v-.97H90.47v.97zm5.894-.063c0-.547-.297-1.406-1.734-1.719.687-.203 1.406-.765 1.406-1.625 0-.765-.75-1.39-2.156-1.39-1.188 0-1.969.64-1.969 1.437 0 .422.313.703.688.703a.668.668 0 0 0 .703-.687c0-.578-.547-.688-.578-.703.343-.281.78-.36 1.093-.36.828 0 .86.641.86.97 0 .124-.016 1.437-1.047 1.5-.406.015-.438.015-.485.03-.093.016-.125.11-.125.172 0 .172.11.172.282.172h.437c1.094 0 1.094.985 1.094 1.5 0 .469 0 1.485-1.031 1.485-.266 0-.782-.047-1.266-.344.328-.094.578-.344.578-.75 0-.453-.312-.75-.75-.75-.422 0-.765.265-.765.765 0 .907.968 1.5 2.25 1.5 1.78 0 2.515-1 2.515-1.906zm11.841-2.531-.203-2.406h-6.719l-.203 2.406h.469c.094-1.125.187-1.938 1.625-1.938h.766v5.797h-1.532v.469c.547-.031 1.657-.031 2.235-.031.593 0 1.703 0 2.234.031v-.469h-1.531v-5.797h.765c1.422 0 1.532.797 1.625 1.938zm0 0"/><path d="M115.135 90.59c0-.531-.531-.812-1.062-.812-.688 0-1.094.5-1.313 1.125v-1.125l-1.656.078v.469c.61 0 .687 0 .687.39v3.078h-.687v.469l1.25-.031c.375 0 1.016 0 1.375.031v-.469h-.86v-1.75c0-.687.235-1.906 1.235-1.906 0 0-.188.172-.188.453 0 .406.329.61.61.61.297 0 .61-.204.61-.61zm5.238 2.5c0-.172-.187-.172-.234-.172-.172 0-.188.047-.25.203-.203.485-.781.797-1.422.797-1.406 0-1.422-1.328-1.422-1.828h3.016c.218 0 .312 0 .312-.265 0-.313-.062-1.047-.562-1.547-.36-.36-.891-.532-1.579-.532-1.593 0-2.468 1.032-2.468 2.266 0 1.344 1 2.313 2.61 2.313 1.577 0 2-1.063 2-1.235zm-.937-1.328h-2.391c.016-.39.031-.812.234-1.14.266-.391.672-.516.954-.516 1.171 0 1.187 1.312 1.203 1.656zm6.187 1.328c0-.172-.187-.172-.234-.172-.172 0-.187.047-.25.203-.203.485-.781.797-1.422.797-1.406 0-1.422-1.328-1.422-1.828h3.016c.219 0 .312 0 .312-.265 0-.313-.062-1.047-.562-1.547-.36-.36-.89-.532-1.578-.532-1.594 0-2.469 1.032-2.469 2.266 0 1.344 1 2.313 2.61 2.313 1.578 0 2-1.063 2-1.235zm-.937-1.328h-2.39c.015-.39.03-.812.234-1.14.265-.391.672-.516.953-.516 1.172 0 1.187 1.312 1.203 1.656zm0 0"/></svg>