<svg xmlns="http://www.w3.org/2000/svg" width="401.381" height="166.333" viewBox="0 0 301.036 124.75"><defs><clipPath id="a"><path d="M46 26h35v35H46Zm0 0"/></clipPath><clipPath id="b"><path d="M80.063 43.797c0-9.395-7.614-17.012-17.008-17.012-9.39 0-17.008 7.617-17.008 17.012 0 9.39 7.617 17.008 17.008 17.008 9.394 0 17.008-7.617 17.008-17.008Zm0 0"/></clipPath><clipPath id="c"><path d="m42.781 87.273 63.754-23.203L83.332.316 19.578 23.52Zm0 0"/></clipPath><clipPath id="e"><path d="M13 75h44v23H13Zm0 0"/></clipPath><clipPath id="f"><path d="M13.293 90.875v-8.414a7.088 7.088 0 0 1 7.086-7.086h28.66a7.085 7.085 0 0 1 7.086 7.086v8.414a7.085 7.085 0 0 1-7.086 7.086H20.38a7.088 7.088 0 0 1-7.086-7.086Zm0 0"/></clipPath><clipPath id="g"><path d="m9.184 125.66 70.144-25.531-19.09-52.453L-9.91 73.207Zm0 0"/></clipPath><clipPath id="i"><path d="M69 75h45v23H69Zm0 0"/></clipPath><clipPath id="j"><path d="M69.703 90.875v-8.414a7.085 7.085 0 0 1 7.086-7.086h29.227a7.088 7.088 0 0 1 7.09 7.086v8.414a7.088 7.088 0 0 1-7.09 7.086H76.789a7.085 7.085 0 0 1-7.086-7.086Zm0 0"/></clipPath><clipPath id="k"><path d="m65.535 125.95 70.934-25.821-19.2-52.742-70.933 25.82Zm0 0"/></clipPath><clipPath id="m"><path d="M176 32h31v24h-31Zm0 0"/></clipPath><clipPath id="n"><path d="M176.66 43.797v-.004c0-6.262 5.074-11.336 11.336-11.336h18.84v22.676h-18.84c-6.262 0-11.336-5.074-11.336-11.336Zm0 0"/></clipPath><clipPath id="o"><path d="M173.762 76.531 226.57 57.31l-16.836-46.25-52.808 19.222Zm0 0"/></clipPath><clipPath id="q"><path d="M207 32h31v24h-31Zm0 0"/></clipPath><clipPath id="r"><path d="M207.234 55.133V32.457h19.414c6.262 0 11.336 5.074 11.336 11.336v.004c0 6.262-5.074 11.336-11.336 11.336Zm0 0"/></clipPath><clipPath id="s"><path d="m204.285 76.816 53.594-19.504-16.942-46.539-53.593 19.504Zm0 0"/></clipPath><clipPath id="u"><path d="M184 75h46v23h-46Zm0 0"/></clipPath><clipPath id="v"><path d="M184.18 90.875v-8.414a7.088 7.088 0 0 1 7.09-7.086h31.535a7.085 7.085 0 0 1 7.086 7.086v8.414a7.085 7.085 0 0 1-7.086 7.086H191.27a7.088 7.088 0 0 1-7.09-7.086Zm0 0"/></clipPath><clipPath id="w"><path d="m179.793 127.102 74.105-26.973-19.617-53.895-74.105 26.973Zm0 0"/></clipPath><clipPath id="y"><path d="M126 75h44v23h-44Zm0 0"/></clipPath><clipPath id="z"><path d="M126.781 90.875v-8.414a7.085 7.085 0 0 1 7.086-7.086h28.656a7.085 7.085 0 0 1 7.086 7.086v8.414a7.085 7.085 0 0 1-7.086 7.086h-28.656a7.085 7.085 0 0 1-7.086-7.086Zm0 0"/></clipPath><clipPath id="A"><path d="m122.668 125.66 70.148-25.531-19.093-52.453-70.149 25.531Zm0 0"/></clipPath><clipPath id="C"><path d="M244 75h44v23h-44Zm0 0"/></clipPath><clipPath id="D"><path d="M244.465 90.875v-8.414a7.085 7.085 0 0 1 7.086-7.086h29.226a7.088 7.088 0 0 1 7.09 7.086v8.414a7.088 7.088 0 0 1-7.09 7.086h-29.226a7.085 7.085 0 0 1-7.086-7.086Zm0 0"/></clipPath><clipPath id="E"><path d="m240.297 125.95 70.933-25.821-19.199-52.742-70.933 25.82Zm0 0"/></clipPath><linearGradient id="d" x1="0" x2="0" y1="17.869" y2="82.131" gradientTransform="scale(.67845 -.67845) rotate(20 396.292 114.489)" gradientUnits="userSpaceOnUse"><stop offset="0" stop-color="#F0E5E5"/><stop offset=".125" stop-color="#F0E5E5"/><stop offset=".141" stop-color="#EFE5E5"/><stop offset=".156" stop-color="#EFE4E4"/><stop offset=".172" stop-color="#EFE4E4"/><stop offset=".188" stop-color="#EEE3E3"/><stop offset=".203" stop-color="#EEE3E3"/><stop offset=".219" stop-color="#EEE2E2"/><stop offset=".234" stop-color="#EDE2E2"/><stop offset=".25" stop-color="#EDE1E1"/><stop offset=".266" stop-color="#EDE1E1"/><stop offset=".281" stop-color="#EDE0E0"/><stop offset=".297" stop-color="#ECE0E0"/><stop offset=".313" stop-color="#ECDFDF"/><stop offset=".328" stop-color="#ECDFDF"/><stop offset=".344" stop-color="#EBDEDE"/><stop offset=".359" stop-color="#EBDEDE"/><stop offset=".375" stop-color="#EBDDDD"/><stop offset=".391" stop-color="#EADDDD"/><stop offset=".406" stop-color="#EADCDC"/><stop offset=".422" stop-color="#EADCDC"/><stop offset=".438" stop-color="#E9DBDB"/><stop offset=".453" stop-color="#E9DBDB"/><stop offset=".469" stop-color="#E9DADA"/><stop offset=".484" stop-color="#E9DADA"/><stop offset=".5" stop-color="#E8D9D9"/><stop offset=".516" stop-color="#E8D8D8"/><stop offset=".531" stop-color="#E8D8D8"/><stop offset=".547" stop-color="#E7D7D7"/><stop offset=".563" stop-color="#E7D7D7"/><stop offset=".578" stop-color="#E7D6D6"/><stop offset=".594" stop-color="#E6D6D6"/><stop offset=".609" stop-color="#E6D5D5"/><stop offset=".625" stop-color="#E6D5D5"/><stop offset=".641" stop-color="#E5D4D4"/><stop offset=".656" stop-color="#E5D4D4"/><stop offset=".672" stop-color="#E5D3D3"/><stop offset=".688" stop-color="#E5D3D3"/><stop offset=".703" stop-color="#E4D2D2"/><stop offset=".719" stop-color="#E4D2D2"/><stop offset=".734" stop-color="#E4D1D1"/><stop offset=".75" stop-color="#E3D1D1"/><stop offset=".766" stop-color="#E3D0D0"/><stop offset=".781" stop-color="#E3D0D0"/><stop offset=".797" stop-color="#E2CFCF"/><stop offset=".813" stop-color="#E2CFCF"/><stop offset=".828" stop-color="#E2CECE"/><stop offset=".844" stop-color="#E1CECE"/><stop offset=".859" stop-color="#E1CDCD"/><stop offset=".875" stop-color="#E1CDCD"/><stop offset="1" stop-color="#E1CCCC"/></linearGradient><linearGradient id="h" x1="0" x2="0" y1="17.868" y2="82.132" gradientTransform="matrix(.70148 -.25532 -.19093 -.52455 9.182 125.662)" gradientUnits="userSpaceOnUse"><stop offset="0" stop-color="#E5E5F0"/><stop offset=".125" stop-color="#E5E5F0"/><stop offset=".141" stop-color="#E5E5EF"/><stop offset=".156" stop-color="#E4E4EF"/><stop offset=".172" stop-color="#E4E4EF"/><stop offset=".188" stop-color="#E3E3EE"/><stop offset=".203" stop-color="#E3E3EE"/><stop offset=".219" stop-color="#E2E2EE"/><stop offset=".234" stop-color="#E2E2ED"/><stop offset=".25" stop-color="#E1E1ED"/><stop offset=".266" stop-color="#E1E1ED"/><stop offset=".281" stop-color="#E0E0ED"/><stop offset=".297" stop-color="#E0E0EC"/><stop offset=".313" stop-color="#DFDFEC"/><stop offset=".328" stop-color="#DFDFEC"/><stop offset=".344" stop-color="#DEDEEB"/><stop offset=".359" stop-color="#DEDEEB"/><stop offset=".375" stop-color="#DDDDEB"/><stop offset=".391" stop-color="#DDDDEA"/><stop offset=".406" stop-color="#DCDCEA"/><stop offset=".422" stop-color="#DCDCEA"/><stop offset=".438" stop-color="#DBDBE9"/><stop offset=".453" stop-color="#DBDBE9"/><stop offset=".469" stop-color="#DADAE9"/><stop offset=".484" stop-color="#DADAE9"/><stop offset=".5" stop-color="#D9D9E8"/><stop offset=".516" stop-color="#D8D8E8"/><stop offset=".531" stop-color="#D8D8E8"/><stop offset=".547" stop-color="#D7D7E7"/><stop offset=".563" stop-color="#D7D7E7"/><stop offset=".578" stop-color="#D6D6E7"/><stop offset=".594" stop-color="#D6D6E6"/><stop offset=".609" stop-color="#D5D5E6"/><stop offset=".625" stop-color="#D5D5E6"/><stop offset=".641" stop-color="#D4D4E5"/><stop offset=".656" stop-color="#D4D4E5"/><stop offset=".672" stop-color="#D3D3E5"/><stop offset=".688" stop-color="#D3D3E5"/><stop offset=".703" stop-color="#D2D2E4"/><stop offset=".719" stop-color="#D2D2E4"/><stop offset=".734" stop-color="#D1D1E4"/><stop offset=".75" stop-color="#D1D1E3"/><stop offset=".766" stop-color="#D0D0E3"/><stop offset=".781" stop-color="#D0D0E3"/><stop offset=".797" stop-color="#CFCFE2"/><stop offset=".813" stop-color="#CFCFE2"/><stop offset=".828" stop-color="#CECEE2"/><stop offset=".844" stop-color="#CECEE1"/><stop offset=".859" stop-color="#CDCDE1"/><stop offset=".875" stop-color="#CDCDE1"/><stop offset="1" stop-color="#CCCCE1"/></linearGradient><linearGradient id="l" x1="0" x2="0" y1="17.868" y2="82.132" gradientTransform="matrix(.70933 -.25818 -.19197 -.52742 65.535 125.948)" gradientUnits="userSpaceOnUse"><stop offset="0" stop-color="#E5E5F0"/><stop offset=".125" stop-color="#E5E5F0"/><stop offset=".141" stop-color="#E5E5EF"/><stop offset=".156" stop-color="#E4E4EF"/><stop offset=".172" stop-color="#E4E4EF"/><stop offset=".188" stop-color="#E3E3EE"/><stop offset=".203" stop-color="#E3E3EE"/><stop offset=".219" stop-color="#E2E2EE"/><stop offset=".234" stop-color="#E2E2ED"/><stop offset=".25" stop-color="#E1E1ED"/><stop offset=".266" stop-color="#E1E1ED"/><stop offset=".281" stop-color="#E0E0ED"/><stop offset=".297" stop-color="#E0E0EC"/><stop offset=".313" stop-color="#DFDFEC"/><stop offset=".328" stop-color="#DFDFEC"/><stop offset=".344" stop-color="#DEDEEB"/><stop offset=".359" stop-color="#DEDEEB"/><stop offset=".375" stop-color="#DDDDEB"/><stop offset=".391" stop-color="#DDDDEA"/><stop offset=".406" stop-color="#DCDCEA"/><stop offset=".422" stop-color="#DCDCEA"/><stop offset=".438" stop-color="#DBDBE9"/><stop offset=".453" stop-color="#DBDBE9"/><stop offset=".469" stop-color="#DADAE9"/><stop offset=".484" stop-color="#DADAE9"/><stop offset=".5" stop-color="#D9D9E8"/><stop offset=".516" stop-color="#D8D8E8"/><stop offset=".531" stop-color="#D8D8E8"/><stop offset=".547" stop-color="#D7D7E7"/><stop offset=".563" stop-color="#D7D7E7"/><stop offset=".578" stop-color="#D6D6E7"/><stop offset=".594" stop-color="#D6D6E6"/><stop offset=".609" stop-color="#D5D5E6"/><stop offset=".625" stop-color="#D5D5E6"/><stop offset=".641" stop-color="#D4D4E5"/><stop offset=".656" stop-color="#D4D4E5"/><stop offset=".672" stop-color="#D3D3E5"/><stop offset=".688" stop-color="#D3D3E5"/><stop offset=".703" stop-color="#D2D2E4"/><stop offset=".719" stop-color="#D2D2E4"/><stop offset=".734" stop-color="#D1D1E4"/><stop offset=".75" stop-color="#D1D1E3"/><stop offset=".766" stop-color="#D0D0E3"/><stop offset=".781" stop-color="#D0D0E3"/><stop offset=".797" stop-color="#CFCFE2"/><stop offset=".813" stop-color="#CFCFE2"/><stop offset=".828" stop-color="#CECEE2"/><stop offset=".844" stop-color="#CECEE1"/><stop offset=".859" stop-color="#CDCDE1"/><stop offset=".875" stop-color="#CDCDE1"/><stop offset="1" stop-color="#CCCCE1"/></linearGradient><linearGradient id="p" x1="0" x2="0" y1="17.867" y2="82.133" gradientTransform="matrix(.52808 -.19221 -.16835 -.46252 173.761 76.532)" gradientUnits="userSpaceOnUse"><stop offset="0" stop-color="#F0E5E5"/><stop offset=".125" stop-color="#F0E5E5"/><stop offset=".141" stop-color="#EFE5E5"/><stop offset=".156" stop-color="#EFE4E4"/><stop offset=".172" stop-color="#EFE4E4"/><stop offset=".188" stop-color="#EEE3E3"/><stop offset=".203" stop-color="#EEE3E3"/><stop offset=".219" stop-color="#EEE2E2"/><stop offset=".234" stop-color="#EDE2E2"/><stop offset=".25" stop-color="#EDE1E1"/><stop offset=".266" stop-color="#EDE1E1"/><stop offset=".281" stop-color="#EDE0E0"/><stop offset=".297" stop-color="#ECE0E0"/><stop offset=".313" stop-color="#ECDFDF"/><stop offset=".328" stop-color="#ECDFDF"/><stop offset=".344" stop-color="#EBDEDE"/><stop offset=".359" stop-color="#EBDEDE"/><stop offset=".375" stop-color="#EBDDDD"/><stop offset=".391" stop-color="#EADDDD"/><stop offset=".406" stop-color="#EADCDC"/><stop offset=".422" stop-color="#EADCDC"/><stop offset=".438" stop-color="#E9DBDB"/><stop offset=".453" stop-color="#E9DBDB"/><stop offset=".469" stop-color="#E9DADA"/><stop offset=".484" stop-color="#E9DADA"/><stop offset=".5" stop-color="#E8D9D9"/><stop offset=".516" stop-color="#E8D8D8"/><stop offset=".531" stop-color="#E8D8D8"/><stop offset=".547" stop-color="#E7D7D7"/><stop offset=".563" stop-color="#E7D7D7"/><stop offset=".578" stop-color="#E7D6D6"/><stop offset=".594" stop-color="#E6D6D6"/><stop offset=".609" stop-color="#E6D5D5"/><stop offset=".625" stop-color="#E6D5D5"/><stop offset=".641" stop-color="#E5D4D4"/><stop offset=".656" stop-color="#E5D4D4"/><stop offset=".672" stop-color="#E5D3D3"/><stop offset=".688" stop-color="#E5D3D3"/><stop offset=".703" stop-color="#E4D2D2"/><stop offset=".719" stop-color="#E4D2D2"/><stop offset=".734" stop-color="#E4D1D1"/><stop offset=".75" stop-color="#E3D1D1"/><stop offset=".766" stop-color="#E3D0D0"/><stop offset=".781" stop-color="#E3D0D0"/><stop offset=".797" stop-color="#E2CFCF"/><stop offset=".813" stop-color="#E2CFCF"/><stop offset=".828" stop-color="#E2CECE"/><stop offset=".844" stop-color="#E1CECE"/><stop offset=".859" stop-color="#E1CDCD"/><stop offset=".875" stop-color="#E1CDCD"/><stop offset="1" stop-color="#E1CCCC"/></linearGradient><linearGradient id="t" x1="0" x2="0" y1="17.868" y2="82.132" gradientTransform="matrix(.53594 -.19507 -.16939 -.46539 204.283 76.818)" gradientUnits="userSpaceOnUse"><stop offset="0" stop-color="#F0E5E5"/><stop offset=".125" stop-color="#F0E5E5"/><stop offset=".141" stop-color="#EFE5E5"/><stop offset=".156" stop-color="#EFE4E4"/><stop offset=".172" stop-color="#EFE4E4"/><stop offset=".188" stop-color="#EEE3E3"/><stop offset=".203" stop-color="#EEE3E3"/><stop offset=".219" stop-color="#EEE2E2"/><stop offset=".234" stop-color="#EDE2E2"/><stop offset=".25" stop-color="#EDE1E1"/><stop offset=".266" stop-color="#EDE1E1"/><stop offset=".281" stop-color="#EDE0E0"/><stop offset=".297" stop-color="#ECE0E0"/><stop offset=".313" stop-color="#ECDFDF"/><stop offset=".328" stop-color="#ECDFDF"/><stop offset=".344" stop-color="#EBDEDE"/><stop offset=".359" stop-color="#EBDEDE"/><stop offset=".375" stop-color="#EBDDDD"/><stop offset=".391" stop-color="#EADDDD"/><stop offset=".406" stop-color="#EADCDC"/><stop offset=".422" stop-color="#EADCDC"/><stop offset=".438" stop-color="#E9DBDB"/><stop offset=".453" stop-color="#E9DBDB"/><stop offset=".469" stop-color="#E9DADA"/><stop offset=".484" stop-color="#E9DADA"/><stop offset=".5" stop-color="#E8D9D9"/><stop offset=".516" stop-color="#E8D8D8"/><stop offset=".531" stop-color="#E8D8D8"/><stop offset=".547" stop-color="#E7D7D7"/><stop offset=".563" stop-color="#E7D7D7"/><stop offset=".578" stop-color="#E7D6D6"/><stop offset=".594" stop-color="#E6D6D6"/><stop offset=".609" stop-color="#E6D5D5"/><stop offset=".625" stop-color="#E6D5D5"/><stop offset=".641" stop-color="#E5D4D4"/><stop offset=".656" stop-color="#E5D4D4"/><stop offset=".672" stop-color="#E5D3D3"/><stop offset=".688" stop-color="#E5D3D3"/><stop offset=".703" stop-color="#E4D2D2"/><stop offset=".719" stop-color="#E4D2D2"/><stop offset=".734" stop-color="#E4D1D1"/><stop offset=".75" stop-color="#E3D1D1"/><stop offset=".766" stop-color="#E3D0D0"/><stop offset=".781" stop-color="#E3D0D0"/><stop offset=".797" stop-color="#E2CFCF"/><stop offset=".813" stop-color="#E2CFCF"/><stop offset=".828" stop-color="#E2CECE"/><stop offset=".844" stop-color="#E1CECE"/><stop offset=".859" stop-color="#E1CDCD"/><stop offset=".875" stop-color="#E1CDCD"/><stop offset="1" stop-color="#E1CCCC"/></linearGradient><linearGradient id="x" x1="0" x2="0" y1="17.868" y2="82.132" gradientTransform="matrix(.74104 -.26972 -.19616 -.53895 179.793 127.101)" gradientUnits="userSpaceOnUse"><stop offset="0" stop-color="#E5E5F0"/><stop offset=".125" stop-color="#E5E5F0"/><stop offset=".141" stop-color="#E5E5EF"/><stop offset=".156" stop-color="#E4E4EF"/><stop offset=".172" stop-color="#E4E4EF"/><stop offset=".188" stop-color="#E3E3EE"/><stop offset=".203" stop-color="#E3E3EE"/><stop offset=".219" stop-color="#E2E2EE"/><stop offset=".234" stop-color="#E2E2ED"/><stop offset=".25" stop-color="#E1E1ED"/><stop offset=".266" stop-color="#E1E1ED"/><stop offset=".281" stop-color="#E0E0ED"/><stop offset=".297" stop-color="#E0E0EC"/><stop offset=".313" stop-color="#DFDFEC"/><stop offset=".328" stop-color="#DFDFEC"/><stop offset=".344" stop-color="#DEDEEB"/><stop offset=".359" stop-color="#DEDEEB"/><stop offset=".375" stop-color="#DDDDEB"/><stop offset=".391" stop-color="#DDDDEA"/><stop offset=".406" stop-color="#DCDCEA"/><stop offset=".422" stop-color="#DCDCEA"/><stop offset=".438" stop-color="#DBDBE9"/><stop offset=".453" stop-color="#DBDBE9"/><stop offset=".469" stop-color="#DADAE9"/><stop offset=".484" stop-color="#DADAE9"/><stop offset=".5" stop-color="#D9D9E8"/><stop offset=".516" stop-color="#D8D8E8"/><stop offset=".531" stop-color="#D8D8E8"/><stop offset=".547" stop-color="#D7D7E7"/><stop offset=".563" stop-color="#D7D7E7"/><stop offset=".578" stop-color="#D6D6E7"/><stop offset=".594" stop-color="#D6D6E6"/><stop offset=".609" stop-color="#D5D5E6"/><stop offset=".625" stop-color="#D5D5E6"/><stop offset=".641" stop-color="#D4D4E5"/><stop offset=".656" stop-color="#D4D4E5"/><stop offset=".672" stop-color="#D3D3E5"/><stop offset=".688" stop-color="#D3D3E5"/><stop offset=".703" stop-color="#D2D2E4"/><stop offset=".719" stop-color="#D2D2E4"/><stop offset=".734" stop-color="#D1D1E4"/><stop offset=".75" stop-color="#D1D1E3"/><stop offset=".766" stop-color="#D0D0E3"/><stop offset=".781" stop-color="#D0D0E3"/><stop offset=".797" stop-color="#CFCFE2"/><stop offset=".813" stop-color="#CFCFE2"/><stop offset=".828" stop-color="#CECEE2"/><stop offset=".844" stop-color="#CECEE1"/><stop offset=".859" stop-color="#CDCDE1"/><stop offset=".875" stop-color="#CDCDE1"/><stop offset="1" stop-color="#CCCCE1"/></linearGradient><linearGradient id="B" x1="0" x2="0" y1="17.868" y2="82.132" gradientTransform="matrix(.70148 -.25532 -.19093 -.52455 122.667 125.662)" gradientUnits="userSpaceOnUse"><stop offset="0" stop-color="#E5E5F0"/><stop offset=".125" stop-color="#E5E5F0"/><stop offset=".141" stop-color="#E5E5EF"/><stop offset=".156" stop-color="#E4E4EF"/><stop offset=".172" stop-color="#E4E4EF"/><stop offset=".188" stop-color="#E3E3EE"/><stop offset=".203" stop-color="#E3E3EE"/><stop offset=".219" stop-color="#E2E2EE"/><stop offset=".234" stop-color="#E2E2ED"/><stop offset=".25" stop-color="#E1E1ED"/><stop offset=".266" stop-color="#E1E1ED"/><stop offset=".281" stop-color="#E0E0ED"/><stop offset=".297" stop-color="#E0E0EC"/><stop offset=".313" stop-color="#DFDFEC"/><stop offset=".328" stop-color="#DFDFEC"/><stop offset=".344" stop-color="#DEDEEB"/><stop offset=".359" stop-color="#DEDEEB"/><stop offset=".375" stop-color="#DDDDEB"/><stop offset=".391" stop-color="#DDDDEA"/><stop offset=".406" stop-color="#DCDCEA"/><stop offset=".422" stop-color="#DCDCEA"/><stop offset=".438" stop-color="#DBDBE9"/><stop offset=".453" stop-color="#DBDBE9"/><stop offset=".469" stop-color="#DADAE9"/><stop offset=".484" stop-color="#DADAE9"/><stop offset=".5" stop-color="#D9D9E8"/><stop offset=".516" stop-color="#D8D8E8"/><stop offset=".531" stop-color="#D8D8E8"/><stop offset=".547" stop-color="#D7D7E7"/><stop offset=".563" stop-color="#D7D7E7"/><stop offset=".578" stop-color="#D6D6E7"/><stop offset=".594" stop-color="#D6D6E6"/><stop offset=".609" stop-color="#D5D5E6"/><stop offset=".625" stop-color="#D5D5E6"/><stop offset=".641" stop-color="#D4D4E5"/><stop offset=".656" stop-color="#D4D4E5"/><stop offset=".672" stop-color="#D3D3E5"/><stop offset=".688" stop-color="#D3D3E5"/><stop offset=".703" stop-color="#D2D2E4"/><stop offset=".719" stop-color="#D2D2E4"/><stop offset=".734" stop-color="#D1D1E4"/><stop offset=".75" stop-color="#D1D1E3"/><stop offset=".766" stop-color="#D0D0E3"/><stop offset=".781" stop-color="#D0D0E3"/><stop offset=".797" stop-color="#CFCFE2"/><stop offset=".813" stop-color="#CFCFE2"/><stop offset=".828" stop-color="#CECEE2"/><stop offset=".844" stop-color="#CECEE1"/><stop offset=".859" stop-color="#CDCDE1"/><stop offset=".875" stop-color="#CDCDE1"/><stop offset="1" stop-color="#CCCCE1"/></linearGradient><linearGradient id="F" x1="0" x2="0" y1="17.868" y2="82.132" gradientTransform="matrix(.70933 -.25818 -.19197 -.52742 240.296 125.948)" gradientUnits="userSpaceOnUse"><stop offset="0" stop-color="#E5E5F0"/><stop offset=".125" stop-color="#E5E5F0"/><stop offset=".141" stop-color="#E5E5EF"/><stop offset=".156" stop-color="#E4E4EF"/><stop offset=".172" stop-color="#E4E4EF"/><stop offset=".188" stop-color="#E3E3EE"/><stop offset=".203" stop-color="#E3E3EE"/><stop offset=".219" stop-color="#E2E2EE"/><stop offset=".234" stop-color="#E2E2ED"/><stop offset=".25" stop-color="#E1E1ED"/><stop offset=".266" stop-color="#E1E1ED"/><stop offset=".281" stop-color="#E0E0ED"/><stop offset=".297" stop-color="#E0E0EC"/><stop offset=".313" stop-color="#DFDFEC"/><stop offset=".328" stop-color="#DFDFEC"/><stop offset=".344" stop-color="#DEDEEB"/><stop offset=".359" stop-color="#DEDEEB"/><stop offset=".375" stop-color="#DDDDEB"/><stop offset=".391" stop-color="#DDDDEA"/><stop offset=".406" stop-color="#DCDCEA"/><stop offset=".422" stop-color="#DCDCEA"/><stop offset=".438" stop-color="#DBDBE9"/><stop offset=".453" stop-color="#DBDBE9"/><stop offset=".469" stop-color="#DADAE9"/><stop offset=".484" stop-color="#DADAE9"/><stop offset=".5" stop-color="#D9D9E8"/><stop offset=".516" stop-color="#D8D8E8"/><stop offset=".531" stop-color="#D8D8E8"/><stop offset=".547" stop-color="#D7D7E7"/><stop offset=".563" stop-color="#D7D7E7"/><stop offset=".578" stop-color="#D6D6E7"/><stop offset=".594" stop-color="#D6D6E6"/><stop offset=".609" stop-color="#D5D5E6"/><stop offset=".625" stop-color="#D5D5E6"/><stop offset=".641" stop-color="#D4D4E5"/><stop offset=".656" stop-color="#D4D4E5"/><stop offset=".672" stop-color="#D3D3E5"/><stop offset=".688" stop-color="#D3D3E5"/><stop offset=".703" stop-color="#D2D2E4"/><stop offset=".719" stop-color="#D2D2E4"/><stop offset=".734" stop-color="#D1D1E4"/><stop offset=".75" stop-color="#D1D1E3"/><stop offset=".766" stop-color="#D0D0E3"/><stop offset=".781" stop-color="#D0D0E3"/><stop offset=".797" stop-color="#CFCFE2"/><stop offset=".813" stop-color="#CFCFE2"/><stop offset=".828" stop-color="#CECEE2"/><stop offset=".844" stop-color="#CECEE1"/><stop offset=".859" stop-color="#CDCDE1"/><stop offset=".875" stop-color="#CDCDE1"/><stop offset="1" stop-color="#CCCCE1"/></linearGradient></defs><path d="M49.306 15.9h-.468c-.032.203-.125.844-.266.906-.11.063-.86.063-1.016.063h-1.468c.468-.39 1-.813 1.437-1.14 1.14-.844 1.781-1.313 1.781-2.25 0-1.157-1.047-1.891-2.437-1.891-1.219 0-2.156.625-2.156 1.515 0 .594.484.735.718.735.328 0 .72-.219.72-.719 0-.516-.423-.672-.563-.719.28-.234.671-.344 1.03-.344.845 0 1.313.672 1.313 1.422 0 .688-.375 1.375-1.078 2.078l-2 2.047c-.14.11-.14.141-.14.344v.172h4.28zm3.744.485v-.97h-3.046v.97zm6.77 1.734v-.469h-.688v-2.578c0-1.047-.532-1.437-1.532-1.437-.953 0-1.484.562-1.75 1.078v-1.078l-1.703.078v.468c.61 0 .688 0 .688.391v3.078h-.688v.469l1.25-.031 1.25.031v-.469h-.687v-2.078c0-1.094.86-1.578 1.5-1.578.328 0 .547.203.547.969v2.687h-.688v.469l1.25-.031zm5.647-2.172c0-1.344-.922-2.344-2.547-2.344-1.64 0-2.547 1.016-2.547 2.344 0 1.234.89 2.234 2.547 2.234 1.672 0 2.547-1.015 2.547-2.234zm-1.282-.11c0 .86 0 1.938-1.265 1.938-1.266 0-1.266-1.078-1.266-1.937 0-.453 0-.953.172-1.297.187-.375.61-.578 1.094-.578.422 0 .843.156 1.062.5.203.343.203.89.203 1.375Zm7.907 2.282v-.469c-.61 0-.687 0-.687-.39v-6.063l-1.766.078v.469c.625 0 .703 0 .703.39v1.954a2.178 2.178 0 0 0-1.36-.453c-1.452 0-2.5.875-2.5 2.28 0 1.313.923 2.266 2.391 2.266.61 0 1.094-.234 1.407-.484v.484Zm-1.812-1.031c-.141.187-.547.734-1.297.734-1.22 0-1.22-1.203-1.22-1.906 0-.485 0-1.016.25-1.406.298-.422.767-.516 1.079-.516.563 0 .969.312 1.188.61zm7.116-.141c0-.172-.188-.172-.235-.172-.172 0-.187.047-.25.203-.203.485-.781.797-1.422.797-1.406 0-1.422-1.328-1.422-1.828h3.016c.219 0 .313 0 .313-.266 0-.312-.063-1.046-.563-1.546-.36-.36-.89-.532-1.578-.532-1.594 0-2.469 1.032-2.469 2.266 0 1.344 1 2.312 2.61 2.312 1.578 0 2-1.062 2-1.234zm-.938-1.328h-2.39c.015-.39.03-.813.234-1.14.265-.391.672-.516.953-.516 1.172 0 1.187 1.312 1.203 1.656zm5.407 1.109c0-.437-.203-.78-.547-1.062-.39-.281-.719-.344-1.485-.485-.375-.062-1.015-.171-1.015-.64 0-.625.922-.625 1.11-.625.75 0 1.124.297 1.171.844.016.156.031.203.234.203.235 0 .235-.047.235-.282v-.796c0-.188 0-.282-.172-.282-.047 0-.063 0-.453.188-.266-.125-.61-.188-1-.188-.313 0-1.844 0-1.844 1.313 0 .39.203.656.406.828.39.344.782.406 1.547.547.36.062 1.094.187 1.094.781 0 .75-.906.75-1.125.75-1.063 0-1.313-.734-1.438-1.156-.046-.14-.109-.14-.234-.14-.25 0-.25.062-.25.28V17.9c0 .188 0 .281.188.281.062 0 .078 0 .296-.156l.25-.172c.47.328.985.328 1.188.328.312 0 1.844 0 1.844-1.453zm111.659-.406c0-.547-.297-1.406-1.734-1.719.687-.203 1.406-.765 1.406-1.625 0-.765-.75-1.39-2.156-1.39-1.188 0-1.97.64-1.97 1.437 0 .422.313.703.688.703a.668.668 0 0 0 .704-.687c0-.578-.547-.688-.579-.703.344-.282.782-.36 1.094-.36.828 0 .86.641.86.97 0 .124-.016 1.437-1.047 1.5-.407.015-.438.015-.485.03-.093.016-.125.11-.125.172 0 .172.11.172.282.172h.437c1.094 0 1.094.984 1.094 1.5 0 .469 0 1.484-1.031 1.484-.266 0-.782-.046-1.266-.343.328-.094.578-.344.578-.75 0-.453-.312-.75-.75-.75-.422 0-.766.265-.766.765 0 .907.97 1.5 2.25 1.5 1.782 0 2.516-1 2.516-1.906zm3.65.063v-.97h-3.046v.97zm6.769 1.734v-.469h-.687v-2.578c0-1.047-.532-1.437-1.532-1.437-.953 0-1.484.562-1.75 1.078v-1.078l-1.703.078v.468c.61 0 .688 0 .688.391v3.078h-.688v.469l1.25-.031 1.25.031v-.469h-.687v-2.078c0-1.094.86-1.578 1.5-1.578.328 0 .547.203.547.969v2.687h-.688v.469l1.25-.031zm5.647-2.172c0-1.344-.921-2.344-2.546-2.344-1.64 0-2.547 1.016-2.547 2.344 0 1.234.89 2.234 2.547 2.234 1.672 0 2.547-1.015 2.547-2.234zm-1.28-.11c0 .86 0 1.938-1.266 1.938s-1.266-1.078-1.266-1.937c0-.453 0-.953.172-1.297.187-.375.61-.578 1.094-.578.422 0 .843.156 1.062.5.203.343.203.89.203 1.375Zm7.896 2.282v-.469c-.61 0-.687 0-.687-.39v-6.063l-1.766.078v.469c.625 0 .703 0 .703.39v1.954a2.178 2.178 0 0 0-1.36-.453c-1.452 0-2.5.875-2.5 2.28 0 1.313.923 2.266 2.391 2.266.61 0 1.094-.234 1.407-.484v.484Zm-1.812-1.031c-.141.187-.547.734-1.297.734-1.22 0-1.22-1.203-1.22-1.906 0-.485 0-1.016.25-1.406.298-.422.767-.516 1.079-.516.563 0 .969.312 1.188.61zm7.116-.141c0-.172-.188-.172-.235-.172-.172 0-.187.047-.25.203-.203.485-.781.797-1.422.797-1.406 0-1.421-1.328-1.421-1.828h3.015c.219 0 .313 0 .313-.266 0-.312-.063-1.046-.563-1.546-.36-.36-.89-.532-1.578-.532-1.594 0-2.469 1.032-2.469 2.266 0 1.344 1 2.312 2.61 2.312 1.578 0 2-1.062 2-1.234zm-.938-1.328h-2.39c.015-.39.03-.813.234-1.14.266-.391.672-.516.953-.516 1.172 0 1.188 1.312 1.203 1.656zm5.407 1.109c0-.437-.203-.78-.547-1.062-.39-.281-.719-.344-1.485-.485-.375-.062-1.015-.171-1.015-.64 0-.625.922-.625 1.11-.625.75 0 1.124.297 1.171.844.016.156.031.203.234.203.235 0 .235-.047.235-.282v-.796c0-.188 0-.282-.172-.282-.047 0-.063 0-.453.188-.266-.125-.61-.188-1-.188-.313 0-1.844 0-1.844 1.313 0 .39.203.656.406.828.39.344.782.406 1.547.547.36.062 1.094.187 1.094.781 0 .75-.906.75-1.125.75-1.063 0-1.313-.734-1.438-1.156-.046-.14-.109-.14-.234-.14-.25 0-.25.062-.25.28V17.9c0 .188 0 .281.188.281.062 0 .078 0 .296-.156l.25-.172c.47.328.985.328 1.188.328.312 0 1.844 0 1.844-1.453zm0 0"/><path fill="#F0E5E5" d="M80.063 43.797c0-9.395-7.614-17.012-17.008-17.012-9.39 0-17.008 7.617-17.008 17.012 0 9.39 7.617 17.008 17.008 17.008 9.394 0 17.008-7.617 17.008-17.008Zm0 0"/><g clip-path="url(#a)"><g clip-path="url(#b)"><g clip-path="url(#c)"><path fill="url(#d)" d="m50.027 71.734-14.91-40.968 40.969-14.91 14.91 40.968Zm0 0"/></g></g></g><path fill="none" stroke="#000" stroke-miterlimit="10" stroke-width=".399" d="M80.063 43.797c0-9.395-7.614-17.012-17.008-17.012-9.39 0-17.008 7.617-17.008 17.012 0 9.39 7.617 17.008 17.008 17.008 9.394 0 17.008-7.617 17.008-17.008Zm0 0"/><path d="m58.253 42.058 1.797-1.734a2.17 2.17 0 0 1 1.422-.594v-.313c-.265.032-.578.032-.86.032-.359 0-.921 0-1.265-.032v.313c.406.016.469.234.469.328 0 .156-.11.266-.188.328l-3.109 2.985v-3.172c0-.36.016-.469.781-.469h.235v-.313c-.344.032-1.078.032-1.47.032-.374 0-1.124 0-1.468-.032v.313h.235c.765 0 .796.11.796.469v5.25c0 .36-.03.468-.796.468h-.235v.313c.344-.031 1.094-.031 1.469-.031s1.125 0 1.469.031v-.313H57.3c-.765 0-.78-.109-.78-.468v-1.735l1.155-1.109 1.797 2.672c.063.094.156.219.156.344 0 .296-.39.296-.593.296v.313c.343-.031 1.047-.031 1.422-.031.359 0 .734.015 1.156.031v-.313c-.547 0-.75-.03-1.047-.468zm4.867 1.656c.062-1.484.906-1.734 1.25-1.734 1.015 0 1.124 1.344 1.124 1.734zm0 .22h2.78c.22 0 .25 0 .25-.22 0-.984-.546-1.953-1.78-1.953-1.157 0-2.079 1.031-2.079 2.281 0 1.329 1.047 2.297 2.188 2.297 1.219 0 1.672-1.109 1.672-1.297 0-.093-.078-.125-.141-.125-.078 0-.11.063-.125.141-.344 1.031-1.25 1.031-1.344 1.031-.5 0-.89-.297-1.125-.672-.297-.468-.297-1.125-.297-1.484zm7.454-1.048c.25-.64.766-.64.922-.64v-.313c-.234.016-.516.031-.75.031-.172 0-.64-.015-.86-.03v.312c.313 0 .47.171.47.421 0 .11-.016.125-.063.25l-1.016 2.438-1.094-2.672c-.046-.11-.062-.14-.062-.187 0-.25.36-.25.562-.25v-.313c-.265.016-.921.031-1.093.031-.266 0-.672-.015-.97-.03v.312c.485 0 .673 0 .813.343l1.5 3.641a6.764 6.764 0 0 0-.25.594c-.218.547-.5 1.234-1.14 1.234-.047 0-.281 0-.469-.187.313-.032.39-.25.39-.422 0-.25-.187-.407-.421-.407-.203 0-.422.125-.422.422 0 .453.422.813.922.813.625 0 1.031-.578 1.265-1.14zm0 0"/><path fill="#E5E5F0" d="M13.293 90.875v-8.414a7.088 7.088 0 0 1 7.086-7.086h28.66a7.085 7.085 0 0 1 7.086 7.086v8.414a7.085 7.085 0 0 1-7.086 7.086H20.38a7.088 7.088 0 0 1-7.086-7.086Zm0 0"/><g clip-path="url(#e)"><g clip-path="url(#f)"><g clip-path="url(#g)"><path fill="url(#h)" d="M18.305 111.727 6.035 78.016l45.078-16.407 12.27 33.711Zm0 0"/></g></g></g><path fill="none" stroke="#000" stroke-miterlimit="10" stroke-width=".399" d="M13.293 90.875v-8.414a7.088 7.088 0 0 1 7.086-7.086h28.66a7.085 7.085 0 0 1 7.086 7.086v8.414a7.085 7.085 0 0 1-7.086 7.086H20.38a7.088 7.088 0 0 1-7.086-7.086Zm0 0"/><path d="M22.694 82.708c-.094-.125-.094-.14-.282-.14H20.71v.312h.297c.14 0 .344.016.484.016.235.03.25.046.25.234v5.203c0 .266 0 .734-1.03.734v.313c.343-.016.843-.031 1.171-.031.328 0 .813.015 1.156.031v-.313c-1.015 0-1.015-.468-1.015-.734v-5.187c.047.046.047.062.093.125l4.063 5.984c.094.11.11.125.172.125.14 0 .14-.063.14-.266v-5.5c0-.265 0-.734 1.032-.734v-.313c-.36.016-.844.032-1.172.032-.328 0-.813-.016-1.156-.032v.313c1.015 0 1.015.469 1.015.734v4.266Zm9.846 4.532c0-1.266-.984-2.329-2.187-2.329-1.25 0-2.219 1.094-2.219 2.328a2.22 2.22 0 0 0 2.203 2.25c1.204 0 2.204-.984 2.204-2.25zm-2.187 2c-.437 0-.875-.204-1.14-.673-.25-.437-.25-1.046-.25-1.406 0-.39 0-.922.234-1.36a1.347 1.347 0 0 1 1.14-.671c.438 0 .86.219 1.125.656.266.422.266 1 .266 1.375 0 .36 0 .906-.219 1.344-.234.453-.672.734-1.156.734Zm6.532-.407v.656l1.468-.109v-.313c-.687 0-.78-.062-.78-.562v-6.047l-1.423.11v.312c.688 0 .766.062.766.562V85.6a1.582 1.582 0 0 0-1.25-.625c-1.172 0-2.219.984-2.219 2.265 0 1.266.969 2.25 2.11 2.25.64 0 1.078-.343 1.328-.656zm0-2.672v2.047c0 .172 0 .188-.11.36-.297.484-.734.703-1.172.703-.453 0-.812-.266-1.047-.641-.25-.406-.28-.969-.28-1.39 0-.36.015-.954.296-1.407.219-.312.594-.64 1.14-.64.344 0 .766.156 1.063.593.11.172.11.188.11.375zm2.857.703c.062-1.484.906-1.734 1.25-1.734 1.016 0 1.125 1.344 1.125 1.734zm0 .22h2.781c.219 0 .25 0 .25-.22 0-.984-.547-1.953-1.781-1.953-1.156 0-2.078 1.031-2.078 2.281 0 1.329 1.047 2.297 2.187 2.297 1.219 0 1.672-1.109 1.672-1.297 0-.093-.078-.125-.14-.125-.079 0-.11.063-.125.141-.344 1.031-1.25 1.031-1.344 1.031-.5 0-.89-.297-1.125-.672-.297-.468-.297-1.125-.297-1.484zm6.208-.397c.062-.25.077-.329.718-.329.219 0 .281 0 .281-.14 0-.016 0-.11-.11-.11a6.07 6.07 0 0 0-.515.032h-1.047c-.14 0-.312-.032-.453-.032-.031 0-.14 0-.14.157 0 .093.078.093.218.093.016 0 .14 0 .266.016.156.016.172.031.172.11 0 0 0 .046-.032.14l-.937 3.703c-.063.235-.078.297-.61.297-.109 0-.203 0-.203.14 0 .11.079.11.204.11h3.5c.187 0 .187 0 .25-.14.062-.188.593-1.532.593-1.594 0-.016-.015-.094-.125-.094-.078 0-.093.031-.14.14-.266.657-.578 1.438-1.844 1.438h-.797c-.203 0-.219-.016-.219-.078 0 0 0-.031.032-.14zm0 0"/><path fill="#E5E5F0" d="M69.703 90.875v-8.414a7.085 7.085 0 0 1 7.086-7.086h29.227a7.088 7.088 0 0 1 7.09 7.086v8.414a7.088 7.088 0 0 1-7.09 7.086H76.789a7.085 7.085 0 0 1-7.086-7.086Zm0 0"/><g clip-path="url(#i)"><g clip-path="url(#j)"><g clip-path="url(#k)"><path fill="url(#l)" d="M74.777 111.91 62.441 78.016l45.586-16.59 12.336 33.894Zm0 0"/></g></g></g><path fill="none" stroke="#000" stroke-miterlimit="10" stroke-width=".399" d="M69.703 90.875v-8.414a7.085 7.085 0 0 1 7.086-7.086h29.227a7.088 7.088 0 0 1 7.09 7.086v8.414a7.088 7.088 0 0 1-7.09 7.086H76.789a7.085 7.085 0 0 1-7.086-7.086Zm0 0"/><path d="M79.1 82.708c-.093-.125-.093-.14-.28-.14h-1.704v.312h.297c.14 0 .344.016.484.016.235.03.25.046.25.234v5.203c0 .266 0 .734-1.03.734v.313c.343-.016.843-.031 1.171-.031.328 0 .813.015 1.156.031v-.313c-1.015 0-1.015-.468-1.015-.734v-5.187c.047.046.047.062.093.125l4.063 5.984c.094.11.11.125.172.125.14 0 .14-.063.14-.266v-5.5c0-.265 0-.734 1.032-.734v-.313c-.36.016-.844.032-1.172.032-.328 0-.813-.016-1.156-.032v.313c1.015 0 1.015.469 1.015.734v4.266Zm9.848 4.532c0-1.266-.985-2.329-2.188-2.329-1.25 0-2.219 1.094-2.219 2.328a2.22 2.22 0 0 0 2.203 2.25c1.204 0 2.204-.984 2.204-2.25zm-2.188 2c-.437 0-.875-.204-1.14-.673-.25-.437-.25-1.046-.25-1.406 0-.39 0-.922.234-1.36a1.347 1.347 0 0 1 1.14-.671c.438 0 .86.219 1.125.656.266.422.266 1 .266 1.375 0 .36 0 .906-.219 1.344-.234.453-.672.734-1.156.734Zm6.532-.407v.656l1.468-.109v-.313c-.687 0-.781-.062-.781-.562v-6.047l-1.422.11v.312c.688 0 .766.062.766.562V85.6a1.582 1.582 0 0 0-1.25-.625c-1.172 0-2.219.984-2.219 2.265 0 1.266.969 2.25 2.11 2.25.64 0 1.078-.343 1.328-.656zm0-2.672v2.047c0 .172 0 .188-.11.36-.297.484-.734.703-1.172.703-.453 0-.812-.266-1.047-.641-.25-.406-.28-.969-.28-1.39 0-.36.015-.954.296-1.407.219-.312.594-.64 1.14-.64.344 0 .766.156 1.063.593.11.172.11.188.11.375zm2.857.703c.062-1.484.906-1.734 1.25-1.734 1.016 0 1.125 1.344 1.125 1.734zm0 .22h2.781c.219 0 .25 0 .25-.22 0-.984-.547-1.953-1.781-1.953-1.156 0-2.078 1.031-2.078 2.281 0 1.329 1.047 2.297 2.187 2.297 1.219 0 1.672-1.109 1.672-1.297 0-.093-.078-.125-.14-.125-.079 0-.11.063-.125.141-.344 1.031-1.25 1.031-1.344 1.031-.5 0-.89-.297-1.125-.672-.297-.468-.297-1.125-.297-1.484zm6.207-.476c.047-.203.063-.218.219-.25h.453c.64 0 1.437 0 1.437.72 0 .296-.125.734-.453.984-.28.218-.718.328-1.203.328h-.89Zm1.266 1.891c.828-.187 1.562-.687 1.562-1.312 0-.594-.703-1.079-1.719-1.079h-2.14c-.125 0-.219 0-.219.157 0 .093.078.093.219.093.015 0 .14 0 .265.016.157.016.157.031.157.11 0 0 0 .046-.016.14l-.937 3.703c-.047.235-.063.297-.61.297-.125 0-.203 0-.203.14 0 .079.047.11.11.11.124 0 .296-.016.421-.016.14 0 .344-.015.47-.015.14 0 .296.015.437.015.156 0 .328.016.468.016.047 0 .157 0 .157-.14 0-.11-.079-.11-.235-.11-.11 0-.14 0-.265-.016-.157-.015-.157-.03-.157-.109 0 0 0-.047.032-.14l.437-1.766h.953c.594 0 .86.297.86.625 0 .094-.063.328-.11.484-.078.328-.11.422-.11.547 0 .547.516.766 1.032.766.64 0 .922-.688.922-.813 0-.015-.016-.094-.125-.094-.094 0-.11.047-.125.125-.094.297-.36.579-.64.579-.188 0-.329-.063-.329-.454 0-.171.047-.53.078-.718.032-.188.032-.25.032-.328 0-.079 0-.313-.204-.516-.125-.14-.312-.234-.468-.297Zm0 0"/><path fill="none" stroke="#4384A1" stroke-linecap="round" stroke-miterlimit="10" stroke-width=".797" d="m51.523 56.563-15.078 16.69"/><path fill="#4384A1" d="m34.71 75.176 4.313-1.688-2.578-.234-.496-2.543"/><path fill="none" stroke="#4384A1" stroke-linecap="round" stroke-miterlimit="10" stroke-width=".797" d="m74.59 56.563 15.078 16.69"/><path fill="#4384A1" d="m91.402 75.176-1.238-4.465-.496 2.543-2.582.234"/><path fill="#E5E5F0" d="M176.66 43.797v-.004c0-6.262 5.074-11.336 11.336-11.336h18.84v22.676h-18.84c-6.262 0-11.336-5.074-11.336-11.336Zm0 0"/><g clip-path="url(#m)"><g clip-path="url(#n)"><g clip-path="url(#o)"><path fill="url(#p)" d="M180.188 64.832 169.37 35.109l33.938-12.351 10.816 29.722Zm0 0"/></g></g></g><path fill="none" stroke="#000" stroke-miterlimit="10" stroke-width=".399" d="M176.66 43.797v-.004c0-6.262 5.074-11.336 11.336-11.336h18.84v22.676h-18.84c-6.262 0-11.336-5.074-11.336-11.336Zm0 0"/><path d="m183.963 41.81 1.797-1.735a2.17 2.17 0 0 1 1.422-.594v-.313c-.265.032-.578.032-.86.032-.359 0-.921 0-1.265-.032v.313c.406.016.469.234.469.328 0 .156-.11.266-.188.328l-3.109 2.985V39.95c0-.36.016-.469.781-.469h.235v-.313c-.344.032-1.078.032-1.47.032-.374 0-1.124 0-1.468-.032v.313h.235c.765 0 .796.11.796.469v5.25c0 .36-.03.468-.796.468h-.235v.313c.344-.031 1.094-.031 1.469-.031s1.125 0 1.469.031v-.313h-.235c-.765 0-.78-.109-.78-.468v-1.735l1.155-1.109 1.797 2.672c.063.094.156.219.156.344 0 .296-.39.296-.593.296v.313c.343-.031 1.047-.031 1.422-.031.359 0 .734.015 1.156.031v-.313c-.547 0-.75-.03-1.047-.468zm4.867 1.655c.062-1.484.906-1.734 1.25-1.734 1.015 0 1.124 1.344 1.124 1.734zm0 .22h2.78c.22 0 .25 0 .25-.22 0-.984-.546-1.953-1.78-1.953-1.157 0-2.079 1.031-2.079 2.281 0 1.329 1.047 2.297 2.188 2.297 1.219 0 1.672-1.109 1.672-1.297 0-.093-.078-.125-.141-.125-.078 0-.11.063-.125.141-.344 1.031-1.25 1.031-1.344 1.031-.5 0-.89-.297-1.125-.672-.297-.468-.297-1.125-.297-1.484zm7.454-1.048c.25-.64.766-.64.922-.64v-.313c-.234.016-.516.031-.75.031-.172 0-.64-.015-.86-.03v.312c.313 0 .47.171.47.421 0 .11-.016.125-.063.25l-1.016 2.438-1.094-2.672c-.046-.11-.062-.14-.062-.187 0-.25.36-.25.562-.25v-.313c-.265.016-.921.031-1.093.031-.266 0-.672-.015-.97-.03v.312c.485 0 .673 0 .813.343l1.5 3.641a6.764 6.764 0 0 0-.25.594c-.218.547-.5 1.234-1.14 1.234-.047 0-.281 0-.469-.187.313-.032.39-.25.39-.422 0-.25-.187-.407-.421-.407-.203 0-.422.125-.422.422 0 .453.422.813.922.813.625 0 1.031-.578 1.265-1.14zm4.143 1.591c.063-.25.078-.328.719-.328.219 0 .281 0 .281-.14 0-.016 0-.11-.11-.11a6.07 6.07 0 0 0-.515.032h-1.047c-.14 0-.312-.032-.453-.032-.031 0-.14 0-.14.157 0 .093.078.093.218.093.016 0 .14 0 .266.016.156.016.172.031.172.11 0 0 0 .046-.032.14l-.937 3.703c-.063.234-.078.297-.61.297-.109 0-.203 0-.203.14 0 .11.079.11.204.11h3.5c.187 0 .187 0 .25-.14.062-.188.593-1.532.593-1.594 0-.016-.015-.094-.125-.094-.078 0-.093.031-.14.14-.266.657-.578 1.438-1.844 1.438h-.797c-.203 0-.219-.016-.219-.078 0 0 0-.031.032-.14zm0 0"/><path fill="#F0E5E5" d="M207.234 55.133V32.457h19.414c6.262 0 11.336 5.074 11.336 11.336v.004c0 6.262-5.074 11.336-11.336 11.336Zm0 0"/><g clip-path="url(#q)"><g clip-path="url(#r)"><g clip-path="url(#s)"><path fill="url(#t)" d="m210.832 65.016-10.887-29.907 34.442-12.535 10.886 29.906Zm0 0"/></g></g></g><path fill="none" stroke="#000" stroke-miterlimit="10" stroke-width=".399" d="M207.234 55.133V32.457h19.414c6.262 0 11.336 5.074 11.336 11.336v.004c0 6.262-5.074 11.336-11.336 11.336Zm0 0"/><path d="m214.54 41.81 1.797-1.735a2.17 2.17 0 0 1 1.422-.594v-.313c-.265.032-.578.032-.86.032-.359 0-.921 0-1.265-.032v.313c.406.016.469.234.469.328 0 .156-.11.266-.188.328l-3.109 2.985V39.95c0-.36.016-.469.781-.469h.235v-.313c-.344.032-1.078.032-1.47.032-.374 0-1.124 0-1.468-.032v.313h.235c.765 0 .796.11.796.469v5.25c0 .36-.03.468-.796.468h-.235v.313c.344-.031 1.094-.031 1.469-.031s1.125 0 1.469.031v-.313h-.235c-.765 0-.78-.109-.78-.468v-1.735l1.155-1.109 1.797 2.672c.063.094.156.219.156.344 0 .296-.39.296-.593.296v.313c.343-.031 1.047-.031 1.422-.031.359 0 .734.015 1.156.031v-.313c-.547 0-.75-.03-1.047-.468zm4.866 1.655c.063-1.484.907-1.734 1.25-1.734 1.016 0 1.125 1.344 1.125 1.734zm0 .22h2.782c.218 0 .25 0 .25-.22 0-.984-.547-1.953-1.782-1.953-1.156 0-2.078 1.031-2.078 2.281 0 1.329 1.047 2.297 2.188 2.297 1.219 0 1.672-1.109 1.672-1.297 0-.093-.078-.125-.141-.125-.078 0-.11.063-.125.141-.344 1.031-1.25 1.031-1.344 1.031-.5 0-.89-.297-1.125-.672-.297-.468-.297-1.125-.297-1.484zm7.455-1.048c.25-.64.766-.64.922-.64v-.313c-.234.016-.516.031-.75.031-.172 0-.64-.015-.86-.03v.312c.313 0 .47.171.47.421 0 .11-.016.125-.063.25l-1.016 2.438-1.094-2.672c-.046-.11-.062-.14-.062-.187 0-.25.36-.25.562-.25v-.313c-.265.016-.921.031-1.093.031-.266 0-.672-.015-.97-.03v.312c.485 0 .673 0 .813.343l1.5 3.641a6.764 6.764 0 0 0-.25.594c-.218.547-.5 1.234-1.14 1.234-.047 0-.281 0-.469-.187.313-.032.39-.25.39-.422 0-.25-.187-.407-.421-.407-.203 0-.422.125-.422.422 0 .453.422.813.922.813.625 0 1.031-.578 1.265-1.14zm4.143 1.513c.047-.203.063-.218.219-.25h.453c.64 0 1.437 0 1.437.72 0 .296-.125.733-.453.983-.28.22-.718.329-1.203.329h-.89Zm1.266 1.891c.828-.188 1.562-.688 1.562-1.313 0-.593-.703-1.078-1.719-1.078h-2.14c-.125 0-.219 0-.219.157 0 .093.078.093.219.093.015 0 .14 0 .265.016.157.016.157.031.157.11 0 0 0 .046-.016.14l-.937 3.703c-.047.234-.063.297-.61.297-.125 0-.203 0-.203.14 0 .079.047.11.11.11.124 0 .296-.016.421-.016.14 0 .344-.015.47-.015.14 0 .296.015.437.015.156 0 .328.016.468.016.047 0 .157 0 .157-.14 0-.11-.079-.11-.235-.11-.11 0-.14 0-.265-.016-.157-.015-.157-.03-.157-.109 0 0 0-.047.032-.14l.437-1.766h.953c.594 0 .86.297.86.625 0 .093-.063.328-.11.484-.078.328-.11.422-.11.547 0 .547.516.766 1.032.766.64 0 .922-.688.922-.813 0-.016-.016-.094-.125-.094-.094 0-.11.047-.125.125-.094.297-.36.578-.64.578-.188 0-.329-.062-.329-.453 0-.172.047-.53.078-.718.032-.188.032-.25.032-.329 0-.078 0-.312-.204-.515-.125-.14-.312-.235-.468-.297Zm0 0"/><path fill="#E5E5F0" d="M184.18 90.875v-8.414a7.088 7.088 0 0 1 7.09-7.086h31.535a7.085 7.085 0 0 1 7.086 7.086v8.414a7.085 7.085 0 0 1-7.086 7.086H191.27a7.088 7.088 0 0 1-7.09-7.086Zm0 0"/><g clip-path="url(#u)"><g clip-path="url(#v)"><g clip-path="url(#w)"><path fill="url(#x)" d="m189.527 112.652-12.605-34.636 47.621-17.332 12.61 34.636Zm0 0"/></g></g></g><path fill="none" stroke="#000" stroke-miterlimit="10" stroke-width=".399" d="M184.18 90.875v-8.414a7.088 7.088 0 0 1 7.09-7.086h31.535a7.085 7.085 0 0 1 7.086 7.086v8.414a7.085 7.085 0 0 1-7.086 7.086H191.27a7.088 7.088 0 0 1-7.09-7.086Zm0 0"/><path d="M193.58 82.708c-.093-.125-.093-.14-.28-.14h-1.704v.312h.297c.14 0 .344.016.484.016.235.03.25.046.25.234v5.203c0 .266 0 .734-1.03.734v.313c.343-.016.843-.031 1.171-.031.328 0 .813.015 1.156.031v-.313c-1.015 0-1.015-.468-1.015-.734v-5.187c.047.046.047.062.093.125l4.063 5.984c.094.11.11.125.172.125.14 0 .14-.063.14-.266v-5.5c0-.265 0-.734 1.032-.734v-.313c-.36.016-.844.032-1.172.032-.328 0-.813-.016-1.156-.032v.313c1.015 0 1.015.469 1.015.734v4.266Zm9.848 4.532c0-1.266-.985-2.329-2.188-2.329-1.25 0-2.219 1.094-2.219 2.328a2.22 2.22 0 0 0 2.203 2.25c1.204 0 2.204-.984 2.204-2.25zm-2.188 2c-.437 0-.875-.204-1.14-.673-.25-.437-.25-1.046-.25-1.406 0-.39 0-.922.234-1.36a1.347 1.347 0 0 1 1.14-.671c.438 0 .86.219 1.125.656.266.422.266 1 .266 1.375 0 .36 0 .906-.219 1.344-.234.453-.672.734-1.156.734Zm6.532-.407v.656l1.468-.109v-.313c-.687 0-.781-.062-.781-.562v-6.047l-1.422.11v.312c.688 0 .766.062.766.562V85.6a1.582 1.582 0 0 0-1.25-.625c-1.172 0-2.219.984-2.219 2.265 0 1.266.969 2.25 2.11 2.25.64 0 1.078-.343 1.328-.656zm0-2.672v2.047c0 .172 0 .188-.11.36-.297.484-.734.703-1.172.703-.453 0-.812-.266-1.047-.641-.25-.406-.28-.969-.28-1.39 0-.36.015-.954.296-1.407.219-.312.594-.64 1.14-.64.344 0 .766.156 1.063.593.11.172.11.188.11.375zm2.857.703c.062-1.484.906-1.734 1.25-1.734 1.016 0 1.125 1.344 1.125 1.734zm0 .22h2.781c.219 0 .25 0 .25-.22 0-.984-.547-1.953-1.781-1.953-1.156 0-2.078 1.031-2.078 2.281 0 1.329 1.047 2.297 2.187 2.297 1.22 0 1.672-1.109 1.672-1.297 0-.093-.078-.125-.14-.125-.079 0-.11.063-.125.141-.344 1.031-1.25 1.031-1.344 1.031-.5 0-.89-.297-1.125-.672-.297-.468-.297-1.125-.297-1.484zm10.441-.397c.063-.266.079-.329.594-.329.156 0 .235 0 .235-.14 0-.11-.079-.11-.204-.11h-.953c-.203 0-.203.016-.297.141l-2.687 3.984-.688-3.937c-.03-.172-.03-.188-.25-.188h-.984c-.14 0-.234 0-.234.157 0 .093.078.093.234.093.11 0 .14 0 .266.016.14.016.156.031.156.11 0 0 0 .046-.031.14l-.875 3.5c-.063.234-.172.484-.735.5-.047 0-.14 0-.14.156 0 0 0 .094.11.094.202 0 .5-.031.718-.031.172 0 .578.031.734.031.047 0 .14 0 .14-.156 0-.094-.093-.094-.155-.094-.438-.016-.438-.203-.438-.297 0-.031 0-.062.031-.172l.922-3.703.75 4.235c.031.125.031.187.14.187.095 0 .157-.078.204-.156l2.922-4.344.015.016-.984 3.937c-.062.235-.078.297-.61.297-.124 0-.218 0-.218.156 0 0 0 .094.11.094.14 0 .296-.016.437-.016.14 0 .297-.015.437-.015.203 0 .688.031.89.031.032 0 .142 0 .142-.156 0-.094-.079-.094-.22-.094-.015 0-.14 0-.265-.016-.156-.015-.156-.03-.156-.109 0-.031.016-.11.016-.14zm0 0"/><path fill="#E5E5F0" d="M126.781 90.875v-8.414a7.085 7.085 0 0 1 7.086-7.086h28.656a7.085 7.085 0 0 1 7.086 7.086v8.414a7.085 7.085 0 0 1-7.086 7.086h-28.656a7.085 7.085 0 0 1-7.086-7.086Zm0 0"/><g clip-path="url(#y)"><g clip-path="url(#z)"><g clip-path="url(#A)"><path fill="url(#B)" d="m131.79 111.727-12.27-33.711 45.078-16.407 12.27 33.711Zm0 0"/></g></g></g><path fill="none" stroke="#000" stroke-miterlimit="10" stroke-width=".399" d="M126.781 90.875v-8.414a7.085 7.085 0 0 1 7.086-7.086h28.656a7.085 7.085 0 0 1 7.086 7.086v8.414a7.085 7.085 0 0 1-7.086 7.086h-28.656a7.085 7.085 0 0 1-7.086-7.086Zm0 0"/><path d="M136.179 82.708c-.094-.125-.094-.14-.282-.14h-1.703v.312h.297c.14 0 .344.016.484.016.235.03.25.046.25.234v5.203c0 .266 0 .734-1.03.734v.313c.343-.016.843-.031 1.171-.031.328 0 .813.015 1.156.031v-.313c-1.015 0-1.015-.468-1.015-.734v-5.187c.047.046.047.062.093.125l4.063 5.984c.094.11.11.125.172.125.14 0 .14-.063.14-.266v-5.5c0-.265 0-.734 1.032-.734v-.313c-.36.016-.844.032-1.172.032-.328 0-.813-.016-1.156-.032v.313c1.015 0 1.015.469 1.015.734v4.266Zm9.847 4.532c0-1.266-.985-2.329-2.188-2.329-1.25 0-2.219 1.094-2.219 2.328a2.22 2.22 0 0 0 2.203 2.25c1.204 0 2.204-.984 2.204-2.25zm-2.188 2c-.437 0-.875-.204-1.14-.673-.25-.437-.25-1.046-.25-1.406 0-.39 0-.922.234-1.36a1.347 1.347 0 0 1 1.14-.671c.438 0 .86.219 1.125.656.266.422.266 1 .266 1.375 0 .36 0 .906-.219 1.344-.234.453-.672.734-1.156.734Zm6.532-.407v.656l1.468-.109v-.313c-.687 0-.78-.062-.78-.562v-6.047l-1.423.11v.312c.688 0 .766.062.766.562V85.6a1.582 1.582 0 0 0-1.25-.625c-1.172 0-2.219.984-2.219 2.265 0 1.266.969 2.25 2.11 2.25.64 0 1.078-.343 1.328-.656zm0-2.672v2.047c0 .172 0 .188-.11.36-.297.484-.734.703-1.172.703-.453 0-.812-.266-1.047-.641-.25-.406-.28-.969-.28-1.39 0-.36.015-.954.296-1.407.219-.312.594-.64 1.14-.64.344 0 .766.156 1.063.593.11.172.11.188.11.375zm2.857.703c.062-1.484.906-1.734 1.25-1.734 1.016 0 1.125 1.344 1.125 1.734zm0 .22h2.781c.219 0 .25 0 .25-.22 0-.984-.547-1.953-1.781-1.953-1.156 0-2.078 1.031-2.078 2.281 0 1.329 1.047 2.297 2.187 2.297 1.219 0 1.672-1.109 1.672-1.297 0-.093-.078-.125-.14-.125-.079 0-.11.063-.125.141-.344 1.031-1.25 1.031-1.344 1.031-.5 0-.89-.297-1.125-.672-.297-.468-.297-1.125-.297-1.484zm6.207-.397c.063-.25.078-.329.719-.329.219 0 .281 0 .281-.14 0-.016 0-.11-.11-.11a6.07 6.07 0 0 0-.515.032h-1.047c-.14 0-.312-.032-.453-.032-.031 0-.14 0-.14.157 0 .093.078.093.218.093.016 0 .14 0 .266.016.156.016.172.031.172.11 0 0 0 .046-.032.14l-.937 3.703c-.063.235-.078.297-.61.297-.109 0-.203 0-.203.14 0 .11.079.11.204.11h3.5c.187 0 .187 0 .25-.14.062-.188.593-1.532.593-1.594 0-.016-.015-.094-.125-.094-.078 0-.093.031-.14.14-.266.657-.578 1.438-1.844 1.438h-.797c-.203 0-.219-.016-.219-.078 0 0 0-.031.032-.14zm0 0"/><path fill="#E5E5F0" d="M244.465 90.875v-8.414a7.085 7.085 0 0 1 7.086-7.086h29.226a7.088 7.088 0 0 1 7.09 7.086v8.414a7.088 7.088 0 0 1-7.09 7.086h-29.226a7.085 7.085 0 0 1-7.086-7.086Zm0 0"/><g clip-path="url(#C)"><g clip-path="url(#D)"><g clip-path="url(#E)"><path fill="url(#F)" d="m249.54 111.91-12.337-33.894 45.586-16.59 12.336 33.894Zm0 0"/></g></g></g><path fill="none" stroke="#000" stroke-miterlimit="10" stroke-width=".399" d="M244.465 90.875v-8.414a7.085 7.085 0 0 1 7.086-7.086h29.226a7.088 7.088 0 0 1 7.09 7.086v8.414a7.088 7.088 0 0 1-7.09 7.086h-29.226a7.085 7.085 0 0 1-7.086-7.086Zm0 0"/><path d="M253.863 82.708c-.094-.125-.094-.14-.282-.14h-1.703v.312h.297c.14 0 .344.016.484.016.235.03.25.046.25.234v5.203c0 .266 0 .734-1.03.734v.313c.343-.016.843-.031 1.171-.031.328 0 .813.015 1.156.031v-.313c-1.015 0-1.015-.468-1.015-.734v-5.187c.047.046.047.062.093.125l4.063 5.984c.094.11.11.125.172.125.14 0 .14-.063.14-.266v-5.5c0-.265 0-.734 1.032-.734v-.313c-.36.016-.844.032-1.172.032-.328 0-.813-.016-1.156-.032v.313c1.015 0 1.015.469 1.015.734v4.266Zm9.847 4.532c0-1.266-.985-2.329-2.188-2.329-1.25 0-2.219 1.094-2.219 2.328a2.22 2.22 0 0 0 2.203 2.25c1.204 0 2.204-.984 2.204-2.25zm-2.188 2c-.438 0-.875-.204-1.14-.673-.25-.437-.25-1.046-.25-1.406 0-.39 0-.922.234-1.36a1.347 1.347 0 0 1 1.14-.671c.438 0 .86.219 1.125.656.266.422.266 1 .266 1.375 0 .36 0 .906-.219 1.344-.234.453-.672.734-1.156.734Zm6.532-.407v.656l1.468-.109v-.313c-.687 0-.78-.062-.78-.562v-6.047l-1.423.11v.312c.688 0 .766.062.766.562V85.6a1.582 1.582 0 0 0-1.25-.625c-1.172 0-2.219.984-2.219 2.265 0 1.266.969 2.25 2.11 2.25.64 0 1.078-.343 1.328-.656zm0-2.672v2.047c0 .172 0 .188-.11.36-.297.484-.734.703-1.172.703-.453 0-.812-.266-1.047-.641-.25-.406-.28-.969-.28-1.39 0-.36.015-.954.296-1.407.219-.312.594-.64 1.14-.64.344 0 .766.156 1.063.593.11.172.11.188.11.375zm2.856.703c.063-1.484.907-1.734 1.25-1.734 1.017 0 1.126 1.344 1.126 1.734zm0 .22h2.782c.219 0 .25 0 .25-.22 0-.984-.547-1.953-1.781-1.953-1.156 0-2.078 1.031-2.078 2.281 0 1.329 1.047 2.297 2.187 2.297 1.219 0 1.672-1.109 1.672-1.297 0-.093-.078-.125-.14-.125-.079 0-.11.063-.125.141-.344 1.031-1.25 1.031-1.344 1.031-.5 0-.89-.297-1.125-.672-.297-.468-.297-1.125-.297-1.484zm6.208-.476c.047-.203.063-.218.219-.25h.453c.64 0 1.437 0 1.437.72 0 .296-.125.734-.453.984-.28.218-.718.328-1.203.328h-.89Zm1.266 1.891c.828-.187 1.562-.687 1.562-1.312 0-.594-.703-1.079-1.719-1.079h-2.14c-.125 0-.219 0-.219.157 0 .093.078.093.219.093.015 0 .14 0 .265.016.157.016.157.031.157.11 0 0 0 .046-.016.14l-.937 3.703c-.047.235-.063.297-.61.297-.125 0-.203 0-.203.14 0 .079.047.11.11.11.124 0 .296-.016.421-.016.14 0 .344-.015.47-.015.14 0 .296.015.437.015.156 0 .328.016.468.016.047 0 .157 0 .157-.14 0-.11-.079-.11-.235-.11-.11 0-.14 0-.265-.016-.157-.015-.157-.03-.157-.109 0 0 0-.047.032-.14l.437-1.766h.953c.594 0 .86.297.86.625 0 .094-.063.328-.11.484-.078.328-.11.422-.11.547 0 .547.516.766 1.032.766.64 0 .922-.688.922-.813 0-.015-.016-.094-.125-.094-.094 0-.11.047-.125.125-.094.297-.36.579-.64.579-.188 0-.329-.063-.329-.454 0-.171.047-.53.078-.718.032-.188.032-.25.032-.328 0-.079 0-.313-.204-.516-.125-.14-.312-.234-.468-.297Zm0 0"/><path fill="none" stroke="#4384A1" stroke-linecap="round" stroke-miterlimit="10" stroke-width=".797" d="M180.004 51.79 150.28 73.64"/><path fill="#4384A1" d="m148.195 75.176 4.567-.785-2.48-.75.023-2.59"/><path fill="none" stroke="#4384A1" stroke-linecap="round" stroke-miterlimit="10" stroke-width=".797" d="M207.035 55.332v17.254"/><path fill="#4384A1" d="m207.035 75.176 2.074-4.145-2.074 1.555-2.07-1.555"/><path fill="none" stroke="#4384A1" stroke-linecap="round" stroke-miterlimit="10" stroke-width=".797" d="m234.64 51.79 29.446 21.843"/><path fill="#4384A1" d="m266.164 75.176-2.094-4.133.016 2.59-2.484.738"/><path d="M21.306 107.277c-.094-.11-.094-.11-.25-.11h-1.344v.266h.234c.14 0 .203 0 .36.016.203.015.218.031.218.172v4.125c0 .218 0 .593-.812.593v.266c.36-.031.734-.031.953-.031.203 0 .578 0 .937.031v-.266c-.812 0-.812-.375-.812-.593v-4.063l3.453 4.797c.078.094.094.125.172.125.125 0 .125-.078.125-.219v-4.375c0-.203 0-.578.812-.578v-.266c-.359.016-.734.016-.937.016-.203 0-.578 0-.938-.016v.266c.797 0 .797.375.797.578v3.407zm8.383 3.625c0-.984-.828-1.844-1.875-1.844-1.047 0-1.875.86-1.875 1.844 0 1 .859 1.781 1.875 1.781 1.03 0 1.875-.781 1.875-1.781zm-1.875 1.531c-.422 0-.766-.203-.938-.484-.203-.328-.219-.719-.219-1.11 0-.312 0-.78.235-1.125.219-.28.547-.437.922-.437.422 0 .765.203.937.469.219.343.235.765.235 1.093 0 .36-.016.797-.25 1.141-.204.313-.563.453-.922.453zm4.979-5.265v.265c.53 0 .609.047.609.438v1.687a1.409 1.409 0 0 0-1.078-.469c-1 0-1.875.782-1.875 1.797 0 .985.797 1.797 1.797 1.797.468 0 .859-.219 1.125-.5v.5l1.218-.078v-.266c-.546 0-.609-.046-.609-.437v-4.828Zm.578 4.453c0 .14 0 .172-.125.328a1.146 1.146 0 0 1-.953.515c-.375 0-.688-.187-.875-.484-.22-.313-.266-.703-.266-1.078 0-.469.078-.797.266-1.063.187-.296.546-.53.953-.53.375 0 .765.202 1 .609zm4.796-.828c.172 0 .219 0 .219-.188 0-.703-.391-1.547-1.516-1.547-.984 0-1.766.813-1.766 1.797 0 1.031.86 1.828 1.875 1.828 1 0 1.407-.844 1.407-1.031a.12.12 0 0 0-.125-.11c-.094 0-.11.047-.125.094a1.14 1.14 0 0 1-1.11.797c-.36 0-.734-.156-.969-.531-.234-.36-.234-.875-.234-1.11Zm-2.344-.22c.078-1.109.75-1.296 1.047-1.296.937 0 .969 1.125.969 1.297zm5.42-.222c.047-.203.062-.25.672-.25.14 0 .218 0 .218-.156a.102.102 0 0 0-.109-.094c-.14 0-.297.031-.437.031h-.907c-.14 0-.297-.03-.437-.03-.031 0-.125 0-.125.155 0 .094.078.094.187.094.11 0 .266 0 .39.031 0 .063 0 .11-.03.204l-.782 3.109c-.062.219-.062.266-.515.266-.14 0-.219 0-.219.14 0 .094.078.094.188.094h3.171c.157 0 .157 0 .204-.125.062-.14.53-1.344.53-1.375 0-.063-.046-.094-.124-.094-.063 0-.094.031-.125.11-.266.671-.563 1.25-1.64 1.25h-.735c-.11 0-.125 0-.203-.016zm11.018-1.855c.094-.047.172-.094.172-.203a.18.18 0 0 0-.187-.188c-.016 0-.032 0-.141.063l-4.672 2.25c-.11.046-.172.093-.172.203 0 .093.063.14.172.187l4.672 2.25c.11.063.125.063.14.063a.18.18 0 0 0 .188-.188c0-.11-.078-.156-.172-.203l-4.39-2.11Zm6.642.797 1.563-1.376c.515-.468.937-.484 1.125-.484v-.266c-.313.016-.328.016-.735.016-.406 0-.437 0-.953-.016v.266c.157 0 .297.078.297.234 0 .063-.031.172-.172.297l-2.64 2.344v-2.5c0-.297.015-.375.625-.375h.172v-.266c-.672.016-.688.016-1.172.016-.47 0-.485 0-1.172-.016v.266h.187c.61 0 .625.078.625.375v4.156c0 .297-.015.375-.625.375h-.187v.266c.687-.031.703-.031 1.172-.031.484 0 .5 0 1.172.031v-.266h-.172c-.61 0-.625-.078-.625-.375v-1.328l1.03-.922 1.548 2.141c.078.094.125.172.125.266 0 .218-.281.218-.422.218v.266c.687-.031.703-.031 1.094-.031.218 0 .656 0 .937.031v-.266c-.281 0-.547 0-.781-.312zm6.467 1.5c.171 0 .218 0 .218-.188 0-.703-.39-1.547-1.516-1.547-.984 0-1.765.813-1.765 1.797 0 1.031.86 1.828 1.875 1.828 1 0 1.406-.844 1.406-1.031a.12.12 0 0 0-.125-.11c-.094 0-.11.047-.125.094a1.14 1.14 0 0 1-1.11.797c-.359 0-.734-.156-.968-.531-.234-.36-.234-.875-.234-1.11Zm-2.344-.22c.078-1.109.75-1.296 1.046-1.296.938 0 .97 1.125.97 1.297zm6.34-.593c.203-.453.5-.531.75-.547v-.266c-.266.032-.282.032-.625.032-.032 0-.454 0-.688-.031v.265c.234.016.344.14.344.328 0 .047 0 .11-.047.203l-.844 1.922-.937-2.093c-.047-.11-.047-.126-.047-.157 0-.187.25-.203.422-.203v-.266c-.36.032-.703.032-.875.032-.172 0-.547 0-.813-.031v.265c.422 0 .531.016.672.313l1.25 2.859c-.36.844-.594 1.406-1.156 1.406-.203 0-.328-.093-.328-.093a.353.353 0 0 0 .25-.344.336.336 0 0 0-.344-.344c-.172 0-.344.11-.344.36 0 .343.344.64.766.64.719 0 1.094-.86 1.125-.938zm9.115-1.484c.094-.047.172-.094.172-.203a.18.18 0 0 0-.187-.188c-.016 0-.032 0-.141.063l-4.672 2.25c-.11.046-.172.093-.172.203 0 .093.063.14.172.187l4.672 2.25c.11.063.125.063.14.063a.18.18 0 0 0 .188-.188c0-.11-.078-.156-.172-.203l-4.39-2.11Zm5.174-1.219c-.094-.11-.094-.11-.25-.11H82.06v.266h.234c.14 0 .203 0 .36.016.203.015.218.031.218.172v4.125c0 .218 0 .593-.812.593v.266c.36-.031.734-.031.953-.031.203 0 .578 0 .937.031v-.266c-.812 0-.812-.375-.812-.593v-4.063l3.453 4.797c.078.094.094.125.172.125.125 0 .125-.078.125-.219v-4.375c0-.203 0-.578.812-.578v-.266c-.359.016-.734.016-.937.016-.203 0-.578 0-.938-.016v.266c.797 0 .797.375.797.578v3.407zm8.383 3.625c0-.984-.828-1.844-1.875-1.844-1.047 0-1.875.86-1.875 1.844 0 1 .859 1.781 1.875 1.781 1.03 0 1.875-.781 1.875-1.781zm-1.875 1.531c-.422 0-.766-.203-.938-.484-.203-.328-.219-.719-.219-1.11 0-.312 0-.78.235-1.125.219-.28.547-.437.922-.437.422 0 .765.203.937.469.219.343.235.765.235 1.093 0 .36-.016.797-.25 1.141-.204.313-.563.453-.922.453zm4.979-5.265v.265c.53 0 .609.047.609.438v1.687a1.409 1.409 0 0 0-1.078-.469c-1 0-1.875.782-1.875 1.797 0 .985.797 1.797 1.797 1.797.468 0 .859-.219 1.125-.5v.5l1.218-.078v-.266c-.546 0-.609-.046-.609-.437v-4.828Zm.578 4.453c0 .14 0 .172-.125.328a1.146 1.146 0 0 1-.953.515c-.375 0-.688-.187-.875-.484-.22-.313-.266-.703-.266-1.078 0-.469.078-.797.266-1.063.187-.296.546-.53.953-.53.375 0 .765.202 1 .609zm4.796-.828c.172 0 .219 0 .219-.188 0-.703-.391-1.547-1.516-1.547-.984 0-1.766.813-1.766 1.797 0 1.031.86 1.828 1.875 1.828 1 0 1.407-.844 1.407-1.031a.12.12 0 0 0-.125-.11c-.094 0-.11.047-.125.094a1.14 1.14 0 0 1-1.11.797c-.36 0-.734-.156-.969-.531-.234-.36-.234-.875-.234-1.11Zm-2.344-.22c.078-1.109.75-1.296 1.047-1.296.937 0 .969 1.125.969 1.297zm5.435-.269c.047-.203.047-.203.297-.203h.594c.594 0 1.031.14 1.031.625 0 .203-.093.64-.5.86-.234.14-.562.218-.968.218h-.844Zm1.22 1.61c.577-.14 1.343-.547 1.343-1.125 0-.5-.625-.938-1.563-.938h-1.921c-.125 0-.204 0-.204.156 0 .094.079.094.188.094.11 0 .266 0 .39.031 0 .063 0 .11-.03.204l-.782 3.109c-.047.219-.062.266-.516.266-.125 0-.14 0-.171.015-.032.016-.047.094-.047.14 0 .016.015.079.093.079.188 0 .625-.031.797-.031.375 0-.015 0 .422.015.125 0 .266.016.39.016.048 0 .079 0 .11-.047.016-.016.031-.078.031-.11-.015-.077-.062-.077-.203-.077-.078 0-.156-.016-.234-.016-.11-.016-.14-.016-.14-.078 0-.031 0-.047.015-.11l.375-1.5h.875c.516 0 .781.235.781.516 0 .078-.047.281-.094.422-.062.266-.078.36-.078.469 0 .437.407.656.922.656.563 0 .828-.563.828-.703 0-.031-.03-.094-.11-.094-.077 0-.108.047-.108.094-.141.406-.438.5-.579.5-.156 0-.296-.047-.296-.406 0-.141.046-.47.062-.625 0-.063.031-.188.031-.235 0-.39-.312-.594-.578-.687zm22.369-4.637c-.094-.11-.094-.11-.25-.11h-1.344v.266h.234c.14 0 .203 0 .36.016.203.015.218.031.218.172v4.125c0 .218 0 .593-.812.593v.266c.36-.031.734-.031.953-.031.203 0 .578 0 .937.031v-.266c-.812 0-.812-.375-.812-.593v-4.063l3.453 4.797c.078.094.094.125.172.125.125 0 .125-.078.125-.219v-4.375c0-.203 0-.578.812-.578v-.266c-.359.016-.734.016-.937.016-.203 0-.578 0-.938-.016v.266c.797 0 .797.375.797.578v3.407zm8.383 3.625c0-.984-.828-1.844-1.875-1.844-1.047 0-1.875.86-1.875 1.844 0 1 .859 1.781 1.875 1.781 1.03 0 1.875-.781 1.875-1.781zm-1.875 1.531c-.422 0-.766-.203-.938-.484-.203-.328-.219-.719-.219-1.11 0-.312 0-.78.235-1.125.219-.28.547-.437.922-.437.422 0 .765.203.937.469.219.343.235.765.235 1.093 0 .36-.016.797-.25 1.141-.204.313-.563.453-.922.453zm4.979-5.265v.265c.53 0 .609.047.609.438v1.687a1.409 1.409 0 0 0-1.078-.469c-1 0-1.875.782-1.875 1.797 0 .985.797 1.797 1.797 1.797.468 0 .86-.219 1.125-.5v.5l1.218-.078v-.266c-.546 0-.609-.046-.609-.437v-4.828Zm.578 4.453c0 .14 0 .172-.125.328a1.146 1.146 0 0 1-.953.515c-.375 0-.688-.187-.875-.484-.22-.313-.266-.703-.266-1.078 0-.469.078-.797.266-1.063.187-.296.546-.53.953-.53.375 0 .765.202 1 .609zm4.796-.828c.172 0 .219 0 .219-.188 0-.703-.391-1.547-1.516-1.547-.984 0-1.766.813-1.766 1.797 0 1.031.86 1.828 1.875 1.828 1 0 1.407-.844 1.407-1.031a.12.12 0 0 0-.125-.11c-.094 0-.11.047-.125.094a1.14 1.14 0 0 1-1.11.797c-.36 0-.734-.156-.969-.531-.234-.36-.234-.875-.234-1.11Zm-2.344-.22c.078-1.109.75-1.296 1.047-1.296.937 0 .969 1.125.969 1.297zm5.419-.222c.047-.203.062-.25.672-.25.14 0 .218 0 .218-.156a.102.102 0 0 0-.109-.094c-.14 0-.297.031-.437.031h-.907c-.14 0-.297-.03-.437-.03-.031 0-.125 0-.125.155 0 .094.078.094.187.094.11 0 .266 0 .39.031 0 .063 0 .11-.03.204l-.782 3.109c-.062.219-.062.266-.515.266-.14 0-.219 0-.219.14 0 .094.078.094.188.094h3.171c.157 0 .157 0 .204-.125.062-.14.53-1.344.53-1.375 0-.063-.046-.094-.124-.094-.063 0-.094.031-.125.11-.266.671-.563 1.25-1.64 1.25h-.735c-.11 0-.125 0-.203-.016zm11.019-1.855c.094-.047.172-.094.172-.203a.18.18 0 0 0-.187-.188c-.016 0-.032 0-.141.063l-4.672 2.25c-.11.046-.172.093-.172.203 0 .093.063.14.172.187l4.672 2.25c.11.063.125.063.14.063a.18.18 0 0 0 .188-.188c0-.11-.078-.156-.172-.203l-4.39-2.11Zm6.641.797 1.563-1.376c.515-.468.937-.484 1.125-.484v-.266c-.313.016-.328.016-.735.016-.406 0-.437 0-.953-.016v.266c.157 0 .297.078.297.234 0 .063-.031.172-.172.297l-2.64 2.344v-2.5c0-.297.015-.375.625-.375h.172v-.266c-.672.016-.688.016-1.172.016-.47 0-.485 0-1.172-.016v.266h.187c.61 0 .625.078.625.375v4.156c0 .297-.015.375-.625.375h-.187v.266c.687-.031.703-.031 1.172-.031.484 0 .5 0 1.172.031v-.266h-.172c-.61 0-.625-.078-.625-.375v-1.328l1.03-.922 1.548 2.141c.078.094.125.172.125.266 0 .218-.281.218-.422.218v.266c.687-.031.703-.031 1.094-.031.218 0 .656 0 .937.031v-.266c-.281 0-.547 0-.781-.312zm6.466 1.5c.172 0 .219 0 .219-.188 0-.703-.39-1.547-1.516-1.547-.984 0-1.765.813-1.765 1.797 0 1.031.86 1.828 1.875 1.828 1 0 1.406-.844 1.406-1.031a.12.12 0 0 0-.125-.11c-.094 0-.11.047-.125.094a1.14 1.14 0 0 1-1.11.797c-.359 0-.734-.156-.968-.531-.234-.36-.234-.875-.234-1.11Zm-2.343-.22c.078-1.109.75-1.296 1.046-1.296.938 0 .97 1.125.97 1.297zm6.34-.593c.203-.453.5-.531.75-.547v-.266c-.266.032-.282.032-.625.032-.032 0-.454 0-.688-.031v.265c.234.016.344.14.344.328 0 .047 0 .11-.047.203l-.844 1.922-.937-2.093c-.047-.11-.047-.126-.047-.157 0-.187.25-.203.422-.203v-.266c-.36.032-.703.032-.875.032-.172 0-.547 0-.813-.031v.265c.422 0 .531.016.672.313l1.25 2.859c-.36.844-.594 1.406-1.156 1.406-.203 0-.328-.093-.328-.093a.353.353 0 0 0 .25-.344.336.336 0 0 0-.344-.344c-.172 0-.344.11-.344.36 0 .343.344.64.766.64.719 0 1.094-.86 1.125-.938zm3.654 1.08c.047-.204.062-.25.672-.25.14 0 .218 0 .218-.157a.102.102 0 0 0-.109-.094c-.14 0-.297.032-.437.032h-.907c-.14 0-.297-.032-.437-.032-.031 0-.125 0-.125.157 0 .093.078.093.187.093.11 0 .266 0 .39.032 0 .062 0 .109-.03.203l-.782 3.109c-.062.219-.062.266-.515.266-.14 0-.219 0-.219.14 0 .094.078.094.188.094h3.171c.157 0 .157 0 .204-.125.062-.14.53-1.344.53-1.375 0-.063-.046-.094-.124-.094-.063 0-.094.032-.125.11-.266.672-.563 1.25-1.64 1.25h-.735c-.11 0-.125 0-.203-.016zm11.019-2.564c.094-.047.172-.094.172-.203a.18.18 0 0 0-.187-.188c-.016 0-.032 0-.141.063l-4.672 2.25c-.11.046-.172.093-.172.203 0 .093.063.14.172.187l4.672 2.25c.11.063.125.063.14.063a.18.18 0 0 0 .188-.188c0-.11-.078-.156-.172-.203l-4.39-2.11Zm5.172-1.219c-.093-.11-.093-.11-.25-.11h-1.343v.266h.234c.14 0 .203 0 .36.016.203.015.218.031.218.172v4.125c0 .218 0 .593-.812.593v.266c.36-.031.734-.031.953-.031.203 0 .578 0 .937.031v-.266c-.812 0-.812-.375-.812-.593v-4.063l3.453 4.797c.078.094.094.125.172.125.125 0 .125-.078.125-.219v-4.375c0-.203 0-.578.812-.578v-.266c-.359.016-.734.016-.937.016-.203 0-.578 0-.938-.016v.266c.797 0 .797.375.797.578v3.407zm8.384 3.625c0-.984-.828-1.844-1.875-1.844-1.047 0-1.875.86-1.875 1.844 0 1 .859 1.781 1.875 1.781 1.03 0 1.875-.781 1.875-1.781zm-1.875 1.531c-.422 0-.766-.203-.938-.484-.203-.328-.219-.719-.219-1.11 0-.312 0-.78.235-1.125.219-.28.547-.437.922-.437.422 0 .765.203.937.469.219.343.235.765.235 1.093 0 .36-.016.797-.25 1.141-.204.313-.563.453-.922.453zm4.979-5.265v.265c.53 0 .609.047.609.438v1.687a1.409 1.409 0 0 0-1.078-.469c-1 0-1.875.782-1.875 1.797 0 .985.797 1.797 1.797 1.797.468 0 .859-.219 1.125-.5v.5l1.218-.078v-.266c-.546 0-.609-.046-.609-.437v-4.828Zm.578 4.453c0 .14 0 .172-.125.328a1.146 1.146 0 0 1-.953.515c-.375 0-.688-.187-.875-.484-.22-.313-.266-.703-.266-1.078 0-.469.078-.797.266-1.063.187-.296.546-.53.953-.53.375 0 .765.202 1 .609zm4.796-.828c.172 0 .219 0 .219-.188 0-.703-.391-1.547-1.516-1.547-.984 0-1.766.813-1.766 1.797 0 1.031.86 1.828 1.875 1.828 1 0 1.407-.844 1.407-1.031a.12.12 0 0 0-.125-.11c-.094 0-.11.047-.125.094a1.14 1.14 0 0 1-1.11.797c-.36 0-.734-.156-.969-.531-.234-.36-.234-.875-.234-1.11Zm-2.344-.22c.078-1.109.75-1.296 1.047-1.296.937 0 .969 1.125.969 1.297zm9.264-.237c.062-.188.062-.235.546-.235.11 0 .188 0 .188-.156 0-.094-.078-.094-.188-.094h-.843c-.172 0-.188.016-.282.156l-2.375 3.391-.671-3.375c-.032-.172-.063-.172-.22-.172h-.89c-.125 0-.203 0-.203.156 0 .094.078.094.188.094.109 0 .265 0 .39.031 0 .063 0 .11-.031.204l-.734 2.937c-.063.25-.172.422-.657.438-.078 0-.125.062-.125.156 0 .015.016.078.11.078.14 0 .484-.031.64-.031l.328.015c.11 0 .235.016.329.016.125 0 .14-.125.14-.156-.031-.078-.078-.078-.156-.078-.281-.016-.39-.094-.39-.25 0-.032 0-.047.015-.125l.797-3.188h.015l.704 3.625c.03.11.046.172.14.172.094 0 .14-.063.172-.125l2.61-3.719-.844 3.344c-.047.219-.063.266-.516.266-.125 0-.14 0-.156.015-.031.016-.063.094-.063.14.016.016.016.079.11.079.11 0 .25-.016.375-.016s.265-.015.39-.015l.422.015c.11 0 .25.016.375.016.031 0 .078 0 .11-.047 0-.016.03-.078.03-.11-.015-.077-.077-.077-.202-.077-.078 0-.172-.016-.235-.016-.11-.016-.156-.016-.156-.078 0-.031.016-.047.031-.11Zm9.704-1.84c.094-.047.172-.094.172-.203a.18.18 0 0 0-.187-.188c-.016 0-.032 0-.141.063l-4.672 2.25c-.11.046-.172.093-.172.203 0 .093.063.14.172.187l4.672 2.25c.11.063.125.063.14.063a.18.18 0 0 0 .188-.188c0-.11-.078-.156-.172-.203l-4.39-2.11Zm6.642.797 1.563-1.376c.515-.468.937-.484 1.125-.484v-.266c-.313.016-.328.016-.735.016-.406 0-.437 0-.953-.016v.266c.157 0 .297.078.297.234 0 .063-.031.172-.172.297l-2.64 2.344v-2.5c0-.297.015-.375.625-.375h.172v-.266c-.672.016-.688.016-1.172.016-.47 0-.485 0-1.172-.016v.266h.187c.61 0 .625.078.625.375v4.156c0 .297-.015.375-.625.375h-.187v.266c.687-.031.703-.031 1.172-.031.484 0 .5 0 1.172.031v-.266h-.172c-.61 0-.625-.078-.625-.375v-1.328l1.03-.922 1.548 2.141c.078.094.125.172.125.266 0 .218-.281.218-.422.218v.266c.687-.031.703-.031 1.094-.031.218 0 .656 0 .937.031v-.266c-.281 0-.547 0-.781-.312zm6.466 1.5c.172 0 .219 0 .219-.188 0-.703-.39-1.547-1.516-1.547-.984 0-1.765.813-1.765 1.797 0 1.031.86 1.828 1.875 1.828 1 0 1.406-.844 1.406-1.031a.12.12 0 0 0-.125-.11c-.094 0-.11.047-.125.094a1.14 1.14 0 0 1-1.11.797c-.359 0-.734-.156-.968-.531-.234-.36-.234-.875-.234-1.11Zm-2.343-.22c.078-1.109.75-1.296 1.046-1.296.938 0 .97 1.125.97 1.297zm6.339-.593c.204-.453.5-.531.75-.547v-.266a3.59 3.59 0 0 1-.624.032c-.032 0-.454 0-.688-.031v.265c.234.016.344.14.344.328 0 .047 0 .11-.047.203l-.844 1.922-.937-2.093c-.047-.11-.047-.126-.047-.157 0-.187.25-.203.422-.203v-.266c-.36.032-.703.032-.875.032-.172 0-.547 0-.813-.031v.265c.422 0 .531.016.672.313l1.25 2.859c-.36.844-.594 1.406-1.156 1.406-.203 0-.328-.093-.328-.093a.353.353 0 0 0 .25-.344.336.336 0 0 0-.344-.344c-.172 0-.344.11-.344.36 0 .343.344.64.766.64.719 0 1.094-.86 1.125-.938zm3.67 1.032c.047-.203.047-.203.297-.203h.594c.594 0 1.031.14 1.031.625 0 .203-.093.64-.5.86-.234.14-.562.218-.968.218h-.844Zm1.22 1.61c.577-.14 1.343-.547 1.343-1.125 0-.5-.625-.938-1.563-.938h-1.921c-.125 0-.204 0-.204.157 0 .093.079.093.188.093.11 0 .266 0 .39.032 0 .062 0 .109-.03.203l-.782 3.109c-.047.219-.062.266-.516.266-.125 0-.14 0-.171.015-.032.016-.047.094-.047.14 0 .017.015.079.093.079.188 0 .625-.031.797-.031.375 0-.015 0 .422.015.125 0 .266.016.39.016.048 0 .079 0 .11-.047.016-.015.031-.078.031-.11-.015-.077-.062-.077-.203-.077-.078 0-.156-.016-.234-.016-.11-.016-.14-.016-.14-.078 0-.031 0-.047.015-.11l.375-1.5h.875c.516 0 .781.235.781.516 0 .078-.047.281-.094.422-.062.266-.078.36-.078.469 0 .437.407.656.922.656.563 0 .828-.563.828-.703 0-.031-.03-.094-.11-.094-.077 0-.108.047-.108.094-.141.406-.438.5-.579.5-.156 0-.296-.047-.296-.406 0-.141.046-.47.062-.625 0-.063.031-.188.031-.235 0-.39-.312-.593-.578-.687zm10.258-4.126c.094-.047.172-.094.172-.203a.18.18 0 0 0-.187-.188c-.016 0-.032 0-.141.063l-4.672 2.25c-.11.046-.172.093-.172.203 0 .093.063.14.172.187l4.672 2.25c.11.063.125.063.14.063a.18.18 0 0 0 .188-.188c0-.11-.078-.156-.172-.203l-4.39-2.11Zm5.174-1.219c-.094-.11-.094-.11-.25-.11h-1.344v.266h.234c.14 0 .203 0 .36.016.203.015.218.031.218.172v4.125c0 .218 0 .593-.812.593v.266c.36-.031.734-.031.953-.031.203 0 .578 0 .937.031v-.266c-.812 0-.812-.375-.812-.593v-4.063l3.453 4.797c.078.094.094.125.172.125.125 0 .125-.078.125-.219v-4.375c0-.203 0-.578.812-.578v-.266c-.359.016-.734.016-.937.016-.203 0-.578 0-.938-.016v.266c.797 0 .797.375.797.578v3.407zm8.383 3.625c0-.984-.828-1.844-1.875-1.844-1.047 0-1.875.86-1.875 1.844 0 1 .859 1.781 1.875 1.781 1.03 0 1.875-.781 1.875-1.781zm-1.875 1.531c-.422 0-.766-.203-.938-.484-.203-.328-.219-.719-.219-1.11 0-.312 0-.78.235-1.125.219-.28.547-.437.922-.437.422 0 .765.203.937.469.219.343.235.765.235 1.093 0 .36-.016.797-.25 1.141-.204.313-.563.453-.922.453zm4.979-5.265v.265c.53 0 .609.047.609.438v1.687a1.409 1.409 0 0 0-1.078-.469c-1 0-1.875.782-1.875 1.797 0 .985.797 1.797 1.797 1.797.468 0 .859-.219 1.125-.5v.5l1.218-.078v-.266c-.546 0-.609-.046-.609-.437v-4.828Zm.578 4.453c0 .14 0 .172-.125.328a1.146 1.146 0 0 1-.953.515c-.375 0-.688-.187-.875-.484-.22-.313-.266-.703-.266-1.078 0-.469.078-.797.266-1.063.187-.296.546-.53.953-.53.375 0 .765.202 1 .609zm4.796-.828c.172 0 .219 0 .219-.188 0-.703-.391-1.547-1.516-1.547-.984 0-1.766.813-1.766 1.797 0 1.031.86 1.828 1.875 1.828 1 0 1.407-.844 1.407-1.031a.12.12 0 0 0-.125-.11c-.094 0-.11.047-.125.094a1.14 1.14 0 0 1-1.11.797c-.36 0-.734-.156-.969-.531-.234-.36-.234-.875-.234-1.11Zm-2.344-.22c.078-1.109.75-1.296 1.047-1.296.937 0 .969 1.125.969 1.297zm5.435-.269c.047-.203.047-.203.297-.203h.594c.594 0 1.031.14 1.031.625 0 .203-.093.64-.5.86-.234.14-.562.218-.968.218h-.844Zm1.22 1.61c.577-.14 1.343-.547 1.343-1.125 0-.5-.625-.938-1.563-.938h-1.921c-.125 0-.204 0-.204.156 0 .094.079.094.188.094.11 0 .266 0 .39.031 0 .063 0 .11-.03.204l-.782 3.109c-.047.219-.062.266-.516.266-.125 0-.14 0-.171.015-.032.016-.047.094-.047.14 0 .016.015.079.093.079.188 0 .625-.031.797-.031.375 0-.015 0 .422.015.125 0 .266.016.39.016.048 0 .079 0 .11-.047.016-.016.031-.078.031-.11-.015-.077-.062-.077-.203-.077-.078 0-.156-.016-.234-.016-.11-.016-.14-.016-.14-.078 0-.031 0-.047.015-.11l.375-1.5h.875c.516 0 .781.235.781.516 0 .078-.047.281-.094.422-.062.266-.078.36-.078.469 0 .437.407.656.922.656.563 0 .828-.563.828-.703 0-.031-.03-.094-.11-.094-.077 0-.108.047-.108.094-.141.406-.438.5-.579.5-.156 0-.296-.047-.296-.406 0-.141.046-.47.062-.625 0-.063.031-.188.031-.235 0-.39-.312-.594-.578-.687zm0 0"/></svg>