<svg xmlns="http://www.w3.org/2000/svg" width="82.66pt" height="82.66pt" viewBox="0 0 82.66 82.66"><defs><clipPath id="a"><path d="M50 0h32.66v33H50Zm0 0"/></clipPath><clipPath id="b"><path d="M0 50h33v32.66H0Zm0 0"/></clipPath><clipPath id="c"><path d="M50 50h32.66v32.66H50Zm0 0"/></clipPath></defs><path fill="none" stroke="#000" stroke-miterlimit="10" stroke-width=".399" d="M26.957 16.414c0-5.824-4.719-10.547-10.543-10.547-5.824 0-10.547 4.723-10.547 10.547 0 5.824 4.723 10.543 10.547 10.543 5.824 0 10.543-4.719 10.543-10.543Zm0 0"/><path d="M16.54 13.98c0-.563-.266-.735-.454-.735-.265 0-.515.266-.515.5 0 .141.046.204.171.313.22.219.36.484.36.86 0 .452-.64 2.859-1.875 2.859-.532 0-.782-.375-.782-.922 0-.578.282-1.36.61-2.219.078-.188.125-.328.125-.531 0-.469-.328-.86-.86-.86-.984 0-1.39 1.516-1.39 1.61 0 .11.11.11.14.11.094 0 .11-.017.157-.188.312-1.063.765-1.297 1.062-1.297.094 0 .266 0 .266.328 0 .265-.11.547-.172.734-.469 1.219-.61 1.703-.61 2.156 0 1.141.922 1.297 1.407 1.297 1.765 0 2.36-3.468 2.36-4.015zm2.51 1.043c0-.187 0-.187-.203-.187-.453.437-1.078.437-1.36.437v.25c.157 0 .626 0 1-.187v3.547c0 .234 0 .328-.687.328h-.265v.25c.125 0 .984-.031 1.234-.031.219 0 1.094.031 1.25.031v-.25h-.266c-.703 0-.703-.094-.703-.328zm0 0"/><g clip-path="url(#a)"><path fill="none" stroke="#000" stroke-miterlimit="10" stroke-width=".399" d="M76.793 16.414c0-5.824-4.723-10.547-10.547-10.547-5.824 0-10.543 4.723-10.543 10.547 0 5.824 4.719 10.543 10.543 10.543 5.824 0 10.547-4.719 10.547-10.543Zm0 0"/></g><path d="M66.374 13.98c0-.563-.265-.735-.453-.735-.266 0-.516.266-.516.5 0 .141.047.204.172.313.22.219.36.484.36.86 0 .452-.64 2.859-1.875 2.859-.532 0-.782-.375-.782-.922 0-.578.282-1.36.61-2.219.078-.188.125-.328.125-.531 0-.469-.328-.86-.86-.86-.984 0-1.39 1.516-1.39 1.61 0 .11.11.11.14.11.094 0 .11-.017.157-.188.312-1.063.765-1.297 1.062-1.297.094 0 .266 0 .266.328 0 .265-.11.547-.172.734-.469 1.219-.61 1.703-.61 2.156 0 1.141.922 1.297 1.407 1.297 1.765 0 2.36-3.468 2.36-4.015zm3.699 4.215h-.235c-.015.157-.094.563-.187.625-.047.047-.578.047-.688.047h-1.281c.734-.64.984-.844 1.39-1.172.516-.406 1-.843 1-1.5 0-.843-.734-1.359-1.624-1.359-.86 0-1.454.61-1.454 1.25 0 .344.297.39.375.39.157 0 .36-.124.36-.374 0-.125-.047-.375-.406-.375.218-.485.687-.641 1.015-.641.703 0 1.063.547 1.063 1.11 0 .609-.438 1.077-.657 1.327l-1.671 1.672c-.079.063-.079.078-.079.266h2.875zm0 0"/><g clip-path="url(#b)"><path fill="none" stroke="#000" stroke-miterlimit="10" stroke-width=".399" d="M26.957 66.246c0-5.824-4.719-10.543-10.543-10.543-5.824 0-10.547 4.719-10.547 10.543 0 5.824 4.723 10.547 10.547 10.547 5.824 0 10.543-4.723 10.543-10.547Zm0 0"/></g><path d="M16.54 63.814c0-.563-.266-.735-.454-.735-.265 0-.515.266-.515.5 0 .141.046.204.171.313.22.219.36.484.36.86 0 .452-.64 2.859-1.875 2.859-.532 0-.782-.375-.782-.922 0-.578.282-1.36.61-2.219.078-.187.125-.328.125-.531 0-.469-.328-.86-.86-.86-.984 0-1.39 1.516-1.39 1.61 0 .11.11.11.14.11.094 0 .11-.016.157-.188.312-1.063.765-1.297 1.062-1.297.094 0 .266 0 .266.328 0 .266-.11.547-.172.734-.469 1.219-.61 1.703-.61 2.157 0 1.14.922 1.296 1.407 1.296 1.765 0 2.36-3.468 2.36-4.015zm2.088 3.153c.547 0 .938.375.938 1.125 0 .86-.516 1.125-.906 1.125-.282 0-.907-.078-1.188-.5.328 0 .406-.235.406-.39 0-.22-.172-.376-.39-.376a.38.38 0 0 0-.391.406c0 .657.719 1.079 1.563 1.079.968 0 1.64-.657 1.64-1.344 0-.547-.437-1.094-1.203-1.25.719-.266.984-.781.984-1.219 0-.547-.625-.953-1.406-.953-.765 0-1.36.375-1.36.937 0 .235.157.36.36.36.219 0 .36-.156.36-.344 0-.203-.141-.36-.36-.375.25-.297.719-.375.985-.375.312 0 .75.156.75.75 0 .297-.094.625-.282.828-.218.266-.422.281-.765.313-.172.015-.188.015-.22.015-.015 0-.077.016-.077.094 0 .094.062.094.187.094zm0 0"/><g clip-path="url(#c)"><path fill="none" stroke="#000" stroke-miterlimit="10" stroke-width=".399" d="M76.793 66.246c0-5.824-4.723-10.543-10.547-10.543-5.824 0-10.543 4.719-10.543 10.543 0 5.824 4.719 10.547 10.543 10.547 5.824 0 10.547-4.723 10.547-10.547Zm0 0"/></g><path d="M66.374 63.814c0-.563-.265-.735-.453-.735-.266 0-.516.266-.516.5 0 .141.047.204.172.313.22.219.36.484.36.86 0 .452-.64 2.859-1.875 2.859-.532 0-.782-.375-.782-.922 0-.578.282-1.36.61-2.219.078-.187.125-.328.125-.531 0-.469-.328-.86-.86-.86-.984 0-1.39 1.516-1.39 1.61 0 .11.11.11.14.11.094 0 .11-.016.157-.188.312-1.063.765-1.297 1.062-1.297.094 0 .266 0 .266.328 0 .266-.11.547-.172.734-.469 1.219-.61 1.703-.61 2.157 0 1.14.922 1.296 1.407 1.296 1.765 0 2.36-3.468 2.36-4.015zm3.87 4.34v-.25h-.78v-3.109c0-.14 0-.203-.141-.203-.094 0-.125 0-.188.11l-2.312 3.202v.25h2.062v.563c0 .25 0 .328-.578.328h-.188v.25c.36-.016.797-.031 1.047-.031.266 0 .703.015 1.063.031v-.25h-.188c-.578 0-.578-.078-.578-.328v-.563zm-1.312-2.797v2.547h-1.844Zm0 0"/><path fill="none" stroke="#000" stroke-miterlimit="10" stroke-width=".399" d="M27.156 16.414h26.356"/><path d="m55.504 16.414-3.188-1.594 1.196 1.594-1.196 1.594"/><path fill="none" stroke="#000" stroke-miterlimit="10" stroke-width=".399" d="M16.414 27.156v26.356"/><path d="m16.414 55.504 1.594-3.188-1.594 1.196-1.594-1.196"/><path fill="none" stroke="#000" stroke-miterlimit="10" stroke-width=".399" d="M27.156 66.246h26.356"/><path d="m55.504 66.246-3.188-1.594 1.196 1.594-1.196 1.594"/><path fill="none" stroke="#000" stroke-miterlimit="10" stroke-width=".399" d="M58.652 58.652 25.418 25.418"/><path d="m24.012 24.012 1.125 3.379.281-1.973 1.973-.281"/></svg>