<svg xmlns="http://www.w3.org/2000/svg" xmlns:xlink="http://www.w3.org/1999/xlink" width="329" height="282.52" viewBox="0 0 246.75 211.89"><defs><path id="a" d="M3.094-6.719c0-.25 0-.281-.25-.281-.656.672-1.578.672-1.906.672V-6c.203 0 .828 0 1.375-.266v5.438c0 .375-.032.5-.985.5H1V0c.36-.031 1.281-.031 1.703-.031.422 0 1.328 0 1.703.031v-.328h-.343c-.938 0-.97-.11-.97-.5Zm0 0"/><path id="b" d="M1.328-.813 2.453-1.89C4.078-3.344 4.72-3.906 4.72-4.953 4.719-6.156 3.766-7 2.484-7A1.933 1.933 0 0 0 .531-5.094c0 .594.516.594.547.594.188 0 .547-.125.547-.563a.533.533 0 0 0-.547-.546c-.094 0-.11 0-.14.015.234-.687.812-1.078 1.421-1.078.954 0 1.407.86 1.407 1.719 0 .844-.532 1.672-1.11 2.312L.641-.39C.53-.266.53-.25.53 0h3.89l.298-1.828h-.266c-.047.312-.125.781-.234.937-.078.079-.766.079-1 .079Zm0 0"/><path id="c" d="M3.094-1.734v.921c0 .375-.031.485-.813.485h-.219V0c.438-.031.985-.031 1.422-.031.438 0 1 0 1.422.031v-.328h-.218c-.766 0-.797-.11-.797-.484v-.922h1.062v-.329H3.891v-4.765c0-.219 0-.281-.157-.281-.093 0-.14 0-.218.125L.296-2.063v.329Zm.062-.329H.594l2.562-3.906Zm0 0"/><path id="d" d="M1.719-4.797c-.485-.312-.532-.672-.532-.86 0-.64.688-1.077 1.422-1.077.766 0 1.438.546 1.438 1.312 0 .594-.406 1.094-1.031 1.469Zm1.531 1c.75-.39 1.266-.937 1.266-1.625C4.516-6.39 3.578-7 2.625-7 1.578-7 .719-6.219.719-5.234c0 .187.031.656.469 1.156.109.125.5.375.765.562-.61.297-1.516.891-1.516 1.938C.438-.468 1.516.234 2.61.234c1.188 0 2.188-.875 2.188-2 0-.375-.11-.843-.516-1.296-.203-.22-.36-.313-1.031-.735Zm-1.063.438 1.297.812c.297.203.797.516.797 1.156 0 .782-.797 1.329-1.656 1.329C1.719-.063.969-.72.969-1.579c0-.61.328-1.281 1.219-1.781Zm0 0"/><path id="e" d="M1.39-3.438v-.265c0-2.656 1.298-3.031 1.829-3.031.25 0 .703.062.922.421-.157 0-.579 0-.579.47 0 .327.266.484.485.484.172 0 .484-.094.484-.5C4.531-6.484 4.078-7 3.203-7 1.86-7 .438-5.64.438-3.312.438-.517 1.655.233 2.64.233c1.156 0 2.156-.984 2.156-2.375 0-1.328-.938-2.343-2.094-2.343-.719 0-1.11.53-1.312 1.046ZM2.64-.062c-.671 0-.984-.625-1.046-.782-.188-.5-.188-1.344-.188-1.531 0-.813.344-1.86 1.282-1.86.171 0 .656 0 .984.641.187.39.187.922.187 1.438 0 .5 0 1.031-.187 1.406-.313.64-.797.688-1.031.688Zm0 0"/><path id="f" d="M3.047-3.703c.86-.281 1.469-1.016 1.469-1.844C4.516-6.407 3.594-7 2.578-7c-1.062 0-1.86.64-1.86 1.438 0 .343.235.546.548.546a.517.517 0 0 0 .53-.53c0-.532-.5-.532-.655-.532.328-.516 1.015-.656 1.406-.656.422 0 1 .234 1 1.187 0 .125-.016.734-.297 1.188-.313.5-.672.53-.922.546a4.133 4.133 0 0 1-.422.032c-.078.015-.156.015-.156.125 0 .125.078.125.25.125h.469c.86 0 1.25.703 1.25 1.734C3.719-.375 3-.063 2.53-.063c-.453 0-1.234-.171-1.61-.796.376.046.688-.188.688-.579a.57.57 0 0 0-.578-.593c-.25 0-.593.156-.593.61 0 .952.984 1.655 2.124 1.655 1.282 0 2.235-.953 2.235-2.03 0-.86-.656-1.673-1.75-1.907Zm0 0"/><path id="k" d="M3.031 0v-.281h-.219c-.718 0-.75-.11-.75-.438v-4.718c0-.329.032-.438.75-.438h.22v-.266c-.376.016-.985.016-1.36.016-.39 0-1 0-1.375-.016v.266h.219c.718 0 .75.11.75.438V-.72c0 .328-.032.438-.75.438h-.22V0c.376-.031.985-.031 1.376-.031.375 0 .984 0 1.36.031Zm0 0"/><path id="l" d="M4.922 0v-.281c-.453 0-.688 0-.688-.281v-1.72c0-.75 0-1.015-.25-1.327-.218-.25-.562-.375-1-.375-.843 0-1.234.625-1.359.875v-.875l-1.313.109v.281c.61 0 .704.063.704.5v2.406c0 .407-.11.407-.704.407V0c.422-.016.594-.031 1.032-.031.422 0 .547.015 1.015.031v-.281c-.593 0-.687 0-.687-.406v-1.641c0-.953.672-1.422 1.25-1.422.531 0 .64.438.64.984v2.079c0 .406-.093.406-.687.406V0c.422-.016.594-.031 1.016-.031.437 0 .562.015 1.03.031Zm0 0"/><path id="m" d="M4.828-1.938c0-1.14-.89-2.046-1.953-2.046-.484 0-.938.203-1.266.578v-.578l-1.343.109v.281c.64 0 .703.047.703.438v4.203c0 .422-.11.422-.703.422v.281c.421-.016.593-.031 1.03-.031.438 0 .548.015 1.032.031v-.281c-.594 0-.703 0-.703-.422V-.437c.234.234.547.53 1.14.53 1.063 0 2.063-.859 2.063-2.03Zm-.781 0c0 1.016-.61 1.813-1.344 1.813-.406 0-.734-.234-.953-.547-.125-.187-.125-.203-.125-.375V-3.03a1.39 1.39 0 0 1 1.188-.688c.703 0 1.234.797 1.234 1.781Zm0 0"/><path id="n" d="M4.922 0v-.281c-.61 0-.688-.063-.688-.5v-3.203l-1.359.109v.281c.61 0 .688.063.688.5V-1.5c0 .797-.454 1.375-1.094 1.375-.75 0-.797-.39-.797-.875v-2.984l-1.36.109v.281c.704 0 .704.016.704.828v1.344c0 .578 0 .969.406 1.281.266.172.625.235.984.235.469 0 .922-.203 1.172-.735h.016v.735Zm0 0"/><path id="o" d="M3.078-1.11v-.515h-.25v.484c0 .657-.281.985-.61.985-.593 0-.593-.781-.593-.953v-2.485h1.297v-.281H1.625v-1.656h-.25c-.016.75-.328 1.672-1.203 1.703v.234h.781v2.485c0 1 .735 1.203 1.203 1.203.61 0 .922-.578.922-1.203Zm0 0"/><path id="p" d="M4.61-1.672c0-.5-.188-.906-.391-1.172-.39-.5-.797-.594-1.39-.734l-.782-.188c-.719-.171-.953-.75-.953-1.14 0-.61.484-1.188 1.234-1.188 1.156 0 1.625.86 1.766 1.782.015.156.031.203.14.203.125 0 .125-.063.125-.25v-1.735c0-.172 0-.25-.109-.25-.063 0-.078 0-.14.11-.11.171-.016.046-.329.515-.14-.172-.61-.625-1.453-.625-1.062 0-1.812.813-1.812 1.735 0 .703.421 1.14.468 1.187.407.39.563.438 1.641.688.719.171.797.187 1.094.5 0 0 .328.328.328.859 0 .625-.453 1.297-1.266 1.297C2.094-.078.844-.375.766-1.86.75-1.984.75-2.047.64-2.047c-.125 0-.125.078-.125.25v1.75c0 .172 0 .25.109.25C.688.203.688.187.75.078c.125-.156.031-.047.328-.515.563.546 1.266.64 1.719.64 1.094 0 1.812-.906 1.812-1.875Zm0 0"/><path id="q" d="M2.281 0v-.281c-.594 0-.625-.047-.625-.39v-3.313L.36-3.875v.281c.579 0 .657.047.657.485v2.421c0 .407-.094.407-.688.407V0c.406-.016.594-.031.984-.031.141 0 .532 0 .97.031Zm-.515-5.422a.468.468 0 0 0-.485-.484.477.477 0 0 0-.484.484c0 .266.219.484.484.484a.477.477 0 0 0 .485-.484Zm0 0"/><path id="r" d="M3.719-1.703h-.25C3.375-.72 3.266-.25 2.14-.25H1.078L3.61-3.594c.079-.094.079-.11.079-.156 0-.125-.094-.125-.235-.125H.484L.391-2.406h.25c.046-.922.218-1.25 1.234-1.25h1L.344-.312c-.078.109-.078.124-.078.171C.266 0 .344 0 .5 0h3.063Zm0 0"/><path id="s" d="M3.844-1.078c0-.063-.047-.11-.125-.11-.094 0-.125.063-.125.094a1.287 1.287 0 0 1-1.25.938c-.422 0-.797-.235-1-.547-.297-.438-.313-.985-.313-1.36h2.563c.203 0 .25 0 .25-.187 0-.922-.5-1.781-1.656-1.781-1.079 0-1.922.937-1.922 2.047 0 1.187.937 2.078 2.03 2.078 1.11 0 1.548-.953 1.548-1.172Zm-.61-1.203H1.047c.078-1.375.89-1.531 1.14-1.531.5 0 1.032.39 1.047 1.53Zm0 0"/><path id="t" d="M3.063 2.14c0-.046-.016-.078-.079-.14C1.828.937 1.47-.672 1.47-2.25c0-1.39.281-3.094 1.547-4.297a.142.142 0 0 0 .046-.11c0-.062-.03-.093-.093-.093-.11 0-.922.64-1.406 1.625-.438.875-.657 1.797-.657 2.86 0 .656.078 1.687.578 2.75.532 1.093 1.375 1.75 1.485 1.75.062 0 .094-.032.094-.094Zm0 0"/><path id="v" d="M2.688-2.266c0-.734-.11-1.718-.579-2.718C1.58-6.094.734-6.75.625-6.75c-.078 0-.11.078-.11.094 0 .047.032.078.094.14.516.47 1.5 1.688 1.5 4.25C2.11-.969 1.875.813.58 2.031c-.016.031-.063.063-.063.11 0 .03.03.093.109.093.11 0 .922-.64 1.406-1.625.438-.859.656-1.78.656-2.875Zm0 0"/><path id="u" d="M1.703-1.406c.094-.438.266-1.094.281-1.157.016-.062.235-.484.563-.796.265-.25.61-.391.953-.391.484 0 .484.469.484.625 0 .547-.421 1.656-.515 1.922-.11.281-.14.375-.14.547 0 .484.358.75.765.75.86 0 1.218-1.282 1.218-1.375 0-.047-.03-.11-.125-.11-.093 0-.109.047-.14.157-.219.765-.594 1.109-.922 1.109-.063 0-.234 0-.234-.281 0-.235.093-.469.171-.672.172-.453.532-1.406.532-1.906 0-.797-.594-1-1.063-1-.844 0-1.281.593-1.422.796-.062-.5-.421-.796-.875-.796-.375 0-.562.28-.687.53a4.173 4.173 0 0 0-.281.86c0 .078.062.11.125.11.093 0 .109-.047.156-.22.172-.718.36-1.046.672-1.046.265 0 .265.281.265.422 0 .187-.078.469-.125.703-.062.234-.156.625-.187.719L.812-.422C.75-.203.75-.188.75-.156c0 .11.078.25.281.25.125 0 .25-.078.313-.188.031-.047.11-.344.156-.515Zm0 0"/><path id="w" d="M-.797-6.766c-.062 0-.172 0-.172.125 0 .11.094.11.156.125.563.047.782.329.782.61 0 .281-.172.375-.328.453-.204.078-.813.156-1.22.219-.562.062-1.155.156-1.468 1.14-.25-.843-.781-1.547-1.484-1.547-.89 0-1.61 1.094-1.61 2.407V-.36h.266v-.204c0-.703.11-.718.438-.718H-.72c.344 0 .438.015.438.718v.204H0c-.031-.422-.031-.875-.031-1.313 0-.422 0-.875.031-1.312h-.281v.218c0 .688-.094.704-.438.704h-2.25v-1.079c0-.64.344-.937.39-.968.329-.282.47-.282 1.11-.282.594 0 .985 0 1.328-.421.344-.422.344-.97.344-1.063 0-.766-.781-.89-1-.89ZM-4.53-4.719c.781 0 1.343.39 1.343 1.61v1.046H-5.5c-.234 0-.313-.015-.344-.187-.031-.078-.031-.375-.031-.563 0-.765 0-1.906 1.344-1.906Zm0 0"/><path id="x" d="M0-4.922h-.281c0 .61-.063.688-.5.688h-3.203l.109 1.359h.281c0-.61.063-.688.5-.688H-1.5c.797 0 1.375.454 1.375 1.094 0 .75-.39.797-.875.797h-2.984l.109 1.36h.281c0-.704.016-.704.828-.704h1.344c.578 0 .969 0 1.281-.406.172-.266.235-.625.235-.984 0-.469-.203-.922-.735-1.172v-.016h.735Zm0 0"/><path id="y" d="M0-4.922h-.281c0 .453 0 .688-.281.688h-1.72c-.75 0-1.015 0-1.327.25-.25.218-.375.562-.375 1 0 .843.625 1.234.875 1.359h-.875l.109 1.313h.281c0-.61.063-.704.5-.704h2.406c.407 0 .407.11.407.704H0c-.016-.422-.031-.594-.031-1.032 0-.422.015-.547.031-1.015h-.281c0 .593 0 .687-.406.687h-1.641c-.953 0-1.422-.672-1.422-1.25 0-.531.438-.64.984-.64h2.079c.406 0 .406.093.406.687H0c-.016-.422-.031-.594-.031-1.016 0-.437.015-.562.031-1.03Zm0 0"/><path id="z" d="M0-2.281h-.281c0 .594-.047.625-.39.625h-3.313l.109 1.297h.281c0-.579.047-.657.485-.657h2.421c.407 0 .407.094.407.688H0c-.016-.406-.031-.594-.031-.984 0-.141 0-.532.031-.97Zm-5.422.515a.468.468 0 0 0-.484.485c0 .265.203.484.484.484a.487.487 0 0 0 .484-.484.477.477 0 0 0-.484-.485Zm0 0"/><path id="A" d="M-3.625-4.484A.457.457 0 0 0-4.078-4c0 .25.094.656.422.969-.203.25-.328.594-.328.984 0 .844.625 1.5 1.328 1.5.453 0 .781-.265.922-.422.015.031.328.281.75.281.296 0 .625-.156.78-.39.157.453.485.812.907.812.64 0 1.156-.89 1.156-2.03 0-1.11-.484-2.063-1.171-2.063-.375 0-.766.171-.985.5-.312.515-.312 1.03-.312 1.89 0 .172 0 .469-.016.532-.063.265-.297.437-.594.437a.684.684 0 0 1-.39-.125c.14-.219.28-.5.28-.922 0-.844-.609-1.5-1.327-1.5-.438 0-.75.25-.875.375-.328-.36-.328-.781-.328-.89.03.046.078.109.234.109.11 0 .281-.063.281-.266a.267.267 0 0 0-.281-.265Zm.969 1.625c.203 0 1.078 0 1.078.812 0 .813-.875.813-1.078.813-.235 0-.547-.032-.766-.172a.874.874 0 0 1-.312-.64c0-.813.875-.813 1.078-.813Zm3.344-1c.515 0 .921.703.921 1.546 0 .876-.421 1.547-.921 1.547-.141 0-.735-.093-.735-.859v-.828c0-.297.016-1.406.735-1.406Zm0 0"/><path id="B" d="m-4.063-6.344-2.03.188v5.64l2.03.188v-.25c-1.484-.14-1.75-.313-1.75-1.656 0-.172 0-.438.016-.532.031-.156.125-.171.36-.171H-.72c.313 0 .438 0 .438.953v.343H0c-.031-.328-.031-1.312-.031-1.703 0-.375 0-1.375.031-1.703h-.281v.36c0 .937-.125.937-.438.937h-4.718c-.235 0-.329 0-.36-.188-.016-.078-.016-.328-.016-.484 0-1.36.266-1.531 1.75-1.656Zm0 0"/><path id="C" d="M0-7.5h-.281c0 .469 0 .688-.281.703h-1.72c-.78 0-1.046 0-1.374.297-.219.188-.328.547-.328.953 0 .656.39 1.094.859 1.344-.531.11-.86.469-.86 1.219 0 .718.47 1.171.891 1.359h-.89l.109 1.313h.281c0-.61.063-.704.5-.704h2.406c.407 0 .407.11.407.704H0c-.016-.422-.031-.594-.031-1.032 0-.422.015-.547.031-1.015h-.281c0 .593 0 .687-.406.687h-1.641c-.969 0-1.422-.703-1.422-1.25 0-.484.344-.656.984-.656h2.079c.406 0 .406.11.406.703H0c-.016-.422-.031-.594-.031-1.031 0-.438.015-.547.031-1.031h-.281c0 .593 0 .703-.406.703h-1.641c-.969 0-1.422-.704-1.422-1.25 0-.485.344-.657.984-.657h2.079c.406 0 .406.11.406.704H0c-.016-.438-.031-.594-.031-1.032 0-.437.015-.547.031-1.031Zm0 0"/><path id="D" d="M-1.078-3.844c-.063 0-.11.047-.11.125 0 .094.063.125.094.125.922.313.938 1.11.938 1.25 0 .422-.235.797-.547 1-.438.297-.985.313-1.36.313v-2.563c0-.203 0-.25-.187-.25-.922 0-1.781.5-1.781 1.656 0 1.079.937 1.922 2.047 1.922 1.187 0 2.078-.937 2.078-2.03 0-1.11-.953-1.548-1.172-1.548Zm-1.203.61v2.187c-1.375-.078-1.531-.89-1.531-1.14 0-.5.39-1.032 1.53-1.047Zm0 0"/><path id="E" d="M2.672 0v-.328c-.703 0-.813 0-.813-.469V-7.28l-1.515.11v.327c.734 0 .828.078.828.578v5.47c0 .468-.125.468-.828.468V0l1.172-.031Zm0 0"/><path id="F" d="M4.953-2.25c0-1.344-1.062-2.453-2.328-2.453-1.313 0-2.328 1.14-2.328 2.453C.297-.89 1.39.11 2.609.11a2.334 2.334 0 0 0 2.344-2.36Zm-.875-.078c0 .375 0 .937-.234 1.406-.235.469-.688.781-1.219.781-.453 0-.906-.234-1.203-.703-.25-.469-.25-1.11-.25-1.484 0-.406 0-.985.25-1.438a1.386 1.386 0 0 1 1.187-.703c.47 0 .922.235 1.188.672.281.453.281 1.063.281 1.469Zm0 0"/><path id="G" d="M5.094-4.234c0-.188-.125-.516-.532-.516-.218 0-.671.063-1.125.484a1.74 1.74 0 0 0-1.109-.375c-.969 0-1.703.72-1.703 1.532 0 .468.234.859.5 1.078-.14.156-.328.515-.328.875 0 .328.14.718.469.937C.625-.047.296.406.296.828c0 .75 1.032 1.328 2.313 1.328 1.25 0 2.344-.531 2.344-1.344 0-.375-.156-.906-.687-1.203-.563-.296-1.172-.296-1.813-.296h-.781c-.344-.047-.563-.375-.563-.704 0-.046 0-.296.188-.5a1.74 1.74 0 0 0 1.031.329c.985 0 1.703-.72 1.703-1.532 0-.39-.172-.781-.437-1.015.39-.36.765-.422.953-.422 0 0 .078 0 .11.015-.126.047-.173.157-.173.282a.3.3 0 0 0 .297.312c.11 0 .313-.078.313-.312ZM3.25-3.11c0 .28-.016.625-.172.89a.902.902 0 0 1-.75.406c-.906 0-.906-1.046-.906-1.28 0-.282 0-.626.156-.891.094-.125.328-.422.75-.422.922 0 .922 1.062.922 1.297ZM4.406.828c0 .563-.75 1.094-1.781 1.094C1.562 1.922.844 1.39.844.828a.92.92 0 0 1 .86-.906h.624c.89 0 2.078 0 2.078.906Zm0 0"/><path id="H" d="M.922-.625C.89-.469.828-.219.828-.172c0 .188.14.281.313.281a.4.4 0 0 0 .375-.28c.015-.032.14-.516.203-.782l.234-.953a7.62 7.62 0 0 0 .172-.703c.047-.172.125-.485.14-.516.157-.328.72-1.281 1.72-1.281.468 0 .562.39.562.734 0 .64-.516 1.985-.688 2.438-.093.25-.093.375-.093.484 0 .5.359.86.859.86C5.609.11 6-1.423 6-1.5c0-.11-.094-.11-.125-.11-.11 0-.11.032-.156.188C5.5-.703 5.156-.109 4.64-.109c-.172 0-.25-.11-.25-.36s.093-.5.187-.734c.203-.563.64-1.719.64-2.313 0-.703-.452-1.125-1.202-1.125-.954 0-1.47.672-1.641.907a.948.948 0 0 0-.969-.907c-.484 0-.687.407-.781.594-.172.36-.328.984-.328 1.016 0 .11.11.11.14.11.094 0 .11 0 .172-.235.172-.75.391-1.25.766-1.25.203 0 .328.125.328.484 0 .219-.031.328-.172.875Zm0 0"/><path id="I" d="M3.516-1.266H3.28c-.015.157-.094.563-.187.625-.047.047-.578.047-.688.047h-1.28c.734-.64.984-.844 1.39-1.172.516-.406 1-.843 1-1.5 0-.843-.734-1.359-1.624-1.359-.86 0-1.454.61-1.454 1.25 0 .344.297.39.376.39a.365.365 0 0 0 .359-.374c0-.125-.047-.375-.406-.375.218-.485.687-.641 1.015-.641.703 0 1.063.547 1.063 1.11 0 .609-.438 1.078-.656 1.328L.516-.266C.437-.203.437-.187.437 0h2.876Zm0 0"/><path id="J" d="M1.906-2.328c.547 0 .938.375.938 1.125 0 .86-.516 1.125-.906 1.125-.282 0-.907-.078-1.188-.5.328 0 .406-.235.406-.39 0-.22-.172-.376-.39-.376a.38.38 0 0 0-.391.407C.375-.281 1.094.14 1.938.14c.968 0 1.64-.657 1.64-1.344 0-.547-.437-1.094-1.203-1.25.719-.266.984-.781.984-1.219 0-.547-.625-.953-1.406-.953-.766 0-1.36.375-1.36.938 0 .234.157.359.36.359.219 0 .36-.156.36-.344 0-.203-.141-.36-.36-.375.25-.297.719-.375.985-.375.312 0 .75.156.75.75 0 .297-.094.625-.282.828-.219.266-.422.281-.765.313-.172.015-.188.015-.22.015-.015 0-.077.016-.077.094 0 .094.062.094.187.094Zm0 0"/><path id="K" d="M.844-.438C.828-.344.78-.171.78-.156c0 .156.125.218.235.218a.377.377 0 0 0 .28-.14c.032-.063.079-.297.126-.438.031-.125.11-.453.14-.625.047-.156.094-.312.125-.468.079-.282.094-.344.297-.625.188-.282.516-.641 1.047-.641.39 0 .406.36.406.484 0 .422-.296 1.188-.406 1.485-.078.203-.11.265-.11.375 0 .375.298.594.657.594.703 0 1-.954 1-1.063 0-.094-.078-.094-.11-.094-.093 0-.093.047-.124.125-.157.563-.469.844-.735.844-.156 0-.187-.094-.187-.25s.047-.25.172-.563c.078-.218.36-.953.36-1.343 0-.672-.532-.797-.907-.797-.578 0-.969.36-1.172.64-.047-.484-.453-.64-.75-.64s-.453.219-.547.375c-.156.265-.25.656-.25.703 0 .078.094.078.125.078.094 0 .094-.016.14-.203.11-.406.25-.75.516-.75.188 0 .235.156.235.344 0 .125-.063.39-.125.578-.047.187-.11.469-.14.625Zm0 0"/><clipPath id="g"><path d="M40.691 147h194.27v26.941H40.69Zm0 0"/></clipPath><clipPath id="h"><path d="M40.691 122h194.27v51.941H40.69Zm0 0"/></clipPath><clipPath id="i"><path d="M40.691 41h194.27v132.941H40.69Zm0 0"/></clipPath><clipPath id="j"><path d="M40.691 12.547h194.27V173.94H40.69Zm0 0"/></clipPath></defs><path fill="none" stroke="#7F7F7F" stroke-miterlimit="10" stroke-width=".199" d="M40.691 176.066v-4.25m27.754 4.25v-4.25m55.508 4.25v-4.25m111.008 4.25v-4.25m-196.395-18.05h4.254m-4.254-20.172h4.254m-4.254-40.348h4.254m-4.254-80.7h4.254"/><path fill="none" stroke="#000" stroke-miterlimit="10" stroke-width=".399" d="M40.691 173.941h193.813"/><path fill="none" stroke="#000" stroke-linecap="round" stroke-linejoin="round" stroke-miterlimit="10" stroke-width=".319" d="M233.309 172.348c.097.597 1.195 1.492 1.492 1.593-.297.098-1.395.996-1.492 1.594"/><path fill="none" stroke="#000" stroke-miterlimit="10" stroke-width=".399" d="M40.691 173.941V13.004"/><path fill="none" stroke="#000" stroke-linecap="round" stroke-linejoin="round" stroke-miterlimit="10" stroke-width=".319" d="M39.098 14.203c.597-.101 1.496-1.2 1.593-1.496.102.297.996 1.395 1.594 1.496"/><use xlink:href="#a" x="38.068" y="186.533"/><use xlink:href="#b" x="65.821" y="186.533"/><use xlink:href="#c" x="121.326" y="186.533"/><use xlink:href="#d" x="232.337" y="186.533"/><use xlink:href="#c" x="29.618" y="157.15"/><use xlink:href="#d" x="29.618" y="136.976"/><use xlink:href="#a" x="24.368" y="96.628"/><use xlink:href="#e" x="29.618" y="96.628"/><use xlink:href="#f" x="24.368" y="15.931"/><use xlink:href="#b" x="29.618" y="15.931"/><g clip-path="url(#g)"><path fill="none" stroke="#66F" stroke-miterlimit="10" stroke-width=".797" d="m40.691 173.941.383-.097.758-.196.379-.093.383-.094.758-.188.382-.09.38-.09.757-.171.383-.086.758-.172.379-.082.382-.082.38-.082.378-.078.38-.082.382-.078.758-.157.379-.074.383-.074.757-.148.383-.075.379-.074.758-.14.383-.07.757-.141.38-.067.382-.066 1.137-.2.383-.066.379-.066.757-.125.383-.063.758-.125.383-.062.379-.063.758-.117.382-.059.38-.062.378-.059.38-.054.382-.059.379-.059.758-.109.382-.059 1.137-.164.383-.054.379-.055.379-.05.383-.055.757-.102.38-.055.382-.05 1.137-.153.383-.05.379-.051.379-.047.378-.051.383-.047.38-.05.757-.094.383-.047.758-.094.382-.047.758-.094.38-.043.382-.047.379-.042.379-.047.379-.043.382-.047 1.137-.13.383-.042 1.137-.129.382-.043.38-.043.378-.039.383-.043.379-.039.379-.043.379-.039.383-.043 1.136-.117.383-.043 1.137-.117.383-.04.379-.038.379-.036.378-.039.383-.039.38-.039.378-.035.383-.039.379-.035.379-.04.379-.034.382-.04 1.137-.105.383-.039 1.137-.105.382-.036 1.137-.105.383-.035.379-.031.379-.036.383-.035.379-.035.378-.031.38-.035.382-.032.38-.035.378-.031.379-.035.383-.031.379-.036.757-.062.383-.035 1.137-.094.383-.031.758-.063.382-.031 1.137-.094.383-.031.758-.063.379-.027.382-.031.758-.063.38-.027.382-.031.379-.028.758-.062.382-.027.38-.032.378-.027.383-.027.379-.032.758-.054.383-.028.379-.03.757-.056.383-.03 1.137-.083.383-.027 1.136-.082.383-.028.758-.054.383-.028.379-.027.379-.023.379-.028.382-.027.38-.027.378-.024.38-.027.382-.028.379-.023.758-.055.382-.023.758-.055.383-.023.379-.024.379-.027.379-.023.383-.028.379-.023.378-.028.38-.023.382-.027.758-.047.379-.028.383-.023 1.136-.07.383-.028 1.137-.07.383-.023.758-.047.382-.024 1.137-.07.383-.023 1.137-.07.382-.024.758-.047.38-.02.382-.023.758-.047.383-.02 1.136-.07.383-.02.758-.046.379-.02.383-.023.379-.024.378-.02.38-.023.382-.02.38-.023.378-.019.379-.023.383-.02.379-.023.379-.02.382-.023.758-.04.38-.023.382-.02.379-.023.758-.039.382-.023.758-.04.38-.023.382-.02 1.137-.058.382-.023.758-.04.383-.019.758-.04.379-.023.383-.02 1.136-.058.383-.02 1.137-.058.383-.02 1.136-.058.383-.02.758-.038.383-.016 1.137-.059.382-.02.38-.019.378-.015.38-.02.382-.02.758-.039.379-.015.382-.02.758-.039.38-.015.382-.02.379-.02.379-.015.383-.02.379-.02.378-.015.38-.02.382-.019.379-.015.379-.02.379-.016.383-.02.379-.019.378-.015.38-.02.382-.015.38-.02.378-.016.379-.02.383-.015.379-.02.379-.015.382-.016.38-.02.378-.015.38-.02.382-.015.379-.015.379-.02.379-.016.382-.02.758-.03.38-.02.382-.016.379-.015.379-.02.379-.015.382-.016.38-.02.378-.015.383-.016.379-.015.379-.02.379-.016.383-.015.757-.031.38-.02.382-.016 1.137-.046.383-.016.379-.016.379-.02.378-.015.383-.015.758-.032.383-.015 1.137-.047.382-.016 1.137-.047.383-.015.379-.016.379-.02.379-.011.382-.016.38-.02.378-.015.38-.012.382-.015.758-.032.383-.015 1.136-.047.383-.016.379-.015.379-.012.379-.016.383-.015.757-.032.38-.011.382-.016 1.137-.047.383-.012.758-.03.382-.016.38-.016.378-.012.38-.015.382-.016.379-.016.379-.011.379-.016.382-.016.38-.015.378-.012.38-.016.382-.015.379-.012.379-.016.379-.011.382-.016.38-.015.378-.012.383-.016.379-.015.379-.012.379-.016.383-.015.379-.012.378-.016.38-.011.382-.016.38-.012.378-.015.379-.012.383-.016.379-.015.379-.012.378-.016.383-.011.38-.016.378-.012.383-.015.379-.012.379-.016.379-.012.382-.015.758-.024.38-.015.382-.012.379-.016.379-.011.379-.016.382-.012.38-.015.757-.024.383-.015.758-.024.383-.015.379-.012.378-.016.38-.011.382-.012.379-.012.379-.015.379-.012.383-.016 1.136-.035.383-.016.38-.011.378-.016.379-.012.383-.011.758-.024.382-.015 1.137-.036.383-.015.758-.024.379-.015.382-.012 1.137-.035.383-.016.379-.012"/></g><g clip-path="url(#h)"><path fill="none" stroke="#66CEF5" stroke-miterlimit="10" stroke-width=".797" d="m40.691 168.898 194.27-35.304"/></g><g clip-path="url(#i)"><path fill="none" stroke="#6F6" stroke-miterlimit="10" stroke-width=".797" d="m40.691 173.941.383-.101.758-.203.379-.106.383-.105.379-.106.379-.11.382-.108.38-.11.757-.226.383-.114.379-.117.379-.113.379-.121.382-.117 1.137-.364.383-.12.758-.25.379-.13.383-.125.757-.257.383-.133.379-.13.758-.265.383-.137.379-.132.757-.274.383-.14.38-.137.757-.281.383-.141 1.136-.434.383-.144.38-.145.378-.148.383-.149.758-.296.379-.153.382-.148.758-.305.38-.156.382-.153 1.137-.468.382-.156.38-.16.378-.157.38-.16.382-.16.379-.164.379-.16.383-.165.379-.164.378-.16.38-.168.382-.164.38-.164.757-.336.383-.168.379-.172.379-.168.378-.171.383-.172 1.137-.516.383-.176.379-.172.379-.175.382-.176.758-.352.38-.18.382-.175 1.137-.54.382-.179.38-.184.378-.18.38-.183.382-.183 1.137-.551.382-.184.758-.375.383-.187 1.137-.563.383-.187 1.136-.575.383-.19.758-.384.379-.195.383-.191 1.136-.586.383-.192.38-.199.378-.195.383-.2.379-.195.758-.398.382-.2.758-.398.38-.203.382-.2 1.137-.609.382-.199.38-.207.757-.406.383-.207.379-.203.379-.207.383-.207 1.136-.621.383-.211.38-.207.378-.211.379-.207.383-.211 1.136-.633.383-.215.758-.422.379-.215.383-.21.758-.43.382-.215.758-.43.38-.219.382-.214 1.137-.657.382-.218.38-.215.378-.223.38-.219.382-.218.379-.223.379-.219.379-.223.382-.218.758-.446.383-.222.379-.227.758-.445.383-.223.757-.453.38-.223.382-.226 1.137-.68.383-.226.379-.227.757-.46.383-.227.38-.23.378-.227.383-.235.379-.226.379-.23.379-.235.382-.23.758-.462.38-.234.382-.234.379-.23.379-.24.379-.234.382-.23.38-.238.378-.235.383-.234.379-.234.379-.239.379-.234.383-.238.379-.239.378-.234.38-.242.382-.238 1.137-.715.383-.243.379-.238.379-.242.378-.238.383-.242.758-.485.379-.238.383-.242.379-.242.379-.247.382-.242.38-.242.378-.246.38-.242.382-.246.379-.243.758-.492.382-.246 1.137-.738.383-.246.379-.25.379-.246.383-.246.757-.5.38-.246.382-.25 1.137-.75.383-.25.757-.5.38-.254.382-.25.38-.254.378-.25.379-.254.383-.254.379-.25.379-.254.382-.254 1.137-.762.383-.254.379-.253.379-.258.379-.254.382-.258.38-.254.757-.515.383-.258.379-.254.758-.516.382-.258.38-.261.378-.258.383-.258.379-.262.758-.515.383-.262.379-.262.378-.258.38-.261.382-.262 1.137-.785.383-.262.379-.266.757-.523.383-.262.38-.265.378-.262.383-.266.379-.261.758-.532.382-.265 1.137-.797.383-.266.758-.531.379-.27.382-.265.38-.27.378-.265.38-.27.382-.27.379-.265.379-.27.383-.269.379-.266.757-.539.383-.273 1.137-.809.383-.273.379-.27.378-.273.38-.27.382-.27 1.137-.82.383-.273.379-.273.379-.27.382-.273.38-.278.378-.273.38-.27.382-.277.379-.273.379-.278.379-.273.382-.281.38-.274.378-.27.38-.277.382-.281 1.137-.832.382-.277.38-.27.378-.277.383-.278.379-.277.379-.29.379-.276.383-.278.379-.281.757-.555.383-.277.38-.285.757-.555.383-.285.379-.277.379-.286.378-.277.383-.281.38-.285.378-.278.383-.285.758-.562.379-.285.382-.286.38-.285.378-.277.38-.29.382-.276.379-.29.379-.28.379-.286.382-.285.38-.285.378-.29.38-.277.382-.293.379-.289.379-.281.383-.285.379-.285.378-.293.38-.281.382-.29.379-.289.379-.285.379-.289.383-.281.379-.293.757-.578.383-.285.38-.293.378-.29.379-.285.383-.285.379-.3.379-.286.382-.293.38-.293.378-.28.38-.294.382-.293 1.137-.879.382-.285.38-.289.378-.297.38-.293.382-.293.379-.293.379-.285.379-.297.382-.293.38-.3.378-.29.383-.292.379-.293.379-.305.379-.285.383-.293.379-.293.378-.305.38-.289.382-.293.38-.297.757-.586.383-.304.379-.297.379-.293.378-.301.383-.297.38-.293.378-.305.383-.293.379-.296.379-.293.379-.301.382-.297.38-.305.378-.293.38-.304.382-.301.379-.293.379-.3.379-.298.382-.305.38-.296.378-.301.38-.297.382-.305.379-.293.379-.308.383-.301.379-.297.378-.309.38-.3.382-.301.379-.3.379-.31.379-.296.383-.305.379-.305.378-.293.38-.308.382-.297.38-.309.757-.601.383-.305.379-.309.379-.304.382-.297.758-.61.38-.308.382-.305.379-.3.758-.626.382-.293.38-.304.757-.617.383-.317.379-.297"/></g><g fill="none" stroke-miterlimit="10" stroke-width=".797" clip-path="url(#j)"><path stroke="#FFF766" d="m40.691 168.898.383-.14.758-.281.379-.149.383-.144.379-.149.379-.152.382-.153.38-.152.757-.312.383-.16 1.137-.493.382-.168.38-.168.757-.343.383-.176.379-.176.758-.36.383-.183.378-.184.38-.187.382-.188.758-.382.379-.196.383-.195.379-.195.378-.2.38-.203.382-.203 1.137-.62.383-.212.379-.21.379-.216.378-.218.383-.22.38-.218.378-.222.383-.223.379-.227.379-.23.379-.227.382-.234.758-.469.38-.238.382-.238 1.137-.727.382-.25.38-.246.378-.25.38-.254.382-.254.758-.516.383-.257.379-.266.378-.262.38-.265.382-.27.758-.539.379-.273.383-.274.379-.277.757-.563.383-.28.758-.571.379-.29.383-.288.758-.586.382-.297.38-.297.757-.602.383-.304.379-.305.758-.617.382-.313.758-.625.38-.32.382-.316.379-.32.758-.65.382-.323.38-.328.378-.332.383-.332.379-.333.758-.671.383-.34 1.136-1.031.383-.348.38-.348.757-.703.383-.355.379-.356.757-.719.383-.363.38-.363.378-.367.383-.368.379-.367.379-.375.379-.37.382-.376 1.52-1.52 1.137-1.16.382-.39 1.137-1.184.383-.398.379-.399.379-.402.383-.406.757-.813.38-.41.382-.41.758-.828.379-.418.383-.418 1.136-1.266.383-.43.38-.425.378-.43.379-.433.383-.434.758-.875.382-.438.38-.44.757-.892.383-.445.379-.45.758-.905.382-.453.758-.915.38-.46.382-.465.379-.461.379-.469.379-.465.382-.472.758-.946.383-.476.758-.954.379-.484.383-.48.379-.485.757-.976.383-.492.38-.493.757-.992.383-.496.379-.5.757-1.008.383-.504.38-.507.378-.512.383-.512.379-.512.758-1.03.382-.52.38-.52.378-.523.38-.528.382-.523 1.137-1.594.382-.535.758-1.07.383-.543.379-.54.379-.542.379-.547.383-.547.757-1.102.38-.554.382-.555.38-.555.378-.558.379-.563.383-.562.379-.563.379-.566.378-.57.383-.57.38-.571.757-1.149.383-.578.379-.578.379-.582.382-.586.38-.582.757-1.18.383-.59 1.137-1.78.382-.602.38-.598.378-.605.38-.602.382-.605.758-1.22.383-.612.757-1.227.38-.617.382-.621.758-1.242.379-.625.383-.63.757-1.257.38-.633.382-.633.38-.636.378-.641.379-.637.383-.644.758-1.29.382-.648.38-.648.757-1.305.383-.656.379-.657.758-1.32.382-.66.38-.664.757-1.336.383-.672.758-1.344.379-.675.382-.68.758-1.36.383-.683 1.137-2.063.383-.69.379-.696.378-.692.38-.699.382-.7.38-.698.757-1.407.383-.707.379-.707.757-1.422.383-.714.38-.715.378-.719.383-.719 1.137-2.168.382-.726.758-1.461.38-.735.382-.734.379-.734.379-.739.379-.742.382-.742.38-.742.378-.746.38-.75.382-.746.758-1.508.383-.754.757-1.516.38-.761.382-.762.758-1.531.379-.77.383-.77.757-1.546.38-.778.382-.777.758-1.562.379-.786.383-.785.379-.785.379-.789.382-.793.38-.793.757-1.594.383-.797.379-.8.758-1.61.382-.804.758-1.618.38-.812.382-.817.379-.812.758-1.64.382-.82.758-1.65.383-.827.379-.829.758-1.664.383-.832.379-.84.378-.835.38-.84.382-.844.38-.844.757-1.695.383-.848.379-.855.379-.852.378-.855.383-.86.758-1.718.383-.864.379-.863.379-.867.379-.871.382-.871.38-.871.757-1.75.383-.88.379-.878.758-1.766.382-.887.38-.886.757-1.782.383-.894.379-.895.379-.898.383-.899 1.136-2.707.383-.906.758-1.82.379-.914.383-.914.379-.914.378-.918.38-.922.382-.918 1.137-2.777.383-.93.379-.934.379-.93.382-.937.758-1.875.38-.941.382-.942.758-1.89.379-.95.382-.949 1.137-2.86.383-.96.379-.957.379-.961.379-.965.382-.965.758-1.937.383-.969.379-.973.758-1.953.383-.976.379-.98.757-1.97.383-.984.758-1.977.379-.992.383-.992.379-.996.379-1 .378-.996.383-1.004.38-1 .378-1.008.383-1.004.379-1.011.379-1.008.379-1.012.382-1.016.38-1.015.757-2.04.383-1.023.758-2.047.379-1.027.382-1.031.758-2.063.38-1.035.382-1.039.758-2.078.383-1.043 1.136-3.14.383-1.051.379-1.051.758-2.11.383-1.058.379-1.059.757-2.125.383-1.066.38-1.067.757-2.14.383-1.074.379-1.075.379-1.078.382-1.078.38-1.078.378-1.086.38-1.082.382-1.086 1.137-3.27.382-1.093 1.137-3.293.383-1.102.379-1.105"/><path stroke="#FFB266" d="m40.691 168.898.383-.21.38-.215.378-.223.379-.227.383-.234.379-.238.379-.246.382-.254.38-.258.378-.262.38-.273.382-.278.379-.285.379-.289.379-.297.382-.304.38-.313.378-.316.38-.328.382-.332.379-.34.379-.344.379-.355.383-.364.378-.367.762-.762.379-.394.379-.399.379-.41.383-.414.379-.426.378-.433.38-.442.382-.449.38-.457.378-.465.379-.472.383-.485.379-.492.379-.5.378-.508.383-.52.38-.527.378-.535.383-.547.379-.554.379-.563.379-.574.382-.586.38-.59.378-.601.38-.614.382-.62.379-.634.379-.64.379-.653.382-.66.38-.672.378-.683.38-.692.382-.703.379-.715.379-.722.383-.735.379-.746.378-.754.38-.77.382-.776.38-.79.378-.796.379-.813.383-.824.379-.832.379-.844.378-.86.383-.866.38-.88.378-.89.379-.906.383-.914.379-.926.379-.941.382-.95.38-.965.378-.976.38-.988.382-1 .379-1.012.379-1.027.379-1.04.382-1.05.38-1.063.378-1.078.38-1.09.382-1.101.379-1.118.379-1.128.379-1.141.382-1.156.38-1.172.378-1.18.383-1.2.379-1.206.379-1.227.379-1.234.383-1.254.379-1.266.378-1.277.38-1.293.382-1.308.38-1.325.378-1.336.379-1.351.383-1.363.379-1.383.379-1.395.378-1.406.383-1.426.38-1.441.378-1.453.383-1.47.379-1.484.379-1.5.761-3.046.38-1.543.378-1.563.38-1.578.382-1.59.379-1.61.379-1.624.379-1.64.382-1.657.38-1.672.378-1.687.38-1.704.382-1.722.379-1.739.379-1.753.383-1.77.379-1.785.378-1.805.38-1.82.382-1.84.38-1.852.378-1.87.379-1.891.383-1.903.379-1.925.379-1.938.378-1.957.383-1.976.38-1.993.378-2.011.379-2.028.383-2.043.379-2.066.379-2.078.382-2.102.38-2.117.378-2.137.38-2.152.382-2.172.379-2.191.379-2.207.379-2.23.382-2.247.38-2.266.378-2.28.38-2.305.382-2.32.379-2.34.379-2.36.379-2.379.382-2.398.38-2.418.378-2.438.383-2.457.379-2.476.379-2.496.379-2.512.383-2.54.379-2.554.378-2.574.38-2.594.382-2.617.38-2.633.378-2.656.379-2.676.383-2.7.379-2.714.379-2.738.378-2.758.383-2.777.38-2.801.378-2.82.383-2.84.379-2.864.379-2.882.379-2.907.382-2.925.38-2.95.378-2.968.38-2.989.382-3.011.379-3.036.379-3.054.379-3.078.382-3.098.38-3.121.378-3.145.383-3.168.379-3.183.379-3.211.379-3.235.383-3.253.379-3.278.378-3.297.38-3.324.382-3.344.38-3.37.378-3.391.379-3.414.383-3.434.379-3.461.379-3.484.378-3.508.383-3.528.38-3.554.378-3.578.379-3.602.383-3.621.379-3.648.379-3.672.382-3.696.38-3.722.378-3.742.38-3.77.382-3.79.379-3.82.379-3.84.379-3.862.382-3.891.38-3.914.378-3.942.38-3.964.382-3.989.379-4.011.379-4.04.383-4.066.379-4.086.378-4.117.38-4.137.382-4.164.379-4.191.379-4.219.379-4.238.383-4.27.379-4.293.378-4.32.38-4.344.382-4.37.38-4.395.378-4.426.379-4.45.383-4.476.379-4.5.379-4.527.382-4.559.38-4.582.378-4.605.38-4.637.382-4.66.379-4.692.379-4.715.379-4.742.382-4.773.38-4.797.378-4.824.38-4.852.382-4.883.379-4.906.379-4.933.379-4.965.382-4.993.38-5.015.378-5.047.383-5.074.379-5.106.379-5.129.379-5.16.383-5.187.379-5.215.378-5.246.38-5.27.382-5.304.38-5.329.378-5.359.379-5.387.383-5.418.379-5.445.379-5.476.378-5.504.383-5.536.38-5.562.378-5.59.383-5.625.379-5.648.379-5.684.379-5.71.382-5.74.38-5.773.378-5.8.38-5.828.382-5.864.379-5.89.379-5.922.379-5.95.382-5.984.38-6.012.378-6.043.38-6.074.382-6.101.379-6.137.379-6.168.383-6.195.379-6.23.378-6.259.38-6.289.382-6.324.379-6.351.379-6.387.379-6.414.383-6.45.379-6.48.378-6.512.38-6.543.382-6.574.38-6.61.378-6.636.379-6.672.383-6.703.379-6.734.379-6.77.382-6.8.38-6.833.378-6.867.38-6.898.382-6.934.379-6.96.379-7 .379-7.032.382-7.059.38-7.097.378-7.133.38-7.16.382-7.196.379-7.23.379-7.266.379-7.297.382-7.328.38-7.367.378-7.394.383-7.434.379-7.469.379-7.496.379-7.535.383-7.57.379-7.602.378-7.64.38-7.668.382-7.707.38-7.743.378-7.777.379-7.809.383-7.843.379-7.883.379-7.914.378-7.95.383-7.988.38-8.02.378-8.058.383-8.09.379-8.129.379-8.16.379-8.199.382-8.234.38-8.27.378-8.305.38-8.343.382-8.375.379-8.418.379-8.446.379-8.488.382-8.523.38-8.559.378-8.598.38-8.629.382-8.667.379-8.707.379-8.743.383-8.78.379-8.813.378-8.856.38-8.89.382-8.926.379-8.965.379-9 .379-9.043.383-9.078.379-9.114.378-9.152.38-9.191.382-9.227.38-9.265.378-9.305.379-9.34.383-9.379.379-9.422.379-9.453.382-9.496.38-9.531.378-9.574.38-9.61.382-9.648.379-9.688.379-9.726.379-9.766.382-9.805.38-9.843.378-9.883.38-9.922.382-9.961.379-10 .379-10.04.379-10.077.382-10.121.38-10.157.378-10.199.383-10.242.379-10.277.379-10.317.379-10.355.383-10.403.379-10.437.378-10.477.38-10.523.382-10.559.38-10.597.378-10.645.379-10.68.383-10.722.379-10.762.379-10.805.378-10.847.383-10.883.38-10.93.378-10.965.383-11.011.379-11.051.379-11.094.379-11.137.382-11.171.38-11.22.378-11.26.38-11.302.382-11.343.379-11.383.379-11.43.379-11.469.382-11.511.38-11.555.378-11.594.38-11.64.382-11.68.379-11.723.379-11.77.383-11.808.379-11.851.378-11.899.38-11.933.382-11.985.379-12.023.379-12.067.379-12.113.383-12.152.379-12.2.378-12.242.38-12.285.382-12.332.38-12.371.378-12.414.379-12.461.383-12.508.379-12.547.379-12.593.382-12.637.38-12.68.378-12.726.38-12.77.382-12.816.379-12.86.379-12.902.379-12.95.382-12.995.38-13.04.378-13.081.38-13.13.382-13.175.379-13.219"/><path stroke="#F66" d="m40.691 163.855.383-.097.38-.094.378-.101.379-.098.383-.098.758-.203.382-.105.38-.102.757-.21.383-.106 1.137-.328.382-.11 1.137-.34.383-.117.379-.113.379-.117.379-.121.383-.118.757-.242.383-.125 1.137-.375.383-.129.757-.258.38-.132.382-.133.38-.133.757-.273.383-.137 1.136-.422.383-.145.758-.289.383-.148.758-.297.379-.152.382-.153 1.137-.468.383-.16.758-.32.379-.165.382-.168.38-.164.378-.168.38-.172.382-.172.379-.172.379-.175.383-.176 1.136-.54.383-.183.38-.183.757-.375.383-.192.379-.191.757-.39.383-.2.38-.2.757-.405.383-.204.379-.207.379-.21.382-.212 1.137-.644.383-.223.379-.218.379-.227.379-.223.382-.23.758-.461.38-.234.382-.239.379-.238.758-.484.382-.246.758-.5.383-.254.379-.254.379-.258.379-.262.383-.262.379-.265.757-.54.383-.273.38-.273.378-.277.379-.282.383-.285.379-.285.379-.29.378-.292.383-.293.38-.3.378-.298.383-.304.379-.305.379-.309.379-.312.382-.317.38-.316.378-.32.38-.324.382-.329.379-.328.758-.672.382-.34.38-.34.757-.695.383-.355.379-.356.379-.359.383-.363.757-.735.38-.375.382-.378.38-.38.378-.382.379-.39.383-.391.379-.395.379-.398.378-.403.383-.406.38-.41.378-.414.379-.422.383-.422.379-.426.379-.43.382-.433.758-.883.38-.45.382-.448.379-.457.379-.461.379-.465.382-.465.758-.953.38-.484.382-.489.379-.488.379-.496.379-.504.382-.504.38-.512.378-.515.383-.52.379-.527.379-.531.379-.536.383-.539.379-.546.378-.551.38-.555.382-.562.38-.567.378-.57.379-.578.383-.586.758-1.18.378-.601.383-.606.38-.613.378-.617.383-.621.379-.63.379-.636.379-.64.382-.65.38-.652.378-.66.38-.668.382-.672.379-.675.379-.688.379-.691.382-.7.38-.703.378-.714.383-.72.379-.722.379-.734.379-.738.383-.747.379-.753.378-.762.38-.766.382-.777.38-.781.378-.793.379-.797.383-.805.379-.812.379-.82.378-.829.383-.836.38-.847.378-.852.379-.86.383-.867.379-.879.379-.882.382-.895.38-.902.378-.91.38-.922.382-.93.379-.937.379-.946.379-.953.382-.965.38-.972.378-.985.38-.988.382-1.004.379-1.012.379-1.023.383-1.027.379-1.043.378-1.051.38-1.059.382-1.07.379-1.082.379-1.09.379-1.102.383-1.113.379-1.12.378-1.134.38-1.144.382-1.153.38-1.168.378-1.18.379-1.187.383-1.195.379-1.211.379-1.223.382-1.234.38-1.246.378-1.258.38-1.27.382-1.28.379-1.298.379-1.304.379-1.317.382-1.336.38-1.343.378-1.356.38-1.367.382-1.387.379-1.394.379-1.41.379-1.426.382-1.434.38-1.449.378-1.46.383-1.481.379-1.493.379-1.507.379-1.52.383-1.535.379-1.55.378-1.563.38-1.579.382-1.597.38-1.61.378-1.625.379-1.64.383-1.653.379-1.675.379-1.692.378-1.703.383-1.715.38-1.734.378-1.758.383-1.77.379-1.785.379-1.804.379-1.82.382-1.84.38-1.856.378-1.875.38-1.887.382-1.91.379-1.93.379-1.945.379-1.965.382-1.984.38-2 .378-2.023.38-2.043.382-2.059.379-2.074.379-2.102.383-2.12.379-2.138.378-2.167.38-2.176.382-2.203.379-2.223.379-2.242.379-2.266.383-2.281.379-2.313.378-2.332.38-2.351.382-2.371.38-2.403.378-2.418.379-2.445.383-2.473.379-2.492.379-2.508.382-2.535.38-2.562.378-2.59.38-2.61.382-2.636.379-2.664.379-2.688.379-2.715.382-2.73.38-2.762.378-2.797.38-2.82.382-2.844.379-2.867.379-2.902.379-2.926.382-2.953.38-2.988.378-3 .383-3.047.379-3.063.379-3.101.379-3.13.383-3.152.379-3.191.378-3.215.38-3.254.382-3.277.38-3.305.378-3.344.379-3.378.383-3.403.379-3.441.379-3.469.378-3.504.383-3.539.38-3.57.378-3.61.383-3.632.379-3.68.379-3.707.379-3.746.382-3.781.38-3.817.378-3.851.38-3.895.382-3.926.379-3.965.379-3.996.379-4.043.382-4.082.38-4.12.378-4.153.38-4.195.382-4.243.379-4.277.379-4.32.383-4.356.379-4.394.378-4.442.38-4.488.382-4.531.379-4.57.379-4.61.379-4.664.383-4.703.379-4.754.378-4.809.38-4.832.382-4.886.38-4.922.378-4.98.379-5.016.383-5.082.379-5.13.379-5.167.382-5.215.38-5.266.378-5.32.38-5.371.382-5.422.379-5.473.379-5.527.379-5.578.382-5.645.38-5.68.378-5.738.38-5.785.382-5.851.379-5.91.379-5.958.379-6.015.382-6.074.38-6.145.378-6.187.383-6.25.379-6.313.379-6.355.379-6.457.383-6.489.379-6.55.378-6.614.38-6.687.382-6.735.38-6.82.378-6.879.379-6.914.383-7.02.379-7.078.379-7.128.378-7.215.383-7.278.38-7.343.378-7.407.383-7.48.379-7.567.379-7.62.379-7.7.382-7.785.38-7.84.378-7.95.38-7.983.382-8.086.379-8.149.379-8.238.379-8.3.382-8.384.38-8.46.378-8.555.38-8.637.382-8.723.379-8.785.379-8.887.383-8.972.379-9.04.378-9.14.38-9.207.382-9.32.379-9.399.379-9.484.379-9.594.383-9.668.379-9.781.378-9.848.38-9.941.382-10.067.38-10.128.378-10.239.379-10.336.383-10.437.379-10.54.379-10.628.382-10.734.38-10.84.378-10.95.38-11.05.382-11.145.379-11.258.379-11.367.379-11.465.382-11.59.38-11.675.378-11.805.38-11.93.382-12.043.379-12.144"/></g><use xlink:href="#k" x="109.203" y="200.481"/><use xlink:href="#l" x="112.542" y="200.481"/><use xlink:href="#m" x="117.681" y="200.481"/><use xlink:href="#n" x="122.82" y="200.481"/><use xlink:href="#o" x="127.959" y="200.481"/><use xlink:href="#p" x="134.637" y="200.481"/><use xlink:href="#q" x="139.776" y="200.481"/><use xlink:href="#r" x="142.35" y="200.481"/><use xlink:href="#s" x="146.472" y="200.481"/><use xlink:href="#t" x="153.672" y="200.481"/><use xlink:href="#u" x="157.272" y="200.481"/><use xlink:href="#v" x="162.852" y="200.481"/><use xlink:href="#w" x="15.315" y="122.472"/><use xlink:href="#x" x="15.315" y="115.929"/><use xlink:href="#y" x="15.315" y="110.79"/><use xlink:href="#y" x="15.315" y="105.651"/><use xlink:href="#z" x="15.315" y="100.512"/><use xlink:href="#y" x="15.315" y="97.938"/><use xlink:href="#A" x="15.315" y="92.799"/><use xlink:href="#B" x="15.315" y="85.095"/><use xlink:href="#z" x="15.315" y="78.408"/><use xlink:href="#C" x="15.315" y="75.834"/><use xlink:href="#D" x="15.315" y="68.13"/><path fill="#FFF" d="M173.586 95.84h57.289V15.977h-57.29Zm0 0"/><path fill="none" stroke="#66F" stroke-miterlimit="10" stroke-width=".797" d="M176.973 24.39h17.007"/><use xlink:href="#E" x="200.396" y="27.248"/><use xlink:href="#F" x="203.315" y="27.248"/><use xlink:href="#G" x="208.565" y="27.248"/><use xlink:href="#H" x="215.565" y="27.248"/><path fill="none" stroke="#66CEF5" stroke-miterlimit="10" stroke-width=".797" d="M176.973 35.855h17.007"/><use xlink:href="#H" x="207.981" y="37.329"/><path fill="none" stroke="#6F6" stroke-miterlimit="10" stroke-width=".797" d="M176.973 47.32h17.007"/><use xlink:href="#H" x="196.37" y="50.176"/><use xlink:href="#E" x="204.423" y="50.176"/><use xlink:href="#F" x="207.342" y="50.176"/><use xlink:href="#G" x="212.592" y="50.176"/><use xlink:href="#H" x="219.592" y="50.176"/><path fill="none" stroke="#FFF766" stroke-miterlimit="10" stroke-width=".797" d="M176.973 60.676h17.007"/><use xlink:href="#H" x="205.746" y="64.041"/><use xlink:href="#I" x="212.049" y="60.23"/><path fill="none" stroke="#FFB266" stroke-miterlimit="10" stroke-width=".797" d="M176.973 74.54h17.007"/><use xlink:href="#H" x="205.746" y="77.905"/><use xlink:href="#J" x="212.049" y="74.095"/><path fill="none" stroke="#F66" stroke-miterlimit="10" stroke-width=".797" d="M176.973 87.66h17.007"/><use xlink:href="#b" x="205.795" y="90.278"/><use xlink:href="#K" x="211.045" y="86.468"/></svg>