<svg xmlns="http://www.w3.org/2000/svg" width="441.2" height="308.28" viewBox="0 0 330.9 231.21"><path fill="none" stroke="#000" stroke-miterlimit="10" stroke-width=".399" d="M185.75 172.316c0-11.21-9.09-20.3-20.3-20.3-11.212 0-20.302 9.09-20.302 20.3 0 11.215 9.09 20.301 20.301 20.301 11.211 0 20.301-9.086 20.301-20.3Zm0 0"/><path fill="none" stroke="#000" stroke-miterlimit="10" stroke-width=".399" d="M207.012 172.316c0-22.953-18.61-41.562-41.563-41.562-22.953 0-41.562 18.61-41.562 41.562 0 22.954 18.61 41.563 41.562 41.563 22.953 0 41.563-18.61 41.563-41.563Zm-21.262 0h21.262"/><path d="M208.033 195.957c0-.796-.094-1.296-.328-1.765-.344-.672-.938-.828-1.36-.828-.937 0-1.28.703-1.39.906-.266.547-.282 1.297-.282 1.687 0 .5.016 1.25.375 1.844.344.563.907.703 1.297.703.36 0 1.016-.11 1.391-.86.266-.53.297-1.202.297-1.687Zm-.672-.093c0 .437 0 1.125-.094 1.547-.156.78-.672.89-.922.89s-.765-.125-.922-.906c-.093-.438-.093-1.14-.093-1.531 0-.516 0-1.047.093-1.453.157-.766.735-.844.922-.844.266 0 .782.125.922.812.094.407.094.969.094 1.485Zm0 0"/><path fill="none" stroke="#000" stroke-miterlimit="10" stroke-width=".399" d="m175.602 154.734 10.628-18.41"/><path d="M166.817 222.042v-.25h-.265c-.719 0-.735-.094-.735-.36v-4.171c0-.203-.015-.203-.218-.203-.313.297-.704.484-1.422.484v.234c.203 0 .61 0 1.047-.203v3.86c0 .265-.032.359-.735.359h-.265v.25c.312-.016.953-.016 1.296-.016.329 0 .985 0 1.297.016zm0 0"/><path fill="none" stroke="#000" stroke-miterlimit="10" stroke-width=".399" d="m155.297 154.734-10.629-18.41"/><path d="M126.132 197.083h-.234c-.016.156-.078.531-.172.672-.047.063-.61.063-.734.063h-1.329l1-.922c.125-.11.438-.36.563-.469.469-.422.906-.828.906-1.516 0-.89-.75-1.468-1.687-1.468-.907 0-1.5.671-1.5 1.343 0 .375.297.422.406.422.156 0 .39-.11.39-.39 0-.391-.374-.391-.468-.391a1.162 1.162 0 0 1 1.094-.734c.687 0 1.046.593 1.046 1.218 0 .782-.546 1.344-1.421 2.25l-.954.985c-.093.078-.093.094-.093.281h2.968zm0 0"/><path fill="none" stroke="#000" stroke-miterlimit="10" stroke-width=".399" d="M145.148 172.316h-21.261"/><path d="M126.195 149.835c0-.625-.485-1.188-1.25-1.36.593-.203 1.03-.718 1.03-1.312 0-.61-.671-1.031-1.452-1.031-.813 0-1.406.437-1.406 1 0 .28.187.406.374.406.235 0 .376-.172.376-.39 0-.282-.235-.376-.391-.391.312-.407.89-.438 1.016-.438.203 0 .765.063.765.844 0 .516-.219.828-.312.953-.235.234-.407.25-.86.281-.14 0-.203.016-.203.11 0 .109.063.109.188.109h.375c.593 0 .968.438.968 1.219 0 .937-.53 1.219-.921 1.219-.422 0-.985-.157-1.235-.547.266 0 .453-.172.453-.422s-.172-.422-.406-.422a.414.414 0 0 0-.422.437c0 .704.766 1.172 1.625 1.172 1 0 1.688-.687 1.688-1.437zm0 0"/><path fill="none" stroke="#000" stroke-miterlimit="10" stroke-width=".399" d="m155.297 189.898-10.629 18.415"/><path d="M167.208 126.383v-.25h-.797v-3.375c0-.141 0-.203-.156-.203-.094 0-.11 0-.172.109l-2.406 3.469v.25h2.125v.625c0 .28-.032.359-.61.359h-.172v.25l1.079-.016 1.093.016v-.25h-.172c-.578 0-.609-.078-.609-.36v-.624zm-1.36-.25h-1.906l1.907-2.766Zm0 0"/><path fill="none" stroke="#000" stroke-miterlimit="10" stroke-width=".399" d="m175.602 189.898 10.628 18.415"/><path d="M207.94 149.616c0-.875-.626-1.64-1.517-1.64a1.51 1.51 0 0 0-1.015.374v-1.453c.094.032.406.11.719.11.937 0 1.5-.657 1.5-.766 0-.094-.047-.11-.079-.11 0 0-.03 0-.109.032a2.88 2.88 0 0 1-1.031.203c-.453 0-.813-.11-1.047-.203-.078-.031-.094-.031-.094-.031-.11 0-.11.078-.11.218v2.188c0 .14 0 .234.126.234.062 0 .078-.031.125-.093.078-.11.375-.5 1.015-.5.407 0 .61.343.688.5.125.265.14.609.14.906 0 .265-.015.672-.218 1a.986.986 0 0 1-.844.469c-.484 0-.969-.313-1.14-.797h.078c.203 0 .375-.125.375-.36 0-.281-.22-.375-.375-.375-.125 0-.375.078-.375.39 0 .673.593 1.36 1.453 1.36.937 0 1.734-.718 1.734-1.656zm-66.577 9.912v-.25h-.125c-.468 0-.546-.063-.64-.313l-1.75-4.625c-.031-.093-.063-.171-.188-.171-.14 0-.156.062-.187.171l-1.672 4.422c-.078.203-.234.516-.86.516v.25c.25-.016.641-.016.782-.016.234 0 .453 0 .828.016v-.25c-.328 0-.531-.156-.531-.375 0-.047 0-.063.047-.156l.343-.938h2.047l.422 1.11c.031.093.031.14.031.14 0 .219-.39.219-.593.219v.25l1.062-.016c.422 0 .547 0 .984.016zm-2-1.969h-1.859l.938-2.453zm28.453-14.988c0-.61-.578-1.203-1.515-1.297.828-.172 1.297-.672 1.297-1.187 0-.657-.75-1.266-1.766-1.266h-2.844v.25h.172c.578 0 .594.078.594.36v3.906c0 .28-.016.359-.594.359h-.172v.25h3.063c1.031 0 1.766-.656 1.766-1.375Zm-.953-2.484c0 .515-.453 1.093-1.297 1.093h-1.187v-1.797c0-.265.016-.312.36-.312h1.046c.75 0 1.078.578 1.078 1.016zm.203 2.484c0 .61-.5 1.125-1.265 1.125h-1.063c-.343 0-.359-.047-.359-.313v-2h1.531c.719 0 1.156.594 1.156 1.188Zm27.592 15.091c0-.078 0-.14-.11-.14-.093 0-.109.03-.125.109-.046 1.156-.984 1.687-1.78 1.687-.641 0-2.063-.39-2.063-2.469 0-2.015 1.36-2.468 2.062-2.468.703 0 1.578.5 1.781 1.797 0 .047 0 .109.11.109.125 0 .125-.063.125-.203v-1.75c0-.125 0-.203-.094-.203-.047 0-.062.015-.125.11l-.39.546a2.01 2.01 0 0 0-1.485-.656c-1.5 0-2.766 1.203-2.766 2.719 0 1.515 1.25 2.718 2.782 2.718 1.265 0 2.078-1 2.078-1.906zm0 0"/><path fill="none" stroke="#000" stroke-linecap="round" stroke-miterlimit="10" stroke-width=".399" d="m111.043 140.906 6.867 3.965"/><path d="m119.637 145.867-1.965-2.976.238 1.98-1.832.781M99.323 135.23c0-.327-.312-.546-.719-.546-.562 0-1.218.406-1.218 1.203v.844h-.625v.25h.625v2.406c0 .328-.094.328-.578.328v.25c.296-.016.703-.016.89-.016.438 0 .453 0 .938.016v-.25h-.141c-.547 0-.562-.078-.562-.344v-2.39h.89v-.25h-.922v-.844c0-.656.375-.984.703-.984a.52.52 0 0 1 .22.03c-.141.063-.173.188-.173.298 0 .187.14.328.328.328.204 0 .344-.14.344-.328zm2.485 1.907c0-.266-.235-.484-.563-.484-.484 0-.812.375-.984.796v-.797l-1.063.094v.235c.5 0 .563.062.563.422v1.984c0 .328-.078.328-.563.328v.25c.297-.016.703-.016.875-.016.453 0 .469 0 .953.016v-.25h-.156c-.547 0-.562-.078-.562-.344v-1.11c0-.562.234-1.374.953-1.39-.047.031-.11.094-.11.266a.32.32 0 0 0 .328.328.32.32 0 0 0 .329-.328Zm3.979 1.234a1.76 1.76 0 0 0-1.765-1.75 1.77 1.77 0 0 0-1.766 1.75c0 .938.813 1.672 1.766 1.672.969 0 1.765-.734 1.765-1.672Zm-.671-.078c0 .36-.016.766-.22 1.078-.202.297-.546.438-.874.438-.406 0-.719-.203-.875-.453-.188-.313-.219-.688-.219-1.063 0-.281 0-.734.234-1.047.188-.265.516-.422.86-.422.39 0 .719.188.89.453.204.313.204.72.204 1.016zm5.123 1.672v-.25c-.485 0-.578 0-.578-.328v-1.688c0-.64-.282-1.047-1.063-1.047-.75 0-1.078.547-1.172.72h-.015v-.72l-1.079.094v.235c.5 0 .563.062.563.422v1.984c0 .328-.094.328-.563.328v.25c.313-.016.641-.016.844-.016.219 0 .531 0 .86.016v-.25c-.485 0-.563 0-.563-.328v-1.36c0-.796.594-1.156 1.047-1.156.469 0 .578.313.578.797v1.719c0 .328-.094.328-.578.328v.25c.328-.016.656-.016.86-.016.218 0 .53 0 .859.016zm2.629-.937v-.422h-.219v.406c0 .516-.234.797-.53.797-.5 0-.5-.64-.5-.766v-2.062h1.124v-.25h-1.125v-1.375h-.234c0 .672-.313 1.39-1 1.422v.203h.672v2.047c0 .875.672 1.015 1.015 1.015.5 0 .797-.453.797-1.016zm0 0"/><path fill="none" stroke="#000" stroke-linecap="round" stroke-miterlimit="10" stroke-width=".399" d="m219.855 203.727-6.867-3.965"/><path d="m211.262 198.766 1.965 2.976-.239-1.98 1.832-.782m7.181 7.099c0-.266-.234-.484-.562-.484-.485 0-.813.375-.985.796v-.796l-1.062.093v.235c.5 0 .562.062.562.422v1.984c0 .328-.078.328-.562.328v.25c.297-.016.703-.016.875-.016.453 0 .468 0 .953.016v-.25h-.156c-.547 0-.563-.078-.563-.344v-1.11c0-.562.234-1.374.953-1.39-.047.032-.11.094-.11.266a.32.32 0 0 0 .329.328.32.32 0 0 0 .328-.328Zm3.542 1.921c0-.03-.03-.093-.125-.093-.078 0-.093.047-.109.094-.266.719-.922.75-1.047.75-.344 0-.687-.156-.906-.5-.234-.344-.234-.828-.234-1.047h2.203c.172 0 .219 0 .219-.172 0-.672-.376-1.469-1.438-1.469-.922 0-1.656.766-1.656 1.703 0 .97.812 1.72 1.765 1.72.953 0 1.328-.813 1.328-.985zm-.515-1h-1.89c.062-1.046.702-1.234.968-1.234.89 0 .922 1.063.922 1.235zm4.602 1.235v-.422h-.234v.422c0 .297-.11.422-.266.422-.28 0-.28-.344-.28-.422v-1.562c0-.735-.72-1.11-1.392-1.11-.625 0-1.187.235-1.187.735 0 .218.156.359.36.359.202 0 .343-.156.343-.36a.352.352 0 0 0-.266-.343c.266-.188.672-.188.735-.188.406 0 .828.297.828.907v.234c-.438.031-.938.047-1.453.266-.672.28-.797.718-.797.968 0 .641.766.844 1.281.844.547 0 .89-.312 1.047-.61.047.282.234.563.563.563.078 0 .718-.031.718-.703Zm-1.359-.39c0 .734-.61.921-.906.921-.39 0-.719-.25-.719-.609 0-.5.453-1.016 1.625-1.047zm4.357-1.766c0-.266-.234-.484-.562-.484-.484 0-.813.375-.984.796v-.796l-1.063.093v.235c.5 0 .563.062.563.422v1.984c0 .328-.079.328-.563.328v.25c.297-.016.703-.016.875-.016.453 0 .469 0 .953.016v-.25h-.156c-.547 0-.563-.078-.563-.344v-1.11c0-.562.235-1.374.954-1.39-.047.032-.11.094-.11.266a.32.32 0 0 0 .328.328.32.32 0 0 0 .328-.328Zm0 0"/><path fill="none" stroke="#000" stroke-miterlimit="10" stroke-width=".399" d="M299.137 58.93c0-11.211-9.086-20.301-20.301-20.301-11.211 0-20.3 9.09-20.3 20.3 0 11.212 9.089 20.301 20.3 20.301 11.215 0 20.3-9.09 20.3-20.3Zm0 0"/><path fill="none" stroke="#000" stroke-miterlimit="10" stroke-width=".399" d="M320.398 58.93c0-22.953-18.609-41.563-41.562-41.563-22.953 0-41.563 18.61-41.563 41.563 0 22.953 18.61 41.562 41.563 41.562 22.953 0 41.562-18.61 41.562-41.562Zm-21.261 0h21.261"/><path d="M321.42 82.57c0-.797-.093-1.297-.327-1.765-.344-.672-.938-.828-1.36-.828-.937 0-1.28.703-1.39.906-.266.547-.282 1.297-.282 1.687 0 .5.016 1.25.375 1.844.344.563.907.703 1.297.703.36 0 1.016-.11 1.391-.86.266-.53.297-1.202.297-1.687Zm-.671-.093c0 .437 0 1.125-.094 1.546-.156.782-.672.891-.922.891s-.765-.125-.922-.906c-.093-.438-.093-1.14-.093-1.531 0-.516 0-1.047.093-1.454.157-.765.735-.843.922-.843.266 0 .782.125.922.812.094.406.094.969.094 1.485Zm0 0"/><path fill="none" stroke="#000" stroke-miterlimit="10" stroke-width=".399" d="m288.988 41.348 10.63-18.41"/><path d="M280.204 108.655v-.25h-.265c-.719 0-.735-.094-.735-.36v-4.171c0-.203-.015-.203-.218-.203-.313.296-.703.484-1.422.484v.234c.203 0 .61 0 1.047-.203v3.86c0 .265-.032.359-.735.359h-.265v.25c.312-.016.953-.016 1.297-.016.328 0 .984 0 1.296.016zm0 0"/><path fill="none" stroke="#000" stroke-miterlimit="10" stroke-width=".399" d="m268.684 41.348-10.63-18.41"/><path d="M239.52 83.695h-.235c-.016.157-.078.532-.172.672-.047.063-.61.063-.735.063h-1.328l1-.922c.125-.11.438-.36.563-.469.469-.422.906-.828.906-1.516 0-.89-.75-1.468-1.687-1.468-.907 0-1.5.672-1.5 1.343 0 .375.296.422.406.422.156 0 .39-.11.39-.39 0-.391-.375-.391-.468-.391a1.162 1.162 0 0 1 1.093-.734c.688 0 1.047.593 1.047 1.218 0 .782-.547 1.344-1.422 2.25l-.953.985c-.093.078-.093.094-.093.281h2.968zm0 0"/><path fill="none" stroke="#000" stroke-miterlimit="10" stroke-width=".399" d="M258.535 58.93h-21.262"/><path d="M239.582 36.448c0-.625-.485-1.188-1.25-1.36.593-.203 1.03-.718 1.03-1.312 0-.61-.671-1.031-1.452-1.031-.813 0-1.407.437-1.407 1 0 .28.188.406.375.406.235 0 .375-.172.375-.39 0-.282-.234-.376-.39-.391.312-.407.89-.438 1.015-.438.204 0 .766.063.766.844 0 .515-.219.828-.312.953-.235.234-.407.25-.86.281-.14 0-.203.016-.203.11 0 .109.063.109.188.109h.375c.593 0 .968.438.968 1.219 0 .937-.53 1.218-.922 1.218-.421 0-.984-.156-1.234-.546.266 0 .453-.172.453-.422s-.172-.422-.406-.422a.414.414 0 0 0-.422.437c0 .703.766 1.172 1.625 1.172 1 0 1.688-.687 1.688-1.437zm0 0"/><path fill="none" stroke="#000" stroke-miterlimit="10" stroke-width=".399" d="m268.684 76.512-10.63 18.41"/><path d="M280.595 12.995v-.25h-.797V9.37c0-.141 0-.204-.156-.204-.094 0-.11 0-.172.11l-2.406 3.469v.25h2.125v.625c0 .28-.031.359-.61.359h-.171v.25l1.078-.016 1.093.016v-.25h-.171c-.579 0-.61-.078-.61-.36v-.624zm-1.36-.25h-1.906l1.907-2.766Zm0 0"/><path fill="none" stroke="#000" stroke-miterlimit="10" stroke-width=".399" d="m288.988 76.512 10.63 18.41"/><path d="M321.327 36.229c0-.875-.625-1.64-1.516-1.64a1.51 1.51 0 0 0-1.015.374V33.51c.094.032.406.11.719.11.937 0 1.5-.657 1.5-.766 0-.094-.047-.11-.079-.11 0 0-.03 0-.109.032a2.88 2.88 0 0 1-1.031.203c-.453 0-.813-.11-1.047-.203-.078-.031-.094-.031-.094-.031-.11 0-.11.078-.11.218v2.188c0 .14 0 .234.126.234.062 0 .078-.031.125-.093.078-.11.375-.5 1.015-.5.407 0 .61.343.688.5.125.265.14.609.14.906 0 .265-.015.672-.218 1a.986.986 0 0 1-.844.468c-.484 0-.969-.312-1.14-.796h.078c.203 0 .375-.125.375-.36 0-.281-.22-.375-.375-.375-.125 0-.375.078-.375.39 0 .673.593 1.36 1.453 1.36.937 0 1.734-.718 1.734-1.656zm-65.248 9.912v-.25h-.125c-.47 0-.547-.063-.641-.313l-1.75-4.625c-.031-.093-.063-.171-.188-.171-.14 0-.156.062-.187.171l-1.672 4.422c-.078.203-.234.516-.86.516v.25c.25-.016.641-.016.782-.016.234 0 .453 0 .828.016v-.25c-.328 0-.531-.156-.531-.375 0-.047 0-.063.047-.156l.343-.938h2.047l.422 1.11c.031.093.031.14.031.14 0 .219-.39.219-.593.219v.25l1.062-.016c.422 0 .547 0 .985.016zm-2-1.969h-1.86l.938-2.453zm28.452-14.988c0-.61-.578-1.203-1.515-1.297.828-.172 1.297-.672 1.297-1.187 0-.657-.75-1.266-1.766-1.266h-2.844v.25h.172c.578 0 .594.078.594.36v3.906c0 .28-.016.359-.594.359h-.172v.25h3.063c1.031 0 1.765-.656 1.765-1.375Zm-.953-2.484c0 .515-.453 1.093-1.297 1.093h-1.187v-1.796c0-.266.016-.313.36-.313h1.046c.75 0 1.078.578 1.078 1.016zm.203 2.484c0 .61-.5 1.125-1.265 1.125h-1.063c-.343 0-.359-.047-.359-.313v-2h1.531c.719 0 1.156.594 1.156 1.188Zm27.592 15.091c0-.078 0-.14-.11-.14-.093 0-.109.03-.125.109-.046 1.156-.984 1.687-1.78 1.687-.641 0-2.063-.39-2.063-2.468 0-2.016 1.36-2.47 2.062-2.47.703 0 1.578.5 1.781 1.798 0 .047 0 .109.11.109.125 0 .125-.062.125-.203v-1.75c0-.125 0-.203-.094-.203-.047 0-.062.015-.125.11l-.39.546a2.01 2.01 0 0 0-1.485-.656c-1.5 0-2.766 1.203-2.766 2.719 0 1.515 1.25 2.718 2.782 2.718 1.265 0 2.078-1 2.078-1.906zm.163 30.166c0-1.437-1.094-2.609-2.437-2.609h-2.844v.25h.172c.578 0 .593.078.593.36v3.906c0 .28-.015.359-.593.359h-.172v.25h2.844c1.359 0 2.437-1.125 2.437-2.516Zm-.75 0c0 .375 0 1.11-.469 1.672-.265.297-.75.594-1.406.594h-.875c-.344 0-.36-.047-.36-.312v-4c0-.266.016-.313.36-.313h.875c.578 0 1.063.234 1.39.61.485.578.485 1.374.485 1.75zM282.64 90.459h-.235c-.187 1.125-.344 1.703-1.703 1.703h-1.11c-.343 0-.359-.047-.359-.312v-1.97h.719c.75 0 .86.235.86.876h.218v-2h-.219c0 .656-.109.875-.859.875h-.719v-1.766c0-.25.016-.312.36-.312h1.062c1.25 0 1.406.453 1.531 1.468h.235l-.219-1.703h-4.422v.235h.172c.578 0 .594.093.594.359v3.89c0 .282-.016.36-.594.36h-.172v.25h4.531zm-27.004-16.904-.218-1.703h-4.313v.235h.172c.578 0 .594.093.594.359v3.89c0 .282-.016.36-.594.36h-.172v.25l1.156-.016c.36 0 .907 0 1.235.016v-.25h-.235c-.703 0-.703-.11-.703-.36v-1.828h.688c.734 0 .828.235.828.891h.234v-2.016h-.234c0 .641-.094.891-.828.891h-.688V72.4c0-.25.016-.312.36-.312h1c1.218 0 1.359.484 1.484 1.468zm0 0"/><path fill="none" stroke="#000" stroke-linecap="round" stroke-miterlimit="10" stroke-width=".399" d="m223.629 44.137 7.66 2.054"/><path d="m233.215 46.707-2.668-2.367.742 1.851-1.566 1.23"/><path fill="none" stroke="#000" stroke-linecap="round" stroke-miterlimit="10" stroke-width=".399" d="m238.422 18.516 5.61 5.609"/><path d="m245.438 25.531-1.125-3.379-.282 1.973-1.972.281M212.794 41.11c0-.266-.234-.484-.562-.484-.485 0-.813.375-.985.796v-.796l-1.062.093v.235c.5 0 .562.062.562.422v1.984c0 .328-.078.328-.562.328v.25c.297-.016.703-.016.875-.016.453 0 .468 0 .953.016v-.25h-.156c-.547 0-.563-.078-.563-.344v-1.11c0-.562.234-1.374.953-1.39-.047.032-.11.094-.11.266a.32.32 0 0 0 .329.328.32.32 0 0 0 .328-.328Zm3.543 1.922c0-.031-.032-.094-.125-.094-.079 0-.094.047-.11.094-.266.719-.922.75-1.047.75-.344 0-.687-.156-.906-.5-.234-.344-.234-.828-.234-1.047h2.203c.172 0 .219 0 .219-.172 0-.672-.375-1.469-1.438-1.469-.922 0-1.656.766-1.656 1.703 0 .97.812 1.72 1.765 1.72.953 0 1.328-.813 1.328-.985zm-.516-1h-1.89c.062-1.047.702-1.235.968-1.235.89 0 .922 1.063.922 1.235zm4.602 1.234v-.422h-.234v.422c0 .297-.11.422-.266.422-.28 0-.28-.344-.28-.422v-1.562c0-.735-.72-1.11-1.392-1.11-.625 0-1.187.235-1.187.735 0 .218.156.359.36.359.202 0 .343-.156.343-.36a.352.352 0 0 0-.266-.343c.266-.188.672-.188.735-.188.406 0 .828.297.828.907v.234c-.438.031-.938.047-1.453.266-.672.28-.797.718-.797.968 0 .641.766.844 1.281.844.547 0 .89-.312 1.047-.61.047.282.234.563.563.563.078 0 .718-.031.718-.703Zm-1.359-.39c0 .734-.61.921-.906.921-.39 0-.719-.25-.719-.609 0-.5.453-1.016 1.625-1.047zm4.357-1.766c0-.266-.234-.484-.562-.484-.484 0-.813.375-.984.796v-.796l-1.063.093v.235c.5 0 .563.062.563.422v1.984c0 .328-.079.328-.563.328v.25c.297-.016.703-.016.875-.016.453 0 .469 0 .953.016v-.25h-.156c-.547 0-.563-.078-.563-.344v-1.11c0-.562.235-1.374.954-1.39-.047.032-.11.094-.11.266a.32.32 0 0 0 .328.328.32.32 0 0 0 .328-.328Zm4.409-29.736c0-.329-.313-.547-.72-.547-.562 0-1.218.406-1.218 1.203v.844h-.625v.25h.625v2.406c0 .328-.094.328-.578.328v.25c.296-.016.703-.016.89-.016.438 0 .453 0 .938.016v-.25H227c-.547 0-.562-.078-.562-.344v-2.39h.89v-.25h-.922v-.844c0-.656.375-.984.703-.984a.52.52 0 0 1 .22.03c-.141.063-.173.188-.173.298 0 .187.14.328.328.328.204 0 .344-.14.344-.328zm2.484 1.906c0-.266-.235-.484-.563-.484-.484 0-.812.375-.984.796v-.796l-1.063.093v.235c.5 0 .563.062.563.421v1.985c0 .328-.078.328-.563.328v.25c.297-.016.703-.016.875-.016.453 0 .469 0 .953.016v-.25h-.156c-.547 0-.562-.078-.562-.344v-1.11c0-.562.234-1.374.953-1.39-.047.032-.11.094-.11.266a.32.32 0 0 0 .328.328.32.32 0 0 0 .329-.328Zm3.979 1.234a1.76 1.76 0 0 0-1.765-1.75 1.77 1.77 0 0 0-1.766 1.75c0 .938.813 1.672 1.766 1.672.969 0 1.766-.734 1.766-1.672Zm-.671-.078c0 .36-.016.766-.22 1.078-.202.297-.546.438-.874.438-.406 0-.719-.203-.875-.453-.188-.313-.219-.688-.219-1.063 0-.281 0-.734.234-1.047.188-.265.516-.422.86-.422.39 0 .719.188.89.454.204.312.204.718.204 1.015zm5.123 1.672v-.25c-.485 0-.578 0-.578-.328v-1.688c0-.64-.282-1.046-1.063-1.046-.75 0-1.078.546-1.172.718h-.015v-.718l-1.078.093v.235c.5 0 .562.062.562.421v1.985c0 .328-.094.328-.563.328v.25c.313-.016.641-.016.844-.016.219 0 .532 0 .86.016v-.25c-.485 0-.563 0-.563-.328v-1.36c0-.796.594-1.156 1.047-1.156.469 0 .578.313.578.797v1.719c0 .328-.094.328-.578.328v.25c.328-.016.656-.016.86-.016.218 0 .53 0 .859.016zm2.629-.938v-.421h-.219v.406c0 .516-.234.797-.53.797-.5 0-.5-.64-.5-.766v-2.062h1.124v-.25h-1.125v-1.375h-.234c0 .671-.313 1.39-1 1.421v.204h.672v2.046c0 .876.672 1.016 1.015 1.016.5 0 .797-.453.797-1.015zm0 0"/><path fill="none" stroke="#000" stroke-miterlimit="10" stroke-width=".399" d="M72.363 58.93c0-11.211-9.09-20.301-20.3-20.301-11.215 0-20.305 9.09-20.305 20.3 0 11.212 9.09 20.301 20.305 20.301 11.21 0 20.3-9.09 20.3-20.3Zm0 0"/><path fill="none" stroke="#000" stroke-miterlimit="10" stroke-width=".399" d="M93.625 58.93c0-22.953-18.61-41.563-41.562-41.563-22.958 0-41.563 18.61-41.563 41.563 0 22.953 18.605 41.562 41.563 41.562 22.953 0 41.562-18.61 41.562-41.562Zm-21.262 0h21.262"/><path d="M94.646 82.57c0-.797-.094-1.297-.328-1.765-.344-.672-.938-.828-1.36-.828-.937 0-1.28.703-1.39.906-.266.547-.282 1.297-.282 1.687 0 .5.016 1.25.375 1.844.344.563.907.703 1.297.703.36 0 1.016-.11 1.391-.86.266-.53.297-1.202.297-1.687Zm-.672-.093c0 .437 0 1.125-.094 1.546-.156.782-.672.891-.922.891s-.765-.125-.922-.906c-.093-.438-.093-1.14-.093-1.531 0-.516 0-1.047.093-1.454.157-.765.735-.843.922-.843.266 0 .782.125.922.812.094.406.094.969.094 1.485Zm0 0"/><path fill="none" stroke="#000" stroke-miterlimit="10" stroke-width=".399" d="m62.21 41.348 10.634-18.41"/><path d="M53.43 108.655v-.25h-.266c-.719 0-.735-.094-.735-.36v-4.171c0-.203-.015-.203-.218-.203-.313.296-.703.484-1.422.484v.234c.203 0 .61 0 1.047-.203v3.86c0 .265-.032.359-.735.359h-.265v.25c.312-.016.953-.016 1.297-.016.328 0 .984 0 1.296.016zm0 0"/><path fill="none" stroke="#000" stroke-miterlimit="10" stroke-width=".399" d="m41.91 41.348-10.629-18.41"/><path d="M12.745 83.695h-.234c-.016.157-.078.532-.172.672-.047.063-.61.063-.735.063h-1.328l1-.922c.125-.11.438-.36.563-.469.469-.422.906-.828.906-1.516 0-.89-.75-1.468-1.687-1.468-.907 0-1.5.672-1.5 1.343 0 .375.296.422.406.422.156 0 .39-.11.39-.39 0-.391-.375-.391-.468-.391a1.162 1.162 0 0 1 1.093-.734c.688 0 1.047.593 1.047 1.218 0 .782-.547 1.344-1.422 2.25l-.953.985c-.093.078-.093.094-.093.281h2.968zm0 0"/><path fill="none" stroke="#000" stroke-miterlimit="10" stroke-width=".399" d="M31.758 58.93H10.5"/><path d="M12.808 36.448c0-.625-.485-1.188-1.25-1.36.593-.203 1.03-.718 1.03-1.312 0-.61-.671-1.031-1.452-1.031-.813 0-1.407.437-1.407 1 0 .28.188.406.375.406.235 0 .375-.172.375-.39 0-.282-.234-.376-.39-.391.312-.407.89-.438 1.015-.438.204 0 .766.063.766.844 0 .515-.219.828-.312.953-.235.234-.407.25-.86.281-.14 0-.203.016-.203.11 0 .109.063.109.188.109h.375c.593 0 .968.438.968 1.219 0 .937-.53 1.218-.922 1.218-.421 0-.984-.156-1.234-.546.266 0 .453-.172.453-.422s-.172-.422-.406-.422a.414.414 0 0 0-.422.437c0 .703.766 1.172 1.625 1.172 1 0 1.688-.687 1.688-1.437zm0 0"/><path fill="none" stroke="#000" stroke-miterlimit="10" stroke-width=".399" d="m41.91 76.512-10.629 18.41"/><path d="M53.82 12.995v-.25h-.797V9.37c0-.141 0-.204-.156-.204-.094 0-.11 0-.172.11l-2.406 3.469v.25h2.125v.625c0 .28-.032.359-.61.359h-.172v.25l1.079-.016 1.093.016v-.25h-.172c-.578 0-.609-.078-.609-.36v-.624zm-1.36-.25h-1.906l1.907-2.766Zm0 0"/><path fill="none" stroke="#000" stroke-miterlimit="10" stroke-width=".399" d="m62.21 76.512 10.634 18.41"/><path d="M94.552 36.229c0-.875-.625-1.64-1.516-1.64a1.51 1.51 0 0 0-1.015.374V33.51c.094.032.406.11.719.11.937 0 1.5-.657 1.5-.766 0-.094-.047-.11-.079-.11 0 0-.03 0-.109.032a2.88 2.88 0 0 1-1.031.203c-.453 0-.813-.11-1.047-.203-.078-.031-.094-.031-.094-.031-.11 0-.11.078-.11.218v2.188c0 .14 0 .234.126.234.062 0 .078-.031.125-.093.078-.11.375-.5 1.015-.5.407 0 .61.343.688.5.125.265.14.609.14.906 0 .265-.015.672-.218 1a.986.986 0 0 1-.844.468c-.484 0-.969-.312-1.14-.796h.078c.203 0 .375-.125.375-.36 0-.281-.22-.375-.375-.375-.125 0-.375.078-.375.39 0 .673.593 1.36 1.453 1.36.937 0 1.734-.718 1.734-1.656zm0 0"/><path fill="none" stroke="#000" stroke-linecap="round" stroke-miterlimit="10" stroke-width=".399" d="m107.266 73.723-7.657-2.055"/><path d="m97.684 71.152 2.668 2.368-.743-1.852 1.567-1.227"/><path fill="none" stroke="#000" stroke-linecap="round" stroke-miterlimit="10" stroke-width=".399" d="m92.477 99.344-5.61-5.606"/><path d="m85.46 92.328 1.126 3.379.281-1.969 1.973-.285m21.281-19.09c0-.266-.234-.484-.563-.484-.484 0-.812.375-.984.796v-.796l-1.062.093v.235c.5 0 .562.062.562.422v1.984c0 .328-.078.328-.562.328v.25c.296-.016.703-.016.875-.016.453 0 .468 0 .953.016v-.25h-.157c-.546 0-.562-.078-.562-.344v-1.11c0-.562.234-1.374.953-1.39-.047.032-.11.094-.11.266a.32.32 0 0 0 .329.328.32.32 0 0 0 .328-.328Zm3.542 1.922c0-.031-.03-.094-.124-.094-.079 0-.094.047-.11.094-.266.719-.922.75-1.047.75-.344 0-.687-.156-.906-.5-.234-.344-.234-.828-.234-1.047h2.203c.172 0 .219 0 .219-.172 0-.672-.376-1.469-1.438-1.469-.922 0-1.656.766-1.656 1.703 0 .97.812 1.72 1.765 1.72.954 0 1.329-.813 1.329-.985zm-.515-1h-1.89c.062-1.047.702-1.235.968-1.235.89 0 .922 1.063.922 1.235zm4.602 1.235v-.423h-.234v.422c0 .297-.11.422-.266.422-.28 0-.28-.344-.28-.422v-1.562c0-.735-.72-1.11-1.391-1.11-.625 0-1.188.235-1.188.735 0 .218.156.359.36.359.203 0 .343-.156.343-.36a.352.352 0 0 0-.265-.343c.265-.188.671-.188.734-.188.406 0 .828.297.828.907v.234c-.438.031-.938.047-1.453.266-.672.28-.797.718-.797.968 0 .641.766.844 1.281.844.547 0 .89-.312 1.047-.61.047.282.235.563.563.563.078 0 .718-.031.718-.703Zm-1.359-.391c0 .734-.61.921-.906.921-.39 0-.719-.25-.719-.609 0-.5.453-1.016 1.625-1.047zm4.358-1.766c0-.266-.235-.484-.563-.484-.484 0-.813.375-.984.796v-.796l-1.063.093v.235c.5 0 .563.062.563.422v1.984c0 .328-.078.328-.563.328v.25c.297-.016.703-.016.875-.016.453 0 .469 0 .953.016v-.25h-.156c-.547 0-.563-.078-.563-.344v-1.11c0-.562.235-1.374.954-1.39-.047.032-.11.094-.11.266a.32.32 0 0 0 .328.328.32.32 0 0 0 .329-.328Zm-28.846 27.86c0-.329-.312-.547-.719-.547-.562 0-1.218.406-1.218 1.203v.844h-.625v.25h.625v2.406c0 .328-.094.328-.579.328v.25c.297-.016.704-.016.891-.016.438 0 .453 0 .938.016v-.25h-.141c-.547 0-.563-.078-.563-.344v-2.39h.891v-.25h-.922v-.844c0-.656.375-.985.703-.985a.52.52 0 0 1 .22.032c-.142.062-.173.187-.173.297 0 .187.14.328.328.328.203 0 .344-.14.344-.328zm2.484 1.906c0-.266-.234-.485-.562-.485-.484 0-.813.375-.984.797v-.797l-1.063.094v.235c.5 0 .563.062.563.421v1.985c0 .328-.079.328-.563.328v.25c.297-.016.703-.016.875-.016.453 0 .469 0 .953.016v-.25h-.156c-.547 0-.563-.078-.563-.344v-1.11c0-.562.235-1.374.954-1.39-.047.031-.11.094-.11.266a.32.32 0 0 0 .328.328.32.32 0 0 0 .328-.328Zm3.981 1.234a1.76 1.76 0 0 0-1.766-1.75 1.77 1.77 0 0 0-1.766 1.75c0 .938.813 1.672 1.766 1.672.969 0 1.766-.734 1.766-1.672Zm-.672-.078c0 .36-.016.766-.22 1.078-.202.297-.546.438-.874.438-.406 0-.719-.203-.875-.453-.188-.313-.219-.688-.219-1.063 0-.281 0-.734.235-1.047.187-.265.515-.422.859-.422.39 0 .719.188.89.453.204.313.204.72.204 1.016zm5.123 1.672v-.25c-.485 0-.578 0-.578-.328v-1.688c0-.64-.282-1.047-1.063-1.047-.75 0-1.078.547-1.172.72h-.015v-.72l-1.079.094v.235c.5 0 .563.062.563.421v1.985c0 .328-.094.328-.563.328v.25c.313-.016.641-.016.844-.016.219 0 .531 0 .86.016v-.25c-.485 0-.563 0-.563-.328v-1.36c0-.796.594-1.156 1.047-1.156.469 0 .578.313.578.797v1.719c0 .328-.094.328-.578.328v.25c.328-.016.656-.016.86-.016.218 0 .53 0 .859.016zm2.629-.937v-.422h-.219v.406c0 .515-.234.797-.53.797-.5 0-.5-.64-.5-.766v-2.062h1.124v-.25h-1.125v-1.375h-.234c0 .671-.313 1.39-1 1.421v.204h.672v2.046c0 .875.672 1.016 1.015 1.016.5 0 .797-.453.797-1.016zm0 0"/><path fill="none" stroke="#000" stroke-linecap="round" stroke-miterlimit="10" stroke-width=".797" d="M108.754 172.316c-30.852 5.786-62.477-25.84-57.168-54.148"/><path d="m52.063 115.625-2.801 3.691 2.324-1.148 1.75 1.91"/><path fill="none" stroke="#000" stroke-linecap="round" stroke-miterlimit="10" stroke-width=".797" d="M222.145 172.316c30.851 5.786 62.476-25.84 57.167-54.148"/><path d="m278.836 115.625-1.274 4.453 1.75-1.91 2.325 1.148M46.742 144.227l-.11-.25c-1.577.39-2.39.437-3.062-1.234l-.515-1.297c-.188-.453-.125-.516.203-.64l2.593-1.048.36.89c.39.938.11 1.157-.719 1.485l.11.25 2.578-1.031-.11-.25c-.844.328-1.172.36-1.562-.578l-.36-.89 2.328-.938c.329-.125.407-.125.594.328l.5 1.25c.61 1.5.188 1.984-1.094 2.687l.094.235 2.078-1.157-2.218-5.5-.313.125.094.235c.312.75.219.812-.125.953l-5.125 2.062c-.344.141-.453.157-.766-.593l-.094-.235-.296.125 2.265 5.625Zm1.636 8.831.281-.157c-.265-.484-.375-.703-.11-.875l1.766-.937c.797-.438 1.079-.594 1.25-1.047.11-.219.11-.61-.171-1.156-.422-.781-1.188-.875-1.641-.86.75-.562.469-1.296.25-1.703-.375-.672-1-.906-1.719-.859l.969-.516-.797-1.25-.281.157c.36.656.312.75-.14 1l-2.47 1.343c-.421.22-.468.125-.812-.5l-.281.157.593 1.015.532 1.063.281-.157c-.328-.609-.39-.718.031-.937l1.703-.922c.953-.531 1.828-.14 2.141.453.312.578-.125.953-.64 1.235l-2.157 1.171c-.422.22-.484.11-.812-.515l-.282.156.594 1.031.531 1.063.282-.156c-.344-.641-.391-.735.03-.954l1.704-.921c.953-.532 1.828-.141 2.14.453.313.578-.124.953-.64 1.234l-2.156 1.172c-.422.219-.485.11-.813-.516l-.281.157.594 1.03zm5.122 3.392c1.093-.75 1.39-2.187.718-3.155-.453-.672-1.093-.766-1.39-.813l.562-.39-.937-1.188-.266.187c.422.61.406.72.016.97l-4.047 2.78c-.406.266-.469.172-.86-.406l-.25.172.672.953.657.985.25-.172c-.407-.578-.453-.672-.047-.938l1.453-1 .078-.062c-.125.156-.344.828.11 1.484a2.356 2.356 0 0 0 3.28.594Zm-.485-.718c-1.047.719-2.203.61-2.625-.016-.25-.359-.297-.812-.093-1.28.093-.25.109-.266.296-.376l1.922-1.312c.61-.063 1.141.187 1.438.625.437.64.031 1.687-.938 2.36zm2.021 4.225.484-.39-.156-.204-.453.36c-.625.484-1.14.484-1.375.171-.437-.547.328-1.14.453-1.25l2.297-1.812.938 1.172.25-.204-.938-1.171 1.516-1.188-.172-.203c-.672.531-1.75.984-2.406.187l-.188.141.547.703-2.281 1.813c-1 .78-.485 1.625-.25 1.922.468.578 1.203.359 1.734-.047Zm6.032 2.393.25-.22a4.651 4.651 0 0 1-.547-.562l-.578-.672-.25.219c.187.234.172.469-.016.656-.078.063-.094.078-.219.125l-2.64.953 1.312-2.765a.649.649 0 0 1 .11-.172c.203-.188.453.094.578.25l.25-.219-.797-.828c-.188-.219-.469-.531-.64-.766l-.25.22c.327.358.468.515.28.874l-1.765 3.734-.656.235c-.579.219-1.297.484-1.75 0-.032-.047-.188-.235-.188-.5.25.203.469.11.594 0a.451.451 0 0 0 .047-.64c-.14-.141-.407-.22-.625 0-.36.327-.344.89 0 1.296.453.484 1.187.39 1.797.172l4.562-1.64c.656-.25 1.031.14 1.14.25zm5.355 10.402c.063-.078.125-.156.031-.234-.078-.047-.14-.016-.203.078a.948.948 0 0 1-1.297.062c-.39-.312-.359-.765-.125-1.437 1.297.36 2.86-.094 3.875-1.328 1.36-1.656 1.204-3.985-.265-5.188-1.469-1.203-3.781-.922-5.14.75-1.36 1.641-1.204 3.938.28 5.157.25.203.579.375.875.5-.515.875-1 1.703-.265 2.312.844.688 1.89-.25 2.234-.672Zm1.453-3.531c-.53.64-1.562 1.687-2.937 1.625.203-.61.265-1.203-.219-1.61a.862.862 0 0 0-1.219.126c-.172.218-.187.468-.203.484-.312-.531-.734-1.844.813-3.719 1.734-2.11 3.406-1.844 4.156-1.219.781.641 1.297 2.25-.39 4.313zm-3.25 1.594a2.165 2.165 0 0 1-.875-.422c-.422-.344-.156-.75-.062-.875.187-.235.578-.375.89-.125.438.36.344.875.047 1.422Zm6.976 5.283.187-.266c-.625-.422-.656-.531-.375-.937l2.078-3.11-1.343-.765-.188.265c.61.407.656.516.36.953l-1.032 1.547c-.515.766-1.328 1.078-1.969.641-.734-.484-.484-.906-.187-1.375l1.937-2.89-1.343-.766-.188.265c.688.453.672.485.156 1.266l-.875 1.312c-.453.672-.984 1.47.329 2.36.5.328 1.03.344 1.656-.031l-.516.78Zm4.6 1.146c.063-.094-.015-.14-.062-.172-.078-.047-.125 0-.188.047-.86.781-1.687.313-1.765.266-.47-.266-.657-.75-.672-1.188-.032-.61.297-1.203.484-1.53l2.547 1.437c.203.109.234.125.344-.063.515-.906.531-2.062-.625-2.719-1.047-.593-2.422-.14-3.063 1-.687 1.235-.25 2.657.813 3.25 1.125.64 2.093-.14 2.187-.328zm.094-1.531-2.188-1.234c.829-1.329 1.735-1.125 2.047-.954.938.532.344 1.813.141 2.188zm4.644 5.191.14-.297c-.687-.313-.719-.422-.5-.86l1.594-3.39-1.453-.547-.14.297c.671.312.702.406.484.875l-.782 1.687c-.39.829-1.172 1.266-1.86.938-.796-.375-.608-.844-.374-1.344l1.484-3.156-1.437-.547-.14.297c.734.36.718.375.312 1.234l-.672 1.422c-.344.735-.75 1.594.687 2.266.547.25 1.078.203 1.64-.266l-.405.844zm4.727.467c.032-.093-.047-.14-.11-.156-.077-.047-.108.016-.171.063-.734.906-1.625.562-1.703.53-.5-.187-.766-.655-.86-1.077-.109-.594.141-1.235.266-1.594l2.735 1.047c.218.078.25.094.328-.11.375-.968.218-2.125-1.016-2.593-1.125-.438-2.422.218-2.89 1.453-.5 1.312.14 2.656 1.28 3.094 1.204.453 2.063-.47 2.141-.657Zm-.172-1.547-2.328-.89c.625-1.438 1.547-1.36 1.875-1.235 1.016.391.61 1.735.453 2.125zm169.421-6.689-1.344-1.953-5.125 2.625.156.297.219-.11c.719-.375.781-.281.953.047l2.5 4.922c.172.328.203.422-.516.797l-.218.11.156.296c.312-.203 1.031-.578 1.39-.75.391-.203 1.25-.64 1.594-.781l-.156-.297-.312.156c-.891.453-.954.328-1.11.016l-1.172-2.297.813-.406c.906-.469 1.125-.203 1.531.578l.234-.125-1.265-2.469-.235.125c.407.797.485 1.125-.421 1.594l-.813.406-1.203-2.36c-.156-.312-.156-.39.281-.609l1.125-.578c1.406-.703 1.89-.297 2.703.89Zm7.332 1.045-.172-.28c-.64.406-.75.375-1.016-.047l-1.984-3.157-1.266.922.188.266c.625-.39.734-.36 1.016.078l.984 1.563c.5.78.437 1.656-.219 2.078-.734.453-1.031.062-1.312-.407l-1.86-2.937-1.25.906.188.266c.687-.422.703-.39 1.203.406l.844 1.328c.422.688.937 1.5 2.281.64.5-.312.734-.796.656-1.515l.5.797zm2.321-1.71-.188-.266c-.578.406-.656.468-.937.093l-3.781-5.265-1.172.984.187.266c.594-.422.72-.422 1.016-.016l3.187 4.438c.282.375.172.453-.39.859l.187.266.938-.72zm2.307-1.8-.203-.266c-.563.437-.64.515-.922.156l-4.016-5.11-1.125 1.016.203.25c.579-.453.704-.437 1-.03l3.391 4.296c.281.36.188.437-.375.86l.203.265.906-.75zm8.347-7.712c-.078-.079-.156-.157-.234-.079-.079.079-.016.141.062.22a.973.973 0 0 1-.062 1.296c-.36.36-.782.297-1.454-.016.5-1.25.157-2.828-.968-3.953-1.532-1.5-3.86-1.578-5.203-.218-1.329 1.343-1.235 3.671.312 5.187 1.5 1.484 3.813 1.547 5.14.188.235-.235.454-.547.594-.813.813.563 1.61 1.125 2.297.438.75-.766-.11-1.875-.484-2.25zm-3.39-1.782c.577.578 1.53 1.703 1.343 3.063-.578-.235-1.187-.36-1.625.078-.375.39-.297.922.016 1.234a.97.97 0 0 0 .468.235c-.546.265-1.906.562-3.625-1.141-1.953-1.922-1.515-3.562-.843-4.25.718-.719 2.359-1.094 4.265.781zm1.28 3.375c-.124.39-.312.672-.484.844-.375.375-.781.094-.89-.016-.204-.218-.313-.625-.032-.921.39-.391.89-.235 1.407.093Zm5.898-6.469-.25-.203c-.468.578-.578.594-.968.281l-2.907-2.36-.89 1.282.265.203c.454-.562.579-.594.97-.266l1.452 1.172c.719.578.953 1.438.469 2.032-.547.671-.969.39-1.406.046l-2.703-2.187-.875 1.266.265.203c.516-.64.532-.625 1.266-.032l1.234.985c.625.515 1.36 1.11 2.36-.125.359-.453.437-.985.125-1.64l.718.577zm1.574-4.476c-.094-.063-.14 0-.172.047-.063.078-.016.125.031.187.688.922.156 1.703.094 1.782-.297.437-.813.609-1.25.578-.61-.047-1.172-.438-1.469-.641l1.656-2.39c.141-.204.157-.22-.03-.344-.86-.594-2.032-.72-2.782.359-.688 1-.344 2.406.734 3.156 1.157.797 2.625.485 3.313-.515.734-1.063.047-2.094-.125-2.22zm-1.531-.219-1.422 2.047c-1.25-.937-.969-1.828-.766-2.125.625-.875 1.844-.172 2.188.078zm5.594-4.151-.281-.172c-.375.64-.47.672-.907.422l-3.218-1.89-.704 1.39.282.172c.375-.64.484-.688.937-.422l1.594.937c.797.47 1.156 1.266.781 1.938-.453.75-.906.547-1.375.281l-3-1.765-.687 1.359.281.172c.406-.703.437-.688 1.25-.219l1.36.797c.687.422 1.515.906 2.327-.469.297-.515.297-1.062-.125-1.656l.813.484zm.892-4.656c-.093-.047-.14 0-.172.062-.046.079.016.125.063.188.828.797.406 1.656.36 1.75-.235.469-.704.703-1.141.75-.61.062-1.235-.25-1.563-.406l1.297-2.625c.094-.22.11-.235-.094-.344-.937-.453-2.093-.406-2.672.766-.53 1.093 0 2.453 1.172 3.03 1.266.61 2.657.079 3.203-1.015.563-1.14-.265-2.078-.453-2.156Zm-1.547-.016-1.109 2.25c-1.36-.75-1.219-1.656-1.062-1.984.484-.969 1.796-.438 2.171-.266ZM62.56 130.712c1.375-.375 2.235-1.734 1.875-3.031l-.718-2.75-.235.062.032.172c.156.563.078.594-.204.672l-3.765 1c-.281.078-.36.078-.516-.484l-.031-.172-.234.062.718 2.75c.36 1.313 1.735 2.063 3.078 1.719zm-.203-.719c-.375.094-1.078.282-1.734-.031a1.933 1.933 0 0 1-.953-1.203l-.219-.86c-.094-.328-.047-.359.219-.421l3.86-1.032c.265-.062.312-.062.405.266l.22.86a1.785 1.785 0 0 1-.235 1.5c-.438.609-1.203.812-1.563.921Zm-.065 4.582c.032-.016.079-.063.047-.156-.03-.063-.078-.063-.14-.063-.75 0-1.016-.61-1.063-.719a1.13 1.13 0 0 1 .156-1.03c.25-.345.704-.516.907-.595l.765 2.079c.063.156.078.203.25.14.625-.234 1.235-.86.875-1.844-.328-.875-1.297-1.296-2.187-.984-.906.344-1.328 1.375-1 2.266.328.89 1.234.968 1.39.906Zm.75-.828-.656-1.781c1.016-.313 1.406.234 1.5.484.313.828-.672 1.234-.844 1.297Zm-1.109 5.747.22-.11c-.188-.437-.235-.515.062-.656l3.812-1.75-.094-.203-.718.047c.265-.406.36-.844.156-1.266-.39-.844-1.406-1.297-2.281-.89a1.71 1.71 0 0 0-.844 2.25c.234.484.656.671.937.734l-1.203.547c-.297.14-.328.078-.53-.36l-.22.11c.125.281.266.578.36.765.093.188.218.47.343.782zm1.829-2.063c-.11.047-.141.063-.375.047-.532-.078-.813-.39-.907-.625-.25-.531.14-1.219.89-1.562.782-.36 1.563-.125 1.813.421.25.547-.14 1.125-.515 1.297zm1.585 5.17.218-.125c-.25-.453-.234-.515.078-.703l2.297-1.312-.64-.954-.203.125c.25.454.234.532-.079.704l-1.14.64c-.563.328-1.156.235-1.438-.265-.312-.547-.062-.735.266-.922l2.156-1.235-.64-.953-.204.125c.282.5.25.516-.328.844l-.984.547c-.453.265-1.063.61-.469 1.656.344.61.938.578 1.031.578l-.53.297Zm2.731 2.417c.03-.03.062-.093 0-.171-.047-.063-.078-.047-.141-.032a1.133 1.133 0 0 1-1.203-.453 1.087 1.087 0 0 1-.094-1.031c.156-.39.563-.656.735-.781l1.234 1.828c.094.14.125.187.266.094.562-.375 1-1.141.406-2.032-.516-.75-1.547-.922-2.328-.406-.797.547-.97 1.64-.438 2.422.531.797 1.422.656 1.563.562Zm.53-1-1.062-1.562c.922-.547 1.422-.125 1.563.094.5.75-.36 1.359-.5 1.468zm1.456 4.99.203-.156c-.312-.406-.328-.484-.031-.719l2.062-1.64-.78-.828-.188.14c.312.406.312.485.03.719l-1.015.812c-.5.407-1.125.391-1.468-.062-.407-.5-.172-.703.109-.938l1.953-1.546-.797-.829-.187.141c.359.438.343.453-.188.875l-.875.703c-.422.328-.969.766-.219 1.703.438.547 1.032.422 1.11.422l-.485.375zm3.067 1.95c.032-.015.047-.078-.015-.156-.047-.047-.094-.031-.156-.016a1.064 1.064 0 0 1-1.25-.25 1.07 1.07 0 0 1-.25-1c.093-.406.437-.734.609-.875l1.5 1.61c.125.125.156.156.281.031.485-.453.797-1.281.078-2.047-.625-.672-1.672-.703-2.36-.062-.718.671-.718 1.765-.062 2.468.641.688 1.5.422 1.625.297zm.375-1.047-1.28-1.39c.796-.672 1.374-.328 1.562-.125.609.64-.157 1.39-.282 1.515Zm5.447 7.259.156-.188-.094-.078c-.375-.281-.39-.39-.312-.64l1.515-4.704c.047-.094.063-.187-.031-.266-.11-.078-.156-.046-.25.032l-4.063 2.406c-.203.11-.515.266-1-.125l-.156.187c.219.141.516.375.625.47.188.14.36.28.64.53l.157-.187c-.266-.203-.328-.453-.187-.625.03-.047.03-.047.125-.094l.875-.531 1.593 1.281-.375 1.14c-.015.079-.047.126-.047.126-.14.172-.453-.063-.609-.188l-.156.188.844.64c.328.266.421.344.75.625zm-.329-2.782-1.453-1.156 2.266-1.328Zm1.941 3.78c.234-.328.343-.734.046-.937a.424.424 0 0 0-.593.11c-.125.187-.094.421.125.577.14.094.265.063.312.063-.125.187-.469.703-1.25.828-.031 0-.078 0-.094.031-.03.063.016.141.032.157.078.046.922-.079 1.422-.829Zm7.975 2.899c.281-.531.031-1.328-.766-1.844.813.219 1.454 0 1.688-.469.297-.578-.11-1.468-1.016-1.922l-2.53-1.28-.11.218.14.078c.516.266.5.344.375.594l-1.75 3.484c-.14.25-.187.328-.703.063l-.14-.078-.11.218 2.735 1.375c.921.469 1.875.203 2.187-.437Zm.266-2.64c-.235.468-.907.78-1.657.39l-1.062-.531.812-1.61c.125-.234.157-.265.47-.11l.937.47c.656.328.687 1 .5 1.39zm-.938 2.296c-.265.547-.953.797-1.64.453l-.938-.469c-.312-.156-.297-.218-.187-.453l.906-1.797 1.375.688c.64.328.765 1.047.484 1.578Zm1.99 2.3c.157-.375.172-.781-.156-.922a.414.414 0 0 0-.547.219c-.078.219-.015.437.235.547.156.062.265 0 .312.015-.094.188-.328.782-1.062 1.047-.016.016-.047.016-.078.063-.016.047.046.125.078.14.078.032.875-.265 1.218-1.11Zm8.595.867c.032-.077.047-.14-.062-.171-.094-.016-.125.016-.156.078-.344 1.11-1.375 1.375-2.14 1.172-.626-.156-1.907-.89-1.376-2.906.516-1.938 1.953-2.031 2.625-1.86.688.188 1.406.891 1.266 2.188-.016.047-.032.11.078.14.125.032.14-.03.172-.171l.453-1.688c.031-.125.047-.203-.047-.219-.047-.015-.063 0-.156.079l-.516.421a1.938 1.938 0 0 0-1.266-1.015c-1.453-.375-2.984.469-3.359 1.922-.39 1.468.5 2.953 1.984 3.343 1.235.329 2.282-.437 2.5-1.312zm138.705-1.461-.22.062c.095 1.14.095 1.75-1.218 2.094l-1.078.281c-.328.094-.36.047-.422-.219l-.5-1.906.703-.187c.719-.188.89.015 1.047.64l.203-.047-.515-1.937-.204.047c.172.625.125.875-.593 1.062l-.703.188-.454-1.703c-.062-.25-.062-.313.266-.407l1.031-.265c1.219-.328 1.469.078 1.86 1.03l.218-.062-.64-1.593-4.281 1.14.062.22.172-.048c.562-.156.594-.062.672.203l.984 3.75c.078.282.078.36-.484.516l-.172.047.062.234 4.391-1.156zm4.677.343-.094-.235c-.453.172-.546.203-.656-.11l-.578-1.577c-.234-.594-.625-.89-1.36-.61-.702.25-.827.891-.859 1.078h-.015l-.25-.671-.97.468.095.22c.468-.173.547-.126.672.202l.687 1.86c.11.312.016.343-.422.5l.094.234c.297-.125.594-.234.781-.313.219-.078.5-.187.813-.28l-.094-.235c-.453.172-.531.203-.64-.11l-.47-1.265c-.28-.75.157-1.313.579-1.469.437-.156.656.11.828.563l.594 1.609c.109.312.015.344-.438.5l.094.234c.312-.125.61-.234.812-.312.203-.078.485-.188.797-.281Zm4.586-.528-.109-.219c-.422.188-.516.235-.656-.062l-1.781-3.797-.204.094.047.703c-.39-.235-.828-.328-1.25-.125-.859.39-1.297 1.422-.89 2.297.406.843 1.422 1.203 2.25.812.5-.234.687-.672.75-.937l.562 1.203c.14.297.063.328-.375.531l.11.219a8.29 8.29 0 0 1 .765-.375c.188-.094.485-.235.781-.344zm-2.093-1.813c.047.125.062.157.062.375-.062.547-.39.813-.61.907-.546.265-1.25-.14-1.593-.875-.36-.782-.125-1.547.406-1.813.563-.25 1.141.14 1.313.516zm5.17-1.634-.125-.218c-.453.25-.531.25-.718-.079l-1.313-2.28-.953.655.11.204c.452-.266.53-.25.718.062l.656 1.14c.313.548.219 1.157-.265 1.438-.563.313-.75.063-.938-.265l-1.234-2.141-.938.656.11.203c.484-.28.5-.265.843.328l.563.97c.266.452.625 1.062 1.672.452.61-.343.562-.953.562-1.015l.313.515zm2.384-2.749a.126.126 0 0 0-.156-.016c-.063.047-.063.11-.047.141a1.098 1.098 0 0 1-.438 1.219c-.281.203-.64.265-1.031.094-.375-.141-.656-.532-.781-.72l1.812-1.25c.14-.109.188-.124.094-.265-.375-.547-1.14-1-2.016-.39-.765.515-.937 1.562-.406 2.343.563.797 1.64.953 2.438.407.78-.547.625-1.422.53-1.563zm-1-.531-1.547 1.078c-.547-.906-.125-1.422.094-1.578.734-.5 1.359.344 1.453.5Zm4.988-1.496-.157-.187c-.406.328-.484.312-.719.031l-1.672-2.062-.828.797.156.187c.407-.328.485-.312.72-.031l.827 1.015c.39.5.39 1.11-.047 1.454-.5.406-.718.171-.953-.11l-1.578-1.937-.812.797.156.187c.422-.344.437-.328.86.203l.702.875c.344.406.782.953 1.72.188.546-.438.405-1.032.421-1.11l.375.47zm1.926-3.081c-.016-.032-.094-.047-.157.03-.062.048-.03.094-.015.126a1.08 1.08 0 0 1-.25 1.265c-.25.25-.61.36-1 .266-.406-.078-.735-.438-.89-.594l1.609-1.515c.125-.125.156-.157.03-.282-.452-.484-1.28-.797-2.046-.078-.672.64-.688 1.688-.031 2.375.656.703 1.765.703 2.453.047.687-.656.422-1.516.297-1.64Zm-1.063-.36-1.375 1.297c-.672-.813-.328-1.39-.14-1.578.64-.61 1.39.156 1.515.281zm5.192-7.014c-1.125-.891-2.719-.75-3.547.312l-1.75 2.235.203.14.094-.14c.36-.454.422-.422.656-.235l3.063 2.406c.219.172.265.235-.094.688l-.094.14.203.157 1.75-2.235c.844-1.078.61-2.609-.484-3.468Zm-.453.593c.297.22.875.672 1.031 1.391.063.39-.015.953-.406 1.469l-.547.687c-.219.266-.25.25-.453.094l-3.156-2.469c-.203-.172-.235-.218-.016-.484l.547-.688a1.759 1.759 0 0 1 1.312-.718c.766-.016 1.391.484 1.688.718zm3.519-.816c-.328-.218-.734-.312-.937-.015a.398.398 0 0 0 .094.562c.203.125.453.11.593-.11.094-.14.078-.265.078-.312.188.125.704.47.829 1.25 0 .016 0 .047.046.063.047.047.125 0 .141-.031.063-.078-.078-.907-.844-1.407zm2.302-8.256-.094.203c.907.672 1.375 1.062.782 2.28l-.5 1c-.141.313-.204.313-.438.188l-1.766-.859.329-.656c.328-.672.578-.672 1.156-.39l.094-.204-1.797-.875-.094.203c.594.281.734.485.406 1.156l-.328.657-1.578-.782c-.234-.109-.266-.156-.125-.468l.469-.953c.562-1.125 1.031-1.063 2-.735l.093-.203-1.625-.562-1.953 3.968.22.11.077-.157c.25-.515.344-.484.594-.375l3.484 1.72c.25.124.313.171.063.687l-.078.156.218.11 2-4.063zm2.367-.894c-.374-.14-.78-.156-.921.172-.094.235.015.47.218.547.22.094.454.016.547-.234.078-.156.016-.281.016-.328.187.093.781.312 1.062 1.062 0 .031.016.063.063.078.062.016.11-.03.125-.062.031-.078-.266-.89-1.11-1.235Zm-.863-8.595-1.703-.219-1.094 4.172.219.063.046-.172c.141-.563.25-.547.5-.485l3.766.985c.281.078.344.11.203.672l-.047.172.235.062.28-1.125c.095-.344.235-.875.329-1.187l-.234-.063-.063.219c-.172.687-.281.656-.531.594l-1.766-.454.172-.671c.188-.704.438-.75 1.063-.579l.062-.234-1.953-.516-.062.235c.625.172.859.328.671 1.031l-.171.672-1.829-.484c-.234-.063-.296-.094-.203-.438l.25-.953c.313-1.188.813-1.203 1.797-1.063zm-102.904 49.223c1.625-.625 3.172-2.484 3.172-4.515 0-1.688-1.11-2.828-2.672-2.828-2.266 0-4.578 2.39-4.578 4.828 0 1.75 1.172 2.812 2.687 2.812a4.13 4.13 0 0 0 1.031-.156c-.046.64-.046.672-.046.797 0 .344 0 1.156.875 1.156 1.25 0 1.75-1.922 1.75-2.031 0-.078-.079-.11-.11-.11-.094 0-.11.063-.125.126-.25.734-.86 1-1.234 1-.485 0-.64-.282-.75-1.079zm-1.985-.078c-.812-.328-1.171-1.156-1.171-2.093 0-.735.28-2.22 1.078-3.36.765-1.062 1.75-1.547 2.515-1.547 1.047 0 1.813.813 1.813 2.235 0 1.047-.531 3.5-2.297 4.484-.047-.36-.156-1.125-.922-1.125-.563 0-1.078.516-1.078 1.063 0 .218.062.328.062.343zm.657.11c-.141 0-.485 0-.485-.453 0-.422.406-.844.844-.844.438 0 .64.25.64.89 0 .172-.015.172-.124.22a2.381 2.381 0 0 1-.875.187zM50.366 61.433c1.625-.625 3.172-2.484 3.172-4.515 0-1.688-1.11-2.828-2.672-2.828-2.266 0-4.578 2.39-4.578 4.828 0 1.75 1.171 2.812 2.687 2.812a4.13 4.13 0 0 0 1.031-.156c-.047.64-.047.672-.047.797 0 .344 0 1.156.875 1.156 1.25 0 1.75-1.922 1.75-2.031 0-.078-.078-.11-.109-.11-.094 0-.11.063-.125.126-.25.734-.86 1-1.234 1-.485 0-.64-.282-.75-1.079zm-1.985-.078c-.812-.328-1.172-1.156-1.172-2.093 0-.735.282-2.22 1.079-3.36.765-1.062 1.75-1.547 2.515-1.547 1.047 0 1.813.813 1.813 2.235 0 1.047-.532 3.5-2.297 4.484-.047-.36-.156-1.125-.922-1.125-.563 0-1.078.516-1.078 1.063 0 .218.062.328.062.343zm.657.11c-.141 0-.485 0-.485-.453 0-.422.406-.844.844-.844.437 0 .64.25.64.89 0 .172-.015.172-.124.22a2.386 2.386 0 0 1-.875.187zm6.598.012c.187 0 .75-.015 1.125-.14.515-.188.609-.516.609-.72 0-.39-.39-.624-.86-.624-.843 0-1.968.64-1.968 1.844 0 .703.437 1.296 1.25 1.296 1.187 0 1.734-.687 1.734-.78 0-.048-.062-.126-.125-.126-.031 0-.047.016-.11.078-.546.641-1.359.641-1.484.641-.421 0-.703-.281-.703-.844 0-.094 0-.234.094-.625zm-.391-.187c.297-1.016 1.062-1.094 1.266-1.094.296 0 .562.156.562.422 0 .672-1.187.672-1.484.672Zm221.452-.3c1.625-.626 3.172-2.485 3.172-4.516 0-1.688-1.11-2.828-2.672-2.828-2.266 0-4.578 2.39-4.578 4.828 0 1.75 1.171 2.812 2.687 2.812a4.13 4.13 0 0 0 1.031-.156c-.046.64-.046.672-.046.797 0 .344 0 1.156.875 1.156 1.25 0 1.75-1.922 1.75-2.031 0-.078-.079-.11-.11-.11-.094 0-.11.063-.125.126-.25.734-.86 1-1.234 1-.485 0-.64-.282-.75-1.079zm-1.985-.079c-.812-.328-1.171-1.156-1.171-2.093 0-.735.28-2.22 1.078-3.36.765-1.062 1.75-1.547 2.515-1.547 1.047 0 1.813.813 1.813 2.235 0 1.047-.531 3.5-2.297 4.484-.047-.36-.156-1.125-.922-1.125-.563 0-1.078.516-1.078 1.063 0 .218.062.328.062.343zm.657.11c-.141 0-.485 0-.485-.453 0-.422.406-.844.844-.844.438 0 .64.25.64.89 0 .172-.015.172-.124.22a2.386 2.386 0 0 1-.875.187zm7.879-1.144h.672c.14 0 .234 0 .234-.156 0-.094-.094-.094-.219-.094h-.64c.156-.89.203-1.203.265-1.406a.384.384 0 0 1 .36-.297s.187 0 .328.078c-.297.094-.313.344-.313.375 0 .156.125.266.281.266a.405.405 0 0 0 .391-.422c0-.328-.328-.5-.687-.5a.974.974 0 0 0-.844.515c-.14.266-.188.578-.344 1.391h-.547c-.14 0-.234 0-.234.156 0 .094.094.094.219.094h.515c0 .047-.437 2.547-.61 3.297-.03.156-.155.672-.484.672-.015 0-.171 0-.312-.078a.437.437 0 0 0 .312-.375c0-.157-.125-.266-.28-.266a.404.404 0 0 0-.391.422c0 .312.328.5.671.5.438 0 .75-.453.829-.61.25-.468.421-1.328.437-1.406zm0 0"/></svg>