<svg xmlns="http://www.w3.org/2000/svg" width="430.173" height="140.827" viewBox="0 0 322.63 105.62"><path fill="none" stroke="#000" stroke-miterlimit="10" stroke-width=".399" d="M90.332 16.27c0-5.747-4.656-10.403-10.402-10.403-5.746 0-10.407 4.656-10.407 10.403 0 5.746 4.66 10.406 10.407 10.406 5.746 0 10.402-4.66 10.402-10.406Zm0 0"/><path d="M83.522 20.03v-.328h-.187c-.64 0-.782-.078-.89-.422l-2.282-6.562c-.047-.125-.063-.204-.235-.204-.171 0-.203.063-.25.204l-2.171 6.28c-.188.532-.61.688-1.172.704v.328l1.062-.031 1.203.031v-.328c-.515 0-.78-.266-.78-.531 0-.032.015-.141.015-.157l.484-1.375h2.594l.562 1.61c0 .031.032.094.032.14 0 .313-.594.313-.875.313v.328c.375-.031 1.109-.031 1.515-.031Zm-2.719-2.719h-2.359l1.172-3.406Zm0 0"/><path fill="none" stroke="#000" stroke-miterlimit="10" stroke-width=".399" d="M51.05 41.07c0-5.574-4.519-10.097-10.093-10.097S30.863 35.496 30.863 41.07c0 5.575 4.52 10.094 10.094 10.094s10.094-4.52 10.094-10.094Zm0 0"/><path d="M44.068 42.734c0-.906-.86-1.703-2.015-1.828 1.015-.203 1.734-.875 1.734-1.64 0-.923-.953-1.782-2.328-1.782h-3.844v.328h.25c.813 0 .828.11.828.485v5.546c0 .375-.015.485-.828.485h-.25v.328h4.125c1.39 0 2.328-.938 2.328-1.922Zm-1.297-3.469c0 .672-.515 1.547-1.672 1.547h-1.53v-2.578c0-.344.03-.422.515-.422h1.297c1.03 0 1.39.89 1.39 1.453zm.25 3.453c0 .75-.547 1.61-1.625 1.61h-1.312c-.485 0-.516-.078-.516-.422v-2.86h1.985c1.03 0 1.468.97 1.468 1.672zm0 0"/><path fill="none" stroke="#000" stroke-miterlimit="10" stroke-width=".399" d="M129.332 41.207c0-5.684-4.61-10.289-10.293-10.289-5.684 0-10.289 4.605-10.289 10.289 0 5.684 4.605 10.293 10.29 10.293 5.683 0 10.292-4.61 10.292-10.293Zm0 0"/><path d="M122.233 42.34c0-.093 0-.171-.14-.171-.11 0-.11.062-.125.172-.078 1.5-1.203 2.36-2.344 2.36-.64 0-2.703-.36-2.703-3.485 0-3.14 2.047-3.5 2.687-3.5 1.141 0 2.078.953 2.282 2.484.03.156.03.188.171.188.172 0 .172-.032.172-.25v-2.5c0-.172 0-.25-.125-.25-.03 0-.078 0-.156.125l-.531.781c-.39-.375-.922-.906-1.938-.906-1.953 0-3.64 1.672-3.64 3.812 0 2.172 1.687 3.828 3.64 3.828 1.72 0 2.75-1.468 2.75-2.687zm0 0"/><path fill="none" stroke="#000" stroke-miterlimit="10" stroke-width=".399" d="M26.543 65.82c0-5.707-4.629-10.336-10.34-10.336-5.707 0-10.336 4.63-10.336 10.336 0 5.711 4.63 10.34 10.336 10.34 5.711 0 10.34-4.629 10.34-10.34Zm0 0"/><path d="M19.616 65.877c0-1.985-1.422-3.64-3.219-3.64H12.57v.327h.25c.797 0 .828.11.828.485v5.546c0 .375-.031.485-.828.485h-.25v.328h3.828c1.766 0 3.219-1.547 3.219-3.531zm-1.047 0c0 1.172-.203 1.797-.578 2.312-.203.281-.813.89-1.875.89h-1.063c-.484 0-.5-.077-.5-.421v-5.672c0-.344.016-.422.5-.422h1.063c.64 0 1.375.235 1.906.969.453.625.547 1.531.547 2.344Zm0 0"/><path fill="none" stroke="#000" stroke-miterlimit="10" stroke-width=".399" d="M75.48 65.59c0-5.528-4.48-10.008-10.003-10.008-5.528 0-10.008 4.48-10.008 10.008 0 5.523 4.48 10.004 10.008 10.004 5.523 0 10.003-4.48 10.003-10.004Zm0 0"/><path d="M68.743 66.455h-.266c-.25 1.61-.5 2.375-2.297 2.375h-1.406c-.484 0-.516-.078-.516-.422v-2.797h.953c1.016 0 1.125.328 1.125 1.219h.266v-2.781h-.266c0 .906-.109 1.234-1.125 1.234h-.953v-2.516c0-.343.032-.422.516-.422h1.36c1.609 0 1.89.579 2.062 2.032h.25l-.281-2.36h-5.922v.328h.25c.812 0 .828.11.828.485v5.515c0 .375-.016.485-.828.485h-.25v.328h6.062zm0 0"/><path fill="none" stroke="#000" stroke-miterlimit="10" stroke-width=".399" d="M104.355 65.781c0-5.46-4.425-9.89-9.89-9.89-5.461 0-9.89 4.43-9.89 9.89 0 5.465 4.429 9.89 9.89 9.89a9.888 9.888 0 0 0 9.89-9.89Zm0 0"/><path d="m97.444 64.57-.297-2.359h-5.765v.328h.25c.812 0 .828.11.828.485v5.515c0 .375-.016.485-.828.485h-.25v.328c.375-.031 1.187-.031 1.594-.031.437 0 1.39 0 1.765.031v-.328h-.344c-1 0-1-.14-1-.5v-2.578h.907c1.015 0 1.109.328 1.109 1.218h.266v-2.78h-.266c0 .89-.094 1.234-1.11 1.234h-.906V62.96c0-.343.032-.422.516-.422h1.266c1.578 0 1.828.594 2 2.032zm0 0"/><path fill="none" stroke="#000" stroke-miterlimit="10" stroke-width=".399" d="M154.621 66.246c0-5.824-4.719-10.547-10.543-10.547-5.824 0-10.547 4.723-10.547 10.547 0 5.824 4.723 10.547 10.547 10.547 5.824 0 10.543-4.723 10.543-10.547Zm0 0"/><path d="M147.675 67.285v-.312l-1.282.03c-.421 0-1.312 0-1.687-.03v.312h.328c.953 0 .984.125.984.516v.672c0 1.172-1.343 1.265-1.625 1.265-.687 0-2.765-.375-2.765-3.5 0-3.14 2.062-3.484 2.703-3.484 1.11 0 2.078.953 2.281 2.484.016.157.016.188.172.188.172 0 .172-.031.172-.25v-2.5c0-.172 0-.25-.125-.25-.047 0-.078 0-.172.125l-.516.781c-.343-.328-.906-.906-1.953-.906-1.953 0-3.64 1.656-3.64 3.812 0 2.157 1.672 3.828 3.672 3.828.765 0 1.609-.28 1.953-.89.14.219.562.64.687.64.094 0 .094-.078.094-.234v-1.828c0-.406.031-.469.719-.469zm0 0"/><path fill="none" stroke="#000" stroke-miterlimit="10" stroke-width=".399" d="M70.984 21.96 49.641 35.544"/><path d="M95.491 22.934v-.25h-.265c-.719 0-.735-.094-.735-.36v-4.171c0-.203-.015-.203-.218-.203-.313.297-.703.484-1.422.484v.234c.203 0 .61 0 1.047-.203v3.86c0 .265-.032.359-.735.359h-.265v.25c.312-.016.953-.016 1.297-.016.328 0 .984 0 1.296.016zm0 0"/><path fill="none" stroke="#000" stroke-miterlimit="10" stroke-width=".399" d="m88.867 21.973 21.328 13.597M33.676 48.348 23.656 58.37"/><path d="M56.738 47.89h-.234c-.016.156-.078.53-.172.671-.047.063-.61.063-.735.063H54.27l1-.922c.125-.11.438-.36.563-.469.469-.422.906-.828.906-1.516 0-.89-.75-1.468-1.687-1.468-.907 0-1.5.672-1.5 1.343 0 .375.296.422.406.422.156 0 .39-.11.39-.39 0-.391-.375-.391-.468-.391a1.162 1.162 0 0 1 1.093-.734c.688 0 1.047.593 1.047 1.218 0 .782-.547 1.344-1.422 2.25l-.953.985c-.093.078-.093.094-.093.281h2.968zm-24.58 24.898v-.25h-.797v-3.375c0-.141 0-.203-.156-.203-.094 0-.11 0-.172.109l-2.406 3.469v.25h2.125v.625c0 .28-.031.359-.61.359h-.171v.25l1.078-.016 1.093.016v-.25h-.171c-.579 0-.61-.078-.61-.36v-.624zm-1.36-.25h-1.906l1.907-2.766Zm0 0"/><path fill="none" stroke="#000" stroke-miterlimit="10" stroke-width=".399" d="M48.234 48.348 58.258 58.37"/><path d="M81.256 72.172c0-.875-.625-1.64-1.515-1.64-.375 0-.735.124-1.016.374v-1.453c.094.031.406.11.719.11.937 0 1.5-.657 1.5-.766 0-.094-.047-.11-.078-.11 0 0-.032 0-.11.032a2.88 2.88 0 0 1-1.031.203c-.453 0-.813-.11-1.047-.203-.078-.031-.094-.031-.094-.031-.11 0-.11.078-.11.218v2.188c0 .14 0 .234.126.234.062 0 .078-.031.125-.094.078-.109.375-.5 1.016-.5.406 0 .609.344.687.5.125.266.14.61.14.907 0 .265-.015.672-.218 1a.986.986 0 0 1-.844.468c-.484 0-.969-.312-1.14-.796h.078c.203 0 .375-.125.375-.36 0-.281-.22-.375-.375-.375-.125 0-.375.078-.375.39 0 .673.593 1.36 1.453 1.36.937 0 1.734-.719 1.734-1.656zm0 0"/><path fill="none" stroke="#000" stroke-miterlimit="10" stroke-width=".399" d="m111.621 48.625-10.02 10.023"/><path d="M134.884 48.012c0-.625-.485-1.188-1.25-1.36.593-.203 1.03-.718 1.03-1.312 0-.61-.671-1.031-1.452-1.031-.813 0-1.406.437-1.406 1 0 .28.187.406.374.406.235 0 .375-.172.375-.39 0-.282-.234-.376-.39-.391.312-.407.89-.438 1.016-.438.203 0 .765.063.765.844 0 .515-.219.828-.312.953-.235.234-.407.25-.86.281-.14 0-.203.016-.203.11 0 .109.063.109.188.109h.375c.593 0 .968.437.968 1.219 0 .937-.53 1.218-.922 1.218-.421 0-.984-.156-1.234-.546.266 0 .453-.172.453-.422s-.172-.422-.406-.422a.414.414 0 0 0-.422.437c0 .703.766 1.172 1.625 1.172 1 0 1.688-.687 1.688-1.437zM110.31 72.351c0-.984-.735-1.672-1.579-1.672-.53 0-.859.344-1.03.704 0-.625.062-1.172.327-1.625.22-.375.61-.688 1.078-.688.157 0 .5.031.672.297-.343 0-.375.266-.375.344a.352.352 0 1 0 .703-.016c0-.453-.328-.812-1-.812-1.046 0-2.109.984-2.109 2.609 0 2.031.953 2.531 1.672 2.531.36 0 .75-.094 1.094-.422.297-.297.547-.609.547-1.25zm-.704-.015c0 .39 0 .718-.14.984-.203.344-.469.484-.797.484-.39 0-.64-.28-.75-.5-.172-.328-.188-.843-.188-1.125 0-.75.407-1.296.985-1.296.375 0 .594.187.734.453.156.281.156.625.156 1zm0 0"/><path fill="none" stroke="#000" stroke-miterlimit="10" stroke-width=".399" d="m126.457 48.625 10.023 10.023"/><path d="M160.14 69.544h-1.907c-.187 0-.422-.016-.61-.031-.39-.016-.39-.094-.405-.203h-.235l-.266 1.578h.235c.016-.11.094-.641.203-.688.078-.047.64-.047.766-.047h1.578l-.766 1.032c-.86 1.14-1.031 2.328-1.031 2.921 0 .079 0 .422.344.422.359 0 .359-.343.359-.422v-.359c0-1.078.172-1.969.547-2.453l1.125-1.484c.062-.094.062-.11.062-.266zM53.812 89.403l-.297-2.36H47.75v.328H48c.812 0 .828.11.828.485v5.515c0 .375-.016.485-.828.485h-.25v.328c.375-.031 1.187-.031 1.593-.031.438 0 1.391 0 1.766.031v-.328h-.344c-1 0-1-.14-1-.5v-2.578h.907c1.015 0 1.109.328 1.109 1.218h.266v-2.78h-.266c0 .89-.094 1.234-1.11 1.234h-.906v-2.657c0-.343.032-.422.516-.422h1.266c1.578 0 1.828.594 2 2.032zm5.204 4.781v-.328c-.75 0-.828-.078-.828-.578v-3.735l-1.547.11v.328c.734 0 .828.078.828.594v1.859c0 .922-.516 1.64-1.281 1.64-.875 0-.922-.5-.922-1.046v-3.485l-1.531.11v.328c.812 0 .812.031.812.969v1.578c0 .812 0 1.765 1.594 1.765.594 0 1.047-.28 1.36-.937v.937zm2.884 0v-.328c-.702 0-.812 0-.812-.469v-6.484l-1.515.11v.327c.734 0 .828.078.828.578v5.47c0 .468-.125.468-.828.468v.328l1.172-.031zm2.92 0v-.328c-.703 0-.813 0-.813-.469v-6.484l-1.515.11v.327c.734 0 .828.078.828.578v5.47c0 .468-.125.468-.828.468v.328l1.172-.031zm10.561-1.922c0-.906-.86-1.703-2.015-1.828 1.015-.203 1.734-.875 1.734-1.64 0-.923-.953-1.782-2.328-1.782h-3.844v.328h.25c.813 0 .828.11.828.485v5.546c0 .375-.015.485-.828.485h-.25v.328h4.125c1.39 0 2.328-.938 2.328-1.922Zm-1.297-3.469c0 .672-.515 1.547-1.672 1.547h-1.53v-2.578c0-.344.03-.422.515-.422h1.297c1.03 0 1.39.89 1.39 1.453zm.25 3.453c0 .75-.547 1.61-1.625 1.61h-1.312c-.485 0-.516-.078-.516-.422v-2.86h1.985c1.03 0 1.468.97 1.468 1.672zm4.246 1.938v-.328c-.687 0-.734-.047-.734-.453v-3.86l-1.468.11v.328c.687 0 .78.062.78.578v2.828c0 .469-.124.469-.827.469v.328l1.156-.031c.375 0 .734.015 1.094.031zm-.577-6.344a.57.57 0 0 0-.563-.562.57.57 0 0 0-.562.562c0 .281.25.563.562.563a.56.56 0 0 0 .563-.563zm6.528 6.344v-.328c-.547 0-.813 0-.828-.313v-2c0-.906 0-1.234-.328-1.609-.14-.188-.485-.39-1.094-.39-.766 0-1.266.452-1.563 1.109v-1.11l-1.468.11v.328c.734 0 .812.078.812.594v2.812c0 .469-.11.469-.812.469v.328l1.172-.031 1.187.031v-.328c-.703 0-.828 0-.828-.469V91.45c0-1.094.75-1.672 1.422-1.672.656 0 .781.562.781 1.156v2.453c0 .469-.125.469-.828.469v.328l1.187-.031zm5.291-.938v-.578h-.265v.578c0 .61-.266.672-.375.672-.36 0-.391-.468-.391-.515v-2.11c0-.437 0-.843-.375-1.234a2.054 2.054 0 0 0-1.453-.578c-.86 0-1.578.5-1.578 1.187 0 .313.203.485.484.485.297 0 .484-.203.484-.469 0-.14-.062-.484-.53-.484.28-.375.796-.485 1.124-.485.516 0 1.11.406 1.11 1.344v.39c-.532.032-1.266.063-1.922.376-.797.359-1.047.906-1.047 1.359 0 .86 1.015 1.11 1.672 1.11.687 0 1.172-.407 1.375-.907.047.422.328.86.812.86.235 0 .875-.141.875-1zm-1.765-.53c0 1-.75 1.359-1.22 1.359-.515 0-.952-.375-.952-.907 0-.562.437-1.437 2.172-1.5zm5.765-2.532c0-.344-.328-.64-.781-.64-.766 0-1.14.702-1.297 1.156v-1.157l-1.453.11v.328c.734 0 .812.078.812.594v2.812c0 .469-.109.469-.812.469v.328l1.187-.031c.422 0 .922 0 1.344.031v-.328h-.219c-.78 0-.796-.11-.796-.485v-1.625c0-1.03.437-1.968 1.234-1.968h.11a.476.476 0 0 0-.235.422c0 .28.219.453.453.453.188 0 .453-.14.453-.469zm5.616-.204v-.327c-.234.031-.547.031-.781.031l-.906-.031v.328c.312.015.484.187.484.453 0 .11-.016.125-.062.25l-1.063 2.594-1.156-2.828a.588.588 0 0 1-.063-.188c0-.281.375-.281.578-.281v-.328l-1.14.031c-.281 0-.703 0-1.016-.031v.328c.5 0 .703 0 .844.375l1.578 3.828-.266.625c-.234.578-.515 1.297-1.187 1.297-.063 0-.297 0-.5-.188.328-.047.406-.28.406-.437a.431.431 0 0 0-.437-.453.43.43 0 0 0-.438.453c0 .484.438.86.969.86.656 0 1.078-.61 1.344-1.204l1.843-4.484c.266-.657.813-.672.97-.672Zm10.9-.546-.188-2.36h-6.421l-.204 2.36h.266c.14-1.688.297-2.031 1.89-2.031.188 0 .47 0 .563.015.219.047.219.157.219.407v5.53c0 .36 0 .5-1.094.5h-.422v.329c.422-.031 1.5-.031 1.985-.031.484 0 1.562 0 2 .031v-.328h-.422c-1.11 0-1.11-.14-1.11-.5v-5.531c0-.22 0-.36.188-.407.125-.015.406-.015.61-.015 1.578 0 1.734.343 1.89 2.031Zm0 0"/><path d="M113.699 90.184c0-.344-.328-.64-.782-.64-.765 0-1.14.702-1.296 1.156v-1.157l-1.454.11v.328c.735 0 .813.078.813.594v2.812c0 .469-.11.469-.813.469v.328l1.188-.031c.422 0 .922 0 1.344.031v-.328h-.22c-.78 0-.796-.11-.796-.485v-1.625c0-1.03.438-1.968 1.234-1.968h.11a.476.476 0 0 0-.235.422c0 .28.22.453.454.453.187 0 .453-.14.453-.469zm4.647 2.75c0-.11-.078-.125-.14-.125-.094 0-.11.062-.141.14-.36 1.094-1.313 1.094-1.407 1.094-.53 0-.953-.328-1.187-.703-.313-.515-.313-1.203-.313-1.578h2.922c.235 0 .266 0 .266-.219 0-1.047-.563-2.062-1.875-2.062-1.219 0-2.188 1.078-2.188 2.39 0 1.407 1.094 2.422 2.313 2.422 1.281 0 1.75-1.156 1.75-1.359zm-.688-1.39h-2.5c.063-1.563.954-1.829 1.313-1.829 1.078 0 1.187 1.406 1.187 1.828zm5.35 1.39c0-.11-.078-.125-.14-.125-.094 0-.11.062-.141.14-.36 1.094-1.313 1.094-1.407 1.094-.53 0-.953-.328-1.187-.703-.313-.515-.313-1.203-.313-1.578h2.922c.235 0 .266 0 .266-.219 0-1.047-.563-2.062-1.875-2.062-1.219 0-2.188 1.078-2.188 2.39 0 1.407 1.094 2.422 2.313 2.422 1.281 0 1.75-1.156 1.75-1.359zm-.688-1.39h-2.5c.063-1.563.954-1.829 1.313-1.829 1.078 0 1.187 1.406 1.187 1.828zm0 0"/><path fill="none" stroke="#000" stroke-miterlimit="10" stroke-width=".399" d="M267.445 16.27c0-5.747-4.656-10.403-10.402-10.403-5.746 0-10.402 4.656-10.402 10.403 0 5.746 4.656 10.406 10.402 10.406 5.746 0 10.402-4.66 10.402-10.406Zm0 0"/><path d="M260.636 20.03v-.328h-.187c-.64 0-.781-.078-.89-.422l-2.282-6.562c-.047-.125-.063-.204-.234-.204-.172 0-.204.063-.25.204l-2.172 6.28c-.188.532-.61.688-1.172.704v.328l1.062-.031 1.203.031v-.328c-.515 0-.78-.266-.78-.531 0-.032.015-.141.015-.157l.484-1.375h2.594l.562 1.61c0 .031.032.094.032.14 0 .313-.594.313-.875.313v.328c.375-.031 1.109-.031 1.515-.031Zm-2.719-2.719h-2.359l1.172-3.406Zm0 0"/><path fill="none" stroke="#000" stroke-miterlimit="10" stroke-width=".399" d="M228.164 41.07c0-5.574-4.52-10.097-10.094-10.097s-10.093 4.523-10.093 10.097c0 5.575 4.52 10.094 10.093 10.094 5.575 0 10.094-4.52 10.094-10.094Zm0 0"/><path d="M221.181 42.734c0-.906-.86-1.703-2.016-1.828 1.016-.203 1.735-.875 1.735-1.64 0-.923-.953-1.782-2.328-1.782h-3.844v.328h.25c.813 0 .828.11.828.485v5.546c0 .375-.016.485-.828.485h-.25v.328h4.125c1.39 0 2.328-.938 2.328-1.922Zm-1.297-3.469c0 .672-.515 1.547-1.672 1.547h-1.53v-2.578c0-.344.03-.422.515-.422h1.297c1.03 0 1.39.89 1.39 1.453zm.25 3.453c0 .75-.547 1.61-1.625 1.61h-1.312c-.485 0-.516-.078-.516-.422v-2.86h1.984c1.032 0 1.47.97 1.47 1.672zm0 0"/><path fill="none" stroke="#000" stroke-miterlimit="10" stroke-width=".399" d="M306.445 41.207c0-5.684-4.61-10.289-10.293-10.289-5.683 0-10.289 4.605-10.289 10.289 0 5.684 4.606 10.293 10.29 10.293 5.683 0 10.292-4.61 10.292-10.293Zm0 0"/><path d="M299.347 42.34c0-.093 0-.171-.14-.171-.11 0-.11.062-.125.172-.078 1.5-1.203 2.36-2.344 2.36-.64 0-2.703-.36-2.703-3.485 0-3.14 2.047-3.5 2.687-3.5 1.141 0 2.079.953 2.282 2.484.03.156.03.188.172.188.171 0 .171-.032.171-.25v-2.5c0-.172 0-.25-.125-.25-.03 0-.078 0-.156.125l-.531.781c-.39-.375-.922-.906-1.938-.906-1.953 0-3.64 1.672-3.64 3.812 0 2.172 1.687 3.828 3.64 3.828 1.72 0 2.75-1.468 2.75-2.687zm0 0"/><path fill="none" stroke="#000" stroke-miterlimit="10" stroke-width=".399" d="M203.656 65.82c0-5.707-4.629-10.336-10.336-10.336-5.71 0-10.34 4.63-10.34 10.336 0 5.711 4.63 10.34 10.34 10.34 5.707 0 10.336-4.629 10.336-10.34Zm0 0"/><path d="M196.729 65.877c0-1.985-1.422-3.64-3.219-3.64h-3.828v.327h.25c.797 0 .828.11.828.485v5.546c0 .375-.031.485-.828.485h-.25v.328h3.828c1.766 0 3.219-1.547 3.219-3.531zm-1.047 0c0 1.172-.203 1.797-.578 2.312-.203.281-.813.89-1.875.89h-1.063c-.484 0-.5-.077-.5-.421v-5.672c0-.344.016-.422.5-.422h1.063c.64 0 1.375.235 1.906.969.453.625.547 1.531.547 2.344Zm0 0"/><path fill="none" stroke="#000" stroke-miterlimit="10" stroke-width=".399" d="M252.594 65.59c0-5.528-4.48-10.008-10.004-10.008-5.528 0-10.008 4.48-10.008 10.008 0 5.523 4.48 10.004 10.008 10.004 5.523 0 10.004-4.48 10.004-10.004Zm0 0"/><path d="M245.857 66.455h-.266c-.25 1.61-.5 2.375-2.297 2.375h-1.406c-.484 0-.516-.078-.516-.422v-2.797h.953c1.016 0 1.126.328 1.126 1.219h.265v-2.781h-.266c0 .906-.109 1.234-1.124 1.234h-.954v-2.516c0-.343.032-.422.516-.422h1.36c1.609 0 1.89.579 2.062 2.032h.25l-.281-2.36h-5.922v.328h.25c.812 0 .828.11.828.485v5.515c0 .375-.016.485-.828.485h-.25v.328h6.062zm0 0"/><path fill="none" stroke="#000" stroke-miterlimit="10" stroke-width=".399" d="M281.469 65.781c0-5.46-4.426-9.89-9.89-9.89-5.462 0-9.888 4.43-9.888 9.89 0 5.465 4.426 9.89 9.887 9.89a9.888 9.888 0 0 0 9.89-9.89Zm0 0"/><path d="m274.557 64.57-.297-2.359h-5.765v.328h.25c.812 0 .828.11.828.485v5.515c0 .375-.016.485-.828.485h-.25v.328c.375-.031 1.187-.031 1.594-.031.437 0 1.39 0 1.765.031v-.328h-.344c-1 0-1-.14-1-.5v-2.578h.907c1.015 0 1.109.328 1.109 1.218h.266v-2.78h-.266c0 .89-.094 1.234-1.11 1.234h-.906V62.96c0-.343.032-.422.516-.422h1.266c1.578 0 1.828.594 2 2.032zm0 0"/><path fill="none" stroke="#000" stroke-miterlimit="10" stroke-width=".399" d="m248.098 21.96-21.344 13.583"/><path d="M272.604 22.934v-.25h-.265c-.719 0-.735-.094-.735-.36v-4.171c0-.203-.015-.203-.218-.203-.313.297-.704.484-1.422.484v.234c.203 0 .61 0 1.047-.203v3.86c0 .265-.032.359-.735.359h-.265v.25c.312-.016.953-.016 1.296-.016.329 0 .985 0 1.297.016zm0 0"/><path fill="none" stroke="#000" stroke-miterlimit="10" stroke-width=".399" d="m265.98 21.973 21.33 13.597m-76.52 12.778L200.77 58.37"/><path d="M233.851 47.89h-.234c-.016.156-.078.53-.172.671-.047.063-.61.063-.735.063h-1.328l1-.922c.125-.11.438-.36.563-.469.469-.422.906-.828.906-1.516 0-.89-.75-1.468-1.687-1.468-.907 0-1.5.672-1.5 1.343 0 .375.296.422.406.422.156 0 .39-.11.39-.39 0-.391-.375-.391-.468-.391a1.162 1.162 0 0 1 1.093-.734c.688 0 1.047.593 1.047 1.218 0 .782-.547 1.344-1.422 2.25l-.953.985c-.093.078-.093.094-.093.281h2.968zm-24.58 24.898v-.25h-.797v-3.375c0-.141 0-.203-.156-.203-.094 0-.11 0-.172.109l-2.406 3.469v.25h2.125v.625c0 .28-.032.359-.61.359h-.172v.25l1.079-.016 1.093.016v-.25h-.172c-.578 0-.609-.078-.609-.36v-.624zm-1.36-.25h-1.906l1.907-2.766Zm0 0"/><path fill="none" stroke="#000" stroke-miterlimit="10" stroke-width=".399" d="M225.348 48.348 235.37 58.37"/><path d="M258.37 72.172c0-.875-.626-1.64-1.517-1.64a1.51 1.51 0 0 0-1.015.374v-1.453c.094.031.406.11.719.11.937 0 1.5-.657 1.5-.766 0-.094-.047-.11-.079-.11 0 0-.03 0-.109.032a2.88 2.88 0 0 1-1.031.203c-.453 0-.813-.11-1.047-.203-.078-.031-.094-.031-.094-.031-.11 0-.11.078-.11.218v2.188c0 .14 0 .234.126.234.062 0 .078-.031.125-.094.078-.109.375-.5 1.016-.5.406 0 .609.344.687.5.125.266.14.61.14.907 0 .265-.015.672-.218 1a.986.986 0 0 1-.844.468c-.484 0-.969-.312-1.14-.796h.078c.203 0 .375-.125.375-.36 0-.281-.22-.375-.375-.375-.125 0-.375.078-.375.39 0 .673.593 1.36 1.453 1.36.937 0 1.734-.719 1.734-1.656zm0 0"/><path fill="none" stroke="#000" stroke-miterlimit="10" stroke-width=".399" d="m288.734 48.625-10.02 10.023"/><path d="M311.997 48.012c0-.625-.485-1.188-1.25-1.36.593-.203 1.03-.718 1.03-1.312 0-.61-.671-1.031-1.452-1.031-.813 0-1.407.437-1.407 1 0 .28.188.406.375.406.235 0 .375-.172.375-.39 0-.282-.234-.376-.39-.391.312-.407.89-.438 1.015-.438.204 0 .766.063.766.844 0 .515-.219.828-.312.953-.235.234-.407.25-.86.281-.14 0-.203.016-.203.11 0 .109.063.109.188.109h.375c.593 0 .968.437.968 1.219 0 .937-.53 1.218-.922 1.218-.421 0-.984-.156-1.234-.546.266 0 .453-.172.453-.422s-.172-.422-.406-.422a.414.414 0 0 0-.422.437c0 .703.766 1.172 1.625 1.172 1 0 1.688-.687 1.688-1.437zm-24.574 24.339c0-.984-.735-1.672-1.578-1.672-.532 0-.86.344-1.032.704 0-.625.063-1.172.328-1.625.22-.375.61-.688 1.079-.688.156 0 .5.031.671.297-.343 0-.375.266-.375.344a.352.352 0 1 0 .703-.016c0-.453-.328-.812-1-.812-1.046 0-2.109.984-2.109 2.609 0 2.031.953 2.531 1.672 2.531.36 0 .75-.094 1.094-.422.297-.297.547-.609.547-1.25zm-.703-.015c0 .39 0 .718-.141.984-.203.344-.469.484-.797.484-.39 0-.64-.28-.75-.5-.172-.328-.187-.843-.187-1.125 0-.75.406-1.296.984-1.296.375 0 .594.187.734.453.157.281.157.625.157 1zm-68.257 19.511c0-.094 0-.172-.14-.172-.11 0-.11.063-.125.172-.078 1.5-1.203 2.36-2.344 2.36-.64 0-2.703-.36-2.703-3.485 0-3.14 2.047-3.5 2.687-3.5 1.141 0 2.079.953 2.282 2.484.03.157.03.188.172.188.171 0 .171-.031.171-.25v-2.5c0-.172 0-.25-.125-.25-.03 0-.078 0-.156.125l-.531.781c-.39-.375-.922-.906-1.938-.906-1.953 0-3.64 1.672-3.64 3.812 0 2.172 1.687 3.828 3.64 3.828 1.72 0 2.75-1.468 2.75-2.687zm5.55.203c0-1.344-1.062-2.453-2.328-2.453-1.313 0-2.328 1.14-2.328 2.453 0 1.36 1.094 2.36 2.312 2.36a2.334 2.334 0 0 0 2.344-2.36zm-.875-.078c0 .375 0 .937-.234 1.406-.235.469-.688.781-1.219.781-.453 0-.906-.234-1.203-.703-.25-.468-.25-1.11-.25-1.484 0-.406 0-.984.25-1.438a1.386 1.386 0 0 1 1.187-.703c.47 0 .922.235 1.188.672.281.453.281 1.063.281 1.469zm9.703 2.328v-.328c-.547 0-.797 0-.812-.313v-2c0-.906 0-1.234-.328-1.609-.141-.187-.485-.39-1.094-.39-.89 0-1.344.624-1.531 1.03-.141-.921-.922-1.03-1.391-1.03-.766 0-1.266.453-1.563 1.109v-1.11l-1.468.11v.328c.734 0 .812.078.812.594v2.812c0 .469-.11.469-.812.469v.328l1.172-.031 1.187.031v-.328c-.703 0-.828 0-.828-.469v-1.937c0-1.094.75-1.672 1.422-1.672.656 0 .781.562.781 1.156v2.453c0 .469-.125.469-.828.469v.328l1.188-.031 1.187.031v-.328c-.719 0-.828 0-.828-.469v-1.937c0-1.094.75-1.672 1.422-1.672.656 0 .781.562.781 1.156v2.453c0 .469-.125.469-.828.469v.328l1.187-.031zm5.684-2.266c0-1.328-1.015-2.375-2.187-2.375-.828 0-1.266.47-1.469.688v-.688l-1.516.11v.328c.75 0 .813.062.813.531v4.906c0 .485-.11.485-.813.485v.312l1.172-.031 1.188.031v-.312c-.703 0-.813 0-.813-.485v-1.859c.047.172.485.734 1.281.734a2.357 2.357 0 0 0 2.344-2.375zm-.875 0c0 1.266-.734 2.157-1.5 2.157-.422 0-.828-.22-1.11-.641-.14-.219-.14-.234-.14-.453v-2.328c.297-.547.813-.844 1.344-.844.766 0 1.406.922 1.406 2.11zm3.916 2.266v-.328c-.703 0-.812 0-.812-.469V87.02l-1.516.11v.327c.735 0 .828.078.828.578v5.47c0 .468-.125.468-.828.468v.328l1.172-.031zm4.607-1.25c0-.11-.078-.125-.14-.125-.094 0-.11.063-.141.14-.36 1.094-1.313 1.094-1.407 1.094-.53 0-.953-.328-1.187-.703-.313-.515-.313-1.203-.313-1.578h2.922c.235 0 .266 0 .266-.219 0-1.046-.563-2.062-1.875-2.062-1.219 0-2.188 1.078-2.188 2.39 0 1.407 1.094 2.422 2.313 2.422 1.281 0 1.75-1.156 1.75-1.359zm-.688-1.39h-2.5c.063-1.563.954-1.829 1.313-1.829 1.078 0 1.187 1.407 1.187 1.828zm4.475 1.343v-.61h-.266v.579c0 .781-.312 1.187-.703 1.187-.703 0-.703-.968-.703-1.14v-2.922h1.5v-.328h-1.5v-1.922h-.266c0 .86-.312 1.984-1.343 2.016v.234h.89v2.906c0 1.281.969 1.406 1.36 1.406.734 0 1.03-.734 1.03-1.406zm4.96.047c0-.11-.079-.125-.141-.125-.094 0-.11.063-.14.14-.36 1.094-1.313 1.094-1.407 1.094-.531 0-.953-.328-1.188-.703-.312-.515-.312-1.203-.312-1.578h2.922c.234 0 .265 0 .265-.219 0-1.046-.562-2.062-1.875-2.062-1.218 0-2.187 1.078-2.187 2.39 0 1.407 1.094 2.422 2.312 2.422 1.282 0 1.75-1.156 1.75-1.359zm-.688-1.39h-2.5c.062-1.563.953-1.829 1.312-1.829 1.078 0 1.188 1.407 1.188 1.828zm11.304.718c0-.906-.86-1.703-2.015-1.828 1.015-.203 1.734-.875 1.734-1.64 0-.922-.953-1.782-2.328-1.782h-3.844v.328h.25c.813 0 .828.11.828.485v5.547c0 .375-.015.484-.828.484h-.25v.328h4.125c1.39 0 2.328-.937 2.328-1.922Zm-1.297-3.469c0 .672-.515 1.547-1.672 1.547h-1.53v-2.578c0-.344.03-.422.515-.422h1.297c1.03 0 1.39.89 1.39 1.453zm.25 3.454c0 .75-.547 1.609-1.625 1.609h-1.312c-.485 0-.516-.078-.516-.422v-2.86h1.985c1.03 0 1.468.97 1.468 1.673zm4.247 1.937v-.328c-.688 0-.735-.047-.735-.453v-3.86l-1.468.11v.328c.687 0 .78.062.78.578v2.828c0 .469-.124.469-.827.469v.328l1.156-.031c.375 0 .734.015 1.094.031zm-.578-6.344a.57.57 0 0 0-.563-.562.57.57 0 0 0-.562.562c0 .282.25.563.562.563a.56.56 0 0 0 .563-.563zm6.528 6.344v-.328c-.547 0-.813 0-.828-.313v-2c0-.906 0-1.234-.328-1.609-.14-.187-.485-.39-1.094-.39-.766 0-1.266.453-1.563 1.109v-1.11l-1.468.11v.328c.734 0 .812.078.812.594v2.812c0 .469-.11.469-.812.469v.328l1.172-.031 1.187.031v-.328c-.703 0-.828 0-.828-.469v-1.937c0-1.094.75-1.672 1.422-1.672.656 0 .781.562.781 1.156v2.453c0 .469-.125.469-.828.469v.328l1.188-.031zm5.291-.937v-.579h-.266v.579c0 .609-.265.671-.375.671-.359 0-.39-.468-.39-.515v-2.11c0-.437 0-.843-.375-1.234a2.054 2.054 0 0 0-1.453-.578c-.86 0-1.578.5-1.578 1.187 0 .313.203.485.484.485.297 0 .484-.203.484-.469 0-.14-.062-.484-.53-.484.28-.375.796-.485 1.124-.485.516 0 1.11.407 1.11 1.344v.39c-.532.032-1.266.063-1.922.376-.797.359-1.047.906-1.047 1.359 0 .86 1.015 1.11 1.672 1.11.687 0 1.171-.407 1.375-.907.046.422.328.86.812.86.234 0 .875-.141.875-1zm-1.766-.532c0 1-.75 1.36-1.218 1.36-.516 0-.953-.375-.953-.907 0-.562.437-1.437 2.171-1.5zm5.766-2.531c0-.344-.328-.64-.781-.64-.766 0-1.14.703-1.297 1.156v-1.157l-1.453.11v.328c.734 0 .812.078.812.594v2.812c0 .469-.109.469-.812.469v.328l1.187-.031c.422 0 .922 0 1.344.031v-.328h-.219c-.78 0-.797-.11-.797-.484v-1.625c0-1.032.438-1.97 1.235-1.97h.11a.476.476 0 0 0-.235.423c0 .28.219.453.453.453.187 0 .453-.14.453-.469zm5.616-.203v-.328c-.234.031-.547.031-.781.031l-.906-.031v.328c.312.016.484.187.484.453 0 .11-.016.125-.062.25l-1.063 2.594-1.156-2.828a.588.588 0 0 1-.063-.188c0-.281.375-.281.578-.281v-.328l-1.14.031c-.281 0-.703 0-1.016-.031v.328c.5 0 .703 0 .844.375l1.578 3.828-.266.625c-.234.578-.515 1.297-1.187 1.297-.063 0-.297 0-.5-.188.328-.046.406-.28.406-.437a.431.431 0 0 0-.437-.453.43.43 0 0 0-.438.453c0 .484.438.86.969.86.656 0 1.078-.61 1.344-1.204l1.843-4.484c.266-.656.813-.672.97-.672Zm10.9-.547-.187-2.36h-6.422l-.203 2.36h.265c.14-1.687.297-2.031 1.89-2.031.188 0 .47 0 .563.015.219.047.219.157.219.407v5.53c0 .36 0 .5-1.094.5h-.422v.329c.422-.031 1.5-.031 1.985-.031.484 0 1.562 0 2 .031v-.328h-.422c-1.11 0-1.11-.14-1.11-.5V87.94c0-.22 0-.36.188-.407.125-.015.406-.015.61-.015 1.578 0 1.734.344 1.89 2.031Zm0 0"/><path d="M303.854 90.3c0-.344-.328-.64-.782-.64-.765 0-1.14.703-1.296 1.156v-1.157l-1.454.11v.328c.735 0 .813.078.813.594v2.812c0 .469-.11.469-.813.469v.328l1.188-.031c.422 0 .922 0 1.344.031v-.328h-.22c-.78 0-.796-.11-.796-.484v-1.625c0-1.032.438-1.97 1.234-1.97h.11a.476.476 0 0 0-.235.423c0 .28.22.453.454.453.187 0 .453-.14.453-.469zm4.646 2.75c0-.11-.077-.125-.14-.125-.093 0-.11.063-.14.14-.36 1.094-1.313 1.094-1.407 1.094-.53 0-.953-.328-1.187-.703-.313-.515-.313-1.203-.313-1.578h2.922c.235 0 .266 0 .266-.219 0-1.046-.563-2.062-1.875-2.062-1.219 0-2.188 1.078-2.188 2.39 0 1.407 1.094 2.422 2.313 2.422 1.281 0 1.75-1.156 1.75-1.359zm-.687-1.39h-2.5c.063-1.563.954-1.829 1.313-1.829 1.078 0 1.187 1.407 1.187 1.828zm5.35 1.39c0-.11-.078-.125-.14-.125-.095 0-.11.063-.141.14-.36 1.094-1.313 1.094-1.407 1.094-.53 0-.953-.328-1.187-.703-.313-.515-.313-1.203-.313-1.578h2.922c.235 0 .266 0 .266-.219 0-1.046-.563-2.062-1.875-2.062-1.219 0-2.188 1.078-2.188 2.39 0 1.407 1.094 2.422 2.313 2.422 1.281 0 1.75-1.156 1.75-1.359zm-.688-1.39h-2.5c.063-1.563.953-1.829 1.313-1.829 1.078 0 1.187 1.407 1.187 1.828zm0 0"/><path fill="none" stroke="#000" stroke-miterlimit="10" stroke-width=".797" d="m193.602 41.07-43.52.137"/><path fill="none" stroke="#000" stroke-linecap="round" stroke-linejoin="round" stroke-miterlimit="10" stroke-width=".638" d="M151.64 43.273c-.132-.777-1.558-1.937-1.949-2.066.387-.129 1.809-1.3 1.938-2.078"/></svg>