<svg xmlns="http://www.w3.org/2000/svg" width="274.48" height="185.48" viewBox="0 0 205.86 139.11"><path d="M.002-10.227c-5.647 0-10.23 4.58-10.23 10.227S-5.646 10.23.001 10.23 10.229 5.647 10.229 0 5.649-10.227.002-10.227zm0 .399A9.824 9.824 0 0 1 9.83 0c0 5.431-4.397 9.832-9.828 9.832A9.83 9.83 0 0 1-9.83 0c0-5.431 4.4-9.828 9.832-9.828z" style="color:#000;fill:#000;stroke-miterlimit:10;-inkscape-stroke:none" transform="matrix(1 0 0 -1 25.85 42.835)"/><path d="M23.155 41.936c.297 0 1.032-.031 1.532-.234.703-.297.75-.89.75-1.031 0-.438-.375-.844-1.063-.844-1.11 0-2.625.969-2.625 2.719 0 1.015.594 1.796 1.578 1.796 1.422 0 2.25-1.062 2.25-1.171 0-.063-.047-.141-.11-.141-.062 0-.077.031-.14.11-.781.984-1.875.984-1.984.984-.781 0-.875-.844-.875-1.157 0-.125.015-.421.156-1.03zm-.468-.219c.39-1.515 1.421-1.671 1.687-1.671.453 0 .735.296.735.625 0 1.046-1.594 1.046-2.016 1.046zm5.576-.427c0-.187 0-.187-.203-.187-.453.438-1.078.438-1.36.438v.25c.157 0 .626 0 1-.188v3.547c0 .234 0 .328-.687.328h-.266v.25c.125 0 .985-.031 1.235-.031.219 0 1.094.031 1.25.031v-.25h-.266c-.703 0-.703-.094-.703-.328zm0 0"/><path d="M10.21-.2a.2.2 0 0 0-.18.216.2.2 0 0 0 .216.181c3.151-.275 5.37.076 6.832.826 1.463.751 2.185 1.887 2.381 3.268.392 2.762-1.426 6.527-4.12 9.629-2.692 3.102-6.249 5.534-9.175 5.748-1.463.107-2.76-.319-3.78-1.482-1.019-1.164-1.76-3.09-2.013-5.989a.2.2 0 0 0-.215-.181.2.2 0 0 0-.181.214c.258 2.952 1.01 4.964 2.109 6.22 1.1 1.254 2.55 1.729 4.11 1.614 3.118-.228 6.708-2.728 9.447-5.882 2.738-3.155 4.635-6.97 4.213-9.948-.212-1.488-1.03-2.762-2.592-3.564-1.563-.802-3.855-1.15-7.052-.87Z" style="color:#000;fill:#000;stroke-linecap:round;stroke-miterlimit:10;-inkscape-stroke:none" transform="matrix(1 0 0 -1 25.85 42.835)"/><path d="m25.852 32.605 1.863-3.035-1.692 1.051-1.484-1.328"/><path d="M34.63-10.227c-5.646 0-10.226 4.58-10.226 10.227s4.58 10.23 10.227 10.23S44.86 5.647 44.86 0s-4.583-10.227-10.23-10.227zm0 .399c5.432 0 9.833 4.397 9.833 9.828a9.83 9.83 0 0 1-9.832 9.832c-5.431 0-9.828-4.4-9.828-9.832a9.824 9.824 0 0 1 9.828-9.828z" style="color:#000;fill:#000;stroke-miterlimit:10;-inkscape-stroke:none" transform="matrix(1 0 0 -1 25.85 42.835)"/><path d="M57.786 41.936c.297 0 1.032-.031 1.532-.234.703-.297.75-.89.75-1.031 0-.438-.375-.844-1.063-.844-1.11 0-2.625.969-2.625 2.719 0 1.015.594 1.796 1.578 1.796 1.422 0 2.25-1.062 2.25-1.171 0-.063-.047-.141-.11-.141-.062 0-.077.031-.14.11-.781.984-1.875.984-1.984.984-.781 0-.875-.844-.875-1.157 0-.125.015-.421.156-1.03zm-.468-.219c.39-1.515 1.421-1.671 1.687-1.671.453 0 .734.296.734.625 0 1.046-1.593 1.046-2.015 1.046zm6.764 2.745h-.235c-.015.157-.093.563-.187.625-.047.047-.578.047-.688.047h-1.281c.734-.64.984-.843 1.39-1.172.516-.406 1-.843 1-1.5 0-.843-.734-1.359-1.624-1.359-.86 0-1.453.61-1.453 1.25 0 .344.296.39.375.39a.365.365 0 0 0 .359-.374c0-.125-.047-.375-.406-.375.218-.485.687-.641 1.015-.641.703 0 1.063.547 1.063 1.11 0 .609-.438 1.078-.656 1.328l-1.672 1.671c-.078.063-.078.079-.078.266h2.875zm0 0"/><path d="M44.844-.2a.2.2 0 0 0-.182.216.2.2 0 0 0 .217.181c3.15-.275 5.37.076 6.832.826 1.462.751 2.183 1.887 2.379 3.268.392 2.762-1.426 6.527-4.12 9.629-2.692 3.102-6.247 5.534-9.173 5.748-1.463.107-2.76-.319-3.78-1.482-1.019-1.164-1.76-3.09-2.013-5.989a.2.2 0 0 0-.215-.181.2.2 0 0 0-.182.214c.259 2.952 1.01 4.964 2.11 6.22 1.1 1.254 2.55 1.729 4.11 1.614 3.117-.228 6.706-2.728 9.444-5.882 2.739-3.155 4.636-6.97 4.213-9.948-.21-1.488-1.029-2.762-2.591-3.564-1.563-.802-3.853-1.15-7.05-.87Z" style="color:#000;fill:#000;stroke-linecap:round;stroke-miterlimit:10;-inkscape-stroke:none" transform="matrix(1 0 0 -1 25.85 42.835)"/><path d="m60.48 32.605 1.868-3.035-1.692 1.051-1.484-1.328"/><path d="M69.264-10.227c-5.647 0-10.23 4.58-10.23 10.227s4.583 10.23 10.23 10.23C74.91 10.23 79.49 5.647 79.49 0s-4.58-10.227-10.226-10.227zm0 .399A9.824 9.824 0 0 1 79.092 0c0 5.431-4.397 9.832-9.828 9.832A9.83 9.83 0 0 1 59.432 0c0-5.431 4.4-9.828 9.832-9.828z" style="color:#000;fill:#000;stroke-miterlimit:10;-inkscape-stroke:none" transform="matrix(1 0 0 -1 25.85 42.835)"/><path d="M92.416 41.936c.297 0 1.032-.031 1.532-.234.703-.297.75-.89.75-1.031 0-.438-.375-.844-1.063-.844-1.11 0-2.625.969-2.625 2.719 0 1.015.594 1.796 1.578 1.796 1.422 0 2.25-1.062 2.25-1.171 0-.063-.047-.141-.11-.141-.062 0-.077.031-.14.11-.781.984-1.875.984-1.984.984-.781 0-.875-.844-.875-1.157 0-.125.015-.421.156-1.03zm-.468-.219c.39-1.515 1.421-1.671 1.687-1.671.453 0 .734.296.734.625 0 1.046-1.593 1.046-2.015 1.046zm5.154 1.683c.547 0 .938.375.938 1.125 0 .86-.516 1.125-.907 1.125-.28 0-.906-.078-1.187-.5.328 0 .406-.234.406-.39 0-.22-.172-.376-.39-.376a.38.38 0 0 0-.391.407c0 .656.719 1.078 1.562 1.078.97 0 1.641-.657 1.641-1.344 0-.547-.437-1.094-1.203-1.25.719-.266.984-.781.984-1.219 0-.547-.625-.953-1.406-.953-.766 0-1.36.375-1.36.938 0 .234.157.359.36.359.219 0 .36-.156.36-.344 0-.203-.141-.36-.36-.375.25-.297.719-.375.984-.375.313 0 .75.156.75.75 0 .297-.093.625-.28.828-.22.266-.423.282-.766.313-.172.015-.188.015-.22.015-.015 0-.077.016-.077.094 0 .094.062.094.187.094zm0 0"/><path d="M79.473-.2a.2.2 0 0 0-.182.216.2.2 0 0 0 .217.181c3.151-.275 5.37.076 6.832.826 1.463.751 2.185 1.887 2.38 3.268.393 2.762-1.425 6.527-4.118 9.629-2.694 3.102-6.25 5.534-9.176 5.748-1.463.107-2.76-.319-3.78-1.482-1.019-1.164-1.76-3.09-2.013-5.989a.2.2 0 0 0-.215-.181.2.2 0 0 0-.182.214c.258 2.952 1.01 4.964 2.11 6.22 1.1 1.254 2.55 1.729 4.11 1.614 3.117-.228 6.708-2.728 9.446-5.882 2.739-3.155 4.636-6.97 4.213-9.948-.211-1.488-1.029-2.762-2.592-3.564-1.562-.802-3.854-1.149-7.05-.87Z" style="color:#000;fill:#000;stroke-linecap:round;stroke-miterlimit:10;-inkscape-stroke:none" transform="matrix(1 0 0 -1 25.85 42.835)"/><path d="m95.113 32.605 1.864-3.035-1.692 1.051-1.484-1.328"/><path d="M103.893-10.227c-5.647 0-10.23 4.58-10.23 10.227s4.583 10.23 10.23 10.23c5.646 0 10.23-4.583 10.23-10.23s-4.584-10.227-10.23-10.227zm0 .399c5.431 0 9.832 4.397 9.832 9.828a9.83 9.83 0 0 1-9.832 9.832A9.83 9.83 0 0 1 94.06 0c0-5.431 4.4-9.828 9.832-9.828z" style="color:#000;fill:#000;stroke-miterlimit:10;-inkscape-stroke:none" transform="matrix(1 0 0 -1 25.85 42.835)"/><path d="M127.047 41.936c.297 0 1.032-.031 1.532-.234.703-.297.75-.89.75-1.031 0-.438-.375-.844-1.063-.844-1.11 0-2.625.969-2.625 2.719 0 1.015.594 1.796 1.578 1.796 1.422 0 2.25-1.062 2.25-1.171 0-.063-.047-.141-.11-.141-.062 0-.077.031-.14.11-.781.984-1.875.984-1.984.984-.781 0-.875-.844-.875-1.157 0-.125.015-.421.156-1.03zm-.468-.219c.39-1.515 1.421-1.671 1.687-1.671.453 0 .734.296.734.625 0 1.046-1.593 1.046-2.015 1.046zm6.935 2.87v-.25h-.78v-3.109c0-.14 0-.203-.141-.203-.094 0-.125 0-.188.11l-2.312 3.202v.25h2.062v.563c0 .25 0 .328-.578.328h-.188v.25c.36-.016.797-.031 1.047-.031.266 0 .703.015 1.063.031v-.25h-.188c-.578 0-.578-.078-.578-.328v-.563zm-1.312-2.796v2.546h-1.844Zm0 0"/><path d="M114.105-.2a.2.2 0 0 0-.181.216.2.2 0 0 0 .217.181c3.15-.275 5.37.076 6.832.826 1.462.751 2.183 1.887 2.379 3.268.392 2.762-1.426 6.527-4.12 9.629-2.693 3.102-6.249 5.534-9.175 5.748-1.464.107-2.762-.319-3.782-1.482-1.02-1.164-1.76-3.09-2.013-5.989a.2.2 0 0 0-.215-.181.2.2 0 0 0-.182.214c.259 2.952 1.012 4.964 2.112 6.22 1.1 1.254 2.55 1.729 4.109 1.614 3.118-.228 6.709-2.728 9.447-5.882 2.739-3.155 4.636-6.97 4.213-9.948-.211-1.488-1.03-2.762-2.592-3.564s-3.853-1.149-7.049-.87z" style="color:#000;fill:#000;stroke-linecap:round;stroke-miterlimit:10;-inkscape-stroke:none" transform="matrix(1 0 0 -1 25.85 42.835)"/><path d="m129.742 32.605 1.867-3.035-1.695 1.051-1.48-1.328"/><path d="M138.521-10.227c-5.646 0-10.226 4.58-10.226 10.227s4.58 10.23 10.226 10.23c5.647 0 10.231-4.583 10.231-10.23s-4.584-10.227-10.23-10.227zm0 .399c5.432 0 9.833 4.397 9.833 9.828a9.83 9.83 0 0 1-9.833 9.832c-5.43 0-9.828-4.4-9.828-9.832a9.824 9.824 0 0 1 9.828-9.828z" style="color:#000;fill:#000;stroke-miterlimit:10;-inkscape-stroke:none" transform="matrix(1 0 0 -1 25.85 42.835)"/><path d="M161.678 41.936c.297 0 1.032-.031 1.532-.234.703-.297.75-.89.75-1.031 0-.438-.375-.844-1.063-.844-1.11 0-2.625.969-2.625 2.719 0 1.015.594 1.796 1.578 1.796 1.422 0 2.25-1.062 2.25-1.171 0-.063-.047-.141-.11-.141-.062 0-.077.031-.14.11-.781.984-1.875.984-1.984.984-.781 0-.875-.844-.875-1.157 0-.125.015-.421.156-1.03zm-.468-.219c.39-1.515 1.421-1.671 1.687-1.671.453 0 .734.296.734.625 0 1.046-1.593 1.046-2.015 1.046zm4.326.12c.36.094.563.094.672.094.922 0 1.469-.625 1.469-.734 0-.078-.047-.094-.078-.094-.016 0-.032 0-.063.016-.172.062-.531.203-1.047.203-.203 0-.562-.016-1.015-.188-.079-.031-.094-.031-.094-.031-.094 0-.094.078-.094.188v2.046c0 .125 0 .204.11.204.062 0 .078 0 .14-.094.297-.375.734-.438.969-.438a.72.72 0 0 1 .64.39c.125.235.172.5.172.907 0 .203 0 .61-.218.922a.984.984 0 0 1-.813.422c-.453 0-.922-.25-1.094-.719.266.016.407-.156.407-.344 0-.296-.266-.343-.36-.343 0 0-.344 0-.344.375 0 .625.579 1.25 1.407 1.25.89 0 1.672-.657 1.672-1.547 0-.781-.594-1.5-1.454-1.5-.312 0-.671.062-.984.328zm0 0"/><path d="M148.734-.2a.2.2 0 0 0-.181.216.2.2 0 0 0 .217.181c3.15-.275 5.369.076 6.832.826 1.462.751 2.184 1.887 2.38 3.268.393 2.762-1.426 6.527-4.119 9.629-2.693 3.102-6.25 5.534-9.175 5.748-1.464.107-2.76-.319-3.78-1.482-1.02-1.164-1.76-3.09-2.013-5.989a.2.2 0 0 0-.215-.181.2.2 0 0 0-.182.214c.258 2.952 1.01 4.964 2.11 6.22 1.099 1.254 2.55 1.729 4.109 1.614 3.118-.228 6.709-2.728 9.447-5.882 2.739-3.155 4.636-6.97 4.213-9.948-.211-1.488-1.03-2.762-2.592-3.564-1.563-.802-3.854-1.149-7.05-.87z" style="color:#000;fill:#000;stroke-linecap:round;stroke-miterlimit:10;-inkscape-stroke:none" transform="matrix(1 0 0 -1 25.85 42.835)"/><path d="m164.371 32.605 1.867-3.035-1.691 1.051-1.484-1.328M28.111 13.435h-.25c-.25 1.547-.484 2.266-2.188 2.266h-1.328c-.468 0-.484-.063-.484-.391v-2.672h.89c.97 0 1.079.328 1.079 1.172h.25v-2.64h-.25c0 .859-.11 1.171-1.078 1.171h-.891V9.935c0-.328.016-.39.484-.39h1.282c1.53 0 1.797.546 1.953 1.937h.25l-.281-2.25h-5.61v.312h.235c.765 0 .796.11.796.469v5.219c0 .36-.03.469-.796.469h-.235v.312h5.75zm2.831 2.578V15.7c-.671 0-.78 0-.78-.437V9.091l-1.438.11v.312c.703 0 .78.063.78.563v5.187c0 .438-.108.438-.78.438v.312l1.109-.031Zm4.364-1.187c0-.094-.078-.125-.14-.125-.079 0-.11.062-.126.14-.344 1.031-1.25 1.031-1.344 1.031-.5 0-.89-.296-1.125-.671-.296-.47-.296-1.125-.296-1.485h2.78c.22 0 .25 0 .25-.219 0-.984-.546-1.953-1.78-1.953-1.157 0-2.079 1.032-2.079 2.282 0 1.328 1.047 2.296 2.188 2.296 1.219 0 1.672-1.109 1.672-1.296Zm-.656-1.329h-2.375c.062-1.484.906-1.734 1.25-1.734 1.015 0 1.125 1.344 1.125 1.734zm9.048 2.516V15.7c-.516 0-.766 0-.781-.296v-1.907c0-.859 0-1.156-.313-1.515-.14-.172-.469-.375-1.047-.375-.828 0-1.281.594-1.437.984-.14-.875-.875-.984-1.328-.984-.735 0-1.203.422-1.485 1.047v-1.047l-1.406.11v.312c.703 0 .781.062.781.562v2.672c0 .438-.11.438-.781.438v.312l1.14-.031 1.11.031V15.7c-.672 0-.781 0-.781-.437v-1.844c0-1.031.719-1.593 1.344-1.593.64 0 .75.53.75 1.109v2.328c0 .438-.11.438-.782.438v.312l1.125-.031 1.11.031V15.7c-.657 0-.766 0-.766-.437v-1.844c0-1.031.703-1.593 1.344-1.593.625 0 .734.53.734 1.109v2.328c0 .438-.11.438-.781.438v.312l1.125-.031zm4.33-1.187c0-.094-.078-.125-.14-.125-.079 0-.11.062-.126.14-.343 1.031-1.25 1.031-1.343 1.031-.5 0-.891-.296-1.125-.671-.297-.47-.297-1.125-.297-1.485h2.781c.219 0 .25 0 .25-.219 0-.984-.547-1.953-1.781-1.953-1.157 0-2.078 1.032-2.078 2.282 0 1.328 1.047 2.296 2.187 2.296 1.219 0 1.672-1.109 1.672-1.296Zm-.656-1.329h-2.375c.062-1.484.906-1.734 1.25-1.734 1.015 0 1.125 1.344 1.125 1.734zm6.267 2.516V15.7c-.516 0-.766 0-.766-.296v-1.907c0-.859 0-1.156-.312-1.515-.14-.172-.469-.375-1.047-.375-.734 0-1.203.422-1.484 1.047v-1.047l-1.407.11v.312c.703 0 .782.062.782.562v2.672c0 .438-.11.438-.782.438v.312l1.14-.031 1.11.031V15.7c-.672 0-.781 0-.781-.437v-1.844c0-1.031.719-1.593 1.344-1.593.64 0 .75.53.75 1.109v2.328c0 .438-.11.438-.781.438v.312l1.125-.031zm3.254-1.234v-.563h-.25v.547c0 .734-.296 1.11-.671 1.11-.672 0-.672-.907-.672-1.079V12.03h1.437v-.313H55.3V9.888h-.25c0 .813-.297 1.875-1.282 1.922v.219h.844v2.75c0 1.218.938 1.343 1.297 1.343.703 0 .984-.703.984-1.343zm4.157-.047c0-.516-.297-.828-.422-.938-.328-.328-.718-.406-1.14-.484-.563-.11-1.22-.234-1.22-.813 0-.359.25-.765 1.11-.765 1.094 0 1.157.906 1.172 1.203 0 .094.11.094.11.094.14 0 .14-.047.14-.235V11.78c0-.157 0-.235-.11-.235-.046 0-.077 0-.202.125-.032.032-.125.125-.172.157-.375-.282-.781-.282-.938-.282-1.218 0-1.593.672-1.593 1.235 0 .343.156.625.421.843.329.25.61.313 1.329.454.218.046 1.03.203 1.03.921 0 .5-.343.907-1.124.907-.844 0-1.203-.563-1.39-1.422-.032-.125-.032-.156-.141-.156-.125 0-.125.062-.125.234v1.328c0 .172 0 .234.109.234.047 0 .062-.015.25-.203.016-.015.016-.031.203-.218.438.406.89.421 1.094.421 1.14 0 1.61-.671 1.61-1.39zm6.108 1.281V15.7c-.672 0-.703-.046-.703-.437v-3.656l-1.39.11v.312c.64 0 .734.062.734.547v2.687c0 .438-.11.438-.782.438v.312l1.094-.031c.36 0 .703.015 1.047.031Zm-.562-6.016a.523.523 0 0 0-.516-.53.54.54 0 0 0-.547.53c0 .266.234.516.531.516a.513.513 0 0 0 .532-.516zm6.191 6.016V15.7c-.516 0-.766 0-.766-.296v-1.907c0-.859 0-1.156-.312-1.515-.14-.172-.469-.375-1.047-.375-.734 0-1.203.422-1.484 1.047v-1.047l-1.407.11v.312c.704 0 .782.062.782.562v2.672c0 .438-.11.438-.782.438v.312l1.141-.031 1.11.031V15.7c-.672 0-.782 0-.782-.437v-1.844c0-1.031.719-1.593 1.344-1.593.64 0 .75.53.75 1.109v2.328c0 .438-.11.438-.781.438v.312l1.125-.031zm2.68 0V15.7c-.672 0-.703-.046-.703-.437v-3.656l-1.39.11v.312c.64 0 .733.062.733.547v2.687c0 .438-.109.438-.78.438v.312l1.093-.031c.36 0 .703.015 1.047.031Zm-.563-6.016a.523.523 0 0 0-.515-.53.54.54 0 0 0-.547.53c0 .266.234.516.531.516a.513.513 0 0 0 .531-.516zm4.176 4.782v-.563h-.25v.547c0 .734-.297 1.11-.672 1.11-.672 0-.672-.907-.672-1.079V12.03h1.438v-.313h-1.438V9.888h-.25c0 .813-.296 1.875-1.28 1.922v.219h.843v2.75c0 1.218.937 1.343 1.297 1.343.703 0 .984-.703.984-1.343zm3.032 1.234V15.7c-.672 0-.703-.046-.703-.437v-3.656l-1.39.11v.312c.64 0 .734.062.734.547v2.687c0 .438-.11.438-.782.438v.312l1.094-.031c.36 0 .703.015 1.047.031Zm-.563-6.016a.523.523 0 0 0-.515-.53.54.54 0 0 0-.547.53c0 .266.234.516.531.516a.513.513 0 0 0 .531-.516zm5.676 5.125v-.562h-.25v.562c0 .579-.25.641-.36.641-.327 0-.358-.453-.358-.5v-1.984c0-.422 0-.813-.36-1.188-.39-.39-.89-.547-1.375-.547-.812 0-1.5.469-1.5 1.125 0 .297.203.469.453.469a.448.448 0 0 0 .469-.453c0-.125-.063-.453-.516-.453.266-.36.766-.469 1.079-.469.484 0 1.062.39 1.062 1.281v.36c-.516.03-1.219.062-1.844.359-.75.344-1 .86-1 1.297 0 .812.969 1.062 1.594 1.062.672 0 1.125-.406 1.313-.859.046.39.312.813.78.813.204 0 .813-.141.813-.954zm-1.656-.5c0 .938-.719 1.282-1.172 1.282-.484 0-.89-.344-.89-.844 0-.547.406-1.375 2.062-1.438zm4.371 1.391V15.7c-.67 0-.78 0-.78-.437V9.091l-1.438.11v.312c.703 0 .781.063.781.563v5.187c0 .438-.109.438-.78.438v.312l1.109-.031Zm2.77 0V15.7c-.671 0-.78 0-.78-.437V9.091l-1.438.11v.312c.703 0 .781.063.781.563v5.187c0 .438-.11.438-.781.438v.312l1.11-.031Zm5.286-3.984v-.313c-.235.016-.516.031-.75.031l-.86-.03v.312c.313 0 .47.172.47.422 0 .109-.016.125-.063.25l-1.016 2.437-1.094-2.672c-.047-.11-.062-.14-.062-.187 0-.25.36-.25.562-.25v-.313l-1.094.031c-.265 0-.671-.015-.968-.03v.312c.484 0 .672 0 .812.343l1.5 3.641-.25.594c-.219.547-.5 1.234-1.14 1.234-.047 0-.282 0-.47-.187.313-.032.392-.25.392-.422 0-.25-.188-.406-.422-.406-.204 0-.422.125-.422.421 0 .454.422.813.922.813.625 0 1.03-.578 1.265-1.14l1.766-4.25c.25-.641.766-.641.922-.641zm5.984 3.984V15.7c-.672 0-.703-.046-.703-.437v-3.656l-1.391.11v.312c.64 0 .734.062.734.547v2.687c0 .438-.109.438-.78.438v.312l1.093-.031c.36 0 .703.015 1.047.031Zm-.563-6.016a.523.523 0 0 0-.515-.53.54.54 0 0 0-.547.53c0 .266.234.516.531.516a.513.513 0 0 0 .531-.516zm6.192 6.016V15.7c-.516 0-.766 0-.766-.296v-1.907c0-.859 0-1.156-.312-1.515-.141-.172-.47-.375-1.047-.375-.735 0-1.203.422-1.485 1.047v-1.047l-1.406.11v.312c.703 0 .781.062.781.562v2.672c0 .438-.109.438-.78.438v.312l1.14-.031 1.11.031V15.7c-.673 0-.782 0-.782-.437v-1.844c0-1.031.719-1.593 1.344-1.593.64 0 .75.53.75 1.109v2.328c0 .438-.11.438-.782.438v.312l1.125-.031zm8.778 0V15.7c-.687 0-.78-.062-.78-.562V9.091l-1.423.11v.312c.688 0 .766.063.766.563v2.156a1.582 1.582 0 0 0-1.25-.625c-1.172 0-2.219.984-2.219 2.265 0 1.266.969 2.25 2.11 2.25.64 0 1.078-.343 1.328-.656v.656zm-1.468-1.172c0 .172 0 .188-.11.36-.297.484-.734.703-1.172.703-.453 0-.812-.266-1.046-.641-.25-.406-.282-.969-.282-1.39 0-.36.016-.954.297-1.407.219-.312.594-.64 1.14-.64.345 0 .766.156 1.063.593.11.172.11.188.11.375zm4.226 1.172V15.7c-.672 0-.703-.046-.703-.437v-3.656l-1.39.11v.312c.64 0 .734.062.734.547v2.687c0 .438-.11.438-.781.438v.312l1.093-.031c.36 0 .704.015 1.047.031Zm-.562-6.016a.523.523 0 0 0-.516-.53.54.54 0 0 0-.547.53c0 .266.235.516.532.516a.513.513 0 0 0 .53-.516zm7.129-.312c0-.36-.36-.703-.906-.703-.594 0-1.032.375-1.079.422-.296-.375-.859-.422-1.125-.422-.937 0-2.093.515-2.093 1.594v1.14h-.797v.313h.797v3.234c0 .438-.11.438-.782.438v.312l1.11-.031 1.11.031V15.7c-.673 0-.782 0-.782-.437v-3.234h2.094v3.234c0 .438-.11.438-.782.438v.312l1.141-.031c.39 0 .86 0 1.266.031V15.7h-.219c-.734 0-.75-.109-.75-.468v-3.203h1.14v-.313h-1.171V10.56c0-.89.484-1.36.922-1.36.03 0 .187 0 .328.079a.443.443 0 0 0-.297.422c0 .218.156.421.437.421.282 0 .438-.203.438-.437zm-2.344-.297a.443.443 0 0 0-.36.438c0 .062 0 .312.282.406-.031.125-.031.219-.031.344v1.14h-2.125v-1.125c0-.969.812-1.39 1.468-1.39.485 0 .766.187.766.187zm6.027 5.438c0-.094-.078-.125-.14-.125-.079 0-.11.062-.126.14-.343 1.031-1.25 1.031-1.343 1.031-.5 0-.891-.296-1.125-.671-.297-.47-.297-1.125-.297-1.485h2.781c.219 0 .25 0 .25-.219 0-.984-.547-1.953-1.781-1.953-1.156 0-2.078 1.032-2.078 2.282 0 1.328 1.047 2.296 2.187 2.296 1.219 0 1.672-1.109 1.672-1.296Zm-.656-1.329h-2.375c.062-1.484.906-1.734 1.25-1.734 1.015 0 1.125 1.344 1.125 1.734zm4.564-1.281c0-.312-.313-.61-.735-.61-.734 0-1.093.673-1.218 1.095v-1.094l-1.39.11v.312c.702 0 .78.062.78.562v2.672c0 .438-.11.438-.78.438v.312l1.14-.031c.39 0 .86 0 1.265.031V15.7h-.218c-.735 0-.75-.109-.75-.468V13.7c0-.985.421-1.875 1.171-1.875.063 0 .094 0 .11.015-.031 0-.235.125-.235.39 0 .266.22.423.438.423a.421.421 0 0 0 .422-.438zm4.421 2.61c0-.094-.078-.125-.14-.125-.079 0-.11.062-.126.14-.344 1.031-1.25 1.031-1.344 1.031-.5 0-.89-.296-1.125-.671-.296-.47-.296-1.125-.296-1.485h2.78c.22 0 .25 0 .25-.219 0-.984-.546-1.953-1.78-1.953-1.157 0-2.079 1.032-2.079 2.282 0 1.328 1.047 2.296 2.188 2.296 1.219 0 1.672-1.109 1.672-1.296Zm-.656-1.329h-2.375c.062-1.484.906-1.734 1.25-1.734 1.015 0 1.125 1.344 1.125 1.734zm6.267 2.516V15.7c-.516 0-.766 0-.766-.296v-1.907c0-.859 0-1.156-.312-1.515-.141-.172-.47-.375-1.047-.375-.735 0-1.203.422-1.485 1.047v-1.047l-1.406.11v.312c.703 0 .781.062.781.562v2.672c0 .438-.11.438-.781.438v.312l1.14-.031 1.11.031V15.7c-.672 0-.781 0-.781-.437v-1.844c0-1.031.719-1.593 1.344-1.593.64 0 .75.53.75 1.109v2.328c0 .438-.11.438-.782.438v.312l1.125-.031zm3.255-1.234v-.563h-.25v.547c0 .734-.298 1.11-.673 1.11-.672 0-.672-.907-.672-1.079V12.03h1.438v-.313h-1.438V9.888h-.25c0 .813-.296 1.875-1.28 1.922v.219h.843v2.75c0 1.218.938 1.343 1.297 1.343.703 0 .984-.703.984-1.343zm7.464-.047c0-.516-.297-.828-.422-.938-.328-.328-.72-.406-1.141-.484-.562-.11-1.219-.234-1.219-.813 0-.359.25-.765 1.11-.765 1.093 0 1.156.906 1.172 1.203 0 .094.109.094.109.094.14 0 .14-.047.14-.235V11.78c0-.157 0-.235-.109-.235-.047 0-.078 0-.203.125a1.676 1.676 0 0 1-.172.157c-.375-.282-.781-.282-.937-.282-1.22 0-1.594.672-1.594 1.235 0 .343.156.625.422.843.328.25.61.313 1.328.454.219.046 1.031.203 1.031.921 0 .5-.344.907-1.125.907-.844 0-1.203-.563-1.39-1.422-.032-.125-.032-.156-.141-.156-.125 0-.125.062-.125.234v1.328c0 .172 0 .234.11.234.046 0 .062-.015.25-.203.015-.015.015-.031.202-.218.438.406.891.421 1.094.421 1.14 0 1.61-.671 1.61-1.39zm4.472.094c0-.094-.078-.125-.14-.125-.08 0-.11.062-.126.14-.344 1.031-1.25 1.031-1.344 1.031-.5 0-.89-.296-1.125-.671-.297-.47-.297-1.125-.297-1.485h2.782c.218 0 .25 0 .25-.219 0-.984-.547-1.953-1.782-1.953-1.156 0-2.078 1.032-2.078 2.282 0 1.328 1.047 2.296 2.188 2.296 1.219 0 1.672-1.109 1.672-1.296Zm-.657-1.329h-2.375c.063-1.484.907-1.734 1.25-1.734 1.016 0 1.125 1.344 1.125 1.734zm4.251 1.282v-.563h-.25v.547c0 .734-.296 1.11-.67 1.11-.673 0-.673-.907-.673-1.079V12.03h1.438v-.313h-1.438V9.888h-.25c0 .813-.297 1.875-1.281 1.922v.219h.844v2.75c0 1.218.937 1.343 1.297 1.343.703 0 .984-.703.984-1.343zm4.158-.047c0-.516-.297-.828-.422-.938-.328-.328-.719-.406-1.14-.484-.563-.11-1.22-.234-1.22-.813 0-.359.25-.765 1.11-.765 1.094 0 1.156.906 1.172 1.203 0 .094.109.094.109.094.14 0 .14-.047.14-.235V11.78c0-.157 0-.235-.109-.235-.047 0-.078 0-.203.125a1.676 1.676 0 0 1-.172.157c-.375-.282-.781-.282-.937-.282-1.219 0-1.594.672-1.594 1.235 0 .343.156.625.422.843.328.25.61.313 1.328.454.219.046 1.031.203 1.031.921 0 .5-.343.907-1.125.907-.843 0-1.203-.563-1.39-1.422-.032-.125-.032-.156-.141-.156-.125 0-.125.062-.125.234v1.328c0 .172 0 .234.11.234.046 0 .062-.015.25-.203.015-.015.015-.031.203-.218.437.406.89.421 1.093.421 1.14 0 1.61-.671 1.61-1.39zM27.006 67.662v-.312h-.172c-.594 0-.735-.063-.844-.391l-2.156-6.234c-.047-.125-.078-.204-.235-.204-.156 0-.187.063-.234.204l-2.063 5.953c-.187.515-.578.672-1.125.672v.312l1.016-.031 1.156.031v-.312c-.5 0-.75-.25-.75-.5 0-.032.016-.141.016-.157l.469-1.297h2.453l.531 1.516a.58.58 0 0 1 .031.14c0 .298-.562.298-.828.298v.312c.36-.031 1.063-.031 1.438-.031zm-2.579-2.578h-2.234l1.11-3.25zm6.473-3.75c0-.375-.376-.703-.907-.703-.687 0-1.547.531-1.547 1.594v1.14h-.78v.313h.78v3.234c0 .438-.109.438-.765.438v.312l1.125-.031c.406 0 .875 0 1.265.031v-.312h-.203c-.734 0-.75-.11-.75-.47v-3.202h1.125v-.313h-1.156V62.21c0-.875.469-1.36.906-1.36.031 0 .188 0 .328.079a.443.443 0 0 0-.297.422c0 .218.157.421.438.421s.437-.203.437-.437zm0 0"/><path d="M33.698 66.428v-.563h-.25v.547c0 .734-.297 1.11-.672 1.11-.672 0-.672-.907-.672-1.079v-2.765h1.438v-.313h-1.438v-1.828h-.25c0 .813-.297 1.875-1.281 1.922v.219h.844v2.75c0 1.218.937 1.343 1.297 1.343.703 0 .984-.703.984-1.343zm4.704.047c0-.094-.079-.125-.141-.125-.078 0-.11.062-.125.14-.344 1.031-1.25 1.031-1.344 1.031-.5 0-.89-.296-1.125-.671-.297-.47-.297-1.125-.297-1.485h2.782c.218 0 .25 0 .25-.219 0-.984-.547-1.953-1.782-1.953-1.156 0-2.078 1.032-2.078 2.282 0 1.328 1.047 2.296 2.188 2.296 1.218 0 1.672-1.109 1.672-1.296Zm-.657-1.329H35.37c.063-1.484.907-1.734 1.25-1.734 1.016 0 1.125 1.344 1.125 1.734zm4.565-1.281c0-.312-.313-.61-.735-.61-.734 0-1.094.673-1.219 1.095v-1.094l-1.39.11v.312c.703 0 .78.062.78.562v2.672c0 .438-.109.438-.78.438v.312l1.14-.031c.39 0 .86 0 1.266.031v-.312h-.219c-.734 0-.75-.11-.75-.47v-1.53c0-.985.422-1.875 1.172-1.875.062 0 .094 0 .11.015-.032 0-.235.125-.235.39 0 .266.219.423.437.423a.421.421 0 0 0 .422-.438zm8.707 3.485c0-.297-.265-.297-.406-.297h-.453V63.77c0-.312-.047-.406-.39-.406h-.735c-.156 0-.406 0-.406.313 0 .297.265.297.406.297h.438V66.1c0 .89-.797 1.015-1.125 1.015-.782 0-.782-.328-.782-.656V63.77c0-.312-.062-.406-.406-.406h-.719c-.156 0-.406 0-.406.313 0 .297.25.297.39.297h.454v2.546c0 .97.687 1.204 1.406 1.204.422 0 .828-.11 1.188-.375.015.312.218.312.406.312h.719c.171 0 .421 0 .421-.312zm5.231.015c0-.312-.25-.312-.422-.312h-.438V64.74c0-1-.5-1.437-1.297-1.437-.656 0-1.109.343-1.296.53 0-.312 0-.468-.407-.468h-.718c-.157 0-.407 0-.407.313 0 .297.25.297.391.297h.453v3.078h-.437c-.157 0-.407 0-.407.312 0 .297.25.297.391.297h1.594c.14 0 .39 0 .39-.297 0-.312-.25-.312-.406-.312h-.437v-1.766c0-1 .734-1.375 1.25-1.375.515 0 .656.281.656.875v2.266h-.375c-.172 0-.422 0-.422.312 0 .297.281.297.422.297h1.515c.141 0 .407 0 .407-.297zm4.652 0c0-.312-.25-.312-.406-.312h-1.047V63.77c0-.312-.063-.406-.39-.406h-1.423c-.156 0-.406 0-.406.297 0 .313.25.313.406.313h1.125v3.078h-1.203c-.156 0-.406 0-.406.312 0 .297.25.297.406.297h2.938c.156 0 .406 0 .406-.297Zm-1.406-5.234c0-.281-.219-.5-.5-.5-.282 0-.5.219-.5.5s.218.5.5.5c.281 0 .5-.219.5-.5zm6.761 3.375c0-1.25-.922-2.235-2.047-2.235-1.109 0-2.046.985-2.046 2.235 0 1.265.953 2.219 2.046 2.219 1.094 0 2.047-.954 2.047-2.22zm-.687-.063c0 .922-.625 1.672-1.36 1.672-.734 0-1.359-.75-1.359-1.672 0-.906.656-1.562 1.36-1.562.718 0 1.359.656 1.359 1.562zm6.371 1.922c0-.312-.25-.312-.422-.312h-.438V64.74c0-1-.5-1.437-1.296-1.437-.657 0-1.11.343-1.297.53 0-.312 0-.468-.407-.468h-.718c-.157 0-.407 0-.407.313 0 .297.25.297.391.297h.453v3.078h-.437c-.157 0-.407 0-.407.312 0 .297.25.297.391.297h1.594c.14 0 .39 0 .39-.297 0-.312-.25-.312-.406-.312h-.437v-1.766c0-1 .734-1.375 1.25-1.375.515 0 .656.281.656.875v2.266h-.375c-.172 0-.422 0-.422.312 0 .297.281.297.422.297h1.516c.14 0 .406 0 .406-.297zm4.824-1.359c0-.64-.36-1.063-.469-1.188-.422-.39-.687-.468-1.469-.64l-.796-.188c-.422-.11-.797-.469-.797-.937 0-.5.484-.985 1.187-.985 1.172 0 1.328.938 1.39 1.25.032.219.141.282.345.282.343 0 .343-.22.343-.407v-1.328c0-.156 0-.406-.297-.406-.25 0-.296.172-.375.469-.406-.344-.937-.47-1.39-.47-1.11 0-1.86.798-1.86 1.642 0 .671.47 1.328 1.282 1.562l1.156.266c.281.062 1.11.265 1.11 1.125 0 .515-.438 1.109-1.22 1.109-.28 0-.765-.031-1.171-.312-.422-.266-.453-.688-.47-.86 0-.172-.015-.36-.327-.36-.36 0-.36.22-.36.423v1.312c0 .156 0 .406.297.406.22 0 .282-.14.375-.453.39.297 1 .453 1.64.453 1.157 0 1.876-.875 1.876-1.765zm5.152.562c0-.265-.281-.265-.344-.265-.187 0-.265.03-.328.218-.218.5-.765.594-1.047.594-.75 0-1.484-.5-1.656-1.36h2.985c.203 0 .39 0 .39-.359 0-1.14-.64-2.125-1.937-2.125-1.188 0-2.14 1-2.14 2.235 0 1.203 1.015 2.219 2.296 2.219 1.312 0 1.781-.907 1.781-1.157zm-.703-1.406h-2.656c.14-.734.734-1.281 1.422-1.281.515 0 1.14.25 1.234 1.281zm5.778 1.25c0-.187 0-.39-.344-.39-.329 0-.344.203-.344.374 0 .625-.578.72-.797.72-.766 0-.766-.516-.766-.766v-2.375h1.625c.157 0 .407 0 .407-.297 0-.313-.25-.313-.407-.313H84.74v-.812c0-.188 0-.407-.343-.407-.344 0-.344.204-.344.407v.812h-.875c-.156 0-.406 0-.406.313 0 .297.25.297.39.297h.89v2.437c0 .953.673 1.313 1.407 1.313s1.531-.438 1.531-1.313zm5.339 0c0-1.031-1.281-1.25-1.61-1.297l-.671-.11c-.297-.046-.969-.171-.969-.546 0-.266.313-.578 1.266-.578.828 0 .968.297 1 .562 0 .172.03.344.328.344.36 0 .36-.219.36-.422v-.687c0-.157 0-.407-.298-.407-.25 0-.281.141-.312.22-.438-.22-.875-.22-1.063-.22-1.656 0-1.89.829-1.89 1.188 0 .906 1.047 1.078 1.968 1.219.485.078 1.282.203 1.282.734 0 .375-.375.703-1.282.703-.468 0-1.015-.11-1.265-.89-.063-.172-.094-.282-.36-.282-.343 0-.343.203-.343.407v.968c0 .157 0 .407.297.407.093 0 .25-.016.375-.375.484.359 1.015.375 1.296.375 1.563 0 1.891-.829 1.891-1.313Zm5.011 1.781c0-.14-.077-.187-.25-.297-1.234-.843-1.702-2.171-1.702-3.28 0-1 .39-2.391 1.718-3.298.157-.11.235-.14.235-.297 0-.078-.047-.28-.313-.28-.281 0-2.328 1.312-2.328 3.874a4.55 4.55 0 0 0 .813 2.578c.53.735 1.28 1.282 1.515 1.282.266 0 .313-.188.313-.282zm2.731-2.828c.297 0 1.032-.031 1.532-.234.703-.297.75-.89.75-1.031 0-.438-.375-.844-1.063-.844-1.11 0-2.625.969-2.625 2.719 0 1.015.594 1.796 1.578 1.796 1.422 0 2.25-1.062 2.25-1.171 0-.063-.047-.141-.11-.141-.062 0-.077.031-.14.11-.781.984-1.875.984-1.984.984-.781 0-.875-.844-.875-1.157 0-.125.015-.421.156-1.03zm-.468-.219c.39-1.515 1.421-1.671 1.687-1.671.453 0 .734.296.734.625 0 1.046-1.593 1.046-2.015 1.046zm5.153 1.683c.547 0 .938.375.938 1.125 0 .86-.516 1.125-.907 1.125-.28 0-.906-.078-1.187-.5.328 0 .406-.235.406-.39 0-.22-.172-.376-.39-.376a.38.38 0 0 0-.391.406c0 .657.719 1.079 1.563 1.079.968 0 1.64-.657 1.64-1.344 0-.547-.437-1.094-1.203-1.25.719-.266.984-.781.984-1.219 0-.547-.625-.953-1.406-.953-.766 0-1.36.375-1.36.937 0 .235.157.36.36.36.219 0 .36-.156.36-.344 0-.203-.141-.36-.36-.375.25-.297.719-.375.984-.375.313 0 .75.156.75.75 0 .297-.093.625-.28.828-.22.266-.423.281-.766.313-.172.015-.188.015-.22.015-.015 0-.077.016-.077.094 0 .094.062.094.187.094zm6.017.583c0-.61-.39-1-.828-1-.406 0-.625.297-.625.625 0 .375.281.625.61.625.062 0 .124-.016.202-.031-.156.625-.625.781-.734.812-.11.032-.281.094-.281.282 0 .156.14.328.312.328.328 0 1.344-.547 1.344-1.641zm3.637-2.047c.296 0 1.03-.031 1.53-.234.704-.297.75-.89.75-1.031 0-.438-.374-.844-1.062-.844-1.11 0-2.625.969-2.625 2.719 0 1.015.594 1.796 1.578 1.796 1.422 0 2.25-1.062 2.25-1.171 0-.063-.047-.141-.11-.141-.062 0-.077.031-.14.11-.781.984-1.875.984-1.984.984-.781 0-.875-.844-.875-1.157 0-.125.016-.421.156-1.03zm-.47-.219c.391-1.515 1.422-1.671 1.688-1.671.453 0 .734.296.734.625 0 1.046-1.593 1.046-2.015 1.046zm6.936 2.87v-.25h-.78v-3.109c0-.14 0-.203-.141-.203-.094 0-.125 0-.188.11l-2.312 3.202v.25h2.062v.563c0 .25 0 .328-.578.328h-.188v.25c.36-.016.797-.031 1.047-.031.266 0 .703.015 1.063.031v-.25h-.188c-.578 0-.578-.078-.578-.328v-.563zm-1.312-2.797v2.547h-1.844Zm5.61-.604a4.511 4.511 0 0 0-.813-2.578c-.531-.734-1.281-1.297-1.516-1.297a.293.293 0 0 0-.312.281c0 .157.11.22.156.25 1.64 1.094 1.797 2.688 1.797 3.344 0 1-.375 2.375-1.719 3.281-.156.11-.234.157-.234.297 0 .094.063.282.313.282.28 0 2.328-1.313 2.328-3.86zm4.949-.625a.624.624 0 0 0-.61-.625.626.626 0 0 0-.015 1.25.626.626 0 0 0 .625-.625zm.062 3.406c0-.656-.312-.984-.687-.984-.36 0-.61.281-.61.625 0 .281.157.625.657.625-.141.531-.516.734-.657.813-.062.03-.203.093-.203.25 0 .156.14.328.313.328.218 0 1.187-.547 1.187-1.657zm7.721.266v-.312c-.672 0-.703-.047-.703-.438v-3.656l-1.391.11v.312c.64 0 .734.062.734.547v2.687c0 .438-.109.438-.78.438v.312l1.093-.031c.36 0 .703.015 1.047.031Zm-.563-6.016a.523.523 0 0 0-.515-.53.54.54 0 0 0-.547.53c0 .266.234.516.531.516a.513.513 0 0 0 .531-.516zm4.457 4.734c0-.515-.297-.827-.422-.937-.328-.328-.718-.406-1.14-.484-.563-.11-1.219-.234-1.219-.813 0-.359.25-.765 1.11-.765 1.093 0 1.156.906 1.171 1.203 0 .094.11.094.11.094.14 0 .14-.047.14-.235v-1.015c0-.157 0-.235-.109-.235-.047 0-.078 0-.203.125a1.676 1.676 0 0 1-.172.157c-.375-.282-.781-.282-.938-.282-1.218 0-1.593.672-1.593 1.235 0 .343.156.625.422.843.328.25.609.313 1.328.454.218.046 1.031.203 1.031.921 0 .5-.344.907-1.125.907-.844 0-1.203-.563-1.39-1.422-.032-.125-.032-.156-.141-.156-.125 0-.125.062-.125.234v1.328c0 .172 0 .234.11.234.046 0 .062-.015.25-.203.015-.015.015-.031.202-.218.438.406.89.421 1.094.421 1.14 0 1.61-.671 1.61-1.39zm7.78.095c0-.094-.11-.094-.14-.094-.079 0-.11.031-.126.094-.28.921-.937 1.046-1.296 1.046-.532 0-1.407-.421-1.407-2.03 0-1.626.813-2.048 1.344-2.048.094 0 .719.016 1.063.375-.407.032-.47.328-.47.453 0 .266.188.454.454.454s.469-.157.469-.47c0-.671-.766-1.062-1.532-1.062-1.25 0-2.156 1.078-2.156 2.313 0 1.281.985 2.265 2.14 2.265 1.329 0 1.657-1.203 1.657-1.296zm5.095.296v-.562h-.25v.562c0 .579-.25.641-.359.641-.328 0-.36-.453-.36-.5v-1.984c0-.422 0-.813-.359-1.188-.39-.39-.89-.547-1.375-.547-.812 0-1.5.469-1.5 1.125 0 .297.203.469.453.469a.448.448 0 0 0 .47-.453c0-.125-.063-.453-.517-.453.266-.36.766-.469 1.079-.469.484 0 1.062.39 1.062 1.281v.36c-.516.03-1.219.062-1.844.359-.75.344-1 .86-1 1.297 0 .812.97 1.062 1.594 1.062.672 0 1.125-.406 1.313-.859.046.39.312.813.78.813.204 0 .813-.141.813-.954zm-1.656-.5c0 .938-.719 1.282-1.172 1.282-.484 0-.89-.344-.89-.844 0-.547.406-1.375 2.062-1.438zm4.372 1.391v-.312c-.672 0-.781 0-.781-.438V60.74l-1.438.11v.312c.703 0 .782.063.782.563v5.187c0 .438-.11.438-.782.438v.312l1.11-.031Zm2.769 0v-.312c-.671 0-.78 0-.78-.438V60.74l-1.438.11v.312c.703 0 .781.063.781.563v5.187c0 .438-.11.438-.781.438v.312l1.11-.031Zm4.364-1.187c0-.094-.078-.125-.14-.125-.079 0-.11.062-.126.14-.343 1.031-1.25 1.031-1.343 1.031-.5 0-.891-.296-1.125-.671-.297-.47-.297-1.125-.297-1.485h2.781c.219 0 .25 0 .25-.219 0-.984-.547-1.953-1.781-1.953-1.157 0-2.078 1.032-2.078 2.282 0 1.328 1.046 2.296 2.187 2.296 1.219 0 1.672-1.109 1.672-1.296Zm-.656-1.329h-2.375c.062-1.484.906-1.734 1.25-1.734 1.015 0 1.125 1.344 1.125 1.734zm6.189 2.516v-.312c-.688 0-.781-.063-.781-.563V60.74l-1.422.11v.312c.687 0 .765.063.765.563v2.156a1.582 1.582 0 0 0-1.25-.625c-1.172 0-2.219.984-2.219 2.265 0 1.266.97 2.25 2.11 2.25.64 0 1.078-.343 1.328-.656v.656zm-1.469-1.172c0 .172 0 .188-.11.36-.296.484-.734.703-1.171.703-.453 0-.813-.266-1.047-.641-.25-.406-.281-.969-.281-1.39 0-.36.015-.954.296-1.407.22-.312.594-.64 1.141-.64.344 0 .766.156 1.063.593.109.172.109.188.109.375zm0 0"/><path d="M.002-66.117c-5.647 0-10.23 4.58-10.23 10.226 0 5.647 4.583 10.23 10.23 10.23s10.227-4.583 10.227-10.23c0-5.646-4.58-10.226-10.227-10.226zm0 .398A9.824 9.824 0 0 1 9.83-55.89c0 5.432-4.397 9.832-9.828 9.832A9.83 9.83 0 0 1-9.83-55.89c0-5.431 4.4-9.828 9.832-9.828z" style="color:#000;fill:#000;stroke-miterlimit:10;-inkscape-stroke:none" transform="matrix(1 0 0 -1 25.85 42.835)"/><path d="M23.155 97.826c.297 0 1.032-.031 1.532-.234.703-.297.75-.89.75-1.031 0-.438-.375-.844-1.063-.844-1.11 0-2.625.969-2.625 2.719 0 1.015.594 1.796 1.578 1.796 1.422 0 2.25-1.062 2.25-1.171 0-.063-.047-.141-.11-.141-.062 0-.077.031-.14.11-.781.984-1.875.984-1.984.984-.781 0-.875-.844-.875-1.157 0-.125.015-.421.156-1.03zm-.468-.219c.39-1.515 1.421-1.671 1.687-1.671.453 0 .735.296.735.624 0 1.047-1.594 1.047-2.016 1.047zm5.576-.427c0-.187 0-.187-.203-.187-.453.438-1.078.438-1.36.438v.25c.157 0 .626 0 1-.188v3.547c0 .234 0 .328-.687.328h-.266v.25c.125 0 .985-.031 1.235-.031.219 0 1.094.031 1.25.031v-.25h-.266c-.703 0-.703-.094-.703-.328zm0 0"/><path d="M10.21-56.09a.2.2 0 0 0-.18.215.2.2 0 0 0 .216.182c3.151-.276 5.37.075 6.832.826 1.463.75 2.185 1.887 2.381 3.267.392 2.762-1.426 6.527-4.12 9.63-2.692 3.101-6.249 5.533-9.175 5.747-1.463.108-2.76-.318-3.78-1.482C1.366-38.87.625-40.794.372-43.693a.2.2 0 0 0-.215-.182.2.2 0 0 0-.181.215c.258 2.95 1.01 4.963 2.109 6.219 1.1 1.255 2.55 1.73 4.11 1.615 3.118-.229 6.708-2.729 9.447-5.883 2.738-3.154 4.635-6.97 4.213-9.947-.212-1.489-1.03-2.762-2.592-3.565-1.563-.802-3.855-1.148-7.051-.869z" style="color:#000;fill:#000;stroke-linecap:round;stroke-miterlimit:10;-inkscape-stroke:none" transform="matrix(1 0 0 -1 25.85 42.835)"/><path d="m25.852 88.496 1.863-3.035-1.692 1.05-1.484-1.327"/><path d="M34.63-66.117c-5.646 0-10.226 4.58-10.226 10.226 0 5.647 4.58 10.23 10.227 10.23s10.23-4.583 10.23-10.23c0-5.646-4.583-10.226-10.23-10.226zm0 .398c5.432 0 9.833 4.397 9.833 9.828a9.83 9.83 0 0 1-9.832 9.832c-5.431 0-9.828-4.4-9.828-9.832a9.824 9.824 0 0 1 9.828-9.828z" style="color:#000;fill:#000;stroke-miterlimit:10;-inkscape-stroke:none" transform="matrix(1 0 0 -1 25.85 42.835)"/><path d="M57.786 97.826c.297 0 1.032-.031 1.532-.234.703-.297.75-.89.75-1.031 0-.438-.375-.844-1.063-.844-1.11 0-2.625.969-2.625 2.719 0 1.015.594 1.796 1.578 1.796 1.422 0 2.25-1.062 2.25-1.171 0-.063-.047-.141-.11-.141-.062 0-.077.031-.14.11-.781.984-1.875.984-1.984.984-.781 0-.875-.844-.875-1.157 0-.125.015-.421.156-1.03zm-.468-.219c.39-1.515 1.421-1.671 1.687-1.671.453 0 .734.296.734.624 0 1.047-1.593 1.047-2.015 1.047zm6.764 2.745h-.235c-.015.157-.093.563-.187.625-.047.047-.578.047-.688.047h-1.281c.734-.64.984-.844 1.39-1.172.516-.406 1-.843 1-1.5 0-.843-.734-1.359-1.624-1.359-.86 0-1.453.61-1.453 1.25 0 .344.296.39.375.39a.365.365 0 0 0 .359-.374c0-.125-.047-.375-.406-.375.218-.485.687-.641 1.015-.641.703 0 1.063.547 1.063 1.11 0 .609-.438 1.078-.656 1.328l-1.672 1.671c-.078.063-.078.078-.078.266h2.875zm0 0"/><path d="M44.844-56.09a.2.2 0 0 0-.182.215.2.2 0 0 0 .217.182c3.15-.276 5.37.075 6.832.826 1.462.75 2.183 1.886 2.379 3.267.392 2.762-1.426 6.527-4.12 9.63-2.692 3.101-6.247 5.533-9.173 5.747-1.463.108-2.76-.318-3.78-1.482-1.019-1.164-1.76-3.089-2.013-5.988a.2.2 0 0 0-.215-.182.2.2 0 0 0-.182.215c.259 2.95 1.01 4.963 2.11 6.219 1.1 1.255 2.55 1.73 4.11 1.615 3.117-.229 6.706-2.729 9.444-5.883 2.739-3.154 4.636-6.97 4.213-9.947-.21-1.489-1.029-2.762-2.591-3.565-1.563-.802-3.853-1.148-7.05-.869z" style="color:#000;fill:#000;stroke-linecap:round;stroke-miterlimit:10;-inkscape-stroke:none" transform="matrix(1 0 0 -1 25.85 42.835)"/><path d="m60.48 88.496 1.868-3.035-1.692 1.05-1.484-1.327"/><path d="M69.264-66.117c-5.647 0-10.23 4.58-10.23 10.226 0 5.647 4.583 10.23 10.23 10.23 5.646 0 10.226-4.583 10.226-10.23 0-5.646-4.58-10.226-10.226-10.226zm0 .398a9.824 9.824 0 0 1 9.828 9.828c0 5.432-4.397 9.832-9.828 9.832a9.83 9.83 0 0 1-9.832-9.832c0-5.431 4.4-9.828 9.832-9.828z" style="color:#000;fill:#000;stroke-miterlimit:10;-inkscape-stroke:none" transform="matrix(1 0 0 -1 25.85 42.835)"/><path d="M92.416 97.826c.297 0 1.032-.031 1.532-.234.703-.297.75-.89.75-1.031 0-.438-.375-.844-1.063-.844-1.11 0-2.625.969-2.625 2.719 0 1.015.594 1.796 1.578 1.796 1.422 0 2.25-1.062 2.25-1.171 0-.063-.047-.141-.11-.141-.062 0-.077.031-.14.11-.781.984-1.875.984-1.984.984-.781 0-.875-.844-.875-1.157 0-.125.015-.421.156-1.03zm-.468-.219c.39-1.515 1.421-1.671 1.687-1.671.453 0 .734.296.734.624 0 1.047-1.593 1.047-2.015 1.047zm5.154 1.683c.547 0 .938.375.938 1.125 0 .86-.516 1.125-.907 1.125-.28 0-.906-.078-1.187-.5.328 0 .406-.235.406-.39 0-.22-.172-.376-.39-.376a.38.38 0 0 0-.391.406c0 .657.719 1.079 1.562 1.079.97 0 1.641-.657 1.641-1.344 0-.547-.437-1.094-1.203-1.25.719-.266.984-.781.984-1.219 0-.547-.625-.953-1.406-.953-.766 0-1.36.375-1.36.938 0 .234.157.359.36.359.219 0 .36-.156.36-.344 0-.203-.141-.36-.36-.375.25-.297.719-.375.984-.375.313 0 .75.156.75.75 0 .297-.093.625-.28.828-.22.266-.423.281-.766.313-.172.015-.188.015-.22.015-.015 0-.077.016-.077.094 0 .094.062.094.187.094zm0 0"/><path d="M79.473-56.09a.2.2 0 0 0-.182.215.2.2 0 0 0 .217.182c3.151-.276 5.37.075 6.832.826 1.463.75 2.185 1.887 2.38 3.267.393 2.762-1.425 6.527-4.118 9.63-2.694 3.101-6.25 5.533-9.176 5.747-1.463.108-2.76-.318-3.78-1.482-1.019-1.164-1.76-3.089-2.013-5.988a.2.2 0 0 0-.215-.182.2.2 0 0 0-.182.215c.258 2.95 1.01 4.963 2.11 6.219 1.1 1.255 2.55 1.73 4.11 1.615 3.117-.229 6.708-2.729 9.446-5.883 2.739-3.154 4.636-6.97 4.213-9.947-.211-1.489-1.029-2.762-2.592-3.565-1.562-.802-3.854-1.148-7.05-.869z" style="color:#000;fill:#000;stroke-linecap:round;stroke-miterlimit:10;-inkscape-stroke:none" transform="matrix(1 0 0 -1 25.85 42.835)"/><path d="m95.113 88.496 1.864-3.035-1.692 1.05-1.484-1.327"/><path d="M138.521-66.117c-5.646 0-10.226 4.58-10.226 10.226 0 5.647 4.58 10.23 10.226 10.23 5.647 0 10.231-4.583 10.231-10.23 0-5.646-4.584-10.226-10.23-10.226zm0 .398c5.432 0 9.833 4.397 9.833 9.828a9.83 9.83 0 0 1-9.833 9.832c-5.43 0-9.828-4.4-9.828-9.832a9.824 9.824 0 0 1 9.828-9.828z" style="color:#000;fill:#000;stroke-miterlimit:10;-inkscape-stroke:none" transform="matrix(1 0 0 -1 25.85 42.835)"/><path d="M161.678 97.826c.297 0 1.032-.031 1.532-.234.703-.297.75-.89.75-1.031 0-.438-.375-.844-1.063-.844-1.11 0-2.625.969-2.625 2.719 0 1.015.594 1.796 1.578 1.796 1.422 0 2.25-1.062 2.25-1.171 0-.063-.047-.141-.11-.141-.062 0-.077.031-.14.11-.781.984-1.875.984-1.984.984-.781 0-.875-.844-.875-1.157 0-.125.015-.421.156-1.03zm-.468-.219c.39-1.515 1.421-1.671 1.687-1.671.453 0 .734.296.734.624 0 1.047-1.593 1.047-2.015 1.047zm4.326.12c.36.094.563.094.672.094.922 0 1.469-.625 1.469-.734 0-.078-.047-.094-.078-.094-.016 0-.032 0-.063.016-.172.062-.531.203-1.047.203-.203 0-.562-.016-1.015-.188-.079-.031-.094-.031-.094-.031-.094 0-.094.078-.094.188v2.046c0 .125 0 .203.11.203.062 0 .078 0 .14-.093.297-.375.734-.438.969-.438a.72.72 0 0 1 .64.39c.125.235.172.5.172.907 0 .203 0 .61-.218.922a.984.984 0 0 1-.813.422c-.453 0-.922-.25-1.094-.719.266.016.407-.156.407-.344 0-.297-.266-.343-.36-.343 0 0-.344 0-.344.375 0 .625.579 1.25 1.407 1.25.89 0 1.672-.657 1.672-1.547 0-.782-.594-1.5-1.454-1.5-.312 0-.671.062-.984.328zm0 0"/><path d="M148.734-56.09a.2.2 0 0 0-.181.215.2.2 0 0 0 .217.182c3.15-.276 5.369.075 6.832.826 1.462.75 2.184 1.887 2.38 3.267.393 2.762-1.426 6.527-4.119 9.63-2.693 3.101-6.25 5.533-9.175 5.747-1.464.108-2.76-.318-3.78-1.482s-1.76-3.089-2.013-5.988a.2.2 0 0 0-.215-.182.2.2 0 0 0-.182.215c.258 2.95 1.01 4.963 2.11 6.219 1.099 1.255 2.55 1.73 4.109 1.615 3.118-.229 6.709-2.729 9.447-5.883 2.739-3.154 4.636-6.97 4.213-9.947-.211-1.489-1.03-2.762-2.592-3.565-1.563-.802-3.854-1.148-7.05-.869z" style="color:#000;fill:#000;stroke-linecap:round;stroke-miterlimit:10;-inkscape-stroke:none" transform="matrix(1 0 0 -1 25.85 42.835)"/><path d="m164.371 88.496 1.867-3.035-1.691 1.05-1.484-1.327"/><path d="M105.088-90.605c-5.647 0-10.227 4.58-10.227 10.226 0 5.647 4.58 10.23 10.227 10.23s10.23-4.583 10.23-10.23-4.583-10.226-10.23-10.226zm0 .398c5.431 0 9.832 4.397 9.832 9.828a9.83 9.83 0 0 1-9.832 9.832c-5.431 0-9.828-4.4-9.828-9.832a9.824 9.824 0 0 1 9.828-9.828z" style="color:#000;fill:#000;stroke-miterlimit:10;-inkscape-stroke:none" transform="matrix(1 0 0 -1 25.85 42.835)"/><path d="M128.242 122.314c.297 0 1.032-.031 1.532-.234.703-.297.75-.89.75-1.031 0-.438-.375-.844-1.063-.844-1.11 0-2.625.969-2.625 2.719 0 1.015.594 1.796 1.578 1.796 1.422 0 2.25-1.062 2.25-1.171 0-.063-.047-.141-.11-.141-.062 0-.077.031-.14.11-.781.984-1.875.984-1.984.984-.781 0-.875-.844-.875-1.157 0-.125.015-.421.156-1.03zm-.468-.219c.39-1.515 1.421-1.671 1.687-1.671.453 0 .734.296.734.624 0 1.047-1.593 1.047-2.015 1.047zm6.936 2.87v-.25h-.782v-3.109c0-.14 0-.203-.14-.203-.094 0-.125 0-.188.11l-2.312 3.202v.25h2.062v.563c0 .25 0 .328-.578.328h-.188v.25c.36-.016.797-.031 1.047-.031.266 0 .703.015 1.063.031v-.25h-.188c-.578 0-.578-.078-.578-.328v-.563zm-1.313-2.797v2.547h-1.844Zm0 0"/><path d="m96.53-74.771-17.294 11.82a.2.2 0 0 0-.05.277.2.2 0 0 0 .275.053l17.293-11.82a.2.2 0 0 0 .053-.278.2.2 0 0 0-.278-.052z" style="color:#000;fill:#000;stroke-linecap:round;stroke-miterlimit:10;-inkscape-stroke:none" transform="matrix(1 0 0 -1 25.85 42.835)"/><path d="m103.555 104.496 1.734 3.117-.09-1.992 1.887-.64"/></svg>