<svg xmlns="http://www.w3.org/2000/svg" width="522.867" height="607.84" viewBox="0 0 392.15 455.88"><defs><clipPath id="a"><path d="M167 429h38v26.879h-38Zm0 0"/></clipPath></defs><path fill="none" stroke="#000" stroke-miterlimit="10" stroke-width=".399" d="M197.457 5.871h-22.402a3.984 3.984 0 0 0-3.985 3.984v6.66a3.987 3.987 0 0 0 3.985 3.989h22.402a3.984 3.984 0 0 0 3.984-3.988v-6.66a3.981 3.981 0 0 0-3.984-3.985Zm0 0"/><path d="M179.804 14.819c0-1.047-.687-1.906-1.562-2.125l-1.344-.328a1.36 1.36 0 0 1-1.062-1.328c0-.735.562-1.375 1.375-1.375 1.765 0 1.984 1.718 2.047 2.203.015.062.015.125.125.125.14 0 .14-.063.14-.266v-2.11c0-.171 0-.25-.11-.25-.077 0-.093.016-.155.141l-.375.594c-.313-.297-.75-.734-1.672-.734a2.024 2.024 0 0 0-2.047 2.047c0 .859.547 1.625 1.375 1.921.11.032.64.157 1.375.344.297.063.61.14.89.531.235.282.329.625.329.97 0 .75-.516 1.5-1.407 1.5-.297 0-1.093-.048-1.656-.563-.61-.578-.64-1.25-.656-1.625 0-.11-.094-.11-.125-.11-.125 0-.125.078-.125.266v2.11c0 .171 0 .25.11.25.077 0 .077-.032.155-.141 0 0 .032-.047.375-.594.329.36 1 .734 1.938.734 1.234 0 2.062-1.03 2.062-2.187zm4.088.656v-.61h-.265v.579c0 .781-.313 1.187-.703 1.187-.704 0-.704-.968-.704-1.14v-2.922h1.5v-.328h-1.5v-1.922h-.265c0 .86-.313 1.984-1.344 2.015v.235h.89v2.906c0 1.281.97 1.406 1.36 1.406.734 0 1.031-.734 1.031-1.406zm5.678.359v-.578h-.265v.578c0 .61-.266.672-.375.672-.36 0-.39-.468-.39-.515v-2.11c0-.437 0-.843-.376-1.234a2.054 2.054 0 0 0-1.453-.578c-.86 0-1.578.5-1.578 1.187 0 .313.203.485.484.485.297 0 .485-.203.485-.469 0-.14-.063-.484-.531-.484.28-.375.796-.485 1.125-.485.515 0 1.109.406 1.109 1.344v.39c-.531.032-1.266.063-1.922.376-.797.359-1.047.906-1.047 1.359 0 .86 1.016 1.11 1.672 1.11.688 0 1.172-.407 1.375-.907.047.422.328.86.813.86.234 0 .875-.141.875-1zm-1.765-.53c0 1-.75 1.359-1.219 1.359-.515 0-.953-.375-.953-.907 0-.562.438-1.437 2.172-1.5zm5.765-2.532c0-.344-.328-.64-.78-.64-.766 0-1.141.702-1.298 1.156V12.13l-1.453.11v.328c.735 0 .813.078.813.594v2.812c0 .469-.11.469-.813.469v.328l1.188-.031c.422 0 .922 0 1.344.031v-.328h-.22c-.78 0-.796-.11-.796-.485v-1.625c0-1.03.437-1.968 1.234-1.968h.11a.476.476 0 0 0-.235.422c0 .28.22.453.453.453.188 0 .454-.14.454-.469zm3.773 2.703v-.61h-.266v.579c0 .781-.312 1.187-.703 1.187-.703 0-.703-.968-.703-1.14v-2.922h1.5v-.328h-1.5v-1.922h-.266c0 .86-.312 1.984-1.343 2.015v.235h.89v2.906c0 1.281.969 1.406 1.36 1.406.734 0 1.03-.734 1.03-1.406zm0 0"/><path fill="none" stroke="#000" stroke-miterlimit="10" stroke-width=".399" d="M126.063 68.953h120.386V35.074H126.062Zm0 0"/><path d="M149.436 46.449v-.328h-.25c-.812 0-.843-.11-.843-.484V40.09c0-.375.03-.485.843-.485h.25v-.328h-1.78c-.267 0-.267.016-.345.203l-2.297 5.907-2.28-5.875c-.095-.235-.126-.235-.376-.235h-1.765v.328h.25c.812 0 .828.11.828.485v5.25c0 .297 0 .78-1.078.78v.329l1.218-.031 1.235.031v-.328c-1.078 0-1.078-.484-1.078-.781v-5.657h.015l2.531 6.532c.047.14.094.234.204.234.109 0 .14-.078.187-.203l2.578-6.64h.016v6.03c0 .376-.016.485-.828.485h-.25v.328c.39-.031 1.094-.031 1.515-.031.407 0 1.11 0 1.5.031zm5.629-1.953c0-1.047-.688-1.906-1.563-2.125l-1.343-.328a1.36 1.36 0 0 1-1.063-1.328c0-.735.563-1.375 1.375-1.375 1.766 0 1.985 1.718 2.047 2.203.016.062.016.125.125.125.14 0 .14-.063.14-.266v-2.11c0-.171 0-.25-.109-.25-.078 0-.093.016-.156.141l-.375.594c-.312-.297-.75-.734-1.672-.734a2.024 2.024 0 0 0-2.047 2.047c0 .859.547 1.625 1.375 1.922.11.03.64.156 1.375.343.297.063.61.14.89.532.235.28.329.625.329.968 0 .75-.516 1.5-1.406 1.5-.297 0-1.094-.047-1.656-.562-.61-.578-.641-1.25-.657-1.625 0-.11-.093-.11-.125-.11-.125 0-.125.079-.125.266v2.11c0 .171 0 .25.11.25.078 0 .078-.032.156-.141 0 0 .031-.047.375-.594.328.36 1 .734 1.937.734 1.235 0 2.063-1.03 2.063-2.187zm7.791-2.797-.188-2.36h-6.421l-.204 2.36h.266c.14-1.687.297-2.031 1.89-2.031.188 0 .47 0 .563.015.219.047.219.157.219.407v5.53c0 .36 0 .5-1.094.5h-.422v.329c.422-.031 1.5-.031 1.985-.031.484 0 1.562 0 2 .031v-.328h-.422c-1.11 0-1.11-.14-1.11-.5V40.09c0-.22 0-.36.188-.407.125-.015.406-.015.61-.015 1.577 0 1.734.344 1.89 2.031Zm8.377-1.625c.078-.297.11-.36.235-.39.093-.016.453-.016.672-.016 1.062 0 1.53.047 1.53.86 0 .155-.046.562-.093.843 0 .031-.031.172-.031.203 0 .063.031.125.14.125.11 0 .125-.078.157-.234l.281-1.828c0-.047.016-.157.016-.188 0-.11-.11-.11-.282-.11h-5.828c-.25 0-.265.016-.344.204l-.625 1.86a.88.88 0 0 0-.062.187c0 .062.047.109.125.109.11 0 .125-.047.187-.219.563-1.625.829-1.812 2.391-1.812h.406c.297 0 .297.047.297.125a.762.762 0 0 1-.047.219l-1.406 5.609c-.094.39-.125.5-1.25.5-.375 0-.437 0-.437.203 0 .125.109.125.171.125.282 0 .579-.016.86-.016.297 0 .61-.015.906-.015.281 0 .578.015.86.015.312 0 .624.016.921.016.11 0 .235 0 .235-.203 0-.125-.094-.125-.36-.125-.265 0-.406 0-.672-.016-.312-.031-.39-.062-.39-.234 0-.016 0-.063.047-.219zm14.724 2.938c.156 0 .36 0 .36-.204 0-.218-.204-.218-.36-.218h-6.281c-.157 0-.344 0-.344.218 0 .204.187.204.344.204zm0 2.046c.156 0 .36 0 .36-.218 0-.203-.204-.203-.36-.203h-6.281c-.157 0-.344 0-.344.203 0 .218.187.218.344.218zm8.797 3.907c0-.032 0-.047-.172-.235-1.312-1.312-1.64-3.297-1.64-4.906 0-1.828.39-3.656 1.687-4.969.125-.125.125-.14.125-.172 0-.078-.031-.109-.093-.109-.11 0-1.047.719-1.672 2.047-.532 1.156-.657 2.328-.657 3.203 0 .813.11 2.094.688 3.281.625 1.282 1.531 1.969 1.64 1.969.063 0 .094-.031.094-.11zm7.222-8.485c.515-.828.953-.86 1.344-.875.125-.015.14-.187.14-.203 0-.078-.062-.125-.14-.125-.266 0-.579.031-.86.031-.344 0-.703-.03-1.047-.03-.062 0-.187 0-.187.202 0 .11.094.125.156.125.297.016.484.125.484.344 0 .156-.156.39-.156.406l-3.219 5.125-.718-5.562c0-.172.25-.313.734-.313.14 0 .25 0 .25-.218 0-.094-.078-.11-.14-.11-.422 0-.876.031-1.297.031-.188 0-.391-.015-.579-.015-.187 0-.39-.016-.578-.016-.062 0-.187 0-.187.203 0 .125.094.125.25.125.594 0 .61.094.64.36l.828 6.468c.032.22.079.25.204.25.172 0 .218-.062.297-.187zm2.922 3.325c.047-.203.062-.219.218-.234h.407c.437 0 .609 0 .78.047.313.093.329.297.329.547 0 .109 0 .203-.047.562l-.016.078c0 .078.047.11.126.11.109 0 .109-.063.125-.172l.187-1.328c0-.094-.078-.094-.203-.094h-4.281c-.172 0-.188 0-.235.14l-.453 1.235c0 .031-.031.094-.031.125s.016.094.125.094c.094 0 .094-.032.14-.172.407-1.11.641-1.172 1.704-1.172h.28c.22 0 .22 0 .22.062 0 0 0 .047-.032.141l-.922 3.672c-.062.25-.078.328-.812.328-.25 0-.313 0-.313.156 0 .016.016.094.126.094.187 0 .406-.016.593-.016.203 0 .406-.015.594-.015.203 0 .438 0 .64.015.188 0 .391.016.579.016.062 0 .156 0 .156-.156 0-.094-.063-.094-.281-.094-.125 0-.266-.016-.406-.016-.235-.015-.25-.047-.25-.125 0-.062 0-.062.03-.172zm5.01 2.628c0-.687-.25-1.093-.672-1.093a.533.533 0 0 0-.547.547c0 .296.203.562.547.562a.59.59 0 0 0 .375-.14.203.203 0 0 0 .047-.032c.016 0 .031.016.031.156a2.6 2.6 0 0 1-.719 1.766c-.109.11-.109.125-.109.156 0 .078.047.125.094.125.125 0 .953-.812.953-2.047zm11.717-2.437c.016-.047.047-.125.047-.14 0-.016 0-.11-.125-.11-.093 0-.109.062-.14.125-.672 1.547-1.063 2.25-2.86 2.25h-1.53c-.157 0-.173 0-.235-.016-.11 0-.14-.015-.14-.093 0-.032 0-.063.062-.25l.703-2.86h1.047c.89 0 .89.219.89.485 0 .062 0 .203-.078.515-.016.047-.031.078-.031.11 0 .046.047.109.14.109.079 0 .11-.047.157-.203l.593-2.453a.123.123 0 0 0-.125-.125c-.093 0-.109.062-.14.203-.219.797-.406 1.031-1.375 1.031h-.985l.625-2.531c.094-.36.11-.406.563-.406h1.484c1.282 0 1.594.296 1.594 1.156 0 .265 0 .281-.047.562v.188c0 .062.031.125.125.125.11 0 .125-.063.14-.266l.22-1.812c.03-.282-.032-.282-.282-.282h-5.312c-.203 0-.313 0-.313.204 0 .125.094.125.297.125.39 0 .688 0 .688.187 0 .047 0 .063-.063.25l-1.375 5.563c-.11.406-.14.484-.969.484-.171 0-.28 0-.28.203 0 .125.093.125.28.125h5.454c.25 0 .25-.016.328-.172zm3.717-.191c.046-.203.062-.219.218-.234h.407c.437 0 .609 0 .78.047.313.093.329.297.329.547 0 .109 0 .203-.047.562l-.016.078c0 .078.047.11.125.11.11 0 .11-.063.125-.172l.188-1.328c0-.094-.078-.094-.203-.094h-4.281c-.172 0-.188 0-.235.14l-.453 1.235c0 .031-.031.094-.031.125s.016.094.125.094c.094 0 .094-.032.14-.172.407-1.11.641-1.172 1.704-1.172h.28c.22 0 .22 0 .22.062 0 0 0 .047-.032.141l-.922 3.672c-.062.25-.078.328-.812.328-.25 0-.313 0-.313.156 0 .016.016.094.125.094.188 0 .407-.016.594-.016.203 0 .406-.015.594-.015.203 0 .438 0 .64.015.188 0 .391.016.579.016.062 0 .156 0 .156-.156 0-.094-.063-.094-.281-.094-.125 0-.266-.016-.406-.016-.235-.015-.25-.047-.25-.125 0-.062 0-.062.03-.172zm5.916.019c0-.812-.11-2.094-.687-3.281-.625-1.281-1.531-1.969-1.64-1.969a.107.107 0 0 0-.11.11c0 .03 0 .046.203.234 1.031 1.047 1.625 2.719 1.625 4.906 0 1.797-.39 3.64-1.688 4.969-.14.125-.14.14-.14.172 0 .062.047.109.11.109.109 0 1.046-.719 1.671-2.047.531-1.156.656-2.328.656-3.203Zm-82.42 13.036c.515-.828.953-.86 1.344-.875.125-.015.14-.187.14-.203 0-.078-.062-.125-.14-.125-.266 0-.579.031-.86.031-.344 0-.703-.03-1.047-.03-.062 0-.187 0-.187.202 0 .11.094.125.156.125.297.016.484.125.484.344 0 .156-.156.39-.156.406l-3.219 5.125-.718-5.562c0-.172.25-.313.734-.313.14 0 .25 0 .25-.219 0-.093-.078-.109-.14-.109-.423 0-.876.031-1.298.031-.187 0-.39-.015-.578-.015-.187 0-.39-.016-.578-.016-.062 0-.187 0-.187.203 0 .125.094.125.25.125.594 0 .61.094.64.36l.828 6.468c.032.22.079.25.204.25.172 0 .218-.062.297-.187zm2.922 3.325c.047-.203.062-.219.218-.234h.407c.437 0 .609 0 .78.047.313.093.329.297.329.547 0 .109 0 .203-.047.562l-.016.078c0 .078.047.11.125.11.11 0 .11-.063.125-.172l.188-1.328c0-.094-.078-.094-.203-.094h-4.281c-.172 0-.188 0-.235.14l-.453 1.235c0 .031-.031.094-.031.125s.016.094.125.094c.094 0 .094-.032.14-.172.407-1.11.641-1.172 1.704-1.172h.28c.22 0 .22 0 .22.062 0 0 0 .047-.032.141l-.922 3.672c-.062.25-.078.328-.812.328-.25 0-.313 0-.313.156 0 .016.016.094.125.094.188 0 .407-.016.594-.016.203 0 .406-.015.594-.015.203 0 .438 0 .64.015.188 0 .391.016.579.016.062 0 .156 0 .156-.156 0-.094-.063-.094-.281-.094-.125 0-.266-.016-.406-.016-.235-.015-.25-.047-.25-.125 0-.062 0-.062.03-.172zm14.78-.794c.157 0 .36 0 .36-.203 0-.218-.203-.218-.36-.218h-6.28c-.157 0-.344 0-.344.218 0 .203.187.203.344.203zm0 2.047c.157 0 .36 0 .36-.218 0-.204-.203-.204-.36-.204h-6.28c-.157 0-.344 0-.344.204 0 .218.187.218.344.218zm12.22-4.578c.516-.828.954-.86 1.345-.875.125-.015.14-.187.14-.203 0-.078-.062-.125-.14-.125-.266 0-.579.031-.86.031-.344 0-.703-.03-1.047-.03-.062 0-.187 0-.187.202 0 .11.094.125.156.125.297.016.484.125.484.344 0 .156-.156.39-.156.406l-3.219 5.125-.718-5.562c0-.172.25-.313.734-.313.14 0 .25 0 .25-.219 0-.093-.078-.109-.14-.109-.422 0-.876.031-1.297.031-.188 0-.391-.015-.579-.015-.187 0-.39-.016-.578-.016-.062 0-.187 0-.187.203 0 .125.094.125.25.125.594 0 .61.094.64.36l.829 6.468c.03.22.078.25.203.25.172 0 .218-.062.297-.187zm2.231 5.953c0-.687-.25-1.093-.672-1.093a.533.533 0 0 0-.547.546c0 .297.203.563.547.563a.59.59 0 0 0 .375-.14.203.203 0 0 0 .047-.032c.016 0 .031.016.031.156 0 .782-.375 1.407-.718 1.766-.11.11-.11.125-.11.156 0 .078.047.125.094.125.125 0 .953-.812.953-2.047zm14.647-2.437c.016-.047.047-.125.047-.14 0-.016 0-.11-.125-.11-.094 0-.11.062-.14.125-.673 1.547-1.063 2.25-2.86 2.25h-1.531c-.157 0-.172 0-.235-.016-.11 0-.14-.015-.14-.094 0-.03 0-.062.062-.25l.703-2.859h1.047c.89 0 .89.219.89.484 0 .063 0 .204-.077.516-.016.047-.032.078-.032.11 0 .046.047.109.141.109.078 0 .11-.047.156-.203l.594-2.453a.123.123 0 0 0-.125-.125c-.094 0-.11.062-.14.203-.22.797-.407 1.031-1.376 1.031h-.984l.625-2.531c.094-.36.11-.407.563-.407h1.484c1.281 0 1.594.297 1.594 1.157 0 .265 0 .281-.047.562v.188c0 .062.031.125.125.125.11 0 .125-.063.14-.266l.22-1.812c.03-.282-.032-.282-.282-.282h-5.313c-.203 0-.312 0-.312.203 0 .125.094.125.297.125.39 0 .687 0 .687.188 0 .047 0 .062-.062.25l-1.375 5.562c-.11.407-.14.485-.969.485-.172 0-.281 0-.281.203 0 .125.094.125.281.125h5.453c.25 0 .25-.016.328-.172zm3.724-.191c.046-.203.062-.219.218-.234h.407c.437 0 .609 0 .78.047.313.093.329.297.329.547 0 .109 0 .203-.047.562l-.016.078c0 .078.047.11.125.11.11 0 .11-.063.125-.172l.188-1.328c0-.094-.078-.094-.203-.094h-4.281c-.172 0-.188 0-.235.14l-.453 1.235c0 .031-.031.094-.031.125s.015.094.125.094c.094 0 .094-.032.14-.172.407-1.11.641-1.172 1.704-1.172h.28c.22 0 .22 0 .22.062 0 0 0 .047-.032.141l-.922 3.672c-.062.25-.078.328-.812.328-.25 0-.313 0-.313.156 0 .016.016.094.125.094.188 0 .407-.016.594-.016.203 0 .406-.015.594-.015.203 0 .437 0 .64.015.188 0 .391.016.579.016.062 0 .156 0 .156-.156 0-.094-.063-.094-.281-.094-.125 0-.266-.016-.407-.016-.234-.015-.25-.047-.25-.125 0-.062 0-.062.032-.172zm14.781-.794c.156 0 .36 0 .36-.203 0-.218-.204-.218-.36-.218h-6.281c-.157 0-.344 0-.344.218 0 .203.187.203.344.203zm0 2.047c.156 0 .36 0 .36-.218 0-.204-.204-.204-.36-.204h-6.281c-.157 0-.344 0-.344.204 0 .218.187.218.344.218zm8.595-5.093c0-.422.281-1.094 1.422-1.157a.136.136 0 0 0 .093-.125c0-.109-.078-.109-.203-.109-1.047 0-2 .531-2.015 1.312v2.391c0 .406 0 .75-.422 1.094-.36.312-.766.328-1 .344-.047 0-.094.046-.094.109 0 .11.063.11.172.11.687.046 1.203.421 1.312.937.032.125.032.14.032.515v2.079c0 .437 0 .78.5 1.171.422.329 1.109.438 1.515.438.125 0 .203 0 .203-.11 0-.109-.062-.109-.171-.124-.657-.032-1.172-.375-1.313-.907-.031-.093-.031-.125-.031-.5V61.61c0-.484-.078-.656-.422-1-.219-.219-.516-.328-.813-.406.86-.234 1.235-.719 1.235-1.328Zm4.547 7.718c0 .422-.266 1.094-1.422 1.157a.136.136 0 0 0-.094.125c0 .109.125.109.219.109 1.015 0 2-.516 2-1.313v-2.39c0-.406 0-.75.422-1.094.375-.312.765-.328 1-.344.047 0 .093-.047.093-.109 0-.11-.062-.11-.171-.11-.688-.046-1.188-.421-1.313-.937-.031-.125-.031-.14-.031-.516v-2.078c0-.437 0-.78-.5-1.172-.422-.328-1.14-.437-1.5-.437-.094 0-.219 0-.219.11 0 .109.063.109.172.124.656.032 1.172.375 1.312.907.032.093.032.125.032.5v2.203c0 .484.093.656.422 1 .218.218.53.328.812.406-.86.234-1.234.719-1.234 1.328Zm0 0"/><path fill="none" stroke="#000" stroke-miterlimit="10" stroke-width=".399" d="M126.063 116.473h120.386V83.527H126.062Zm0 0"/><path d="M143.032 92.475c0-1.047-.687-1.906-1.562-2.125l-1.344-.328a1.36 1.36 0 0 1-1.062-1.328c0-.735.562-1.375 1.375-1.375 1.765 0 1.984 1.718 2.047 2.203.015.062.015.125.125.125.14 0 .14-.063.14-.266v-2.11c0-.171 0-.25-.11-.25-.077 0-.093.016-.155.141l-.375.594c-.313-.297-.75-.734-1.672-.734a2.024 2.024 0 0 0-2.047 2.047c0 .859.547 1.625 1.375 1.922.11.03.64.156 1.375.343.297.063.61.14.89.532.235.28.328.625.328.968 0 .75-.515 1.5-1.406 1.5-.297 0-1.094-.047-1.656-.562-.61-.578-.64-1.25-.656-1.625 0-.11-.094-.11-.125-.11-.125 0-.125.079-.125.266v2.11c0 .171 0 .25.11.25.077 0 .077-.032.155-.141 0 0 .032-.047.375-.594.328.36 1 .734 1.938.734 1.234 0 2.062-1.03 2.062-2.187zm5.558-.297c0-1.344-1.063-2.453-2.329-2.453-1.313 0-2.328 1.14-2.328 2.453 0 1.36 1.094 2.36 2.312 2.36a2.334 2.334 0 0 0 2.344-2.36zm-.876-.078c0 .375 0 .937-.234 1.406-.235.469-.688.781-1.219.781-.453 0-.906-.234-1.203-.703-.25-.468-.25-1.11-.25-1.484 0-.406 0-.984.25-1.438a1.386 1.386 0 0 1 1.187-.703c.47 0 .922.235 1.188.672.281.453.281 1.063.281 1.469zm5-1.672c0-.344-.328-.64-.781-.64-.766 0-1.14.703-1.297 1.156v-1.157l-1.453.11v.328c.734 0 .812.078.812.594v2.812c0 .469-.109.469-.812.469v.328l1.187-.031c.422 0 .922 0 1.344.031V94.1h-.219c-.78 0-.797-.11-.797-.484V91.99c0-1.032.438-1.97 1.235-1.97h.11a.476.476 0 0 0-.235.423c0 .28.219.453.453.453.188 0 .453-.14.453-.469zm3.772 2.703v-.61h-.265v.579c0 .781-.313 1.187-.703 1.187-.703 0-.703-.968-.703-1.14v-2.922h1.5v-.328h-1.5v-1.922h-.266c0 .86-.313 1.984-1.344 2.016v.234h.89v2.906c0 1.281.97 1.406 1.36 1.406.734 0 1.031-.734 1.031-1.406zm9.175.359v-.578h-.266v.579c0 .609-.265.671-.375.671-.359 0-.39-.468-.39-.515v-2.11c0-.437 0-.843-.375-1.234a2.054 2.054 0 0 0-1.453-.578c-.86 0-1.578.5-1.578 1.187 0 .313.203.485.484.485.297 0 .484-.203.484-.469 0-.14-.062-.484-.53-.484.28-.375.796-.485 1.124-.485.516 0 1.11.407 1.11 1.344v.39c-.532.032-1.266.063-1.922.376-.797.359-1.047.906-1.047 1.359 0 .86 1.015 1.11 1.672 1.11.687 0 1.171-.407 1.375-.907.046.422.328.86.812.86.234 0 .875-.141.875-1zm-1.766-.53c0 1-.75 1.359-1.218 1.359-.516 0-.953-.375-.953-.907 0-.562.437-1.437 2.171-1.5zm4.61 1.468V94.1c-.703 0-.813 0-.813-.469v-6.484l-1.515.11v.327c.734 0 .828.078.828.578v5.47c0 .468-.125.468-.828.468v.328l1.172-.031zm2.919 0V94.1c-.703 0-.813 0-.813-.469v-6.484l-1.515.11v.327c.734 0 .828.078.828.578v5.47c0 .468-.125.468-.828.468v.328l1.172-.031zm7.228-1.297v-.61h-.266v.579c0 .781-.312 1.187-.703 1.187-.703 0-.703-.968-.703-1.14v-2.922h1.5v-.328h-1.5v-1.922h-.266c0 .86-.312 1.984-1.343 2.016v.234h.89v2.906c0 1.281.969 1.406 1.36 1.406.734 0 1.03-.734 1.03-1.406zm6.225 1.297V94.1c-.547 0-.813 0-.828-.313v-2c0-.906 0-1.234-.328-1.609-.14-.187-.485-.39-1.094-.39-.89 0-1.344.624-1.516 1h-.015v-3.641l-1.5.11v.327c.734 0 .812.078.812.578v5.47c0 .468-.11.468-.812.468v.328l1.172-.031 1.187.031V94.1c-.703 0-.828 0-.828-.469v-1.937c0-1.094.75-1.672 1.422-1.672.656 0 .781.562.781 1.156v2.453c0 .469-.125.469-.828.469v.328l1.188-.031zm4.573-1.25c0-.11-.079-.125-.141-.125-.094 0-.11.063-.14.14-.36 1.094-1.313 1.094-1.407 1.094-.531 0-.953-.328-1.188-.703-.312-.515-.312-1.203-.312-1.578h2.922c.234 0 .265 0 .265-.219 0-1.046-.562-2.062-1.875-2.062-1.218 0-2.187 1.078-2.187 2.39 0 1.407 1.094 2.422 2.312 2.422 1.282 0 1.75-1.156 1.75-1.359zm-.688-1.39h-2.5c.062-1.563.953-1.829 1.312-1.829 1.078 0 1.188 1.407 1.188 1.828zm8.846 1.39c0-.11-.078-.125-.14-.125-.094 0-.11.063-.141.14-.36 1.094-1.313 1.094-1.407 1.094-.53 0-.953-.328-1.187-.703-.313-.515-.313-1.203-.313-1.578h2.922c.235 0 .266 0 .266-.219 0-1.046-.563-2.062-1.875-2.062-1.219 0-2.188 1.078-2.188 2.39 0 1.407 1.094 2.422 2.313 2.422 1.281 0 1.75-1.156 1.75-1.359zm-.688-1.39h-2.5c.063-1.563.954-1.829 1.313-1.829 1.078 0 1.187 1.407 1.187 1.828zm6.522 2.64V94.1c-.735 0-.813-.078-.813-.578v-6.375l-1.515.11v.327c.734 0 .812.078.812.578v2.282a1.62 1.62 0 0 0-1.312-.657c-1.25 0-2.344 1.032-2.344 2.391 0 1.328 1.031 2.36 2.219 2.36.672 0 1.156-.344 1.406-.688v.687zm-1.547-1.234c0 .187 0 .203-.11.39-.312.5-.78.735-1.234.735-.484 0-.86-.282-1.11-.672-.265-.438-.296-1.031-.296-1.469 0-.39.016-1.016.312-1.484.235-.328.625-.672 1.188-.672.375 0 .812.156 1.14.625.11.187.11.203.11.39zm6.947-3c0-.188-.125-.516-.531-.516-.219 0-.672.063-1.125.484a1.74 1.74 0 0 0-1.11-.375c-.968 0-1.702.72-1.702 1.532 0 .468.234.859.5 1.078a1.45 1.45 0 0 0-.329.875c0 .328.141.719.47.937-.641.172-.97.625-.97 1.047 0 .75 1.032 1.328 2.313 1.328 1.25 0 2.344-.531 2.344-1.343 0-.375-.157-.907-.688-1.204-.562-.296-1.172-.296-1.812-.296h-.782c-.343-.047-.562-.375-.562-.704 0-.046 0-.296.187-.5a1.74 1.74 0 0 0 1.032.329c.984 0 1.703-.72 1.703-1.532 0-.39-.172-.781-.438-1.015.39-.36.766-.422.953-.422 0 0 .079 0 .11.015-.125.047-.172.157-.172.282a.3.3 0 0 0 .297.312c.11 0 .312-.078.312-.312zm-1.844 1.125c0 .28-.015.625-.171.89a.902.902 0 0 1-.75.407c-.907 0-.907-1.047-.907-1.282 0-.281 0-.625.157-.89.093-.125.328-.422.75-.422.922 0 .922 1.062.922 1.297zm1.157 3.937c0 .563-.75 1.094-1.781 1.094-1.063 0-1.782-.531-1.782-1.094a.92.92 0 0 1 .86-.906h.625c.89 0 2.078 0 2.078.906zm5.203-2.078c0-.11-.078-.125-.14-.125-.094 0-.11.063-.141.14-.36 1.094-1.313 1.094-1.407 1.094-.53 0-.953-.328-1.187-.703-.313-.515-.313-1.203-.313-1.578h2.922c.235 0 .266 0 .266-.219 0-1.046-.563-2.062-1.875-2.062-1.219 0-2.188 1.078-2.188 2.39 0 1.407 1.094 2.422 2.313 2.422 1.281 0 1.75-1.156 1.75-1.359zm-.688-1.39h-2.5c.063-1.563.954-1.829 1.313-1.829 1.078 0 1.187 1.407 1.187 1.828zm4.772 1.296c0-.562-.313-.875-.438-1-.343-.328-.765-.422-1.203-.5-.594-.125-1.297-.25-1.297-.86 0-.374.282-.796 1.188-.796 1.156 0 1.203.938 1.219 1.266.015.093.125.093.125.093.14 0 .14-.046.14-.25v-1.062c0-.172 0-.25-.11-.25-.062 0-.077 0-.218.125a.895.895 0 0 1-.172.172c-.406-.297-.828-.297-.984-.297-1.281 0-1.688.703-1.688 1.297 0 .36.172.656.453.89.344.266.625.329 1.391.485.234.031 1.094.203 1.094.953 0 .547-.375.969-1.188.969-.89 0-1.265-.61-1.468-1.5-.032-.141-.032-.172-.141-.172-.14 0-.14.062-.14.265v1.375c0 .188 0 .25.124.25.047 0 .063 0 .25-.203.032-.015.032-.047.219-.25.453.453.938.453 1.156.453 1.203 0 1.688-.703 1.688-1.453zm8.941.406v-.578h-.266v.579c0 .609-.266.671-.375.671-.36 0-.39-.468-.39-.515v-2.11c0-.437 0-.843-.376-1.234a2.054 2.054 0 0 0-1.453-.578c-.86 0-1.578.5-1.578 1.187 0 .313.203.485.484.485.297 0 .485-.203.485-.469 0-.14-.063-.484-.531-.484.28-.375.796-.485 1.125-.485.515 0 1.109.407 1.109 1.344v.39c-.531.032-1.266.063-1.922.376-.797.359-1.047.906-1.047 1.359 0 .86 1.016 1.11 1.672 1.11.688 0 1.172-.407 1.375-.907.047.422.328.86.813.86.234 0 .875-.141.875-1zm-1.766-.53c0 1-.75 1.359-1.219 1.359-.515 0-.953-.375-.953-.907 0-.562.438-1.437 2.172-1.5zm6.297.218c0-.11-.11-.11-.14-.11-.095 0-.11.048-.141.11-.297.984-.985 1.11-1.375 1.11-.547 0-1.47-.454-1.47-2.141 0-1.719.86-2.156 1.407-2.156.094 0 .766 0 1.125.39-.422.031-.484.344-.484.485 0 .265.187.468.484.468.266 0 .469-.172.469-.484 0-.719-.797-1.125-1.594-1.125-1.312 0-2.281 1.14-2.281 2.437 0 1.344 1.031 2.375 2.25 2.375 1.406 0 1.75-1.25 1.75-1.359zm3.193-.718v-.61h-2.781v.61zm-96.027 17.098c0-.11-.11-.11-.141-.11-.094 0-.11.048-.14.11-.298.984-.985 1.11-1.376 1.11-.547 0-1.469-.454-1.469-2.141 0-1.719.86-2.156 1.407-2.156.093 0 .765 0 1.125.39-.422.031-.485.344-.485.485 0 .265.188.468.485.468.265 0 .468-.172.468-.484 0-.719-.797-1.125-1.593-1.125-1.313 0-2.282 1.14-2.282 2.437 0 1.344 1.032 2.375 2.25 2.375 1.407 0 1.75-1.25 1.75-1.359zm5.255-1c0-1.344-1.062-2.453-2.328-2.453-1.313 0-2.328 1.14-2.328 2.453 0 1.36 1.094 2.36 2.312 2.36a2.334 2.334 0 0 0 2.344-2.36zm-.875-.078c0 .375 0 .937-.234 1.406-.235.469-.688.781-1.219.781-.453 0-.906-.234-1.203-.703-.25-.468-.25-1.11-.25-1.484 0-.406 0-.984.25-1.438a1.386 1.386 0 0 1 1.187-.703c.47 0 .922.235 1.188.672.281.453.281 1.063.281 1.469zm5-1.672c0-.344-.328-.64-.781-.64-.766 0-1.14.703-1.297 1.156v-1.157l-1.453.11v.328c.734 0 .812.078.812.594v2.812c0 .469-.109.469-.812.469v.328l1.187-.031c.422 0 .922 0 1.344.031v-.328h-.219c-.78 0-.797-.11-.797-.484v-1.625c0-1.032.438-1.97 1.235-1.97h.11a.476.476 0 0 0-.235.423c0 .28.219.453.453.453.188 0 .453-.14.453-.469zm5.82 4v-.328c-.735 0-.813-.078-.813-.578v-6.375l-1.516.11v.327c.734 0 .813.078.813.578v2.282a1.62 1.62 0 0 0-1.313-.657c-1.25 0-2.344 1.032-2.344 2.391 0 1.328 1.032 2.36 2.22 2.36.671 0 1.155-.344 1.405-.688v.687zm-1.548-1.234c0 .187 0 .203-.109.39-.313.5-.781.735-1.234.735-.485 0-.86-.282-1.11-.672-.265-.438-.297-1.031-.297-1.469 0-.39.016-1.016.313-1.484.234-.328.625-.672 1.187-.672.375 0 .813.156 1.141.625.11.187.11.203.11.39zm4.448 1.234v-.328c-.688 0-.735-.047-.735-.453v-3.86l-1.468.11v.328c.687 0 .78.062.78.578v2.828c0 .469-.124.469-.827.469v.328l1.156-.031c.375 0 .734.015 1.094.031zm-.578-6.344a.57.57 0 0 0-.563-.562.57.57 0 0 0-.562.562c0 .282.25.563.562.563a.56.56 0 0 0 .563-.563zm6.528 6.344v-.328c-.547 0-.813 0-.828-.313v-2c0-.906 0-1.234-.328-1.609-.14-.188-.485-.39-1.094-.39-.766 0-1.266.453-1.563 1.109v-1.11l-1.468.11v.328c.734 0 .812.078.812.594v2.812c0 .469-.11.469-.812.469v.328l1.172-.031 1.187.031v-.328c-.703 0-.828 0-.828-.469v-1.937c0-1.094.75-1.672 1.422-1.672.656 0 .781.562.781 1.156v2.453c0 .469-.125.469-.828.469v.328l1.188-.031zm5.307-4.234c0-.188-.125-.516-.532-.516-.218 0-.671.063-1.125.484a1.74 1.74 0 0 0-1.109-.375c-.969 0-1.703.72-1.703 1.532 0 .468.234.859.5 1.078-.14.156-.328.515-.328.875 0 .328.14.719.469.937-.641.172-.97.625-.97 1.047 0 .75 1.032 1.328 2.313 1.328 1.25 0 2.344-.531 2.344-1.343 0-.375-.156-.907-.687-1.204-.563-.296-1.172-.296-1.813-.296h-.781c-.344-.047-.563-.375-.563-.704 0-.046 0-.296.188-.5a1.74 1.74 0 0 0 1.031.329c.984 0 1.703-.72 1.703-1.532 0-.39-.172-.781-.437-1.015.39-.36.765-.422.953-.422 0 0 .078 0 .11.015-.126.047-.173.157-.173.282a.3.3 0 0 0 .297.312c.11 0 .313-.078.313-.312zm-1.844 1.125c0 .28-.016.625-.172.89a.902.902 0 0 1-.75.407c-.906 0-.906-1.047-.906-1.282 0-.281 0-.625.156-.89.094-.125.328-.422.75-.422.922 0 .922 1.062.922 1.297zm1.156 3.937c0 .563-.75 1.094-1.781 1.094-1.063 0-1.781-.531-1.781-1.094a.92.92 0 0 1 .86-.906h.624c.89 0 2.078 0 2.078.906zm7.825-2.125v-.61h-.266v.579c0 .781-.312 1.187-.703 1.187-.703 0-.703-.968-.703-1.14v-2.922h1.5v-.328h-1.5v-1.922h-.266c0 .86-.312 1.984-1.343 2.016v.234h.89v2.906c0 1.281.969 1.406 1.36 1.406.734 0 1.03-.734 1.03-1.406zm5.553-.953c0-1.344-1.062-2.453-2.328-2.453-1.313 0-2.328 1.14-2.328 2.453 0 1.36 1.094 2.36 2.312 2.36a2.334 2.334 0 0 0 2.344-2.36zm-.875-.078c0 .375 0 .937-.234 1.406-.235.469-.688.781-1.219.781-.453 0-.906-.234-1.203-.703-.25-.468-.25-1.11-.25-1.484 0-.406 0-.984.25-1.438a1.386 1.386 0 0 1 1.187-.703c.47 0 .922.235 1.188.672.281.453.281 1.063.281 1.469zm8.153 1.031v-.61h-.266v.579c0 .781-.312 1.187-.703 1.187-.703 0-.703-.968-.703-1.14v-2.922h1.5v-.328h-1.5v-1.922h-.266c0 .86-.312 1.984-1.343 2.016v.234h.89v2.906c0 1.281.969 1.406 1.36 1.406.734 0 1.03-.734 1.03-1.406zm6.225 1.297v-.328c-.547 0-.813 0-.828-.313v-2c0-.906 0-1.234-.328-1.609-.14-.188-.485-.39-1.094-.39-.89 0-1.344.624-1.516 1h-.015v-3.641l-1.5.11v.327c.734 0 .812.078.812.578v5.47c0 .468-.11.468-.812.468v.328l1.172-.031 1.187.031v-.328c-.703 0-.828 0-.828-.469v-1.937c0-1.094.75-1.672 1.422-1.672.656 0 .781.562.781 1.156v2.453c0 .469-.125.469-.828.469v.328l1.188-.031zm4.572-1.25c0-.11-.078-.125-.14-.125-.094 0-.11.063-.14.14-.36 1.094-1.313 1.094-1.407 1.094-.531 0-.953-.328-1.188-.703-.312-.515-.312-1.203-.312-1.578h2.922c.234 0 .265 0 .265-.219 0-1.046-.562-2.062-1.875-2.062-1.218 0-2.187 1.078-2.187 2.39 0 1.407 1.094 2.422 2.312 2.422 1.282 0 1.75-1.156 1.75-1.359zm-.687-1.39h-2.5c.062-1.563.953-1.829 1.312-1.829 1.078 0 1.188 1.407 1.188 1.828zm3.584 2.64v-.328c-.688 0-.735-.047-.735-.453v-3.86l-1.468.11v.328c.687 0 .78.062.78.578v2.828c0 .469-.124.469-.827.469v.328l1.156-.031c.375 0 .734.015 1.094.031zm-.578-6.344a.57.57 0 0 0-.563-.562.57.57 0 0 0-.562.562c0 .282.25.563.562.563a.56.56 0 0 0 .563-.563zm4.731 2.344c0-.344-.328-.64-.781-.64-.766 0-1.14.703-1.297 1.156v-1.157l-1.453.11v.328c.734 0 .812.078.812.594v2.812c0 .469-.109.469-.812.469v.328l1.187-.031c.422 0 .922 0 1.344.031v-.328h-.219c-.78 0-.796-.11-.796-.484v-1.625c0-1.032.437-1.97 1.234-1.97h.11a.476.476 0 0 0-.235.423c0 .28.219.453.453.453.188 0 .453-.14.453-.469zm11.159-.203v-.328c-.218.031-.53.031-.765.031l-.969-.031v.328c.375.016.61.203.61.5 0 .062 0 .094-.063.234l-.953 2.688-1.031-2.938c-.047-.125-.063-.14-.063-.203 0-.281.422-.281.625-.281v-.328l-1.094.031c-.312 0-.609 0-.937-.031v.328c.39 0 .562.031.672.156.047.063.156.375.234.578l-.906 2.547-.984-2.812c-.063-.125-.063-.141-.063-.188 0-.281.406-.281.625-.281v-.328l-1.14.031-.985-.031v.328c.531 0 .656.031.781.375l1.313 3.719c.062.14.093.218.234.218.125 0 .156-.062.203-.203l1.063-2.968 1.062 2.984c.047.11.078.187.219.187.14 0 .172-.093.203-.187l1.234-3.453c.188-.516.516-.656.875-.672Zm4.282 2.953c0-.11-.078-.125-.14-.125-.094 0-.11.063-.14.14-.36 1.094-1.313 1.094-1.407 1.094-.531 0-.953-.328-1.188-.703-.312-.515-.312-1.203-.312-1.578h2.922c.234 0 .265 0 .265-.219 0-1.046-.562-2.062-1.875-2.062-1.218 0-2.187 1.078-2.187 2.39 0 1.407 1.094 2.422 2.312 2.422 1.282 0 1.75-1.156 1.75-1.359zm-.687-1.39h-2.5c.062-1.563.953-1.829 1.312-1.829 1.078 0 1.188 1.407 1.188 1.828zm3.584 2.64v-.328c-.688 0-.735-.047-.735-.453v-3.86l-1.468.11v.328c.687 0 .78.062.78.578v2.828c0 .469-.124.469-.827.469v.328l1.156-.031c.375 0 .734.015 1.094.031zm-.578-6.344a.57.57 0 0 0-.563-.562.57.57 0 0 0-.562.562c0 .282.25.563.562.563a.56.56 0 0 0 .563-.563zm5.997 2.11c0-.188-.125-.516-.532-.516-.218 0-.671.063-1.125.484a1.74 1.74 0 0 0-1.109-.375c-.969 0-1.703.72-1.703 1.532 0 .468.234.859.5 1.078-.14.156-.328.515-.328.875 0 .328.14.719.469.937-.641.172-.97.625-.97 1.047 0 .75 1.032 1.328 2.313 1.328 1.25 0 2.344-.531 2.344-1.343 0-.375-.156-.907-.687-1.204-.563-.296-1.172-.296-1.813-.296h-.781c-.344-.047-.563-.375-.563-.704 0-.046 0-.296.188-.5a1.74 1.74 0 0 0 1.031.329c.984 0 1.703-.72 1.703-1.532 0-.39-.172-.781-.437-1.015.39-.36.765-.422.953-.422 0 0 .078 0 .11.015-.126.047-.173.157-.173.282a.3.3 0 0 0 .297.312c.11 0 .313-.078.313-.312zm-1.844 1.125c0 .28-.016.625-.172.89a.902.902 0 0 1-.75.407c-.906 0-.906-1.047-.906-1.282 0-.281 0-.625.156-.89.094-.125.328-.422.75-.422.922 0 .922 1.062.922 1.297zm1.156 3.937c0 .563-.75 1.094-1.781 1.094-1.063 0-1.781-.531-1.781-1.094a.92.92 0 0 1 .86-.906h.624c.89 0 2.078 0 2.078.906zm6.469-.828v-.328c-.547 0-.813 0-.828-.313v-2c0-.906 0-1.234-.328-1.609-.14-.188-.485-.39-1.094-.39-.89 0-1.344.624-1.516 1h-.015v-3.641l-1.5.11v.327c.734 0 .812.078.812.578v5.47c0 .468-.11.468-.812.468v.328l1.172-.031 1.187.031v-.328c-.703 0-.828 0-.828-.469v-1.937c0-1.094.75-1.672 1.422-1.672.656 0 .781.562.781 1.156v2.453c0 .469-.125.469-.828.469v.328l1.187-.031zm3.403-1.297v-.61h-.265v.579c0 .781-.313 1.187-.703 1.187-.703 0-.703-.968-.703-1.14v-2.922h1.5v-.328h-1.5v-1.922h-.266c0 .86-.313 1.984-1.344 2.016v.234h.89v2.906c0 1.281.97 1.406 1.36 1.406.734 0 1.031-.734 1.031-1.406zm0 0"/><path fill="none" stroke="#000" stroke-miterlimit="10" stroke-width=".399" d="m272.617 159.855-86.36-28.73-86.359 28.73 86.36 28.735Zm0 0"/><path d="M149.322 154.982c0-.188 0-.375-.219-.375-.203 0-.203.187-.203.375v9.75c0 .187 0 .375.203.375.219 0 .219-.188.219-.375zm8.683 5.047c.015-.047.046-.125.046-.14 0-.016 0-.11-.125-.11-.093 0-.109.062-.14.125-.672 1.547-1.063 2.25-2.86 2.25h-1.53c-.157 0-.173 0-.235-.016-.11 0-.14-.015-.14-.094 0-.03 0-.062.062-.25l.703-2.859h1.047c.89 0 .89.219.89.484 0 .063 0 .204-.078.516-.016.047-.031.078-.031.11 0 .046.047.109.14.109.079 0 .11-.047.157-.203l.594-2.453a.123.123 0 0 0-.125-.125c-.094 0-.11.062-.141.203-.219.797-.406 1.031-1.375 1.031h-.984l.625-2.531c.093-.36.109-.407.562-.407h1.484c1.282 0 1.594.297 1.594 1.157 0 .265 0 .281-.047.562v.188c0 .062.031.125.125.125.11 0 .125-.063.14-.266l.22-1.812c.03-.282-.032-.282-.282-.282h-5.312c-.203 0-.313 0-.313.203 0 .125.094.125.297.125.39 0 .688 0 .688.188 0 .047 0 .062-.063.25l-1.375 5.562c-.11.407-.14.485-.969.485-.171 0-.28 0-.28.203 0 .125.093.125.28.125h5.454c.25 0 .25-.016.328-.172zm3.704-.191c.046-.203.062-.218.218-.234h.407c.437 0 .609 0 .78.047.313.094.329.297.329.547 0 .109 0 .203-.047.562l-.016.078c0 .078.047.11.125.11.11 0 .11-.063.125-.172l.188-1.328c0-.094-.078-.094-.203-.094h-4.281c-.172 0-.188 0-.235.14l-.453 1.235c0 .031-.031.094-.031.125s.015.094.125.094c.094 0 .094-.032.14-.172.407-1.11.641-1.172 1.704-1.172h.28c.22 0 .22 0 .22.062 0 0 0 .047-.032.141l-.922 3.672c-.062.25-.078.328-.812.328-.25 0-.313 0-.313.156 0 .016.016.094.125.094.188 0 .407-.016.594-.016.203 0 .406-.015.594-.015.203 0 .437 0 .64.015.188 0 .391.016.579.016.062 0 .156 0 .156-.156 0-.094-.063-.094-.281-.094-.125 0-.266-.016-.407-.016-.234-.015-.25-.046-.25-.125 0-.062 0-.062.032-.171zm4.557-4.856c0-.188 0-.375-.219-.375-.203 0-.203.187-.203.375v9.75c0 .187 0 .375.203.375.219 0 .219-.188.219-.375zm13.892 4.062c.156 0 .36 0 .36-.203 0-.218-.204-.218-.36-.218h-6.281c-.157 0-.344 0-.344.218 0 .203.187.203.344.203zm0 2.047c.156 0 .36 0 .36-.218 0-.204-.204-.204-.36-.204h-6.281c-.157 0-.344 0-.344.204 0 .218.187.218.344.218zm8.049-6.109c0-.188 0-.375-.219-.375-.203 0-.203.187-.203.375v9.75c0 .187 0 .375.203.375.219 0 .219-.188.219-.375zm7.838 1.531c.515-.828.953-.86 1.344-.875.124-.015.14-.187.14-.203 0-.078-.062-.125-.14-.125-.266 0-.579.031-.86.031-.344 0-.703-.03-1.047-.03-.062 0-.187 0-.187.202 0 .11.094.125.156.125.297.016.484.125.484.344 0 .156-.156.39-.156.406l-3.219 5.125-.718-5.562c0-.172.25-.313.734-.313.14 0 .25 0 .25-.219 0-.093-.078-.109-.14-.109-.423 0-.876.031-1.298.031-.187 0-.39-.015-.578-.015-.187 0-.39-.016-.578-.016-.062 0-.187 0-.187.203 0 .125.094.125.25.125.594 0 .61.094.64.36l.828 6.468c.032.22.079.25.204.25.171 0 .218-.062.296-.187zm2.922 3.325c.046-.203.062-.218.218-.234h.407c.437 0 .609 0 .78.047.313.094.329.297.329.547 0 .109 0 .203-.047.562l-.016.078c0 .078.047.11.125.11.11 0 .11-.063.125-.172l.188-1.328c0-.094-.078-.094-.203-.094h-4.281c-.172 0-.188 0-.235.14l-.453 1.235c0 .031-.031.094-.031.125s.016.094.125.094c.094 0 .094-.032.14-.172.407-1.11.641-1.172 1.704-1.172h.28c.22 0 .22 0 .22.062 0 0 0 .047-.032.141l-.922 3.672c-.062.25-.078.328-.812.328-.25 0-.313 0-.313.156 0 .016.016.094.125.094.188 0 .407-.016.594-.016.203 0 .406-.015.594-.015.203 0 .438 0 .64.015.188 0 .391.016.579.016.062 0 .156 0 .156-.156 0-.094-.063-.094-.281-.094-.125 0-.266-.016-.406-.016-.235-.015-.25-.046-.25-.125 0-.062 0-.062.03-.171zm4.558-4.856c0-.188 0-.375-.219-.375-.203 0-.203.187-.203.375v9.75c0 .187 0 .375.203.375.219 0 .219-.188.219-.375zm11.487 5.078c.172 0 .36 0 .36-.203s-.188-.203-.36-.203h-5.688c-.172 0-.359 0-.359.203s.188.203.36.203zm7.694-4.297c0-.25 0-.281-.25-.281-.656.672-1.578.672-1.906.672v.328c.203 0 .828 0 1.374-.266v5.438c0 .375-.03.5-.984.5h-.328v.328c.36-.031 1.281-.031 1.703-.031.422 0 1.328 0 1.703.031v-.328h-.344c-.937 0-.968-.11-.968-.5zm0 0"/><path fill="none" stroke="#000" stroke-miterlimit="10" stroke-width=".399" d="M126.063 250.52h120.386v-47.278H126.062Zm0 0"/><path d="M137.963 212.192c0-1.047-.687-1.906-1.562-2.125l-1.344-.328a1.36 1.36 0 0 1-1.062-1.328c0-.735.562-1.375 1.375-1.375 1.765 0 1.984 1.718 2.047 2.203.015.062.015.125.125.125.14 0 .14-.063.14-.266v-2.11c0-.171 0-.25-.11-.25-.077 0-.093.016-.155.141l-.375.594c-.313-.297-.75-.734-1.672-.734a2.024 2.024 0 0 0-2.047 2.047c0 .859.547 1.625 1.375 1.922.11.03.64.156 1.375.343.297.063.61.14.89.532.235.28.329.625.329.968 0 .75-.516 1.5-1.407 1.5-.297 0-1.093-.047-1.656-.562-.61-.578-.64-1.25-.656-1.625 0-.11-.094-.11-.125-.11-.125 0-.125.079-.125.266v2.11c0 .171 0 .25.11.25.077 0 .077-.032.155-.141 0 0 .032-.047.375-.594.329.36 1 .734 1.938.734 1.234 0 2.062-1.03 2.062-2.187zm4.963.703c0-.11-.078-.125-.14-.125-.094 0-.11.063-.14.14-.36 1.094-1.313 1.094-1.407 1.094-.531 0-.953-.328-1.188-.703-.312-.515-.312-1.203-.312-1.578h2.922c.234 0 .265 0 .265-.219 0-1.046-.562-2.062-1.875-2.062-1.218 0-2.187 1.078-2.187 2.39 0 1.407 1.094 2.422 2.312 2.422 1.282 0 1.75-1.156 1.75-1.359zm-.687-1.39h-2.5c.062-1.563.953-1.829 1.312-1.829 1.079 0 1.188 1.407 1.188 1.828zm3.661 2.64v-.328c-.702 0-.812 0-.812-.469v-6.484l-1.515.11v.327c.734 0 .828.078.828.578v5.47c0 .468-.125.468-.828.468v.328l1.172-.031zm4.607-1.25c0-.11-.078-.125-.14-.125-.094 0-.11.063-.14.14-.36 1.094-1.313 1.094-1.407 1.094-.531 0-.953-.328-1.188-.703-.312-.515-.312-1.203-.312-1.578h2.922c.234 0 .265 0 .265-.219 0-1.046-.562-2.062-1.875-2.062-1.218 0-2.187 1.078-2.187 2.39 0 1.407 1.094 2.422 2.312 2.422 1.282 0 1.75-1.156 1.75-1.359zm-.687-1.39h-2.5c.062-1.563.953-1.829 1.312-1.829 1.078 0 1.188 1.407 1.188 1.828zm5.35 1.39c0-.11-.11-.11-.141-.11-.094 0-.11.048-.14.11-.298.984-.985 1.11-1.376 1.11-.547 0-1.469-.454-1.469-2.141 0-1.719.86-2.156 1.407-2.156.093 0 .765 0 1.125.39-.422.031-.485.344-.485.484 0 .266.188.47.485.47.265 0 .468-.173.468-.485 0-.719-.797-1.125-1.593-1.125-1.313 0-2.282 1.14-2.282 2.437 0 1.344 1.032 2.375 2.25 2.375 1.407 0 1.75-1.25 1.75-1.359zm3.786-.047v-.61h-.265v.579c0 .781-.313 1.187-.703 1.187-.703 0-.703-.968-.703-1.14v-2.922h1.5v-.328h-1.5v-1.922h-.266c0 .86-.313 1.984-1.344 2.016v.234h.89v2.906c0 1.281.97 1.406 1.36 1.406.734 0 1.031-.734 1.031-1.406zm7.581 0v-.61h-.265v.579c0 .781-.313 1.187-.703 1.187-.704 0-.704-.968-.704-1.14v-2.922h1.5v-.328h-1.5v-1.922h-.265c0 .86-.313 1.984-1.344 2.016v.234h.89v2.906c0 1.281.97 1.406 1.36 1.406.734 0 1.031-.734 1.031-1.406zm6.225 1.297v-.328c-.546 0-.812 0-.828-.313v-2c0-.906 0-1.234-.328-1.609-.14-.188-.484-.39-1.094-.39-.89 0-1.343.624-1.515 1h-.016v-3.641l-1.5.11v.327c.735 0 .813.078.813.578v5.47c0 .468-.11.468-.813.468v.328l1.172-.031 1.188.031v-.328c-.704 0-.829 0-.829-.469v-1.937c0-1.094.75-1.672 1.422-1.672.657 0 .782.562.782 1.156v2.453c0 .469-.125.469-.829.469v.328l1.188-.031zm4.573-1.25c0-.11-.078-.125-.14-.125-.095 0-.11.063-.141.14-.36 1.094-1.313 1.094-1.407 1.094-.53 0-.953-.328-1.187-.703-.313-.515-.313-1.203-.313-1.578h2.922c.235 0 .266 0 .266-.219 0-1.046-.563-2.062-1.875-2.062-1.219 0-2.188 1.078-2.188 2.39 0 1.407 1.094 2.422 2.313 2.422 1.281 0 1.75-1.156 1.75-1.359zm-.688-1.39h-2.5c.063-1.563.953-1.829 1.313-1.829 1.078 0 1.187 1.407 1.187 1.828zm8.846 1.39c0-.11-.078-.125-.14-.125-.094 0-.11.063-.14.14-.36 1.094-1.313 1.094-1.407 1.094-.531 0-.953-.328-1.188-.703-.312-.515-.312-1.203-.312-1.578h2.922c.234 0 .265 0 .265-.219 0-1.046-.562-2.062-1.875-2.062-1.218 0-2.187 1.078-2.187 2.39 0 1.407 1.094 2.422 2.312 2.422 1.282 0 1.75-1.156 1.75-1.359zm-.687-1.39h-2.5c.062-1.563.953-1.829 1.312-1.829 1.078 0 1.188 1.407 1.188 1.828zm6.521 2.64v-.328c-.734 0-.812-.078-.812-.578v-6.375l-1.516.11v.327c.735 0 .813.078.813.578v2.282a1.62 1.62 0 0 0-1.313-.657c-1.25 0-2.344 1.032-2.344 2.391 0 1.328 1.032 2.36 2.22 2.36.671 0 1.155-.344 1.405-.688v.687zm-1.547-1.234c0 .187 0 .203-.109.39-.312.5-.781.735-1.234.735-.485 0-.86-.282-1.11-.672-.265-.438-.297-1.031-.297-1.469 0-.39.016-1.016.313-1.484.234-.328.625-.672 1.187-.672.375 0 .813.156 1.141.625.11.187.11.203.11.39zm6.948-3.001c0-.187-.125-.515-.532-.515-.218 0-.671.063-1.125.484a1.74 1.74 0 0 0-1.109-.375c-.969 0-1.703.72-1.703 1.532 0 .468.234.859.5 1.078-.14.156-.328.515-.328.875 0 .328.14.719.469.937-.641.172-.97.625-.97 1.047 0 .75 1.032 1.328 2.313 1.328 1.25 0 2.344-.531 2.344-1.343 0-.375-.156-.907-.687-1.204-.563-.296-1.172-.296-1.813-.296h-.781c-.344-.047-.563-.375-.563-.704 0-.046 0-.296.188-.5a1.74 1.74 0 0 0 1.031.329c.984 0 1.703-.72 1.703-1.532 0-.39-.172-.781-.437-1.015.39-.36.765-.422.953-.422 0 0 .078 0 .11.015-.126.047-.173.157-.173.282a.3.3 0 0 0 .297.312c.11 0 .313-.078.313-.312zm-1.844 1.126c0 .28-.016.625-.172.89a.902.902 0 0 1-.75.407c-.906 0-.906-1.047-.906-1.282 0-.281 0-.625.156-.89.094-.125.328-.422.75-.422.922 0 .922 1.062.922 1.297zm1.156 3.937c0 .563-.75 1.094-1.781 1.094-1.063 0-1.781-.531-1.781-1.094a.92.92 0 0 1 .86-.906h.624c.89 0 2.078 0 2.078.906zm5.203-2.078c0-.11-.078-.125-.14-.125-.094 0-.11.063-.14.14-.36 1.094-1.313 1.094-1.407 1.094-.531 0-.953-.328-1.188-.703-.312-.515-.312-1.203-.312-1.578h2.922c.234 0 .265 0 .265-.219 0-1.046-.562-2.062-1.875-2.062-1.218 0-2.187 1.078-2.187 2.39 0 1.407 1.094 2.422 2.312 2.422 1.282 0 1.75-1.156 1.75-1.359zm-.687-1.39h-2.5c.062-1.563.953-1.829 1.312-1.829 1.078 0 1.188 1.407 1.188 1.828zm11.934.187c.015-.047.046-.125.046-.14 0-.016 0-.11-.125-.11-.093 0-.109.062-.14.125-.672 1.547-1.063 2.25-2.86 2.25h-1.53c-.157 0-.173 0-.235-.016-.11 0-.14-.015-.14-.093 0-.032 0-.063.062-.25l.703-2.86h1.047c.89 0 .89.219.89.484 0 .063 0 .204-.078.516-.016.047-.031.078-.031.11 0 .046.047.109.14.109.079 0 .11-.047.157-.203l.594-2.453a.123.123 0 0 0-.126-.125c-.093 0-.109.062-.14.203-.219.797-.406 1.031-1.375 1.031h-.984l.624-2.531c.094-.36.11-.406.563-.406h1.484c1.282 0 1.594.296 1.594 1.156 0 .265 0 .281-.047.562v.188c0 .062.031.125.125.125.11 0 .125-.063.14-.266l.22-1.812c.03-.282-.032-.282-.282-.282h-5.312c-.203 0-.313 0-.313.204 0 .125.094.125.297.125.39 0 .688 0 .688.187 0 .047 0 .063-.063.25l-1.375 5.563c-.11.406-.14.484-.969.484-.171 0-.28 0-.28.203 0 .125.093.125.28.125h5.454c.25 0 .25-.016.328-.172zm2.282-.597c0-.016.031-.11.031-.11 0-.046-.031-.109-.125-.109-.14 0-.719.063-.89.078-.048 0-.141.016-.141.157 0 .093.093.093.172.093.343 0 .343.063.343.11s-.015.094-.03.156l-.876 3.438c-.016.078-.016.156-.016.218 0 .453.391.656.72.656.171 0 .39-.046.562-.359.156-.266.25-.672.25-.703 0-.094-.094-.094-.11-.094-.109 0-.125.047-.14.172-.094.344-.235.797-.532.797-.187 0-.234-.172-.234-.344a.89.89 0 0 1 .047-.281Zm11.964-1.153v-.328c-.219.031-.531.031-.766.031l-.968-.031v.328c.375.016.609.203.609.5 0 .062 0 .094-.063.234l-.953 2.688-1.03-2.938c-.048-.125-.063-.14-.063-.203 0-.281.421-.281.625-.281v-.328l-1.094.031c-.313 0-.61 0-.938-.031v.328c.391 0 .563.031.672.156.047.063.156.375.235.578l-.907 2.547-.984-2.812c-.063-.125-.063-.141-.063-.188 0-.281.407-.281.625-.281v-.328l-1.14.031-.985-.031v.328c.532 0 .657.031.782.375l1.312 3.719c.063.14.094.218.235.218.125 0 .156-.062.203-.203l1.062-2.968 1.063 2.984c.047.11.078.187.218.187.141 0 .172-.093.204-.187l1.234-3.453c.187-.516.516-.656.875-.672Zm2.8 4.203v-.328c-.688 0-.735-.047-.735-.453v-3.86l-1.468.11v.328c.687 0 .78.062.78.578v2.828c0 .469-.124.469-.827.469v.328l1.156-.031c.375 0 .734.015 1.094.031zm-.578-6.344a.57.57 0 0 0-.563-.562.57.57 0 0 0-.562.562c0 .282.25.563.562.563a.56.56 0 0 0 .563-.563zm4.387 5.047v-.61h-.265v.579c0 .781-.313 1.187-.703 1.187-.704 0-.704-.968-.704-1.14v-2.922h1.5v-.328h-1.5v-1.922h-.265c0 .86-.313 1.984-1.344 2.016v.234h.89v2.906c0 1.281.97 1.406 1.36 1.406.734 0 1.031-.734 1.031-1.406zm6.225 1.297v-.328c-.546 0-.812 0-.828-.313v-2c0-.906 0-1.234-.328-1.609-.14-.188-.484-.39-1.093-.39-.891 0-1.344.624-1.516 1h-.016v-3.641l-1.5.11v.327c.735 0 .813.078.813.578v5.47c0 .468-.11.468-.813.468v.328l1.172-.031 1.188.031v-.328c-.703 0-.828 0-.828-.469v-1.937c0-1.094.75-1.672 1.421-1.672.657 0 .782.562.782 1.156v2.453c0 .469-.125.469-.828.469v.328l1.187-.031zm-89.518 15.083v-.61h-.265v.579c0 .781-.313 1.187-.703 1.187-.704 0-.704-.968-.704-1.14v-2.922h1.5v-.328h-1.5v-1.922h-.265c0 .86-.313 1.984-1.344 2.015v.235h.89v2.906c0 1.281.97 1.406 1.36 1.406.734 0 1.031-.734 1.031-1.406zm6.226 1.297v-.328c-.547 0-.813 0-.829-.313v-2c0-.906 0-1.234-.328-1.609-.14-.188-.484-.39-1.094-.39-.89 0-1.343.624-1.515 1h-.016v-3.641l-1.5.11v.327c.735 0 .813.078.813.578v5.47c0 .468-.11.468-.813.468v.328l1.172-.031 1.188.031v-.328c-.703 0-.828 0-.828-.469v-1.937c0-1.094.75-1.672 1.421-1.672.657 0 .782.562.782 1.156v2.453c0 .469-.125.469-.828.469v.328l1.187-.031zm4.572-1.25c0-.11-.078-.125-.14-.125-.095 0-.11.062-.141.14-.36 1.094-1.313 1.094-1.407 1.094-.53 0-.953-.328-1.187-.703-.313-.515-.313-1.203-.313-1.578h2.922c.235 0 .266 0 .266-.219 0-1.047-.563-2.062-1.875-2.062-1.219 0-2.188 1.078-2.188 2.39 0 1.407 1.094 2.422 2.313 2.422 1.281 0 1.75-1.156 1.75-1.359zm-.688-1.39h-2.5c.063-1.563.953-1.829 1.313-1.829 1.078 0 1.187 1.406 1.187 1.828zm7.158 2.64v-.328c-.702 0-.812 0-.812-.469v-6.484l-1.515.11v.327c.734 0 .828.078.828.578v5.47c0 .468-.125.468-.828.468v.328l1.172-.031zm5.201-2.25c0-1.344-1.062-2.453-2.328-2.453-1.313 0-2.328 1.14-2.328 2.453 0 1.36 1.094 2.36 2.312 2.36a2.334 2.334 0 0 0 2.344-2.36zm-.875-.078c0 .375 0 .937-.234 1.406-.235.469-.688.781-1.219.781-.453 0-.906-.234-1.203-.703-.25-.469-.25-1.11-.25-1.484 0-.406 0-.985.25-1.438a1.386 1.386 0 0 1 1.187-.703c.47 0 .922.235 1.188.672.281.453.281 1.063.281 1.469zm8.264-1.875v-.328c-.22.031-.532.031-.766.031l-.969-.031v.328c.375.015.61.203.61.5 0 .062 0 .094-.063.234l-.953 2.688-1.031-2.938c-.047-.125-.063-.14-.063-.203 0-.281.422-.281.625-.281v-.328l-1.094.031c-.312 0-.609 0-.937-.031v.328c.39 0 .562.031.672.156.047.063.156.375.234.578l-.906 2.547-.984-2.812c-.063-.125-.063-.141-.063-.188 0-.281.406-.281.625-.281v-.328l-1.14.031-.985-.031v.328c.531 0 .656.031.781.375l1.313 3.719c.062.14.094.218.234.218.125 0 .156-.062.203-.203l1.063-2.969 1.062 2.985c.047.11.078.187.219.187.14 0 .172-.093.203-.187l1.234-3.453c.188-.516.516-.657.876-.672Zm4.27 2.953c0-.11-.077-.125-.14-.125-.094 0-.11.062-.14.14-.36 1.094-1.313 1.094-1.407 1.094-.53 0-.953-.328-1.187-.703-.313-.515-.313-1.203-.313-1.578h2.922c.235 0 .266 0 .266-.219 0-1.047-.563-2.062-1.875-2.062-1.219 0-2.188 1.078-2.188 2.39 0 1.407 1.094 2.422 2.313 2.422 1.281 0 1.75-1.156 1.75-1.359zm-.687-1.39h-2.5c.063-1.563.953-1.829 1.313-1.829 1.078 0 1.187 1.406 1.187 1.828zm4.772 1.296c0-.562-.313-.875-.438-1-.343-.328-.765-.422-1.203-.5-.594-.125-1.297-.25-1.297-.86 0-.374.282-.796 1.188-.796 1.156 0 1.203.937 1.219 1.266.015.093.125.093.125.093.14 0 .14-.047.14-.25v-1.062c0-.172 0-.25-.11-.25-.062 0-.077 0-.218.125a.895.895 0 0 1-.172.172c-.406-.297-.828-.297-.984-.297-1.281 0-1.688.703-1.688 1.297 0 .36.172.656.453.89.344.266.625.328 1.391.485.234.031 1.094.203 1.094.953 0 .547-.375.969-1.188.969-.89 0-1.265-.61-1.468-1.5-.032-.141-.032-.172-.141-.172-.14 0-.14.062-.14.265v1.375c0 .188 0 .25.124.25.047 0 .063 0 .25-.203.032-.015.032-.047.219-.25.453.453.938.453 1.156.453 1.203 0 1.688-.703 1.688-1.453zm3.84.047v-.61h-.266v.579c0 .781-.312 1.187-.703 1.187-.703 0-.703-.968-.703-1.14v-2.922h1.5v-.328h-1.5v-1.922h-.266c0 .86-.312 1.984-1.343 2.015v.235h.89v2.906c0 1.281.969 1.406 1.36 1.406.734 0 1.03-.734 1.03-1.406zm11.461-2.906v-.328c-.219.031-.531.031-.766.031l-.968-.031v.328c.375.015.609.203.609.5 0 .062 0 .094-.063.234l-.953 2.688-1.03-2.938c-.048-.125-.063-.14-.063-.203 0-.281.421-.281.625-.281v-.328l-1.094.031c-.313 0-.61 0-.938-.031v.328c.391 0 .563.031.672.156.047.063.156.375.235.578l-.907 2.547-.984-2.812c-.063-.125-.063-.141-.063-.188 0-.281.407-.281.625-.281v-.328l-1.14.031-.985-.031v.328c.532 0 .657.031.782.375l1.312 3.719c.063.14.094.218.235.218.125 0 .156-.062.203-.203l1.062-2.969 1.063 2.985c.047.11.078.187.218.187.141 0 .172-.093.204-.187l1.234-3.453c.187-.516.516-.657.875-.672Zm4.282 2.953c0-.11-.078-.125-.14-.125-.095 0-.11.062-.141.14-.36 1.094-1.313 1.094-1.407 1.094-.53 0-.953-.328-1.187-.703-.313-.515-.313-1.203-.313-1.578h2.922c.235 0 .266 0 .266-.219 0-1.047-.563-2.062-1.875-2.062-1.219 0-2.188 1.078-2.188 2.39 0 1.407 1.094 2.422 2.313 2.422 1.281 0 1.75-1.156 1.75-1.359zm-.688-1.39h-2.5c.063-1.563.953-1.829 1.313-1.829 1.078 0 1.187 1.406 1.187 1.828zm3.584 2.64v-.328c-.687 0-.734-.047-.734-.453v-3.86l-1.469.11v.328c.688 0 .781.062.781.578v2.828c0 .469-.125.469-.828.469v.328l1.156-.031c.375 0 .735.015 1.094.031zm-.578-6.344a.57.57 0 0 0-.562-.562.57.57 0 0 0-.563.562c0 .281.25.563.563.563a.559.559 0 0 0 .562-.563zm5.997 2.109c0-.187-.125-.515-.531-.515-.219 0-.672.062-1.125.484a1.74 1.74 0 0 0-1.11-.375c-.968 0-1.702.72-1.702 1.532 0 .468.234.859.5 1.078a1.45 1.45 0 0 0-.329.875c0 .328.141.718.47.937-.642.172-.97.625-.97 1.047 0 .75 1.032 1.328 2.313 1.328 1.25 0 2.344-.531 2.344-1.344 0-.375-.157-.906-.688-1.203-.562-.297-1.172-.297-1.812-.297h-.782c-.343-.046-.562-.375-.562-.703 0-.047 0-.297.187-.5a1.74 1.74 0 0 0 1.032.328c.984 0 1.703-.718 1.703-1.53 0-.391-.172-.782-.438-1.016.39-.36.766-.422.953-.422 0 0 .078 0 .11.015-.125.047-.172.157-.172.282a.3.3 0 0 0 .297.312c.11 0 .312-.078.312-.312zm-1.844 1.126c0 .28-.015.625-.171.89a.902.902 0 0 1-.75.406c-.907 0-.907-1.046-.907-1.28 0-.282 0-.626.157-.891.093-.125.328-.422.75-.422.922 0 .922 1.062.922 1.297zm1.157 3.937c0 .563-.75 1.094-1.781 1.094-1.063 0-1.782-.531-1.782-1.094a.92.92 0 0 1 .86-.906h.625c.89 0 2.078 0 2.078.906zm6.469-.828v-.328c-.547 0-.813 0-.829-.313v-2c0-.906 0-1.234-.328-1.609-.14-.188-.484-.39-1.094-.39-.89 0-1.343.624-1.515 1h-.016v-3.641l-1.5.11v.327c.735 0 .813.078.813.578v5.47c0 .468-.11.468-.813.468v.328l1.172-.031 1.188.031v-.328c-.703 0-.828 0-.828-.469v-1.937c0-1.094.75-1.672 1.421-1.672.657 0 .782.562.782 1.156v2.453c0 .469-.125.469-.828.469v.328l1.187-.031zm3.403-1.297v-.61h-.266v.579c0 .781-.312 1.187-.703 1.187-.703 0-.703-.968-.703-1.14v-2.922h1.5v-.328h-1.5v-1.922h-.266c0 .86-.312 1.984-1.343 2.015v.235h.89v2.906c0 1.281.969 1.406 1.36 1.406.734 0 1.03-.734 1.03-1.406zm-69.166 11.005c0-.39-.39-.734-.953-.734-.734 0-1.625.562-1.625 1.672v1.203h-.828v.328h.828v3.406c0 .469-.11.469-.813.469v.328l1.188-.031c.422 0 .922 0 1.344.031v-.328h-.22c-.78 0-.796-.11-.796-.484v-3.391h1.188v-.328h-1.22v-1.219c0-.922.5-1.422.954-1.422.031 0 .203 0 .36.078a.452.452 0 0 0-.329.438c0 .234.172.453.453.453.313 0 .469-.219.469-.469zm3.291 2.672c0-.344-.328-.64-.781-.64-.766 0-1.14.703-1.297 1.156v-1.157l-1.453.11v.328c.734 0 .812.078.812.594v2.812c0 .469-.109.469-.812.469v.328l1.187-.031c.422 0 .922 0 1.344.031v-.328h-.219c-.78 0-.796-.11-.796-.484v-1.625c0-1.032.437-1.97 1.234-1.97h.11a.476.476 0 0 0-.235.423c0 .28.219.453.453.453.188 0 .453-.14.453-.469zm5.241 1.75c0-1.344-1.062-2.453-2.328-2.453-1.313 0-2.328 1.14-2.328 2.453 0 1.36 1.094 2.36 2.312 2.36a2.334 2.334 0 0 0 2.344-2.36zm-.875-.078c0 .375 0 .937-.234 1.406-.235.469-.688.781-1.219.781-.453 0-.906-.234-1.203-.703-.25-.469-.25-1.11-.25-1.484 0-.406 0-.984.25-1.438a1.386 1.386 0 0 1 1.187-.703c.47 0 .922.235 1.188.672.281.453.281 1.063.281 1.469zm9.703 2.328v-.328c-.547 0-.797 0-.812-.313v-2c0-.906 0-1.234-.328-1.609-.141-.188-.485-.39-1.094-.39-.89 0-1.344.624-1.531 1.03-.141-.921-.922-1.03-1.391-1.03-.766 0-1.266.453-1.563 1.109v-1.11l-1.468.11v.328c.734 0 .812.078.812.594v2.812c0 .469-.11.469-.812.469v.328l1.172-.031 1.187.031v-.328c-.703 0-.828 0-.828-.469v-1.937c0-1.094.75-1.672 1.422-1.672.656 0 .781.562.781 1.156v2.453c0 .469-.125.469-.828.469v.328l1.188-.031 1.187.031v-.328c-.719 0-.828 0-.828-.469v-1.937c0-1.094.75-1.672 1.422-1.672.656 0 .781.562.781 1.156v2.453c0 .469-.125.469-.828.469v.328l1.187-.031zm7.196-1.297v-.61h-.265v.579c0 .781-.313 1.187-.703 1.187-.704 0-.704-.968-.704-1.14v-2.922h1.5v-.328h-1.5v-1.922h-.265c0 .86-.313 1.984-1.344 2.016v.234h.89v2.906c0 1.281.97 1.406 1.36 1.406.734 0 1.031-.734 1.031-1.406zm6.226 1.297v-.328c-.547 0-.813 0-.829-.313v-2c0-.906 0-1.234-.328-1.609-.14-.188-.484-.39-1.093-.39-.891 0-1.344.624-1.516 1h-.016v-3.641l-1.5.11v.327c.735 0 .813.078.813.578v5.47c0 .468-.11.468-.813.468v.328l1.172-.031 1.188.031v-.328c-.703 0-.828 0-.828-.469v-1.937c0-1.094.75-1.672 1.421-1.672.657 0 .782.562.782 1.156v2.453c0 .469-.125.469-.828.469v.328l1.187-.031zm4.572-1.25c0-.11-.078-.125-.14-.125-.094 0-.11.063-.141.14-.36 1.094-1.313 1.094-1.407 1.094-.53 0-.953-.328-1.187-.703-.313-.515-.313-1.203-.313-1.578h2.922c.235 0 .266 0 .266-.219 0-1.047-.563-2.062-1.875-2.062-1.219 0-2.188 1.078-2.188 2.39 0 1.407 1.094 2.422 2.313 2.422 1.281 0 1.75-1.156 1.75-1.359zm-.688-1.39h-2.5c.063-1.563.953-1.829 1.313-1.829 1.078 0 1.187 1.406 1.187 1.828zm8.268 1.296c0-.562-.312-.875-.437-1-.344-.328-.766-.422-1.203-.5-.594-.125-1.297-.25-1.297-.86 0-.374.281-.796 1.187-.796 1.157 0 1.203.938 1.219 1.266.016.093.125.093.125.093.14 0 .14-.047.14-.25v-1.062c0-.172 0-.25-.109-.25-.062 0-.078 0-.218.125a.895.895 0 0 1-.172.172c-.407-.297-.828-.297-.985-.297-1.281 0-1.687.703-1.687 1.297 0 .36.172.656.453.89.344.266.625.328 1.39.485.235.031 1.094.203 1.094.953 0 .547-.375.969-1.187.969-.89 0-1.266-.61-1.469-1.5-.031-.141-.031-.172-.14-.172-.141 0-.141.062-.141.265v1.375c0 .188 0 .25.125.25.047 0 .062 0 .25-.203.031-.015.031-.047.219-.25.453.453.937.453 1.156.453 1.203 0 1.687-.703 1.687-1.453zm4.715.094c0-.11-.078-.125-.14-.125-.094 0-.11.063-.14.14-.36 1.094-1.313 1.094-1.407 1.094-.531 0-.953-.328-1.188-.703-.312-.515-.312-1.203-.312-1.578h2.922c.234 0 .265 0 .265-.219 0-1.047-.562-2.062-1.875-2.062-1.218 0-2.187 1.078-2.187 2.39 0 1.407 1.094 2.422 2.312 2.422 1.282 0 1.75-1.156 1.75-1.359zm-.687-1.39h-2.5c.062-1.563.953-1.829 1.312-1.829 1.079 0 1.188 1.406 1.188 1.828zm4.474 1.343v-.61h-.265v.579c0 .781-.313 1.187-.703 1.187-.704 0-.704-.968-.704-1.14v-2.922h1.5v-.328h-1.5v-1.922h-.265c0 .86-.313 1.984-1.344 2.016v.234h.89v2.906c0 1.281.97 1.406 1.36 1.406.734 0 1.031-.734 1.031-1.406zm11.543-1.156c.016-.047.047-.125.047-.14 0-.016 0-.11-.125-.11-.093 0-.109.062-.14.125-.672 1.547-1.063 2.25-2.86 2.25h-1.53c-.157 0-.173 0-.235-.016-.11 0-.14-.015-.14-.094 0-.03 0-.062.062-.25l.703-2.859h1.047c.89 0 .89.219.89.484 0 .063 0 .204-.078.516-.016.047-.031.078-.031.11 0 .046.047.109.14.109.079 0 .11-.047.157-.203l.593-2.453a.123.123 0 0 0-.125-.125c-.093 0-.109.062-.14.203-.219.797-.406 1.031-1.375 1.031h-.984l.624-2.531c.094-.36.11-.406.563-.406h1.484c1.282 0 1.594.296 1.594 1.156 0 .265 0 .281-.047.562V242c0 .062.031.125.125.125.11 0 .125-.063.14-.266l.22-1.812c.03-.282-.032-.282-.282-.282h-5.312c-.203 0-.313 0-.313.203 0 .125.094.125.297.125.39 0 .688 0 .688.188 0 .047 0 .063-.063.25l-1.375 5.563c-.11.406-.14.484-.969.484-.171 0-.28 0-.28.203 0 .125.093.125.28.125h5.454c.25 0 .25-.016.328-.172zm0 0"/><path fill="none" stroke="#000" stroke-miterlimit="10" stroke-width=".399" d="m292.54 300.547-106.282-35.371-106.285 35.37 106.285 35.376Zm0 0"/><path d="M149.468 295.943v-.328h-.281c-.828 0-.86-.11-.86-.485v-5.546c0-.375.032-.485.86-.485h.281v-.328c-.375.031-1.203.031-1.594.031-.422 0-1.25 0-1.61-.03v.327h.266c.829 0 .86.11.86.485v5.546c0 .375-.031.485-.86.485h-.265v.328c.36-.031 1.187-.031 1.594-.031.406 0 1.234 0 1.609.031zm4.072-1.343c0-.563-.313-.876-.438-1-.344-.329-.765-.423-1.203-.5-.594-.126-1.297-.25-1.297-.86 0-.375.281-.797 1.188-.797 1.156 0 1.203.937 1.219 1.266.015.093.125.093.125.093.14 0 .14-.047.14-.25v-1.062c0-.172 0-.25-.11-.25-.062 0-.077 0-.218.125a.895.895 0 0 1-.172.172c-.406-.297-.828-.297-.984-.297-1.281 0-1.688.703-1.688 1.297 0 .36.172.656.453.89.344.266.625.328 1.391.485.234.031 1.094.203 1.094.953 0 .547-.375.969-1.188.969-.89 0-1.265-.61-1.469-1.5-.03-.141-.03-.172-.14-.172-.14 0-.14.062-.14.265v1.375c0 .188 0 .25.124.25.047 0 .063 0 .25-.203.031-.015.031-.047.219-.25.453.453.938.453 1.156.453 1.203 0 1.688-.703 1.688-1.453zm7.336.046v-.61h-.265v.579c0 .781-.313 1.187-.703 1.187-.703 0-.703-.968-.703-1.14v-2.922h1.5v-.328h-1.5v-1.922h-.266c0 .86-.313 1.984-1.344 2.015v.235h.89v2.906c0 1.281.97 1.406 1.36 1.406.734 0 1.031-.734 1.031-1.406zm6.225 1.297v-.328c-.546 0-.812 0-.828-.313v-2c0-.906 0-1.234-.328-1.609-.14-.188-.484-.39-1.094-.39-.89 0-1.343.624-1.515 1h-.016v-3.641l-1.5.11v.327c.735 0 .813.078.813.578v5.47c0 .468-.11.468-.813.468v.328l1.172-.031 1.188.031v-.328c-.704 0-.829 0-.829-.469v-1.937c0-1.094.75-1.672 1.422-1.672.657 0 .782.562.782 1.156v2.453c0 .469-.125.469-.829.469v.328l1.188-.031zm4.573-1.25c0-.11-.078-.125-.14-.125-.094 0-.11.062-.141.14-.36 1.094-1.313 1.094-1.407 1.094-.53 0-.953-.328-1.187-.703-.313-.515-.313-1.203-.313-1.578h2.922c.235 0 .266 0 .266-.219 0-1.047-.563-2.062-1.875-2.062-1.219 0-2.188 1.078-2.188 2.39 0 1.407 1.094 2.422 2.313 2.422 1.281 0 1.75-1.156 1.75-1.359zm-.688-1.39h-2.5c.063-1.563.954-1.829 1.313-1.829 1.078 0 1.187 1.406 1.187 1.828zm4.819-1.36c0-.344-.329-.64-.782-.64-.765 0-1.14.702-1.297 1.156v-1.157l-1.453.11v.328c.735 0 .813.078.813.594v2.812c0 .469-.11.469-.813.469v.328l1.188-.031c.422 0 .922 0 1.344.031v-.328h-.22c-.78 0-.796-.11-.796-.485v-1.625c0-1.03.438-1.968 1.234-1.968h.11a.476.476 0 0 0-.235.422c0 .28.22.453.453.453.188 0 .454-.14.454-.469zm4.647 2.75c0-.11-.078-.125-.14-.125-.095 0-.11.062-.141.14-.36 1.094-1.313 1.094-1.407 1.094-.53 0-.953-.328-1.187-.703-.313-.515-.313-1.203-.313-1.578h2.922c.235 0 .266 0 .266-.219 0-1.047-.563-2.062-1.875-2.062-1.219 0-2.188 1.078-2.188 2.39 0 1.407 1.094 2.422 2.313 2.422 1.281 0 1.75-1.156 1.75-1.359zm-.688-1.39h-2.5c.063-1.563.953-1.829 1.313-1.829 1.078 0 1.187 1.406 1.187 1.828zm9.566 1.702v-.578h-.266v.578c0 .61-.266.672-.375.672-.36 0-.391-.468-.391-.515v-2.11c0-.437 0-.843-.375-1.234a2.054 2.054 0 0 0-1.453-.578c-.86 0-1.578.5-1.578 1.187 0 .313.203.485.484.485.297 0 .484-.203.484-.469 0-.14-.062-.484-.53-.484.28-.375.796-.485 1.124-.485.516 0 1.11.406 1.11 1.344v.39c-.532.032-1.266.063-1.922.376-.797.359-1.047.906-1.047 1.359 0 .86 1.015 1.11 1.672 1.11.687 0 1.172-.407 1.375-.907.047.422.328.86.812.86.235 0 .875-.141.875-1zm-1.766-.53c0 1-.75 1.359-1.22 1.359-.515 0-.952-.375-.952-.907 0-.562.437-1.437 2.172-1.5zm7.562 1.468v-.328c-.547 0-.812 0-.828-.313v-2c0-.906 0-1.234-.328-1.609-.14-.188-.485-.39-1.094-.39-.766 0-1.266.452-1.562 1.109v-1.11l-1.47.11v.328c.735 0 .813.078.813.594v2.812c0 .469-.11.469-.812.469v.328l1.172-.031 1.187.031v-.328c-.703 0-.828 0-.828-.469v-1.937c0-1.094.75-1.672 1.422-1.672.656 0 .781.562.781 1.156v2.453c0 .469-.125.469-.828.469v.328l1.188-.031zm5.258-4.203v-.328c-.235.031-.547.031-.782.031l-.906-.031v.328c.313.015.484.187.484.453 0 .11-.015.125-.062.25l-1.063 2.594-1.156-2.828a.588.588 0 0 1-.062-.188c0-.281.375-.281.578-.281v-.328l-1.14.031c-.282 0-.704 0-1.016-.031v.328c.5 0 .703 0 .843.375l1.578 3.828-.265.625c-.234.578-.516 1.297-1.188 1.297-.062 0-.297 0-.5-.188.328-.047.407-.28.407-.437a.431.431 0 0 0-.438-.453.43.43 0 0 0-.437.453c0 .484.437.86.968.86.657 0 1.078-.61 1.344-1.204l1.844-4.484c.266-.657.812-.672.969-.672Zm8.061 2.953c0-.11-.11-.11-.14-.11-.095 0-.11.047-.141.11-.297.984-.985 1.11-1.375 1.11-.547 0-1.47-.454-1.47-2.141 0-1.719.86-2.157 1.407-2.157.094 0 .766 0 1.125.391-.422.031-.484.344-.484.484 0 .266.187.47.484.47.266 0 .469-.173.469-.485 0-.719-.797-1.125-1.594-1.125-1.312 0-2.281 1.14-2.281 2.437 0 1.344 1.031 2.375 2.25 2.375 1.406 0 1.75-1.25 1.75-1.359zm5.631-2.953v-.328c-.235.031-.547.031-.782.031l-.906-.031v.328c.313.015.484.187.484.453 0 .11-.015.125-.062.25l-1.063 2.594-1.156-2.828a.588.588 0 0 1-.062-.188c0-.281.375-.281.578-.281v-.328l-1.14.031c-.282 0-.704 0-1.016-.031v.328c.5 0 .703 0 .843.375l1.578 3.828-.265.625c-.234.578-.516 1.297-1.188 1.297-.062 0-.297 0-.5-.188.328-.047.407-.28.407-.437a.431.431 0 0 0-.438-.453.43.43 0 0 0-.437.453c0 .484.437.86.968.86.657 0 1.078-.61 1.344-1.204l1.844-4.484c.266-.657.812-.672.969-.672Zm4.574 2.953c0-.11-.108-.11-.14-.11-.093 0-.11.047-.14.11-.297.984-.985 1.11-1.375 1.11-.547 0-1.47-.454-1.47-2.141 0-1.719.86-2.157 1.407-2.157.094 0 .766 0 1.125.391-.422.031-.484.344-.484.484 0 .266.187.47.484.47.266 0 .469-.173.469-.485 0-.719-.797-1.125-1.594-1.125-1.312 0-2.281 1.14-2.281 2.437 0 1.344 1.031 2.375 2.25 2.375 1.406 0 1.75-1.25 1.75-1.359zm2.975 1.25v-.328c-.703 0-.812 0-.812-.469v-6.484l-1.516.11v.327c.735 0 .828.078.828.578v5.47c0 .468-.125.468-.828.468v.328l1.172-.031zm4.607-1.25c0-.11-.078-.125-.14-.125-.095 0-.11.062-.141.14-.36 1.094-1.313 1.094-1.407 1.094-.53 0-.953-.328-1.187-.703-.313-.515-.313-1.203-.313-1.578h2.922c.235 0 .266 0 .266-.219 0-1.047-.563-2.062-1.875-2.062-1.219 0-2.188 1.078-2.188 2.39 0 1.407 1.094 2.422 2.313 2.422 1.281 0 1.75-1.156 1.75-1.359zm-.688-1.39h-2.5c.063-1.563.953-1.829 1.313-1.829 1.078 0 1.187 1.406 1.187 1.828zm-67.369 14.817v-.328c-.219.031-.531.031-.766.031l-.968-.031v.328c.375.015.609.203.609.5 0 .062 0 .094-.063.234l-.953 2.688-1.03-2.938c-.048-.125-.063-.14-.063-.203 0-.281.422-.281.625-.281v-.328l-1.094.031c-.313 0-.61 0-.938-.031v.328c.391 0 .563.031.672.156.047.063.157.375.235.578l-.907 2.547-.984-2.812c-.063-.125-.063-.141-.063-.188 0-.281.407-.281.626-.281v-.328l-1.141.031-.984-.031v.328c.53 0 .656.031.78.375l1.313 3.719c.063.14.094.218.235.218.125 0 .156-.062.203-.203l1.062-2.969 1.063 2.985c.047.11.078.187.219.187.14 0 .171-.093.203-.187l1.234-3.453c.188-.516.516-.656.875-.672Zm2.8 4.203v-.328c-.688 0-.735-.047-.735-.453v-3.86l-1.468.11v.328c.687 0 .78.062.78.578v2.828c0 .469-.124.469-.827.469v.328l1.156-.031c.375 0 .734.015 1.094.031zm-.578-6.344a.57.57 0 0 0-.563-.562.57.57 0 0 0-.562.562c0 .281.25.563.562.563a.56.56 0 0 0 .563-.563zm3.575 6.344v-.328c-.703 0-.813 0-.813-.469v-6.484l-1.515.11v.327c.734 0 .828.078.828.578v5.47c0 .468-.125.468-.828.468v.328l1.172-.031zm2.918 0v-.328c-.702 0-.812 0-.812-.469v-6.484l-1.515.11v.327c.734 0 .828.078.828.578v5.47c0 .468-.125.468-.828.468v.328l1.172-.031zm9.213-2.266c0-1.328-1.031-2.375-2.218-2.375-.829 0-1.282.5-1.438.688v-3.328l-1.516.11v.327c.735 0 .813.078.813.578v6.266h.266l.375-.656c.156.25.609.765 1.375.765a2.357 2.357 0 0 0 2.343-2.375zm-.875-.015c0 .39-.015 1.015-.312 1.5-.235.312-.625.672-1.188.672-.484 0-.86-.266-1.11-.641-.14-.219-.14-.266-.14-.453v-2.156c0-.204 0-.204.11-.375a1.491 1.491 0 0 1 1.234-.672c.484 0 .86.265 1.11.672.265.421.296 1.03.296 1.453Zm5.898 1.031c0-.11-.078-.125-.14-.125-.095 0-.11.063-.141.14-.36 1.094-1.313 1.094-1.407 1.094-.53 0-.953-.328-1.187-.703-.313-.515-.313-1.203-.313-1.578h2.922c.235 0 .266 0 .266-.219 0-1.047-.563-2.062-1.875-2.062-1.219 0-2.188 1.078-2.188 2.39 0 1.407 1.094 2.422 2.313 2.422 1.281 0 1.75-1.156 1.75-1.359zm-.688-1.39h-2.5c.063-1.563.953-1.829 1.313-1.829 1.078 0 1.187 1.406 1.187 1.828zm8.237-4.032c0-.39-.39-.734-.953-.734-.734 0-1.625.562-1.625 1.672v1.203h-.828v.328h.828v3.406c0 .469-.11.469-.813.469v.328l1.188-.031c.422 0 .922 0 1.344.031v-.328h-.22c-.78 0-.796-.11-.796-.485v-3.39h1.188v-.328h-1.22v-1.219c0-.922.5-1.422.954-1.422.031 0 .203 0 .36.078a.452.452 0 0 0-.329.438c0 .234.172.453.453.453.313 0 .469-.219.469-.469zm4.416 4.422c0-1.344-1.062-2.453-2.328-2.453-1.313 0-2.328 1.14-2.328 2.453 0 1.36 1.094 2.36 2.312 2.36a2.334 2.334 0 0 0 2.344-2.36zm-.875-.078c0 .375 0 .937-.234 1.406-.235.469-.688.781-1.219.781-.453 0-.906-.234-1.203-.703-.25-.469-.25-1.11-.25-1.484 0-.406 0-.985.25-1.438a1.386 1.386 0 0 1 1.187-.703c.47 0 .922.235 1.188.672.281.453.281 1.063.281 1.469zm5-1.672c0-.344-.328-.64-.781-.64-.766 0-1.14.702-1.297 1.156v-1.157l-1.453.11v.328c.734 0 .812.078.812.594v2.812c0 .469-.109.469-.812.469v.328l1.187-.031c.422 0 .922 0 1.344.031v-.328h-.219c-.78 0-.797-.11-.797-.485v-1.625c0-1.03.438-1.968 1.235-1.968h.11a.476.476 0 0 0-.235.422c0 .28.219.453.453.453.188 0 .453-.14.453-.469zm8.819 4v-.328c-.547 0-.797 0-.812-.313v-2c0-.906 0-1.234-.328-1.609-.141-.188-.485-.39-1.094-.39-.89 0-1.344.624-1.531 1.03-.141-.921-.922-1.03-1.391-1.03-.766 0-1.266.452-1.563 1.109v-1.11l-1.468.11v.328c.734 0 .812.078.812.594v2.812c0 .469-.11.469-.812.469v.328l1.172-.031 1.187.031v-.328c-.703 0-.828 0-.828-.469v-1.937c0-1.094.75-1.672 1.422-1.672.656 0 .781.562.781 1.156v2.453c0 .469-.125.469-.828.469v.328l1.188-.031 1.187.031v-.328c-.719 0-.828 0-.828-.469v-1.937c0-1.094.75-1.672 1.422-1.672.656 0 .781.562.781 1.156v2.453c0 .469-.125.469-.828.469v.328l1.187-.031zm4.575-1.25c0-.11-.078-.125-.14-.125-.095 0-.11.063-.141.14-.36 1.094-1.313 1.094-1.407 1.094-.53 0-.953-.328-1.187-.703-.313-.515-.313-1.203-.313-1.578h2.922c.235 0 .266 0 .266-.219 0-1.047-.563-2.062-1.875-2.062-1.219 0-2.188 1.078-2.188 2.39 0 1.407 1.094 2.422 2.313 2.422 1.281 0 1.75-1.156 1.75-1.359zm-.688-1.39h-2.5c.063-1.563.953-1.829 1.313-1.829 1.078 0 1.187 1.406 1.187 1.828zm6.522 2.64v-.328c-.735 0-.813-.078-.813-.578v-6.375l-1.515.11v.327c.734 0 .812.078.812.578v2.282a1.62 1.62 0 0 0-1.312-.657c-1.25 0-2.344 1.032-2.344 2.391 0 1.328 1.031 2.36 2.219 2.36.672 0 1.156-.344 1.406-.688v.687zm-1.547-1.234c0 .187 0 .203-.11.39-.312.5-.78.735-1.234.735-.484 0-.86-.282-1.11-.672-.265-.438-.296-1.031-.296-1.469 0-.39.016-1.016.312-1.484.235-.329.625-.672 1.188-.672.375 0 .812.156 1.14.625.11.187.11.203.11.39zm6.213-4.75c0-.61-.422-1.422-1.985-1.422-1.14 0-1.78.719-1.78 1.406 0 .344.234.5.484.5.28 0 .468-.219.468-.484 0-.47-.437-.47-.578-.47.328-.562.938-.718 1.375-.718 1.14 0 1.14.719 1.14 1.125 0 .625-.171.813-.359 1-.687.75-.921 1.719-.921 2.36v.468c0 .188 0 .25.125.25.14 0 .14-.094.14-.281v-.36c0-1.328 1.016-2.078 1.39-2.343.282-.219.5-.594.5-1.031zm-1.469 5.421a.554.554 0 1 0-1.112.013.554.554 0 0 0 1.112-.013zm0 0"/><path fill="none" stroke="#000" stroke-miterlimit="10" stroke-width=".399" d="M16.54 403.59h120.386v-32.473H16.539Zm0 0"/><path d="M43.275 382.134v-.328h-.187c-.64 0-.782-.078-.89-.422l-2.282-6.563c-.047-.125-.063-.203-.235-.203-.171 0-.203.063-.25.204l-2.171 6.28c-.188.532-.61.688-1.172.704v.328l1.062-.031 1.203.031v-.328c-.515 0-.78-.266-.78-.531 0-.032.015-.141.015-.157l.484-1.375h2.594l.562 1.61c0 .031.032.094.032.14 0 .313-.594.313-.875.313v.328c.375-.031 1.109-.031 1.515-.031Zm-2.719-2.719h-2.359l1.172-3.406Zm7.128 1.469c0-.11-.109-.11-.14-.11-.094 0-.11.048-.14.11-.298.984-.985 1.11-1.376 1.11-.547 0-1.469-.454-1.469-2.141 0-1.719.86-2.156 1.407-2.156.093 0 .765 0 1.125.39-.422.031-.485.344-.485.485 0 .265.188.468.485.468.265 0 .468-.172.468-.484 0-.719-.796-1.125-1.593-1.125-1.313 0-2.282 1.14-2.282 2.437 0 1.344 1.032 2.375 2.25 2.375 1.407 0 1.75-1.25 1.75-1.359zm4.662 0c0-.11-.109-.11-.14-.11-.094 0-.11.048-.14.11-.298.984-.985 1.11-1.376 1.11-.547 0-1.469-.454-1.469-2.141 0-1.719.86-2.156 1.407-2.156.093 0 .765 0 1.125.39-.422.031-.485.344-.485.485 0 .265.188.468.485.468.265 0 .468-.172.468-.484 0-.719-.796-1.125-1.593-1.125-1.313 0-2.282 1.14-2.282 2.437 0 1.344 1.032 2.375 2.25 2.375 1.407 0 1.75-1.25 1.75-1.359zm4.662 0c0-.11-.078-.125-.14-.125-.094 0-.11.063-.14.14-.36 1.094-1.313 1.094-1.407 1.094-.531 0-.953-.328-1.188-.703-.312-.515-.312-1.203-.312-1.578h2.922c.234 0 .265 0 .265-.219 0-1.046-.562-2.062-1.875-2.062-1.218 0-2.187 1.078-2.187 2.39 0 1.407 1.094 2.422 2.312 2.422 1.282 0 1.75-1.156 1.75-1.359zm-.687-1.39h-2.5c.062-1.563.953-1.829 1.312-1.829 1.078 0 1.188 1.406 1.188 1.828zm6.459.374c0-1.328-1.016-2.375-2.188-2.375-.828 0-1.265.47-1.468.688v-.688l-1.516.11v.328c.75 0 .812.062.812.531v4.906c0 .485-.109.485-.812.485v.312l1.172-.031 1.187.031v-.312c-.703 0-.812 0-.812-.485v-1.859c.047.172.484.734 1.281.734a2.357 2.357 0 0 0 2.344-2.375zm-.875 0c0 1.266-.735 2.157-1.5 2.157-.422 0-.828-.22-1.11-.641-.14-.219-.14-.234-.14-.453v-2.328c.297-.547.812-.844 1.344-.844.765 0 1.406.922 1.406 2.11zm4.728.969v-.61h-.265v.579c0 .781-.313 1.187-.703 1.187-.704 0-.704-.968-.704-1.14v-2.922h1.5v-.328h-1.5v-1.922h-.265c0 .86-.313 1.984-1.344 2.016v.234h.89v2.906c0 1.281.97 1.406 1.36 1.406.734 0 1.031-.734 1.031-1.406zm11.537-1.157c.016-.046.047-.124.047-.14 0-.015 0-.11-.125-.11-.093 0-.109.063-.14.126-.672 1.547-1.063 2.25-2.86 2.25h-1.53c-.157 0-.173 0-.235-.016-.11 0-.14-.015-.14-.094 0-.03 0-.062.062-.25l.703-2.859h1.047c.89 0 .89.219.89.485 0 .062 0 .203-.078.515-.015.047-.031.078-.031.11 0 .046.047.109.14.109.079 0 .11-.047.157-.203l.594-2.453a.123.123 0 0 0-.125-.125c-.094 0-.11.062-.141.203-.219.797-.406 1.031-1.375 1.031h-.984l.625-2.531c.093-.36.109-.406.562-.406h1.484c1.282 0 1.594.296 1.594 1.156 0 .265 0 .281-.047.562v.188c0 .062.032.125.125.125.11 0 .125-.063.14-.266l.22-1.812c.03-.282-.032-.282-.282-.282h-5.312c-.203 0-.313 0-.313.204 0 .125.094.125.297.125.39 0 .688 0 .688.187 0 .047 0 .063-.063.25l-1.375 5.563c-.11.406-.14.484-.968.484-.172 0-.282 0-.282.203 0 .125.094.125.282.125h5.453c.25 0 .25-.016.328-.172zm2.283-.596c0-.016.031-.11.031-.11 0-.046-.031-.109-.125-.109-.14 0-.719.063-.89.078-.047 0-.141.016-.141.157 0 .093.094.093.172.093.343 0 .343.063.343.11s-.015.094-.03.156l-.876 3.438c-.015.078-.015.156-.015.218 0 .453.39.657.718.657.172 0 .39-.047.563-.36.156-.265.25-.672.25-.703 0-.094-.094-.094-.11-.094-.109 0-.125.047-.14.172-.094.344-.235.797-.531.797-.188 0-.235-.172-.235-.344a.89.89 0 0 1 .047-.281Zm9.667 2.113v-.579h-.266v.579c0 .609-.265.671-.374.671-.36 0-.391-.468-.391-.515v-2.11c0-.437 0-.843-.375-1.234a2.054 2.054 0 0 0-1.453-.578c-.86 0-1.578.5-1.578 1.187 0 .313.203.485.484.485.297 0 .484-.203.484-.469 0-.14-.062-.484-.53-.484.28-.375.796-.485 1.124-.485.516 0 1.11.406 1.11 1.344v.39c-.532.032-1.266.063-1.922.376-.797.359-1.047.906-1.047 1.359 0 .86 1.015 1.11 1.672 1.11.687 0 1.171-.407 1.375-.907.046.422.328.86.812.86.234 0 .875-.141.875-1zm-1.766-.532c0 1-.75 1.36-1.218 1.36-.516 0-.953-.375-.953-.907 0-.562.437-1.437 2.171-1.5zm7.563 1.469v-.328c-.547 0-.813 0-.828-.313v-2c0-.906 0-1.234-.328-1.609-.14-.188-.485-.39-1.094-.39-.766 0-1.266.452-1.563 1.109v-1.11l-1.468.11v.328c.734 0 .812.078.812.594v2.812c0 .469-.11.469-.812.469v.328l1.172-.031 1.187.031v-.328c-.703 0-.828 0-.828-.469V379.4c0-1.094.75-1.672 1.422-1.672.656 0 .781.562.781 1.156v2.453c0 .469-.125.469-.828.469v.328l1.188-.031zm5.744 0v-.328c-.734 0-.812-.078-.812-.578v-6.375l-1.516.11v.327c.734 0 .813.078.813.578v2.282a1.62 1.62 0 0 0-1.313-.657c-1.25 0-2.344 1.032-2.344 2.391 0 1.328 1.032 2.36 2.22 2.36.671 0 1.155-.344 1.405-.688v.687zm-1.547-1.234c0 .187 0 .203-.109.39-.313.5-.781.735-1.234.735-.485 0-.86-.282-1.11-.672-.265-.438-.297-1.031-.297-1.469 0-.39.016-1.016.313-1.484.234-.328.625-.672 1.187-.672.375 0 .813.156 1.141.625.11.187.11.203.11.39zm7.944 1.234v-.328c-.687 0-.734-.047-.734-.453v-3.86l-1.469.11v.328c.688 0 .781.062.781.578v2.828c0 .469-.125.469-.828.469v.328l1.156-.031c.376 0 .735.015 1.094.031zm-.578-6.344a.57.57 0 0 0-.562-.562.57.57 0 0 0-.563.562c0 .281.25.563.563.563a.559.559 0 0 0 .562-.563zm6.528 6.344v-.328c-.546 0-.812 0-.828-.313v-2c0-.906 0-1.234-.328-1.609-.14-.188-.484-.39-1.094-.39-.765 0-1.265.452-1.562 1.109v-1.11l-1.469.11v.328c.735 0 .813.078.813.594v2.812c0 .469-.11.469-.813.469v.328l1.172-.031 1.188.031v-.328c-.704 0-.829 0-.829-.469V379.4c0-1.094.75-1.672 1.422-1.672.657 0 .782.562.782 1.156v2.453c0 .469-.125.469-.829.469v.328l1.188-.031zm3.104-1.969v-.61h-2.781v.61zM47.35 397.17c0-.562-.312-.875-.437-1-.344-.328-.766-.422-1.203-.5-.594-.125-1.297-.25-1.297-.86 0-.374.281-.796 1.187-.796 1.157 0 1.203.938 1.219 1.266.016.093.125.093.125.093.14 0 .14-.046.14-.25v-1.062c0-.172 0-.25-.109-.25-.062 0-.078 0-.218.125a.895.895 0 0 1-.172.172c-.407-.297-.828-.297-.985-.297-1.281 0-1.687.703-1.687 1.297 0 .36.172.656.453.89.344.266.625.329 1.39.485.235.031 1.094.203 1.094.953 0 .547-.375.969-1.187.969-.89 0-1.266-.61-1.469-1.5-.031-.141-.031-.172-.14-.172-.141 0-.141.062-.141.265v1.375c0 .188 0 .25.125.25.047 0 .062 0 .25-.203.031-.015.031-.047.219-.25.453.453.937.453 1.156.453 1.203 0 1.687-.703 1.687-1.453zm4.715.094c0-.11-.078-.125-.14-.125-.094 0-.11.063-.14.14-.36 1.094-1.313 1.094-1.407 1.094-.531 0-.953-.328-1.188-.703-.312-.515-.312-1.203-.312-1.578H51.8c.234 0 .265 0 .265-.219 0-1.046-.562-2.062-1.875-2.062-1.218 0-2.187 1.078-2.187 2.39 0 1.407 1.094 2.422 2.312 2.422 1.282 0 1.75-1.156 1.75-1.359zm-.687-1.39h-2.5c.062-1.563.953-1.829 1.312-1.829 1.079 0 1.188 1.407 1.188 1.828zm4.818-1.36c0-.344-.328-.64-.781-.64-.766 0-1.14.703-1.297 1.156v-1.157l-1.453.11v.328c.734 0 .812.078.812.594v2.812c0 .469-.109.469-.812.469v.328l1.187-.031c.422 0 .922 0 1.344.031v-.328h-.219c-.78 0-.796-.11-.796-.484v-1.625c0-1.032.437-1.97 1.234-1.97h.11a.476.476 0 0 0-.235.423c0 .28.219.453.453.453.188 0 .453-.14.453-.469zm3.772 2.703v-.61h-.265v.579c0 .781-.313 1.187-.703 1.187-.703 0-.703-.968-.703-1.14v-2.922h1.5v-.328h-1.5v-1.922h-.266c0 .86-.313 1.984-1.344 2.016v.234h.89v2.906c0 1.281.97 1.406 1.36 1.406.735 0 1.031-.734 1.031-1.406zm6.691 1.297v-.328c-.688 0-.735-.047-.735-.453v-3.86l-1.468.11v.328c.687 0 .78.062.78.578v2.828c0 .469-.124.469-.827.469v.328l1.156-.031c.375 0 .734.015 1.094.031zm-.578-6.344a.57.57 0 0 0-.563-.562.57.57 0 0 0-.562.562c0 .282.25.563.562.563a.56.56 0 0 0 .563-.563zm4.387 5.047v-.61h-.265v.579c0 .781-.313 1.187-.703 1.187-.703 0-.703-.968-.703-1.14v-2.922h1.5v-.328h-1.5v-1.922h-.266c0 .86-.313 1.984-1.344 2.016v.234h.89v2.906c0 1.281.97 1.406 1.36 1.406.735 0 1.031-.734 1.031-1.406zm6.691 1.297v-.328c-.688 0-.735-.047-.735-.453v-3.86l-1.468.11v.328c.687 0 .78.062.78.578v2.828c0 .469-.124.469-.827.469v.328l1.156-.031c.375 0 .734.015 1.094.031zm-.578-6.344a.57.57 0 0 0-.563-.562.57.57 0 0 0-.562.562c0 .282.25.563.562.563a.56.56 0 0 0 .563-.563zm6.528 6.344v-.328c-.547 0-.812 0-.828-.313v-2c0-.906 0-1.234-.328-1.609-.14-.187-.485-.39-1.094-.39-.766 0-1.266.453-1.562 1.109v-1.11l-1.47.11v.328c.735 0 .813.078.813.594v2.812c0 .469-.11.469-.812.469v.328l1.172-.031 1.187.031v-.328c-.703 0-.828 0-.828-.469v-1.937c0-1.094.75-1.672 1.422-1.672.656 0 .781.562.781 1.156v2.453c0 .469-.125.469-.828.469v.328l1.188-.031zm3.414-1.297v-.61h-.266v.579c0 .781-.312 1.187-.703 1.187-.703 0-.703-.968-.703-1.14v-2.922h1.5v-.328h-1.5v-1.922h-.266c0 .86-.312 1.984-1.343 2.016v.234h.89v2.906c0 1.281.969 1.406 1.36 1.406.734 0 1.03-.734 1.03-1.406zm5.553-.953c0-1.344-1.062-2.453-2.328-2.453-1.312 0-2.328 1.14-2.328 2.453 0 1.36 1.094 2.36 2.312 2.36a2.334 2.334 0 0 0 2.344-2.36zm-.875-.078c0 .375 0 .937-.234 1.406-.235.469-.688.781-1.219.781-.453 0-.906-.234-1.203-.703-.25-.468-.25-1.11-.25-1.484 0-.406 0-.984.25-1.438a1.386 1.386 0 0 1 1.187-.703c.47 0 .922.235 1.188.672.281.453.281 1.063.281 1.469zm12.104-.126c.016-.046.047-.124.047-.14 0-.015 0-.11-.125-.11-.093 0-.109.063-.14.126-.672 1.547-1.063 2.25-2.86 2.25h-1.53c-.157 0-.173 0-.235-.016-.11 0-.14-.015-.14-.093 0-.032 0-.063.062-.25l.703-2.86h1.047c.89 0 .89.219.89.485 0 .062 0 .203-.078.515-.016.047-.031.078-.031.11 0 .046.047.109.14.109.079 0 .11-.047.157-.203l.593-2.453a.123.123 0 0 0-.125-.125c-.093 0-.109.062-.14.203-.219.797-.406 1.031-1.375 1.031h-.985l.625-2.531c.094-.36.11-.406.563-.406h1.484c1.282 0 1.594.296 1.594 1.156 0 .265 0 .281-.047.562v.188c0 .062.031.125.125.125.11 0 .125-.063.14-.266l.22-1.812c.03-.282-.032-.282-.282-.282H98.29c-.203 0-.313 0-.313.204 0 .125.094.125.297.125.39 0 .688 0 .688.187 0 .047 0 .063-.063.25l-1.375 5.563c-.11.406-.14.484-.969.484-.171 0-.28 0-.28.203 0 .125.093.125.28.125h5.454c.25 0 .25-.016.328-.172zm3.705-.19c.046-.203.062-.219.218-.234h.407c.437 0 .609 0 .78.047.313.093.329.297.329.547 0 .109 0 .203-.047.562l-.016.078c0 .078.047.11.126.11.109 0 .109-.063.124-.172l.188-1.328c0-.094-.078-.094-.203-.094h-4.281c-.172 0-.188 0-.235.14l-.453 1.235c0 .031-.031.094-.031.125s.016.094.125.094c.094 0 .094-.032.14-.172.407-1.11.641-1.172 1.704-1.172h.28c.22 0 .22 0 .22.062 0 0 0 .047-.032.141l-.921 3.672c-.063.25-.079.328-.813.328-.25 0-.313 0-.313.156 0 .016.016.094.126.094.187 0 .406-.016.593-.016.203 0 .406-.015.594-.015.203 0 .438 0 .64.015.188 0 .391.016.579.016.062 0 .156 0 .156-.156 0-.094-.063-.094-.281-.094-.125 0-.266-.016-.406-.016-.235-.015-.25-.047-.25-.125 0-.062 0-.062.03-.172zm0 0"/><path fill="none" stroke="#000" stroke-miterlimit="10" stroke-width=".399" d="M235.586 401.898h120.387v-30.78H235.586Zm0 0"/><path d="M253.649 380.981c0-.062 0-.187-.141-.187-.11 0-.11.093-.125.172-.063.75-.422.937-.688.937-.515 0-.609-.531-.75-1.516l-.14-.843c-.188-.672-.703-1.016-1.281-1.203 1.03-.266 1.843-.907 1.843-1.72 0-1.015-1.203-1.89-2.734-1.89h-3.297v.328h.25c.797 0 .828.11.828.485v5.547c0 .375-.031.484-.828.484h-.25v.328c.375-.031 1.11-.031 1.531-.031.407 0 1.157 0 1.532.031v-.328h-.25c-.813 0-.829-.11-.829-.484v-2.657h1.204c.171 0 .609 0 .968.344.407.39.407.703.407 1.406 0 .688 0 1.11.421 1.516.438.375 1.016.437 1.329.437.812 0 1-.859 1-1.156zm-2.36-4.36c0 .72-.25 1.579-1.812 1.579h-1.157v-2.719c0-.25 0-.375.22-.406.109-.016.421-.016.624-.016.938 0 2.125.047 2.125 1.563zm6.759 4.032c0-.11-.078-.125-.14-.125-.094 0-.11.063-.14.14-.36 1.094-1.313 1.094-1.407 1.094-.531 0-.953-.328-1.188-.703-.312-.515-.312-1.203-.312-1.578h2.922c.234 0 .265 0 .265-.219 0-1.046-.562-2.062-1.875-2.062-1.218 0-2.187 1.078-2.187 2.39 0 1.407 1.094 2.422 2.312 2.422 1.282 0 1.75-1.156 1.75-1.359zm-.687-1.39h-2.5c.062-1.563.953-1.829 1.312-1.829 1.078 0 1.188 1.407 1.188 1.828zm3.193 3.171v-5.172l-1.594.11v.328c.813 0 .907.078.907.594v4.156c0 .469-.094 1.375-.766 1.375-.062 0-.297 0-.578-.14a.464.464 0 0 0 .375-.47.468.468 0 0 0-.484-.484.468.468 0 0 0-.485.485c0 .546.594.843 1.188.843.78 0 1.437-.672 1.437-1.625zm0-6.875c0-.281-.234-.562-.547-.562a.573.573 0 0 0-.578.562c0 .282.25.563.563.563a.559.559 0 0 0 .562-.563zm5.369 5.094c0-.11-.078-.125-.14-.125-.094 0-.11.063-.14.14-.36 1.094-1.313 1.094-1.407 1.094-.531 0-.953-.328-1.188-.703-.312-.515-.312-1.203-.312-1.578h2.922c.234 0 .265 0 .265-.219 0-1.046-.562-2.062-1.875-2.062-1.218 0-2.187 1.078-2.187 2.39 0 1.407 1.094 2.422 2.312 2.422 1.282 0 1.75-1.156 1.75-1.359zm-.687-1.39h-2.5c.062-1.563.953-1.829 1.312-1.829 1.079 0 1.188 1.407 1.188 1.828zm5.349 1.39c0-.11-.109-.11-.14-.11-.094 0-.11.048-.14.11-.298.984-.985 1.11-1.376 1.11-.547 0-1.469-.454-1.469-2.141 0-1.719.86-2.156 1.407-2.156.093 0 .765 0 1.125.39-.422.031-.485.344-.485.485 0 .265.188.468.485.468.265 0 .468-.172.468-.484 0-.719-.796-1.125-1.593-1.125-1.313 0-2.282 1.14-2.282 2.437 0 1.344 1.032 2.375 2.25 2.375 1.407 0 1.75-1.25 1.75-1.359zm3.787-.047v-.61h-.265v.579c0 .781-.313 1.187-.703 1.187-.704 0-.704-.968-.704-1.14V377.7h1.5v-.328h-1.5v-1.922h-.265c0 .86-.313 1.984-1.344 2.016v.234h.89v2.906c0 1.281.97 1.406 1.36 1.406.734 0 1.031-.734 1.031-1.406zm11.538-1.156c.015-.047.046-.125.046-.14 0-.016 0-.11-.125-.11-.093 0-.109.062-.14.125-.672 1.547-1.063 2.25-2.86 2.25h-1.53c-.157 0-.173 0-.235-.016-.11 0-.14-.015-.14-.093 0-.032 0-.063.062-.25l.703-2.86h1.047c.89 0 .89.219.89.485 0 .062 0 .203-.078.515-.016.047-.031.078-.031.11 0 .046.047.109.14.109.079 0 .11-.047.157-.203l.593-2.453a.123.123 0 0 0-.125-.125c-.093 0-.109.062-.14.203-.219.797-.406 1.031-1.375 1.031h-.985l.625-2.531c.094-.36.11-.406.563-.406h1.484c1.282 0 1.594.296 1.594 1.156 0 .265 0 .281-.047.562v.188c0 .062.031.125.125.125.11 0 .125-.063.14-.266l.22-1.812c.03-.282-.032-.282-.282-.282h-5.312c-.203 0-.313 0-.313.204 0 .125.094.125.297.125.39 0 .688 0 .688.187 0 .047 0 .063-.063.25l-1.375 5.563c-.11.406-.14.484-.969.484-.171 0-.28 0-.28.203 0 .125.093.125.28.125h5.454c.25 0 .25-.016.328-.172zm2.283-.597c0-.016.031-.11.031-.11 0-.046-.031-.109-.125-.109-.14 0-.719.063-.89.078-.048 0-.141.016-.141.157 0 .093.094.093.172.093.343 0 .343.063.343.11s-.015.094-.03.156l-.876 3.438c-.016.078-.016.156-.016.218 0 .453.391.656.72.656.171 0 .39-.046.562-.359.156-.265.25-.672.25-.703 0-.094-.094-.094-.11-.094-.109 0-.125.047-.14.172-.094.344-.235.797-.531.797-.188 0-.235-.172-.235-.344a.89.89 0 0 1 .047-.281Zm9.667 2.113v-.579h-.266v.579c0 .609-.266.671-.375.671-.36 0-.391-.468-.391-.515v-2.11c0-.437 0-.843-.375-1.234A2.054 2.054 0 0 0 295 377.2c-.86 0-1.578.5-1.578 1.187 0 .313.203.485.484.485.297 0 .484-.203.484-.469 0-.14-.062-.484-.53-.484.28-.375.796-.485 1.124-.485.516 0 1.11.407 1.11 1.344v.39c-.532.032-1.266.063-1.922.376-.797.359-1.047.906-1.047 1.359 0 .86 1.015 1.11 1.672 1.11.687 0 1.172-.407 1.375-.907.047.422.328.86.812.86.235 0 .875-.141.875-1zm-1.766-.532c0 1-.75 1.36-1.22 1.36-.515 0-.952-.375-.952-.907 0-.562.437-1.437 2.172-1.5zm7.562 1.469v-.328c-.547 0-.812 0-.828-.313v-2c0-.906 0-1.234-.328-1.609-.14-.187-.485-.39-1.094-.39-.766 0-1.266.453-1.562 1.109v-1.11l-1.47.11v.328c.735 0 .813.078.813.594v2.812c0 .469-.11.469-.812.469v.328l1.172-.031 1.187.031v-.328c-.703 0-.828 0-.828-.469v-1.937c0-1.094.75-1.672 1.422-1.672.656 0 .781.562.781 1.156v2.453c0 .469-.125.469-.828.469v.328l1.188-.031zm5.744 0v-.328c-.734 0-.812-.078-.812-.578v-6.375l-1.516.11v.327c.734 0 .813.078.813.578v2.282a1.62 1.62 0 0 0-1.313-.657c-1.25 0-2.344 1.032-2.344 2.391 0 1.328 1.032 2.36 2.22 2.36.671 0 1.155-.344 1.405-.688v.687zm-1.547-1.234c0 .187 0 .203-.109.39-.313.5-.781.735-1.234.735-.485 0-.86-.282-1.11-.672-.265-.438-.297-1.031-.297-1.469 0-.39.016-1.016.313-1.484.234-.328.625-.672 1.187-.672.375 0 .813.156 1.141.625.11.187.11.203.11.39zm9.179-2.766c0-.344-.329-.64-.782-.64-.765 0-1.14.703-1.297 1.156v-1.157l-1.453.11v.328c.735 0 .813.078.813.594v2.812c0 .469-.11.469-.813.469v.328l1.188-.031c.422 0 .922 0 1.344.031v-.328h-.22c-.78 0-.796-.11-.796-.484v-1.625c0-1.032.437-1.97 1.234-1.97h.11a.476.476 0 0 0-.235.423c0 .28.22.453.453.453.188 0 .454-.14.454-.469zm4.647 2.75c0-.11-.078-.125-.14-.125-.095 0-.11.063-.141.14-.36 1.094-1.313 1.094-1.407 1.094-.53 0-.953-.328-1.187-.703-.313-.515-.313-1.203-.313-1.578h2.922c.235 0 .266 0 .266-.219 0-1.046-.563-2.062-1.875-2.062-1.219 0-2.188 1.078-2.188 2.39 0 1.407 1.094 2.422 2.313 2.422 1.281 0 1.75-1.156 1.75-1.359zm-.688-1.39h-2.5c.063-1.563.953-1.829 1.313-1.829 1.078 0 1.187 1.407 1.187 1.828zm9.522 2.64v-.328c-.547 0-.797 0-.813-.313v-2c0-.906 0-1.234-.328-1.609-.14-.187-.484-.39-1.094-.39-.89 0-1.343.624-1.53 1.03-.141-.921-.923-1.03-1.391-1.03-.766 0-1.266.453-1.563 1.109v-1.11l-1.469.11v.328c.735 0 .813.078.813.594v2.812c0 .469-.11.469-.813.469v.328l1.172-.031 1.188.031v-.328c-.703 0-.828 0-.828-.469v-1.937c0-1.094.75-1.672 1.421-1.672.657 0 .782.562.782 1.156v2.453c0 .469-.125.469-.828.469v.328l1.187-.031 1.188.031v-.328c-.72 0-.829 0-.829-.469v-1.937c0-1.094.75-1.672 1.422-1.672.657 0 .782.562.782 1.156v2.453c0 .469-.125.469-.829.469v.328l1.188-.031zm5.168-2.25c0-1.344-1.062-2.453-2.328-2.453-1.313 0-2.328 1.14-2.328 2.453 0 1.36 1.094 2.36 2.312 2.36a2.334 2.334 0 0 0 2.344-2.36zm-.875-.078c0 .375 0 .937-.234 1.406-.235.469-.688.781-1.219.781-.453 0-.906-.234-1.203-.703-.25-.468-.25-1.11-.25-1.484 0-.406 0-.984.25-1.438a1.386 1.386 0 0 1 1.187-.703c.47 0 .922.235 1.188.672.281.453.281 1.063.281 1.469zm6.217-1.875v-.328c-.235.031-.547.031-.782.031l-.906-.031v.328c.375.016.5.25.5.453 0 .094-.031.14-.062.25l-1.079 2.688-1.171-2.938c-.063-.14-.063-.172-.063-.172 0-.281.406-.281.594-.281v-.328l-1.14.031c-.282 0-.704 0-1.016-.031v.328c.656 0 .703.062.843.39l1.5 3.735c.063.14.094.187.22.187.14 0 .187-.093.233-.187l1.375-3.422c.094-.234.266-.687.954-.703zm4.281 2.953c0-.11-.078-.125-.14-.125-.095 0-.11.063-.141.14-.36 1.094-1.313 1.094-1.407 1.094-.53 0-.953-.328-1.187-.703-.313-.515-.313-1.203-.313-1.578h2.922c.235 0 .266 0 .266-.219 0-1.046-.563-2.062-1.875-2.062-1.219 0-2.188 1.078-2.188 2.39 0 1.407 1.094 2.422 2.313 2.422 1.281 0 1.75-1.156 1.75-1.359zm-.688-1.39h-2.5c.063-1.563.953-1.829 1.313-1.829 1.078 0 1.187 1.407 1.187 1.828zm-85.318 19.02v-.328c-.688 0-.735-.047-.735-.453v-3.86l-1.468.11v.328c.687 0 .78.062.78.578v2.828c0 .469-.124.469-.827.469v.328l1.156-.031c.375 0 .734.015 1.094.031zm-.578-6.344a.57.57 0 0 0-.563-.562.57.57 0 0 0-.562.562c0 .281.25.563.562.563a.56.56 0 0 0 .563-.563zm4.387 5.047v-.61h-.265v.579c0 .781-.313 1.187-.703 1.187-.704 0-.704-.968-.704-1.14v-2.922h1.5v-.328h-1.5v-1.922h-.265c0 .86-.313 1.984-1.344 2.015v.235h.89v2.906c0 1.281.97 1.406 1.36 1.406.734 0 1.031-.734 1.031-1.406zm7.847-5.375c0-.39-.39-.734-.953-.734-.734 0-1.625.562-1.625 1.672v1.203h-.828v.328h.828v3.406c0 .469-.11.469-.813.469v.328l1.188-.031c.422 0 .922 0 1.344.031v-.328h-.22c-.78 0-.796-.11-.796-.485v-3.39h1.188v-.328h-1.22v-1.219c0-.922.5-1.422.954-1.422.031 0 .203 0 .36.078a.452.452 0 0 0-.329.438c0 .234.172.453.453.453.313 0 .469-.219.469-.469zm3.291 2.672c0-.344-.328-.64-.781-.64-.766 0-1.14.702-1.297 1.156v-1.157l-1.453.11v.328c.734 0 .812.078.812.594v2.812c0 .469-.109.469-.812.469v.328l1.187-.031c.422 0 .922 0 1.344.031v-.328h-.219c-.78 0-.797-.11-.797-.485v-1.625c0-1.03.438-1.968 1.235-1.968h.11a.476.476 0 0 0-.235.422c0 .28.219.453.453.453.187 0 .453-.14.453-.469zm5.241 1.75c0-1.344-1.062-2.453-2.328-2.453-1.313 0-2.328 1.14-2.328 2.453 0 1.36 1.094 2.36 2.312 2.36a2.334 2.334 0 0 0 2.344-2.36zm-.875-.078c0 .375 0 .937-.234 1.406-.235.469-.688.781-1.219.781-.453 0-.906-.234-1.203-.703-.25-.469-.25-1.11-.25-1.484 0-.406 0-.985.25-1.438a1.386 1.386 0 0 1 1.187-.703c.47 0 .922.235 1.188.672.281.453.281 1.063.281 1.469zm9.703 2.328v-.328c-.547 0-.797 0-.812-.313v-2c0-.906 0-1.234-.328-1.609-.141-.188-.485-.39-1.094-.39-.89 0-1.344.624-1.531 1.03-.141-.921-.922-1.03-1.391-1.03-.766 0-1.266.452-1.563 1.109v-1.11l-1.468.11v.328c.734 0 .812.078.812.594v2.812c0 .469-.11.469-.812.469v.328l1.172-.031 1.187.031v-.328c-.703 0-.828 0-.828-.469v-1.937c0-1.094.75-1.672 1.422-1.672.656 0 .781.562.781 1.156v2.453c0 .469-.125.469-.828.469v.328l1.187-.031 1.188.031v-.328c-.719 0-.828 0-.828-.469v-1.937c0-1.094.75-1.672 1.422-1.672.656 0 .781.562.781 1.156v2.453c0 .469-.125.469-.828.469v.328l1.187-.031zm7.196-1.297v-.61h-.265v.579c0 .781-.313 1.187-.703 1.187-.703 0-.703-.968-.703-1.14v-2.922h1.5v-.328h-1.5v-1.922h-.266c0 .86-.313 1.984-1.344 2.015v.235h.89v2.906c0 1.281.97 1.406 1.36 1.406.735 0 1.031-.734 1.031-1.406zm6.226 1.297v-.328c-.547 0-.813 0-.829-.313v-2c0-.906 0-1.234-.328-1.609-.14-.188-.484-.39-1.094-.39-.89 0-1.343.624-1.515 1h-.016v-3.641l-1.5.11v.327c.735 0 .813.078.813.578v5.47c0 .468-.11.468-.813.468v.328l1.172-.031 1.188.031v-.328c-.704 0-.829 0-.829-.469v-1.937c0-1.094.75-1.672 1.422-1.672.657 0 .782.562.782 1.156v2.453c0 .469-.125.469-.829.469v.328l1.188-.031zm4.572-1.25c0-.11-.078-.125-.14-.125-.095 0-.11.062-.141.14-.36 1.094-1.313 1.094-1.407 1.094-.53 0-.953-.328-1.187-.703-.313-.515-.313-1.203-.313-1.578h2.922c.235 0 .266 0 .266-.219 0-1.047-.563-2.062-1.875-2.062-1.219 0-2.188 1.078-2.188 2.39 0 1.407 1.094 2.422 2.313 2.422 1.281 0 1.75-1.156 1.75-1.359zm-.688-1.39h-2.5c.063-1.563.953-1.829 1.313-1.829 1.078 0 1.187 1.406 1.187 1.828zm8.268 1.297c0-.563-.312-.876-.437-1-.344-.329-.766-.423-1.203-.5-.594-.126-1.297-.25-1.297-.86 0-.375.281-.797 1.187-.797 1.156 0 1.203.937 1.219 1.266.016.093.125.093.125.093.14 0 .14-.047.14-.25v-1.062c0-.172 0-.25-.109-.25-.062 0-.078 0-.219.125a.895.895 0 0 1-.171.172c-.407-.297-.829-.297-.985-.297-1.281 0-1.687.703-1.687 1.297 0 .36.172.656.453.89.344.266.625.328 1.39.485.235.031 1.094.203 1.094.953 0 .547-.375.969-1.187.969-.89 0-1.266-.61-1.469-1.5-.031-.141-.031-.172-.14-.172-.141 0-.141.062-.141.265v1.375c0 .188 0 .25.125.25.047 0 .062 0 .25-.203.031-.015.031-.047.218-.25.454.453.938.453 1.157.453 1.203 0 1.687-.703 1.687-1.453zm4.715.093c0-.11-.078-.125-.14-.125-.094 0-.11.062-.14.14-.36 1.094-1.313 1.094-1.407 1.094-.531 0-.953-.328-1.188-.703-.312-.515-.312-1.203-.312-1.578h2.922c.234 0 .265 0 .265-.219 0-1.047-.562-2.062-1.875-2.062-1.218 0-2.187 1.078-2.187 2.39 0 1.407 1.094 2.422 2.312 2.422 1.282 0 1.75-1.156 1.75-1.359zm-.687-1.39h-2.5c.062-1.563.953-1.829 1.312-1.829 1.078 0 1.188 1.406 1.188 1.828zm4.474 1.343v-.61h-.265v.579c0 .781-.313 1.187-.703 1.187-.703 0-.703-.968-.703-1.14v-2.922h1.5v-.328h-1.5v-1.922h-.266c0 .86-.313 1.984-1.344 2.015v.235h.89v2.906c0 1.281.97 1.406 1.36 1.406.735 0 1.031-.734 1.031-1.406zm11.548-1.156c.015-.047.046-.125.046-.14 0-.016 0-.11-.125-.11-.093 0-.109.062-.14.125-.672 1.547-1.063 2.25-2.86 2.25h-1.53c-.157 0-.173 0-.235-.016-.11 0-.14-.015-.14-.094 0-.03 0-.062.062-.25l.703-2.859h1.047c.89 0 .89.219.89.484 0 .063 0 .204-.078.516-.015.047-.031.078-.031.11 0 .046.047.109.14.109.079 0 .11-.047.157-.203l.594-2.453a.123.123 0 0 0-.125-.125c-.094 0-.11.062-.141.203-.219.797-.406 1.031-1.375 1.031h-.985l.625-2.531c.094-.36.11-.407.563-.407h1.484c1.282 0 1.594.297 1.594 1.157 0 .265 0 .281-.047.562v.188c0 .062.031.125.125.125.11 0 .125-.063.14-.266l.22-1.812c.03-.282-.032-.282-.282-.282h-5.312c-.203 0-.313 0-.313.203 0 .125.094.125.297.125.39 0 .688 0 .688.188 0 .047 0 .062-.063.25l-1.375 5.562c-.11.407-.14.485-.969.485-.171 0-.28 0-.28.203 0 .125.093.125.28.125h5.454c.25 0 .25-.016.328-.172zm0 0"/><g clip-path="url(#a)"><path fill="none" stroke="#000" stroke-miterlimit="10" stroke-width=".399" d="M195.184 435.613h-17.856a3.987 3.987 0 0 0-3.984 3.989v6.43a3.984 3.984 0 0 0 3.984 3.984h17.856a3.984 3.984 0 0 0 3.988-3.985v-6.43a3.988 3.988 0 0 0-3.988-3.988Zm0 0"/></g><path d="M183.688 443.699h-.266c-.25 1.61-.5 2.375-2.297 2.375h-1.406c-.484 0-.516-.078-.516-.422v-2.797h.953c1.016 0 1.125.328 1.125 1.219h.266v-2.781h-.266c0 .906-.109 1.234-1.125 1.234h-.953v-2.516c0-.343.032-.421.516-.421h1.36c1.609 0 1.89.578 2.062 2.03h.25l-.281-2.359h-5.922v.329h.25c.812 0 .828.109.828.484v5.516c0 .375-.016.484-.828.484h-.25v.328h6.062zm5.932 2.703v-.328c-.547 0-.813 0-.829-.313v-2c0-.906 0-1.234-.328-1.609-.14-.187-.484-.39-1.093-.39-.766 0-1.266.453-1.563 1.109v-1.11l-1.469.11v.328c.735 0 .813.078.813.594v2.812c0 .469-.11.469-.813.469v.328l1.172-.031 1.188.031v-.328c-.703 0-.828 0-.828-.469v-1.937c0-1.094.75-1.672 1.421-1.672.657 0 .782.562.782 1.156v2.453c0 .469-.125.469-.828.469v.328l1.187-.031zm5.744 0v-.328c-.735 0-.813-.078-.813-.578v-6.375l-1.515.11v.327c.734 0 .812.078.812.578v2.282a1.62 1.62 0 0 0-1.312-.657c-1.25 0-2.344 1.032-2.344 2.391 0 1.328 1.031 2.36 2.219 2.36.672 0 1.156-.344 1.406-.688v.687zm-1.547-1.234c0 .187 0 .203-.11.39-.312.5-.78.735-1.234.735-.484 0-.86-.282-1.11-.672-.265-.438-.296-1.031-.296-1.469 0-.39.016-1.016.312-1.484.235-.328.625-.672 1.188-.672.375 0 .812.156 1.14.625.11.187.11.203.11.39zm0 0"/><path fill="none" stroke="#000" stroke-linecap="round" stroke-miterlimit="10" stroke-width=".399" d="M186.258 20.703v12.18"/><path d="m186.258 34.875 1.594-3.188-1.594 1.196-1.594-1.196"/><path fill="none" stroke="#000" stroke-linecap="round" stroke-miterlimit="10" stroke-width=".399" d="M186.258 69.152v12.184"/><path d="m186.258 83.328 1.594-3.191-1.594 1.199-1.594-1.2"/><path fill="none" stroke="#000" stroke-linecap="round" stroke-miterlimit="10" stroke-width=".399" d="M186.258 116.672v12.18"/><path d="m186.258 130.844 1.594-3.188-1.594 1.196-1.594-1.196"/><path fill="none" stroke="#000" stroke-linecap="round" stroke-miterlimit="10" stroke-width=".399" d="M186.258 188.867v12.184"/><path d="m186.258 203.043 1.594-3.188-1.594 1.196-1.594-1.196m-18.537-7.298c0-.39-.39-.734-.953-.734-.734 0-1.625.562-1.625 1.672v1.203h-.828v.328h.828v3.406c0 .469-.11.469-.813.469v.328l1.188-.031c.422 0 .922 0 1.344.031v-.328h-.22c-.78 0-.796-.11-.796-.484v-3.391h1.188v-.328h-1.22v-1.219c0-.922.5-1.422.954-1.422.031 0 .203 0 .36.078a.452.452 0 0 0-.329.438c0 .234.172.453.453.453.313 0 .469-.219.469-.469zm4.541 5.735v-.579h-.266v.579c0 .609-.265.671-.374.671-.36 0-.391-.468-.391-.515v-2.11c0-.437 0-.843-.375-1.234a2.054 2.054 0 0 0-1.453-.578c-.86 0-1.578.5-1.578 1.187 0 .313.203.485.484.485.297 0 .484-.203.484-.469 0-.14-.062-.484-.53-.484.28-.375.796-.485 1.124-.485.516 0 1.11.407 1.11 1.344v.39c-.532.032-1.266.063-1.922.376-.797.359-1.047.906-1.047 1.359 0 .86 1.015 1.11 1.672 1.11.687 0 1.172-.407 1.375-.907.047.422.328.86.812.86.234 0 .875-.141.875-1zm-1.766-.532c0 1-.75 1.36-1.218 1.36-.516 0-.953-.375-.953-.907 0-.562.437-1.437 2.172-1.5zm4.61 1.469v-.328c-.703 0-.813 0-.813-.469v-6.484l-1.515.11v.327c.734 0 .828.078.828.578v5.47c0 .468-.125.468-.828.468v.328l1.172-.031zm4.028-1.344c0-.562-.312-.875-.437-1-.344-.328-.766-.422-1.203-.5-.594-.125-1.297-.25-1.297-.86 0-.374.281-.796 1.187-.796 1.156 0 1.203.938 1.219 1.266.016.093.125.093.125.093.14 0 .14-.046.14-.25v-1.062c0-.172 0-.25-.109-.25-.062 0-.078 0-.219.125a.895.895 0 0 1-.171.172c-.407-.297-.829-.297-.985-.297-1.281 0-1.687.703-1.687 1.297 0 .36.172.656.453.89.344.266.625.329 1.39.485.235.031 1.094.203 1.094.953 0 .547-.375.969-1.187.969-.89 0-1.266-.61-1.469-1.5-.031-.141-.031-.172-.14-.172-.141 0-.141.062-.141.265v1.375c0 .188 0 .25.125.25.047 0 .062 0 .25-.203.031-.015.031-.047.218-.25.454.453.938.453 1.157.453 1.203 0 1.687-.703 1.687-1.453zm4.715.094c0-.11-.078-.125-.14-.125-.094 0-.11.063-.14.14-.36 1.094-1.313 1.094-1.407 1.094-.531 0-.953-.328-1.188-.703-.312-.515-.312-1.203-.312-1.578h2.922c.234 0 .265 0 .265-.219 0-1.046-.562-2.062-1.875-2.062-1.218 0-2.187 1.078-2.187 2.39 0 1.407 1.094 2.422 2.312 2.422 1.282 0 1.75-1.156 1.75-1.359zm-.687-1.39h-2.5c.062-1.563.953-1.829 1.312-1.829 1.078 0 1.188 1.407 1.188 1.828zm0 0"/><path fill="none" stroke="#000" stroke-linecap="round" stroke-miterlimit="10" stroke-width=".399" d="M272.898 159.855h113.387v282.961H201.363"/><path d="m199.371 442.816 3.188 1.594-1.196-1.594 1.196-1.593m77.523-286.478v-.61h-.265v.579c0 .781-.313 1.187-.703 1.187-.704 0-.704-.968-.704-1.14v-2.922h1.5v-.328h-1.5v-1.922h-.265c0 .86-.313 1.984-1.344 2.016v.234h.89v2.906c0 1.281.97 1.406 1.36 1.406.734 0 1.031-.734 1.031-1.406zm4.428-2.703c0-.344-.327-.64-.78-.64-.766 0-1.141.703-1.298 1.156V151.4l-1.453.11v.328c.735 0 .813.078.813.594v2.812c0 .469-.11.469-.813.469v.328l1.188-.031c.422 0 .922 0 1.344.031v-.328h-.22c-.78 0-.796-.11-.796-.484v-1.625c0-1.032.438-1.97 1.234-1.97h.11a.476.476 0 0 0-.235.423c0 .28.22.453.454.453.187 0 .453-.14.453-.469zm5.913 4v-.328c-.75 0-.828-.078-.828-.578V151.4l-1.547.11v.328c.735 0 .829.078.829.594v1.859c0 .922-.516 1.64-1.282 1.64-.875 0-.922-.5-.922-1.046V151.4l-1.53.11v.328c.812 0 .812.031.812.969v1.578c0 .812 0 1.765 1.593 1.765.594 0 1.047-.28 1.36-.937v.937zm4.573-1.25c0-.11-.078-.125-.14-.125-.094 0-.11.063-.141.14-.36 1.094-1.313 1.094-1.407 1.094-.53 0-.953-.328-1.187-.703-.313-.515-.313-1.203-.313-1.578h2.922c.235 0 .266 0 .266-.219 0-1.046-.563-2.062-1.875-2.062-1.219 0-2.188 1.078-2.188 2.39 0 1.407 1.094 2.422 2.313 2.422 1.281 0 1.75-1.156 1.75-1.359zm-.688-1.39h-2.5c.063-1.563.954-1.829 1.313-1.829 1.078 0 1.187 1.407 1.187 1.828zm0 0"/><path fill="none" stroke="#000" stroke-linecap="round" stroke-miterlimit="10" stroke-width=".399" d="M186.258 250.719v12.183"/><path d="m186.258 264.895 1.594-3.188-1.594 1.195-1.594-1.195"/><path fill="none" stroke="#000" stroke-linecap="round" stroke-miterlimit="10" stroke-width=".399" d="M186.258 336.203v14.172H76.734v18.55"/><path d="m76.734 370.918 1.594-3.188-1.594 1.196-1.593-1.196m-18.538-7.299c0-.39-.39-.734-.953-.734-.734 0-1.625.562-1.625 1.672v1.203h-.828v.328h.828v3.406c0 .469-.11.469-.813.469v.328l1.188-.031c.422 0 .922 0 1.344.031v-.328h-.22c-.78 0-.796-.11-.796-.484V362.9h1.188v-.328h-1.22v-1.219c0-.922.5-1.422.954-1.422.031 0 .203 0 .36.078a.452.452 0 0 0-.329.438c0 .234.172.453.453.453.313 0 .469-.219.469-.469zm4.541 5.735v-.579h-.265v.579c0 .609-.266.671-.375.671-.36 0-.391-.468-.391-.515v-2.11c0-.437 0-.843-.375-1.234a2.054 2.054 0 0 0-1.453-.578c-.86 0-1.578.5-1.578 1.187 0 .313.203.485.484.485.297 0 .484-.203.484-.469 0-.14-.062-.484-.53-.484.28-.375.796-.485 1.124-.485.516 0 1.11.406 1.11 1.344v.39c-.532.032-1.266.063-1.922.376-.797.359-1.047.906-1.047 1.359 0 .86 1.015 1.11 1.672 1.11.687 0 1.172-.407 1.375-.907.047.422.328.86.812.86.235 0 .875-.141.875-1zm-1.765-.532c0 1-.75 1.36-1.22 1.36-.515 0-.952-.375-.952-.907 0-.562.437-1.437 2.172-1.5zm4.609 1.469v-.328c-.703 0-.813 0-.813-.469v-6.484l-1.515.11v.327c.734 0 .828.078.828.578v5.47c0 .468-.125.468-.828.468v.328l1.172-.031zm4.028-1.343c0-.563-.312-.876-.437-1-.344-.329-.766-.423-1.203-.5-.594-.126-1.297-.25-1.297-.86 0-.375.281-.797 1.187-.797 1.157 0 1.203.938 1.219 1.266.016.093.125.093.125.093.14 0 .14-.046.14-.25v-1.062c0-.172 0-.25-.109-.25-.062 0-.078 0-.218.125a.895.895 0 0 1-.172.172c-.407-.297-.828-.297-.985-.297-1.281 0-1.687.703-1.687 1.297 0 .36.172.656.453.89.344.266.625.329 1.39.485.235.031 1.094.203 1.094.953 0 .547-.375.969-1.187.969-.89 0-1.266-.61-1.469-1.5-.031-.141-.031-.172-.14-.172-.141 0-.141.062-.141.265v1.375c0 .188 0 .25.125.25.047 0 .062 0 .25-.203.031-.015.031-.047.219-.25.453.453.937.453 1.156.453 1.203 0 1.687-.703 1.687-1.453zm4.715.093c0-.11-.078-.125-.14-.125-.094 0-.11.063-.14.14-.36 1.094-1.313 1.094-1.407 1.094-.531 0-.953-.328-1.188-.703-.312-.515-.312-1.203-.312-1.578h2.922c.234 0 .265 0 .265-.219 0-1.046-.562-2.062-1.875-2.062-1.218 0-2.187 1.078-2.187 2.39 0 1.407 1.094 2.422 2.312 2.422 1.282 0 1.75-1.156 1.75-1.359zm-.687-1.39h-2.5c.062-1.563.953-1.829 1.312-1.829 1.079 0 1.188 1.406 1.188 1.828zm0 0"/><path fill="none" stroke="#000" stroke-linecap="round" stroke-miterlimit="10" stroke-width=".399" d="M186.258 336.203v14.172H295.78v18.55"/><path d="m295.781 370.918 1.594-3.188-1.594 1.196-1.594-1.196m8.777-1.924v-.61h-.265v.579c0 .781-.313 1.187-.703 1.187-.703 0-.703-.968-.703-1.14V362.9h1.5v-.328h-1.5v-1.922h-.266c0 .86-.313 1.984-1.344 2.016v.234h.89v2.906c0 1.281.97 1.406 1.36 1.406.735 0 1.031-.734 1.031-1.406zm4.429-2.703c0-.344-.328-.64-.782-.64-.765 0-1.14.702-1.296 1.156v-1.157l-1.454.11v.328c.735 0 .813.078.813.594v2.812c0 .469-.11.469-.813.469v.328l1.188-.031c.422 0 .922 0 1.344.031v-.328h-.22c-.78 0-.796-.11-.796-.484v-1.625c0-1.032.438-1.97 1.234-1.97h.11a.476.476 0 0 0-.235.423c0 .28.22.453.454.453.187 0 .453-.14.453-.469zm5.913 4v-.328c-.75 0-.829-.078-.829-.578v-3.735l-1.546.11v.328c.734 0 .828.078.828.594v1.859c0 .922-.516 1.64-1.282 1.64-.875 0-.921-.5-.921-1.046v-3.485l-1.532.11v.328c.813 0 .813.031.813.969v1.578c0 .812 0 1.765 1.594 1.765.593 0 1.046-.28 1.359-.937v.937zm4.572-1.25c0-.11-.078-.125-.14-.125-.095 0-.11.063-.141.14-.36 1.094-1.313 1.094-1.407 1.094-.53 0-.953-.328-1.187-.703-.313-.515-.313-1.203-.313-1.578h2.922c.235 0 .266 0 .266-.219 0-1.046-.563-2.062-1.875-2.062-1.219 0-2.188 1.078-2.188 2.39 0 1.407 1.094 2.422 2.313 2.422 1.281 0 1.75-1.156 1.75-1.359zm-.688-1.39h-2.5c.063-1.563.953-1.829 1.313-1.829 1.078 0 1.187 1.406 1.187 1.828zm0 0"/><path fill="none" stroke="#000" stroke-linecap="round" stroke-miterlimit="10" stroke-width=".399" d="M295.781 402.098v14.172h70.867V226.883H248.641"/><path d="m246.648 226.883 3.188 1.594-1.195-1.594 1.195-1.594"/><path fill="none" stroke="#000" stroke-linecap="round" stroke-miterlimit="10" stroke-width=".399" d="M76.734 403.79v14.17H5.867V159.856h91.754"/><path d="m99.617 159.855-3.191-1.593 1.195 1.593-1.195 1.594"/></svg>