<svg xmlns="http://www.w3.org/2000/svg" width="342.72" height="69.7pt" viewBox="0 0 257.04 69.7"><defs><clipPath id="a"><path d="M38 18h29v16H38Zm0 0"/></clipPath><clipPath id="b"><path d="M65.035 18.91H40.363c-.785 0-1.418.633-1.418 1.414v11.34c0 .781.633 1.418 1.418 1.418h24.672c.785 0 1.418-.637 1.418-1.418v-11.34c0-.781-.633-1.414-1.418-1.414Zm0 0"/></clipPath><clipPath id="c"><path d="m36.3 50.781 44.891-16.34-12.097-33.23-44.887 16.336Zm0 0"/></clipPath><clipPath id="e"><path d="M66 18h16v16H66Zm0 0"/></clipPath><clipPath id="f"><path d="M79.61 18.91H68.27c-.782 0-1.418.633-1.418 1.414v11.34a1.42 1.42 0 0 0 1.418 1.418h11.34a1.42 1.42 0 0 0 1.417-1.418v-11.34c0-.781-.636-1.414-1.418-1.414Zm0 0"/></clipPath><clipPath id="g"><path d="m65.492 44.11 26.563-9.669L82.387 7.88l-26.563 9.668Zm0 0"/></clipPath><clipPath id="i"><path d="M95 18h29v16H95Zm0 0"/></clipPath><clipPath id="j"><path d="M121.691 18.91H97.016c-.786 0-1.418.633-1.418 1.414v11.34c0 .781.632 1.418 1.418 1.418h24.675c.782 0 1.414-.637 1.414-1.418v-11.34c0-.781-.632-1.414-1.414-1.414Zm0 0"/></clipPath><clipPath id="k"><path d="m92.957 50.781 44.887-16.34-12.094-33.23-44.89 16.336Zm0 0"/></clipPath><clipPath id="m"><path d="M123 18h15v16h-15Zm0 0"/></clipPath><clipPath id="n"><path d="M136.262 18.91h-11.34c-.781 0-1.418.633-1.418 1.414v11.34a1.42 1.42 0 0 0 1.418 1.418h11.34a1.42 1.42 0 0 0 1.418-1.418v-11.34c0-.781-.637-1.414-1.418-1.414Zm0 0"/></clipPath><clipPath id="o"><path d="m122.145 44.11 26.562-9.669-9.668-26.562-26.562 9.668Zm0 0"/></clipPath><clipPath id="q"><path d="M152 18h28v16h-28Zm0 0"/></clipPath><clipPath id="r"><path d="M178.344 18.91h-24.676c-.781 0-1.418.633-1.418 1.414v11.34a1.42 1.42 0 0 0 1.418 1.418h24.676a1.42 1.42 0 0 0 1.418-1.418v-11.34c0-.781-.637-1.414-1.418-1.414Zm0 0"/></clipPath><clipPath id="s"><path d="m149.61 50.781 44.886-16.34-12.094-33.23-44.89 16.336Zm0 0"/></clipPath><clipPath id="u"><path d="M180 18h15v16h-15Zm0 0"/></clipPath><clipPath id="v"><path d="M192.914 18.91h-11.336c-.785 0-1.418.633-1.418 1.414v11.34c0 .781.633 1.418 1.418 1.418h11.336c.785 0 1.418-.637 1.418-1.418v-11.34c0-.781-.633-1.414-1.418-1.414Zm0 0"/></clipPath><clipPath id="w"><path d="m178.797 44.11 26.562-9.669-9.668-26.562-26.562 9.668Zm0 0"/></clipPath><clipPath id="y"><path d="M220 18h17v16h-17Zm0 0"/></clipPath><clipPath id="z"><path d="M235.184 18.91H221.66c-.781 0-1.418.633-1.418 1.414v11.34a1.42 1.42 0 0 0 1.418 1.418h13.524a1.42 1.42 0 0 0 1.418-1.418v-11.34c0-.781-.637-1.414-1.418-1.414Zm0 0"/></clipPath><clipPath id="A"><path d="m218.672 45.203 29.566-10.762-10.066-27.656-29.567 10.762Zm0 0"/></clipPath><clipPath id="C"><path d="M237 18h15v16h-15Zm0 0"/></clipPath><clipPath id="D"><path d="M249.754 18.91h-11.336c-.785 0-1.418.633-1.418 1.414v11.34c0 .781.633 1.418 1.418 1.418h11.336c.785 0 1.418-.637 1.418-1.418v-11.34c0-.781-.633-1.414-1.418-1.414Zm0 0"/></clipPath><clipPath id="E"><path d="m235.64 44.11 26.563-9.669-9.672-26.562-26.562 9.668Zm0 0"/></clipPath><linearGradient id="d" x1="0" x2="0" y1="17.867" y2="82.133" gradientTransform="matrix(.44888 -.16338 -.12096 -.33232 36.303 50.78)" gradientUnits="userSpaceOnUse"><stop offset="0" stop-color="#F0E5E5"/><stop offset=".125" stop-color="#F0E5E5"/><stop offset=".141" stop-color="#EFE5E5"/><stop offset=".156" stop-color="#EFE4E4"/><stop offset=".172" stop-color="#EFE4E4"/><stop offset=".188" stop-color="#EEE3E3"/><stop offset=".203" stop-color="#EEE3E3"/><stop offset=".219" stop-color="#EEE2E2"/><stop offset=".234" stop-color="#EDE2E2"/><stop offset=".25" stop-color="#EDE1E1"/><stop offset=".266" stop-color="#EDE1E1"/><stop offset=".281" stop-color="#EDE0E0"/><stop offset=".297" stop-color="#ECE0E0"/><stop offset=".313" stop-color="#ECDFDF"/><stop offset=".328" stop-color="#ECDFDF"/><stop offset=".344" stop-color="#EBDEDE"/><stop offset=".359" stop-color="#EBDEDE"/><stop offset=".375" stop-color="#EBDDDD"/><stop offset=".391" stop-color="#EADDDD"/><stop offset=".406" stop-color="#EADCDC"/><stop offset=".422" stop-color="#EADCDC"/><stop offset=".438" stop-color="#E9DBDB"/><stop offset=".453" stop-color="#E9DBDB"/><stop offset=".469" stop-color="#E9DADA"/><stop offset=".484" stop-color="#E9DADA"/><stop offset=".5" stop-color="#E8D9D9"/><stop offset=".516" stop-color="#E8D8D8"/><stop offset=".531" stop-color="#E8D8D8"/><stop offset=".547" stop-color="#E7D7D7"/><stop offset=".563" stop-color="#E7D7D7"/><stop offset=".578" stop-color="#E7D6D6"/><stop offset=".594" stop-color="#E6D6D6"/><stop offset=".609" stop-color="#E6D5D5"/><stop offset=".625" stop-color="#E6D5D5"/><stop offset=".641" stop-color="#E5D4D4"/><stop offset=".656" stop-color="#E5D4D4"/><stop offset=".672" stop-color="#E5D3D3"/><stop offset=".688" stop-color="#E5D3D3"/><stop offset=".703" stop-color="#E4D2D2"/><stop offset=".719" stop-color="#E4D2D2"/><stop offset=".734" stop-color="#E4D1D1"/><stop offset=".75" stop-color="#E3D1D1"/><stop offset=".766" stop-color="#E3D0D0"/><stop offset=".781" stop-color="#E3D0D0"/><stop offset=".797" stop-color="#E2CFCF"/><stop offset=".813" stop-color="#E2CFCF"/><stop offset=".828" stop-color="#E2CECE"/><stop offset=".844" stop-color="#E1CECE"/><stop offset=".859" stop-color="#E1CDCD"/><stop offset=".875" stop-color="#E1CDCD"/><stop offset="1" stop-color="#E1CCCC"/></linearGradient><linearGradient id="h" x1="0" x2="0" y1="17.867" y2="82.133" gradientTransform="scale(.28267 -.28267) rotate(20 558.33 578.946)" gradientUnits="userSpaceOnUse"><stop offset="0" stop-color="#E5E5F0"/><stop offset=".125" stop-color="#E5E5F0"/><stop offset=".141" stop-color="#E5E5EF"/><stop offset=".156" stop-color="#E4E4EF"/><stop offset=".172" stop-color="#E4E4EF"/><stop offset=".188" stop-color="#E3E3EE"/><stop offset=".203" stop-color="#E3E3EE"/><stop offset=".219" stop-color="#E2E2EE"/><stop offset=".234" stop-color="#E2E2ED"/><stop offset=".25" stop-color="#E1E1ED"/><stop offset=".266" stop-color="#E1E1ED"/><stop offset=".281" stop-color="#E0E0ED"/><stop offset=".297" stop-color="#E0E0EC"/><stop offset=".313" stop-color="#DFDFEC"/><stop offset=".328" stop-color="#DFDFEC"/><stop offset=".344" stop-color="#DEDEEB"/><stop offset=".359" stop-color="#DEDEEB"/><stop offset=".375" stop-color="#DDDDEB"/><stop offset=".391" stop-color="#DDDDEA"/><stop offset=".406" stop-color="#DCDCEA"/><stop offset=".422" stop-color="#DCDCEA"/><stop offset=".438" stop-color="#DBDBE9"/><stop offset=".453" stop-color="#DBDBE9"/><stop offset=".469" stop-color="#DADAE9"/><stop offset=".484" stop-color="#DADAE9"/><stop offset=".5" stop-color="#D9D9E8"/><stop offset=".516" stop-color="#D8D8E8"/><stop offset=".531" stop-color="#D8D8E8"/><stop offset=".547" stop-color="#D7D7E7"/><stop offset=".563" stop-color="#D7D7E7"/><stop offset=".578" stop-color="#D6D6E7"/><stop offset=".594" stop-color="#D6D6E6"/><stop offset=".609" stop-color="#D5D5E6"/><stop offset=".625" stop-color="#D5D5E6"/><stop offset=".641" stop-color="#D4D4E5"/><stop offset=".656" stop-color="#D4D4E5"/><stop offset=".672" stop-color="#D3D3E5"/><stop offset=".688" stop-color="#D3D3E5"/><stop offset=".703" stop-color="#D2D2E4"/><stop offset=".719" stop-color="#D2D2E4"/><stop offset=".734" stop-color="#D1D1E4"/><stop offset=".75" stop-color="#D1D1E3"/><stop offset=".766" stop-color="#D0D0E3"/><stop offset=".781" stop-color="#D0D0E3"/><stop offset=".797" stop-color="#CFCFE2"/><stop offset=".813" stop-color="#CFCFE2"/><stop offset=".828" stop-color="#CECEE2"/><stop offset=".844" stop-color="#CECEE1"/><stop offset=".859" stop-color="#CDCDE1"/><stop offset=".875" stop-color="#CDCDE1"/><stop offset="1" stop-color="#CCCCE1"/></linearGradient><linearGradient id="l" x1="0" x2="0" y1="17.867" y2="82.133" gradientTransform="matrix(.44888 -.16338 -.12096 -.33232 92.956 50.78)" gradientUnits="userSpaceOnUse"><stop offset="0" stop-color="#F0E5E5"/><stop offset=".125" stop-color="#F0E5E5"/><stop offset=".141" stop-color="#EFE5E5"/><stop offset=".156" stop-color="#EFE4E4"/><stop offset=".172" stop-color="#EFE4E4"/><stop offset=".188" stop-color="#EEE3E3"/><stop offset=".203" stop-color="#EEE3E3"/><stop offset=".219" stop-color="#EEE2E2"/><stop offset=".234" stop-color="#EDE2E2"/><stop offset=".25" stop-color="#EDE1E1"/><stop offset=".266" stop-color="#EDE1E1"/><stop offset=".281" stop-color="#EDE0E0"/><stop offset=".297" stop-color="#ECE0E0"/><stop offset=".313" stop-color="#ECDFDF"/><stop offset=".328" stop-color="#ECDFDF"/><stop offset=".344" stop-color="#EBDEDE"/><stop offset=".359" stop-color="#EBDEDE"/><stop offset=".375" stop-color="#EBDDDD"/><stop offset=".391" stop-color="#EADDDD"/><stop offset=".406" stop-color="#EADCDC"/><stop offset=".422" stop-color="#EADCDC"/><stop offset=".438" stop-color="#E9DBDB"/><stop offset=".453" stop-color="#E9DBDB"/><stop offset=".469" stop-color="#E9DADA"/><stop offset=".484" stop-color="#E9DADA"/><stop offset=".5" stop-color="#E8D9D9"/><stop offset=".516" stop-color="#E8D8D8"/><stop offset=".531" stop-color="#E8D8D8"/><stop offset=".547" stop-color="#E7D7D7"/><stop offset=".563" stop-color="#E7D7D7"/><stop offset=".578" stop-color="#E7D6D6"/><stop offset=".594" stop-color="#E6D6D6"/><stop offset=".609" stop-color="#E6D5D5"/><stop offset=".625" stop-color="#E6D5D5"/><stop offset=".641" stop-color="#E5D4D4"/><stop offset=".656" stop-color="#E5D4D4"/><stop offset=".672" stop-color="#E5D3D3"/><stop offset=".688" stop-color="#E5D3D3"/><stop offset=".703" stop-color="#E4D2D2"/><stop offset=".719" stop-color="#E4D2D2"/><stop offset=".734" stop-color="#E4D1D1"/><stop offset=".75" stop-color="#E3D1D1"/><stop offset=".766" stop-color="#E3D0D0"/><stop offset=".781" stop-color="#E3D0D0"/><stop offset=".797" stop-color="#E2CFCF"/><stop offset=".813" stop-color="#E2CFCF"/><stop offset=".828" stop-color="#E2CECE"/><stop offset=".844" stop-color="#E1CECE"/><stop offset=".859" stop-color="#E1CDCD"/><stop offset=".875" stop-color="#E1CDCD"/><stop offset="1" stop-color="#E1CCCC"/></linearGradient><linearGradient id="p" x1="0" x2="0" y1="17.867" y2="82.133" gradientTransform="scale(.28267 -.28267) rotate(20 658.54 1147.255)" gradientUnits="userSpaceOnUse"><stop offset="0" stop-color="#E5E5F0"/><stop offset=".125" stop-color="#E5E5F0"/><stop offset=".141" stop-color="#E5E5EF"/><stop offset=".156" stop-color="#E4E4EF"/><stop offset=".172" stop-color="#E4E4EF"/><stop offset=".188" stop-color="#E3E3EE"/><stop offset=".203" stop-color="#E3E3EE"/><stop offset=".219" stop-color="#E2E2EE"/><stop offset=".234" stop-color="#E2E2ED"/><stop offset=".25" stop-color="#E1E1ED"/><stop offset=".266" stop-color="#E1E1ED"/><stop offset=".281" stop-color="#E0E0ED"/><stop offset=".297" stop-color="#E0E0EC"/><stop offset=".313" stop-color="#DFDFEC"/><stop offset=".328" stop-color="#DFDFEC"/><stop offset=".344" stop-color="#DEDEEB"/><stop offset=".359" stop-color="#DEDEEB"/><stop offset=".375" stop-color="#DDDDEB"/><stop offset=".391" stop-color="#DDDDEA"/><stop offset=".406" stop-color="#DCDCEA"/><stop offset=".422" stop-color="#DCDCEA"/><stop offset=".438" stop-color="#DBDBE9"/><stop offset=".453" stop-color="#DBDBE9"/><stop offset=".469" stop-color="#DADAE9"/><stop offset=".484" stop-color="#DADAE9"/><stop offset=".5" stop-color="#D9D9E8"/><stop offset=".516" stop-color="#D8D8E8"/><stop offset=".531" stop-color="#D8D8E8"/><stop offset=".547" stop-color="#D7D7E7"/><stop offset=".563" stop-color="#D7D7E7"/><stop offset=".578" stop-color="#D6D6E7"/><stop offset=".594" stop-color="#D6D6E6"/><stop offset=".609" stop-color="#D5D5E6"/><stop offset=".625" stop-color="#D5D5E6"/><stop offset=".641" stop-color="#D4D4E5"/><stop offset=".656" stop-color="#D4D4E5"/><stop offset=".672" stop-color="#D3D3E5"/><stop offset=".688" stop-color="#D3D3E5"/><stop offset=".703" stop-color="#D2D2E4"/><stop offset=".719" stop-color="#D2D2E4"/><stop offset=".734" stop-color="#D1D1E4"/><stop offset=".75" stop-color="#D1D1E3"/><stop offset=".766" stop-color="#D0D0E3"/><stop offset=".781" stop-color="#D0D0E3"/><stop offset=".797" stop-color="#CFCFE2"/><stop offset=".813" stop-color="#CFCFE2"/><stop offset=".828" stop-color="#CECEE2"/><stop offset=".844" stop-color="#CECEE1"/><stop offset=".859" stop-color="#CDCDE1"/><stop offset=".875" stop-color="#CDCDE1"/><stop offset="1" stop-color="#CCCCE1"/></linearGradient><linearGradient id="t" x1="0" x2="0" y1="17.867" y2="82.133" gradientTransform="matrix(.44888 -.16338 -.12096 -.33232 149.61 50.78)" gradientUnits="userSpaceOnUse"><stop offset="0" stop-color="#F0E5E5"/><stop offset=".125" stop-color="#F0E5E5"/><stop offset=".141" stop-color="#EFE5E5"/><stop offset=".156" stop-color="#EFE4E4"/><stop offset=".172" stop-color="#EFE4E4"/><stop offset=".188" stop-color="#EEE3E3"/><stop offset=".203" stop-color="#EEE3E3"/><stop offset=".219" stop-color="#EEE2E2"/><stop offset=".234" stop-color="#EDE2E2"/><stop offset=".25" stop-color="#EDE1E1"/><stop offset=".266" stop-color="#EDE1E1"/><stop offset=".281" stop-color="#EDE0E0"/><stop offset=".297" stop-color="#ECE0E0"/><stop offset=".313" stop-color="#ECDFDF"/><stop offset=".328" stop-color="#ECDFDF"/><stop offset=".344" stop-color="#EBDEDE"/><stop offset=".359" stop-color="#EBDEDE"/><stop offset=".375" stop-color="#EBDDDD"/><stop offset=".391" stop-color="#EADDDD"/><stop offset=".406" stop-color="#EADCDC"/><stop offset=".422" stop-color="#EADCDC"/><stop offset=".438" stop-color="#E9DBDB"/><stop offset=".453" stop-color="#E9DBDB"/><stop offset=".469" stop-color="#E9DADA"/><stop offset=".484" stop-color="#E9DADA"/><stop offset=".5" stop-color="#E8D9D9"/><stop offset=".516" stop-color="#E8D8D8"/><stop offset=".531" stop-color="#E8D8D8"/><stop offset=".547" stop-color="#E7D7D7"/><stop offset=".563" stop-color="#E7D7D7"/><stop offset=".578" stop-color="#E7D6D6"/><stop offset=".594" stop-color="#E6D6D6"/><stop offset=".609" stop-color="#E6D5D5"/><stop offset=".625" stop-color="#E6D5D5"/><stop offset=".641" stop-color="#E5D4D4"/><stop offset=".656" stop-color="#E5D4D4"/><stop offset=".672" stop-color="#E5D3D3"/><stop offset=".688" stop-color="#E5D3D3"/><stop offset=".703" stop-color="#E4D2D2"/><stop offset=".719" stop-color="#E4D2D2"/><stop offset=".734" stop-color="#E4D1D1"/><stop offset=".75" stop-color="#E3D1D1"/><stop offset=".766" stop-color="#E3D0D0"/><stop offset=".781" stop-color="#E3D0D0"/><stop offset=".797" stop-color="#E2CFCF"/><stop offset=".813" stop-color="#E2CFCF"/><stop offset=".828" stop-color="#E2CECE"/><stop offset=".844" stop-color="#E1CECE"/><stop offset=".859" stop-color="#E1CDCD"/><stop offset=".875" stop-color="#E1CDCD"/><stop offset="1" stop-color="#E1CCCC"/></linearGradient><linearGradient id="x" x1="0" x2="0" y1="17.867" y2="82.133" gradientTransform="scale(.28267 -.28267) rotate(20 758.75 1715.563)" gradientUnits="userSpaceOnUse"><stop offset="0" stop-color="#E5E5F0"/><stop offset=".125" stop-color="#E5E5F0"/><stop offset=".141" stop-color="#E5E5EF"/><stop offset=".156" stop-color="#E4E4EF"/><stop offset=".172" stop-color="#E4E4EF"/><stop offset=".188" stop-color="#E3E3EE"/><stop offset=".203" stop-color="#E3E3EE"/><stop offset=".219" stop-color="#E2E2EE"/><stop offset=".234" stop-color="#E2E2ED"/><stop offset=".25" stop-color="#E1E1ED"/><stop offset=".266" stop-color="#E1E1ED"/><stop offset=".281" stop-color="#E0E0ED"/><stop offset=".297" stop-color="#E0E0EC"/><stop offset=".313" stop-color="#DFDFEC"/><stop offset=".328" stop-color="#DFDFEC"/><stop offset=".344" stop-color="#DEDEEB"/><stop offset=".359" stop-color="#DEDEEB"/><stop offset=".375" stop-color="#DDDDEB"/><stop offset=".391" stop-color="#DDDDEA"/><stop offset=".406" stop-color="#DCDCEA"/><stop offset=".422" stop-color="#DCDCEA"/><stop offset=".438" stop-color="#DBDBE9"/><stop offset=".453" stop-color="#DBDBE9"/><stop offset=".469" stop-color="#DADAE9"/><stop offset=".484" stop-color="#DADAE9"/><stop offset=".5" stop-color="#D9D9E8"/><stop offset=".516" stop-color="#D8D8E8"/><stop offset=".531" stop-color="#D8D8E8"/><stop offset=".547" stop-color="#D7D7E7"/><stop offset=".563" stop-color="#D7D7E7"/><stop offset=".578" stop-color="#D6D6E7"/><stop offset=".594" stop-color="#D6D6E6"/><stop offset=".609" stop-color="#D5D5E6"/><stop offset=".625" stop-color="#D5D5E6"/><stop offset=".641" stop-color="#D4D4E5"/><stop offset=".656" stop-color="#D4D4E5"/><stop offset=".672" stop-color="#D3D3E5"/><stop offset=".688" stop-color="#D3D3E5"/><stop offset=".703" stop-color="#D2D2E4"/><stop offset=".719" stop-color="#D2D2E4"/><stop offset=".734" stop-color="#D1D1E4"/><stop offset=".75" stop-color="#D1D1E3"/><stop offset=".766" stop-color="#D0D0E3"/><stop offset=".781" stop-color="#D0D0E3"/><stop offset=".797" stop-color="#CFCFE2"/><stop offset=".813" stop-color="#CFCFE2"/><stop offset=".828" stop-color="#CECEE2"/><stop offset=".844" stop-color="#CECEE1"/><stop offset=".859" stop-color="#CDCDE1"/><stop offset=".875" stop-color="#CDCDE1"/><stop offset="1" stop-color="#CCCCE1"/></linearGradient><linearGradient id="B" x1="0" x2="0" y1="17.867" y2="82.133" gradientTransform="matrix(.29565 -.1076 -.10066 -.27655 218.672 45.203)" gradientUnits="userSpaceOnUse"><stop offset="0" stop-color="#F0E5E5"/><stop offset=".125" stop-color="#F0E5E5"/><stop offset=".141" stop-color="#EFE5E5"/><stop offset=".156" stop-color="#EFE4E4"/><stop offset=".172" stop-color="#EFE4E4"/><stop offset=".188" stop-color="#EEE3E3"/><stop offset=".203" stop-color="#EEE3E3"/><stop offset=".219" stop-color="#EEE2E2"/><stop offset=".234" stop-color="#EDE2E2"/><stop offset=".25" stop-color="#EDE1E1"/><stop offset=".266" stop-color="#EDE1E1"/><stop offset=".281" stop-color="#EDE0E0"/><stop offset=".297" stop-color="#ECE0E0"/><stop offset=".313" stop-color="#ECDFDF"/><stop offset=".328" stop-color="#ECDFDF"/><stop offset=".344" stop-color="#EBDEDE"/><stop offset=".359" stop-color="#EBDEDE"/><stop offset=".375" stop-color="#EBDDDD"/><stop offset=".391" stop-color="#EADDDD"/><stop offset=".406" stop-color="#EADCDC"/><stop offset=".422" stop-color="#EADCDC"/><stop offset=".438" stop-color="#E9DBDB"/><stop offset=".453" stop-color="#E9DBDB"/><stop offset=".469" stop-color="#E9DADA"/><stop offset=".484" stop-color="#E9DADA"/><stop offset=".5" stop-color="#E8D9D9"/><stop offset=".516" stop-color="#E8D8D8"/><stop offset=".531" stop-color="#E8D8D8"/><stop offset=".547" stop-color="#E7D7D7"/><stop offset=".563" stop-color="#E7D7D7"/><stop offset=".578" stop-color="#E7D6D6"/><stop offset=".594" stop-color="#E6D6D6"/><stop offset=".609" stop-color="#E6D5D5"/><stop offset=".625" stop-color="#E6D5D5"/><stop offset=".641" stop-color="#E5D4D4"/><stop offset=".656" stop-color="#E5D4D4"/><stop offset=".672" stop-color="#E5D3D3"/><stop offset=".688" stop-color="#E5D3D3"/><stop offset=".703" stop-color="#E4D2D2"/><stop offset=".719" stop-color="#E4D2D2"/><stop offset=".734" stop-color="#E4D1D1"/><stop offset=".75" stop-color="#E3D1D1"/><stop offset=".766" stop-color="#E3D0D0"/><stop offset=".781" stop-color="#E3D0D0"/><stop offset=".797" stop-color="#E2CFCF"/><stop offset=".813" stop-color="#E2CFCF"/><stop offset=".828" stop-color="#E2CECE"/><stop offset=".844" stop-color="#E1CECE"/><stop offset=".859" stop-color="#E1CDCD"/><stop offset=".875" stop-color="#E1CDCD"/><stop offset="1" stop-color="#E1CCCC"/></linearGradient><linearGradient id="F" x1="0" x2="0" y1="17.867" y2="82.133" gradientTransform="scale(.28267 -.28267) rotate(20 859.29 2285.747)" gradientUnits="userSpaceOnUse"><stop offset="0" stop-color="#E5E5F0"/><stop offset=".125" stop-color="#E5E5F0"/><stop offset=".141" stop-color="#E5E5EF"/><stop offset=".156" stop-color="#E4E4EF"/><stop offset=".172" stop-color="#E4E4EF"/><stop offset=".188" stop-color="#E3E3EE"/><stop offset=".203" stop-color="#E3E3EE"/><stop offset=".219" stop-color="#E2E2EE"/><stop offset=".234" stop-color="#E2E2ED"/><stop offset=".25" stop-color="#E1E1ED"/><stop offset=".266" stop-color="#E1E1ED"/><stop offset=".281" stop-color="#E0E0ED"/><stop offset=".297" stop-color="#E0E0EC"/><stop offset=".313" stop-color="#DFDFEC"/><stop offset=".328" stop-color="#DFDFEC"/><stop offset=".344" stop-color="#DEDEEB"/><stop offset=".359" stop-color="#DEDEEB"/><stop offset=".375" stop-color="#DDDDEB"/><stop offset=".391" stop-color="#DDDDEA"/><stop offset=".406" stop-color="#DCDCEA"/><stop offset=".422" stop-color="#DCDCEA"/><stop offset=".438" stop-color="#DBDBE9"/><stop offset=".453" stop-color="#DBDBE9"/><stop offset=".469" stop-color="#DADAE9"/><stop offset=".484" stop-color="#DADAE9"/><stop offset=".5" stop-color="#D9D9E8"/><stop offset=".516" stop-color="#D8D8E8"/><stop offset=".531" stop-color="#D8D8E8"/><stop offset=".547" stop-color="#D7D7E7"/><stop offset=".563" stop-color="#D7D7E7"/><stop offset=".578" stop-color="#D6D6E7"/><stop offset=".594" stop-color="#D6D6E6"/><stop offset=".609" stop-color="#D5D5E6"/><stop offset=".625" stop-color="#D5D5E6"/><stop offset=".641" stop-color="#D4D4E5"/><stop offset=".656" stop-color="#D4D4E5"/><stop offset=".672" stop-color="#D3D3E5"/><stop offset=".688" stop-color="#D3D3E5"/><stop offset=".703" stop-color="#D2D2E4"/><stop offset=".719" stop-color="#D2D2E4"/><stop offset=".734" stop-color="#D1D1E4"/><stop offset=".75" stop-color="#D1D1E3"/><stop offset=".766" stop-color="#D0D0E3"/><stop offset=".781" stop-color="#D0D0E3"/><stop offset=".797" stop-color="#CFCFE2"/><stop offset=".813" stop-color="#CFCFE2"/><stop offset=".828" stop-color="#CECEE2"/><stop offset=".844" stop-color="#CECEE1"/><stop offset=".859" stop-color="#CDCDE1"/><stop offset=".875" stop-color="#CDCDE1"/><stop offset="1" stop-color="#CCCCE1"/></linearGradient></defs><path fill="#F0E5E5" d="M65.035 18.91H40.363c-.785 0-1.418.633-1.418 1.414v11.34c0 .781.633 1.418 1.418 1.418h24.672c.785 0 1.418-.637 1.418-1.418v-11.34c0-.781-.633-1.414-1.418-1.414Zm0 0"/><g clip-path="url(#a)"><g clip-path="url(#b)"><g clip-path="url(#c)"><path fill="url(#d)" d="m42.164 41.922-7.773-21.356 28.843-10.5 7.774 21.356Zm0 0"/></g></g></g><path fill="none" stroke="#000" stroke-miterlimit="10" stroke-width=".399" d="M65.035 18.91H40.363c-.785 0-1.418.633-1.418 1.414v11.34c0 .781.633 1.418 1.418 1.418h24.672c.785 0 1.418-.637 1.418-1.418v-11.34c0-.781-.633-1.414-1.418-1.414Zm0 0"/><path d="M44.413 24.631c.297 0 1.078-.031 1.594-.25.75-.312.796-.922.796-1.078 0-.453-.406-.89-1.125-.89-1.171 0-2.75 1.015-2.75 2.859 0 1.062.625 1.89 1.641 1.89 1.516 0 2.39-1.109 2.39-1.234 0-.063-.062-.14-.124-.14-.047 0-.078.03-.141.109-.828 1.047-1.969 1.047-2.094 1.047-.828 0-.922-.891-.922-1.22 0-.124.016-.452.172-1.093zm-.5-.234c.406-1.594 1.5-1.75 1.765-1.75.5 0 .782.297.782.656 0 1.094-1.688 1.094-2.11 1.094zm4.264 3.793c-.016.094-.063.266-.063.282 0 .156.125.218.235.218a.377.377 0 0 0 .28-.14c.032-.063.079-.297.126-.438.031-.125.11-.453.14-.625.047-.156.094-.312.125-.468.079-.282.094-.344.297-.625.188-.282.516-.641 1.047-.641.39 0 .407.36.407.484 0 .422-.297 1.188-.407 1.485-.078.203-.11.265-.11.375 0 .375.298.593.657.593.703 0 1-.953 1-1.062 0-.094-.078-.094-.11-.094-.093 0-.093.047-.124.125-.157.563-.469.844-.735.844-.156 0-.187-.094-.187-.25s.047-.25.172-.563c.078-.218.36-.953.36-1.343 0-.672-.532-.797-.907-.797-.578 0-.969.36-1.172.64-.047-.484-.453-.64-.75-.64s-.453.219-.547.375c-.156.265-.25.656-.25.703 0 .078.094.078.125.078.094 0 .094-.015.14-.203.11-.406.25-.75.516-.75.188 0 .235.156.235.344 0 .125-.063.39-.125.578-.047.187-.11.469-.14.625zm9.268-1.14c.11 0 .282 0 .282-.156 0-.188-.172-.188-.282-.188H53.29c-.11 0-.281 0-.281.172s.156.172.281.172zm3.368-2.86c0-.187 0-.187-.203-.187-.453.438-1.078.438-1.36.438v.25c.157 0 .626 0 1-.188v3.547c0 .234 0 .328-.687.328h-.265v.25c.125 0 .984-.031 1.234-.031.219 0 1.094.031 1.25.031v-.25h-.266c-.703 0-.703-.094-.703-.328zm0 0"/><path fill="#E5E5F0" d="M79.61 18.91H68.27c-.782 0-1.418.633-1.418 1.414v11.34a1.42 1.42 0 0 0 1.418 1.418h11.34a1.42 1.42 0 0 0 1.417-1.418v-11.34c0-.781-.636-1.414-1.418-1.414Zm0 0"/><g clip-path="url(#e)"><g clip-path="url(#f)"><g clip-path="url(#g)"><path fill="url(#h)" d="m68.512 37.637-6.215-17.07 17.07-6.215 6.215 17.07Zm0 0"/></g></g></g><path fill="none" stroke="#000" stroke-miterlimit="10" stroke-width=".399" d="M79.61 18.91H68.27c-.782 0-1.418.633-1.418 1.414v11.34a1.42 1.42 0 0 0 1.418 1.418h11.34a1.42 1.42 0 0 0 1.417-1.418v-11.34c0-.781-.636-1.414-1.418-1.414Zm0 0"/><path fill="#F0E5E5" d="M121.691 18.91H97.016c-.786 0-1.418.633-1.418 1.414v11.34c0 .781.632 1.418 1.418 1.418h24.675c.782 0 1.414-.637 1.414-1.418v-11.34c0-.781-.632-1.414-1.414-1.414Zm0 0"/><g clip-path="url(#i)"><g clip-path="url(#j)"><g clip-path="url(#k)"><path fill="url(#l)" d="m98.816 41.922-7.773-21.356 28.848-10.5 7.773 21.356Zm0 0"/></g></g></g><path fill="none" stroke="#000" stroke-miterlimit="10" stroke-width=".399" d="M121.691 18.91H97.016c-.786 0-1.418.633-1.418 1.414v11.34c0 .781.632 1.418 1.418 1.418h24.675c.782 0 1.414-.637 1.414-1.418v-11.34c0-.781-.632-1.414-1.414-1.414Zm0 0"/><path d="M101.066 24.631c.297 0 1.078-.031 1.593-.25.75-.312.797-.922.797-1.078 0-.453-.406-.89-1.125-.89-1.172 0-2.75 1.015-2.75 2.859 0 1.062.625 1.89 1.641 1.89 1.516 0 2.39-1.109 2.39-1.234 0-.063-.062-.14-.124-.14-.047 0-.079.03-.141.109-.828 1.047-1.969 1.047-2.094 1.047-.828 0-.922-.891-.922-1.22 0-.124.016-.452.172-1.093zm-.5-.234c.406-1.594 1.5-1.75 1.765-1.75.5 0 .782.297.782.656 0 1.094-1.688 1.094-2.11 1.094zm4.264 3.793c-.016.094-.063.266-.063.282 0 .156.125.218.235.218a.377.377 0 0 0 .28-.14c.032-.063.079-.297.126-.438.031-.125.11-.453.14-.625.047-.156.094-.312.126-.468.078-.282.093-.344.296-.625.188-.282.516-.641 1.047-.641.39 0 .407.36.407.484 0 .422-.297 1.188-.407 1.485-.078.203-.11.265-.11.375 0 .375.298.593.657.593.703 0 1-.953 1-1.062 0-.094-.078-.094-.11-.094-.093 0-.093.047-.124.125-.156.563-.469.844-.735.844-.156 0-.187-.094-.187-.25s.047-.25.172-.563c.078-.218.36-.953.36-1.343 0-.672-.532-.797-.907-.797-.578 0-.969.36-1.172.64-.047-.484-.453-.64-.75-.64s-.453.219-.547.375c-.156.265-.25.656-.25.703 0 .078.094.078.125.078.094 0 .094-.015.14-.203.11-.406.25-.75.516-.75.188 0 .235.156.235.344 0 .125-.063.39-.125.578-.047.187-.11.469-.14.625zm9.269-1.14c.109 0 .28 0 .28-.156 0-.188-.171-.188-.28-.188h-4.157c-.11 0-.281 0-.281.172s.156.172.281.172zm4.555.312h-.235c-.015.157-.093.563-.187.625-.047.047-.578.047-.688.047h-1.281c.734-.64.984-.843 1.39-1.172.516-.406 1-.843 1-1.5 0-.843-.734-1.359-1.624-1.359-.86 0-1.453.61-1.453 1.25 0 .344.296.39.375.39a.365.365 0 0 0 .359-.374c0-.125-.047-.375-.406-.375.218-.485.687-.641 1.015-.641.703 0 1.063.547 1.063 1.11 0 .609-.438 1.078-.656 1.328l-1.672 1.671c-.078.063-.078.079-.078.266h2.875zm0 0"/><path fill="#E5E5F0" d="M136.262 18.91h-11.34c-.781 0-1.418.633-1.418 1.414v11.34a1.42 1.42 0 0 0 1.418 1.418h11.34a1.42 1.42 0 0 0 1.418-1.418v-11.34c0-.781-.637-1.414-1.418-1.414Zm0 0"/><g clip-path="url(#m)"><g clip-path="url(#n)"><g clip-path="url(#o)"><path fill="url(#p)" d="m125.164 37.637-6.215-17.07 17.07-6.215 6.215 17.07Zm0 0"/></g></g></g><path fill="none" stroke="#000" stroke-miterlimit="10" stroke-width=".399" d="M136.262 18.91h-11.34c-.781 0-1.418.633-1.418 1.414v11.34a1.42 1.42 0 0 0 1.418 1.418h11.34a1.42 1.42 0 0 0 1.418-1.418v-11.34c0-.781-.637-1.414-1.418-1.414Zm0 0"/><path fill="none" stroke="#000" stroke-linecap="round" stroke-miterlimit="10" stroke-width=".399" d="M73.938 25.996c10.167 19.906 41.785 23.973 55.328 8.774"/><path d="m130.594 33.281-3.313 1.32 1.985.169.394 1.953"/><path fill="#F0E5E5" d="M178.344 18.91h-24.676c-.781 0-1.418.633-1.418 1.414v11.34a1.42 1.42 0 0 0 1.418 1.418h24.676a1.42 1.42 0 0 0 1.418-1.418v-11.34c0-.781-.637-1.414-1.418-1.414Zm0 0"/><g clip-path="url(#q)"><g clip-path="url(#r)"><g clip-path="url(#s)"><path fill="url(#t)" d="m155.469 41.922-7.774-21.356 28.848-10.5 7.773 21.356Zm0 0"/></g></g></g><path fill="none" stroke="#000" stroke-miterlimit="10" stroke-width=".399" d="M178.344 18.91h-24.676c-.781 0-1.418.633-1.418 1.414v11.34a1.42 1.42 0 0 0 1.418 1.418h24.676a1.42 1.42 0 0 0 1.418-1.418v-11.34c0-.781-.637-1.414-1.418-1.414Zm0 0"/><path d="M157.72 24.631c.297 0 1.078-.031 1.594-.25.75-.312.796-.922.796-1.078 0-.453-.406-.89-1.125-.89-1.171 0-2.75 1.015-2.75 2.859 0 1.062.625 1.89 1.641 1.89 1.516 0 2.39-1.109 2.39-1.234 0-.063-.062-.14-.124-.14-.047 0-.078.03-.141.109-.828 1.047-1.969 1.047-2.094 1.047-.828 0-.922-.891-.922-1.22 0-.124.016-.452.172-1.093zm-.5-.234c.406-1.594 1.5-1.75 1.765-1.75.5 0 .782.297.782.656 0 1.094-1.688 1.094-2.11 1.094zm4.264 3.793c-.016.094-.063.266-.063.282 0 .156.125.218.235.218a.377.377 0 0 0 .28-.14c.032-.063.079-.297.126-.438.031-.125.11-.453.14-.625.047-.156.094-.312.125-.468.079-.282.094-.344.297-.625.188-.282.516-.641 1.047-.641.39 0 .406.36.406.484 0 .422-.296 1.188-.406 1.485-.078.203-.11.265-.11.375 0 .375.298.593.657.593.703 0 1-.953 1-1.062 0-.094-.078-.094-.11-.094-.093 0-.093.047-.124.125-.157.563-.469.844-.735.844-.156 0-.187-.094-.187-.25s.047-.25.172-.563c.078-.218.36-.953.36-1.343 0-.672-.532-.797-.907-.797-.578 0-.969.36-1.172.64-.047-.484-.453-.64-.75-.64s-.453.219-.547.375c-.156.265-.25.656-.25.703 0 .078.094.078.125.078.094 0 .094-.015.14-.203.11-.406.25-.75.516-.75.188 0 .235.156.235.344 0 .125-.063.39-.125.578-.047.187-.11.469-.14.625zm9.268-1.14c.11 0 .282 0 .282-.156 0-.188-.172-.188-.281-.188h-4.157c-.11 0-.281 0-.281.172s.156.172.281.172zm2.946-.75c.547 0 .938.375.938 1.125 0 .86-.516 1.125-.906 1.125-.282 0-.907-.078-1.188-.5.328 0 .406-.235.406-.39 0-.22-.172-.376-.39-.376a.38.38 0 0 0-.391.407c0 .656.719 1.078 1.563 1.078.968 0 1.64-.657 1.64-1.344 0-.547-.437-1.094-1.203-1.25.719-.266.984-.781.984-1.219 0-.547-.625-.953-1.406-.953-.765 0-1.36.375-1.36.938 0 .234.157.359.36.359.219 0 .36-.156.36-.344 0-.203-.141-.36-.36-.375.25-.297.719-.375.985-.375.312 0 .75.156.75.75 0 .297-.094.625-.282.828-.218.266-.422.282-.765.313-.172.015-.188.015-.22.015-.015 0-.077.016-.077.094 0 .094.062.094.187.094zm0 0"/><path fill="#E5E5F0" d="M192.914 18.91h-11.336c-.785 0-1.418.633-1.418 1.414v11.34c0 .781.633 1.418 1.418 1.418h11.336c.785 0 1.418-.637 1.418-1.418v-11.34c0-.781-.633-1.414-1.418-1.414Zm0 0"/><g clip-path="url(#u)"><g clip-path="url(#v)"><g clip-path="url(#w)"><path fill="url(#x)" d="m181.816 37.637-6.21-17.07 17.07-6.215 6.21 17.07Zm0 0"/></g></g></g><path fill="none" stroke="#000" stroke-miterlimit="10" stroke-width=".399" d="M192.914 18.91h-11.336c-.785 0-1.418.633-1.418 1.414v11.34c0 .781.633 1.418 1.418 1.418h11.336c.785 0 1.418-.637 1.418-1.418v-11.34c0-.781-.633-1.414-1.418-1.414Zm0 0"/><path fill="none" stroke="#000" stroke-linecap="round" stroke-miterlimit="10" stroke-width=".399" d="M130.594 25.996c10.164 19.906 41.781 23.973 55.328 8.774"/><path d="m187.246 33.281-3.312 1.32 1.988.169.394 1.953M49.111 14.368v-.25c-.515 0-.578-.047-.578-.422V9.165l-1.11.078v.25c.516 0 .563.047.563.422v1.578a1.323 1.323 0 0 0-1-.438c-.937 0-1.765.735-1.765 1.704 0 .921.75 1.687 1.687 1.687.453 0 .813-.219 1.063-.469v.47zm-1.14-.938c0 .141 0 .172-.11.329a1.14 1.14 0 0 1-.906.468.964.964 0 0 1-.828-.453c-.203-.297-.234-.656-.234-1.015 0-.438.062-.735.234-1a1.06 1.06 0 0 1 .89-.485c.376 0 .735.172.954.563zm5.269.266v-.422h-.235v.422c0 .297-.11.422-.266.422-.28 0-.28-.344-.28-.422v-1.562c0-.735-.72-1.11-1.391-1.11-.625 0-1.188.235-1.188.735 0 .218.156.359.36.359.203 0 .343-.156.343-.36a.352.352 0 0 0-.265-.343c.265-.188.671-.188.734-.188.406 0 .828.297.828.907v.234c-.437.031-.937.047-1.453.266-.672.28-.797.718-.797.968 0 .641.766.844 1.281.844.547 0 .89-.312 1.047-.61.047.282.235.563.563.563.078 0 .718-.031.718-.703Zm-1.36-.39c0 .734-.61.921-.906.921-.39 0-.719-.25-.719-.609 0-.5.453-1.016 1.625-1.047zm4.123.124v-.421h-.219v.406c0 .516-.234.797-.53.797-.5 0-.5-.64-.5-.766v-2.062h1.124v-.25h-1.125V9.759h-.234c0 .671-.313 1.39-1 1.421v.204h.672v2.046c0 .876.671 1.016 1.015 1.016.5 0 .797-.453.797-1.015zm4.317.266v-.422h-.235v.422c0 .297-.11.422-.266.422-.28 0-.28-.344-.28-.422v-1.562c0-.735-.72-1.11-1.392-1.11-.625 0-1.187.235-1.187.735 0 .218.156.359.36.359.202 0 .343-.156.343-.36a.352.352 0 0 0-.266-.343c.266-.188.672-.188.735-.188.406 0 .828.297.828.907v.234c-.438.031-.938.047-1.453.266-.672.28-.797.718-.797.968 0 .641.766.844 1.281.844.547 0 .89-.312 1.047-.61.047.282.234.563.563.563.078 0 .718-.031.718-.703Zm-1.36-.39c0 .734-.61.921-.906.921-.39 0-.719-.25-.719-.609 0-.5.453-1.016 1.625-1.047zm11.563 1.062v-.25c-.485 0-.578 0-.578-.328v-1.688c0-.64-.282-1.046-1.063-1.046-.75 0-1.078.546-1.172.718h-.015v-.718l-1.078.093v.235c.5 0 .562.062.562.421v1.985c0 .328-.094.328-.562.328v.25c.312-.016.64-.016.843-.016.219 0 .532 0 .86.016v-.25c-.485 0-.563 0-.563-.328v-1.36c0-.796.594-1.156 1.047-1.156.469 0 .578.313.578.797v1.719c0 .328-.094.328-.578.328v.25c.328-.016.656-.016.86-.016.218 0 .53 0 .859.016zm3.518-.906c0-.031-.03-.094-.125-.094-.078 0-.093.047-.109.094-.266.719-.922.75-1.047.75-.344 0-.687-.156-.906-.5-.234-.344-.234-.828-.234-1.047h2.203c.172 0 .218 0 .218-.172 0-.672-.375-1.469-1.437-1.469-.922 0-1.656.766-1.656 1.703 0 .97.812 1.72 1.765 1.72.953 0 1.328-.813 1.328-.985zm-.515-1h-1.89c.062-1.047.702-1.235.968-1.235.89 0 .922 1.063.922 1.235zm4.821 1.906v-.25c-.469 0-.531-.031-.734-.266l-1.032-1.234c.204-.266.422-.516.657-.766.234-.265.5-.468.968-.468v-.25c-.28.03-.296.03-.64.03-.031 0-.485 0-.703-.03v.25c.14.015.172.109.172.203 0 .094-.047.187-.141.297l-.469.546-.594-.703c-.078-.109-.078-.171-.078-.171 0-.047.032-.172.22-.172v-.25c-.298.03-.72.03-.798.03-.14 0-.515 0-.734-.03v.25c.5 0 .515 0 .906.468l.766.938-.688.797c-.187.219-.453.515-1.031.531v.25c.281-.016.328-.016.64-.016 0 0 .485 0 .72.016v-.25c-.094-.016-.173-.063-.173-.203 0-.125.079-.234.11-.281l.578-.657.625.735c.14.172.14.187.14.234 0 .063-.046.172-.234.172v.25c.328-.016.656-.016.813-.016.125 0 .515 0 .734.016zm2.77-.938v-.421h-.219v.406c0 .516-.234.797-.53.797-.5 0-.5-.64-.5-.766v-2.062h1.124v-.25h-1.125V9.759h-.234c0 .671-.313 1.39-1 1.421v.204h.672v2.046c0 .876.672 1.016 1.015 1.016.5 0 .797-.453.797-1.015zm0 0"/><path fill="none" stroke="#000" stroke-miterlimit="10" stroke-width=".399" d="M22.953 18.91H7.285c-.781 0-1.418.633-1.418 1.414v11.34a1.42 1.42 0 0 0 1.418 1.418h15.668c.785 0 1.418-.637 1.418-1.418v-11.34c0-.781-.633-1.414-1.418-1.414Zm0 0"/><path d="M12.009 26.636v-.421h-.22v.406c0 .515-.233.797-.53.797-.5 0-.5-.64-.5-.766V24.59h1.125v-.25h-1.125v-1.375h-.235c0 .671-.312 1.39-1 1.421v.204h.672v2.046c0 .875.672 1.016 1.016 1.016.5 0 .797-.453.797-1.016zm4.206-.656a1.76 1.76 0 0 0-1.765-1.75 1.77 1.77 0 0 0-1.766 1.75c0 .938.813 1.672 1.766 1.672.969 0 1.765-.734 1.765-1.672Zm-.671-.078c0 .36-.016.766-.22 1.078-.202.297-.546.438-.874.438-.406 0-.719-.203-.875-.453-.188-.313-.219-.688-.219-1.063 0-.281 0-.734.235-1.047.187-.265.515-.422.859-.422.39 0 .719.188.89.453.204.313.204.72.204 1.016zm5.06.047c0-.938-.765-1.688-1.672-1.688-.28 0-.718.079-1.109.47v-.47l-1.11.094v.235c.532 0 .563.046.563.359v3.5c0 .328-.078.328-.562.328v.25c.312-.016.656-.016.859-.016.203 0 .531 0 .844.016v-.25c-.469 0-.563 0-.563-.328v-1.25c.344.39.735.453.969.453.953 0 1.781-.734 1.781-1.703zm-.672 0c0 .875-.53 1.484-1.14 1.484a.978.978 0 0 1-.844-.484c-.094-.125-.094-.125-.094-.281v-1.594a1.195 1.195 0 0 1 1.016-.578c.578 0 1.062.64 1.062 1.453zm0 0"/><path fill="none" stroke="#000" stroke-linecap="round" stroke-miterlimit="10" stroke-width=".399" d="M24.57 25.996h12.184"/><path d="m38.746 25.996-3.187-1.594 1.195 1.594-1.195 1.594"/><path fill="#F0E5E5" d="M235.184 18.91H221.66c-.781 0-1.418.633-1.418 1.414v11.34a1.42 1.42 0 0 0 1.418 1.418h13.524a1.42 1.42 0 0 0 1.418-1.418v-11.34c0-.781-.637-1.414-1.418-1.414Zm0 0"/><g clip-path="url(#y)"><g clip-path="url(#z)"><g clip-path="url(#A)"><path fill="url(#B)" d="m222.156 38.34-6.469-17.774 19-6.914 6.47 17.77Zm0 0"/></g></g></g><path fill="none" stroke="#000" stroke-miterlimit="10" stroke-width=".399" d="M235.184 18.91H221.66c-.781 0-1.418.633-1.418 1.414v11.34a1.42 1.42 0 0 0 1.418 1.418h13.524a1.42 1.42 0 0 0 1.418-1.418v-11.34c0-.781-.637-1.414-1.418-1.414Zm0 0"/><path d="M225.71 25.046c.298 0 1.079-.031 1.594-.25.75-.312.797-.922.797-1.078 0-.453-.406-.89-1.125-.89-1.172 0-2.75 1.015-2.75 2.859 0 1.062.625 1.89 1.641 1.89 1.516 0 2.39-1.109 2.39-1.234 0-.063-.062-.14-.124-.14-.047 0-.079.03-.141.109-.828 1.047-1.969 1.047-2.094 1.047-.828 0-.922-.891-.922-1.22 0-.124.016-.452.172-1.093zm-.5-.234c.407-1.594 1.5-1.75 1.766-1.75.5 0 .782.297.782.656 0 1.094-1.688 1.094-2.11 1.094zm7.015 2.012c0-.765-.094-1.328-.406-1.812-.22-.313-.657-.594-1.204-.594-1.625 0-1.625 1.906-1.625 2.406 0 .5 0 2.36 1.625 2.36 1.61 0 1.61-1.86 1.61-2.36zm-1.61 2.156c-.328 0-.75-.187-.89-.75-.094-.406-.094-.984-.094-1.5 0-.515 0-1.046.094-1.421.156-.547.594-.704.89-.704.375 0 .735.235.86.641.11.375.125.875.125 1.484 0 .516 0 1.032-.094 1.47-.14.64-.61.78-.89.78zm0 0"/><path fill="#E5E5F0" d="M249.754 18.91h-11.336c-.785 0-1.418.633-1.418 1.414v11.34c0 .781.633 1.418 1.418 1.418h11.336c.785 0 1.418-.637 1.418-1.418v-11.34c0-.781-.633-1.414-1.418-1.414Zm0 0"/><g clip-path="url(#C)"><g clip-path="url(#D)"><g clip-path="url(#E)"><path fill="url(#F)" d="m238.656 37.637-6.21-17.07 17.07-6.215 6.21 17.07Zm0 0"/></g></g></g><path fill="none" stroke="#000" stroke-miterlimit="10" stroke-width=".399" d="M249.754 18.91h-11.336c-.785 0-1.418.633-1.418 1.414v11.34c0 .781.633 1.418 1.418 1.418h11.336c.785 0 1.418-.637 1.418-1.418v-11.34c0-.781-.633-1.414-1.418-1.414Zm0 0"/><path fill="none" stroke="#000" stroke-dasharray="2.98883 2.98883" stroke-linecap="round" stroke-miterlimit="10" stroke-width=".399" d="M187.246 25.996c10.207 19.965 41.926 24.031 55.516 8.774"/><path d="m244.086 33.281-3.309 1.32 1.985.169.394 1.953m-39.88-11.02a.57.57 0 0 0-.563-.563.567.567 0 0 0-.547.563c0 .297.25.562.547.562a.57.57 0 0 0 .563-.562zm4.651 0a.57.57 0 0 0-.562-.563.567.567 0 0 0-.547.563c0 .297.25.562.547.562a.57.57 0 0 0 .562-.562zm4.663 0a.57.57 0 0 0-.563-.563.567.567 0 0 0-.547.563c0 .297.25.562.547.562a.57.57 0 0 0 .562-.562zm0 0"/><path fill="none" stroke="#000" stroke-miterlimit="10" stroke-width=".399" d="M246.922 25.996a2.836 2.836 0 1 0-5.672 0 2.832 2.832 0 0 0 2.836 2.832 2.832 2.832 0 0 0 2.836-2.832Zm0 0"/><path d="M86.773 58.005h-.25c-.094.922-.219 2.047-1.828 2.047h-.781c-.422 0-.453-.063-.453-.36v-4.78c0-.345.046-.454.859-.454h.297v-.266c-.328.016-1.14.016-1.5.016-.406 0-.969 0-1.375-.016v.266h.203c.687 0 .719.11.719.438v4.718c0 .344-.032.438-.72.438h-.202v.281h4.781Zm2.684 2.328v-.281c-.593 0-.625-.047-.625-.39v-3.313l-1.297.109v.281c.579 0 .657.047.657.485v2.422c0 .406-.094.406-.688.406v.281c.406-.016.594-.031.985-.031.14 0 .53 0 .968.031zm-.515-5.422a.468.468 0 0 0-.485-.484.477.477 0 0 0-.484.484c0 .266.219.484.484.484a.477.477 0 0 0 .485-.484zm5.73 5.422v-.281c-.453 0-.688 0-.688-.282v-1.718c0-.75 0-1.016-.25-1.328-.218-.25-.562-.375-1-.375-.843 0-1.234.625-1.359.875v-.875l-1.313.109v.281c.61 0 .704.063.704.5v2.407c0 .406-.11.406-.704.406v.281c.422-.016.594-.031 1.032-.031.422 0 .547.015 1.015.031v-.281c-.593 0-.687 0-.687-.407v-1.64c0-.953.672-1.422 1.25-1.422.531 0 .64.438.64.984v2.078c0 .407-.093.407-.687.407v.281c.422-.016.594-.031 1.016-.031.437 0 .562.015 1.03.031zm4.936 0v-.281c-.297 0-.516 0-.844-.438l-1.281-1.734c.89-.766 1.297-1.125 1.922-1.14v-.282c-.329.016-.344.016-.672.016l-.985-.016v.281c.125 0 .235.063.235.203 0 .172-.14.297-.219.36l-1.266 1.078v-4.297l-1.343.11v.265c.609 0 .703.063.703.516v4.672c0 .406-.11.406-.703.406v.281l1-.031 1 .031v-.281c-.594 0-.688 0-.688-.407v-.921l.578-.485.875 1.188c.14.187.203.297.203.422 0 .093-.015.203-.297.203v.281l.97-.031c.265 0 .546 0 .812.031zm3.751-1.078c0-.063-.047-.11-.125-.11-.094 0-.125.063-.125.094a1.287 1.287 0 0 1-1.25.938c-.422 0-.797-.235-1-.547-.297-.438-.313-.985-.313-1.36h2.563c.203 0 .25 0 .25-.187 0-.922-.5-1.781-1.657-1.781-1.078 0-1.921.937-1.921 2.047 0 1.187.937 2.078 2.03 2.078 1.11 0 1.548-.953 1.548-1.172zm-.61-1.203h-2.187c.078-1.375.89-1.532 1.14-1.532.5 0 1.032.391 1.047 1.532zm5.738 2.281v-.281c-.609 0-.687-.063-.687-.5v-5.469l-1.344.11v.265c.625 0 .703.063.703.516v1.906c-.047-.047-.453-.531-1.156-.531-1.11 0-2.063.89-2.063 2.047 0 1.124.891 2.03 1.97 2.03.656 0 1.062-.374 1.218-.577v.578Zm-1.359-1.078c0 .156 0 .187-.14.375a1.259 1.259 0 0 1-1.047.578c-.391 0-.75-.219-.985-.594-.234-.39-.25-.922-.25-1.203 0-.422.063-.906.297-1.266a1.271 1.271 0 0 1 1.031-.562c.39 0 .75.188.985.531.109.14.109.157.109.328Zm10.092-1.25h-.25c-.094.922-.219 2.047-1.828 2.047h-.781c-.422 0-.454-.063-.454-.36v-4.78c0-.345.047-.454.86-.454h.297v-.266c-.328.016-1.14.016-1.5.016-.406 0-.969 0-1.375-.016v.266h.203c.687 0 .719.11.719.438v4.718c0 .344-.032.438-.72.438h-.202v.281h4.781Zm2.684 2.328v-.281c-.593 0-.625-.047-.625-.39v-3.313l-1.297.109v.281c.579 0 .657.047.657.485v2.422c0 .406-.094.406-.688.406v.281c.406-.016.594-.031.985-.031.14 0 .53 0 .968.031zm-.515-5.422a.468.468 0 0 0-.485-.484.477.477 0 0 0-.484.484c0 .266.219.484.484.484a.477.477 0 0 0 .485-.484zm4.136 4.266c0-.407-.172-.64-.375-.844-.312-.297-.625-.36-1.297-.5-.234-.031-.89-.156-.89-.672 0-.281.203-.656 1.03-.656.97 0 1.032.734 1.048.969.015.109.015.156.125.156.125 0 .125-.063.125-.235v-.859c0-.156 0-.234-.11-.234-.046 0-.062 0-.171.11-.016.015-.11.093-.157.14-.281-.203-.562-.25-.86-.25-1.187 0-1.483.656-1.483 1.11 0 .296.124.53.328.718.297.281.64.344 1.109.437.453.078.61.11.813.266.078.063.312.234.312.578 0 .797-.906.797-1.031.797-.922 0-1.156-.766-1.266-1.25-.031-.094-.031-.14-.14-.14-.126 0-.126.062-.126.234v1.14c0 .157 0 .235.094.235.063 0 .078 0 .235-.172.03-.063.14-.172.172-.219.39.375.796.39 1.03.39 1.094 0 1.485-.64 1.485-1.25zm3.395.047v-.516h-.25v.484c0 .657-.281.985-.61.985-.593 0-.593-.782-.593-.953v-2.485h1.297v-.281h-1.297v-1.656h-.25c-.016.75-.328 1.672-1.203 1.703v.234h.781v2.485c0 1 .734 1.203 1.203 1.203.61 0 .922-.578.922-1.203zm9.64-.532c0-.812-.781-1.468-1.781-1.578.89-.172 1.516-.734 1.516-1.406 0-.797-.86-1.516-2.047-1.516h-3.344v.266h.203c.688 0 .703.11.703.438v4.718c0 .344-.015.438-.703.438h-.203v.281h3.594c1.219 0 2.062-.797 2.062-1.64zm-1.125-2.984c0 .688-.61 1.313-1.453 1.313h-1.406v-2.188c0-.313.016-.375.437-.375h1.172c.875 0 1.25.703 1.25 1.25zm.235 2.969c0 .687-.547 1.375-1.47 1.375h-1.187c-.421 0-.437-.063-.437-.36V57.24h1.703c1.031 0 1.39.89 1.39 1.438zm5.88.859v-.516h-.25v.5c0 .094 0 .547-.328.547-.313 0-.313-.422-.313-.578v-1.562c0-.516 0-.828-.406-1.188a1.826 1.826 0 0 0-1.219-.437c-.75 0-1.39.375-1.39.953 0 .281.187.437.421.437a.41.41 0 0 0 .422-.422c0-.39-.406-.421-.406-.421.234-.235.672-.328.937-.328.454 0 .97.343.97 1.14v.297c-.485.016-1.157.063-1.766.344-.641.328-.844.797-.844 1.156 0 .734.875.969 1.469.969a1.31 1.31 0 0 0 1.218-.735c.047.375.313.688.703.688.22 0 .782-.125.782-.844zm-1.563-.469c0 .875-.672 1.141-1.062 1.141-.438 0-.828-.313-.828-.75 0-.594.515-1.234 1.89-1.281zm5.048.11c0-.407-.172-.64-.375-.844-.312-.297-.625-.36-1.297-.5-.234-.031-.89-.156-.89-.672 0-.281.203-.656 1.03-.656.97 0 1.032.734 1.048.969.015.109.015.156.125.156.125 0 .125-.063.125-.235v-.859c0-.156 0-.234-.11-.234-.047 0-.062 0-.172.11-.015.015-.109.093-.156.14-.281-.203-.562-.25-.86-.25-1.187 0-1.483.656-1.483 1.11 0 .296.124.53.328.718.296.281.64.344 1.109.437.453.078.61.11.813.266.078.063.312.234.312.578 0 .797-.906.797-1.031.797-.922 0-1.156-.766-1.266-1.25-.031-.094-.031-.14-.14-.14-.126 0-.126.062-.126.234v1.14c0 .157 0 .235.094.235.063 0 .078 0 .235-.172.03-.063.14-.172.171-.219.391.375.797.39 1.032.39 1.094 0 1.484-.64 1.484-1.25zm4.161.078c0-.063-.047-.11-.125-.11-.094 0-.125.063-.125.094a1.287 1.287 0 0 1-1.25.938c-.422 0-.797-.235-1-.547-.297-.438-.313-.985-.313-1.36h2.563c.203 0 .25 0 .25-.187 0-.922-.5-1.781-1.656-1.781-1.079 0-1.922.937-1.922 2.047 0 1.187.937 2.078 2.03 2.078 1.11 0 1.548-.953 1.548-1.172zm-.61-1.203H146.4c.078-1.375.89-1.532 1.14-1.532.5 0 1.032.391 1.047 1.532zm5.738 2.281v-.281c-.609 0-.687-.063-.687-.5v-5.469l-1.344.11v.265c.625 0 .703.063.703.516v1.906c-.047-.047-.453-.531-1.156-.531-1.11 0-2.063.89-2.063 2.047 0 1.124.891 2.03 1.97 2.03.655 0 1.062-.374 1.218-.577v.578Zm-1.359-1.078c0 .156 0 .187-.14.375a1.259 1.259 0 0 1-1.047.578c-.391 0-.75-.219-.985-.594-.234-.39-.25-.922-.25-1.203 0-.422.063-.906.297-1.266a1.271 1.271 0 0 1 1.031-.562c.39 0 .75.188.985.531.109.14.109.157.109.328Zm9.335-.594c0-.5-.187-.906-.39-1.172-.39-.5-.797-.593-1.39-.734l-.782-.188c-.719-.172-.953-.75-.953-1.14 0-.61.484-1.188 1.234-1.188 1.156 0 1.625.86 1.766 1.782.015.156.031.203.14.203.125 0 .125-.063.125-.25v-1.735c0-.172 0-.25-.109-.25-.063 0-.078 0-.14.11-.11.172-.016.047-.329.515-.14-.172-.61-.625-1.453-.625-1.062 0-1.812.813-1.812 1.735 0 .703.421 1.14.468 1.187.407.39.563.438 1.641.688.719.172.797.187 1.094.5 0 0 .328.328.328.859 0 .625-.453 1.297-1.266 1.297-.687 0-1.937-.297-2.015-1.781-.016-.125-.016-.188-.125-.188-.125 0-.125.078-.125.25v1.75c0 .172 0 .25.109.25.062 0 .062-.016.125-.125.125-.156.031-.047.328-.516.563.547 1.266.641 1.719.641 1.094 0 1.812-.906 1.812-1.875zm3.608.563v-.516h-.25v.484c0 .657-.281.985-.61.985-.593 0-.593-.782-.593-.953v-2.485h1.297v-.281h-1.297v-1.656h-.25c-.016.75-.328 1.672-1.203 1.703v.234h.781v2.485c0 1 .735 1.203 1.203 1.203.61 0 .922-.578.922-1.203zm4.991.312v-.516h-.25v.5c0 .094 0 .547-.328.547-.313 0-.313-.422-.313-.578v-1.562c0-.516 0-.828-.406-1.188a1.826 1.826 0 0 0-1.219-.437c-.75 0-1.39.375-1.39.953 0 .281.187.437.421.437a.41.41 0 0 0 .422-.422c0-.39-.406-.421-.406-.421.234-.235.672-.328.937-.328.454 0 .97.343.97 1.14v.297c-.485.016-1.157.063-1.766.344-.641.328-.844.797-.844 1.156 0 .734.875.969 1.469.969a1.31 1.31 0 0 0 1.218-.735c.047.375.313.688.703.688.22 0 .782-.125.782-.844zm-1.563-.469c0 .875-.672 1.141-1.062 1.141-.438 0-.828-.313-.828-.75 0-.594.515-1.234 1.89-1.281zm5.564.188c0-.094-.094-.094-.125-.094-.094 0-.094.016-.156.156-.204.625-.704.86-1.172.86-.578 0-1.313-.469-1.313-1.797 0-1.406.719-1.828 1.266-1.828.11 0 .594.015.937.25-.187.031-.375.156-.375.422 0 .234.188.406.422.406.235 0 .422-.156.422-.422 0-.563-.64-.906-1.422-.906-1.156 0-2.015.968-2.015 2.093 0 1.157.921 2.032 1.984 2.032 1.266 0 1.547-1.078 1.547-1.172zm4.736 1.078v-.281c-.297 0-.516 0-.844-.438l-1.281-1.734c.89-.766 1.297-1.125 1.922-1.14v-.282c-.328.016-.344.016-.672.016l-.985-.016v.281c.125 0 .235.063.235.203 0 .172-.14.297-.219.36l-1.266 1.078v-4.297l-1.343.11v.265c.609 0 .703.063.703.516v4.672c0 .406-.11.406-.703.406v.281l1-.031 1 .031v-.281c-.594 0-.688 0-.688-.407v-.921l.578-.485.875 1.188c.14.187.203.297.203.422 0 .093-.015.203-.296.203v.281l.968-.031c.266 0 .547 0 .813.031zm0 0"/></svg>