<svg xmlns="http://www.w3.org/2000/svg" width="556.84" height="224.093" viewBox="0 0 417.63 168.07"><path fill="none" stroke="#000" stroke-miterlimit="10" stroke-width=".399" d="M39.813 143.98H61.07v-21.26H39.812Zm0-21.66H61.07v-21.26H39.812Zm0-21.66H61.07V79.402H39.812Zm0-21.656H61.07V57.742H39.812Zm0-21.66H61.07V36.086H39.812Zm0-21.657H61.07V14.426H39.812Zm0 0"/><path d="M69.326 133.375c0-.828-.11-1.421-.453-1.937-.235-.36-.688-.656-1.297-.656-1.734 0-1.734 2.047-1.734 2.593 0 .532 0 2.547 1.734 2.547 1.75 0 1.75-2.015 1.75-2.547zm-1.75 2.329c-.344 0-.797-.204-.953-.813-.094-.437-.094-1.062-.094-1.61 0-.546 0-1.124.11-1.53a.956.956 0 0 1 .937-.75c.406 0 .797.25.937.671.125.407.125.953.125 1.61 0 .547 0 1.109-.093 1.578-.157.687-.657.844-.969.844Zm.391-26.363c0-.203-.016-.218-.235-.218-.469.484-1.156.484-1.469.484v.266c.188 0 .688 0 1.094-.204v3.829c0 .234 0 .343-.75.343h-.281v.266c.125 0 1.047-.031 1.328-.031.234 0 1.172.031 1.344.031v-.266h-.281c-.75 0-.75-.109-.75-.343zm1.265-18.251h-.25c-.015.156-.094.609-.187.671-.063.047-.64.047-.75.047H66.67c.781-.687 1.047-.906 1.5-1.25.547-.453 1.062-.922 1.062-1.625 0-.906-.781-1.468-1.75-1.468-.922 0-1.562.656-1.562 1.343 0 .391.328.422.406.422.172 0 .39-.125.39-.39 0-.141-.046-.407-.437-.407.234-.53.734-.687 1.094-.687.75 0 1.14.578 1.14 1.187 0 .657-.468 1.172-.703 1.438l-1.812 1.781c-.078.078-.078.094-.078.297h3.093Zm-1.734-22.8c.578 0 1 .406 1 1.203 0 .922-.531 1.203-.969 1.203-.297 0-.953-.078-1.281-.515.36-.016.437-.266.437-.422 0-.25-.172-.422-.406-.422-.219 0-.422.14-.422.437 0 .704.781 1.172 1.688 1.172 1.047 0 1.765-.703 1.765-1.453 0-.578-.484-1.172-1.312-1.344.797-.28 1.078-.843 1.078-1.296 0-.594-.688-1.047-1.516-1.047-.828 0-1.468.406-1.468 1.015 0 .25.156.39.39.39a.36.36 0 0 0 .375-.374c0-.219-.14-.375-.375-.39.266-.344.781-.423 1.047-.423.344 0 .813.172.813.829 0 .312-.094.656-.297.89-.25.281-.453.297-.828.313-.188.015-.204.015-.25.03-.016 0-.063.017-.063.095 0 .109.063.109.188.109zm1.922-20.393v-.266h-.828v-3.344c0-.156 0-.218-.172-.218-.094 0-.125 0-.188.109l-2.484 3.453v.266h2.203v.625c0 .25 0 .343-.61.343h-.203v.266c.375-.016.86-.031 1.125-.031.282 0 .75.015 1.125.031v-.266h-.187c-.61 0-.61-.093-.61-.343v-.625zm-1.422-3.016v2.75h-1.985Zm-1.391-21.596c.39.094.61.094.735.094.984 0 1.578-.672 1.578-.781 0-.078-.063-.11-.094-.11-.016 0-.031 0-.063.032-.171.062-.578.219-1.125.219-.218 0-.609-.016-1.093-.204-.078-.046-.094-.046-.11-.046-.093 0-.093.093-.093.203v2.218c0 .125 0 .22.125.22.062 0 .078-.016.14-.11.328-.406.781-.469 1.047-.469a.78.78 0 0 1 .688.422c.14.25.187.531.187.969 0 .218 0 .656-.234.984-.188.281-.5.453-.875.453-.485 0-.985-.265-1.172-.765.281.03.422-.157.422-.36 0-.328-.282-.39-.375-.39-.016 0-.375 0-.375.406 0 .672.625 1.36 1.515 1.36.97 0 1.797-.72 1.797-1.657 0-.86-.64-1.64-1.562-1.64a1.64 1.64 0 0 0-1.063.374zm0 0"/><path fill="none" stroke="#000" stroke-linecap="round" stroke-miterlimit="10" stroke-width=".399" d="M29.691 137.602h7.93"/><path d="m39.613 137.602-3.191-1.594 1.2 1.594-1.2 1.593m-24.425-3.725c0-.329-.312-.547-.719-.547-.562 0-1.218.406-1.218 1.203v.844h-.625v.25h.625v2.406c0 .328-.094.328-.579.328v.25c.297-.016.704-.016.891-.016.438 0 .453 0 .938.016v-.25h-.141c-.547 0-.563-.078-.563-.344v-2.39h.891v-.25h-.922v-.844c0-.656.375-.985.703-.985a.52.52 0 0 1 .22.032c-.142.062-.173.187-.173.297 0 .187.14.328.328.328.203 0 .344-.14.344-.328zm2.485 1.906c0-.266-.235-.485-.563-.485-.484 0-.813.375-.984.797v-.797l-1.063.094v.235c.5 0 .563.062.563.421v1.985c0 .328-.079.328-.563.328v.25c.297-.016.703-.016.875-.016.453 0 .469 0 .953.016v-.25h-.156c-.547 0-.563-.078-.563-.344v-1.11c0-.562.235-1.374.954-1.39-.047.031-.11.094-.11.266a.32.32 0 0 0 .328.328.32.32 0 0 0 .329-.328Zm3.98 1.234a1.76 1.76 0 0 0-1.766-1.75 1.77 1.77 0 0 0-1.766 1.75c0 .938.813 1.672 1.766 1.672.969 0 1.765-.734 1.765-1.672Zm-.672-.078c0 .36-.016.766-.22 1.078-.202.297-.546.438-.874.438-.406 0-.719-.203-.875-.453-.188-.313-.219-.688-.219-1.063 0-.281 0-.734.235-1.047.187-.265.515-.422.859-.422.39 0 .719.188.89.453.204.313.204.72.204 1.016zm5.123 1.672v-.25c-.485 0-.578 0-.578-.328v-1.688c0-.64-.282-1.047-1.063-1.047-.75 0-1.078.547-1.172.72h-.015v-.72l-1.079.094v.235c.5 0 .563.062.563.421v1.985c0 .328-.094.328-.563.328v.25c.313-.016.641-.016.844-.016.219 0 .531 0 .86.016v-.25c-.485 0-.563 0-.563-.328v-1.36c0-.796.594-1.156 1.047-1.156.469 0 .578.313.578.797v1.719c0 .328-.094.328-.578.328v.25c.328-.016.656-.016.86-.016.218 0 .53 0 .859.016zm2.622-.938v-.421h-.22v.406c0 .515-.234.797-.53.797-.5 0-.5-.64-.5-.766v-2.062h1.125v-.25h-1.125v-1.375h-.235c0 .671-.312 1.39-1 1.421v.204h.672v2.046c0 .875.672 1.016 1.016 1.016.5 0 .797-.453.797-1.016zm0 0"/><path fill="none" stroke="#000" stroke-linecap="round" stroke-miterlimit="10" stroke-width=".399" d="M29.691 129.098h7.93"/><path d="m39.613 129.098-3.191-1.594 1.2 1.594-1.2 1.593m-21.288-2.787c0-.266-.234-.485-.563-.485-.484 0-.812.375-.984.797v-.797l-1.062.094v.235c.5 0 .562.062.562.421v1.985c0 .328-.078.328-.562.328v.25c.296-.016.703-.016.875-.016.453 0 .468 0 .953.016v-.25h-.156c-.547 0-.563-.078-.563-.344v-1.11c0-.562.234-1.374.953-1.39-.047.031-.11.094-.11.266a.32.32 0 0 0 .329.328.32.32 0 0 0 .328-.328Zm3.543 1.922c0-.032-.032-.094-.125-.094-.079 0-.094.047-.11.094-.265.718-.922.75-1.047.75-.343 0-.687-.157-.906-.5-.234-.344-.234-.828-.234-1.047h2.203c.172 0 .219 0 .219-.172 0-.672-.375-1.469-1.438-1.469-.922 0-1.656.766-1.656 1.703 0 .97.812 1.72 1.765 1.72.954 0 1.329-.813 1.329-.985zm-.516-1h-1.89c.062-1.047.702-1.235.968-1.235.89 0 .922 1.063.922 1.235zm4.602 1.234v-.422h-.234v.422c0 .297-.11.422-.266.422-.28 0-.28-.344-.28-.422v-1.562c0-.735-.72-1.11-1.392-1.11-.625 0-1.187.235-1.187.735 0 .218.156.359.36.359.202 0 .343-.156.343-.36a.352.352 0 0 0-.266-.343c.266-.188.672-.188.735-.188.406 0 .828.297.828.907v.234c-.438.031-.938.047-1.453.266-.672.28-.797.718-.797.968 0 .641.766.844 1.281.844.547 0 .89-.312 1.047-.61.047.282.234.563.563.563.078 0 .718-.031.718-.703Zm-1.359-.39c0 .734-.61.921-.906.921-.39 0-.719-.25-.719-.609 0-.5.453-1.016 1.625-1.047zm4.357-1.766c0-.266-.234-.485-.562-.485-.484 0-.813.375-.984.797v-.797l-1.063.094v.235c.5 0 .563.062.563.421v1.985c0 .328-.079.328-.563.328v.25c.297-.016.703-.016.875-.016.453 0 .469 0 .953.016v-.25h-.156c-.547 0-.563-.078-.563-.344v-1.11c0-.562.235-1.374.954-1.39-.047.031-.11.094-.11.266a.32.32 0 0 0 .328.328.32.32 0 0 0 .328-.328Zm2.629 26.825h-.25c-.22 1.406-.453 2.047-2 2.047h-1.25c-.422 0-.453-.063-.453-.36v-2.406h.843c.875 0 .985.281.985 1.063h.265v-2.391h-.265c0 .781-.11 1.047-.985 1.047h-.843v-2.14c0-.313.03-.376.453-.376h1.203c1.406 0 1.656.485 1.797 1.75h.25l-.25-2.031h-5.172v.281h.203c.687 0 .719.11.719.438v4.687c0 .344-.032.438-.72.438h-.202v.281h5.297zm7.775 2.328v-.281c-.469 0-.687 0-.703-.281v-1.72c0-.78 0-1.046-.297-1.374-.187-.219-.547-.328-.953-.328-.656 0-1.094.39-1.344.859-.11-.531-.469-.86-1.219-.86-.718 0-1.171.47-1.359.891v-.89l-1.312.109v.281c.609 0 .703.063.703.5v2.407c0 .406-.11.406-.703.406v.281c.421-.016.593-.031 1.03-.031.423 0 .548.015 1.016.031v-.281c-.593 0-.687 0-.687-.406v-1.641c0-.969.703-1.422 1.25-1.422.484 0 .656.344.656.984v2.079c0 .406-.11.406-.703.406v.281c.422-.016.594-.031 1.031-.031.438 0 .547.015 1.032.031v-.281c-.594 0-.704 0-.704-.406v-1.641c0-.969.704-1.422 1.25-1.422.485 0 .657.344.657.984v2.079c0 .406-.11.406-.703.406v.281c.437-.016.593-.031 1.03-.031.438 0 .548.015 1.032.031Zm5.032-1.937c0-1.141-.89-2.047-1.953-2.047-.484 0-.938.203-1.266.578v-.578l-1.343.109v.281c.64 0 .703.047.703.438v4.203c0 .422-.11.422-.703.422v.281c.421-.016.593-.031 1.03-.031.438 0 .548.015 1.032.031v-.281c-.594 0-.703 0-.703-.422v-1.484c.234.234.547.53 1.14.53 1.063 0 2.063-.859 2.063-2.03zm-.781 0c0 1.015-.61 1.812-1.344 1.812-.406 0-.734-.234-.953-.547-.125-.187-.125-.203-.125-.375v-1.984a1.39 1.39 0 0 1 1.187-.688c.704 0 1.235.797 1.235 1.782zm4.17.828v-.516h-.25v.484c0 .657-.281.985-.61.985-.593 0-.593-.781-.593-.953v-2.485h1.297v-.281h-1.297v-1.656h-.25c-.016.75-.328 1.672-1.203 1.703v.234h.781v2.485c0 1 .734 1.203 1.203 1.203.61 0 .922-.578.922-1.203zm4.949-2.485v-.281a13.01 13.01 0 0 1-.688.016c-.25 0-.531 0-.781-.016v.281c.406.016.406.328.406.375a.589.589 0 0 1-.063.25l-.921 2.157-1-2.36c-.063-.125-.063-.187-.063-.187 0-.235.313-.235.5-.235v-.281l-1 .016c-.031 0-.531 0-.89-.016v.281c.406 0 .578.016.687.25l1.422 3.344-.234.531c-.188.485-.454 1.094-1.032 1.094a.646.646 0 0 1-.406-.14c.063-.016.313-.079.313-.391 0-.235-.157-.375-.375-.375-.22 0-.375.14-.375.39 0 .407.375.735.843.735.578 0 .969-.516 1.188-1.016l1.625-3.812c.093-.235.265-.594.843-.61Zm9.987 3.672c0-.078 0-.187-.11-.187-.062 0-.109.062-.109.093-.078.797-.687.844-.828.844-.484 0-.672-.39-.89-.89.968-.391 1.89-1.5 1.89-2.985 0-1.844-1.39-3.297-3.078-3.297s-3.078 1.469-3.078 3.297 1.406 3.25 3.078 3.25c.312 0 .656-.062.875-.125.156.89.297 1.672 1.125 1.672.937 0 1.125-1.203 1.125-1.672zm-.938-3.125c0 1.188-.36 2.14-1.14 2.656-.172-.453-.453-.953-1.047-.953a.767.767 0 0 0-.766.766c0 .219.11.39.11.39-.875-.328-1.532-1.25-1.532-2.859 0-2.234 1.25-3.047 2.188-3.047.937 0 2.187.797 2.187 3.047zm-1.39 2.797c-.266.14-.563.203-.797.203-.438 0-.531-.39-.531-.531a.53.53 0 0 1 .546-.531c.485 0 .672.375.782.859zm7.722.25v-.281c-.61 0-.688-.063-.688-.5v-3.203l-1.359.109v.281c.61 0 .687.063.687.5v1.594c0 .797-.453 1.375-1.093 1.375-.75 0-.797-.39-.797-.875v-2.984l-1.36.109v.281c.704 0 .704.016.704.828v1.344c0 .578 0 .969.406 1.281.265.172.625.235.984.235.469 0 .922-.203 1.172-.735h.016v.735Zm4.061-1.078c0-.063-.047-.11-.125-.11-.094 0-.125.063-.125.094a1.287 1.287 0 0 1-1.25.938c-.422 0-.797-.235-1-.547-.297-.438-.313-.984-.313-1.36h2.563c.203 0 .25 0 .25-.187 0-.922-.5-1.781-1.656-1.781-1.079 0-1.922.937-1.922 2.047 0 1.187.937 2.078 2.03 2.078 1.11 0 1.548-.953 1.548-1.172zm-.61-1.203H66.18c.078-1.375.89-1.531 1.14-1.531.5 0 1.032.39 1.047 1.53zm5.801 2.281v-.281c-.61 0-.688-.063-.688-.5v-3.203l-1.359.109v.281c.61 0 .688.063.688.5v1.594c0 .797-.454 1.375-1.094 1.375-.75 0-.797-.39-.797-.875v-2.984l-1.36.109v.281c.704 0 .704.016.704.828v1.344c0 .578 0 .969.406 1.281.266.172.625.235.984.235.469 0 .922-.203 1.172-.735h.016v.735Zm4.061-1.078c0-.063-.047-.11-.125-.11-.094 0-.125.063-.125.094a1.287 1.287 0 0 1-1.25.938c-.422 0-.797-.235-1-.547-.297-.438-.313-.984-.313-1.36h2.563c.203 0 .25 0 .25-.187 0-.922-.5-1.781-1.656-1.781-1.079 0-1.922.937-1.922 2.047 0 1.187.937 2.078 2.03 2.078 1.11 0 1.548-.953 1.548-1.172zm-.61-1.203h-2.187c.078-1.375.89-1.531 1.14-1.531.5 0 1.032.39 1.047 1.53zm0 0"/><path fill="none" stroke="#000" stroke-miterlimit="10" stroke-width=".399" d="M146.512 143.98h21.258v-21.26h-21.258Zm0-21.66h21.258v-21.26h-21.258Zm0-21.66h21.258V79.402h-21.258Zm0-21.656h21.258V57.742h-21.258Zm0-21.66h21.258V36.086h-21.258Zm0-21.657h21.258V14.426h-21.258Zm0 0"/><path d="M160.733 137.108v-.328h-.187c-.64 0-.781-.078-.89-.422l-2.282-6.563c-.047-.124-.063-.203-.234-.203-.172 0-.204.063-.25.203l-2.172 6.282c-.188.531-.61.687-1.172.703v.328l1.062-.031 1.203.031v-.328c-.515 0-.78-.266-.78-.531 0-.032.015-.141.015-.157l.484-1.375h2.594l.562 1.61c0 .031.032.094.032.14 0 .313-.594.313-.875.313v.328c.375-.031 1.109-.031 1.515-.031Zm-2.719-2.719h-2.359l1.172-3.406Zm2.237-21.035c0-.906-.86-1.703-2.016-1.828 1.016-.203 1.735-.875 1.735-1.64 0-.922-.953-1.782-2.328-1.782h-3.844v.328h.25c.813 0 .828.11.828.485v5.546c0 .376-.016.485-.828.485h-.25v.328h4.125c1.39 0 2.328-.938 2.328-1.922Zm-1.297-3.469c0 .672-.515 1.547-1.672 1.547h-1.53v-2.578c0-.344.03-.422.515-.422h1.297c1.03 0 1.39.89 1.39 1.453zm.25 3.453c0 .75-.547 1.61-1.625 1.61h-1.312c-.485 0-.516-.078-.516-.422v-2.86h1.984c1.032 0 1.47.97 1.47 1.672zm1.13-22.173c0-.094 0-.172-.14-.172-.11 0-.11.062-.125.172-.078 1.5-1.203 2.36-2.344 2.36-.64 0-2.703-.36-2.703-3.485 0-3.14 2.047-3.5 2.687-3.5 1.141 0 2.079.953 2.282 2.484.03.156.03.188.172.188.171 0 .171-.032.171-.25v-2.5c0-.172 0-.25-.125-.25-.03 0-.078 0-.156.125l-.531.781c-.39-.375-.922-.906-1.938-.906-1.953 0-3.64 1.672-3.64 3.812 0 2.172 1.687 3.828 3.64 3.828 1.72 0 2.75-1.468 2.75-2.687zm0 0"/><path fill="none" stroke="#000" stroke-linecap="round" stroke-miterlimit="10" stroke-width=".399" d="M136.39 133.348h7.926"/><path d="m146.313 133.348-3.192-1.594 1.195 1.594-1.195 1.593m-24.425-3.723c0-.328-.312-.547-.719-.547-.562 0-1.218.406-1.218 1.203v.844h-.625v.25h.625v2.406c0 .328-.094.328-.579.328v.25c.297-.016.704-.016.891-.016.438 0 .453 0 .938.016v-.25h-.141c-.547 0-.563-.078-.563-.344v-2.39h.891v-.25h-.922v-.844c0-.656.375-.984.703-.984a.52.52 0 0 1 .22.03c-.142.063-.173.188-.173.298 0 .187.14.328.328.328.203 0 .344-.14.344-.328zm2.484 1.906c0-.266-.234-.484-.562-.484-.484 0-.813.375-.984.796v-.797l-1.063.094v.235c.5 0 .563.062.563.422v1.984c0 .328-.079.328-.563.328v.25c.297-.016.703-.016.875-.016.453 0 .469 0 .953.016v-.25h-.156c-.547 0-.563-.078-.563-.344v-1.11c0-.562.235-1.374.954-1.39-.047.031-.11.094-.11.266a.32.32 0 0 0 .328.328.32.32 0 0 0 .328-.328Zm3.98 1.234a1.76 1.76 0 0 0-1.765-1.75 1.77 1.77 0 0 0-1.766 1.75c0 .938.813 1.672 1.766 1.672.969 0 1.766-.734 1.766-1.672Zm-.671-.078c0 .36-.016.766-.22 1.078-.202.297-.546.438-.874.438-.406 0-.719-.203-.875-.453-.188-.313-.219-.688-.219-1.063 0-.281 0-.734.234-1.047.188-.265.516-.422.86-.422.39 0 .719.188.89.453.204.313.204.72.204 1.016zm5.123 1.672v-.25c-.485 0-.578 0-.578-.328v-1.688c0-.64-.282-1.047-1.063-1.047-.75 0-1.078.547-1.172.72h-.015v-.72l-1.079.094v.235c.5 0 .563.062.563.422v1.984c0 .328-.094.328-.563.328v.25c.313-.016.641-.016.844-.016.219 0 .531 0 .86.016v-.25c-.485 0-.563 0-.563-.328v-1.36c0-.796.594-1.156 1.047-1.156.469 0 .578.313.578.797v1.719c0 .328-.094.328-.578.328v.25c.328-.016.656-.016.86-.016.218 0 .53 0 .859.016zm2.622-.938v-.421h-.22v.406c0 .516-.234.797-.53.797-.5 0-.5-.64-.5-.766v-2.062h1.125v-.25h-1.125v-1.375h-.235c0 .672-.312 1.39-1 1.422v.203h.672v2.047c0 .875.672 1.015 1.016 1.015.5 0 .797-.453.797-1.016zm0 0"/><path fill="none" stroke="#000" stroke-linecap="round" stroke-miterlimit="10" stroke-width=".399" d="M136.39 68.375h7.926"/><path d="m146.313 68.375-3.192-1.598 1.195 1.598-1.195 1.594m-21.288-2.789c0-.266-.234-.484-.563-.484-.484 0-.812.375-.984.796v-.796l-1.062.093v.235c.5 0 .562.062.562.422v1.984c0 .328-.078.328-.562.328v.25c.296-.016.703-.016.875-.016.453 0 .468 0 .953.016v-.25h-.157c-.546 0-.562-.078-.562-.344v-1.11c0-.562.234-1.374.953-1.39-.047.032-.11.094-.11.266a.32.32 0 0 0 .329.328.32.32 0 0 0 .328-.328Zm3.543 1.922c0-.031-.032-.094-.126-.094-.078 0-.093.047-.109.094-.266.719-.922.75-1.047.75-.343 0-.687-.156-.906-.5-.234-.344-.234-.828-.234-1.047h2.203c.172 0 .219 0 .219-.172 0-.672-.376-1.469-1.438-1.469-.922 0-1.656.766-1.656 1.703 0 .97.812 1.72 1.765 1.72.954 0 1.329-.813 1.329-.985zm-.516-1h-1.89c.062-1.047.702-1.235.968-1.235.89 0 .922 1.063.922 1.235zm4.602 1.234v-.422h-.234v.422c0 .297-.11.422-.266.422-.28 0-.28-.344-.28-.422v-1.562c0-.735-.72-1.11-1.391-1.11-.625 0-1.188.235-1.188.735 0 .218.156.359.36.359.203 0 .343-.156.343-.36a.352.352 0 0 0-.265-.343c.265-.188.671-.188.734-.188.406 0 .828.297.828.907v.234c-.438.031-.938.047-1.453.266-.672.28-.797.718-.797.968 0 .641.766.844 1.281.844.547 0 .89-.312 1.047-.61.047.282.234.563.563.563.078 0 .718-.031.718-.703Zm-1.359-.39c0 .734-.61.921-.906.921-.39 0-.719-.25-.719-.609 0-.5.453-1.016 1.625-1.047zm4.357-1.766c0-.266-.234-.484-.562-.484-.484 0-.813.375-.984.796v-.796l-1.063.093v.235c.5 0 .563.062.563.422v1.984c0 .328-.079.328-.563.328v.25c.297-.016.703-.016.875-.016.453 0 .469 0 .953.016v-.25h-.156c-.547 0-.563-.078-.563-.344v-1.11c0-.562.235-1.374.954-1.39-.047.032-.11.094-.11.266a.32.32 0 0 0 .328.328.32.32 0 0 0 .328-.328Zm43.565 66.195c0-.828-.11-1.421-.453-1.937-.235-.36-.688-.656-1.297-.656-1.734 0-1.734 2.047-1.734 2.593 0 .532 0 2.547 1.734 2.547 1.75 0 1.75-2.015 1.75-2.547zm-1.75 2.329c-.344 0-.797-.204-.953-.813-.094-.437-.094-1.062-.094-1.61 0-.546 0-1.124.11-1.53a.956.956 0 0 1 .937-.75c.406 0 .797.25.937.671.125.407.125.953.125 1.61 0 .547 0 1.109-.093 1.578-.157.687-.657.844-.969.844Zm.391-26.363c0-.203-.016-.218-.235-.218-.469.484-1.156.484-1.469.484v.266c.188 0 .688 0 1.094-.204v3.829c0 .234 0 .343-.75.343h-.281v.266c.125 0 1.047-.031 1.328-.031.234 0 1.172.031 1.344.031v-.266h-.281c-.75 0-.75-.109-.75-.343zm1.265-18.251h-.25c-.015.156-.094.609-.187.671-.063.047-.64.047-.75.047h-1.375c.781-.687 1.047-.906 1.5-1.25.547-.453 1.062-.922 1.062-1.625 0-.906-.781-1.468-1.75-1.468-.922 0-1.562.656-1.562 1.343 0 .391.328.422.406.422.172 0 .39-.125.39-.39 0-.141-.046-.407-.437-.407.234-.53.734-.687 1.094-.687.75 0 1.14.578 1.14 1.187 0 .657-.468 1.172-.703 1.438l-1.812 1.781c-.078.078-.078.094-.078.297h3.093Zm-1.734-22.8c.578 0 1 .406 1 1.203 0 .922-.531 1.203-.969 1.203-.297 0-.953-.078-1.281-.515.36-.016.437-.266.437-.422 0-.25-.172-.422-.406-.422-.219 0-.422.14-.422.437 0 .704.781 1.172 1.688 1.172 1.047 0 1.765-.703 1.765-1.453 0-.578-.484-1.172-1.312-1.344.797-.28 1.078-.843 1.078-1.296 0-.594-.688-1.047-1.516-1.047-.828 0-1.468.406-1.468 1.015 0 .25.156.39.39.39a.36.36 0 0 0 .375-.374c0-.219-.14-.375-.375-.39.266-.344.781-.423 1.047-.423.344 0 .813.172.813.829 0 .312-.094.656-.297.89-.25.281-.453.297-.828.313-.188.015-.204.015-.25.03-.016 0-.063.017-.063.095 0 .109.063.109.188.109zm1.922-20.393v-.266h-.828v-3.344c0-.156 0-.218-.172-.218-.094 0-.125 0-.188.109l-2.484 3.453v.266h2.203v.625c0 .25 0 .343-.61.343h-.203v.266c.375-.016.86-.031 1.125-.031.282 0 .75.015 1.125.031v-.266h-.187c-.61 0-.61-.093-.61-.343v-.625zm-1.422-3.016v2.75h-1.985Zm-1.391-21.596c.39.094.61.094.735.094.984 0 1.578-.672 1.578-.781 0-.078-.063-.11-.094-.11-.016 0-.031 0-.063.032-.171.062-.578.219-1.125.219-.218 0-.609-.016-1.093-.204-.078-.046-.094-.046-.11-.046-.093 0-.093.093-.093.203v2.218c0 .125 0 .22.125.22.062 0 .078-.016.14-.11.328-.406.781-.469 1.047-.469a.78.78 0 0 1 .688.422c.14.25.187.531.187.969 0 .218 0 .656-.234.984-.188.281-.5.453-.875.453-.485 0-.985-.265-1.172-.765.281.03.422-.157.422-.36 0-.328-.282-.39-.375-.39-.016 0-.375 0-.375.406 0 .672.625 1.36 1.515 1.36.97 0 1.797-.72 1.797-1.657 0-.86-.64-1.64-1.562-1.64a1.64 1.64 0 0 0-1.063.374zM121.89 154.63h-.25c-.218 1.406-.453 2.047-2 2.047h-1.25c-.421 0-.453-.063-.453-.36v-2.406h.844c.875 0 .985.281.985 1.063h.265v-2.391h-.265c0 .781-.11 1.047-.985 1.047h-.844v-2.14c0-.313.032-.376.454-.376h1.203c1.406 0 1.656.485 1.797 1.75h.25l-.25-2.031h-5.172v.281h.203c.687 0 .719.11.719.438v4.687c0 .344-.032.438-.72.438h-.202v.281h5.297zm5.198 2.328v-.281c-.453 0-.688 0-.688-.282v-1.718c0-.75 0-1.016-.25-1.328-.218-.25-.562-.375-1-.375-.843 0-1.234.625-1.359.875v-.875l-1.313.109v.281c.61 0 .704.063.704.5v2.406c0 .407-.11.407-.704.407v.281c.422-.016.594-.031 1.032-.031.422 0 .547.015 1.015.031v-.281c-.593 0-.687 0-.687-.407v-1.64c0-.953.672-1.422 1.25-1.422.531 0 .64.437.64.984v2.078c0 .407-.093.407-.687.407v.281c.422-.016.594-.031 1.016-.031.437 0 .562.015 1.03.031zm5.076 1.75v-.281c-.593 0-.687 0-.687-.422v-5.031h-.234l-.344.796c-.422-.703-.938-.796-1.25-.796a2.05 2.05 0 0 0-2.031 2.046c0 1.141.906 2.032 1.968 2.032.375 0 .828-.125 1.219-.625v1.578c0 .422-.094.422-.688.422v.281c.422-.016.594-.031 1.016-.031.438 0 .563.015 1.031.031zm-1.328-2.984c0 .156 0 .187-.14.437-.22.39-.594.672-1.078.672-.672 0-1.235-.797-1.235-1.813 0-1.046.64-1.78 1.328-1.78.703 0 1.125.734 1.125 1.234zm6.269 1.234v-.281c-.61 0-.688-.063-.688-.5v-3.203l-1.359.109v.281c.61 0 .688.063.688.5v1.594c0 .797-.454 1.375-1.094 1.375-.75 0-.797-.39-.797-.875v-2.984l-1.36.109v.281c.704 0 .704.016.704.828v1.344c0 .578 0 .969.406 1.281.266.172.625.235.984.235.469 0 .922-.203 1.172-.735h.016v.735Zm4.061-1.078c0-.063-.047-.11-.125-.11-.094 0-.125.063-.125.094a1.287 1.287 0 0 1-1.25.938c-.422 0-.797-.235-1-.547-.297-.438-.313-.985-.313-1.36h2.563c.203 0 .25 0 .25-.187 0-.922-.5-1.781-1.656-1.781-1.079 0-1.922.937-1.922 2.047 0 1.187.937 2.078 2.03 2.078 1.11 0 1.548-.953 1.548-1.172zm-.61-1.203h-2.187c.078-1.375.89-1.532 1.14-1.532.5 0 1.032.391 1.047 1.532zm5.801 2.281v-.281c-.61 0-.688-.063-.688-.5v-3.203l-1.359.109v.281c.61 0 .688.063.688.5v1.594c0 .797-.454 1.375-1.094 1.375-.75 0-.797-.39-.797-.875v-2.984l-1.36.109v.281c.704 0 .704.016.704.828v1.344c0 .578 0 .969.406 1.281.266.172.625.235.984.235.469 0 .922-.203 1.172-.735h.016v.735Zm4.061-1.078c0-.063-.047-.11-.125-.11-.094 0-.125.063-.125.094a1.287 1.287 0 0 1-1.25.938c-.422 0-.797-.235-1-.547-.297-.438-.313-.985-.313-1.36h2.563c.203 0 .25 0 .25-.187 0-.922-.5-1.781-1.656-1.781-1.079 0-1.922.937-1.922 2.047 0 1.187.937 2.078 2.03 2.078 1.11 0 1.548-.953 1.548-1.172zm-.61-1.203h-2.187c.078-1.375.89-1.532 1.14-1.532.5 0 1.032.391 1.047 1.532zm8.192.75c0-.782-.626-1.453-1.485-1.64.828-.313 1.234-.97 1.234-1.595 0-.687-.765-1.234-1.703-1.234-.937 0-1.64.531-1.64 1.219 0 .297.203.468.453.468a.435.435 0 0 0 .453-.453c0-.312-.219-.453-.516-.453.235-.375.781-.547 1.219-.547.75 0 .89.594.89 1.016 0 .266-.046.703-.28 1.047-.282.406-.594.422-.86.437-.219.016-.234.016-.313.016-.078.016-.156.016-.156.125 0 .11.078.11.235.11h.421c.782 0 1.125.624 1.125 1.484 0 1.156-.609 1.484-1.078 1.484-.172 0-1.03-.047-1.437-.719a.487.487 0 0 0 .578-.484c0-.297-.234-.484-.5-.484-.219 0-.484.125-.484.515 0 .797.828 1.422 1.875 1.422 1.125 0 1.968-.812 1.968-1.734zm9.494-.797h-.25c-.22 1.406-.453 2.047-2 2.047h-1.25c-.422 0-.453-.063-.453-.36v-2.406h.843c.875 0 .985.281.985 1.063h.265v-2.391h-.265c0 .781-.11 1.047-.985 1.047h-.843v-2.14c0-.313.03-.376.453-.376h1.203c1.406 0 1.656.485 1.797 1.75h.25l-.25-2.031h-5.172v.281h.203c.687 0 .719.11.719.438v4.687c0 .344-.032.438-.72.438h-.202v.281h5.297zm2.619 2.328v-.281c-.594 0-.688 0-.688-.407v-5.562l-1.328.11v.265c.61 0 .688.062.688.516v4.671c0 .407-.094.407-.688.407v.281c.422-.016.594-.031 1-.031.422 0 .578.015 1.016.031Zm4.074-1.078c0-.063-.047-.11-.125-.11-.094 0-.125.063-.125.094a1.287 1.287 0 0 1-1.25.938c-.422 0-.797-.235-1-.547-.297-.438-.313-.985-.313-1.36h2.563c.203 0 .25 0 .25-.187 0-.922-.5-1.781-1.657-1.781-1.078 0-1.921.937-1.921 2.047 0 1.187.937 2.078 2.03 2.078 1.11 0 1.548-.953 1.548-1.172zm-.61-1.203h-2.187c.078-1.375.89-1.532 1.14-1.532.5 0 1.032.391 1.047 1.532zm8.379 2.281v-.281c-.469 0-.688 0-.703-.282v-1.718c0-.782 0-1.047-.297-1.375-.188-.219-.547-.328-.953-.328-.656 0-1.094.39-1.344.859-.11-.531-.469-.86-1.219-.86-.718 0-1.172.47-1.359.891v-.89l-1.313.109v.281c.61 0 .704.063.704.5v2.406c0 .407-.11.407-.704.407v.281c.422-.016.594-.031 1.032-.031.422 0 .547.015 1.015.031v-.281c-.593 0-.687 0-.687-.407v-1.64c0-.969.703-1.422 1.25-1.422.484 0 .656.344.656.984v2.078c0 .407-.11.407-.703.407v.281c.422-.016.594-.031 1.031-.031.438 0 .547.015 1.031.031v-.281c-.593 0-.703 0-.703-.407v-1.64c0-.969.703-1.422 1.25-1.422.485 0 .657.344.657.984v2.078c0 .407-.11.407-.704.407v.281c.438-.016.594-.031 1.032-.031.437 0 .547.015 1.031.031Zm4.048-1.078c0-.063-.047-.11-.125-.11-.094 0-.125.063-.125.094a1.287 1.287 0 0 1-1.25.938c-.422 0-.797-.235-1-.547-.297-.438-.313-.985-.313-1.36h2.563c.203 0 .25 0 .25-.187 0-.922-.5-1.781-1.656-1.781-1.079 0-1.922.937-1.922 2.047 0 1.187.937 2.078 2.03 2.078 1.11 0 1.548-.953 1.548-1.172zm-.61-1.203h-2.187c.078-1.375.89-1.532 1.14-1.532.5 0 1.032.391 1.047 1.532zm5.801 2.281v-.281c-.453 0-.688 0-.688-.282v-1.718c0-.75 0-1.016-.25-1.328-.218-.25-.562-.375-1-.375-.843 0-1.234.625-1.359.875v-.875l-1.313.109v.281c.61 0 .704.063.704.5v2.406c0 .407-.11.407-.704.407v.281c.422-.016.594-.031 1.032-.031.422 0 .547.015 1.015.031v-.281c-.593 0-.687 0-.687-.407v-1.64c0-.953.672-1.422 1.25-1.422.531 0 .64.437.64.984v2.078c0 .407-.093.407-.687.407v.281c.422-.016.594-.031 1.016-.031.437 0 .562.015 1.03.031zm3.043-1.109v-.516h-.25v.484c0 .657-.281.985-.61.985-.593 0-.593-.782-.593-.953v-2.485h1.297v-.281h-1.297v-1.656h-.25c-.016.75-.328 1.672-1.203 1.703v.234h.781v2.485c0 1 .734 1.203 1.203 1.203.61 0 .922-.578.922-1.203zm3.85-.047c0-.407-.172-.64-.375-.844-.312-.297-.625-.36-1.297-.5-.234-.031-.89-.156-.89-.672 0-.281.203-.656 1.03-.656.97 0 1.032.734 1.048.969.015.109.015.156.125.156.125 0 .125-.063.125-.235v-.859c0-.156 0-.234-.11-.234-.047 0-.062 0-.172.11-.015.015-.109.093-.156.14-.281-.203-.562-.25-.86-.25-1.187 0-1.484.656-1.484 1.11 0 .296.125.53.329.718.296.281.64.344 1.109.437.453.078.61.11.812.266.079.062.313.234.313.578 0 .797-.906.797-1.031.797-.922 0-1.157-.766-1.266-1.25-.031-.094-.031-.14-.14-.14-.126 0-.126.062-.126.234v1.14c0 .157 0 .235.094.235.063 0 .078 0 .235-.172.03-.063.14-.172.171-.219.391.375.797.39 1.032.39 1.093 0 1.484-.64 1.484-1.25zm0 0"/><path fill="none" stroke="#000" stroke-miterlimit="10" stroke-width=".399" d="M253.21 143.98h21.259v-21.26H253.21Zm0-21.66h21.259v-21.26H253.21Zm0-21.66h21.259V79.402H253.21Zm0-21.656h21.259V57.742H253.21Zm0-21.66h21.259V36.086H253.21Zm0-21.657h21.259V14.426H253.21Zm0 0"/><path d="M282.724 133.375c0-.828-.11-1.421-.453-1.937-.235-.36-.688-.656-1.297-.656-1.734 0-1.734 2.047-1.734 2.593 0 .532 0 2.547 1.734 2.547 1.75 0 1.75-2.015 1.75-2.547zm-1.75 2.329c-.344 0-.797-.204-.953-.813-.094-.437-.094-1.062-.094-1.61 0-.546 0-1.124.11-1.53a.956.956 0 0 1 .937-.75c.406 0 .797.25.938.671.125.407.125.953.125 1.61 0 .547 0 1.109-.094 1.578-.156.687-.656.844-.969.844Zm.391-26.363c0-.203-.016-.218-.235-.218-.469.484-1.156.484-1.469.484v.266c.188 0 .688 0 1.094-.204v3.829c0 .234 0 .343-.75.343h-.281v.266c.125 0 1.047-.031 1.328-.031.234 0 1.172.031 1.344.031v-.266h-.281c-.75 0-.75-.109-.75-.343zm1.265-18.251h-.25c-.015.156-.094.609-.187.671-.063.047-.64.047-.75.047h-1.375c.781-.687 1.047-.906 1.5-1.25.547-.453 1.062-.922 1.062-1.625 0-.906-.781-1.468-1.75-1.468-.922 0-1.562.656-1.562 1.343 0 .391.328.422.406.422.172 0 .39-.125.39-.39 0-.141-.046-.407-.437-.407.234-.53.734-.687 1.094-.687.75 0 1.14.578 1.14 1.187 0 .657-.468 1.172-.703 1.438l-1.812 1.781c-.078.078-.078.094-.078.297h3.094Zm-1.734-22.8c.578 0 1 .406 1 1.203 0 .922-.531 1.203-.969 1.203-.297 0-.953-.078-1.281-.515.36-.016.437-.266.437-.422 0-.25-.172-.422-.406-.422-.219 0-.422.14-.422.437 0 .704.781 1.172 1.688 1.172 1.047 0 1.765-.703 1.765-1.453 0-.578-.484-1.172-1.312-1.344.797-.28 1.078-.843 1.078-1.296 0-.594-.688-1.047-1.516-1.047-.828 0-1.468.406-1.468 1.015 0 .25.156.39.39.39a.36.36 0 0 0 .375-.374c0-.219-.14-.375-.375-.39.266-.344.781-.423 1.047-.423.344 0 .813.172.813.829 0 .312-.094.656-.297.89-.25.281-.453.297-.828.313-.188.015-.204.015-.25.03-.016 0-.063.017-.063.095 0 .109.063.109.188.109zm1.922-20.393v-.266h-.828v-3.344c0-.156 0-.218-.172-.218-.094 0-.125 0-.188.109l-2.484 3.453v.266h2.203v.625c0 .25 0 .343-.61.343h-.202v.266c.375-.016.859-.031 1.125-.031.28 0 .75.015 1.125.031v-.266h-.188c-.61 0-.61-.093-.61-.343v-.625zm-1.422-3.016v2.75h-1.985Zm-1.391-21.596c.39.094.61.094.735.094.984 0 1.578-.672 1.578-.781 0-.078-.063-.11-.094-.11-.016 0-.031 0-.063.032-.171.062-.578.219-1.125.219-.218 0-.609-.016-1.093-.204-.078-.046-.094-.046-.11-.046-.093 0-.093.093-.093.203v2.218c0 .125 0 .22.125.22.062 0 .078-.016.14-.11.328-.406.781-.469 1.047-.469a.78.78 0 0 1 .688.422c.14.25.187.531.187.969 0 .218 0 .656-.234.984-.188.281-.5.453-.875.453-.485 0-.985-.265-1.172-.765.281.03.422-.157.422-.36 0-.328-.281-.39-.375-.39-.016 0-.375 0-.375.406 0 .672.625 1.36 1.515 1.36.97 0 1.797-.72 1.797-1.657 0-.86-.64-1.64-1.562-1.64a1.64 1.64 0 0 0-1.063.374zm0 0"/><path fill="none" stroke="#000" stroke-linecap="round" stroke-miterlimit="10" stroke-width=".399" d="M243.09 90.031h7.926"/><path d="m253.012 90.031-3.192-1.594 1.196 1.594-1.196 1.594M225.395 87.9c0-.328-.312-.547-.719-.547-.562 0-1.218.406-1.218 1.203v.844h-.625v.25h.625v2.406c0 .328-.094.328-.578.328v.25c.296-.016.703-.016.89-.016.438 0 .453 0 .938.016v-.25h-.141c-.547 0-.563-.078-.563-.344v-2.39h.891v-.25h-.922v-.844c0-.656.375-.984.703-.984a.52.52 0 0 1 .22.03c-.141.063-.173.188-.173.298 0 .187.14.328.328.328.204 0 .344-.14.344-.328zm2.485 1.906c0-.266-.235-.484-.563-.484-.484 0-.813.375-.984.796v-.796l-1.063.093v.235c.5 0 .563.062.563.422v1.984c0 .328-.078.328-.563.328v.25c.297-.016.703-.016.875-.016.453 0 .469 0 .953.016v-.25h-.156c-.547 0-.563-.078-.563-.344v-1.11c0-.562.235-1.374.954-1.39-.047.032-.11.094-.11.266a.32.32 0 0 0 .328.328.32.32 0 0 0 .329-.328Zm3.98 1.234a1.76 1.76 0 0 0-1.766-1.75 1.77 1.77 0 0 0-1.766 1.75c0 .938.813 1.672 1.766 1.672.969 0 1.766-.734 1.766-1.672Zm-.672-.078c0 .36-.016.766-.22 1.078-.202.297-.546.438-.874.438-.406 0-.719-.203-.875-.453-.188-.313-.219-.688-.219-1.063 0-.281 0-.734.234-1.047.188-.265.516-.422.86-.422.39 0 .719.188.89.454.204.312.204.718.204 1.015zm5.122 1.672v-.25c-.484 0-.577 0-.577-.328v-1.688c0-.64-.282-1.046-1.063-1.046-.75 0-1.078.546-1.172.718h-.015v-.718l-1.078.093v.235c.5 0 .562.062.562.422v1.984c0 .328-.094.328-.563.328v.25c.313-.016.641-.016.844-.016.219 0 .532 0 .86.016v-.25c-.485 0-.563 0-.563-.328v-1.36c0-.796.594-1.156 1.047-1.156.469 0 .578.313.578.797v1.719c0 .328-.094.328-.578.328v.25c.328-.016.656-.016.86-.016.218 0 .53 0 .859.016zm2.623-.937v-.422h-.22v.406c0 .516-.233.797-.53.797-.5 0-.5-.64-.5-.766V89.65h1.125v-.25h-1.125v-1.375h-.235c0 .672-.312 1.39-1 1.422v.203h.672v2.047c0 .875.672 1.015 1.016 1.015.5 0 .797-.453.797-1.015zm0 0"/><path fill="none" stroke="#000" stroke-linecap="round" stroke-miterlimit="10" stroke-width=".399" d="M243.09 68.375h7.926"/><path d="m253.012 68.375-3.192-1.598 1.196 1.598-1.196 1.594m-21.288-2.789c0-.266-.234-.484-.563-.484-.484 0-.812.375-.984.796v-.796l-1.062.093v.235c.5 0 .562.062.562.422v1.984c0 .328-.078.328-.562.328v.25c.297-.016.703-.016.875-.016.453 0 .468 0 .953.016v-.25h-.156c-.547 0-.563-.078-.563-.344v-1.11c0-.562.234-1.374.953-1.39-.047.032-.11.094-.11.266a.32.32 0 0 0 .329.328.32.32 0 0 0 .328-.328Zm3.542 1.922c0-.031-.03-.094-.125-.094-.078 0-.093.047-.109.094-.266.719-.922.75-1.047.75-.344 0-.687-.156-.906-.5-.234-.344-.234-.828-.234-1.047h2.203c.172 0 .218 0 .218-.172 0-.672-.375-1.469-1.437-1.469-.922 0-1.656.766-1.656 1.703 0 .97.812 1.72 1.765 1.72.953 0 1.328-.813 1.328-.985zm-.515-1h-1.89c.062-1.047.702-1.235.968-1.235.89 0 .922 1.063.922 1.235zm4.602 1.234v-.422h-.234v.422c0 .297-.11.422-.266.422-.28 0-.28-.344-.28-.422v-1.562c0-.735-.72-1.11-1.392-1.11-.625 0-1.187.235-1.187.735 0 .218.156.359.36.359.202 0 .343-.156.343-.36a.352.352 0 0 0-.266-.343c.266-.188.672-.188.735-.188.406 0 .828.297.828.907v.234c-.438.031-.938.047-1.453.266-.672.28-.797.718-.797.968 0 .641.766.844 1.281.844.547 0 .89-.312 1.047-.61.047.282.234.563.563.563.078 0 .718-.031.718-.703Zm-1.359-.39c0 .734-.61.921-.906.921-.39 0-.719-.25-.719-.609 0-.5.453-1.016 1.625-1.047zm4.358-1.766c0-.266-.235-.484-.563-.484-.484 0-.813.375-.984.796v-.796l-1.063.093v.235c.5 0 .563.062.563.422v1.984c0 .328-.078.328-.563.328v.25c.297-.016.703-.016.875-.016.453 0 .469 0 .953.016v-.25h-.156c-.547 0-.563-.078-.563-.344v-1.11c0-.562.235-1.374.954-1.39-.047.032-.11.094-.11.266a.32.32 0 0 0 .328.328.32.32 0 0 0 .329-.328Zm27.873 23.985c0-.094 0-.172-.14-.172-.11 0-.11.062-.125.172-.078 1.5-1.203 2.36-2.344 2.36-.64 0-2.703-.36-2.703-3.485 0-3.14 2.047-3.5 2.687-3.5 1.141 0 2.079.953 2.282 2.484.03.156.03.188.172.188.171 0 .171-.032.171-.25v-2.5c0-.172 0-.25-.125-.25-.03 0-.078 0-.156.125l-.531.781c-.39-.375-.922-.906-1.938-.906-1.953 0-3.64 1.672-3.64 3.812 0 2.172 1.687 3.828 3.64 3.828 1.72 0 2.75-1.468 2.75-2.687zm-39.63 65.991v-.281h-.156c-.563 0-.657-.078-.75-.328l-2.032-5.641c-.046-.125-.078-.187-.218-.187s-.172.046-.219.187l-1.938 5.344c-.109.297-.312.625-1 .625v.281c.329-.031.579-.031.907-.031l1.015.031v-.281c-.5 0-.656-.281-.656-.453 0-.078.016-.125.031-.172l.422-1.156h2.328l.485 1.343c.047.094.047.125.047.172 0 .266-.5.266-.735.266v.281c.406-.031.875-.031 1.281-.031Zm-2.375-2.344h-2.11l1.047-2.953Zm5.986-3.359c0-.344-.344-.64-.844-.64-.703 0-1.437.53-1.437 1.437v1.031h-.703v.281h.703v2.907c0 .406-.094.406-.688.406v.281c.469-.016.594-.031 1.047-.031l1.14.031v-.281h-.171c-.656 0-.688-.094-.688-.438v-2.875h1.047v-.281h-1.078v-1.016c0-.828.438-1.234.828-1.234.094 0 .188.016.281.063a.364.364 0 0 0-.234.359c0 .234.156.406.39.406a.394.394 0 0 0 .407-.406zm0 0"/><path d="M233.621 156.047v-.516h-.25v.484c0 .657-.281.985-.61.985-.593 0-.593-.781-.593-.953v-2.485h1.297v-.281h-1.297v-1.656h-.25c-.016.75-.328 1.672-1.203 1.703v.234h.781v2.485c0 1 .734 1.203 1.203 1.203.61 0 .922-.578.922-1.203zm4.366.031c0-.063-.047-.11-.125-.11-.094 0-.125.063-.125.094a1.287 1.287 0 0 1-1.25.938c-.422 0-.797-.235-1-.547-.297-.438-.313-.984-.313-1.36h2.563c.203 0 .25 0 .25-.187 0-.922-.5-1.781-1.656-1.781-1.079 0-1.922.937-1.922 2.047 0 1.187.937 2.078 2.03 2.078 1.11 0 1.548-.953 1.548-1.172zm-.61-1.203h-2.187c.078-1.375.89-1.531 1.14-1.531.5 0 1.032.39 1.047 1.53zm4.238-1.141c0-.281-.265-.562-.672-.562-.546 0-.921.39-1.125.937h-.015v-.937l-1.281.109v.281c.609 0 .703.063.703.5v2.407c0 .406-.11.406-.703.406v.281c.484-.016.593-.031 1.062-.031l1.14.031v-.281h-.187c-.656 0-.672-.094-.672-.438v-1.343c0-.375.094-1.688 1.125-1.688a.397.397 0 0 0-.172.344c0 .234.188.39.407.39a.39.39 0 0 0 .39-.406zm9.962 3.422v-.281h-.156c-.563 0-.656-.078-.75-.328l-2.031-5.641c-.047-.125-.079-.187-.22-.187-.14 0-.171.046-.218.187l-1.938 5.344c-.109.297-.312.625-1 .625v.281c.329-.031.579-.031.907-.031l1.015.031v-.281c-.5 0-.656-.281-.656-.453 0-.078.016-.125.031-.172l.422-1.156h2.328l.485 1.343c.047.094.047.125.047.172 0 .266-.5.266-.735.266v.281c.406-.031.875-.031 1.281-.031Zm-2.375-2.344h-2.11l1.047-2.953Zm4.548 2.328c0-.625-.234-.953-.578-.953a.467.467 0 0 0-.484.485c0 .234.172.484.484.484.219 0 .36-.14.36-.14 0 .296 0 1.03-.688 1.671-.031.047-.031.094-.031.094 0 .047.047.11.11.11.109 0 .827-.688.827-1.75zm9.833-1.625c0-.812-.781-1.468-1.781-1.578.89-.172 1.516-.734 1.516-1.406 0-.797-.86-1.516-2.047-1.516h-3.344v.266h.203c.688 0 .703.11.703.438v4.718c0 .344-.015.438-.703.438h-.203v.281h3.594c1.219 0 2.062-.797 2.062-1.64zm-1.125-2.984c0 .688-.61 1.313-1.453 1.313H259.6v-2.188c0-.312.016-.375.437-.375h1.172c.875 0 1.25.703 1.25 1.25zm.235 2.969c0 .687-.547 1.375-1.47 1.375h-1.187c-.421 0-.437-.063-.437-.36v-2.453h1.703c1.031 0 1.39.89 1.39 1.438zm11.045-1.375c0-1.703-1.25-3.11-2.844-3.11h-3.344v.266h.204c.703 0 .718.11.718.438v4.718c0 .344-.015.438-.718.438h-.204v.281h3.344c1.563 0 2.844-1.328 2.844-3.031zm-.89 0c0 .375 0 1.328-.5 1.953-.47.61-1.11.797-1.688.797h-.969c-.422 0-.437-.063-.437-.36v-4.859c0-.312.015-.375.437-.375h.969a2.04 2.04 0 0 1 1.656.797c.39.516.531 1.156.531 2.047zm5.252 1.953c0-.063-.047-.11-.125-.11-.094 0-.125.063-.125.094a1.287 1.287 0 0 1-1.25.938c-.422 0-.797-.235-1-.547-.297-.438-.313-.984-.313-1.36h2.563c.203 0 .25 0 .25-.187 0-.922-.5-1.781-1.656-1.781-1.079 0-1.922.937-1.922 2.047 0 1.187.937 2.078 2.03 2.078 1.11 0 1.548-.953 1.548-1.172zm-.61-1.203h-2.187c.078-1.375.89-1.531 1.14-1.531.5 0 1.032.39 1.047 1.53zm5.738 4.031v-.281c-.593 0-.687 0-.687-.422v-5.031h-.235l-.343.797c-.422-.704-.938-.797-1.25-.797a2.05 2.05 0 0 0-2.032 2.047c0 1.14.907 2.03 1.97 2.03.374 0 .827-.124 1.218-.624v1.578c0 .422-.094.422-.688.422v.281c.422-.016.594-.031 1.016-.031.438 0 .563.015 1.031.031zm-1.328-2.984c0 .156 0 .187-.14.437-.22.39-.594.672-1.079.672-.671 0-1.234-.797-1.234-1.812 0-1.047.64-1.782 1.328-1.782.703 0 1.125.735 1.125 1.235zm6.269 1.234v-.281c-.61 0-.688-.063-.688-.5v-3.203l-1.359.109v.281c.61 0 .688.063.688.5v1.594c0 .797-.454 1.375-1.094 1.375-.75 0-.797-.39-.797-.875v-2.984l-1.36.109v.281c.704 0 .704.016.704.828v1.344c0 .578 0 .969.406 1.281.266.172.625.235.984.235.469 0 .922-.203 1.172-.735h.016v.735Zm4.061-1.078c0-.063-.047-.11-.125-.11-.094 0-.125.063-.125.094a1.287 1.287 0 0 1-1.25.938c-.422 0-.797-.235-1-.547-.297-.438-.313-.984-.313-1.36h2.563c.203 0 .25 0 .25-.187 0-.922-.5-1.781-1.657-1.781-1.078 0-1.921.937-1.921 2.047 0 1.187.937 2.078 2.03 2.078 1.11 0 1.548-.953 1.548-1.172zm-.61-1.203h-2.187c.078-1.375.89-1.531 1.14-1.531.5 0 1.032.39 1.047 1.53zm5.8 2.281v-.281c-.609 0-.687-.063-.687-.5v-3.203l-1.359.109v.281c.61 0 .687.063.687.5v1.594c0 .797-.453 1.375-1.093 1.375-.75 0-.797-.39-.797-.875v-2.984l-1.36.109v.281c.704 0 .704.016.704.828v1.344c0 .578 0 .969.406 1.281.265.172.625.235.984.235.469 0 .922-.203 1.172-.735h.016v.735Zm4.062-1.078c0-.063-.047-.11-.125-.11-.094 0-.125.063-.125.094a1.287 1.287 0 0 1-1.25.938c-.422 0-.797-.235-1-.547-.297-.438-.313-.984-.313-1.36h2.563c.203 0 .25 0 .25-.187 0-.922-.5-1.781-1.657-1.781-1.078 0-1.921.937-1.921 2.047 0 1.187.937 2.078 2.03 2.078 1.11 0 1.548-.953 1.548-1.172zm-.61-1.203h-2.187c.078-1.375.89-1.531 1.14-1.531.5 0 1.032.39 1.047 1.53zm5.738 2.281v-.281c-.609 0-.687-.063-.687-.5v-5.469l-1.344.11v.265c.625 0 .703.063.703.516v1.906c-.047-.047-.453-.531-1.156-.531-1.11 0-2.062.89-2.062 2.047 0 1.125.89 2.03 1.968 2.03.657 0 1.063-.374 1.219-.577v.578Zm-1.359-1.078c0 .156 0 .187-.14.375a1.259 1.259 0 0 1-1.047.578c-.391 0-.75-.219-.985-.594-.234-.39-.25-.922-.25-1.203 0-.422.063-.906.297-1.265a1.271 1.271 0 0 1 1.031-.563c.39 0 .75.188.985.531.109.14.109.157.109.328Zm0 0"/><path fill="none" stroke="#000" stroke-miterlimit="10" stroke-width=".399" d="M359.906 143.98h21.262v-21.26h-21.262Zm0-21.66h21.262v-21.26h-21.262Zm0-21.66h21.262V79.402h-21.262Zm0-21.656h21.262V57.742h-21.262Zm0-21.66h21.262V36.086h-21.262Zm0-21.657h21.262V14.426h-21.262Zm0 0"/><path d="M389.423 133.375c0-.828-.11-1.421-.453-1.937-.235-.36-.688-.656-1.297-.656-1.734 0-1.734 2.047-1.734 2.593 0 .532 0 2.547 1.734 2.547 1.75 0 1.75-2.015 1.75-2.547zm-1.75 2.329c-.344 0-.797-.204-.953-.813-.094-.437-.094-1.062-.094-1.61 0-.546 0-1.124.11-1.53a.956.956 0 0 1 .937-.75c.406 0 .797.25.938.671.125.407.125.953.125 1.61 0 .547 0 1.109-.094 1.578-.156.687-.656.844-.969.844Zm.391-26.363c0-.203-.016-.218-.235-.218-.469.484-1.156.484-1.469.484v.266c.188 0 .688 0 1.094-.204v3.829c0 .234 0 .343-.75.343h-.281v.266c.125 0 1.047-.031 1.328-.031.235 0 1.172.031 1.344.031v-.266h-.281c-.75 0-.75-.109-.75-.343zm1.266-18.251h-.25c-.016.156-.094.609-.188.671-.063.047-.64.047-.75.047h-1.375c.781-.687 1.047-.906 1.5-1.25.547-.453 1.062-.922 1.062-1.625 0-.906-.781-1.468-1.75-1.468-.922 0-1.562.656-1.562 1.343 0 .391.328.422.406.422.172 0 .39-.125.39-.39 0-.141-.046-.407-.437-.407.235-.53.735-.687 1.094-.687.75 0 1.14.578 1.14 1.187 0 .657-.468 1.172-.703 1.438l-1.812 1.781c-.078.078-.078.094-.078.297h3.094Zm-1.735-22.8c.578 0 1 .406 1 1.203 0 .922-.531 1.203-.969 1.203-.297 0-.953-.078-1.281-.515.36-.016.437-.266.437-.422 0-.25-.171-.422-.406-.422-.219 0-.422.14-.422.437 0 .704.781 1.172 1.688 1.172 1.047 0 1.765-.703 1.765-1.453 0-.578-.484-1.172-1.312-1.344.797-.28 1.078-.843 1.078-1.296 0-.594-.688-1.047-1.516-1.047-.828 0-1.468.406-1.468 1.015 0 .25.156.39.39.39a.36.36 0 0 0 .375-.374c0-.219-.14-.375-.375-.39.266-.344.781-.423 1.047-.423.344 0 .813.172.813.829 0 .312-.094.656-.297.89-.25.281-.453.297-.828.313-.188.015-.204.015-.25.03-.016 0-.063.017-.063.095 0 .109.063.109.188.109zm1.922-20.393v-.266h-.828v-3.344c0-.156 0-.218-.172-.218-.094 0-.125 0-.188.109l-2.484 3.453v.266h2.203v.625c0 .25 0 .343-.61.343h-.202v.266c.375-.016.859-.031 1.125-.031.28 0 .75.015 1.125.031v-.266h-.188c-.61 0-.61-.093-.61-.343v-.625zm-1.422-3.016v2.75h-1.985Zm-1.391-21.596c.39.094.61.094.735.094.984 0 1.578-.672 1.578-.781 0-.078-.063-.11-.094-.11-.016 0-.031 0-.063.032-.171.062-.578.219-1.125.219-.218 0-.609-.016-1.093-.204-.078-.046-.094-.046-.11-.046-.093 0-.093.093-.093.203v2.218c0 .125 0 .22.125.22.062 0 .078-.016.14-.11.328-.406.781-.469 1.047-.469a.78.78 0 0 1 .688.422c.14.25.187.531.187.969 0 .218 0 .656-.234.984-.188.281-.5.453-.875.453-.485 0-.985-.265-1.172-.765.281.03.422-.157.422-.36 0-.328-.281-.39-.375-.39-.016 0-.375 0-.375.406 0 .672.625 1.36 1.515 1.36.97 0 1.797-.72 1.797-1.657 0-.86-.64-1.64-1.562-1.64a1.64 1.64 0 0 0-1.063.374zm-12.897 24.297h-.266c-.25 1.61-.5 2.375-2.297 2.375h-1.406c-.484 0-.516-.078-.516-.422v-2.797h.954c1.015 0 1.125.328 1.125 1.219h.265v-2.781h-.265c0 .906-.11 1.234-1.125 1.234h-.954v-2.516c0-.343.032-.422.516-.422h1.36c1.609 0 1.89.579 2.062 2.032h.25l-.281-2.36h-5.922v.328h.25c.812 0 .828.11.828.485v5.515c0 .375-.016.485-.828.485h-.25v.328h6.062zm-.291-23.737-.297-2.36h-5.765v.328h.25c.812 0 .828.11.828.485v5.515c0 .375-.016.485-.828.485h-.25v.328c.375-.031 1.187-.031 1.593-.031.438 0 1.391 0 1.766.031v-.328h-.344c-1 0-1-.14-1-.5V25.22h.907c1.015 0 1.109.328 1.109 1.218h.266v-2.78h-.266c0 .89-.094 1.234-1.11 1.234h-.906v-2.657c0-.343.032-.422.516-.422h1.266c1.578 0 1.828.594 2 2.032zm0 0"/><path fill="none" stroke="#000" stroke-linecap="round" stroke-miterlimit="10" stroke-width=".399" d="M349.79 46.715h7.925"/><path d="m359.707 46.715-3.187-1.594 1.195 1.594-1.195 1.594m-24.426-3.726c0-.328-.312-.547-.719-.547-.562 0-1.218.406-1.218 1.203v.844h-.625v.25h.625v2.406c0 .328-.094.328-.579.328v.25c.297-.016.704-.016.891-.016.438 0 .453 0 .938.016v-.25h-.141c-.547 0-.563-.078-.563-.344v-2.39h.891v-.25h-.922v-.844c0-.656.375-.984.703-.984a.52.52 0 0 1 .22.03c-.142.063-.173.188-.173.298 0 .187.14.328.328.328.203 0 .344-.14.344-.328zm2.484 1.906c0-.266-.234-.484-.562-.484-.484 0-.813.375-.984.796v-.796l-1.063.093v.235c.5 0 .563.062.563.422v1.984c0 .328-.079.328-.563.328v.25c.297-.016.703-.016.875-.016.453 0 .469 0 .953.016v-.25h-.156c-.547 0-.563-.078-.563-.344v-1.11c0-.562.235-1.374.954-1.39-.047.032-.11.094-.11.266a.32.32 0 0 0 .328.328.32.32 0 0 0 .328-.328Zm3.98 1.234a1.76 1.76 0 0 0-1.765-1.75 1.77 1.77 0 0 0-1.766 1.75c0 .938.813 1.672 1.766 1.672.969 0 1.765-.734 1.765-1.672Zm-.671-.078c0 .36-.016.766-.22 1.078-.202.297-.546.438-.874.438-.406 0-.719-.203-.875-.453-.188-.313-.219-.688-.219-1.063 0-.281 0-.734.234-1.047.188-.265.516-.422.86-.422.39 0 .719.188.89.454.204.312.204.718.204 1.015zm5.123 1.672v-.25c-.485 0-.578 0-.578-.328V47.05c0-.64-.282-1.046-1.063-1.046-.75 0-1.078.546-1.172.718h-.015v-.718l-1.079.093v.235c.5 0 .563.062.563.422v1.984c0 .328-.094.328-.563.328v.25c.313-.016.641-.016.844-.016.219 0 .531 0 .86.016v-.25c-.485 0-.563 0-.563-.328v-1.36c0-.796.594-1.156 1.047-1.156.469 0 .578.313.578.797v1.719c0 .328-.094.328-.578.328v.25c.328-.016.656-.016.86-.016.218 0 .53 0 .859.016zm2.622-.937v-.422h-.22v.406c0 .516-.233.797-.53.797-.5 0-.5-.64-.5-.766v-2.062h1.125v-.25h-1.125v-1.375h-.235c0 .672-.312 1.39-1 1.422v.203h.672v2.047c0 .875.672 1.015 1.016 1.015.5 0 .797-.453.797-1.015zm0 0"/><path fill="none" stroke="#000" stroke-linecap="round" stroke-miterlimit="10" stroke-width=".399" d="M349.79 10.883h7.925"/><path d="m359.707 10.883-3.187-1.594 1.195 1.594-1.195 1.594M335.231 9.69c0-.266-.234-.484-.563-.484-.484 0-.812.375-.984.796v-.796l-1.062.093v.235c.5 0 .562.062.562.421v1.985c0 .328-.078.328-.562.328v.25c.296-.016.703-.016.875-.016.453 0 .468 0 .953.016v-.25h-.157c-.546 0-.562-.078-.562-.344v-1.11c0-.562.234-1.374.953-1.39-.047.032-.11.094-.11.266a.32.32 0 0 0 .329.328.32.32 0 0 0 .328-.328Zm3.543 1.922c0-.031-.032-.094-.125-.094-.079 0-.094.047-.11.094-.265.719-.922.75-1.047.75-.344 0-.687-.156-.906-.5-.234-.344-.234-.828-.234-1.047h2.203c.172 0 .219 0 .219-.172 0-.672-.375-1.469-1.438-1.469-.922 0-1.656.766-1.656 1.703 0 .97.812 1.72 1.765 1.72.954 0 1.329-.813 1.329-.985zm-.516-1h-1.89c.062-1.047.702-1.235.968-1.235.89 0 .922 1.063.922 1.235zm4.602 1.234v-.422h-.234v.422c0 .297-.11.422-.266.422-.28 0-.28-.344-.28-.422v-1.562c0-.735-.72-1.11-1.391-1.11-.625 0-1.188.235-1.188.735 0 .218.156.359.36.359.203 0 .343-.156.343-.36a.352.352 0 0 0-.265-.343c.265-.188.671-.188.734-.188.406 0 .828.297.828.907v.234c-.437.031-.937.047-1.453.266-.672.28-.797.718-.797.968 0 .641.766.844 1.281.844.547 0 .89-.312 1.047-.61.047.282.235.563.563.563.078 0 .718-.031.718-.703Zm-1.359-.39c0 .734-.61.921-.906.921-.39 0-.719-.25-.719-.609 0-.5.453-1.016 1.625-1.047zm4.357-1.766c0-.266-.234-.484-.562-.484-.484 0-.813.375-.984.796v-.796l-1.063.093v.235c.5 0 .563.062.563.421v1.985c0 .328-.079.328-.563.328v.25c.297-.016.703-.016.875-.016.453 0 .469 0 .953.016v-.25h-.156c-.547 0-.563-.078-.563-.344v-1.11c0-.562.235-1.374.954-1.39-.047.032-.11.094-.11.266a.32.32 0 0 0 .328.328.32.32 0 0 0 .328-.328Zm-6.574 144.32c0-1.844-1.39-3.297-3.078-3.297s-3.078 1.469-3.078 3.297 1.406 3.25 3.078 3.25 3.078-1.422 3.078-3.25zm-.922-.14c0 2.328-1.25 3.109-2.156 3.109-.906 0-2.156-.781-2.156-3.11 0-2.187 1.28-2.906 2.156-2.906.875 0 2.156.719 2.156 2.907zm6.128-.407v-.281c-.265.016-.687.016-.687.016-.25 0-.531 0-.781-.016v.281c.25.016.406.14.406.375 0 .094 0 .11-.047.219l-.937 2.266-1.016-2.453a.356.356 0 0 1-.047-.172c0-.235.328-.235.485-.235v-.281c-.375.016-.594.016-.985.016-.312 0-.578 0-.89-.016v.281c.421 0 .593 0 .718.328l1.313 3.188c.062.156.125.172.219.172.078 0 .14-.016.203-.172l1.234-2.953c.188-.453.5-.563.813-.563zm3.774 2.516c0-.063-.047-.11-.125-.11-.094 0-.125.063-.125.094a1.287 1.287 0 0 1-1.25.938c-.422 0-.797-.235-1-.547-.297-.438-.313-.984-.313-1.36h2.563c.203 0 .25 0 .25-.187 0-.922-.5-1.781-1.656-1.781-1.079 0-1.922.937-1.922 2.047 0 1.187.937 2.078 2.03 2.078 1.11 0 1.548-.953 1.548-1.172zm-.61-1.203h-2.187c.078-1.375.89-1.531 1.14-1.531.5 0 1.032.39 1.047 1.53zm4.238-1.141c0-.281-.265-.562-.672-.562-.546 0-.921.39-1.125.937h-.015v-.937l-1.281.109v.281c.609 0 .703.063.703.5v2.407c0 .406-.11.406-.703.406v.281c.484-.016.593-.031 1.062-.031l1.14.031v-.281h-.187c-.656 0-.672-.094-.672-.438v-1.343c0-.375.094-1.688 1.125-1.688a.397.397 0 0 0-.172.344c0 .234.188.39.407.39a.39.39 0 0 0 .39-.406zm5.118 3.422v-.281c-.593 0-.687 0-.687-.406v-5.563l-.344.063c-.015 0-.031-.016-.11-.047-.265-.11-.609-.11-.75-.11-1.03 0-2 .532-2 1.453v1.016h-.718v.281h.719v2.907c0 .406-.11.406-.703.406v.281c.422-.016.593-.031 1.015-.031.422 0 .578.015 1.016.031v-.281c-.594 0-.688 0-.688-.406v-2.907h1.922v2.907c0 .406-.11.406-.703.406v.281c.438-.016.594-.031 1.016-.031.422 0 .578.015 1.015.031zm-1.328-3.875h-1.953v-1c0-.875.75-1.25 1.375-1.25.188 0 .375.016.578.078a.388.388 0 0 0-.203.344.42.42 0 0 0 .203.36zm5.968 1.953c0-1.172-.938-2.11-2.047-2.11-1.141 0-2.047.97-2.047 2.11 0 1.125.937 2.016 2.03 2.016 1.157 0 2.063-.906 2.063-2.016zm-.782-.078c0 .328 0 .86-.219 1.25-.25.422-.671.594-1.046.594-.454 0-.829-.219-1.032-.578-.234-.375-.25-.844-.25-1.266 0-.328 0-.844.235-1.219a1.199 1.199 0 0 1 1.03-.593c.517 0 .892.296 1.063.593.22.39.22.844.22 1.219zm7.272-1.594v-.281c-.36.016-.376.016-.673.016-.343 0-.468 0-.828-.016v.281c.391 0 .516.25.516.422a.39.39 0 0 1-.047.203l-.828 2.25-.906-2.453c-.047-.125-.047-.156-.047-.172 0-.234.281-.25.515-.25v-.281c-.421.016-.78.016-.921.016-.282 0-.547 0-.829-.016v.281c.282 0 .454 0 .563.125.078.11.188.469.188.485l-.032.125-.75 2.03-.844-2.343c-.062-.125-.062-.156-.062-.187 0-.235.36-.235.531-.235v-.281l-.984.016c-.297 0-.563 0-.86-.016v.281c.422 0 .547.016.657.313l1.156 3.187c.047.11.063.188.203.188s.172-.094.203-.188l.922-2.515.922 2.515c.047.094.078.188.219.188.125 0 .156-.078.187-.172l1.078-2.922c.203-.562.563-.594.75-.594zm9.943.547c0-1.844-1.39-3.297-3.078-3.297s-3.078 1.469-3.078 3.297 1.406 3.25 3.078 3.25 3.078-1.422 3.078-3.25zm-.922-.14c0 2.328-1.25 3.109-2.156 3.109-.906 0-2.156-.781-2.156-3.11 0-2.187 1.28-2.906 2.156-2.906.875 0 2.156.719 2.156 2.907zm5.285 2.109c0-.094-.094-.094-.125-.094-.094 0-.094.016-.157.156-.203.625-.703.86-1.171.86-.579 0-1.313-.469-1.313-1.797 0-1.406.719-1.828 1.266-1.828.11 0 .593.015.937.25-.187.031-.375.156-.375.422 0 .234.188.406.422.406.234 0 .422-.156.422-.422 0-.562-.64-.906-1.422-.906-1.156 0-2.016.969-2.016 2.094 0 1.156.922 2.03 1.985 2.03 1.265 0 1.547-1.077 1.547-1.171zm4.113 0c0-.094-.094-.094-.125-.094-.094 0-.094.016-.157.156-.203.625-.703.86-1.171.86-.579 0-1.313-.469-1.313-1.797 0-1.406.719-1.828 1.266-1.828.11 0 .593.015.937.25-.187.031-.375.156-.375.422 0 .234.188.406.422.406.234 0 .422-.156.422-.422 0-.562-.64-.906-1.422-.906-1.156 0-2.016.969-2.016 2.094 0 1.156.922 2.03 1.985 2.03 1.265 0 1.547-1.077 1.547-1.171zm5.191 1.078v-.281c-.61 0-.688-.063-.688-.5v-3.203l-1.359.109v.281c.61 0 .688.063.688.5v1.594c0 .797-.454 1.375-1.094 1.375-.75 0-.797-.39-.797-.875v-2.984l-1.36.109v.281c.704 0 .704.016.704.828v1.344c0 .578 0 .969.406 1.281.265.172.625.235.984.235.469 0 .922-.203 1.172-.735h.016v.735Zm3.576-3.422c0-.281-.265-.562-.671-.562-.547 0-.922.39-1.125.937h-.016v-.937l-1.281.109v.281c.609 0 .703.063.703.5v2.407c0 .406-.11.406-.703.406v.281c.484-.016.593-.031 1.062-.031l1.14.031v-.281h-.187c-.656 0-.672-.094-.672-.438v-1.343c0-.375.094-1.688 1.125-1.688a.397.397 0 0 0-.171.344c0 .234.187.39.406.39a.39.39 0 0 0 .39-.406zm3.618 0c0-.281-.265-.562-.672-.562-.546 0-.921.39-1.125.937h-.015v-.937l-1.281.109v.281c.609 0 .703.063.703.5v2.407c0 .406-.11.406-.703.406v.281c.484-.016.593-.031 1.062-.031l1.14.031v-.281h-.187c-.656 0-.672-.094-.672-.438v-1.343c0-.375.094-1.688 1.125-1.688a.397.397 0 0 0-.172.344c0 .234.188.39.407.39a.39.39 0 0 0 .39-.406zm4.103 2.344c0-.063-.047-.11-.125-.11-.094 0-.125.063-.125.094a1.287 1.287 0 0 1-1.25.938c-.422 0-.797-.235-1-.547-.297-.438-.313-.984-.313-1.36h2.563c.203 0 .25 0 .25-.187 0-.922-.5-1.781-1.657-1.781-1.078 0-1.921.937-1.921 2.047 0 1.187.937 2.078 2.03 2.078 1.11 0 1.548-.953 1.548-1.172zm-.61-1.203h-2.187c.078-1.375.89-1.531 1.14-1.531.5 0 1.032.39 1.047 1.53zm5.738 2.281v-.281c-.609 0-.687-.063-.687-.5v-5.469l-1.344.11v.265c.625 0 .703.063.703.516v1.906c-.047-.047-.453-.531-1.156-.531-1.11 0-2.062.89-2.062 2.047 0 1.125.89 2.03 1.968 2.03.657 0 1.063-.374 1.219-.577v.578Zm-1.359-1.078c0 .156 0 .187-.14.375a1.259 1.259 0 0 1-1.047.578c-.391 0-.75-.219-.985-.594-.234-.39-.25-.922-.25-1.203 0-.422.063-.906.297-1.265a1.271 1.271 0 0 1 1.031-.563c.39 0 .75.188.985.531.109.14.109.157.109.328Zm0 0"/></svg>