<svg xmlns="http://www.w3.org/2000/svg" width="317.2" height="465" viewBox="0 0 237.9 348.75"><defs><clipPath id="a"><path d="M101 322h38v26.75h-38Zm0 0"/></clipPath></defs><path fill="none" stroke="#000" stroke-miterlimit="10" stroke-width=".399" d="M130.89 5.871h-22.402a3.984 3.984 0 0 0-3.984 3.984v6.665a3.983 3.983 0 0 0 3.984 3.984h22.403a3.986 3.986 0 0 0 3.984-3.984V9.855a3.986 3.986 0 0 0-3.984-3.984Zm0 0"/><path d="M113.236 14.82c0-1.047-.687-1.906-1.562-2.125l-1.344-.328a1.36 1.36 0 0 1-1.062-1.328c0-.735.562-1.375 1.375-1.375 1.765 0 1.984 1.718 2.046 2.203.016.062.016.125.126.125.14 0 .14-.063.14-.266v-2.11c0-.171 0-.25-.11-.25-.077 0-.093.016-.156.141l-.374.594c-.313-.297-.75-.734-1.672-.734a2.024 2.024 0 0 0-2.047 2.047c0 .859.547 1.625 1.375 1.922.11.03.64.156 1.375.343.297.063.61.14.89.532.235.28.328.625.328.968 0 .75-.515 1.5-1.406 1.5-.297 0-1.094-.047-1.656-.562-.61-.578-.64-1.25-.656-1.625 0-.11-.094-.11-.125-.11-.125 0-.125.079-.125.266v2.11c0 .171 0 .25.11.25.077 0 .077-.032.155-.141 0 0 .032-.047.375-.594.328.36 1 .734 1.938.734 1.234 0 2.062-1.03 2.062-2.187zm4.088.656v-.61h-.265v.579c0 .781-.313 1.187-.703 1.187-.703 0-.703-.968-.703-1.14V12.57h1.5v-.328h-1.5V10.32h-.266c0 .86-.313 1.984-1.344 2.016v.234h.89v2.906c0 1.281.97 1.406 1.36 1.406.734 0 1.031-.734 1.031-1.406zm5.679.36v-.579h-.266v.579c0 .609-.266.671-.375.671-.36 0-.39-.468-.39-.515v-2.11c0-.437 0-.843-.376-1.234a2.054 2.054 0 0 0-1.453-.578c-.86 0-1.578.5-1.578 1.187 0 .313.203.485.484.485.297 0 .485-.203.485-.469 0-.14-.063-.484-.531-.484.28-.375.796-.485 1.125-.485.515 0 1.109.407 1.109 1.344v.39c-.531.032-1.266.063-1.922.376-.797.359-1.047.906-1.047 1.359 0 .86 1.016 1.11 1.672 1.11.688 0 1.172-.407 1.375-.907.047.422.328.86.813.86.234 0 .875-.141.875-1zm-1.766-.532c0 1-.75 1.36-1.219 1.36-.515 0-.953-.375-.953-.907 0-.562.438-1.437 2.172-1.5zm5.766-2.531c0-.344-.329-.64-.782-.64-.765 0-1.14.703-1.297 1.156v-1.157l-1.453.11v.328c.735 0 .813.078.813.594v2.812c0 .469-.11.469-.813.469v.328l1.188-.031c.422 0 .922 0 1.344.031v-.328h-.22c-.78 0-.796-.11-.796-.484v-1.625c0-1.032.438-1.97 1.234-1.97h.11a.476.476 0 0 0-.235.423c0 .28.22.453.453.453.188 0 .454-.14.454-.469zm3.772 2.703v-.61h-.266v.579c0 .781-.312 1.187-.703 1.187-.703 0-.703-.968-.703-1.14V12.57h1.5v-.328h-1.5V10.32h-.266c0 .86-.312 1.984-1.343 2.016v.234h.89v2.906c0 1.281.969 1.406 1.36 1.406.734 0 1.03-.734 1.03-1.406zm0 0"/><path fill="none" stroke="#000" stroke-miterlimit="10" stroke-width=".399" d="M59.496 68.953h120.387V35.074H59.496Zm0 0"/><path d="M85.175 46.45v-.328h-.25c-.812 0-.843-.11-.843-.484V40.09c0-.375.03-.485.843-.485h.25v-.328h-1.78c-.266 0-.266.016-.345.203l-2.296 5.907-2.282-5.875c-.093-.235-.125-.235-.375-.235h-1.765v.328h.25c.812 0 .828.11.828.485v5.25c0 .297 0 .78-1.078.78v.329l1.218-.031 1.235.031v-.328c-1.078 0-1.078-.484-1.078-.781v-5.657h.015l2.532 6.532c.046.14.093.234.203.234.109 0 .14-.078.187-.203l2.578-6.64h.016v6.03c0 .376-.016.485-.828.485h-.25v.328c.39-.031 1.094-.031 1.515-.031.407 0 1.11 0 1.5.031zm5.629-1.953c0-1.047-.688-1.906-1.563-2.125l-1.343-.328a1.36 1.36 0 0 1-1.063-1.328c0-.735.563-1.375 1.375-1.375 1.766 0 1.985 1.718 2.047 2.203.016.062.016.125.125.125.14 0 .14-.063.14-.266v-2.11c0-.171 0-.25-.109-.25-.078 0-.093.016-.156.141l-.375.594c-.312-.297-.75-.734-1.672-.734a2.024 2.024 0 0 0-2.047 2.047c0 .859.547 1.625 1.375 1.922.11.03.64.156 1.375.343.297.063.61.14.89.532.235.28.329.625.329.968 0 .75-.516 1.5-1.406 1.5-.297 0-1.094-.047-1.656-.562-.61-.578-.641-1.25-.657-1.625 0-.11-.093-.11-.125-.11-.125 0-.125.079-.125.266v2.11c0 .171 0 .25.11.25.078 0 .078-.032.156-.141 0 0 .031-.047.375-.594.328.36 1 .734 1.937.734 1.235 0 2.063-1.03 2.063-2.187zm7.791-2.797-.187-2.36h-6.422l-.203 2.36h.265c.14-1.687.297-2.031 1.89-2.031.188 0 .47 0 .563.015.219.047.219.157.219.407v5.53c0 .36 0 .5-1.094.5h-.422v.329c.422-.031 1.5-.031 1.985-.031.484 0 1.562 0 2 .031v-.328h-.422c-1.11 0-1.11-.14-1.11-.5V40.09c0-.22 0-.36.188-.407.125-.015.406-.015.61-.015 1.578 0 1.734.344 1.89 2.031Zm8.377-1.625c.079-.297.11-.36.235-.39.094-.016.453-.016.672-.016 1.062 0 1.53.047 1.53.86 0 .155-.046.562-.093.843 0 .031-.031.172-.031.203 0 .063.031.125.14.125.11 0 .126-.078.157-.234l.281-1.828c0-.047.016-.157.016-.188 0-.11-.11-.11-.282-.11h-5.828c-.25 0-.265.016-.344.204l-.624 1.86a.88.88 0 0 0-.063.187c0 .062.047.109.125.109.11 0 .125-.047.188-.219.562-1.625.828-1.812 2.39-1.812h.406c.297 0 .297.047.297.125a.762.762 0 0 1-.047.219l-1.406 5.609c-.094.39-.125.5-1.25.5-.375 0-.437 0-.437.203 0 .125.109.125.171.125.282 0 .579-.016.86-.016.297 0 .61-.015.906-.015.281 0 .578.015.86.015.312 0 .624.016.921.016.11 0 .235 0 .235-.203 0-.125-.094-.125-.36-.125-.265 0-.406 0-.671-.016-.313-.031-.391-.062-.391-.234 0-.016 0-.063.047-.219zm15.044 2.938c.156 0 .36 0 .36-.204 0-.218-.204-.218-.36-.218h-6.282c-.156 0-.343 0-.343.218 0 .204.187.204.343.204zm0 2.046c.156 0 .36 0 .36-.218 0-.203-.204-.203-.36-.203h-6.282c-.156 0-.343 0-.343.203 0 .218.187.218.343.218zm9.112 3.907c0-.032 0-.047-.172-.235-1.312-1.312-1.64-3.297-1.64-4.906 0-1.828.39-3.656 1.687-4.969.125-.125.125-.14.125-.172 0-.078-.031-.109-.094-.109-.109 0-1.046.719-1.671 2.047-.532 1.156-.657 2.328-.657 3.203 0 .813.11 2.094.688 3.281.625 1.282 1.531 1.969 1.64 1.969.063 0 .094-.031.094-.11zm7.305-8.578c.094-.438.297-.75 1.125-.782.062 0 .187-.015.187-.218 0 0 0-.11-.14-.11-.344 0-.719.031-1.078.031-.344 0-.735-.03-1.078-.03-.063 0-.204 0-.204.202 0 .125.11.125.203.125.594.016.704.235.704.453 0 .032-.016.204-.032.235l-.937 3.734c-.36 1.406-1.563 2.328-2.625 2.328-.703 0-1.281-.468-1.281-1.36 0-.03 0-.358.125-.827l1.015-4.078c.094-.375.11-.485.875-.485.281 0 .36 0 .36-.218 0-.11-.11-.11-.141-.11-.297 0-1.047.031-1.344.031-.312 0-1.047-.03-1.36-.03-.077 0-.202 0-.202.202 0 .125.094.125.297.125.03 0 .218 0 .406.016.187.031.281.031.281.172 0 .062-.11.5-.172.75l-.234.922c-.094.406-.61 2.39-.64 2.593-.079.297-.079.454-.079.61 0 1.281.953 2.015 2.063 2.015 1.312 0 2.625-1.187 2.968-2.578zm2.593 6.046c0-.687-.25-1.093-.672-1.093a.533.533 0 0 0-.547.547c0 .296.203.562.547.562a.59.59 0 0 0 .375-.14.203.203 0 0 0 .047-.032c.016 0 .031.016.031.156 0 .782-.375 1.407-.718 1.766-.11.11-.11.125-.11.156 0 .078.047.125.094.125.125 0 .953-.812.953-2.047zm11.718-2.437c.015-.047.046-.125.046-.14 0-.016 0-.11-.125-.11-.093 0-.109.062-.14.125-.672 1.547-1.063 2.25-2.86 2.25h-1.53c-.157 0-.173 0-.235-.016-.11 0-.14-.015-.14-.093 0-.032 0-.063.062-.25l.703-2.86h1.047c.89 0 .89.219.89.485 0 .062 0 .203-.078.515-.015.047-.031.078-.031.11 0 .046.047.109.14.109.079 0 .11-.047.157-.203l.594-2.453a.123.123 0 0 0-.125-.125c-.094 0-.11.062-.141.203-.219.797-.406 1.031-1.375 1.031h-.984l.625-2.531c.093-.36.109-.406.562-.406h1.484c1.282 0 1.594.296 1.594 1.156 0 .265 0 .281-.047.562v.188c0 .062.032.125.125.125.11 0 .125-.063.14-.266l.22-1.812c.03-.282-.032-.282-.282-.282h-5.312c-.203 0-.313 0-.313.204 0 .125.094.125.297.125.39 0 .688 0 .688.187 0 .047 0 .063-.063.25l-1.375 5.563c-.11.406-.14.484-.968.484-.172 0-.282 0-.282.203 0 .125.094.125.282.125h5.453c.25 0 .25-.016.328-.172zm3.723-.191c.046-.203.062-.218.218-.234h.407c.437 0 .609 0 .78.047.313.094.329.297.329.547 0 .109 0 .203-.047.562l-.016.078c0 .078.047.11.125.11.11 0 .11-.063.125-.172l.188-1.328c0-.094-.078-.094-.203-.094h-4.281c-.172 0-.188 0-.235.14l-.453 1.235c0 .031-.031.094-.031.125s.016.094.125.094c.094 0 .094-.032.14-.172.407-1.11.641-1.172 1.704-1.172h.28c.22 0 .22 0 .22.062 0 0 0 .047-.032.141l-.922 3.672c-.062.25-.078.328-.812.328-.25 0-.313 0-.313.156 0 .016.016.094.125.094.188 0 .407-.016.594-.016.203 0 .406-.015.594-.015.203 0 .438 0 .64.015.188 0 .391.016.579.016.062 0 .156 0 .156-.156 0-.094-.063-.094-.281-.094-.125 0-.266-.016-.406-.016-.235-.015-.25-.046-.25-.125 0-.062 0-.062.03-.171zm5.916.019c0-.812-.11-2.094-.687-3.281-.625-1.281-1.531-1.969-1.64-1.969a.107.107 0 0 0-.11.11c0 .03 0 .046.203.234 1.031 1.047 1.625 2.719 1.625 4.906 0 1.797-.39 3.64-1.688 4.969-.14.125-.14.14-.14.172 0 .062.047.109.11.109.109 0 1.046-.719 1.671-2.047.531-1.156.656-2.328.656-3.203ZM79.508 56.768c.094-.438.297-.75 1.125-.782.062 0 .187-.015.187-.218 0 0 0-.11-.14-.11-.344 0-.719.031-1.078.031-.344 0-.735-.03-1.079-.03-.062 0-.203 0-.203.202 0 .125.11.125.203.125.594.016.704.235.704.453 0 .032-.016.204-.032.235l-.937 3.734c-.36 1.406-1.563 2.328-2.625 2.328-.703 0-1.281-.468-1.281-1.36 0-.03 0-.358.125-.827l1.015-4.078c.094-.375.11-.485.875-.485.281 0 .36 0 .36-.218 0-.11-.11-.11-.141-.11-.297 0-1.047.031-1.344.031-.312 0-1.047-.03-1.36-.03-.077 0-.202 0-.202.202 0 .125.093.125.297.125.03 0 .218 0 .406.016.187.031.281.031.281.172 0 .062-.11.5-.172.75l-.234.922c-.094.406-.61 2.39-.64 2.593-.079.297-.079.454-.079.61 0 1.281.953 2.015 2.063 2.015 1.312 0 2.625-1.187 2.968-2.578zm13.144 2.625c.156 0 .36 0 .36-.204 0-.218-.204-.218-.36-.218H86.37c-.156 0-.343 0-.343.218 0 .204.187.204.343.204zm0 2.046c.156 0 .36 0 .36-.218 0-.203-.204-.203-.36-.203H86.37c-.156 0-.343 0-.343.203 0 .218.187.218.343.218zm8.2-5.093c0-.422.281-1.094 1.422-1.157a.136.136 0 0 0 .093-.125c0-.109-.078-.109-.203-.109-1.047 0-2 .531-2.015 1.313v2.39c0 .406 0 .75-.422 1.094-.36.312-.766.328-1 .344-.047 0-.094.047-.094.109 0 .11.063.11.172.11.687.046 1.203.421 1.312.937.032.125.032.14.032.516v2.078c0 .437 0 .78.5 1.172.422.328 1.109.437 1.515.437.125 0 .203 0 .203-.11 0-.109-.062-.109-.171-.124-.657-.032-1.172-.375-1.313-.907-.031-.093-.031-.125-.031-.5v-2.203c0-.484-.078-.656-.422-1-.219-.218-.516-.328-.813-.406.86-.234 1.235-.719 1.235-1.328Zm5.953 5.89a.94.94 0 0 0 .937.703c.375 0 .61-.234.782-.578.171-.375.312-1.015.312-1.031 0-.11-.094-.11-.125-.11-.11 0-.125.048-.156.188-.14.594-.344 1.313-.781 1.313-.22 0-.329-.141-.329-.485 0-.234.126-.734.22-1.093l.28-1.141c.032-.156.141-.547.188-.703.047-.25.156-.64.156-.703 0-.203-.14-.297-.312-.297-.047 0-.313.015-.407.375-.203.765-.656 2.61-.78 3.156-.016.047-.438.89-1.204.89-.547 0-.64-.484-.64-.859 0-.593.28-1.422.562-2.156.125-.312.172-.453.172-.656 0-.469-.328-.86-.86-.86-1 0-1.39 1.516-1.39 1.61 0 .11.11.11.14.11.094 0 .11-.016.157-.188.265-.907.672-1.297 1.062-1.297.094 0 .266 0 .266.344 0 .25-.11.562-.172.718-.39 1.032-.61 1.688-.61 2.203 0 1 .72 1.25 1.282 1.25.703 0 1.078-.468 1.25-.703zm5.933-.05c0-.765-.094-1.328-.406-1.812-.22-.313-.657-.594-1.204-.594-1.625 0-1.625 1.906-1.625 2.406 0 .5 0 2.36 1.625 2.36 1.61 0 1.61-1.86 1.61-2.36zm-1.61 2.156c-.328 0-.75-.187-.89-.75-.094-.406-.094-.984-.094-1.5 0-.515 0-1.046.094-1.421.156-.547.594-.704.89-.704.375 0 .735.235.86.641.11.375.125.875.125 1.484 0 .516 0 1.032-.094 1.47-.14.64-.61.78-.89.78zm4.751-.278c0 .422-.266 1.094-1.422 1.157a.136.136 0 0 0-.094.125c0 .109.125.109.219.109 1.015 0 2-.516 2-1.312v-2.391c0-.406 0-.75.422-1.094.375-.312.765-.328 1-.344.046 0 .093-.046.093-.109 0-.11-.062-.11-.171-.11-.688-.046-1.188-.421-1.313-.937-.031-.125-.031-.14-.031-.515v-2.079c0-.437 0-.78-.5-1.171-.422-.329-1.14-.438-1.5-.438-.094 0-.219 0-.219.11 0 .109.063.109.172.124.656.032 1.172.375 1.312.907.032.093.032.125.032.5v2.203c0 .484.093.656.421 1 .22.219.532.328.813.406-.86.234-1.234.719-1.234 1.328Zm5.109-1.25c0-.687-.25-1.093-.672-1.093a.533.533 0 0 0-.547.547c0 .296.203.562.547.562a.59.59 0 0 0 .375-.14.203.203 0 0 0 .047-.032c.016 0 .031.016.031.156a2.6 2.6 0 0 1-.719 1.766c-.109.11-.109.125-.109.156 0 .078.047.125.094.125.125 0 .953-.812.953-2.047zm11.718-2.437c.015-.047.046-.125.046-.14 0-.016 0-.11-.125-.11-.093 0-.109.062-.14.125-.672 1.547-1.063 2.25-2.86 2.25h-1.53c-.157 0-.173 0-.235-.016-.11 0-.14-.015-.14-.093 0-.032 0-.063.062-.25l.703-2.86h1.047c.89 0 .89.219.89.485 0 .062 0 .203-.078.515-.016.047-.031.078-.031.11 0 .046.047.109.14.109.079 0 .11-.047.157-.203l.594-2.453a.123.123 0 0 0-.125-.125c-.094 0-.11.062-.141.203-.219.797-.406 1.031-1.375 1.031h-.984l.625-2.531c.093-.36.109-.406.562-.406h1.484c1.282 0 1.594.296 1.594 1.156 0 .265 0 .281-.047.562v.188c0 .062.031.125.125.125.11 0 .125-.063.14-.266l.22-1.812c.03-.282-.032-.282-.282-.282h-5.312c-.203 0-.313 0-.313.204 0 .125.094.125.297.125.39 0 .688 0 .688.187 0 .047 0 .063-.063.25l-1.375 5.563c-.11.406-.14.484-.969.484-.171 0-.28 0-.28.203 0 .125.093.125.28.125h5.454c.25 0 .25-.016.328-.172zm3.716-.191c.047-.203.062-.219.218-.234h.407c.437 0 .609 0 .78.047.313.093.329.297.329.547 0 .109 0 .203-.047.562l-.015.078c0 .078.046.11.125.11.109 0 .109-.063.125-.172l.187-1.328c0-.094-.078-.094-.203-.094h-4.281c-.172 0-.188 0-.235.14l-.453 1.235c0 .031-.031.094-.031.125s.016.094.125.094c.094 0 .094-.032.14-.172.407-1.11.641-1.172 1.704-1.172h.28c.22 0 .22 0 .22.062 0 0 0 .047-.032.141l-.921 3.672c-.063.25-.079.328-.813.328-.25 0-.312 0-.312.156 0 .016.015.094.125.094.187 0 .406-.016.593-.016.203 0 .407-.015.594-.015.203 0 .438 0 .64.015.188 0 .391.016.579.016.062 0 .156 0 .156-.156 0-.094-.062-.094-.281-.094-.125 0-.266-.016-.406-.016-.235-.015-.25-.047-.25-.125 0-.062 0-.062.03-.172zm14.387-.793c.156 0 .36 0 .36-.204 0-.218-.204-.218-.36-.218h-6.281c-.157 0-.344 0-.344.218 0 .204.187.204.344.204zm0 2.046c.156 0 .36 0 .36-.218 0-.203-.204-.203-.36-.203h-6.281c-.157 0-.344 0-.344.203 0 .218.187.218.344.218zm8.2-5.093c0-.422.281-1.094 1.422-1.157a.136.136 0 0 0 .093-.125c0-.109-.078-.109-.203-.109-1.047 0-2 .531-2.015 1.313v2.39c0 .406 0 .75-.422 1.094-.36.312-.766.328-1 .344-.047 0-.094.047-.094.109 0 .11.062.11.172.11.687.046 1.203.421 1.312.937.032.125.032.14.032.516v2.078c0 .437 0 .78.5 1.172.421.328 1.109.437 1.515.437.125 0 .203 0 .203-.11 0-.109-.062-.109-.172-.124-.656-.032-1.171-.375-1.312-.907-.031-.093-.031-.125-.031-.5v-2.203c0-.484-.078-.656-.422-1-.219-.218-.516-.328-.813-.406.86-.234 1.235-.719 1.235-1.328Zm4.547 7.718c0 .422-.266 1.094-1.422 1.157a.136.136 0 0 0-.094.125c0 .109.125.109.219.109 1.015 0 2-.516 2-1.312v-2.391c0-.406 0-.75.422-1.094.375-.312.765-.328 1-.344.046 0 .093-.046.093-.109 0-.11-.062-.11-.172-.11-.687-.046-1.187-.421-1.312-.937-.031-.125-.031-.14-.031-.515v-2.079c0-.437 0-.78-.5-1.171-.422-.329-1.14-.438-1.5-.438-.094 0-.219 0-.219.11 0 .109.062.109.172.124.656.032 1.172.375 1.312.907.032.093.032.125.032.5v2.203c0 .484.093.656.421 1 .22.219.532.328.813.406-.86.234-1.234.719-1.234 1.328Zm0 0"/><path fill="none" stroke="#000" stroke-miterlimit="10" stroke-width=".399" d="m206.05 112.34-86.363-28.73-86.359 28.73 86.36 28.73Zm0 0"/><path d="M95.815 107.466c0-.188 0-.375-.219-.375-.203 0-.203.188-.203.375v9.75c0 .188 0 .375.203.375.219 0 .219-.188.219-.375zm7.915 1.437c.095-.437.298-.75 1.126-.78.062 0 .187-.016.187-.22 0 0 0-.109-.14-.109-.344 0-.719.031-1.078.031-.344 0-.735-.03-1.079-.03-.062 0-.203 0-.203.202 0 .125.11.125.203.125.594.016.704.235.704.453 0 .032-.016.203-.032.235l-.937 3.734c-.36 1.406-1.563 2.328-2.625 2.328-.703 0-1.281-.469-1.281-1.36 0-.03 0-.359.125-.827l1.015-4.078c.094-.375.11-.485.875-.485.281 0 .36 0 .36-.219 0-.109-.11-.109-.141-.109-.297 0-1.047.031-1.344.031-.312 0-1.047-.03-1.36-.03-.077 0-.202 0-.202.202 0 .125.093.125.297.125.03 0 .218 0 .406.016.187.031.281.031.281.172 0 .062-.11.5-.172.75l-.234.922c-.094.406-.61 2.39-.64 2.593-.079.297-.079.453-.079.61 0 1.281.953 2.015 2.063 2.015 1.312 0 2.625-1.187 2.968-2.578zm3.315-1.437c0-.188 0-.375-.219-.375-.203 0-.203.188-.203.375v9.75c0 .188 0 .375.203.375.219 0 .219-.188.219-.375zm15.707 4.062c.156 0 .36 0 .36-.203 0-.218-.204-.218-.36-.218h-6.281c-.157 0-.344 0-.344.218 0 .203.187.203.344.203zm0 2.047c.156 0 .36 0 .36-.218 0-.204-.204-.204-.36-.204h-6.281c-.157 0-.344 0-.344.204 0 .218.187.218.344.218zm9.862-6.109c0-.188 0-.375-.219-.375-.203 0-.203.188-.203.375v9.75c0 .188 0 .375.203.375.219 0 .219-.188.219-.375zm7.839 1.531c.515-.828.953-.86 1.343-.875.125-.015.141-.187.141-.203 0-.078-.062-.125-.14-.125-.266 0-.579.031-.86.031-.344 0-.703-.03-1.047-.03-.062 0-.187 0-.187.202 0 .11.093.125.156.125.297.016.484.125.484.344 0 .156-.156.39-.156.406l-3.219 5.125-.718-5.562c0-.172.25-.313.734-.313.14 0 .25 0 .25-.219 0-.093-.078-.109-.14-.109-.423 0-.876.031-1.298.031-.187 0-.39-.015-.578-.015-.187 0-.39-.016-.578-.016-.062 0-.187 0-.187.203 0 .125.093.125.25.125.593 0 .61.094.64.36l.828 6.468c.032.22.079.25.204.25.171 0 .218-.062.296-.187zm3.536-1.531c0-.188 0-.375-.219-.375-.203 0-.203.188-.203.375v9.75c0 .188 0 .375.203.375.219 0 .219-.188.219-.375zm0 0"/><path fill="none" stroke="#000" stroke-miterlimit="10" stroke-width=".399" d="M59.496 252.336h120.387v-82.438H59.496Zm0 0"/><path d="m75.31 176.494-.297-2.36h-5.765v.328h.25c.812 0 .828.11.828.485v5.515c0 .375-.016.485-.828.485h-.25v.328c.375-.031 1.187-.031 1.593-.031.438 0 1.391 0 1.766.031v-.328h-.344c-1 0-1-.14-1-.5v-2.578h.907c1.015 0 1.109.328 1.109 1.218h.266v-2.78h-.266c0 .89-.094 1.234-1.11 1.234h-.906v-2.657c0-.343.032-.422.516-.422h1.266c1.578 0 1.828.594 2 2.032zm3.044 4.781v-.328c-.687 0-.734-.047-.734-.453v-3.86l-1.469.11v.328c.688 0 .781.062.781.578v2.828c0 .469-.125.469-.828.469v.328l1.156-.031c.375 0 .735.015 1.094.031zm-.578-6.344a.57.57 0 0 0-.562-.562.57.57 0 0 0-.563.562c0 .281.25.563.563.563a.559.559 0 0 0 .562-.563zm6.528 6.344v-.328c-.546 0-.812 0-.828-.313v-2c0-.906 0-1.234-.328-1.609-.14-.188-.484-.39-1.094-.39-.765 0-1.265.452-1.562 1.109v-1.11l-1.469.11v.328c.735 0 .813.078.813.594v2.812c0 .469-.11.469-.813.469v.328l1.172-.031 1.188.031v-.328c-.704 0-.829 0-.829-.469v-1.937c0-1.094.75-1.672 1.422-1.672.657 0 .782.562.782 1.156v2.453c0 .469-.125.469-.829.469v.328l1.188-.031zm5.745 0v-.328c-.735 0-.813-.078-.813-.578v-6.375l-1.515.11v.327c.734 0 .812.078.812.578v2.282a1.62 1.62 0 0 0-1.312-.657c-1.25 0-2.344 1.032-2.344 2.391 0 1.328 1.031 2.36 2.219 2.36.672 0 1.156-.344 1.406-.688v.687zm-1.547-1.234c0 .187 0 .203-.11.39-.312.5-.78.735-1.234.735-.484 0-.86-.282-1.11-.672-.265-.438-.296-1.032-.296-1.469 0-.39.016-1.016.312-1.484.235-.329.625-.672 1.188-.672.375 0 .812.156 1.14.625.11.187.11.203.11.39zm8.834-.063v-.61h-.265v.579c0 .781-.313 1.187-.703 1.187-.704 0-.704-.968-.704-1.14v-2.922h1.5v-.328h-1.5v-1.922H95.4c0 .86-.313 1.984-1.344 2.015v.235h.89v2.906c0 1.281.97 1.406 1.36 1.406.734 0 1.031-.734 1.031-1.406zm6.226 1.297v-.328c-.547 0-.813 0-.829-.313v-2c0-.906 0-1.234-.328-1.609-.14-.188-.484-.39-1.093-.39-.891 0-1.344.624-1.516 1h-.016v-3.641l-1.5.11v.327c.735 0 .813.078.813.578v5.47c0 .468-.11.468-.813.468v.328l1.172-.031 1.188.031v-.328c-.703 0-.828 0-.828-.469v-1.937c0-1.094.75-1.672 1.421-1.672.657 0 .782.562.782 1.156v2.453c0 .469-.125.469-.828.469v.328l1.187-.031zm4.572-1.25c0-.11-.078-.125-.14-.125-.094 0-.11.062-.141.14-.36 1.094-1.313 1.094-1.407 1.094-.53 0-.953-.328-1.187-.703-.313-.515-.313-1.203-.313-1.578h2.922c.235 0 .266 0 .266-.219 0-1.047-.563-2.062-1.875-2.062-1.219 0-2.188 1.078-2.188 2.39 0 1.407 1.094 2.422 2.313 2.422 1.281 0 1.75-1.156 1.75-1.359zm-.688-1.39h-2.5c.063-1.563.954-1.829 1.313-1.829 1.078 0 1.187 1.406 1.187 1.828zm8.846 1.39c0-.11-.078-.125-.14-.125-.094 0-.11.062-.14.14-.36 1.094-1.313 1.094-1.407 1.094-.531 0-.953-.328-1.188-.703-.312-.515-.312-1.203-.312-1.578h2.922c.234 0 .265 0 .265-.219 0-1.047-.562-2.062-1.875-2.062-1.218 0-2.187 1.078-2.187 2.39 0 1.407 1.094 2.422 2.312 2.422 1.282 0 1.75-1.156 1.75-1.359zm-.687-1.39h-2.5c.062-1.563.953-1.829 1.312-1.829 1.079 0 1.188 1.406 1.188 1.828zm6.521 2.64v-.328c-.734 0-.812-.078-.812-.578v-6.375l-1.516.11v.327c.734 0 .813.078.813.578v2.282a1.62 1.62 0 0 0-1.313-.657c-1.25 0-2.344 1.032-2.344 2.391 0 1.328 1.032 2.36 2.22 2.36.671 0 1.155-.344 1.405-.688v.687zm-1.547-1.234c0 .187 0 .203-.109.39-.313.5-.781.735-1.234.735-.485 0-.86-.282-1.11-.672-.265-.438-.297-1.032-.297-1.469 0-.39.016-1.016.313-1.484.234-.329.625-.672 1.187-.672.375 0 .813.156 1.141.625.11.187.11.203.11.39zm6.948-3.001c0-.187-.125-.515-.531-.515-.22 0-.672.062-1.125.484a1.74 1.74 0 0 0-1.11-.375c-.969 0-1.703.72-1.703 1.532 0 .468.234.859.5 1.078-.14.156-.328.515-.328.875 0 .328.14.718.469.937-.641.172-.97.625-.97 1.047 0 .75 1.032 1.328 2.313 1.328 1.25 0 2.344-.531 2.344-1.344 0-.375-.156-.906-.687-1.203-.563-.297-1.172-.297-1.813-.297h-.781c-.344-.046-.563-.375-.563-.703 0-.047 0-.297.188-.5a1.74 1.74 0 0 0 1.031.328c.985 0 1.703-.718 1.703-1.53 0-.391-.172-.782-.437-1.016.39-.36.765-.422.953-.422 0 0 .078 0 .11.015-.126.047-.173.157-.173.282a.3.3 0 0 0 .297.312c.11 0 .313-.078.313-.312zm-1.844 1.126c0 .28-.016.625-.172.89a.902.902 0 0 1-.75.406c-.906 0-.906-1.046-.906-1.28 0-.282 0-.626.156-.891.094-.125.328-.422.75-.422.922 0 .922 1.062.922 1.297zm1.156 3.937c0 .563-.75 1.094-1.781 1.094-1.063 0-1.781-.531-1.781-1.094a.92.92 0 0 1 .86-.906h.624c.89 0 2.078 0 2.078.906zm5.203-2.078c0-.11-.078-.125-.14-.125-.094 0-.11.062-.14.14-.36 1.094-1.313 1.094-1.407 1.094-.531 0-.953-.328-1.188-.703-.312-.515-.312-1.203-.312-1.578h2.922c.234 0 .265 0 .265-.219 0-1.047-.562-2.062-1.875-2.062-1.218 0-2.187 1.078-2.187 2.39 0 1.407 1.094 2.422 2.312 2.422 1.282 0 1.75-1.156 1.75-1.359zm-.687-1.39h-2.5c.062-1.563.953-1.829 1.312-1.829 1.078 0 1.188 1.406 1.188 1.828zm7.964 5.155c0-.03 0-.046-.172-.234-1.313-1.312-1.64-3.297-1.64-4.906 0-1.828.39-3.656 1.687-4.969.125-.125.125-.14.125-.172 0-.078-.031-.109-.094-.109-.11 0-1.047.719-1.672 2.047-.531 1.156-.656 2.328-.656 3.203 0 .812.11 2.094.687 3.281.625 1.281 1.532 1.969 1.641 1.969.063 0 .094-.031.094-.11zm4.287-3.109a.94.94 0 0 0 .937.703c.375 0 .61-.234.782-.578.172-.375.312-1.015.312-1.031 0-.11-.094-.11-.125-.11-.11 0-.125.047-.156.188-.14.594-.344 1.313-.781 1.313-.22 0-.328-.141-.328-.485 0-.234.125-.734.218-1.094l.282-1.14c.03-.156.14-.547.187-.703.047-.25.156-.64.156-.703 0-.204-.14-.297-.312-.297-.047 0-.313.015-.406.375-.204.765-.657 2.61-.782 3.156-.015.047-.437.89-1.203.89-.547 0-.64-.484-.64-.859 0-.594.28-1.422.562-2.156.125-.313.172-.453.172-.656 0-.469-.328-.86-.86-.86-1 0-1.39 1.516-1.39 1.61 0 .11.11.11.14.11.094 0 .11-.017.157-.188.265-.907.672-1.297 1.062-1.297.094 0 .266 0 .266.343 0 .25-.11.563-.172.72-.39 1.03-.61 1.687-.61 2.202 0 1 .72 1.25 1.282 1.25.703 0 1.078-.468 1.25-.703zm5.932-.05c0-.765-.094-1.328-.407-1.812-.218-.313-.656-.594-1.203-.594-1.625 0-1.625 1.906-1.625 2.406 0 .5 0 2.36 1.625 2.36 1.61 0 1.61-1.86 1.61-2.36zm-1.61 2.157c-.328 0-.75-.188-.89-.75-.094-.407-.094-.985-.094-1.5 0-.516 0-1.047.094-1.422.156-.547.593-.703.89-.703.375 0 .735.234.86.64.11.375.125.875.125 1.485 0 .515 0 1.03-.094 1.468-.14.64-.61.782-.89.782zm4.611-1.528c0-.688-.25-1.094-.672-1.094a.533.533 0 0 0-.547.546c0 .297.203.563.547.563a.59.59 0 0 0 .375-.14.203.203 0 0 0 .047-.032c.016 0 .031.016.031.156a2.6 2.6 0 0 1-.719 1.766c-.109.11-.109.125-.109.156 0 .078.047.125.094.125.125 0 .953-.812.953-2.047zm9.186-3.891c0-.563-.265-.735-.453-.735-.266 0-.516.266-.516.5 0 .141.047.203.172.313.22.219.36.484.36.86 0 .452-.64 2.859-1.875 2.859-.532 0-.782-.375-.782-.922 0-.578.282-1.36.61-2.219.078-.188.125-.328.125-.531 0-.469-.328-.86-.86-.86-.984 0-1.39 1.516-1.39 1.61 0 .11.11.11.14.11.094 0 .11-.017.157-.188.312-1.063.765-1.297 1.062-1.297.094 0 .266 0 .266.328 0 .265-.11.547-.172.734-.469 1.219-.61 1.703-.61 2.156 0 1.141.922 1.297 1.407 1.297 1.765 0 2.36-3.468 2.36-4.015zm3.789 3.262c0-.765-.094-1.328-.407-1.812-.218-.313-.656-.594-1.203-.594-1.625 0-1.625 1.906-1.625 2.406 0 .5 0 2.36 1.625 2.36 1.61 0 1.61-1.86 1.61-2.36zm-1.61 2.157c-.328 0-.75-.188-.89-.75-.094-.407-.094-.985-.094-1.5 0-.516 0-1.047.094-1.422.156-.547.593-.703.89-.703.375 0 .735.234.86.64.11.375.125.875.125 1.485 0 .515 0 1.03-.094 1.468-.14.64-.61.782-.89.782zm5.516-4.138c0-.813-.11-2.094-.687-3.281-.625-1.282-1.531-1.969-1.64-1.969a.107.107 0 0 0-.11.11c0 .03 0 .046.203.234 1.031 1.047 1.625 2.718 1.625 4.906 0 1.797-.39 3.64-1.688 4.969-.14.125-.14.14-.14.172 0 .062.047.109.11.109.109 0 1.046-.719 1.671-2.047.531-1.156.656-2.328.656-3.203Zm-92.671 14.802v-.328c-.219.031-.531.031-.766.031l-.968-.031v.328c.375.016.609.203.609.5 0 .062 0 .094-.062.234l-.954 2.688-1.03-2.938c-.048-.125-.063-.14-.063-.203 0-.281.422-.281.625-.281v-.328l-1.094.031c-.313 0-.61 0-.938-.031v.328c.391 0 .563.031.672.156.047.063.157.375.235.578l-.907 2.547-.984-2.812c-.062-.125-.062-.141-.062-.188 0-.281.406-.281.625-.281v-.328l-1.141.031-.984-.031v.328c.53 0 .656.031.78.375l1.313 3.719c.063.14.094.218.235.218.125 0 .156-.062.203-.203l1.062-2.969 1.063 2.985c.047.11.078.187.219.187.14 0 .171-.093.203-.187l1.234-3.453c.188-.516.516-.656.875-.672Zm2.8 4.203v-.328c-.688 0-.735-.047-.735-.453v-3.86l-1.468.11v.328c.687 0 .78.062.78.578v2.828c0 .469-.124.469-.827.469v.328l1.156-.031c.375 0 .734.015 1.094.031zm-.578-6.344a.57.57 0 0 0-.563-.562.57.57 0 0 0-.562.562c0 .281.25.563.562.563a.56.56 0 0 0 .563-.563zm4.387 5.047v-.61h-.265v.579c0 .781-.313 1.187-.703 1.187-.703 0-.703-.968-.703-1.14v-2.922h1.5v-.328h-1.5v-1.922h-.266c0 .86-.313 1.984-1.344 2.016v.234h.89v2.906c0 1.281.97 1.406 1.36 1.406.735 0 1.031-.734 1.031-1.406zm6.226 1.297v-.328c-.547 0-.813 0-.829-.313v-2c0-.906 0-1.234-.328-1.609-.14-.188-.484-.39-1.093-.39-.891 0-1.344.624-1.516 1h-.016v-3.641l-1.5.11v.327c.735 0 .813.078.813.578v5.47c0 .468-.11.468-.813.468v.328l1.172-.031 1.188.031v-.328c-.703 0-.828 0-.828-.469v-1.937c0-1.094.75-1.672 1.421-1.672.657 0 .782.562.782 1.156v2.453c0 .469-.125.469-.828.469v.328l1.187-.031zm12.24 0v-.328c-.547 0-.797 0-.812-.313v-2c0-.906 0-1.234-.328-1.609-.141-.188-.485-.39-1.094-.39-.89 0-1.344.624-1.531 1.03-.141-.921-.922-1.03-1.391-1.03-.766 0-1.266.453-1.563 1.109v-1.11l-1.468.11v.328c.734 0 .812.078.812.594v2.812c0 .469-.11.469-.812.469v.328l1.172-.031 1.187.031v-.328c-.703 0-.828 0-.828-.469v-1.937c0-1.094.75-1.672 1.422-1.672.656 0 .781.562.781 1.156v2.453c0 .469-.125.469-.828.469v.328l1.187-.031 1.188.031v-.328c-.719 0-.828 0-.828-.469v-1.937c0-1.094.75-1.672 1.422-1.672.656 0 .781.562.781 1.156v2.453c0 .469-.125.469-.828.469v.328l1.187-.031zm2.809 0v-.328c-.687 0-.734-.047-.734-.453v-3.86l-1.469.11v.328c.688 0 .781.062.781.578v2.828c0 .469-.125.469-.828.469v.328l1.157-.031c.374 0 .734.015 1.093.031zm-.578-6.344a.57.57 0 0 0-.562-.562.57.57 0 0 0-.563.562c0 .281.25.563.563.563a.559.559 0 0 0 .562-.563zm6.529 6.344v-.328c-.547 0-.813 0-.829-.313v-2c0-.906 0-1.234-.328-1.609-.14-.188-.484-.39-1.094-.39-.765 0-1.265.453-1.562 1.109v-1.11l-1.469.11v.328c.735 0 .813.078.813.594v2.812c0 .469-.11.469-.813.469v.328l1.172-.031 1.188.031v-.328c-.704 0-.829 0-.829-.469v-1.937c0-1.094.75-1.672 1.422-1.672.657 0 .782.562.782 1.156v2.453c0 .469-.125.469-.829.469v.328l1.188-.031zm2.806 0v-.328c-.687 0-.734-.047-.734-.453v-3.86l-1.469.11v.328c.688 0 .781.062.781.578v2.828c0 .469-.125.469-.828.469v.328l1.156-.031c.375 0 .735.015 1.094.031zm-.578-6.344a.57.57 0 0 0-.562-.562.57.57 0 0 0-.563.562c0 .281.25.563.563.563a.559.559 0 0 0 .562-.563zm9.435 6.344v-.328c-.547 0-.797 0-.813-.313v-2c0-.906 0-1.234-.328-1.609-.14-.188-.484-.39-1.094-.39-.89 0-1.343.624-1.53 1.03-.141-.921-.923-1.03-1.391-1.03-.766 0-1.266.453-1.563 1.109v-1.11l-1.469.11v.328c.735 0 .813.078.813.594v2.812c0 .469-.11.469-.813.469v.328l1.172-.031 1.188.031v-.328c-.703 0-.828 0-.828-.469v-1.937c0-1.094.75-1.672 1.421-1.672.657 0 .782.562.782 1.156v2.453c0 .469-.125.469-.828.469v.328l1.187-.031 1.188.031v-.328c-.72 0-.829 0-.829-.469v-1.937c0-1.094.75-1.672 1.422-1.672.657 0 .782.562.782 1.156v2.453c0 .469-.125.469-.829.469v.328l1.188-.031zm5.556 0v-.328c-.75 0-.828-.078-.828-.578v-3.735l-1.546.11v.328c.734 0 .828.078.828.594v1.859c0 .922-.516 1.64-1.282 1.64-.875 0-.921-.5-.921-1.046v-3.485l-1.532.11v.328c.813 0 .813.031.813.969v1.578c0 .812 0 1.765 1.594 1.765.593 0 1.046-.28 1.359-.937v.937zm8.745 0v-.328c-.547 0-.797 0-.813-.313v-2c0-.906 0-1.234-.328-1.609-.14-.188-.484-.39-1.094-.39-.89 0-1.343.624-1.53 1.03-.142-.921-.923-1.03-1.392-1.03-.765 0-1.265.453-1.562 1.109v-1.11l-1.469.11v.328c.735 0 .813.078.813.594v2.812c0 .469-.11.469-.813.469v.328l1.172-.031 1.188.031v-.328c-.704 0-.829 0-.829-.469v-1.937c0-1.094.75-1.672 1.422-1.672.657 0 .782.562.782 1.156v2.453c0 .469-.125.469-.829.469v.328l1.188-.031 1.187.031v-.328c-.718 0-.828 0-.828-.469v-1.937c0-1.094.75-1.672 1.422-1.672.656 0 .781.562.781 1.156v2.453c0 .469-.125.469-.828.469v.328l1.188-.031zm11.076-4.203v-.328c-.219.031-.531.031-.766.031l-.968-.031v.328c.375.016.609.203.609.5 0 .062 0 .094-.063.234l-.953 2.688-1.03-2.938c-.048-.125-.063-.14-.063-.203 0-.281.421-.281.625-.281v-.328l-1.094.031c-.313 0-.61 0-.938-.031v.328c.391 0 .563.031.672.156.047.063.156.375.235.578l-.907 2.547-.984-2.812c-.063-.125-.063-.141-.063-.188 0-.281.407-.281.625-.281v-.328l-1.14.031-.985-.031v.328c.532 0 .657.031.782.375l1.312 3.719c.063.14.094.218.235.218.125 0 .156-.062.203-.203l1.062-2.969 1.063 2.985c.047.11.078.187.218.187.141 0 .172-.093.204-.187l1.234-3.453c.187-.516.516-.656.875-.672Zm4.282 2.953c0-.11-.078-.125-.14-.125-.095 0-.11.063-.141.14-.36 1.094-1.313 1.094-1.407 1.094-.53 0-.953-.328-1.187-.703-.313-.515-.313-1.203-.313-1.578h2.922c.235 0 .266 0 .266-.219 0-1.047-.563-2.062-1.875-2.062-1.219 0-2.188 1.078-2.188 2.39 0 1.407 1.094 2.422 2.313 2.422 1.281 0 1.75-1.156 1.75-1.359zm-.688-1.39h-2.5c.063-1.563.953-1.829 1.313-1.829 1.078 0 1.187 1.406 1.187 1.828zm3.584 2.64v-.328c-.687 0-.734-.047-.734-.453v-3.86l-1.469.11v.328c.688 0 .781.062.781.578v2.828c0 .469-.125.469-.828.469v.328l1.156-.031c.375 0 .735.015 1.094.031zm-.578-6.344a.57.57 0 0 0-.562-.562.57.57 0 0 0-.563.562c0 .281.25.563.563.563a.559.559 0 0 0 .562-.563zm5.997 2.109c0-.187-.125-.515-.531-.515-.219 0-.672.063-1.125.484a1.74 1.74 0 0 0-1.11-.375c-.968 0-1.703.72-1.703 1.532 0 .468.235.859.5 1.078-.14.156-.328.515-.328.875 0 .328.141.719.47.937-.642.172-.97.625-.97 1.047 0 .75 1.032 1.328 2.313 1.328 1.25 0 2.344-.531 2.344-1.344 0-.375-.157-.906-.688-1.203-.562-.297-1.172-.297-1.812-.297h-.782c-.343-.046-.562-.375-.562-.703 0-.047 0-.297.187-.5a1.74 1.74 0 0 0 1.032.328c.984 0 1.703-.718 1.703-1.53 0-.391-.172-.782-.438-1.016.39-.36.766-.422.953-.422 0 0 .078 0 .11.015-.125.047-.172.157-.172.282a.3.3 0 0 0 .297.312c.11 0 .312-.078.312-.312zm-1.844 1.126c0 .28-.015.625-.171.89a.902.902 0 0 1-.75.406c-.907 0-.907-1.046-.907-1.28 0-.282 0-.626.157-.891.093-.125.328-.422.75-.422.922 0 .922 1.062.922 1.297zm1.157 3.937c0 .563-.75 1.094-1.781 1.094-1.063 0-1.782-.531-1.782-1.094a.92.92 0 0 1 .86-.906h.625c.89 0 2.078 0 2.078.906zm6.468-.828v-.328c-.546 0-.812 0-.828-.313v-2c0-.906 0-1.234-.328-1.609-.14-.188-.484-.39-1.094-.39-.89 0-1.343.624-1.515 1h-.016v-3.641l-1.5.11v.327c.735 0 .813.078.813.578v5.47c0 .468-.11.468-.813.468v.328l1.172-.031 1.188.031v-.328c-.703 0-.828 0-.828-.469v-1.937c0-1.094.75-1.672 1.421-1.672.657 0 .782.562.782 1.156v2.453c0 .469-.125.469-.828.469v.328l1.187-.031zm3.404-1.297v-.61h-.266v.579c0 .781-.312 1.187-.703 1.187-.703 0-.703-.968-.703-1.14v-2.922h1.5v-.328h-1.5v-1.922h-.266c0 .86-.312 1.984-1.343 2.016v.234h.89v2.906c0 1.281.969 1.406 1.36 1.406.734 0 1.03-.734 1.03-1.406zm-86.991 11.005c0-.39-.39-.734-.953-.734-.734 0-1.625.562-1.625 1.672v1.203h-.828v.328h.828v3.406c0 .469-.11.469-.813.469v.328l1.188-.031c.422 0 .922 0 1.344.031v-.328h-.22c-.78 0-.796-.11-.796-.484v-3.391h1.188v-.328h-1.22v-1.219c0-.922.5-1.422.954-1.422.031 0 .203 0 .36.078a.452.452 0 0 0-.329.438c0 .234.172.453.453.453.313 0 .469-.219.469-.469zm3.291 2.672c0-.344-.328-.64-.781-.64-.766 0-1.14.702-1.297 1.156v-1.157l-1.453.11v.328c.734 0 .812.078.812.594v2.812c0 .469-.109.469-.812.469v.328l1.187-.031c.422 0 .922 0 1.344.031v-.328h-.219c-.78 0-.797-.11-.797-.484v-1.626c0-1.03.438-1.968 1.235-1.968h.11a.476.476 0 0 0-.235.422c0 .28.219.453.453.453.187 0 .453-.14.453-.469zm5.241 1.75c0-1.344-1.062-2.453-2.328-2.453-1.312 0-2.328 1.14-2.328 2.453 0 1.36 1.094 2.36 2.312 2.36a2.334 2.334 0 0 0 2.344-2.36zm-.875-.078c0 .375 0 .937-.234 1.406-.235.469-.688.781-1.219.781-.453 0-.906-.234-1.203-.703-.25-.469-.25-1.11-.25-1.484 0-.406 0-.984.25-1.438a1.386 1.386 0 0 1 1.187-.703c.47 0 .922.235 1.188.672.281.453.281 1.063.281 1.469zm9.703 2.328v-.328c-.547 0-.797 0-.812-.313v-2c0-.906 0-1.234-.328-1.609-.141-.188-.485-.39-1.094-.39-.89 0-1.344.624-1.531 1.03-.141-.921-.922-1.03-1.391-1.03-.766 0-1.266.452-1.562 1.109v-1.11l-1.47.11v.328c.735 0 .813.078.813.594v2.812c0 .469-.11.469-.812.469v.328l1.172-.031 1.187.031v-.328c-.703 0-.828 0-.828-.469v-1.937c0-1.094.75-1.672 1.422-1.672.656 0 .781.562.781 1.156v2.453c0 .469-.125.469-.828.469v.328l1.188-.031 1.187.031v-.328c-.719 0-.828 0-.828-.469v-1.937c0-1.094.75-1.672 1.422-1.672.656 0 .781.562.781 1.156v2.453c0 .469-.125.469-.828.469v.328l1.187-.031zm8.79-.938v-.578h-.266v.578c0 .61-.265.672-.375.672-.359 0-.39-.468-.39-.515v-2.11c0-.437 0-.843-.375-1.234a2.054 2.054 0 0 0-1.453-.578c-.86 0-1.578.5-1.578 1.187 0 .313.203.485.484.485.297 0 .484-.203.484-.469 0-.14-.062-.484-.53-.484.28-.375.796-.485 1.124-.485.516 0 1.11.406 1.11 1.344v.39c-.532.032-1.266.063-1.922.376-.797.359-1.047.906-1.047 1.359 0 .86 1.015 1.11 1.672 1.11.687 0 1.171-.407 1.375-.907.046.422.328.86.812.86.234 0 .875-.141.875-1zm-1.766-.53c0 1-.75 1.359-1.218 1.359-.516 0-.953-.375-.953-.907 0-.562.437-1.437 2.171-1.5zm4.61 1.468v-.328c-.703 0-.813 0-.813-.469v-6.484l-1.515.11v.327c.734 0 .828.078.828.578v5.47c0 .468-.125.468-.828.468v.328l1.172-.031zm2.919 0v-.328c-.703 0-.813 0-.813-.469v-6.484l-1.515.11v.327c.734 0 .828.078.828.578v5.47c0 .468-.125.468-.828.468v.328l1.172-.031zm7.228-1.297v-.61h-.266v.579c0 .781-.312 1.187-.703 1.187-.703 0-.703-.968-.703-1.14v-2.922h1.5v-.328h-1.5v-1.922h-.266c0 .86-.312 1.984-1.343 2.016v.234h.89v2.906c0 1.281.969 1.406 1.36 1.406.734 0 1.03-.734 1.03-1.406zm6.225 1.297v-.328c-.547 0-.813 0-.828-.313v-2c0-.906 0-1.234-.328-1.609-.14-.188-.485-.39-1.094-.39-.89 0-1.344.624-1.516 1H124v-3.641l-1.5.11v.327c.734 0 .812.078.812.578v5.47c0 .468-.11.468-.812.468v.328l1.172-.031 1.187.031v-.328c-.703 0-.828 0-.828-.469v-1.937c0-1.094.75-1.672 1.422-1.672.656 0 .781.562.781 1.156v2.453c0 .469-.125.469-.828.469v.328l1.188-.031zm4.572-1.25c0-.11-.078-.125-.14-.125-.094 0-.11.063-.14.14-.36 1.094-1.313 1.094-1.407 1.094-.531 0-.953-.328-1.188-.703-.312-.515-.312-1.203-.312-1.578h2.922c.234 0 .265 0 .265-.219 0-1.047-.562-2.062-1.875-2.062-1.218 0-2.187 1.078-2.187 2.39 0 1.407 1.094 2.422 2.312 2.422 1.282 0 1.75-1.156 1.75-1.359zm-.687-1.39h-2.5c.062-1.563.953-1.829 1.312-1.829 1.078 0 1.188 1.406 1.188 1.828zm8.846 1.39c0-.11-.078-.125-.14-.125-.095 0-.11.063-.141.14-.36 1.094-1.313 1.094-1.407 1.094-.53 0-.953-.328-1.187-.703-.313-.515-.313-1.203-.313-1.578h2.922c.235 0 .266 0 .266-.219 0-1.047-.563-2.062-1.875-2.062-1.219 0-2.188 1.078-2.188 2.39 0 1.407 1.094 2.422 2.313 2.422 1.281 0 1.75-1.156 1.75-1.359zm-.688-1.39h-2.5c.063-1.563.953-1.829 1.313-1.829 1.078 0 1.187 1.406 1.187 1.828zm6.522 2.64v-.328c-.735 0-.813-.078-.813-.578v-6.375l-1.515.11v.327c.734 0 .812.078.812.578v2.282a1.62 1.62 0 0 0-1.312-.657c-1.25 0-2.344 1.032-2.344 2.391 0 1.328 1.031 2.36 2.219 2.36.672 0 1.156-.344 1.406-.688v.687zm-1.547-1.234c0 .187 0 .203-.11.39-.312.5-.78.735-1.234.735-.484 0-.86-.282-1.11-.672-.265-.438-.296-1.031-.296-1.469 0-.39.016-1.016.312-1.484.235-.328.625-.672 1.188-.672.375 0 .812.156 1.14.625.11.187.11.203.11.39zm6.947-3.001c0-.187-.125-.515-.531-.515-.219 0-.672.063-1.125.484a1.74 1.74 0 0 0-1.11-.375c-.968 0-1.702.72-1.702 1.532 0 .468.234.859.5 1.078a1.45 1.45 0 0 0-.329.875c0 .328.141.719.47.937-.642.172-.97.625-.97 1.047 0 .75 1.032 1.328 2.313 1.328 1.25 0 2.344-.531 2.344-1.344 0-.375-.157-.906-.688-1.203-.562-.297-1.172-.297-1.812-.297h-.782c-.343-.046-.562-.375-.562-.703 0-.047 0-.297.187-.5a1.74 1.74 0 0 0 1.032.328c.984 0 1.703-.718 1.703-1.53 0-.391-.172-.782-.438-1.016.39-.36.766-.422.953-.422 0 0 .078 0 .11.015-.125.047-.172.157-.172.282a.3.3 0 0 0 .297.312c.11 0 .312-.078.312-.312zm-1.844 1.126c0 .28-.015.625-.171.89a.902.902 0 0 1-.75.406c-.907 0-.907-1.046-.907-1.28 0-.282 0-.626.157-.891.093-.125.328-.422.75-.422.922 0 .922 1.062.922 1.297zm1.157 3.937c0 .563-.75 1.094-1.781 1.094-1.063 0-1.782-.531-1.782-1.094a.92.92 0 0 1 .86-.906h.625c.89 0 2.078 0 2.078.906zm5.203-2.078c0-.11-.078-.125-.14-.125-.095 0-.11.063-.141.14-.36 1.094-1.313 1.094-1.407 1.094-.53 0-.953-.328-1.187-.703-.313-.515-.313-1.203-.313-1.578h2.922c.235 0 .266 0 .266-.219 0-1.047-.563-2.062-1.875-2.062-1.219 0-2.188 1.078-2.188 2.39 0 1.407 1.094 2.422 2.313 2.422 1.281 0 1.75-1.156 1.75-1.359zm-.688-1.39h-2.5c.063-1.563.953-1.829 1.313-1.829 1.078 0 1.187 1.406 1.187 1.828zm4.772 1.296c0-.562-.313-.875-.438-1-.343-.328-.765-.422-1.203-.5-.594-.125-1.297-.25-1.297-.86 0-.374.282-.796 1.188-.796 1.156 0 1.203.938 1.219 1.266.015.093.125.093.125.093.14 0 .14-.047.14-.25v-1.062c0-.172 0-.25-.11-.25-.062 0-.077 0-.218.125a.895.895 0 0 1-.172.172c-.406-.297-.828-.297-.984-.297-1.281 0-1.688.703-1.688 1.297 0 .36.172.656.453.89.344.266.625.328 1.391.485.234.031 1.094.203 1.094.953 0 .547-.375.969-1.188.969-.89 0-1.265-.61-1.468-1.5-.032-.141-.032-.172-.141-.172-.14 0-.14.062-.14.265v1.375c0 .188 0 .25.124.25.047 0 .063 0 .25-.203.032-.015.032-.047.219-.25.453.453.938.453 1.156.453 1.203 0 1.688-.703 1.688-1.453zM82.17 232.93c0-.03 0-.046-.171-.234-1.313-1.312-1.64-3.297-1.64-4.906 0-1.828.39-3.656 1.687-4.969.125-.125.125-.14.125-.172 0-.078-.031-.109-.094-.109-.11 0-1.047.719-1.672 2.047-.531 1.156-.656 2.328-.656 3.203 0 .812.11 2.094.687 3.281.625 1.281 1.532 1.969 1.641 1.969.063 0 .094-.031.094-.11zm4.288-3.109a.94.94 0 0 0 .937.703c.375 0 .61-.234.782-.578.172-.375.312-1.015.312-1.031 0-.11-.094-.11-.125-.11-.11 0-.125.047-.156.188-.14.594-.344 1.313-.781 1.313-.22 0-.328-.141-.328-.485 0-.234.125-.734.218-1.094l.282-1.14c.03-.156.14-.547.187-.703.047-.25.156-.64.156-.703 0-.204-.14-.297-.312-.297-.047 0-.313.015-.406.375-.204.765-.657 2.61-.782 3.156-.015.047-.437.89-1.203.89-.547 0-.64-.484-.64-.859 0-.594.28-1.422.562-2.156.125-.313.172-.453.172-.656 0-.469-.328-.86-.86-.86-1 0-1.39 1.516-1.39 1.61 0 .11.11.11.14.11.094 0 .11-.017.157-.188.265-.907.672-1.297 1.062-1.297.094 0 .266 0 .266.343 0 .25-.11.563-.172.72-.39 1.03-.61 1.687-.61 2.202 0 1 .72 1.25 1.282 1.25.703 0 1.078-.468 1.25-.703zm4.459.579c0-.688-.25-1.094-.672-1.094a.533.533 0 0 0-.547.546c0 .297.203.563.547.563a.59.59 0 0 0 .375-.14.203.203 0 0 0 .047-.032c.016 0 .031.016.031.156 0 .782-.375 1.407-.718 1.766-.11.11-.11.125-.11.156 0 .078.047.125.094.125.125 0 .953-.812.953-2.047zm9.186-3.891c0-.563-.265-.735-.453-.735-.266 0-.516.266-.516.5 0 .141.047.203.172.313.22.219.36.484.36.86 0 .452-.64 2.859-1.875 2.859-.532 0-.782-.375-.782-.922 0-.578.282-1.36.61-2.219.078-.188.125-.328.125-.531 0-.469-.328-.86-.86-.86-.984 0-1.39 1.516-1.39 1.61 0 .11.11.11.14.11.094 0 .11-.017.157-.188.312-1.063.765-1.297 1.062-1.297.094 0 .266 0 .266.328 0 .265-.11.547-.172.734-.469 1.219-.61 1.703-.61 2.156 0 1.141.922 1.297 1.407 1.297 1.765 0 2.36-3.468 2.36-4.015zm3.608 1.281c0-.813-.11-2.094-.687-3.281-.625-1.282-1.531-1.969-1.64-1.969a.107.107 0 0 0-.11.11c0 .03 0 .046.203.234 1.031 1.047 1.625 2.718 1.625 4.906 0 1.797-.39 3.64-1.688 4.969-.14.125-.14.14-.14.172 0 .062.047.109.11.109.109 0 1.046-.719 1.671-2.047.531-1.156.656-2.328.656-3.203Zm11.9.203c.188 0 .375 0 .375-.203s-.188-.203-.375-.203h-4.453c.125-1.406 1.344-2.422 2.812-2.422h1.641c.188 0 .375 0 .375-.203 0-.219-.188-.219-.375-.219h-1.656c-1.797 0-3.219 1.36-3.219 3.047s1.422 3.047 3.219 3.047h1.656c.188 0 .375 0 .375-.219 0-.203-.188-.203-.375-.203h-1.64c-1.47 0-2.688-1.016-2.813-2.422zm13.786-.031c.015-.047.046-.125.046-.14 0-.016 0-.11-.125-.11-.093 0-.109.062-.14.125-.672 1.547-1.063 2.25-2.86 2.25h-1.53c-.157 0-.173 0-.235-.016-.11 0-.14-.015-.14-.094 0-.03 0-.062.062-.25l.703-2.859h1.047c.89 0 .89.219.89.484 0 .063 0 .204-.078.516-.016.047-.031.078-.031.11 0 .046.047.109.14.109.079 0 .11-.047.157-.203l.594-2.453a.123.123 0 0 0-.126-.125c-.093 0-.109.062-.14.203-.219.797-.406 1.031-1.375 1.031h-.984l.624-2.531c.094-.36.11-.407.563-.407h1.484c1.282 0 1.594.297 1.594 1.157 0 .265 0 .281-.047.562v.188c0 .062.031.125.125.125.11 0 .125-.063.14-.266l.22-1.812c.03-.282-.032-.282-.282-.282h-5.312c-.203 0-.313 0-.313.203 0 .125.094.125.297.125.39 0 .688 0 .688.188 0 .047 0 .062-.063.25l-1.375 5.562c-.11.407-.14.485-.968.485-.172 0-.282 0-.282.203 0 .125.094.125.282.125h5.453c.25 0 .25-.016.328-.172zm11.793-1.75v-.328c-.219.031-.531.031-.766.031l-.968-.031v.328c.375.015.609.203.609.5 0 .062 0 .094-.063.234l-.953 2.688-1.03-2.938c-.048-.125-.063-.14-.063-.203 0-.281.422-.281.625-.281v-.328l-1.094.031c-.313 0-.61 0-.938-.031v.328c.391 0 .563.031.672.156.047.063.156.375.235.578l-.907 2.547-.984-2.812c-.063-.125-.063-.141-.063-.188 0-.281.407-.281.625-.281v-.328l-1.14.031-.984-.031v.328c.53 0 .656.031.78.375l1.313 3.719c.063.14.094.218.235.218.125 0 .156-.062.203-.203l1.062-2.969 1.063 2.985c.047.11.078.187.219.187.14 0 .171-.093.203-.187l1.234-3.453c.188-.516.516-.657.875-.672Zm5.831 4.203v-.328c-.547 0-.813 0-.828-.313v-2c0-.906 0-1.234-.328-1.609-.14-.188-.485-.39-1.094-.39-.89 0-1.344.624-1.516 1h-.015v-3.641l-1.5.11v.327c.734 0 .812.078.812.578v5.47c0 .468-.11.468-.812.468v.328l1.172-.031 1.187.031v-.328c-.703 0-.828 0-.828-.469v-1.937c0-1.094.75-1.672 1.422-1.672.656 0 .781.562.781 1.156v2.453c0 .469-.125.469-.828.469v.328l1.188-.031zm4.572-1.25c0-.11-.078-.125-.14-.125-.094 0-.11.062-.14.14-.36 1.094-1.313 1.094-1.407 1.094-.531 0-.953-.328-1.188-.703-.312-.515-.312-1.203-.312-1.578h2.922c.234 0 .265 0 .265-.219 0-1.047-.562-2.062-1.875-2.062-1.218 0-2.187 1.078-2.187 2.39 0 1.407 1.094 2.422 2.312 2.422 1.282 0 1.75-1.156 1.75-1.359zm-.687-1.39h-2.5c.062-1.563.953-1.829 1.312-1.829 1.078 0 1.188 1.406 1.188 1.828zm4.818-1.36c0-.344-.328-.64-.781-.64-.766 0-1.14.702-1.297 1.156v-1.157l-1.453.11v.328c.734 0 .812.078.812.594v2.812c0 .469-.109.469-.812.469v.328l1.187-.031c.422 0 .922 0 1.344.031v-.328h-.219c-.78 0-.797-.11-.797-.485v-1.625c0-1.03.438-1.968 1.235-1.968h.11a.476.476 0 0 0-.235.422c0 .28.219.453.453.453.188 0 .453-.14.453-.469zm4.647 2.75c0-.11-.078-.125-.14-.125-.094 0-.11.062-.14.14-.36 1.094-1.313 1.094-1.407 1.094-.531 0-.953-.328-1.188-.703-.312-.515-.312-1.203-.312-1.578h2.922c.234 0 .265 0 .265-.219 0-1.047-.562-2.062-1.875-2.062-1.218 0-2.187 1.078-2.187 2.39 0 1.407 1.094 2.422 2.312 2.422 1.282 0 1.75-1.156 1.75-1.359zm-.687-1.39h-2.5c.062-1.563.953-1.829 1.312-1.829 1.078 0 1.188 1.406 1.188 1.828zM78.04 246.201a.94.94 0 0 0 .937.703c.375 0 .61-.234.782-.578.171-.375.312-1.015.312-1.031 0-.11-.094-.11-.125-.11-.11 0-.125.047-.156.188-.14.594-.344 1.313-.781 1.313-.22 0-.329-.141-.329-.485 0-.234.125-.734.22-1.094l.28-1.14c.032-.156.141-.547.188-.703.047-.25.156-.64.156-.703 0-.204-.14-.297-.312-.297-.047 0-.313.015-.407.375-.203.765-.656 2.61-.78 3.156-.016.047-.438.89-1.204.89-.547 0-.64-.484-.64-.859 0-.594.28-1.422.562-2.156.125-.313.172-.453.172-.656 0-.469-.328-.86-.86-.86-1 0-1.39 1.516-1.39 1.61 0 .11.11.11.14.11.094 0 .11-.017.157-.188.265-.907.672-1.297 1.062-1.297.094 0 .266 0 .266.343 0 .25-.11.563-.172.72-.39 1.03-.61 1.687-.61 2.202 0 1 .72 1.25 1.282 1.25.703 0 1.078-.468 1.25-.703zm12.585-1.828c.188 0 .375 0 .375-.203s-.188-.203-.375-.203h-4.453c.125-1.406 1.344-2.422 2.812-2.422h1.641c.188 0 .375 0 .375-.203 0-.219-.188-.219-.375-.219h-1.656c-1.797 0-3.219 1.36-3.219 3.047 0 1.688 1.422 3.047 3.219 3.047h1.656c.188 0 .375 0 .375-.219 0-.203-.188-.203-.375-.203h-1.64c-1.47 0-2.688-1.016-2.813-2.422zm12.418-3.641c.094-.437.297-.75 1.125-.78.062 0 .187-.016.187-.22 0 0 0-.109-.14-.109-.344 0-.719.031-1.078.031-.344 0-.735-.03-1.078-.03-.063 0-.204 0-.204.202 0 .125.11.125.204.125.593.016.703.235.703.453 0 .032-.016.203-.032.235l-.937 3.734c-.36 1.406-1.563 2.328-2.625 2.328-.703 0-1.281-.469-1.281-1.36 0-.03 0-.359.125-.827l1.015-4.078c.094-.375.11-.485.875-.485.282 0 .36 0 .36-.219 0-.109-.11-.109-.141-.109-.297 0-1.047.031-1.344.031-.312 0-1.047-.03-1.36-.03-.077 0-.202 0-.202.202 0 .125.094.125.297.125.03 0 .218 0 .406.016.187.031.281.031.281.172 0 .062-.11.5-.172.75l-.234.922c-.094.406-.61 2.39-.64 2.593-.079.297-.079.453-.079.61 0 1.281.953 2.015 2.063 2.015 1.312 0 2.625-1.187 2.968-2.578zm2.593 6.048c0-.688-.25-1.094-.672-1.094a.533.533 0 0 0-.547.546c0 .297.203.563.547.563a.59.59 0 0 0 .375-.14.203.203 0 0 0 .047-.032c.016 0 .031.016.031.156a2.6 2.6 0 0 1-.719 1.766c-.109.11-.109.125-.109.156 0 .078.047.125.094.125.125 0 .953-.812.953-2.047zm11.927-3.891c0-.563-.266-.735-.453-.735-.266 0-.516.266-.516.5 0 .141.047.203.172.313.219.219.36.484.36.86 0 .452-.641 2.859-1.876 2.859-.531 0-.781-.375-.781-.922 0-.578.281-1.36.61-2.219.078-.188.124-.328.124-.531 0-.469-.328-.86-.859-.86-.984 0-1.39 1.516-1.39 1.61 0 .11.109.11.14.11.094 0 .11-.017.156-.188.313-1.063.766-1.297 1.063-1.297.093 0 .265 0 .265.328 0 .265-.109.547-.172.734-.468 1.219-.609 1.703-.609 2.156 0 1.141.922 1.297 1.406 1.297 1.766 0 2.36-3.468 2.36-4.015zm10.83 1.484c.188 0 .375 0 .375-.203s-.188-.203-.375-.203h-4.453c.125-1.406 1.344-2.422 2.812-2.422h1.641c.188 0 .375 0 .375-.203 0-.219-.188-.219-.375-.219h-1.656c-1.797 0-3.219 1.36-3.219 3.047 0 1.688 1.422 3.047 3.219 3.047h1.656c.188 0 .375 0 .375-.219 0-.203-.188-.203-.375-.203h-1.64c-1.47 0-2.688-1.016-2.813-2.422zm12.34-3.547c.515-.828.953-.86 1.344-.875.125-.015.14-.187.14-.203 0-.078-.062-.125-.14-.125-.266 0-.579.031-.86.031-.344 0-.703-.03-1.047-.03-.062 0-.187 0-.187.202 0 .11.094.125.156.125.297.016.484.125.484.344 0 .156-.156.39-.156.406l-3.219 5.125-.718-5.562c0-.172.25-.313.734-.313.14 0 .25 0 .25-.219 0-.093-.078-.109-.14-.109-.422 0-.876.031-1.297.031-.188 0-.391-.015-.579-.015-.187 0-.39-.016-.578-.016-.062 0-.187 0-.187.203 0 .125.094.125.25.125.594 0 .61.094.64.36l.829 6.468c.03.22.078.25.203.25.172 0 .218-.062.297-.187zm11.752 3.547c.172 0 .36 0 .36-.203s-.188-.203-.36-.203h-5.688c-.172 0-.359 0-.359.203s.188.203.36.203zm10.882-3.641c.094-.437.297-.75 1.125-.78.062 0 .187-.016.187-.22 0 0 0-.109-.14-.109-.344 0-.719.031-1.078.031-.344 0-.735-.03-1.078-.03-.063 0-.204 0-.204.202 0 .125.11.125.204.125.593.016.703.235.703.453 0 .032-.016.203-.032.235l-.937 3.734c-.36 1.406-1.563 2.328-2.625 2.328-.703 0-1.281-.469-1.281-1.36 0-.03 0-.359.125-.827l1.015-4.078c.094-.375.11-.485.875-.485.282 0 .36 0 .36-.219 0-.109-.11-.109-.141-.109-.297 0-1.047.031-1.344.031-.312 0-1.047-.03-1.36-.03-.077 0-.202 0-.202.202 0 .125.094.125.297.125.03 0 .218 0 .406.016.187.031.281.031.281.172 0 .062-.11.5-.172.75l-.234.922c-.094.406-.61 2.39-.64 2.593-.079.297-.079.453-.079.61 0 1.281.953 2.015 2.063 2.015 1.312 0 2.625-1.187 2.968-2.578zm0 0"/><path fill="none" stroke="#000" stroke-miterlimit="10" stroke-width=".399" d="M59.496 299.738h120.387V266.91H59.496Zm0 0"/><path d="M80.165 278.284v-.328h-.281c-.828 0-.86-.11-.86-.485v-5.546c0-.375.032-.485.86-.485h.281v-.328c-.375.031-1.203.031-1.594.031-.422 0-1.25 0-1.61-.03v.327h.267c.828 0 .859.11.859.485v5.546c0 .375-.031.485-.86.485h-.265v.328c.36-.031 1.187-.031 1.594-.031.406 0 1.234 0 1.609.031zm5.915 0v-.328c-.546 0-.812 0-.828-.313v-2c0-.906 0-1.234-.328-1.609-.14-.188-.484-.39-1.094-.39-.765 0-1.265.452-1.562 1.109v-1.11l-1.469.11v.328c.735 0 .813.078.813.594v2.812c0 .469-.11.469-.813.469v.328l1.172-.031 1.188.031v-.328c-.704 0-.829 0-.829-.469v-1.937c0-1.094.75-1.672 1.422-1.672.657 0 .782.562.782 1.156v2.453c0 .469-.125.469-.829.469v.328l1.188-.031zm3.995-1.344c0-.562-.313-.875-.438-1-.343-.328-.765-.422-1.203-.5-.594-.125-1.297-.25-1.297-.86 0-.374.282-.796 1.188-.796 1.156 0 1.203.938 1.219 1.266.015.093.125.093.125.093.14 0 .14-.046.14-.25v-1.062c0-.172 0-.25-.11-.25-.062 0-.077 0-.218.125a.895.895 0 0 1-.172.172c-.406-.297-.828-.297-.984-.297-1.281 0-1.688.703-1.688 1.297 0 .36.172.656.453.89.344.266.625.329 1.391.485.234.031 1.094.203 1.094.953 0 .547-.375.969-1.188.969-.89 0-1.265-.61-1.468-1.5-.032-.141-.032-.172-.141-.172-.14 0-.14.062-.14.265v1.375c0 .188 0 .25.124.25.047 0 .063 0 .25-.203.032-.015.032-.047.219-.25.453.453.938.453 1.156.453 1.203 0 1.688-.703 1.688-1.453zm4.715.094c0-.11-.078-.125-.14-.125-.095 0-.11.063-.141.14-.36 1.094-1.313 1.094-1.407 1.094-.53 0-.953-.328-1.187-.703-.313-.515-.313-1.203-.313-1.578h2.922c.235 0 .266 0 .266-.219 0-1.046-.563-2.062-1.875-2.062-1.219 0-2.188 1.078-2.188 2.39 0 1.407 1.094 2.422 2.313 2.422 1.281 0 1.75-1.156 1.75-1.359zm-.688-1.39h-2.5c.063-1.563.953-1.829 1.313-1.829 1.078 0 1.187 1.406 1.187 1.828zm4.818-1.36c0-.344-.328-.64-.78-.64-.766 0-1.141.702-1.298 1.156v-1.157l-1.453.11v.328c.735 0 .813.078.813.594v2.812c0 .469-.11.469-.813.469v.328l1.188-.031c.422 0 .922 0 1.344.031v-.328h-.22c-.78 0-.796-.11-.796-.485v-1.625c0-1.03.437-1.968 1.234-1.968h.11a.476.476 0 0 0-.235.422c0 .28.22.453.453.453.188 0 .454-.14.454-.469zm3.773 2.703v-.61h-.266v.579c0 .781-.312 1.187-.703 1.187-.703 0-.703-.968-.703-1.14v-2.922h1.5v-.328h-1.5v-1.922h-.266c0 .86-.312 1.984-1.343 2.015v.235h.89v2.906c0 1.281.969 1.406 1.36 1.406.734 0 1.03-.734 1.03-1.406zm7.567 3.813c0-.032 0-.047-.171-.235-1.313-1.312-1.64-3.297-1.64-4.906 0-1.828.39-3.656 1.687-4.969.125-.125.125-.14.125-.172 0-.078-.031-.109-.094-.109-.11 0-1.047.719-1.672 2.047-.531 1.156-.656 2.328-.656 3.203 0 .813.11 2.094.687 3.281.625 1.281 1.532 1.969 1.641 1.969.063 0 .094-.031.094-.11zm4.288-3.11a.94.94 0 0 0 .937.703c.375 0 .61-.234.782-.578.172-.375.312-1.015.312-1.031 0-.11-.094-.11-.125-.11-.11 0-.125.048-.156.188-.14.594-.344 1.313-.781 1.313-.22 0-.328-.141-.328-.485 0-.234.125-.734.218-1.094l.282-1.14c.03-.156.14-.547.187-.703.047-.25.156-.64.156-.703 0-.204-.14-.297-.312-.297-.047 0-.313.015-.406.375-.204.765-.657 2.61-.782 3.156-.015.047-.437.89-1.203.89-.547 0-.64-.484-.64-.859 0-.594.28-1.422.562-2.156.125-.313.172-.453.172-.656 0-.469-.328-.86-.86-.86-1 0-1.39 1.516-1.39 1.61 0 .11.11.11.14.11.094 0 .11-.017.157-.188.265-.907.672-1.297 1.062-1.297.094 0 .266 0 .266.344 0 .25-.11.562-.172.718-.39 1.031-.61 1.688-.61 2.203 0 1 .72 1.25 1.282 1.25.703 0 1.078-.468 1.25-.703zm5.932-.05c0-.765-.094-1.328-.407-1.812-.218-.313-.656-.594-1.203-.594-1.625 0-1.625 1.906-1.625 2.406 0 .5 0 2.36 1.625 2.36 1.61 0 1.61-1.86 1.61-2.36zm-1.61 2.157c-.328 0-.75-.188-.89-.75-.094-.407-.094-.985-.094-1.5 0-.516 0-1.047.094-1.422.156-.547.593-.703.89-.703.375 0 .735.234.86.64.11.375.125.875.125 1.485 0 .515 0 1.03-.094 1.468-.14.64-.61.782-.89.782zm4.611-1.529c0-.687-.25-1.093-.672-1.093a.533.533 0 0 0-.547.546c0 .297.203.563.547.563a.59.59 0 0 0 .375-.14.203.203 0 0 0 .047-.032c.016 0 .031.016.031.156a2.6 2.6 0 0 1-.719 1.766c-.109.11-.109.125-.109.156 0 .078.047.125.094.125.125 0 .953-.812.953-2.047zm9.186-3.89c0-.563-.265-.735-.453-.735-.266 0-.516.266-.516.5 0 .141.047.204.172.313.22.219.36.484.36.86 0 .452-.64 2.859-1.875 2.859-.531 0-.781-.375-.781-.922 0-.578.28-1.36.609-2.219.078-.188.125-.328.125-.531 0-.469-.328-.86-.86-.86-.984 0-1.39 1.516-1.39 1.61 0 .11.11.11.14.11.094 0 .11-.017.157-.188.312-1.063.765-1.297 1.062-1.297.094 0 .266 0 .266.328 0 .265-.11.547-.172.734-.469 1.219-.61 1.703-.61 2.156 0 1.141.922 1.297 1.407 1.297 1.766 0 2.36-3.468 2.36-4.015zm3.789 3.262c0-.765-.094-1.328-.406-1.812-.22-.313-.657-.594-1.204-.594-1.625 0-1.625 1.906-1.625 2.406 0 .5 0 2.36 1.625 2.36 1.61 0 1.61-1.86 1.61-2.36zm-1.61 2.157c-.328 0-.75-.188-.89-.75-.094-.407-.094-.985-.094-1.5 0-.516 0-1.047.094-1.422a.913.913 0 0 1 .89-.703c.375 0 .735.234.86.64.11.375.125.875.125 1.485 0 .515 0 1.03-.094 1.468-.14.64-.61.782-.89.782zm5.516-4.138c0-.813-.11-2.094-.687-3.281-.625-1.281-1.532-1.969-1.64-1.969a.107.107 0 0 0-.11.11c0 .03 0 .046.203.234 1.031 1.047 1.625 2.719 1.625 4.906 0 1.797-.39 3.64-1.688 4.969-.14.125-.14.14-.14.172 0 .062.047.109.11.109.108 0 1.046-.719 1.671-2.047.531-1.156.656-2.328.656-3.203Zm7.146 2.625v-.328c-.688 0-.735-.047-.735-.453v-3.86l-1.468.11v.328c.687 0 .78.062.78.578v2.828c0 .469-.124.469-.827.469v.328l1.156-.031c.375 0 .734.015 1.094.031zm-.578-6.344a.57.57 0 0 0-.563-.562.57.57 0 0 0-.562.562c0 .281.25.563.562.563a.56.56 0 0 0 .563-.563zm6.528 6.344v-.328c-.547 0-.813 0-.828-.313v-2c0-.906 0-1.234-.328-1.609-.14-.188-.485-.39-1.094-.39-.766 0-1.266.452-1.563 1.109v-1.11l-1.468.11v.328c.734 0 .812.078.812.594v2.812c0 .469-.11.469-.812.469v.328l1.172-.031 1.187.031v-.328c-.703 0-.828 0-.828-.469v-1.937c0-1.094.75-1.672 1.422-1.672.656 0 .781.562.781 1.156v2.453c0 .469-.125.469-.828.469v.328l1.187-.031zm3.414-1.297v-.61h-.266v.579c0 .781-.312 1.187-.703 1.187-.703 0-.703-.968-.703-1.14v-2.922h1.5v-.328h-1.5v-1.922h-.266c0 .86-.312 1.984-1.343 2.015v.235h.89v2.906c0 1.281.969 1.406 1.36 1.406.734 0 1.03-.734 1.03-1.406zm5.553-.953c0-1.344-1.062-2.453-2.328-2.453-1.313 0-2.328 1.14-2.328 2.453 0 1.36 1.094 2.36 2.312 2.36a2.334 2.334 0 0 0 2.344-2.36zm-.875-.078c0 .375 0 .937-.234 1.406-.235.469-.688.781-1.219.781-.453 0-.906-.234-1.203-.703-.25-.469-.25-1.11-.25-1.484 0-.406 0-.985.25-1.438a1.386 1.386 0 0 1 1.187-.703c.47 0 .922.235 1.188.672.281.453.281 1.063.281 1.469zM74.967 293.32c0-.562-.312-.875-.437-1-.344-.328-.766-.422-1.203-.5-.594-.125-1.297-.25-1.297-.86 0-.374.281-.796 1.187-.796 1.156 0 1.203.938 1.219 1.266.016.093.125.093.125.093.14 0 .14-.047.14-.25v-1.062c0-.172 0-.25-.109-.25-.062 0-.078 0-.219.125a.895.895 0 0 1-.171.172c-.407-.297-.829-.297-.985-.297-1.281 0-1.687.703-1.687 1.297 0 .36.172.656.453.89.344.266.625.328 1.39.485.235.031 1.094.203 1.094.953 0 .547-.375.969-1.187.969-.89 0-1.266-.61-1.469-1.5-.031-.141-.031-.172-.14-.172-.141 0-.141.062-.141.265v1.375c0 .188 0 .25.125.25.047 0 .062 0 .25-.203.031-.015.031-.047.218-.25.454.453.938.453 1.157.453 1.203 0 1.687-.703 1.687-1.453zm4.715.094c0-.11-.078-.125-.14-.125-.094 0-.11.063-.14.14-.36 1.094-1.313 1.094-1.407 1.094-.531 0-.953-.328-1.188-.703-.312-.515-.312-1.203-.312-1.578h2.922c.234 0 .265 0 .265-.219 0-1.047-.562-2.062-1.875-2.062-1.218 0-2.187 1.078-2.187 2.39 0 1.407 1.094 2.422 2.312 2.422 1.282 0 1.75-1.156 1.75-1.359zm-.687-1.39h-2.5c.062-1.563.953-1.829 1.312-1.829 1.078 0 1.188 1.406 1.188 1.828zm4.475 1.343v-.61h-.266v.579c0 .781-.313 1.187-.703 1.187-.703 0-.703-.968-.703-1.14v-2.922h1.5v-.328h-1.5v-1.922h-.266c0 .86-.313 1.984-1.344 2.015v.235h.89v2.906c0 1.281.97 1.406 1.36 1.406.735 0 1.031-.734 1.031-1.406zm11.537-1.157c.015-.046.046-.124.046-.14 0-.015 0-.11-.125-.11-.093 0-.109.063-.14.126-.672 1.547-1.063 2.25-2.86 2.25h-1.53c-.157 0-.173 0-.235-.016-.11 0-.14-.015-.14-.094 0-.03 0-.062.062-.25l.703-2.859h1.047c.89 0 .89.219.89.484 0 .063 0 .204-.078.516-.016.047-.031.078-.031.11 0 .046.047.109.14.109.079 0 .11-.047.157-.203l.594-2.453a.123.123 0 0 0-.126-.125c-.093 0-.109.062-.14.203-.219.797-.406 1.031-1.375 1.031h-.984l.624-2.531c.094-.36.11-.406.563-.406h1.484c1.282 0 1.594.296 1.594 1.156 0 .265 0 .281-.047.562v.188c0 .062.032.125.125.125.11 0 .125-.063.14-.266l.22-1.812c.03-.282-.032-.282-.282-.282h-5.312c-.203 0-.313 0-.313.203 0 .125.094.125.297.125.39 0 .688 0 .688.188 0 .047 0 .063-.063.25l-1.375 5.563c-.11.406-.14.484-.968.484-.172 0-.282 0-.282.203 0 .125.094.125.282.125h5.453c.25 0 .25-.016.328-.172zm3.703-.19c.047-.203.063-.218.22-.234h.406c.437 0 .609 0 .78.047.313.094.329.297.329.547 0 .109 0 .203-.047.562l-.016.078c0 .078.047.11.125.11.11 0 .11-.063.125-.172l.188-1.328c0-.094-.078-.094-.203-.094h-4.281c-.172 0-.188 0-.235.14l-.453 1.235c0 .031-.031.094-.031.125s.015.094.125.094c.094 0 .094-.032.14-.172.407-1.11.641-1.172 1.704-1.172h.28c.22 0 .22 0 .22.062 0 0 0 .047-.032.141l-.922 3.672c-.062.25-.078.328-.812.328-.25 0-.313 0-.313.156 0 .016.016.094.125.094.188 0 .407-.016.594-.016.203 0 .406-.015.594-.015.203 0 .438 0 .64.015.188 0 .391.016.579.016.062 0 .156 0 .156-.156 0-.094-.063-.094-.281-.094-.125 0-.266-.016-.407-.016-.234-.015-.25-.046-.25-.125 0-.062 0-.062.032-.171zm11.463 1.706v-.578h-.266v.578c0 .61-.265.672-.374.672-.36 0-.391-.468-.391-.515v-2.11c0-.437 0-.843-.375-1.234a2.054 2.054 0 0 0-1.453-.578c-.86 0-1.578.5-1.578 1.187 0 .313.203.485.484.485.297 0 .484-.203.484-.469 0-.14-.062-.484-.53-.484.28-.375.796-.485 1.124-.485.516 0 1.11.406 1.11 1.344v.39c-.532.032-1.266.063-1.922.376-.797.359-1.047.906-1.047 1.359 0 .86 1.015 1.11 1.672 1.11.687 0 1.171-.407 1.375-.907.046.422.328.86.812.86.234 0 .875-.141.875-1zm-1.766-.53c0 1-.75 1.359-1.218 1.359-.516 0-.953-.375-.953-.907 0-.562.437-1.437 2.171-1.5zm7.563 1.468v-.328c-.547 0-.813 0-.828-.313v-2c0-.906 0-1.234-.328-1.609-.14-.188-.485-.39-1.094-.39-.766 0-1.266.452-1.563 1.109v-1.11l-1.468.11v.328c.734 0 .812.078.812.594v2.812c0 .469-.11.469-.812.469v.328l1.172-.031 1.187.031v-.328c-.703 0-.828 0-.828-.469v-1.937c0-1.094.75-1.672 1.422-1.672.656 0 .781.562.781 1.156v2.453c0 .469-.125.469-.828.469v.328l1.188-.031zm5.744 0v-.328c-.734 0-.812-.078-.812-.578v-6.375l-1.516.11v.327c.735 0 .813.078.813.578v2.282a1.62 1.62 0 0 0-1.313-.657c-1.25 0-2.344 1.032-2.344 2.391 0 1.328 1.032 2.36 2.22 2.36.671 0 1.155-.344 1.405-.688v.687zm-1.547-1.234c0 .187 0 .203-.109.39-.313.5-.781.735-1.234.735-.485 0-.86-.282-1.11-.672-.265-.438-.297-1.031-.297-1.469 0-.39.016-1.016.313-1.484.234-.329.625-.672 1.187-.672.375 0 .813.156 1.141.625.11.187.11.203.11.39zm10.26-2.672c0-.563-.265-.735-.453-.735-.265 0-.515.266-.515.5 0 .141.046.203.171.313.22.219.36.484.36.86 0 .452-.64 2.859-1.875 2.859-.531 0-.781-.375-.781-.922 0-.578.28-1.36.609-2.219.078-.188.125-.328.125-.531 0-.469-.328-.86-.86-.86-.984 0-1.39 1.516-1.39 1.61 0 .11.11.11.14.11.094 0 .11-.017.157-.188.312-1.063.765-1.297 1.062-1.297.094 0 .266 0 .266.328 0 .265-.11.547-.172.734-.469 1.219-.61 1.703-.61 2.156 0 1.141.922 1.297 1.407 1.297 1.766 0 2.36-3.468 2.36-4.015zm3.778 3.262c0-.765-.094-1.328-.407-1.812-.218-.313-.656-.594-1.203-.594-1.625 0-1.625 1.906-1.625 2.406 0 .5 0 2.36 1.625 2.36 1.61 0 1.61-1.86 1.61-2.36zm-1.61 2.157c-.328 0-.75-.188-.89-.75-.094-.407-.094-.985-.094-1.5 0-.516 0-1.047.094-1.422.156-.547.593-.703.89-.703.375 0 .735.234.86.64.11.375.125.875.125 1.485 0 .515 0 1.03-.094 1.468-.14.64-.61.782-.89.782zm8.579-1.513v-.328c-.688 0-.735-.047-.735-.453v-3.86l-1.468.11v.328c.687 0 .78.062.78.578v2.828c0 .469-.124.469-.827.469v.328l1.156-.031c.375 0 .734.015 1.094.031zm-.578-6.344a.57.57 0 0 0-.563-.562.57.57 0 0 0-.562.562c0 .281.25.563.562.563a.56.56 0 0 0 .563-.563zm6.528 6.344v-.328c-.547 0-.813 0-.828-.313v-2c0-.906 0-1.234-.328-1.609-.14-.188-.485-.39-1.094-.39-.766 0-1.266.452-1.563 1.109v-1.11l-1.468.11v.328c.734 0 .812.078.812.594v2.812c0 .469-.11.469-.812.469v.328l1.172-.031 1.187.031v-.328c-.703 0-.828 0-.828-.469v-1.937c0-1.094.75-1.672 1.422-1.672.656 0 .781.562.781 1.156v2.453c0 .469-.125.469-.828.469v.328l1.187-.031zm3.403-1.297v-.61h-.265v.579c0 .781-.313 1.187-.703 1.187-.703 0-.703-.968-.703-1.14v-2.922h1.5v-.328h-1.5v-1.922h-.266c0 .86-.313 1.984-1.344 2.015v.235h.89v2.906c0 1.281.97 1.406 1.36 1.406.734 0 1.031-.734 1.031-1.406zm5.553-.953c0-1.344-1.062-2.453-2.328-2.453-1.312 0-2.328 1.14-2.328 2.453 0 1.36 1.094 2.36 2.313 2.36a2.334 2.334 0 0 0 2.344-2.36zm-.874-.078c0 .375 0 .937-.235 1.406-.234.469-.687.781-1.219.781-.453 0-.906-.234-1.203-.703-.25-.469-.25-1.11-.25-1.484 0-.406 0-.985.25-1.438a1.386 1.386 0 0 1 1.188-.703c.469 0 .922.235 1.187.672.282.453.282 1.063.282 1.469zm11.343-3.735c.094-.437.297-.75 1.125-.78.062 0 .187-.016.187-.22 0 0 0-.109-.14-.109-.344 0-.719.031-1.078.031-.344 0-.735-.03-1.078-.03-.063 0-.204 0-.204.202 0 .125.11.125.204.125.593.016.703.235.703.453 0 .032-.016.203-.032.235l-.937 3.734c-.36 1.406-1.563 2.328-2.625 2.328-.703 0-1.281-.469-1.281-1.36 0-.03 0-.358.125-.827l1.015-4.078c.094-.375.11-.485.875-.485.282 0 .36 0 .36-.219 0-.109-.11-.109-.141-.109-.297 0-1.047.031-1.344.031-.312 0-1.047-.03-1.36-.03-.077 0-.202 0-.202.202 0 .125.094.125.297.125.03 0 .218 0 .406.016.187.031.281.031.281.172 0 .062-.11.5-.172.75l-.234.922c-.094.406-.61 2.39-.64 2.593-.079.297-.079.453-.079.61 0 1.281.953 2.015 2.063 2.015 1.312 0 2.625-1.187 2.968-2.578zm0 0"/><g clip-path="url(#a)"><path fill="none" stroke="#000" stroke-miterlimit="10" stroke-width=".399" d="M128.617 328.484h-17.855a3.984 3.984 0 0 0-3.985 3.985v6.433c0 2.2 1.782 3.985 3.985 3.985h17.855c2.2 0 3.985-1.785 3.985-3.985v-6.433c0-2.2-1.786-3.985-3.985-3.985Zm0 0"/></g><path d="M117.12 336.568h-.266c-.25 1.61-.5 2.375-2.297 2.375h-1.406c-.484 0-.516-.078-.516-.422v-2.797h.953c1.016 0 1.126.328 1.126 1.219h.265v-2.781h-.266c0 .906-.109 1.234-1.124 1.234h-.954v-2.516c0-.343.032-.421.516-.421h1.36c1.609 0 1.89.578 2.062 2.03h.25l-.281-2.359h-5.922v.329h.25c.812 0 .828.109.828.484v5.516c0 .375-.016.484-.828.484h-.25v.328h6.062zm5.932 2.703v-.328c-.547 0-.813 0-.829-.313v-2c0-.906 0-1.234-.328-1.609-.14-.188-.484-.39-1.093-.39-.766 0-1.266.453-1.563 1.109v-1.11l-1.469.11v.328c.735 0 .813.078.813.594v2.812c0 .469-.11.469-.813.469v.328l1.172-.031 1.188.031v-.328c-.703 0-.828 0-.828-.469v-1.937c0-1.094.75-1.672 1.421-1.672.657 0 .782.562.782 1.156v2.453c0 .469-.125.469-.828.469v.328l1.187-.031zm5.744 0v-.328c-.735 0-.813-.078-.813-.578v-6.375l-1.515.11v.327c.734 0 .812.078.812.578v2.282a1.62 1.62 0 0 0-1.312-.657c-1.25 0-2.344 1.032-2.344 2.391 0 1.328 1.031 2.36 2.219 2.36.671 0 1.156-.344 1.406-.688v.687zm-1.547-1.234c0 .187 0 .203-.11.39-.312.5-.78.735-1.234.735-.484 0-.86-.282-1.11-.672-.265-.438-.296-1.031-.296-1.469 0-.39.016-1.016.312-1.484.235-.328.625-.672 1.188-.672.375 0 .812.156 1.14.625.11.187.11.203.11.39zm0 0"/><path fill="none" stroke="#000" stroke-linecap="round" stroke-miterlimit="10" stroke-width=".399" d="M119.688 20.703v12.18"/><path d="m119.688 34.875 1.593-3.188-1.594 1.196-1.593-1.196"/><path fill="none" stroke="#000" stroke-linecap="round" stroke-miterlimit="10" stroke-width=".399" d="M119.688 69.152v12.184"/><path d="m119.688 83.328 1.593-3.187-1.594 1.195-1.593-1.195"/><path fill="none" stroke="#000" stroke-linecap="round" stroke-miterlimit="10" stroke-width=".399" d="M33.047 112.34H18.875v98.777h38.43"/><path d="m59.297 211.117-3.188-1.594 1.196 1.594-1.196 1.594M12.917 101.854c0-.39-.39-.734-.953-.734-.735 0-1.625.562-1.625 1.672v1.203H9.51v.328h.828v3.406c0 .469-.11.469-.813.469v.328l1.188-.031c.422 0 .922 0 1.344.031v-.328h-.22c-.78 0-.796-.11-.796-.484v-3.391h1.187v-.328H11.01v-1.219c0-.922.5-1.422.953-1.422.031 0 .203 0 .36.078a.452.452 0 0 0-.329.438c0 .234.172.453.453.453.313 0 .469-.219.469-.469zm4.541 5.734v-.578h-.265v.578c0 .61-.266.672-.375.672-.36 0-.391-.468-.391-.515v-2.11c0-.437 0-.843-.375-1.234a2.054 2.054 0 0 0-1.453-.578c-.86 0-1.578.5-1.578 1.187 0 .313.203.485.484.485.297 0 .484-.203.484-.469 0-.14-.062-.484-.53-.484.28-.375.796-.485 1.124-.485.516 0 1.11.406 1.11 1.344v.39c-.532.032-1.266.063-1.922.376-.797.359-1.047.906-1.047 1.359 0 .86 1.015 1.11 1.672 1.11.687 0 1.171-.407 1.375-.907.046.422.328.86.812.86.235 0 .875-.141.875-1zm-1.765-.53c0 1-.75 1.359-1.22 1.359-.515 0-.952-.375-.952-.907 0-.562.437-1.437 2.171-1.5zm4.609 1.468v-.328c-.703 0-.813 0-.813-.469v-6.484l-1.515.11v.327c.734 0 .828.078.828.578v5.47c0 .468-.125.468-.828.468v.328l1.172-.031zm4.028-1.344c0-.562-.312-.875-.437-1-.344-.328-.766-.422-1.203-.5-.594-.125-1.297-.25-1.297-.86 0-.374.281-.796 1.187-.796 1.157 0 1.203.938 1.219 1.266.016.093.125.093.125.093.14 0 .14-.047.14-.25v-1.062c0-.172 0-.25-.109-.25-.062 0-.078 0-.218.125a.895.895 0 0 1-.172.172c-.407-.297-.829-.297-.985-.297-1.281 0-1.687.703-1.687 1.297 0 .36.172.656.453.89.344.266.625.328 1.39.485.235.031 1.094.203 1.094.953 0 .547-.375.969-1.187.969-.89 0-1.266-.61-1.469-1.5-.031-.141-.031-.172-.14-.172-.141 0-.141.062-.141.265v1.375c0 .188 0 .25.125.25.047 0 .062 0 .25-.203.031-.015.031-.047.218-.25.454.453.938.453 1.157.453 1.203 0 1.687-.703 1.687-1.453zm4.715.094c0-.11-.078-.125-.14-.125-.094 0-.11.063-.14.14-.36 1.094-1.313 1.094-1.407 1.094-.531 0-.953-.328-1.188-.703-.312-.515-.312-1.203-.312-1.578h2.922c.234 0 .265 0 .265-.219 0-1.047-.562-2.062-1.875-2.062-1.218 0-2.187 1.078-2.187 2.39 0 1.407 1.094 2.422 2.312 2.422 1.282 0 1.75-1.156 1.75-1.359zm-.687-1.39h-2.5c.062-1.563.953-1.829 1.312-1.829 1.079 0 1.188 1.406 1.188 1.828zm0 0"/><path fill="none" stroke="#000" stroke-linecap="round" stroke-miterlimit="10" stroke-width=".399" d="M119.688 252.535v12.184"/><path d="m119.688 266.71 1.593-3.187-1.594 1.196-1.593-1.196"/><path fill="none" stroke="#000" stroke-linecap="round" stroke-miterlimit="10" stroke-width=".399" d="M206.332 112.34h14.172v223.344h-85.711"/><path d="m132.8 335.684 3.188 1.593-1.195-1.593 1.195-1.594m77.526-226.86v-.61h-.265v.578c0 .781-.313 1.187-.703 1.187-.703 0-.703-.968-.703-1.14v-2.922h1.5v-.328h-1.5v-1.922h-.266c0 .86-.313 1.984-1.344 2.016v.234h.89v2.906c0 1.281.97 1.406 1.36 1.406.734 0 1.031-.734 1.031-1.406zm4.429-2.704c0-.344-.329-.64-.782-.64-.765 0-1.14.703-1.297 1.156v-1.157l-1.453.11v.328c.735 0 .813.078.813.594v2.812c0 .469-.11.469-.813.469v.328l1.188-.031c.422 0 .922 0 1.344.031v-.328h-.22c-.78 0-.796-.11-.796-.484v-1.626c0-1.03.438-1.968 1.234-1.968h.11a.476.476 0 0 0-.235.422c0 .28.22.453.453.453.188 0 .454-.14.454-.469zm5.913 4v-.328c-.75 0-.829-.078-.829-.578v-3.735l-1.546.11v.328c.734 0 .828.078.828.594v1.859c0 .922-.516 1.64-1.282 1.64-.875 0-.921-.5-.921-1.046v-3.485l-1.532.11v.328c.813 0 .813.031.813.969v1.578c0 .812 0 1.765 1.594 1.765.593 0 1.046-.28 1.359-.937v.937zm4.572-1.25c0-.11-.078-.125-.14-.125-.095 0-.11.063-.141.14-.36 1.094-1.313 1.094-1.407 1.094-.53 0-.953-.328-1.187-.703-.313-.515-.313-1.203-.313-1.578h2.922c.235 0 .266 0 .266-.219 0-1.047-.563-2.062-1.875-2.062-1.219 0-2.188 1.078-2.188 2.39 0 1.407 1.094 2.422 2.313 2.422 1.281 0 1.75-1.156 1.75-1.359zm-.688-1.39h-2.5c.063-1.563.953-1.829 1.313-1.829 1.078 0 1.187 1.406 1.187 1.828zm0 0"/><path fill="none" stroke="#000" stroke-linecap="round" stroke-miterlimit="10" stroke-width=".399" d="M119.688 299.938v14.171h80.789V155.527h-80.79v-12.18"/><path d="m119.688 141.355-1.594 3.188 1.594-1.195 1.593 1.195"/></svg>