<svg xmlns="http://www.w3.org/2000/svg" width="340.773" height="166.227" viewBox="0 0 255.58 124.67"><defs><clipPath id="a"><path d="M229 40h26.578v27H229Zm0 0"/></clipPath></defs><path fill="none" stroke="#000" stroke-miterlimit="10" stroke-width=".399" d="M162.29 12.957a7.085 7.085 0 0 0-7.087-7.086 7.085 7.085 0 0 0-7.086 7.086 7.085 7.085 0 0 0 7.086 7.086 7.085 7.085 0 0 0 7.086-7.086zm0 0"/><path d="M154.785 14.46c0-.812-.641-1.593-1.672-1.812.812-.265 1.39-.953 1.39-1.75 0-.812-.875-1.375-1.828-1.375-1 0-1.766.594-1.766 1.36 0 .328.22.515.516.515.297 0 .5-.218.5-.515 0-.485-.469-.485-.61-.485.298-.5.954-.625 1.313-.625.422 0 .969.22.969 1.11 0 .125-.031.703-.281 1.14-.297.485-.64.516-.89.516a3.29 3.29 0 0 1-.391.031c-.079.016-.141.032-.141.125 0 .11.062.11.234.11h.438c.812 0 1.187.672 1.187 1.656 0 1.36-.687 1.64-1.125 1.64-.437 0-1.187-.171-1.531-.75.344.047.656-.171.656-.546a.537.537 0 0 0-.547-.563c-.25 0-.562.14-.562.578 0 .907.922 1.563 2.016 1.563 1.218 0 2.125-.906 2.125-1.922zm4.996-1.483c0-.797-.046-1.594-.39-2.329-.453-.968-1.281-1.125-1.688-1.125-.61 0-1.328.266-1.75 1.188-.312.687-.36 1.469-.36 2.266 0 .75.032 1.64.454 2.406a1.83 1.83 0 0 0 1.64 1c.532 0 1.298-.203 1.735-1.156.313-.688.36-1.47.36-2.25zm-.812-.125c0 .75 0 1.421-.11 2.062-.156.953-.718 1.25-1.171 1.25-.391 0-.985-.25-1.157-1.203-.109-.594-.109-1.516-.109-2.11 0-.64 0-1.296.078-1.828.188-1.187.938-1.28 1.188-1.28.328 0 .984.187 1.172 1.171.109.563.109 1.313.109 1.938zm0 0"/><path fill="none" stroke="#900" stroke-miterlimit="10" stroke-width=".399" d="M95.191 33.281a7.085 7.085 0 0 0-7.086-7.086 7.085 7.085 0 0 0-7.085 7.086 7.085 7.085 0 0 0 7.085 7.086 7.085 7.085 0 0 0 7.086-7.086zm0 0"/><path fill="#900" d="M87.593 34.756h-.235c-.062.297-.125.734-.234.89-.062.078-.719.078-.937.078H84.39l1.062-1.03c1.547-1.376 2.14-1.907 2.14-2.907 0-1.14-.89-1.938-2.109-1.938a1.843 1.843 0 0 0-1.859 1.813c0 .547.5.547.531.547.172 0 .516-.11.516-.531a.513.513 0 0 0-.531-.516c-.078 0-.094 0-.125.016.218-.657.765-1.016 1.343-1.016.907 0 1.329.812 1.329 1.625 0 .797-.485 1.578-1.047 2.203l-1.907 2.125c-.109.11-.109.14-.109.375h3.703zm5.09-1.453c0-.797-.046-1.594-.39-2.329-.453-.968-1.281-1.125-1.688-1.125-.61 0-1.328.266-1.75 1.188-.312.687-.36 1.469-.36 2.266 0 .75.032 1.64.454 2.406a1.83 1.83 0 0 0 1.64 1c.532 0 1.298-.203 1.735-1.156.313-.688.36-1.47.36-2.25zm-.812-.125c0 .75 0 1.421-.11 2.062-.156.953-.718 1.25-1.171 1.25-.39 0-.985-.25-1.157-1.203-.109-.594-.109-1.516-.109-2.11 0-.64 0-1.296.078-1.828.188-1.187.938-1.28 1.188-1.28.328 0 .984.187 1.172 1.171.109.563.109 1.313.109 1.938zm0 0"/><path fill="none" stroke="#000" stroke-miterlimit="10" stroke-width=".399" d="M60.691 53.61a7.088 7.088 0 0 0-7.086-7.09 7.088 7.088 0 0 0 0 14.175 7.085 7.085 0 0 0 7.086-7.086zm0 0"/><path d="M52.796 56.816v-.312h-.313c-.906 0-.921-.11-.921-.47v-5.593c0-.25 0-.266-.235-.266-.625.641-1.5.641-1.812.641v.313c.203 0 .78 0 1.297-.266v5.172c0 .36-.032.469-.922.469h-.313v.312c.344-.031 1.203-.031 1.61-.031.39 0 1.265 0 1.609.031zm5.387-3.187c0-.797-.046-1.594-.39-2.329-.453-.968-1.281-1.125-1.688-1.125-.61 0-1.328.266-1.75 1.188-.312.687-.36 1.469-.36 2.266 0 .75.032 1.64.454 2.406a1.83 1.83 0 0 0 1.64 1c.532 0 1.298-.203 1.735-1.156.313-.688.36-1.47.36-2.25zm-.812-.125c0 .75 0 1.421-.11 2.062-.156.953-.718 1.25-1.171 1.25-.39 0-.985-.25-1.157-1.203-.109-.594-.109-1.516-.109-2.11 0-.64 0-1.296.078-1.828.188-1.187.938-1.28 1.188-1.28.328 0 .984.187 1.172 1.171.109.563.109 1.313.109 1.938zm0 0"/><path fill="none" stroke="#900" stroke-miterlimit="10" stroke-width=".399" d="M40.367 73.934a7.088 7.088 0 0 0-14.176 0 7.088 7.088 0 0 0 14.176 0zm0 0"/><path fill="#900" d="M35.258 75.142c0-1.188-.813-2.188-1.89-2.188-.47 0-.907.157-1.267.516v-1.953c.204.062.532.125.844.125 1.235 0 1.938-.906 1.938-1.031 0-.063-.032-.11-.11-.11 0 0-.03 0-.078.032a3.22 3.22 0 0 1-1.36.296 3.4 3.4 0 0 1-1.327-.28c-.078-.032-.11-.032-.11-.032-.109 0-.109.078-.109.234v2.953c0 .172 0 .25.14.25.079 0 .094-.015.141-.078.11-.156.469-.703 1.282-.703.515 0 .765.453.843.64.157.376.188.75.188 1.25 0 .36 0 .954-.25 1.376-.235.39-.61.64-1.063.64-.718 0-1.297-.53-1.468-1.109.03 0 .062.016.171.016.329 0 .5-.25.5-.485 0-.25-.172-.5-.5-.5-.14 0-.484.078-.484.532 0 .859.688 1.828 1.797 1.828 1.156 0 2.172-.953 2.172-2.219Zm0 0"/><path fill="none" stroke="#000" stroke-miterlimit="10" stroke-width=".399" d="M20.04 94.262a7.088 7.088 0 0 0-7.087-7.09 7.088 7.088 0 0 0 0 14.176 7.088 7.088 0 0 0 7.086-7.086zm0 0"/><path d="M14.635 97.577v-.312h-.313c-.906 0-.921-.11-.921-.47v-5.593c0-.25 0-.266-.235-.266-.625.641-1.5.641-1.812.641v.313c.203 0 .78 0 1.296-.266v5.172c0 .36-.03.469-.921.469h-.313v.312c.344-.031 1.203-.031 1.61-.031.39 0 1.265 0 1.609.031zm0 0"/><path fill="none" stroke="#000" stroke-miterlimit="10" stroke-width=".399" d="M60.691 94.262a7.088 7.088 0 0 0-7.086-7.09 7.088 7.088 0 0 0 0 14.176 7.088 7.088 0 0 0 7.086-7.086zm0 0"/><path d="M55.678 95.437c0-1.266-.891-2.219-2-2.219-.672 0-1.047.5-1.25.984v-.25c0-2.515 1.234-2.875 1.75-2.875.234 0 .656.063.875.407-.157 0-.547 0-.547.437 0 .313.234.469.453.469.156 0 .469-.094.469-.484 0-.594-.438-1.079-1.266-1.079-1.281 0-2.625 1.282-2.625 3.485 0 2.672 1.156 3.375 2.078 3.375 1.11 0 2.063-.938 2.063-2.25zm-.907-.016c0 .485 0 .985-.172 1.344-.296.594-.75.64-.984.64-.625 0-.922-.593-.984-.75-.188-.468-.188-1.265-.188-1.437 0-.781.328-1.781 1.219-1.781.172 0 .625 0 .937.625.172.36.172.875.172 1.36zm0 0"/><path fill="none" stroke="#000" stroke-miterlimit="10" stroke-width=".399" d="M81.02 73.934a7.088 7.088 0 0 0-14.176 0 7.088 7.088 0 0 0 14.176 0zm0 0"/><path d="M73.122 77.252v-.313h-.313c-.906 0-.922-.109-.922-.468v-5.594c0-.25 0-.266-.234-.266-.625.641-1.5.641-1.812.641v.312c.203 0 .78 0 1.296-.265v5.172c0 .36-.03.468-.921.468h-.313v.313c.344-.031 1.203-.031 1.61-.031.39 0 1.265 0 1.609.031zm5.278-1.734h-.234c-.063.296-.125.734-.235.89-.062.078-.718.078-.937.078h-1.797l1.062-1.03c1.547-1.376 2.141-1.907 2.141-2.907 0-1.14-.89-1.938-2.11-1.938a1.844 1.844 0 0 0-1.859 1.813c0 .547.5.547.532.547.171 0 .515-.11.515-.532a.513.513 0 0 0-.531-.515c-.078 0-.094 0-.125.015.219-.656.766-1.015 1.344-1.015.906 0 1.328.812 1.328 1.625 0 .797-.485 1.578-1.047 2.203l-1.906 2.125c-.11.11-.11.14-.11.375h3.703zm0 0"/><path fill="none" stroke="#000" stroke-miterlimit="10" stroke-width=".399" d="M129.691 53.61a7.088 7.088 0 0 0-7.086-7.09 7.088 7.088 0 0 0 0 14.175 7.085 7.085 0 0 0 7.086-7.086zm0 0"/><path d="M122.092 55.082h-.235c-.062.297-.125.734-.234.89-.063.078-.719.078-.938.078h-1.796l1.062-1.03c1.547-1.376 2.14-1.907 2.14-2.907 0-1.14-.89-1.938-2.109-1.938a1.843 1.843 0 0 0-1.859 1.813c0 .547.5.547.531.547.172 0 .516-.11.516-.531a.513.513 0 0 0-.531-.516c-.078 0-.094 0-.125.016.218-.657.765-1.016 1.343-1.016.907 0 1.329.812 1.329 1.625 0 .797-.485 1.578-1.047 2.203l-1.907 2.125c-.109.11-.109.14-.109.375h3.703zm4.981-.266c0-1.187-.812-2.187-1.89-2.187-.47 0-.907.156-1.266.515v-1.953c.203.063.531.125.844.125 1.234 0 1.937-.906 1.937-1.031 0-.063-.031-.11-.11-.11 0 0-.03 0-.077.032a3.22 3.22 0 0 1-1.36.297c-.39 0-.86-.079-1.328-.282-.078-.031-.11-.031-.11-.031-.109 0-.109.078-.109.234v2.954c0 .171 0 .25.14.25.079 0 .095-.016.142-.079.109-.156.468-.703 1.28-.703.516 0 .766.453.845.64.156.376.187.75.187 1.25 0 .36 0 .954-.25 1.376-.234.39-.61.64-1.062.64-.72 0-1.297-.53-1.47-1.109.032 0 .063.016.173.016.328 0 .5-.25.5-.485 0-.25-.172-.5-.5-.5-.141 0-.485.079-.485.532 0 .859.688 1.828 1.797 1.828 1.156 0 2.172-.953 2.172-2.219Zm0 0"/><path fill="none" stroke="#000" stroke-miterlimit="10" stroke-width=".399" d="M109.363 73.934a7.085 7.085 0 0 0-7.086-7.086 7.085 7.085 0 0 0-7.086 7.086 7.085 7.085 0 0 0 7.086 7.086 7.085 7.085 0 0 0 7.086-7.086zm0 0"/><path d="M101.766 75.408h-.235c-.062.296-.125.734-.234.89-.063.078-.719.078-.938.078h-1.796l1.062-1.03c1.547-1.376 2.14-1.907 2.14-2.907 0-1.14-.89-1.938-2.109-1.938a1.843 1.843 0 0 0-1.859 1.813c0 .547.5.547.531.547.172 0 .516-.11.516-.532a.513.513 0 0 0-.531-.515c-.079 0-.094 0-.125.015.218-.656.765-1.015 1.343-1.015.907 0 1.328.812 1.328 1.625 0 .797-.484 1.578-1.046 2.203l-1.907 2.125c-.109.11-.109.14-.109.375h3.703zm5.074.031c0-.813-.64-1.594-1.671-1.813.812-.265 1.39-.953 1.39-1.75 0-.812-.874-1.375-1.828-1.375-1 0-1.765.594-1.765 1.36 0 .328.219.515.515.515.297 0 .5-.218.5-.515 0-.485-.468-.485-.609-.485.297-.5.953-.625 1.313-.625.421 0 .968.22.968 1.11 0 .125-.031.703-.281 1.14-.297.485-.64.516-.89.516a3.29 3.29 0 0 1-.391.031c-.078.016-.14.031-.14.125 0 .11.062.11.234.11h.437c.813 0 1.188.671 1.188 1.656 0 1.36-.688 1.64-1.125 1.64-.438 0-1.188-.171-1.532-.75.344.047.657-.171.657-.546a.537.537 0 0 0-.547-.563c-.25 0-.563.14-.563.578 0 .906.922 1.563 2.016 1.563 1.219 0 2.125-.907 2.125-1.922zm0 0"/><path fill="none" stroke="#000" stroke-miterlimit="10" stroke-width=".399" d="M150.016 73.934a7.085 7.085 0 0 0-7.086-7.086 7.085 7.085 0 0 0-7.086 7.086 7.085 7.085 0 0 0 7.086 7.086 7.085 7.085 0 0 0 7.086-7.086zm0 0"/><path d="M142.418 75.408h-.235c-.062.296-.125.734-.234.89-.062.078-.719.078-.937.078h-1.797l1.062-1.03c1.547-1.376 2.14-1.907 2.14-2.907 0-1.14-.89-1.938-2.109-1.938a1.843 1.843 0 0 0-1.859 1.813c0 .547.5.547.531.547.172 0 .516-.11.516-.532a.513.513 0 0 0-.531-.515c-.078 0-.094 0-.125.015.218-.656.765-1.015 1.343-1.015.907 0 1.329.812 1.329 1.625 0 .797-.485 1.578-1.047 2.203l-1.907 2.125c-.109.11-.109.14-.109.375h3.703zm5.075.062c0-.36-.11-.812-.5-1.234-.188-.203-.344-.297-.985-.703.72-.375 1.204-.891 1.204-1.547 0-.922-.875-1.485-1.782-1.485-1 0-1.812.735-1.812 1.672 0 .172.015.625.437 1.094.11.11.485.36.735.531-.578.297-1.438.844-1.438 1.844 0 1.047 1.016 1.719 2.063 1.719 1.125 0 2.078-.828 2.078-1.89zm-.719-3.484c0 .578-.39 1.047-.984 1.39l-1.235-.797c-.453-.296-.5-.625-.5-.796 0-.61.657-1.032 1.36-1.032.718 0 1.359.516 1.359 1.235zm.219 3.843c0 .735-.75 1.25-1.563 1.25-.86 0-1.578-.609-1.578-1.437 0-.578.313-1.219 1.156-1.688l1.235.782c.281.187.75.484.75 1.093zm0 0"/><path fill="none" stroke="#900" stroke-miterlimit="10" stroke-width=".399" d="M129.691 94.262a7.088 7.088 0 0 0-7.086-7.09 7.088 7.088 0 0 0 0 14.176 7.088 7.088 0 0 0 7.086-7.086zm0 0"/><path fill="#900" d="M122.092 95.784h-.235c-.062.296-.125.734-.234.89-.063.078-.719.078-.938.078h-1.796l1.062-1.03c1.547-1.376 2.14-1.907 2.14-2.907 0-1.14-.89-1.938-2.109-1.938a1.843 1.843 0 0 0-1.859 1.813c0 .547.5.547.531.547.172 0 .516-.11.516-.532a.513.513 0 0 0-.531-.515c-.078 0-.094 0-.125.015.218-.656.765-1.015 1.343-1.015.907 0 1.329.812 1.329 1.625 0 .797-.485 1.578-1.047 2.203l-1.907 2.125c-.109.11-.109.14-.109.375h3.703zm5.34-4.688h-2.421c-1.204 0-1.235-.125-1.266-.312h-.25l-.328 2.046h.25c.031-.156.11-.78.25-.906.062-.062.844-.062.969-.062h2.062l-1.11 1.578c-.906 1.344-1.234 2.734-1.234 3.75 0 .094 0 .547.469.547.453 0 .453-.453.453-.547v-.516c0-.547.031-1.094.11-1.625.046-.234.171-1.094.625-1.703l1.343-1.906c.078-.11.078-.125.078-.344zm0 0"/><path fill="none" stroke="#000" stroke-miterlimit="10" stroke-width=".399" d="M229.387 33.281a7.085 7.085 0 0 0-7.086-7.086 7.085 7.085 0 0 0-7.086 7.086 7.085 7.085 0 0 0 7.086 7.086 7.085 7.085 0 0 0 7.086-7.086zm0 0"/><path d="M221.883 33.209c0-2.688-1.157-3.36-2.047-3.36-.547 0-1.032.188-1.453.625-.422.454-.641.875-.641 1.625 0 1.235.875 2.22 1.984 2.22.61 0 1.016-.423 1.25-1v.327c0 2.328-1.031 2.782-1.61 2.782-.171 0-.718-.016-.983-.36.437 0 .515-.281.515-.453 0-.312-.234-.453-.453-.453-.156 0-.453.078-.453.469 0 .672.531 1.078 1.375 1.078 1.297 0 2.516-1.36 2.516-3.5zm-.922-.922c0 .828-.344 1.797-1.22 1.797-.155 0-.624 0-.921-.625-.187-.375-.187-.86-.187-1.36 0-.53 0-1 .218-1.375.266-.5.64-.625.985-.625.468 0 .797.344.968.782.11.328.157.953.157 1.406zm5.919 1.016c0-.797-.047-1.594-.391-2.329-.453-.968-1.281-1.125-1.688-1.125-.61 0-1.328.266-1.75 1.188-.312.687-.36 1.469-.36 2.266 0 .75.032 1.64.454 2.406a1.83 1.83 0 0 0 1.64 1c.532 0 1.298-.203 1.735-1.156.313-.688.36-1.47.36-2.25zm-.813-.125c0 .75 0 1.421-.11 2.062-.156.953-.718 1.25-1.171 1.25-.391 0-.985-.25-1.157-1.203-.109-.594-.109-1.516-.109-2.11 0-.64 0-1.296.078-1.828.188-1.187.938-1.28 1.188-1.28.328 0 .984.187 1.172 1.171.109.563.109 1.313.109 1.938zm0 0"/><path fill="none" stroke="#900" stroke-miterlimit="10" stroke-width=".399" d="M209.063 53.61a7.088 7.088 0 1 0-14.177-.003 7.088 7.088 0 0 0 14.177.002zm0 0"/><path fill="#900" d="M201.556 55.113c0-.813-.64-1.594-1.671-1.813.812-.265 1.39-.953 1.39-1.75 0-.812-.875-1.375-1.828-1.375-1 0-1.766.594-1.766 1.36 0 .328.22.515.516.515.297 0 .5-.218.5-.515 0-.485-.469-.485-.61-.485.298-.5.954-.625 1.313-.625.422 0 .969.22.969 1.11 0 .125-.031.703-.281 1.14-.297.485-.64.516-.89.516a3.29 3.29 0 0 1-.392.031c-.078.016-.14.032-.14.125 0 .11.062.11.234.11h.438c.812 0 1.187.672 1.187 1.656 0 1.36-.687 1.64-1.125 1.64-.437 0-1.187-.171-1.531-.75.344.047.656-.171.656-.546a.537.537 0 0 0-.547-.563c-.25 0-.562.14-.562.578 0 .907.922 1.563 2.016 1.563 1.218 0 2.125-.906 2.125-1.922zm4.888-.297c0-1.187-.812-2.187-1.89-2.187-.47 0-.907.156-1.266.515v-1.953c.203.063.531.125.844.125 1.234 0 1.937-.906 1.937-1.031 0-.063-.031-.11-.11-.11 0 0-.03 0-.077.032a3.22 3.22 0 0 1-1.36.297c-.39 0-.86-.079-1.328-.282-.078-.031-.11-.031-.11-.031-.109 0-.109.078-.109.234v2.954c0 .171 0 .25.14.25.079 0 .095-.016.142-.079.109-.156.468-.703 1.28-.703.516 0 .766.453.845.64.156.376.187.75.187 1.25 0 .36 0 .954-.25 1.376-.234.39-.61.64-1.062.64-.72 0-1.297-.53-1.47-1.109.032 0 .063.016.173.016.328 0 .5-.25.5-.485 0-.25-.172-.5-.5-.5-.141 0-.485.079-.485.532 0 .859.688 1.828 1.797 1.828 1.156 0 2.172-.953 2.172-2.219Zm0 0"/><path fill="none" stroke="#000" stroke-miterlimit="10" stroke-width=".399" d="M188.734 73.934a7.085 7.085 0 0 0-7.086-7.086 7.085 7.085 0 0 0-7.085 7.086 7.085 7.085 0 0 0 7.085 7.086 7.085 7.085 0 0 0 7.086-7.086zm0 0"/><path d="M181.23 75.439c0-.813-.64-1.594-1.671-1.813.812-.265 1.39-.953 1.39-1.75 0-.812-.875-1.375-1.828-1.375-1 0-1.766.594-1.766 1.36 0 .328.22.515.516.515.297 0 .5-.218.5-.515 0-.485-.469-.485-.61-.485.298-.5.954-.625 1.313-.625.422 0 .969.22.969 1.11 0 .125-.031.703-.281 1.14-.297.485-.64.516-.89.516a3.29 3.29 0 0 1-.392.031c-.078.016-.14.031-.14.125 0 .11.062.11.234.11h.438c.812 0 1.187.671 1.187 1.656 0 1.36-.687 1.64-1.125 1.64-.437 0-1.187-.171-1.531-.75.344.047.656-.171.656-.546a.537.537 0 0 0-.547-.563c-.25 0-.562.14-.562.578 0 .906.922 1.563 2.016 1.563 1.218 0 2.125-.907 2.125-1.922zm4.982 0c0-.813-.64-1.594-1.672-1.813.812-.265 1.39-.953 1.39-1.75 0-.812-.874-1.375-1.828-1.375-1 0-1.765.594-1.765 1.36 0 .328.219.515.515.515.297 0 .5-.218.5-.515 0-.485-.468-.485-.609-.485.297-.5.953-.625 1.313-.625.421 0 .968.22.968 1.11 0 .125-.03.703-.28 1.14-.298.485-.642.516-.892.516a3.29 3.29 0 0 1-.39.031c-.078.016-.14.031-.14.125 0 .11.062.11.234.11h.437c.813 0 1.188.671 1.188 1.656 0 1.36-.688 1.64-1.125 1.64-.438 0-1.188-.171-1.532-.75.344.047.657-.171.657-.546a.537.537 0 0 0-.547-.563c-.25 0-.563.14-.563.578 0 .906.922 1.563 2.016 1.563 1.219 0 2.125-.907 2.125-1.922zm0 0"/><path fill="none" stroke="#000" stroke-miterlimit="10" stroke-width=".399" d="M229.387 73.934a7.085 7.085 0 0 0-7.086-7.086 7.085 7.085 0 0 0-7.086 7.086 7.085 7.085 0 0 0 7.086 7.086 7.085 7.085 0 0 0 7.086-7.086zm0 0"/><path d="M221.883 75.439c0-.813-.641-1.594-1.672-1.813.812-.265 1.39-.953 1.39-1.75 0-.812-.875-1.375-1.828-1.375-1 0-1.765.594-1.765 1.36 0 .328.218.515.515.515.297 0 .5-.218.5-.515 0-.485-.469-.485-.61-.485.298-.5.954-.625 1.313-.625.422 0 .969.22.969 1.11 0 .125-.031.703-.281 1.14-.297.485-.64.516-.89.516a3.29 3.29 0 0 1-.391.031c-.079.016-.141.031-.141.125 0 .11.062.11.234.11h.438c.812 0 1.187.671 1.187 1.656 0 1.36-.687 1.64-1.125 1.64-.437 0-1.187-.171-1.531-.75.344.047.656-.171.656-.546a.537.537 0 0 0-.547-.563c-.25 0-.562.14-.562.578 0 .906.922 1.563 2.016 1.563 1.218 0 2.125-.907 2.125-1.922zm4.981.031c0-.36-.11-.812-.5-1.234-.188-.203-.344-.297-.985-.703.72-.375 1.204-.891 1.204-1.547 0-.922-.875-1.485-1.782-1.485-1 0-1.812.735-1.812 1.672 0 .172.015.625.437 1.094.11.11.485.36.735.531-.578.297-1.438.844-1.438 1.844 0 1.047 1.016 1.719 2.063 1.719 1.125 0 2.078-.828 2.078-1.89zm-.719-3.484c0 .578-.39 1.047-.984 1.39l-1.235-.797c-.453-.296-.5-.625-.5-.796 0-.61.657-1.032 1.36-1.032.718 0 1.359.516 1.359 1.235zm.219 3.843c0 .735-.75 1.25-1.563 1.25-.86 0-1.578-.609-1.578-1.437 0-.578.313-1.219 1.156-1.688l1.235.782c.281.187.75.484.75 1.093zm0 0"/><g clip-path="url(#a)"><path fill="none" stroke="#000" stroke-miterlimit="10" stroke-width=".399" d="M249.715 53.61a7.091 7.091 0 0 0-7.086-7.09 7.088 7.088 0 1 0 7.086 7.09zm0 0"/></g><path d="M242.208 53.535c0-2.688-1.156-3.36-2.046-3.36-.547 0-1.032.188-1.454.625-.421.454-.64.875-.64 1.625 0 1.235.875 2.22 1.984 2.22.61 0 1.016-.423 1.25-1v.327c0 2.328-1.031 2.782-1.61 2.782-.171 0-.718-.016-.984-.36.438 0 .516-.281.516-.453 0-.312-.234-.453-.453-.453-.156 0-.453.078-.453.469 0 .672.531 1.078 1.375 1.078 1.297 0 2.515-1.36 2.515-3.5zm-.921-.922c0 .828-.344 1.797-1.22 1.797-.155 0-.624 0-.921-.625-.188-.375-.188-.86-.188-1.36 0-.53 0-1 .22-1.375.265-.5.64-.625.984-.625.468 0 .796.344.968.782.11.328.157.953.157 1.406zm5.903.922c0-2.688-1.156-3.36-2.047-3.36-.547 0-1.031.188-1.453.625-.422.454-.64.875-.64 1.625 0 1.235.874 2.22 1.984 2.22.609 0 1.015-.423 1.25-1v.327c0 2.328-1.032 2.782-1.61 2.782-.172 0-.719-.016-.984-.36.437 0 .515-.281.515-.453 0-.312-.234-.453-.453-.453-.156 0-.453.078-.453.469 0 .672.531 1.078 1.375 1.078 1.297 0 2.516-1.36 2.516-3.5zm-.922-.922c0 .828-.344 1.797-1.219 1.797-.156 0-.625 0-.922-.625-.187-.375-.187-.86-.187-1.36 0-.53 0-1 .219-1.375.265-.5.64-.625.984-.625.469 0 .797.344.969.782.109.328.156.953.156 1.406zm0 0"/><path fill="none" stroke="#900" stroke-linecap="round" stroke-miterlimit="10" stroke-width=".399" d="M148.23 15.066 96.984 30.594"/><path fill="#900" d="m95.078 31.168 3.512.602-1.606-1.176.684-1.875"/><path fill="none" stroke="#000" stroke-linecap="round" stroke-miterlimit="10" stroke-width=".399" d="m81.828 36.98-20.23 11.918"/><path d="m59.883 49.91 3.554-.246-1.84-.766.223-1.98"/><path fill="none" stroke="#900" stroke-linecap="round" stroke-miterlimit="10" stroke-width=".399" d="m48.453 58.762-8.613 8.613"/><path fill="#900" d="m38.43 68.781 3.383-1.125-1.973-.281-.281-1.973"/><path fill="none" stroke="#000" stroke-linecap="round" stroke-miterlimit="10" stroke-width=".399" d="m28.129 79.086-8.613 8.613"/><path d="m18.105 89.11 3.383-1.13-1.972-.28-.282-1.973"/><path fill="none" stroke="#000" stroke-linecap="round" stroke-miterlimit="10" stroke-width=".399" d="m38.43 79.086 8.613 8.613"/><path d="m48.453 89.11-1.125-3.383-.285 1.972-1.969.281"/><path fill="none" stroke="#000" stroke-linecap="round" stroke-miterlimit="10" stroke-width=".399" d="m58.758 58.762 8.613 8.613"/><path d="m68.781 68.781-1.129-3.379-.28 1.973-1.974.281"/><path fill="none" stroke="#000" stroke-linecap="round" stroke-miterlimit="10" stroke-width=".399" d="m94.383 36.98 20.226 11.918"/><path d="m116.328 49.91-1.937-2.992.218 1.98-1.836.766"/><path fill="none" stroke="#000" stroke-linecap="round" stroke-miterlimit="10" stroke-width=".399" d="m117.453 58.762-8.613 8.613"/><path d="m107.43 68.781 3.382-1.125-1.972-.281-.281-1.973"/><path fill="none" stroke="#000" stroke-linecap="round" stroke-miterlimit="10" stroke-width=".399" d="m127.758 58.762 8.613 8.613"/><path d="m137.777 68.781-1.125-3.379-.28 1.973-1.974.281"/><path fill="none" stroke="#900" stroke-linecap="round" stroke-miterlimit="10" stroke-width=".399" d="m137.777 79.086-8.613 8.613"/><path fill="#900" d="m127.758 89.11 3.379-1.13-1.973-.28-.281-1.973"/><path fill="none" stroke="#000" stroke-linecap="round" stroke-miterlimit="10" stroke-width=".399" d="m162.176 15.066 51.246 15.528"/><path d="m215.328 31.168-2.59-2.45.684 1.876-1.606 1.176"/><path fill="none" stroke="#900" stroke-linecap="round" stroke-miterlimit="10" stroke-width=".399" d="m217.148 38.434-8.613 8.613"/><path fill="#900" d="m207.129 48.457 3.379-1.129-1.973-.281-.281-1.973"/><path fill="none" stroke="#000" stroke-linecap="round" stroke-miterlimit="10" stroke-width=".399" d="m196.824 58.762-8.613 8.613"/><path d="m186.8 68.781 3.384-1.125-1.973-.281-.281-1.973"/><path fill="none" stroke="#000" stroke-linecap="round" stroke-miterlimit="10" stroke-width=".399" d="m207.129 58.762 8.61 8.613"/><path d="m217.148 68.781-1.125-3.379-.285 1.973-1.968.281"/><path fill="none" stroke="#000" stroke-linecap="round" stroke-miterlimit="10" stroke-width=".399" d="m227.453 38.434 8.613 8.613"/><path d="m237.477 48.457-1.13-3.383-.28 1.973-1.973.281M97.407 114.619c0-.219-.14-.219-.235-.219-.203 0-.218.11-.234.234-.047.47-.328.688-.625.688-.61 0-.687-.703-.75-1.125-.016-.11-.094-.797-.11-.844-.14-.703-.687-1.015-1.109-1.172 1.157-.296 1.657-.953 1.657-1.609 0-1-1.094-1.844-2.97-1.844h-3.78v.469h1.078v5.906H89.25v.469c.359-.031 1.328-.031 1.75-.031.421 0 1.39 0 1.75.031v-.469h-1.063v-2.765h1.156c.14 0 .578 0 .89.328.313.36.313.547.313 1.265 0 .657 0 1.157.704 1.485.437.219 1.062.265 1.468.265 1.063 0 1.188-.89 1.188-1.062zm-2.922-4.031c0 .562 0 1.39-1.64 1.39h-1.157v-2.781h1.172c1.61 0 1.625.781 1.625 1.39zm7.895 3.812c0-.172-.188-.172-.235-.172-.172 0-.187.047-.25.203-.203.485-.781.797-1.422.797-1.406 0-1.422-1.328-1.422-1.828h3.016c.219 0 .313 0 .313-.266 0-.312-.063-1.046-.563-1.546-.36-.36-.89-.532-1.578-.532-1.594 0-2.469 1.032-2.469 2.266 0 1.344 1 2.313 2.61 2.313 1.578 0 2-1.063 2-1.235zm-.938-1.328h-2.39c.015-.39.03-.813.234-1.14.265-.391.672-.516.953-.516 1.172 0 1.187 1.312 1.203 1.656zm7.25 2.5v-.469c-.61 0-.687 0-.687-.39v-6.063l-1.766.078v.469c.625 0 .703 0 .703.39v1.954a2.178 2.178 0 0 0-1.36-.453c-1.452 0-2.5.875-2.5 2.28 0 1.313.923 2.267 2.392 2.267.609 0 1.093-.235 1.406-.485v.484Zm-1.812-1.031c-.14.187-.547.734-1.297.734-1.219 0-1.219-1.203-1.219-1.906 0-.484 0-1.016.25-1.406.297-.422.766-.516 1.078-.516.563 0 .969.313 1.188.61zm5.366-.703v-.97h-3.047v.97zm8.144-.125c0-.953-.844-1.625-2.032-1.703 1.079-.204 1.72-.797 1.72-1.563 0-.922-.876-1.719-2.47-1.719h-4.328v.469h1.078v5.906h-1.078v.469h4.625c1.657 0 2.485-.875 2.485-1.86Zm-1.735-3.266c0 .766-.468 1.39-1.437 1.39h-1.563v-2.64h1.813c1.015 0 1.187.797 1.187 1.25zm.282 3.266c0 .109 0 1.39-1.438 1.39h-1.844v-2.906h1.938c.203 0 .672 0 1.015.422.329.422.329.984.329 1.094zm5.024 1.859v-.469h-.688v-6.453l-1.765.078v.469c.625 0 .687 0 .687.39v5.516h-.687v.469l1.219-.031Zm5.772-.234c0-.235-.125-.235-.266-.235-.61-.015-.61-.14-.61-.375v-2.14c0-.891-.702-1.532-2.187-1.532-.562 0-1.78.047-1.78.922a.6.6 0 0 0 .608.625c.313 0 .625-.218.625-.625 0-.297-.187-.468-.218-.5a5.28 5.28 0 0 1 .718-.062c.75 0 1.11.422 1.11 1.172v.343c-.719.032-3.25.125-3.25 1.563 0 .953 1.234 1.14 1.922 1.14.797 0 1.265-.406 1.484-.828 0 .313 0 .766 1.047.766h.469c.203 0 .328 0 .328-.234zm-2-1.157c0 .97-.922 1.094-1.172 1.094-.516 0-.906-.344-.906-.797 0-1.062 1.578-1.203 2.078-1.234zm6.819.219c0-.14-.14-.14-.234-.14-.188 0-.188.03-.25.156-.25.625-.735.812-1.235.812-1.39 0-1.39-1.453-1.39-1.922 0-.562 0-1.843 1.28-1.843.36 0 .516.015.657.047a.618.618 0 0 0-.203.468c0 .438.344.625.61.625.312 0 .64-.218.64-.625 0-.86-1.156-.922-1.734-.922-1.797 0-2.532 1.141-2.532 2.297 0 1.328.938 2.282 2.469 2.282 1.625 0 1.922-1.157 1.922-1.235zm5.866 1.172v-.469h-.172c-.438 0-.469-.047-.594-.203l-1.687-2.094 1.297-1.015c.14-.11.234-.172.906-.172v-.469c-.281.031-.531.031-.781.031l-1.157-.03v.468c.235 0 .266.031.344.11l-1.875 1.484v-4.563l-1.766.078v.469c.61 0 .688 0 .688.39v5.516h-.688v.469l1.188-.031 1.203.031v-.469h-.687v-1.265a4.92 4.92 0 0 1 .578-.422l1 1.25c.093.125.25.312.25.344 0 .093-.172.093-.313.093v.469a52.51 52.51 0 0 1 1.219-.031c.36 0 .703.015 1.047.031zm11.54-4.328-.203-2.406h-6.719l-.203 2.406h.469c.094-1.125.188-1.938 1.625-1.938h.766v5.797h-1.532v.469c.547-.031 1.657-.031 2.235-.031.594 0 1.703 0 2.234.031v-.469h-1.53v-5.797h.766c1.421 0 1.53.797 1.625 1.938zm0 0"/><path d="M155.841 111.9c0-.531-.53-.812-1.062-.812-.688 0-1.094.5-1.313 1.125v-1.125l-1.656.078v.469c.61 0 .688 0 .688.39v3.078h-.688v.469l1.25-.031c.375 0 1.016 0 1.375.031v-.469h-.86v-1.75c0-.687.235-1.906 1.235-1.906 0 0-.187.172-.187.453 0 .406.328.61.609.61.297 0 .61-.204.61-.61zm5.239 2.5c0-.172-.188-.172-.235-.172-.172 0-.188.047-.25.203-.203.485-.781.797-1.422.797-1.406 0-1.422-1.328-1.422-1.828h3.016c.218 0 .312 0 .312-.266 0-.312-.062-1.046-.562-1.546-.36-.36-.89-.532-1.578-.532-1.594 0-2.47 1.032-2.47 2.266 0 1.344 1 2.313 2.61 2.313 1.578 0 2-1.063 2-1.235zm-.938-1.328h-2.39c.015-.39.03-.813.233-1.14.266-.391.672-.516.954-.516 1.171 0 1.187 1.312 1.203 1.656zm6.188 1.328c0-.172-.188-.172-.235-.172-.172 0-.187.047-.25.203-.203.485-.781.797-1.422.797-1.406 0-1.422-1.328-1.422-1.828h3.016c.219 0 .313 0 .313-.266 0-.312-.063-1.046-.563-1.546-.36-.36-.89-.532-1.578-.532-1.594 0-2.469 1.032-2.469 2.266 0 1.344 1 2.313 2.61 2.313 1.578 0 2-1.063 2-1.235zm-.938-1.328h-2.39c.015-.39.03-.813.234-1.14.265-.391.672-.516.953-.516 1.172 0 1.187 1.312 1.203 1.656zm0 0"/></svg>