<svg xmlns="http://www.w3.org/2000/svg" width="523.015" height="231.173" viewBox="0 0 392.261 173.38"><path d="M92.677 16.186h-.47c-.077.687-.25 2.265-2.03 2.265h-1.032v-5.906h1.36v-.469c-.453.032-1.531.032-2.016.032-.437 0-1.453 0-1.828-.032v.469h1.078v5.906h-1.078v.469h5.703Zm6.893 0h-.468c-.078.687-.25 2.265-2.031 2.265H96.04v-5.906h1.359v-.469c-.453.032-1.531.032-2.016.032-.437 0-1.453 0-1.828-.032v.469h1.078v5.906h-1.078v.469h5.703Zm76.09 0h-.468c-.078.687-.25 2.265-2.031 2.265h-1.032v-5.906h1.36v-.469c-.453.032-1.531.032-2.016.032-.437 0-1.453 0-1.828-.032v.469h1.078v5.906h-1.078v.469h5.703Zm9.035 1.781c0-.219-.14-.219-.234-.219-.203 0-.219.11-.234.235-.047.468-.328.687-.625.687-.61 0-.688-.703-.75-1.125-.016-.11-.094-.797-.11-.844-.14-.703-.687-1.015-1.11-1.172 1.157-.296 1.657-.953 1.657-1.609 0-1-1.094-1.844-2.969-1.844h-3.78v.469h1.077v5.906h-1.078v.469c.36-.031 1.328-.031 1.75-.031.422 0 1.39 0 1.75.031v-.469h-1.062v-2.765h1.156c.14 0 .578 0 .89.328.313.36.313.547.313 1.265 0 .657 0 1.157.703 1.485.438.219 1.063.265 1.469.265 1.062 0 1.187-.89 1.187-1.062zm-2.921-4.031c0 .562 0 1.39-1.641 1.39h-1.156v-2.781h1.172c1.609 0 1.625.781 1.625 1.39zm79.862 4.031c0-.219-.14-.219-.234-.219-.203 0-.219.11-.234.235-.047.468-.329.687-.625.687-.61 0-.688-.703-.75-1.125-.016-.11-.094-.797-.11-.844-.14-.703-.687-1.015-1.11-1.172 1.157-.296 1.657-.953 1.657-1.609 0-1-1.094-1.844-2.969-1.844h-3.781v.469h1.078v5.906h-1.078v.469c.36-.031 1.328-.031 1.75-.031.422 0 1.39 0 1.75.031v-.469h-1.062v-2.765h1.156c.14 0 .578 0 .89.328.313.36.313.547.313 1.265 0 .657 0 1.157.703 1.485.438.219 1.063.265 1.469.265 1.062 0 1.187-.89 1.187-1.062zm-2.922-4.031c0 .562 0 1.39-1.64 1.39h-1.156v-2.781h1.171c1.61 0 1.625.781 1.625 1.39zm9.379 2.25h-.468c-.078.687-.25 2.265-2.032 2.265h-1.03v-5.906h1.359v-.469c-.454.032-1.532.032-2.016.032-.438 0-1.453 0-1.828-.032v.469h1.078v5.906h-1.078v.469h5.703Zm76.527 1.781c0-.219-.14-.219-.234-.219-.203 0-.219.11-.234.235-.047.468-.329.687-.625.687-.61 0-.688-.703-.75-1.125-.016-.11-.094-.797-.11-.844-.14-.703-.687-1.015-1.11-1.172 1.157-.296 1.657-.953 1.657-1.609 0-1-1.094-1.844-2.969-1.844h-3.78v.469h1.077v5.906h-1.078v.469c.36-.031 1.328-.031 1.75-.031.422 0 1.39 0 1.75.031v-.469h-1.062v-2.765h1.156c.14 0 .578 0 .89.328.313.36.313.547.313 1.265 0 .657 0 1.157.703 1.485.438.219 1.063.265 1.469.265 1.062 0 1.187-.89 1.187-1.062zm-2.922-4.031c0 .562 0 1.39-1.64 1.39h-1.156v-2.781h1.171c1.61 0 1.625.781 1.625 1.39zm11.52 4.031c0-.219-.14-.219-.234-.219-.203 0-.22.11-.235.235-.047.468-.328.687-.625.687-.61 0-.687-.703-.75-1.125-.015-.11-.093-.797-.11-.844-.14-.703-.687-1.015-1.108-1.172 1.156-.296 1.656-.953 1.656-1.609 0-1-1.094-1.844-2.969-1.844h-3.781v.469h1.078v5.906h-1.078v.469c.36-.031 1.328-.031 1.75-.031.422 0 1.39 0 1.75.031v-.469h-1.063v-2.765h1.157c.14 0 .578 0 .89.328.313.36.313.547.313 1.265 0 .657 0 1.157.703 1.485.437.219 1.062.265 1.469.265 1.062 0 1.187-.89 1.187-1.062zm-2.922-4.031c0 .562 0 1.39-1.64 1.39h-1.157v-2.781h1.172c1.61 0 1.625.781 1.625 1.39zM20.332 56.898c0-.86-.813-1.61-1.922-1.734.969-.188 1.656-.829 1.656-1.563 0-.86-.922-1.687-2.219-1.687h-3.64v.312h.234c.766 0 .797.11.797.469v5.25c0 .36-.031.469-.797.469h-.234v.312h3.906c1.328 0 2.219-.89 2.219-1.828zM19.097 53.6c0 .64-.484 1.469-1.593 1.469h-1.438v-2.438c0-.343.016-.406.485-.406h1.234c.969 0 1.312.844 1.312 1.375zm.25 3.297c0 .703-.53 1.516-1.546 1.516h-1.25c-.47 0-.485-.063-.485-.391v-2.719h1.875c.985 0 1.406.922 1.406 1.594Zm5.695.642c0-.094-.079-.125-.141-.125-.078 0-.11.062-.125.14-.344 1.031-1.25 1.031-1.344 1.031-.5 0-.89-.296-1.125-.671-.297-.47-.297-1.125-.297-1.485h2.782c.218 0 .25 0 .25-.219 0-.984-.547-1.953-1.782-1.953-1.156 0-2.078 1.032-2.078 2.282 0 1.328 1.047 2.296 2.188 2.296 1.218 0 1.672-1.109 1.672-1.296Zm-.657-1.329H22.01c.063-1.484.907-1.734 1.25-1.734 1.016 0 1.125 1.344 1.125 1.734zm4.502-3.812c0-.375-.375-.703-.906-.703-.688 0-1.547.531-1.547 1.594v1.14h-.782v.313h.782v3.234c0 .438-.11.438-.766.438v.312l1.125-.031c.406 0 .875 0 1.266.031v-.312h-.203c-.735 0-.75-.11-.75-.47v-3.202h1.125v-.313h-1.157v-1.156c0-.875.47-1.36.907-1.36.03 0 .187 0 .328.079a.443.443 0 0 0-.297.422c0 .218.156.421.437.421.282 0 .438-.203.438-.437zm4.173 4.187c0-1.265-.984-2.328-2.187-2.328-1.25 0-2.219 1.094-2.219 2.328a2.22 2.22 0 0 0 2.203 2.25c1.203 0 2.203-.984 2.203-2.25zm-.812-.078c0 .36 0 .907-.219 1.344-.234.453-.672.734-1.156.734-.438 0-.875-.203-1.14-.671-.25-.438-.25-1.047-.25-1.407 0-.39 0-.922.234-1.36a1.347 1.347 0 0 1 1.14-.671c.438 0 .86.219 1.125.656.266.422.266 1 .266 1.375zm4.732-1.577c0-.313-.313-.61-.735-.61-.735 0-1.094.672-1.219 1.094V54.32l-1.39.11v.312c.703 0 .78.062.78.562v2.672c0 .438-.109.438-.78.438v.312l1.14-.031c.39 0 .86 0 1.266.031v-.312h-.22c-.733 0-.75-.11-.75-.47v-1.53c0-.985.423-1.875 1.173-1.875.062 0 .094 0 .11.015-.032 0-.235.125-.235.39 0 .266.219.423.437.423a.421.421 0 0 0 .422-.438zm4.42 2.609c0-.094-.078-.125-.14-.125-.079 0-.11.062-.125.14-.344 1.031-1.25 1.031-1.344 1.031-.5 0-.89-.296-1.125-.671-.297-.47-.297-1.125-.297-1.485h2.781c.219 0 .25 0 .25-.219 0-.984-.547-1.953-1.781-1.953-1.156 0-2.078 1.032-2.078 2.282 0 1.328 1.047 2.296 2.187 2.296 1.219 0 1.672-1.109 1.672-1.296Zm-.656-1.329h-2.375c.062-1.484.906-1.734 1.25-1.734 1.016 0 1.125 1.344 1.125 1.734zM17.557 69.806c0-.063 0-.172-.125-.172-.11 0-.11.094-.125.156-.062.72-.406.891-.656.891-.484 0-.562-.516-.703-1.438l-.14-.796c-.173-.641-.657-.97-1.204-1.157.953-.234 1.735-.843 1.735-1.625 0-.953-1.141-1.797-2.594-1.797h-3.14v.313h.25c.765 0 .78.11.78.469v5.25c0 .36-.015.468-.78.468h-.25v.313c.359-.031 1.077-.031 1.452-.031.39 0 1.11 0 1.469.031v-.313h-.25c-.766 0-.781-.109-.781-.468v-2.516h1.14c.157 0 .579 0 .938.344.375.344.375.656.375 1.328 0 .64 0 1.047.406 1.422.406.36.953.422 1.25.422.781 0 .953-.813.953-1.094zm-2.25-4.14c0 .687-.234 1.5-1.703 1.5h-1.11v-2.579c0-.234 0-.36.22-.39.093-.016.39-.016.593-.016.89 0 2 .047 2 1.484zm6.973 2.874c0-1.265-.984-2.328-2.187-2.328-1.25 0-2.219 1.094-2.219 2.328a2.22 2.22 0 0 0 2.203 2.25c1.203 0 2.203-.984 2.203-2.25zm-.812-.078c0 .36 0 .906-.219 1.344-.234.453-.672.734-1.156.734-.438 0-.875-.203-1.14-.672-.25-.437-.25-1.046-.25-1.406 0-.39 0-.922.234-1.36a1.347 1.347 0 0 1 1.14-.671c.438 0 .86.219 1.125.656.266.422.266 1 .266 1.375zm4.419.985v-.563h-.25v.547c0 .734-.297 1.11-.672 1.11-.672 0-.672-.907-.672-1.079v-2.765h1.437v-.313h-1.437v-1.828h-.25c0 .813-.297 1.875-1.281 1.922v.219h.843v2.75c0 1.218.938 1.343 1.297 1.343.703 0 .985-.703.985-1.343zm5.375.343v-.562h-.25v.562c0 .578-.25.641-.36.641-.327 0-.359-.453-.359-.5v-1.984c0-.422 0-.813-.359-1.188-.39-.39-.89-.547-1.375-.547-.812 0-1.5.469-1.5 1.125 0 .297.203.469.453.469a.448.448 0 0 0 .469-.453c0-.125-.063-.453-.516-.453.266-.36.766-.469 1.078-.469.485 0 1.063.39 1.063 1.281v.36c-.516.03-1.219.062-1.844.359-.75.344-1 .86-1 1.297 0 .812.969 1.062 1.594 1.062.672 0 1.125-.406 1.312-.859.047.39.313.813.782.813.203 0 .812-.141.812-.954zm-1.656-.5c0 .938-.719 1.282-1.172 1.282-.484 0-.89-.344-.89-.844 0-.547.406-1.375 2.062-1.438zm5.137.157v-.563h-.25v.547c0 .734-.296 1.11-.671 1.11-.672 0-.672-.907-.672-1.079v-2.765h1.437v-.313H33.15v-1.828h-.25c0 .813-.297 1.875-1.282 1.922v.219h.844v2.75c0 1.218.938 1.343 1.297 1.343.703 0 .984-.703.984-1.343zm4.704.046c0-.093-.078-.124-.14-.124-.079 0-.11.062-.126.14-.343 1.031-1.25 1.031-1.343 1.031-.5 0-.891-.297-1.125-.672-.297-.468-.297-1.124-.297-1.484h2.781c.219 0 .25 0 .25-.219 0-.984-.547-1.953-1.781-1.953-1.156 0-2.078 1.031-2.078 2.281 0 1.329 1.047 2.297 2.187 2.297 1.219 0 1.672-1.109 1.672-1.297Zm-.656-1.328h-2.375c.062-1.484.906-1.734 1.25-1.734 1.015 0 1.125 1.344 1.125 1.734zm6.189 2.516v-.313c-.688 0-.781-.062-.781-.562v-6.047l-1.422.11v.312c.687 0 .765.063.765.563V66.9a1.582 1.582 0 0 0-1.25-.625c-1.172 0-2.218.984-2.218 2.265 0 1.266.968 2.25 2.109 2.25.64 0 1.078-.343 1.328-.656v.656zm-1.469-1.172c0 .172 0 .188-.11.36-.296.484-.734.703-1.171.703-.453 0-.813-.266-1.047-.641-.25-.406-.281-.969-.281-1.39 0-.36.015-.954.297-1.407.218-.312.593-.64 1.14-.64.344 0 .766.156 1.063.593.109.172.109.188.109.375zm0 0"/><path fill="none" stroke="#000" stroke-miterlimit="10" stroke-width=".399" d="M127.246 35.172a7.085 7.085 0 0 0-7.086-7.086 7.085 7.085 0 0 0-7.086 7.086 7.085 7.085 0 0 0 7.086 7.086 7.085 7.085 0 0 0 7.086-7.086Zm0 0"/><path d="M118.206 37.436c-.391.657-.782.797-1.22.828-.124.016-.218.016-.218.204 0 .062.063.109.14.109.266 0 .579-.031.845-.031.343 0 .687.031 1 .031.062 0 .187 0 .187-.188 0-.109-.078-.125-.156-.125-.219-.015-.469-.093-.469-.343 0-.125.063-.235.14-.375l.766-1.266h2.5c.016.203.157 1.563.157 1.656 0 .297-.516.328-.72.328-.14 0-.234 0-.234.204 0 .109.11.109.141.109.406 0 .828-.031 1.234-.031.25 0 .891.031 1.141.031.047 0 .172 0 .172-.203 0-.11-.094-.11-.234-.11-.61 0-.61-.062-.641-.359l-.61-6.219c-.015-.203-.015-.25-.187-.25-.156 0-.203.078-.266.172zm1.203-1.468 1.953-3.297.328 3.297Zm0 0"/><path fill="none" stroke="#000" stroke-miterlimit="10" stroke-width=".399" d="M101.91 60.512a7.088 7.088 0 0 0-7.086-7.09 7.088 7.088 0 0 0 0 14.176 7.085 7.085 0 0 0 7.086-7.086Zm0 0"/><path d="M92.39 63.133c-.095.39-.126.469-.907.469-.172 0-.266 0-.266.203 0 .109.094.109.266.109h3.562c1.579 0 2.75-1.172 2.75-2.156 0-.719-.578-1.297-1.546-1.406 1.03-.188 2.078-.922 2.078-1.875 0-.735-.657-1.375-1.844-1.375h-3.36c-.187 0-.28 0-.28.203 0 .109.093.109.28.109.016 0 .204 0 .376.016.171.03.265.03.265.172 0 .03-.015.062-.031.187zm1.5-2.875.624-2.469c.094-.344.11-.375.531-.375h1.297c.875 0 1.078.594 1.078 1.031 0 .875-.859 1.813-2.062 1.813zm-.438 3.344h-.22c-.108-.016-.14-.032-.14-.11 0-.031 0-.047.063-.219l.687-2.78h1.875c.953 0 1.157.734 1.157 1.155 0 .985-.891 1.954-2.079 1.954Zm0 0"/><path fill="none" stroke="#000" stroke-miterlimit="10" stroke-width=".399" d="M76.574 85.848a7.088 7.088 0 0 0-14.176 0 7.088 7.088 0 0 0 14.176 0Zm0 0"/><path d="M73.148 82.33c0-.032-.016-.11-.11-.11-.031 0-.047.015-.156.125l-.688.765c-.093-.14-.546-.89-1.656-.89-2.234 0-4.469 2.203-4.469 4.515 0 1.641 1.172 2.735 2.704 2.735.859 0 1.625-.39 2.156-.86.922-.812 1.094-1.718 1.094-1.75 0-.109-.11-.109-.125-.109-.063 0-.11.031-.125.11-.094.28-.329 1-1.016 1.577-.688.547-1.313.72-1.828.72-.89 0-1.953-.516-1.953-2.063 0-.578.203-2.188 1.203-3.36.61-.703 1.547-1.203 2.437-1.203 1.016 0 1.61.766 1.61 1.922 0 .406-.032.406-.032.516 0 .093.11.093.141.093.125 0 .125-.015.188-.203zm0 0"/><path fill="none" stroke="#000" stroke-linecap="round" stroke-miterlimit="10" stroke-width=".399" d="M115.008 40.324 101.383 53.95"/><path d="m99.977 55.36 3.378-1.13-1.972-.28-.281-1.973m8.681-9.733h-.25c-.094.828-.219 1.812-1.672 1.812h-.75c-.36 0-.375-.047-.375-.328v-4.203c0-.266 0-.375.75-.375h.25v-.266c-.36.016-.937.016-1.312.016l-1.235-.016v.266h.188c.609 0 .625.078.625.375v4.156c0 .297-.016.375-.625.375h-.188v.266h4.36zm0 0"/><path fill="none" stroke="#000" stroke-linecap="round" stroke-miterlimit="10" stroke-width=".399" d="M89.672 65.66 76.047 79.285"/><path d="m74.637 80.695 3.383-1.129-1.973-.28-.281-1.974m8.68-9.732h-.25c-.094.829-.219 1.813-1.672 1.813h-.75c-.36 0-.375-.047-.375-.328v-4.203c0-.266 0-.375.75-.375h.25v-.266c-.36.016-.937.016-1.312.016l-1.235-.016v.266h.188c.609 0 .625.078.625.375v4.156c0 .297-.016.375-.625.375h-.188v.266h4.36zm0 0"/><path fill="none" stroke="#000" stroke-miterlimit="10" stroke-width=".399" d="M198.414 35.172a7.085 7.085 0 0 0-7.086-7.086 7.085 7.085 0 0 0-7.086 7.086 7.085 7.085 0 0 0 7.086 7.086 7.085 7.085 0 0 0 7.086-7.086Zm0 0"/><path d="M189.373 37.436c-.391.657-.782.797-1.22.828-.124.016-.218.016-.218.204 0 .062.063.109.14.109.266 0 .579-.031.845-.031.343 0 .687.031 1 .031.062 0 .187 0 .187-.188 0-.109-.078-.125-.156-.125-.219-.015-.469-.093-.469-.343 0-.125.063-.235.14-.375l.766-1.266h2.5c.016.203.157 1.563.157 1.656 0 .297-.516.328-.72.328-.14 0-.234 0-.234.204 0 .109.11.109.141.109.406 0 .828-.031 1.234-.031.25 0 .891.031 1.141.031.047 0 .172 0 .172-.203 0-.11-.094-.11-.234-.11-.61 0-.61-.062-.641-.359l-.61-6.219c-.015-.203-.015-.25-.187-.25-.156 0-.203.078-.266.172zm1.203-1.468 1.953-3.297.328 3.297Zm0 0"/><path fill="none" stroke="#000" stroke-miterlimit="10" stroke-width=".399" d="M173.078 60.512a7.091 7.091 0 0 0-7.086-7.09 7.088 7.088 0 1 0 7.086 7.09Zm0 0"/><path d="M163.556 63.133c-.094.39-.125.469-.906.469-.172 0-.266 0-.266.203 0 .109.094.109.266.109h3.562c1.579 0 2.75-1.172 2.75-2.156 0-.719-.578-1.297-1.546-1.406 1.03-.188 2.078-.922 2.078-1.875 0-.735-.657-1.375-1.844-1.375h-3.36c-.187 0-.28 0-.28.203 0 .109.093.109.28.109.016 0 .204 0 .376.016.171.03.265.03.265.172 0 .03-.015.062-.031.187zm1.5-2.875.625-2.469c.094-.344.11-.375.531-.375h1.297c.875 0 1.078.594 1.078 1.031 0 .875-.859 1.813-2.062 1.813zm-.437 3.344h-.22c-.108-.016-.14-.032-.14-.11 0-.031 0-.047.063-.219l.687-2.78h1.875c.953 0 1.157.734 1.157 1.155 0 .985-.891 1.954-2.079 1.954Zm0 0"/><path fill="none" stroke="#000" stroke-miterlimit="10" stroke-width=".399" d="M198.414 85.848a7.085 7.085 0 0 0-7.086-7.086 7.085 7.085 0 0 0-7.086 7.086 7.085 7.085 0 0 0 7.086 7.086 7.085 7.085 0 0 0 7.086-7.086Zm0 0"/><path d="M194.989 82.33c0-.032-.016-.11-.11-.11-.031 0-.047.015-.156.125l-.688.765c-.093-.14-.546-.89-1.656-.89-2.234 0-4.469 2.203-4.469 4.515 0 1.641 1.172 2.735 2.704 2.735.859 0 1.625-.39 2.156-.86.922-.812 1.094-1.718 1.094-1.75 0-.109-.11-.109-.125-.109-.063 0-.11.031-.125.11-.094.28-.329 1-1.016 1.577-.688.547-1.313.72-1.828.72-.89 0-1.953-.516-1.953-2.063 0-.578.203-2.188 1.203-3.36.61-.703 1.547-1.203 2.437-1.203 1.016 0 1.61.766 1.61 1.922 0 .406-.032.406-.032.516 0 .093.11.093.141.093.125 0 .125-.015.188-.203zm0 0"/><path fill="none" stroke="#000" stroke-linecap="round" stroke-miterlimit="10" stroke-width=".399" d="M186.176 40.324 172.55 53.95"/><path d="m171.14 55.36 3.383-1.13-1.972-.28-.281-1.973m8.68-9.733h-.25c-.094.828-.219 1.812-1.672 1.812h-.75c-.36 0-.375-.047-.375-.328v-4.203c0-.266 0-.375.75-.375h.25v-.266c-.36.016-.937.016-1.312.016l-1.235-.016v.266h.188c.609 0 .625.078.625.375v4.156c0 .297-.016.375-.625.375h-.188v.266h4.36zm0 0"/><path fill="none" stroke="#000" stroke-linecap="round" stroke-miterlimit="10" stroke-width=".399" d="m171.14 65.66 13.626 13.625"/><path d="m186.176 80.695-1.13-3.382-.28 1.972-1.973.281m-1.047-10.794c0-.047 0-.156-.125-.156s-.125.094-.125.14c-.047.5-.313.672-.547.672-.422 0-.47-.359-.61-1.375-.062-.453-.14-1-1.015-1.265.625-.172 1.375-.625 1.375-1.313 0-.78-1-1.422-2.188-1.422h-2.61v.266h.188c.61 0 .625.078.625.375v4.156c0 .297-.015.375-.625.375h-.187v.266l1.156-.031 1.172.031v-.266h-.172c-.625 0-.64-.078-.64-.375v-1.968h1.015c.578 0 .844.296.906.359.235.25.235.406.235.937 0 .5 0 .844.328 1.141.344.297.781.344 1.015.344.672 0 .829-.656.829-.89zm-1.875-3.297c0 .891-.625 1.172-1.47 1.172h-.984v-2.015c0-.204.016-.282.204-.313h.484c.719 0 1.766 0 1.766 1.156zm0 0"/><path fill="none" stroke="#000" stroke-miterlimit="10" stroke-width=".399" d="M256.914 35.172a7.088 7.088 0 0 0-14.176 0 7.088 7.088 0 0 0 14.176 0Zm0 0"/><path d="M247.872 37.436c-.391.657-.782.797-1.22.828-.124.016-.218.016-.218.204 0 .062.063.109.14.109.266 0 .579-.031.845-.031.343 0 .687.031 1 .031.062 0 .187 0 .187-.188 0-.109-.078-.125-.156-.125-.219-.015-.469-.093-.469-.343 0-.125.063-.235.14-.375l.766-1.266h2.5c.016.203.157 1.563.157 1.656 0 .297-.516.328-.72.328-.14 0-.234 0-.234.204 0 .109.11.109.141.109.406 0 .828-.031 1.234-.031.25 0 .891.031 1.141.031.047 0 .172 0 .172-.203 0-.11-.094-.11-.234-.11-.61 0-.61-.062-.641-.359l-.61-6.219c-.015-.203-.015-.25-.187-.25-.156 0-.203.078-.266.172zm1.203-1.468 1.953-3.297.328 3.297Zm0 0"/><path fill="none" stroke="#000" stroke-miterlimit="10" stroke-width=".399" d="M282.25 60.512a7.088 7.088 0 0 0-7.086-7.09 7.088 7.088 0 0 0 0 14.176 7.085 7.085 0 0 0 7.086-7.086Zm0 0"/><path d="M272.73 63.133c-.095.39-.126.469-.907.469-.172 0-.266 0-.266.203 0 .109.094.109.266.109h3.562c1.579 0 2.75-1.172 2.75-2.156 0-.719-.578-1.297-1.546-1.406 1.03-.188 2.078-.922 2.078-1.875 0-.735-.657-1.375-1.844-1.375h-3.36c-.187 0-.28 0-.28.203 0 .109.093.109.28.109.016 0 .204 0 .376.016.171.03.265.03.265.172 0 .03-.015.062-.031.187zm1.5-2.875.624-2.469c.094-.344.11-.375.531-.375h1.297c.875 0 1.078.594 1.078 1.031 0 .875-.859 1.813-2.062 1.813zm-.438 3.344h-.22c-.108-.016-.14-.032-.14-.11 0-.031 0-.047.063-.219l.687-2.78h1.875c.953 0 1.157.734 1.157 1.155 0 .985-.891 1.954-2.079 1.954Zm0 0"/><path fill="none" stroke="#000" stroke-miterlimit="10" stroke-width=".399" d="M256.914 85.848a7.088 7.088 0 0 0-14.176 0 7.088 7.088 0 0 0 14.176 0Zm0 0"/><path d="M253.488 82.33c0-.032-.016-.11-.11-.11-.031 0-.047.015-.156.125l-.688.765c-.093-.14-.546-.89-1.656-.89-2.234 0-4.469 2.203-4.469 4.515 0 1.641 1.172 2.735 2.704 2.735.859 0 1.625-.39 2.156-.86.922-.812 1.094-1.718 1.094-1.75 0-.109-.11-.109-.125-.109-.063 0-.11.031-.125.11-.094.28-.329 1-1.016 1.577-.688.547-1.313.72-1.828.72-.89 0-1.953-.516-1.953-2.063 0-.578.203-2.188 1.203-3.36.61-.703 1.547-1.203 2.437-1.203 1.016 0 1.61.766 1.61 1.922 0 .406-.032.406-.032.516 0 .093.11.093.141.093.125 0 .125-.015.188-.203zm0 0"/><path fill="none" stroke="#000" stroke-linecap="round" stroke-miterlimit="10" stroke-width=".399" d="m254.977 40.324 13.625 13.625"/><path d="m270.012 55.36-1.13-3.383-.28 1.972-1.973.281m-1.047-10.795c0-.047 0-.156-.125-.156s-.125.094-.125.14c-.047.5-.313.672-.547.672-.422 0-.47-.359-.61-1.375-.062-.453-.14-1-1.015-1.265.625-.172 1.375-.625 1.375-1.313 0-.78-1-1.422-2.188-1.422h-2.61v.266h.188c.61 0 .625.078.625.375v4.156c0 .297-.015.375-.625.375h-.187v.266l1.156-.031 1.172.031v-.266h-.172c-.625 0-.64-.078-.64-.375v-1.968h1.015c.578 0 .844.296.906.359.235.25.235.406.235.937 0 .5 0 .844.328 1.141.344.297.781.344 1.015.344.672 0 .829-.656.829-.89zm-1.875-3.297c0 .891-.625 1.172-1.47 1.172h-.984v-2.015c0-.204.016-.282.204-.313h.484c.719 0 1.766 0 1.766 1.156zm0 0"/><path fill="none" stroke="#000" stroke-linecap="round" stroke-miterlimit="10" stroke-width=".399" d="m270.012 65.66-13.625 13.625"/><path d="m254.977 80.695 3.382-1.129-1.972-.28-.282-1.974m8.681-9.732h-.25c-.094.829-.219 1.813-1.672 1.813h-.75c-.36 0-.375-.047-.375-.328v-4.203c0-.266 0-.375.75-.375h.25v-.266c-.36.016-.937.016-1.312.016l-1.235-.016v.266h.188c.609 0 .625.078.625.375v4.156c0 .297-.016.375-.625.375h-.188v.266h4.36zm0 0"/><path fill="none" stroke="#000" stroke-miterlimit="10" stroke-width=".399" d="M328.082 35.172a7.088 7.088 0 0 0-14.176 0 7.088 7.088 0 0 0 14.176 0Zm0 0"/><path d="M319.039 37.436c-.391.657-.782.797-1.22.828-.124.016-.218.016-.218.204 0 .062.063.109.14.109.266 0 .579-.031.845-.031.343 0 .687.031 1 .031.062 0 .187 0 .187-.188 0-.109-.078-.125-.156-.125-.219-.015-.469-.093-.469-.343 0-.125.063-.235.14-.375l.766-1.266h2.5c.016.203.157 1.563.157 1.656 0 .297-.516.328-.72.328-.14 0-.234 0-.234.204 0 .109.11.109.141.109.406 0 .828-.031 1.234-.031.25 0 .891.031 1.141.031.047 0 .172 0 .172-.203 0-.11-.094-.11-.234-.11-.61 0-.61-.062-.641-.359l-.61-6.219c-.015-.203-.015-.25-.187-.25-.156 0-.203.078-.266.172zm1.203-1.468 1.953-3.297.328 3.297Zm0 0"/><path fill="none" stroke="#000" stroke-miterlimit="10" stroke-width=".399" d="M353.418 60.512a7.088 7.088 0 1 0-14.177-.003 7.088 7.088 0 0 0 14.177.003Zm0 0"/><path d="M343.896 63.133c-.094.39-.125.469-.906.469-.172 0-.266 0-.266.203 0 .109.094.109.266.109h3.562c1.579 0 2.75-1.172 2.75-2.156 0-.719-.578-1.297-1.546-1.406 1.03-.188 2.078-.922 2.078-1.875 0-.735-.657-1.375-1.844-1.375h-3.36c-.187 0-.28 0-.28.203 0 .109.093.109.28.109.016 0 .204 0 .376.016.171.03.265.03.265.172 0 .03-.015.062-.031.187zm1.5-2.875.625-2.469c.094-.344.11-.375.531-.375h1.297c.875 0 1.078.594 1.078 1.031 0 .875-.859 1.813-2.062 1.813zm-.437 3.344h-.22c-.108-.016-.14-.032-.14-.11 0-.031 0-.047.063-.219l.687-2.78h1.875c.953 0 1.157.734 1.157 1.155 0 .985-.891 1.954-2.079 1.954Zm0 0"/><path fill="none" stroke="#000" stroke-miterlimit="10" stroke-width=".399" d="M378.754 85.848a7.085 7.085 0 0 0-7.086-7.086 7.085 7.085 0 0 0-7.086 7.086 7.085 7.085 0 0 0 7.086 7.086 7.085 7.085 0 0 0 7.086-7.086Zm0 0"/><path d="M375.329 82.33c0-.032-.016-.11-.11-.11-.031 0-.047.015-.156.125l-.688.765c-.093-.14-.546-.89-1.656-.89-2.234 0-4.469 2.203-4.469 4.515 0 1.641 1.172 2.735 2.704 2.735.859 0 1.625-.39 2.156-.86.922-.812 1.094-1.718 1.094-1.75 0-.109-.11-.109-.125-.109-.063 0-.11.031-.125.11-.094.28-.329 1-1.016 1.577-.688.547-1.313.72-1.828.72-.89 0-1.953-.516-1.953-2.063 0-.578.203-2.188 1.203-3.36.61-.703 1.547-1.203 2.437-1.203 1.016 0 1.61.766 1.61 1.922 0 .406-.032.406-.032.516 0 .093.11.093.141.093.125 0 .125-.015.188-.203zm0 0"/><path fill="none" stroke="#000" stroke-linecap="round" stroke-miterlimit="10" stroke-width=".399" d="M326.145 40.324 339.77 53.95"/><path d="m341.18 55.36-1.13-3.383-.28 1.972-1.973.281m-1.048-10.795c0-.047 0-.156-.125-.156s-.125.094-.125.14c-.047.5-.313.672-.547.672-.422 0-.47-.359-.61-1.375-.062-.453-.14-1-1.015-1.265.625-.172 1.375-.625 1.375-1.313 0-.78-1-1.422-2.188-1.422h-2.61v.266h.188c.61 0 .625.078.625.375v4.156c0 .297-.015.375-.625.375h-.187v.266l1.156-.031 1.172.031v-.266h-.172c-.625 0-.64-.078-.64-.375v-1.968h1.015c.578 0 .844.296.906.359.235.25.235.406.235.937 0 .5 0 .844.328 1.141.344.297.781.344 1.015.344.672 0 .829-.656.829-.89zm-1.875-3.297c0 .891-.625 1.172-1.47 1.172h-.984v-2.015c0-.204.016-.282.204-.313h.484c.719 0 1.766 0 1.766 1.156zm0 0"/><path fill="none" stroke="#000" stroke-linecap="round" stroke-miterlimit="10" stroke-width=".399" d="m351.48 65.66 13.625 13.625"/><path d="m366.516 80.695-1.13-3.382-.28 1.972-1.973.281m-1.047-10.794c0-.047 0-.156-.125-.156s-.125.094-.125.14c-.047.5-.313.672-.547.672-.422 0-.47-.359-.61-1.375-.062-.453-.14-1-1.015-1.265.625-.172 1.375-.625 1.375-1.313 0-.78-1-1.422-2.188-1.422h-2.61v.266h.188c.61 0 .625.078.625.375v4.156c0 .297-.015.375-.625.375h-.187v.266l1.156-.031 1.172.031v-.266h-.172c-.625 0-.64-.078-.64-.375v-1.968h1.015c.578 0 .844.296.906.359.235.25.235.406.235.937 0 .5 0 .844.328 1.141.344.297.781.344 1.015.344.672 0 .829-.656.829-.89zm-1.875-3.297c0 .891-.625 1.172-1.47 1.172h-.984v-2.015c0-.204.016-.282.204-.313h.484c.719 0 1.766 0 1.766 1.156zM23.543 110.994v-.313h-.172c-.594 0-.734-.062-.844-.39l-2.156-6.234c-.047-.126-.078-.204-.234-.204-.156 0-.188.063-.235.204l-2.062 5.953c-.188.515-.578.671-1.125.671v.313l1.016-.031 1.156.031v-.313c-.5 0-.75-.25-.75-.5 0-.03.015-.14.015-.156l.47-1.297h2.452l.532 1.516a.58.58 0 0 1 .03.14c0 .297-.562.297-.827.297v.313c.359-.031 1.062-.031 1.437-.031zm-2.578-2.578H18.73l1.109-3.25zm6.472-3.75c0-.375-.375-.703-.906-.703-.688 0-1.547.531-1.547 1.594v1.14h-.782v.313h.782v3.234c0 .438-.11.438-.766.438v.312l1.125-.031c.406 0 .875 0 1.266.031v-.313h-.203c-.735 0-.75-.109-.75-.468v-3.203h1.125v-.313h-1.157v-1.156c0-.875.47-1.36.907-1.36.03 0 .187 0 .328.079a.443.443 0 0 0-.297.421c0 .22.156.422.437.422.282 0 .438-.203.438-.437zm0 0"/><path d="M30.235 109.76v-.563h-.25v.547c0 .734-.296 1.11-.671 1.11-.672 0-.672-.907-.672-1.079v-2.765h1.437v-.313h-1.437v-1.828h-.25c0 .813-.297 1.875-1.282 1.922v.219h.844v2.75c0 1.218.938 1.343 1.297 1.343.703 0 .984-.703.984-1.343zm4.704.046c0-.093-.078-.124-.14-.124-.079 0-.11.062-.126.14-.343 1.031-1.25 1.031-1.343 1.031-.5 0-.891-.296-1.125-.671-.297-.47-.297-1.126-.297-1.485h2.781c.219 0 .25 0 .25-.219 0-.984-.547-1.953-1.781-1.953-1.157 0-2.078 1.031-2.078 2.281 0 1.329 1.046 2.297 2.187 2.297 1.219 0 1.672-1.109 1.672-1.296Zm-.656-1.328h-2.375c.062-1.484.906-1.734 1.25-1.734 1.015 0 1.125 1.344 1.125 1.734zm4.564-1.281c0-.312-.313-.61-.735-.61-.734 0-1.093.673-1.218 1.094v-1.093l-1.391.11v.312c.703 0 .781.062.781.562v2.672c0 .438-.11.438-.781.438v.312l1.14-.031c.391 0 .86 0 1.266.031v-.313h-.218c-.735 0-.75-.109-.75-.468v-1.531c0-.985.421-1.876 1.171-1.876.063 0 .094 0 .11.016-.031 0-.235.125-.235.39 0 .266.22.423.438.423a.421.421 0 0 0 .422-.438zm-21.29 14.877c0-.063 0-.172-.125-.172-.11 0-.11.094-.125.156-.062.72-.406.891-.656.891-.484 0-.562-.516-.703-1.438l-.14-.796c-.173-.641-.657-.97-1.204-1.157.953-.234 1.735-.843 1.735-1.625 0-.953-1.141-1.797-2.594-1.797h-3.14v.313h.25c.765 0 .78.11.78.469v5.25c0 .36-.015.468-.78.468h-.25v.313c.359-.031 1.077-.031 1.452-.031.39 0 1.11 0 1.469.031v-.313h-.25c-.766 0-.781-.109-.781-.468v-2.516h1.14c.157 0 .579 0 .938.344.375.344.375.656.375 1.328 0 .64 0 1.047.406 1.422.406.36.953.422 1.25.422.781 0 .953-.813.953-1.094zm-2.25-4.14c0 .687-.234 1.5-1.703 1.5h-1.11v-2.579c0-.234 0-.36.22-.39.093-.016.39-.016.593-.016.89 0 2 .047 2 1.484zm6.973 2.874c0-1.265-.984-2.328-2.187-2.328-1.25 0-2.219 1.094-2.219 2.328a2.22 2.22 0 0 0 2.203 2.25c1.203 0 2.203-.984 2.203-2.25zm-.812-.078c0 .36 0 .906-.219 1.344-.234.453-.672.734-1.156.734-.438 0-.875-.203-1.14-.672-.25-.437-.25-1.046-.25-1.406 0-.39 0-.922.234-1.36a1.347 1.347 0 0 1 1.14-.671c.438 0 .86.219 1.125.656.266.422.266 1 .266 1.375zm4.419.985v-.563h-.25v.547c0 .734-.297 1.11-.672 1.11-.672 0-.672-.907-.672-1.079v-2.765h1.437v-.313h-1.437v-1.828h-.25c0 .813-.297 1.875-1.281 1.922v.219h.843v2.75c0 1.218.938 1.343 1.297 1.343.703 0 .985-.703.985-1.343zm5.375.343v-.562h-.25v.562c0 .578-.25.641-.36.641-.327 0-.359-.453-.359-.5v-1.984c0-.422 0-.813-.359-1.188-.39-.39-.89-.547-1.375-.547-.812 0-1.5.469-1.5 1.125 0 .297.203.469.453.469a.448.448 0 0 0 .469-.453c0-.125-.063-.453-.516-.453.266-.36.766-.469 1.078-.469.485 0 1.063.39 1.063 1.281v.36c-.516.03-1.219.062-1.844.359-.75.344-1 .86-1 1.297 0 .812.969 1.062 1.594 1.062.672 0 1.125-.406 1.312-.859.047.39.313.813.782.813.203 0 .812-.141.812-.954zm-1.656-.5c0 .938-.719 1.282-1.172 1.282-.484 0-.89-.344-.89-.844 0-.547.406-1.375 2.062-1.438zm5.137.157v-.563h-.25v.547c0 .734-.296 1.11-.671 1.11-.672 0-.672-.907-.672-1.079v-2.765h1.437v-.313H33.15v-1.828h-.25c0 .813-.297 1.875-1.282 1.922v.219h.844v2.75c0 1.218.938 1.343 1.297 1.343.703 0 .984-.703.984-1.343zm4.704.046c0-.093-.078-.124-.14-.124-.079 0-.11.062-.126.14-.343 1.031-1.25 1.031-1.343 1.031-.5 0-.891-.297-1.125-.672-.297-.468-.297-1.124-.297-1.484h2.781c.219 0 .25 0 .25-.219 0-.984-.547-1.953-1.781-1.953-1.156 0-2.078 1.031-2.078 2.281 0 1.329 1.047 2.297 2.187 2.297 1.219 0 1.672-1.109 1.672-1.297Zm-.656-1.328h-2.375c.062-1.484.906-1.734 1.25-1.734 1.015 0 1.125 1.344 1.125 1.734zm6.189 2.516v-.313c-.688 0-.781-.062-.781-.562v-6.047l-1.422.11v.312c.687 0 .765.063.765.563v2.156a1.582 1.582 0 0 0-1.25-.625c-1.172 0-2.218.984-2.218 2.265 0 1.266.968 2.25 2.109 2.25.64 0 1.078-.343 1.328-.656v.656zm-1.469-1.172c0 .172 0 .188-.11.36-.296.484-.734.703-1.171.703-.453 0-.813-.266-1.047-.641-.25-.406-.281-.969-.281-1.39 0-.36.015-.954.297-1.407.218-.312.593-.64 1.14-.64.344 0 .766.156 1.063.593.109.172.109.188.109.375zm0 0"/><path fill="none" stroke="#000" stroke-miterlimit="10" stroke-width=".399" d="M103.57 104.402a7.088 7.088 0 0 0-14.175 0 7.088 7.088 0 0 0 14.175 0Zm0 0"/><path d="M94.048 107.026c-.094.39-.125.469-.906.469-.172 0-.266 0-.266.203 0 .109.094.109.266.109h3.562c1.579 0 2.75-1.172 2.75-2.156 0-.719-.578-1.297-1.546-1.406 1.03-.188 2.078-.922 2.078-1.876 0-.734-.657-1.374-1.844-1.374h-3.36c-.187 0-.28 0-.28.203 0 .109.093.109.28.109.016 0 .204 0 .376.016.171.03.265.03.265.172 0 .03-.015.062-.031.187zm1.5-2.875.625-2.469c.094-.344.11-.375.531-.375h1.297c.875 0 1.078.594 1.078 1.031 0 .875-.859 1.813-2.062 1.813zm-.437 3.344h-.22c-.108-.016-.14-.032-.14-.11 0-.031 0-.047.063-.219l.687-2.78h1.875c.953 0 1.157.734 1.157 1.155 0 .985-.891 1.954-2.079 1.954Zm0 0"/><path fill="none" stroke="#000" stroke-miterlimit="10" stroke-width=".399" d="M78.23 129.738a7.085 7.085 0 0 0-7.085-7.086 7.088 7.088 0 0 0 0 14.176 7.088 7.088 0 0 0 7.085-7.09Zm0 0"/><path d="M74.807 126.222c0-.031-.016-.11-.11-.11-.031 0-.047.016-.156.126l-.688.765c-.093-.14-.546-.89-1.656-.89-2.234 0-4.469 2.203-4.469 4.515 0 1.641 1.172 2.735 2.704 2.735.859 0 1.625-.39 2.156-.86.922-.812 1.094-1.718 1.094-1.75 0-.109-.11-.109-.125-.109-.063 0-.11.031-.125.11-.094.28-.329 1-1.016 1.578-.688.546-1.313.718-1.828.718-.89 0-1.953-.515-1.953-2.062 0-.578.203-2.188 1.203-3.36.61-.703 1.547-1.203 2.437-1.203 1.016 0 1.61.766 1.61 1.922 0 .406-.032.406-.032.516 0 .094.11.094.141.094.125 0 .125-.016.188-.204zm0 0"/><path fill="none" stroke="#000" stroke-miterlimit="10" stroke-width=".399" d="M128.906 129.738a7.085 7.085 0 0 0-7.086-7.086 7.088 7.088 0 0 0 0 14.176 7.088 7.088 0 0 0 7.086-7.09Zm0 0"/><path d="M119.865 132.003c-.391.657-.782.797-1.22.829-.124.015-.218.015-.218.203 0 .062.063.109.14.109.266 0 .579-.031.845-.031.343 0 .687.031 1 .031.062 0 .187 0 .187-.188 0-.109-.078-.124-.156-.124-.219-.016-.469-.094-.469-.344 0-.125.063-.235.14-.375l.766-1.266h2.5c.016.203.157 1.563.157 1.656 0 .297-.516.329-.72.329-.14 0-.234 0-.234.203 0 .109.11.109.141.109.406 0 .828-.031 1.234-.031.25 0 .891.031 1.141.031.047 0 .172 0 .172-.203 0-.11-.094-.11-.234-.11-.61 0-.61-.062-.641-.359l-.61-6.219c-.015-.203-.015-.25-.187-.25-.156 0-.203.079-.266.172zm1.203-1.468 1.953-3.297.328 3.297Zm0 0"/><path fill="none" stroke="#000" stroke-linecap="round" stroke-miterlimit="10" stroke-width=".399" d="M91.332 109.555 77.707 123.18"/><path d="m76.297 124.59 3.383-1.13-1.973-.28-.281-1.973"/><path fill="none" stroke="#000" stroke-linecap="round" stroke-miterlimit="10" stroke-width=".399" d="m101.633 109.555 13.625 13.625"/><path d="m116.668 124.59-1.129-3.383-.281 1.973-1.973.28"/><path fill="none" stroke="#000" stroke-miterlimit="10" stroke-width=".399" d="M187.402 104.402a7.085 7.085 0 0 0-7.086-7.086 7.085 7.085 0 0 0-7.086 7.086 7.085 7.085 0 0 0 7.086 7.086 7.085 7.085 0 0 0 7.086-7.086Zm0 0"/><path d="M183.979 100.885c0-.031-.016-.11-.11-.11-.031 0-.047.016-.156.126l-.688.765c-.093-.14-.546-.89-1.656-.89-2.234 0-4.469 2.203-4.469 4.515 0 1.641 1.172 2.735 2.704 2.735.859 0 1.625-.39 2.156-.86.922-.812 1.094-1.718 1.094-1.75 0-.109-.11-.109-.125-.109-.063 0-.11.031-.125.11-.094.28-.329 1-1.016 1.578-.688.546-1.313.718-1.828.718-.89 0-1.953-.515-1.953-2.062 0-.578.203-2.188 1.203-3.36.61-.703 1.547-1.203 2.437-1.203 1.016 0 1.61.766 1.61 1.922 0 .406-.032.406-.032.516 0 .094.11.094.141.094.125 0 .125-.016.188-.204zm0 0"/><path fill="none" stroke="#000" stroke-miterlimit="10" stroke-width=".399" d="M162.066 129.738a7.085 7.085 0 0 0-7.086-7.086 7.088 7.088 0 0 0 0 14.176 7.088 7.088 0 0 0 7.086-7.09Zm0 0"/><path d="M152.546 132.363c-.094.39-.125.469-.906.469-.172 0-.266 0-.266.203 0 .109.094.109.266.109h3.562c1.579 0 2.75-1.172 2.75-2.156 0-.719-.578-1.297-1.546-1.406 1.03-.188 2.078-.922 2.078-1.875 0-.735-.657-1.375-1.844-1.375h-3.36c-.187 0-.28 0-.28.203 0 .109.093.109.28.109.016 0 .204 0 .376.016.171.03.265.03.265.172 0 .03-.015.062-.031.187zm1.5-2.875.625-2.469c.094-.344.11-.375.531-.375h1.297c.875 0 1.078.594 1.078 1.031 0 .875-.859 1.813-2.062 1.813zm-.437 3.344h-.22c-.108-.016-.14-.032-.14-.11 0-.031 0-.047.063-.219l.687-2.78h1.875c.953 0 1.157.733 1.157 1.155 0 .985-.891 1.954-2.079 1.954Zm0 0"/><path fill="none" stroke="#000" stroke-miterlimit="10" stroke-width=".399" d="M212.742 129.738a7.088 7.088 0 1 0-14.175.005 7.088 7.088 0 0 0 14.175-.005Zm0 0"/><path d="M203.7 132.003c-.391.657-.782.797-1.22.829-.124.015-.218.015-.218.203 0 .062.063.109.14.109.266 0 .579-.031.845-.031.343 0 .687.031 1 .031.062 0 .187 0 .187-.188 0-.109-.078-.124-.156-.124-.219-.016-.469-.094-.469-.344 0-.125.063-.235.14-.375l.766-1.266h2.5c.016.203.157 1.563.157 1.656 0 .297-.516.329-.72.329-.14 0-.234 0-.234.203 0 .109.11.109.141.109.406 0 .828-.031 1.234-.031.25 0 .891.031 1.141.031.047 0 .172 0 .172-.203 0-.11-.094-.11-.234-.11-.61 0-.61-.062-.641-.359l-.61-6.219c-.015-.203-.015-.25-.187-.25-.156 0-.203.079-.266.172zm1.203-1.468 1.953-3.297.328 3.297Zm0 0"/><path fill="none" stroke="#000" stroke-linecap="round" stroke-miterlimit="10" stroke-width=".399" d="m175.164 109.555-13.621 13.625"/><path d="m160.133 124.59 3.383-1.13-1.973-.28-.285-1.973"/><path fill="none" stroke="#000" stroke-linecap="round" stroke-miterlimit="10" stroke-width=".399" d="m185.469 109.555 13.625 13.625"/><path d="m200.504 124.59-1.129-3.383-.281 1.973-1.973.28"/><path fill="none" stroke="#000" stroke-miterlimit="10" stroke-width=".399" d="M271.238 104.402a7.085 7.085 0 0 0-7.086-7.086 7.085 7.085 0 0 0-7.086 7.086 7.085 7.085 0 0 0 7.086 7.086 7.085 7.085 0 0 0 7.086-7.086Zm0 0"/><path d="M267.815 100.885c0-.031-.016-.11-.11-.11-.031 0-.047.016-.156.126l-.688.765c-.093-.14-.546-.89-1.656-.89-2.234 0-4.469 2.203-4.469 4.515 0 1.641 1.172 2.735 2.704 2.735.859 0 1.625-.39 2.156-.86.922-.812 1.094-1.718 1.094-1.75 0-.109-.11-.109-.125-.109-.063 0-.11.031-.125.11-.094.28-.329 1-1.016 1.578-.688.546-1.313.718-1.828.718-.89 0-1.953-.515-1.953-2.062 0-.578.203-2.188 1.203-3.36.61-.703 1.547-1.203 2.437-1.203 1.016 0 1.61.766 1.61 1.922 0 .406-.032.406-.032.516 0 .094.11.094.141.094.125 0 .125-.016.188-.204zm0 0"/><path fill="none" stroke="#000" stroke-miterlimit="10" stroke-width=".399" d="M245.902 129.738a7.085 7.085 0 0 0-7.086-7.086 7.088 7.088 0 0 0 0 14.176 7.088 7.088 0 0 0 7.086-7.09Zm0 0"/><path d="M236.862 132.003c-.391.657-.782.797-1.22.829-.124.015-.218.015-.218.203 0 .062.063.109.14.109.266 0 .579-.031.845-.031.343 0 .687.031 1 .031.062 0 .187 0 .187-.188 0-.109-.078-.124-.156-.124-.219-.016-.469-.094-.469-.344 0-.125.063-.235.14-.375l.766-1.266h2.5c.016.203.157 1.563.157 1.656 0 .297-.516.329-.72.329-.14 0-.234 0-.234.203 0 .109.11.109.141.109.406 0 .828-.031 1.234-.031.25 0 .891.031 1.141.031.047 0 .172 0 .172-.203 0-.11-.094-.11-.234-.11-.61 0-.61-.062-.641-.359l-.61-6.219c-.015-.203-.015-.25-.187-.25-.156 0-.203.079-.266.172zm1.203-1.468 1.953-3.297.328 3.297Zm0 0"/><path fill="none" stroke="#000" stroke-miterlimit="10" stroke-width=".399" d="M296.578 129.738a7.088 7.088 0 1 0-14.175.005 7.088 7.088 0 0 0 14.175-.005Zm0 0"/><path d="M287.056 132.363c-.094.39-.125.469-.906.469-.172 0-.266 0-.266.203 0 .109.094.109.266.109h3.562c1.579 0 2.75-1.172 2.75-2.156 0-.719-.578-1.297-1.546-1.406 1.03-.188 2.078-.922 2.078-1.875 0-.735-.657-1.375-1.844-1.375h-3.36c-.187 0-.28 0-.28.203 0 .109.093.109.28.109.016 0 .204 0 .376.016.171.03.265.03.265.172 0 .03-.015.062-.031.187zm1.5-2.875.625-2.469c.094-.344.11-.375.531-.375h1.297c.875 0 1.078.594 1.078 1.031 0 .875-.859 1.813-2.062 1.813zm-.437 3.344h-.22c-.108-.016-.14-.032-.14-.11 0-.031 0-.047.063-.219l.687-2.78h1.875c.953 0 1.157.733 1.157 1.155 0 .985-.891 1.954-2.079 1.954Zm0 0"/><path fill="none" stroke="#000" stroke-linecap="round" stroke-miterlimit="10" stroke-width=".399" d="m259 109.555-13.621 13.625"/><path d="m243.969 124.59 3.383-1.13-1.973-.28-.285-1.973"/><path fill="none" stroke="#000" stroke-linecap="round" stroke-miterlimit="10" stroke-width=".399" d="m269.305 109.555 13.625 13.625"/><path d="m284.34 124.59-1.13-3.383-.28 1.973-1.973.28"/><path fill="none" stroke="#000" stroke-miterlimit="10" stroke-width=".399" d="M355.074 104.402a7.085 7.085 0 0 0-7.086-7.086 7.085 7.085 0 0 0-7.086 7.086 7.085 7.085 0 0 0 7.086 7.086 7.085 7.085 0 0 0 7.086-7.086Zm0 0"/><path d="M345.554 107.026c-.094.39-.125.469-.906.469-.172 0-.266 0-.266.203 0 .109.094.109.266.109h3.562c1.579 0 2.75-1.172 2.75-2.156 0-.719-.578-1.297-1.546-1.406 1.03-.188 2.078-.922 2.078-1.876 0-.734-.657-1.374-1.844-1.374h-3.36c-.187 0-.28 0-.28.203 0 .109.093.109.28.109.016 0 .204 0 .376.016.171.03.265.03.265.172 0 .03-.015.062-.031.187zm1.5-2.875.625-2.469c.094-.344.11-.375.531-.375h1.297c.875 0 1.078.594 1.078 1.031 0 .875-.859 1.813-2.062 1.813zm-.437 3.344h-.22c-.108-.016-.14-.032-.14-.11 0-.031 0-.047.063-.219l.687-2.78h1.875c.953 0 1.157.734 1.157 1.155 0 .985-.891 1.954-2.079 1.954Zm0 0"/><path fill="none" stroke="#000" stroke-miterlimit="10" stroke-width=".399" d="M329.738 129.738a7.085 7.085 0 0 0-7.086-7.086 7.088 7.088 0 0 0 0 14.176 7.088 7.088 0 0 0 7.086-7.09Zm0 0"/><path d="M320.697 132.003c-.391.657-.782.797-1.22.829-.124.015-.218.015-.218.203 0 .062.063.109.14.109.266 0 .579-.031.845-.031.343 0 .687.031 1 .031.062 0 .187 0 .187-.188 0-.109-.078-.124-.156-.124-.219-.016-.469-.094-.469-.344 0-.125.063-.235.14-.375l.766-1.266h2.5c.016.203.157 1.563.157 1.656 0 .297-.516.329-.72.329-.14 0-.234 0-.234.203 0 .109.11.109.141.109.406 0 .828-.031 1.234-.031.25 0 .891.031 1.141.031.047 0 .172 0 .172-.203 0-.11-.094-.11-.234-.11-.61 0-.61-.062-.641-.359l-.61-6.219c-.015-.203-.015-.25-.187-.25-.156 0-.203.079-.266.172zm1.203-1.468 1.953-3.297.328 3.297Zm0 0"/><path fill="none" stroke="#000" stroke-miterlimit="10" stroke-width=".399" d="M380.414 129.738a7.088 7.088 0 1 0-14.177.005 7.088 7.088 0 0 0 14.177-.005Zm0 0"/><path d="M376.987 126.222c0-.031-.016-.11-.11-.11-.031 0-.047.016-.156.126l-.688.765c-.093-.14-.546-.89-1.656-.89-2.234 0-4.469 2.203-4.469 4.515 0 1.641 1.172 2.735 2.704 2.735.859 0 1.625-.39 2.156-.86.922-.812 1.094-1.718 1.094-1.75 0-.109-.11-.109-.125-.109-.063 0-.11.031-.125.11-.094.28-.329 1-1.016 1.578-.688.546-1.313.718-1.828.718-.89 0-1.953-.515-1.953-2.062 0-.578.203-2.188 1.203-3.36.61-.703 1.547-1.203 2.437-1.203 1.016 0 1.61.766 1.61 1.922 0 .406-.032.406-.032.516 0 .094.11.094.141.094.125 0 .125-.016.188-.204zm0 0"/><path fill="none" stroke="#000" stroke-linecap="round" stroke-miterlimit="10" stroke-width=".399" d="M342.836 109.555 329.21 123.18"/><path d="m327.805 124.59 3.379-1.13-1.973-.28-.281-1.973"/><path fill="none" stroke="#000" stroke-linecap="round" stroke-miterlimit="10" stroke-width=".399" d="m353.14 109.555 13.626 13.625"/><path d="m368.172 124.59-1.125-3.383-.281 1.973-1.973.28M16.664 147.52c0-.985-.656-1.813-1.484-2.016l-1.281-.297c-.625-.156-1-.687-1-1.266 0-.703.53-1.312 1.312-1.312 1.656 0 1.875 1.64 1.938 2.078.015.063.015.125.125.125.125 0 .125-.047.125-.234v-2c0-.172 0-.25-.11-.25-.062 0-.078.015-.14.14l-.36.563c-.297-.297-.703-.703-1.594-.703a1.917 1.917 0 0 0-1.937 1.937 1.94 1.94 0 0 0 1.297 1.828c.11.032.625.157 1.328.328.266.063.562.141.844.5.203.266.312.594.312.922 0 .703-.5 1.422-1.344 1.422-.28 0-1.046-.047-1.578-.531-.578-.547-.61-1.172-.61-1.531-.015-.11-.093-.11-.124-.11-.125 0-.125.078-.125.25v2c0 .172 0 .235.11.235.062 0 .077-.016.14-.125 0 0 .031-.047.36-.578.312.343.952.703 1.843.703 1.156 0 1.953-.969 1.953-2.078zm5.258-.282c0-1.265-.984-2.328-2.187-2.328-1.25 0-2.22 1.094-2.22 2.328a2.22 2.22 0 0 0 2.204 2.25c1.203 0 2.203-.984 2.203-2.25zm-.812-.078c0 .36 0 .906-.22 1.344-.233.453-.671.734-1.155.734-.438 0-.875-.203-1.141-.672-.25-.437-.25-1.046-.25-1.406 0-.39 0-.922.234-1.36a1.347 1.347 0 0 1 1.141-.671c.438 0 .86.219 1.125.656.266.422.266 1 .266 1.375zm4.73-1.578c0-.312-.312-.61-.733-.61-.735 0-1.094.673-1.22 1.094v-1.093l-1.39.11v.312c.703 0 .781.062.781.562v2.672c0 .438-.109.438-.78.438v.312l1.14-.031c.39 0 .86 0 1.265.031v-.313h-.218c-.735 0-.75-.109-.75-.468v-1.532c0-.984.422-1.875 1.172-1.875.062 0 .093 0 .109.016-.031 0-.234.125-.234.39 0 .266.218.423.437.423a.421.421 0 0 0 .422-.438zm3.594 2.563v-.563h-.25v.547c0 .734-.297 1.11-.672 1.11-.672 0-.672-.907-.672-1.079v-2.765h1.438v-.313H27.84v-1.828h-.25c0 .813-.297 1.875-1.281 1.922v.219h.844v2.75c0 1.218.937 1.343 1.296 1.343.704 0 .985-.703.985-1.343zm9.068-.922c0-1.266-.969-2.25-2.11-2.25-.78 0-1.203.468-1.359.64v-3.156l-1.437.11v.312c.703 0 .78.063.78.563v5.937h.25l.36-.625c.14.234.563.734 1.297.734 1.188 0 2.219-.984 2.219-2.265zm-.828 0c0 .36-.016.953-.297 1.406-.219.313-.594.64-1.125.64-.453 0-.813-.234-1.047-.609-.14-.203-.14-.234-.14-.422v-2.047c0-.187 0-.203.109-.359.39-.562.937-.64 1.172-.64.453 0 .812.265 1.046.64.266.406.282.969.282 1.39zm5.973-1.828v-.313c-.234.016-.516.031-.75.031l-.86-.03v.312c.313 0 .47.171.47.421 0 .11-.016.125-.063.25l-1.016 2.438-1.094-2.672c-.046-.11-.062-.14-.062-.187 0-.25.36-.25.562-.25v-.313l-1.093.031c-.266 0-.672-.015-.969-.03v.312c.484 0 .672 0 .812.343l1.5 3.641-.25.594c-.218.547-.5 1.234-1.14 1.234-.047 0-.281 0-.469-.187.313-.032.39-.25.39-.422 0-.25-.187-.407-.421-.407-.203 0-.422.125-.422.422 0 .453.422.813.922.813.625 0 1.031-.578 1.265-1.14l1.766-4.25c.25-.641.766-.641.922-.641zm-19.491 14.08c0-.985-.656-1.813-1.484-2.016l-1.281-.297c-.625-.156-1-.687-1-1.266 0-.703.53-1.312 1.312-1.312 1.656 0 1.875 1.64 1.938 2.078.015.063.015.125.125.125.125 0 .125-.047.125-.234v-2c0-.172 0-.25-.11-.25-.062 0-.078.015-.14.14l-.36.563c-.297-.297-.703-.703-1.594-.703a1.917 1.917 0 0 0-1.937 1.937 1.94 1.94 0 0 0 1.297 1.828c.11.032.625.157 1.328.328.266.063.562.141.844.5.203.266.312.594.312.922 0 .703-.5 1.422-1.344 1.422-.28 0-1.046-.047-1.578-.531-.578-.547-.61-1.172-.61-1.531-.015-.11-.093-.11-.124-.11-.125 0-.125.078-.125.25v2c0 .172 0 .235.11.235.062 0 .077-.016.14-.125 0 0 .031-.047.36-.578.312.343.952.703 1.843.703 1.156 0 1.953-.969 1.953-2.078zm3.039 1.859v-.313c-.672 0-.703-.046-.703-.437v-3.656l-1.39.11v.312c.64 0 .734.062.734.547v2.687c0 .438-.11.438-.781.438v.312l1.093-.031c.36 0 .704.015 1.047.031Zm-.562-6.016a.523.523 0 0 0-.516-.53.54.54 0 0 0-.547.53c0 .266.235.516.532.516a.513.513 0 0 0 .53-.516zm4.863 4.157h-.25c-.094 1.172-.297 1.609-1.453 1.609h-1.187l2.78-3.75c.095-.11.095-.125.095-.172 0-.125-.094-.125-.266-.125h-3.188l-.109 1.61h.25c.063-1.016.25-1.391 1.344-1.391h1.14l-2.78 3.766c-.095.109-.095.125-.095.171 0 .141.063.141.25.141h3.297zm4.564.672c0-.094-.078-.125-.14-.125-.079 0-.11.062-.125.14-.344 1.031-1.25 1.031-1.344 1.031-.5 0-.89-.297-1.125-.672-.297-.468-.297-1.124-.297-1.484h2.781c.219 0 .25 0 .25-.219 0-.984-.547-1.953-1.781-1.953-1.156 0-2.078 1.031-2.078 2.281 0 1.329 1.047 2.297 2.187 2.297 1.22 0 1.672-1.109 1.672-1.297Zm-.656-1.329h-2.375c.062-1.484.906-1.734 1.25-1.734 1.016 0 1.125 1.344 1.125 1.734zm40.375-10.284c0-.031-.016-.11-.11-.11-.031 0-.047.016-.156.126l-.688.765c-.093-.14-.546-.89-1.656-.89-2.234 0-4.469 2.203-4.469 4.515 0 1.641 1.172 2.735 2.704 2.735.859 0 1.625-.39 2.156-.86.922-.812 1.094-1.718 1.094-1.75 0-.109-.11-.109-.125-.109-.063 0-.11.031-.125.11-.094.28-.329 1-1.016 1.577-.688.547-1.313.72-1.828.72-.89 0-1.953-.516-1.953-2.063 0-.578.203-2.188 1.203-3.36.61-.703 1.547-1.203 2.437-1.203 1.016 0 1.61.766 1.61 1.922 0 .406-.032.406-.032.516 0 .093.11.093.141.093.125 0 .125-.015.188-.203zm9.746 1.953c.11-.062.188-.11.188-.219a.207.207 0 0 0-.204-.203c-.03 0-.046 0-.171.078l-5.532 2.594c-.11.063-.187.11-.187.219 0 .125.078.172.187.234l5.532 2.594c.125.078.14.078.171.078.11 0 .204-.094.204-.203 0-.11-.079-.156-.188-.219l-5.234-2.484Zm5.37 4.188c-.094.39-.125.468-.906.468-.172 0-.266 0-.266.204 0 .109.094.109.266.109h3.562c1.578 0 2.75-1.172 2.75-2.156 0-.719-.578-1.297-1.547-1.407 1.032-.187 2.078-.921 2.078-1.875 0-.734-.656-1.375-1.843-1.375h-3.36c-.187 0-.28 0-.28.204 0 .109.093.109.28.109.016 0 .203 0 .375.016.172.03.266.03.266.171 0 .032-.016.063-.031.188zm1.5-2.875.625-2.469c.094-.344.11-.375.531-.375h1.297c.875 0 1.078.594 1.078 1.031 0 .875-.86 1.813-2.062 1.813zm-.438 3.343h-.218c-.11-.015-.14-.03-.14-.109 0-.031 0-.047.062-.219l.687-2.78h1.875c.953 0 1.156.733 1.156 1.155 0 .985-.89 1.953-2.078 1.953Zm14.898-4.656c.11-.062.187-.11.187-.219a.207.207 0 0 0-.203-.203c-.03 0-.047 0-.172.078l-5.53 2.594c-.11.063-.188.11-.188.219 0 .125.078.172.187.234l5.531 2.594c.125.078.141.078.172.078.11 0 .203-.094.203-.203 0-.11-.078-.156-.187-.219l-5.234-2.484Zm5.547 3.828c-.39.657-.78.797-1.218.828-.125.016-.22.016-.22.204 0 .062.063.109.142.109.265 0 .578-.031.843-.031.344 0 .688.031 1 .031.063 0 .188 0 .188-.188 0-.109-.078-.125-.156-.125-.22-.015-.47-.093-.47-.343 0-.125.063-.235.141-.375l.766-1.266h2.5c.016.203.156 1.563.156 1.656 0 .297-.515.328-.718.328-.141 0-.235 0-.235.204 0 .109.11.109.14.109.407 0 .829-.031 1.235-.031.25 0 .89.031 1.14.031.048 0 .173 0 .173-.203 0-.11-.094-.11-.235-.11-.61 0-.61-.062-.64-.359l-.61-6.219c-.015-.203-.015-.25-.187-.25-.156 0-.203.078-.266.172zm1.204-1.468 1.953-3.297.328 3.297Zm40.024 1.828c-.094.39-.125.468-.906.468-.172 0-.266 0-.266.204 0 .109.094.109.266.109h3.562c1.579 0 2.75-1.172 2.75-2.156 0-.719-.578-1.297-1.546-1.407 1.03-.187 2.078-.921 2.078-1.875 0-.734-.657-1.375-1.844-1.375h-3.36c-.187 0-.28 0-.28.204 0 .109.093.109.28.109.016 0 .204 0 .376.016.171.03.265.03.265.171 0 .032-.015.063-.031.188zm1.5-2.875.625-2.469c.094-.344.11-.375.531-.375h1.297c.875 0 1.078.594 1.078 1.031 0 .875-.859 1.813-2.062 1.813zm-.437 3.343h-.22c-.108-.015-.14-.03-.14-.109 0-.031 0-.047.063-.219l.687-2.78h1.875c.953 0 1.157.733 1.157 1.155 0 .985-.891 1.953-2.079 1.953Zm14.887-4.656c.11-.062.188-.11.188-.219a.207.207 0 0 0-.203-.203c-.032 0-.047 0-.172.078l-5.532 2.594c-.109.063-.187.11-.187.219 0 .125.078.172.187.234l5.532 2.594c.125.078.14.078.172.078a.207.207 0 0 0 .203-.203c0-.11-.078-.156-.188-.219l-5.234-2.484Zm11.355-1.953c0-.031-.016-.11-.11-.11-.031 0-.047.016-.156.126l-.688.765c-.093-.14-.546-.89-1.656-.89-2.234 0-4.469 2.203-4.469 4.515 0 1.641 1.172 2.735 2.704 2.735.859 0 1.625-.39 2.156-.86.922-.812 1.094-1.718 1.094-1.75 0-.109-.11-.109-.125-.109-.063 0-.11.031-.125.11-.094.28-.329 1-1.016 1.577-.688.547-1.313.72-1.828.72-.89 0-1.953-.516-1.953-2.063 0-.578.203-2.188 1.203-3.36.61-.703 1.547-1.203 2.437-1.203 1.016 0 1.61.766 1.61 1.922 0 .406-.032.406-.032.516 0 .093.11.093.141.093.125 0 .125-.015.188-.203zm9.746 1.953c.11-.062.187-.11.187-.219a.207.207 0 0 0-.203-.203c-.03 0-.047 0-.172.078l-5.53 2.594c-.11.063-.188.11-.188.219 0 .125.078.172.187.234l5.531 2.594c.125.078.141.078.172.078.11 0 .203-.094.203-.203 0-.11-.078-.156-.187-.219l-5.234-2.484Zm5.557 3.828c-.39.657-.78.797-1.218.828-.125.016-.22.016-.22.204 0 .062.063.109.142.109.265 0 .578-.031.843-.031.344 0 .688.031 1 .031.063 0 .188 0 .188-.188 0-.109-.078-.125-.156-.125-.22-.015-.47-.093-.47-.343 0-.125.063-.235.141-.375l.766-1.266h2.5c.016.203.156 1.563.156 1.656 0 .297-.515.328-.718.328-.141 0-.235 0-.235.204 0 .109.11.109.14.109.407 0 .829-.031 1.235-.031.25 0 .89.031 1.14.031.048 0 .173 0 .173-.203 0-.11-.094-.11-.235-.11-.61 0-.61-.062-.64-.359l-.61-6.219c-.015-.203-.015-.25-.187-.25-.156 0-.203.078-.266.172zm1.204-1.468 1.953-3.297.328 3.297Zm40.211 1.468c-.391.657-.782.797-1.22.828-.124.016-.218.016-.218.204 0 .062.063.109.14.109.266 0 .579-.031.845-.031.343 0 .687.031 1 .031.062 0 .187 0 .187-.188 0-.109-.078-.125-.156-.125-.219-.015-.469-.093-.469-.343 0-.125.063-.235.14-.375l.766-1.266h2.5c.016.203.157 1.563.157 1.656 0 .297-.516.328-.72.328-.14 0-.234 0-.234.204 0 .109.11.109.141.109.406 0 .828-.031 1.234-.031.25 0 .891.031 1.141.031.047 0 .172 0 .172-.203 0-.11-.094-.11-.234-.11-.61 0-.61-.062-.641-.359l-.61-6.219c-.015-.203-.015-.25-.187-.25-.156 0-.203.078-.266.172zm1.203-1.468 1.953-3.297.328 3.297Zm13.981-2.36c.11-.062.188-.11.188-.219a.207.207 0 0 0-.203-.203c-.031 0-.047 0-.172.078l-5.531 2.594c-.11.063-.188.11-.188.219 0 .125.078.172.188.234l5.53 2.594c.126.078.142.078.173.078.11 0 .203-.094.203-.203 0-.11-.078-.156-.188-.219l-5.234-2.484Zm11.355-1.953c0-.031-.016-.11-.11-.11-.03 0-.047.016-.156.126l-.687.765c-.094-.14-.547-.89-1.657-.89-2.234 0-4.468 2.203-4.468 4.515 0 1.641 1.171 2.735 2.703 2.735.86 0 1.625-.39 2.156-.86.922-.812 1.094-1.718 1.094-1.75 0-.109-.11-.109-.125-.109-.063 0-.11.031-.125.11-.094.28-.328 1-1.016 1.577-.687.547-1.312.72-1.828.72-.89 0-1.953-.516-1.953-2.063 0-.578.203-2.188 1.203-3.36.61-.703 1.547-1.203 2.437-1.203 1.016 0 1.61.766 1.61 1.922 0 .406-.031.406-.031.516 0 .093.109.093.14.093.125 0 .125-.015.188-.203zm9.746 1.953c.11-.062.188-.11.188-.219a.207.207 0 0 0-.203-.203c-.032 0-.047 0-.172.078l-5.532 2.594c-.109.063-.187.11-.187.219 0 .125.078.172.187.234l5.532 2.594c.125.078.14.078.172.078a.207.207 0 0 0 .203-.203c0-.11-.078-.156-.188-.219l-5.234-2.484Zm5.37 4.188c-.094.39-.125.468-.906.468-.172 0-.266 0-.266.204 0 .109.094.109.266.109h3.562c1.578 0 2.75-1.172 2.75-2.156 0-.719-.578-1.297-1.547-1.407 1.032-.187 2.079-.921 2.079-1.875 0-.734-.657-1.375-1.844-1.375h-3.36c-.187 0-.28 0-.28.204 0 .109.093.109.28.109.016 0 .204 0 .375.016.172.03.266.03.266.171 0 .032-.016.063-.031.188zm1.5-2.875.625-2.469c.094-.344.11-.375.531-.375h1.297c.875 0 1.078.594 1.078 1.031 0 .875-.86 1.813-2.062 1.813zm-.437 3.343h-.22c-.109-.015-.14-.03-.14-.109 0-.031 0-.047.063-.219l.687-2.78h1.875c.953 0 1.156.733 1.156 1.155 0 .985-.89 1.953-2.078 1.953Zm41.118-.828c-.39.657-.782.797-1.22.828-.124.016-.218.016-.218.204 0 .062.063.109.14.109.266 0 .579-.031.845-.031.343 0 .687.031 1 .031.062 0 .187 0 .187-.188 0-.109-.078-.125-.156-.125-.219-.015-.469-.093-.469-.343 0-.125.063-.235.14-.375l.766-1.266h2.5c.016.203.157 1.563.157 1.656 0 .297-.516.328-.72.328-.14 0-.234 0-.234.204 0 .109.11.109.141.109.406 0 .828-.031 1.234-.031.25 0 .891.031 1.141.031.047 0 .172 0 .172-.203 0-.11-.094-.11-.234-.11-.61 0-.61-.062-.641-.359l-.61-6.219c-.015-.203-.015-.25-.187-.25-.156 0-.203.078-.266.172zm1.203-1.468 1.953-3.297.328 3.297Zm13.981-2.36c.11-.062.188-.11.188-.219a.207.207 0 0 0-.203-.203c-.031 0-.047 0-.172.078l-5.531 2.594c-.11.063-.188.11-.188.219 0 .125.078.172.188.234l5.53 2.594c.126.078.142.078.173.078.11 0 .203-.094.203-.203 0-.11-.078-.156-.188-.219l-5.234-2.484Zm5.37 4.188c-.093.39-.125.468-.906.468-.172 0-.266 0-.266.204 0 .109.094.109.266.109h3.563c1.578 0 2.75-1.172 2.75-2.156 0-.719-.579-1.297-1.547-1.407 1.03-.187 2.078-.921 2.078-1.875 0-.734-.656-1.375-1.844-1.375h-3.36c-.187 0-.28 0-.28.204 0 .109.093.109.28.109.016 0 .204 0 .376.016.172.03.265.03.265.171 0 .032-.015.063-.031.188zm1.5-2.875.625-2.469c.094-.344.11-.375.532-.375h1.296c.875 0 1.079.594 1.079 1.031 0 .875-.86 1.813-2.063 1.813zm-.437 3.343h-.219c-.11-.015-.14-.03-.14-.109 0-.031 0-.047.062-.219l.687-2.78h1.875c.954 0 1.157.733 1.157 1.155 0 .985-.891 1.953-2.078 1.953Zm14.897-4.656c.11-.062.188-.11.188-.219a.207.207 0 0 0-.203-.203c-.032 0-.047 0-.172.078l-5.531 2.594c-.11.063-.188.11-.188.219 0 .125.078.172.188.234l5.53 2.594c.126.078.141.078.173.078a.207.207 0 0 0 .203-.203c0-.11-.078-.156-.188-.219l-5.234-2.484Zm11.355-1.953c0-.031-.016-.11-.11-.11-.031 0-.047.016-.156.126l-.688.765c-.093-.14-.546-.89-1.656-.89-2.234 0-4.469 2.203-4.469 4.515 0 1.641 1.172 2.735 2.704 2.735.859 0 1.625-.39 2.156-.86.922-.812 1.094-1.718 1.094-1.75 0-.109-.11-.109-.125-.109-.063 0-.11.031-.125.11-.094.28-.329 1-1.016 1.577-.688.547-1.313.72-1.828.72-.89 0-1.953-.516-1.953-2.063 0-.578.203-2.188 1.203-3.36.61-.703 1.547-1.203 2.437-1.203 1.016 0 1.61.766 1.61 1.922 0 .406-.032.406-.032.516 0 .093.11.093.141.093.125 0 .125-.015.188-.203zm0 0"/><path fill="none" stroke="#000" stroke-miterlimit="10" stroke-width=".797" d="M4.285 6.07h46.961m0 0h83.836m0 0h83.836m0 0h83.836m0 0h83.836"/><path fill="none" stroke="#000" stroke-miterlimit="10" stroke-width=".498" d="M4.285 25.645h46.961m0 0h83.836m0 0h83.836m0 0h83.836m0 0h83.836"/><path fill="none" stroke="#000" stroke-miterlimit="10" stroke-width=".797" d="M4.285 167.313h46.961m0 0h83.836m0 0h83.836m0 0h83.836m0 0h83.836"/></svg>