<svg xmlns="http://www.w3.org/2000/svg" width="408.067" height="265.293" viewBox="0 0 306.05 198.97"><path fill="none" stroke="#000" stroke-miterlimit="10" stroke-width=".399" d="M5.867 39.438H27.13V18.18H5.867Zm21.66 0h21.258V18.18H27.527Zm21.657 0h21.261V18.18H49.184Zm21.66 0h21.261V18.18H70.844Zm21.66 0h21.258V18.18H92.504Zm21.656 0h21.262V18.18H114.16Zm0 0"/><path d="M18.273 11.746c0-.844-.079-1.36-.344-1.875-.344-.703-1-.875-1.438-.875-1 0-1.375.75-1.484.969-.281.578-.297 1.375-.297 1.781 0 .531.016 1.328.406 1.969.36.594.953.75 1.375.75.391 0 1.063-.125 1.47-.906.296-.579.312-1.297.312-1.813zm-.704-.094c0 .47 0 1.188-.093 1.641-.172.828-.719.938-.985.938-.265 0-.812-.126-.984-.954-.094-.453-.094-1.203-.094-1.625 0-.546 0-1.109.094-1.546.172-.813.781-.891.984-.891.266 0 .828.14.985.86.093.437.093 1.046.093 1.577zm22.034 2.808v-.266h-.28c-.75 0-.782-.093-.782-.39V9.382c0-.219-.016-.219-.234-.219-.329.313-.75.5-1.5.5v.266c.218 0 .64 0 1.109-.203v4.078c0 .297-.031.39-.781.39h-.282v.266c.329-.031 1.016-.031 1.375-.031.36 0 1.047 0 1.375.031zm21.893-1.422h-.25c-.016.156-.078.547-.172.703-.047.063-.656.063-.781.063H58.87l1.078-.969a9.23 9.23 0 0 1 .594-.5c.484-.453.953-.89.953-1.61 0-.952-.797-1.562-1.781-1.562-.97 0-1.594.719-1.594 1.438 0 .39.312.437.422.437.172 0 .422-.11.422-.422 0-.406-.407-.406-.5-.406.234-.594.765-.781 1.156-.781.734 0 1.125.625 1.125 1.297 0 .828-.578 1.437-1.531 2.39l-1 1.047c-.094.078-.094.094-.094.297h3.14Zm21.737-.104c0-.672-.531-1.266-1.344-1.454.625-.218 1.11-.75 1.11-1.39 0-.64-.72-1.094-1.547-1.094-.86 0-1.5.453-1.5 1.063 0 .296.187.421.406.421.25 0 .406-.171.406-.406 0-.297-.265-.406-.437-.406.344-.438.953-.469 1.094-.469.203 0 .812.063.812.89 0 .548-.234.891-.344 1.016-.234.25-.422.266-.906.297-.156 0-.219.016-.219.125 0 .11.078.11.219.11h.39c.626 0 1.032.453 1.032 1.297 0 1-.563 1.28-.984 1.28-.438 0-1.047-.155-1.329-.577.297 0 .5-.188.5-.438 0-.265-.187-.437-.453-.437-.203 0-.437.125-.437.453 0 .75.812 1.25 1.734 1.25 1.047 0 1.797-.735 1.797-1.531Zm21.767.214v-.25h-.843V9.304c0-.156 0-.219-.172-.219-.094 0-.11 0-.188.11l-2.547 3.703v.25h2.25v.671c0 .297-.015.375-.64.375h-.172v.266l1.14-.031 1.141.031v-.266h-.172c-.625 0-.64-.078-.64-.375v-.671Zm-1.437-.25h-2.031l2.03-2.954zm22.909-.198c0-.923-.672-1.75-1.61-1.75-.39 0-.765.124-1.078.405V9.81c.11.03.422.125.766.125 1 0 1.594-.704 1.594-.829 0-.093-.047-.109-.094-.109 0 0-.031 0-.094.031a2.982 2.982 0 0 1-1.11.22c-.468 0-.859-.11-1.109-.22-.078-.03-.109-.03-.109-.03-.094 0-.094.077-.094.233v2.329c0 .14 0 .234.125.234.063 0 .078-.031.125-.094.094-.11.391-.515 1.078-.515.438 0 .657.359.735.515.125.281.14.656.14.953 0 .297 0 .735-.218 1.079-.157.25-.485.484-.907.484a1.271 1.271 0 0 1-1.203-.844c.016.016.078.016.078.016.22 0 .407-.14.407-.39a.388.388 0 0 0-.39-.407c-.157 0-.407.078-.407.422 0 .718.625 1.453 1.531 1.453 1 0 1.844-.781 1.844-1.766zM18.476 30.017c0-1.188-.813-2.188-1.89-2.188-.47 0-.907.157-1.267.516v-1.953c.204.062.532.125.844.125 1.235 0 1.938-.906 1.938-1.031 0-.063-.032-.11-.11-.11 0 0-.03 0-.078.032a3.22 3.22 0 0 1-1.36.296c-.39 0-.859-.078-1.327-.28-.078-.032-.11-.032-.11-.032-.109 0-.109.078-.109.234v2.953c0 .172 0 .25.14.25.079 0 .094-.015.141-.078.11-.156.469-.703 1.281-.703.516 0 .766.453.844.64.156.376.188.75.188 1.25 0 .36 0 .954-.25 1.376-.235.39-.61.64-1.063.64-.719 0-1.297-.53-1.469-1.109.032 0 .063.016.172.016.328 0 .5-.25.5-.485 0-.25-.172-.5-.5-.5-.14 0-.484.078-.484.532 0 .859.688 1.828 1.797 1.828 1.156 0 2.172-.953 2.172-2.219Zm18.871 2v-.313h-.313c-.906 0-.922-.109-.922-.468v-5.594c0-.25 0-.266-.234-.266-.625.641-1.5.641-1.812.641v.312c.203 0 .78 0 1.296-.265v5.172c0 .36-.03.468-.921.468h-.313v.313c.344-.031 1.203-.031 1.61-.031.39 0 1.265 0 1.609.031zm5.372-1.703c0-.813-.64-1.594-1.672-1.813.812-.265 1.39-.953 1.39-1.75 0-.812-.874-1.375-1.828-1.375-1 0-1.765.594-1.765 1.36 0 .328.219.515.515.515.297 0 .5-.218.5-.515 0-.485-.468-.485-.609-.485.297-.5.953-.625 1.313-.625.421 0 .968.22.968 1.11 0 .125-.03.703-.28 1.14-.298.485-.642.516-.892.516a3.29 3.29 0 0 1-.39.031c-.078.016-.14.031-.14.125 0 .11.062.11.234.11h.437c.813 0 1.188.671 1.188 1.656 0 1.36-.688 1.64-1.125 1.64-.438 0-1.188-.171-1.532-.75.344.047.657-.171.657-.546a.537.537 0 0 0-.547-.563c-.25 0-.563.14-.563.578 0 .906.922 1.563 2.016 1.563 1.219 0 2.125-.907 2.125-1.922zm16.287 1.703v-.313h-.313c-.906 0-.921-.109-.921-.468v-5.594c0-.25 0-.266-.235-.266-.625.641-1.5.641-1.812.641v.312c.203 0 .78 0 1.297-.265v5.172c0 .36-.032.468-.922.468h-.313v.313c.344-.031 1.203-.031 1.61-.031.39 0 1.265 0 1.609.031zm5.372-3.281c0-2.688-1.156-3.36-2.047-3.36-.547 0-1.031.188-1.453.625-.422.453-.64.875-.64 1.625 0 1.235.874 2.22 1.984 2.22.609 0 1.015-.423 1.25-1v.327c0 2.328-1.032 2.781-1.61 2.781-.172 0-.719-.015-.984-.359.437 0 .515-.281.515-.453 0-.313-.234-.453-.453-.453-.156 0-.453.078-.453.469 0 .671.531 1.078 1.375 1.078 1.297 0 2.516-1.36 2.516-3.5zm-.922-.922c0 .828-.344 1.797-1.219 1.797-.156 0-.625 0-.922-.625-.187-.375-.187-.86-.187-1.36 0-.53 0-1 .219-1.375.265-.5.64-.625.984-.625.469 0 .797.344.969.782.11.328.156.953.156 1.406zm17.504 2.579h-.234c-.062.296-.125.734-.234.89-.063.078-.719.078-.938.078h-1.796l1.062-1.03c1.547-1.376 2.14-1.907 2.14-2.907 0-1.14-.89-1.938-2.109-1.938a1.843 1.843 0 0 0-1.859 1.813c0 .547.5.547.531.547.172 0 .516-.11.516-.532a.513.513 0 0 0-.531-.515c-.079 0-.094 0-.125.015.218-.656.765-1.015 1.343-1.015.907 0 1.328.812 1.328 1.625 0 .797-.484 1.578-1.046 2.203L77.1 31.752c-.109.11-.109.14-.109.375h3.703zm4.685 1.734v-.313h-.312c-.907 0-.922-.109-.922-.468v-5.594c0-.25 0-.266-.235-.266-.625.641-1.5.641-1.812.641v.312c.203 0 .781 0 1.297-.265v5.172c0 .36-.031.468-.922.468h-.313v.313c.344-.031 1.204-.031 1.61-.031.39 0 1.265 0 1.61.031zm17.069-1.763c0-.813-.641-1.594-1.672-1.813.812-.265 1.39-.953 1.39-1.75 0-.812-.875-1.375-1.828-1.375-1 0-1.765.594-1.765 1.36 0 .328.218.515.515.515.297 0 .5-.218.5-.515 0-.485-.469-.485-.61-.485.298-.5.954-.625 1.313-.625.422 0 .969.22.969 1.11 0 .125-.031.703-.281 1.14-.297.485-.64.516-.89.516a3.29 3.29 0 0 1-.391.031c-.079.016-.141.032-.141.125 0 .11.062.11.234.11h.438c.812 0 1.187.672 1.187 1.656 0 1.36-.687 1.64-1.125 1.64-.437 0-1.187-.171-1.531-.75.344.047.656-.171.656-.546a.537.537 0 0 0-.547-.563c-.25 0-.562.14-.562.578 0 .907.922 1.563 2.016 1.563 1.218 0 2.125-.906 2.125-1.922zm5.246-4.719h-2.421c-1.204 0-1.235-.125-1.266-.312h-.25l-.328 2.047h.25c.031-.157.11-.782.25-.907.062-.062.844-.062.969-.062h2.062l-1.11 1.578c-.906 1.344-1.234 2.734-1.234 3.75 0 .094 0 .547.469.547.453 0 .453-.453.453-.547v-.516c0-.547.031-1.093.11-1.625.046-.234.171-1.093.625-1.703l1.343-1.906c.078-.11.078-.125.078-.344zm16.319 4.372c0-1.188-.813-2.188-1.89-2.188-.47 0-.907.157-1.266.516v-1.953c.203.062.53.125.843.125 1.235 0 1.938-.906 1.938-1.031 0-.063-.031-.11-.11-.11 0 0-.03 0-.078.032a3.22 3.22 0 0 1-1.36.296 3.4 3.4 0 0 1-1.327-.28c-.078-.032-.11-.032-.11-.032-.109 0-.109.078-.109.234v2.953c0 .172 0 .25.14.25.079 0 .094-.015.141-.078.11-.156.469-.703 1.282-.703.515 0 .765.453.843.64.157.376.188.75.188 1.25 0 .36 0 .954-.25 1.376-.235.39-.61.64-1.063.64-.718 0-1.297-.53-1.468-1.109.03 0 .062.016.171.016.329 0 .5-.25.5-.485 0-.25-.171-.5-.5-.5-.14 0-.484.078-.484.532 0 .859.688 1.828 1.797 1.828 1.156 0 2.172-.953 2.172-2.219Zm5.075-.031c0-1.266-.89-2.219-2-2.219-.672 0-1.047.5-1.25.984v-.25c0-2.515 1.234-2.875 1.75-2.875.234 0 .656.063.875.407-.156 0-.547 0-.547.437 0 .313.234.469.453.469.156 0 .469-.094.469-.485 0-.593-.438-1.078-1.266-1.078-1.281 0-2.625 1.282-2.625 3.485 0 2.672 1.156 3.375 2.078 3.375 1.11 0 2.063-.938 2.063-2.25zm-.906-.016c0 .484 0 .984-.172 1.344-.297.594-.75.64-.985.64-.625 0-.922-.593-.984-.75-.188-.468-.188-1.265-.188-1.437 0-.781.329-1.781 1.22-1.781.171 0 .624 0 .937.625.172.36.172.875.172 1.36zm0 0"/><path fill="none" stroke="#000" stroke-linecap="round" stroke-miterlimit="10" stroke-width=".399" d="M16.496 46.727v-5.098"/><path d="m16.496 39.637-1.594 3.191 1.594-1.2 1.598 1.2"/><path fill="none" stroke="#000" stroke-miterlimit="10" stroke-width=".399" d="M5.867 89.445H27.13V68.184H5.867Zm21.66 0h21.258V68.184H27.527Zm21.657 0h21.261V68.184H49.184Zm21.66 0h21.261V68.184H70.844Zm21.66 0h21.258V68.184H92.504Zm21.656 0h21.262V68.184H114.16Zm0 0"/><path d="M18.273 61.751c0-.844-.079-1.36-.344-1.875-.344-.703-1-.875-1.438-.875-1 0-1.375.75-1.484.969-.281.578-.297 1.375-.297 1.781 0 .531.016 1.328.406 1.969.36.594.953.75 1.375.75.391 0 1.063-.125 1.47-.906.296-.579.312-1.297.312-1.813zm-.704-.094c0 .47 0 1.188-.093 1.641-.172.828-.719.937-.985.937-.265 0-.812-.125-.984-.953-.094-.453-.094-1.203-.094-1.625 0-.547 0-1.109.094-1.547.172-.812.781-.89.984-.89.266 0 .828.14.985.86.093.437.093 1.046.093 1.577zm22.034 2.808v-.266h-.28c-.75 0-.782-.093-.782-.39v-4.422c0-.219-.016-.219-.234-.219-.329.313-.75.5-1.5.5v.266c.218 0 .64 0 1.109-.203v4.078c0 .297-.031.39-.781.39h-.282v.266c.329-.031 1.016-.031 1.375-.031.36 0 1.047 0 1.375.031zm21.893-1.422h-.25c-.016.156-.078.547-.172.703-.047.063-.656.063-.781.063H58.87l1.078-.969a9.23 9.23 0 0 1 .594-.5c.484-.453.953-.89.953-1.61 0-.953-.797-1.562-1.781-1.562-.97 0-1.594.719-1.594 1.438 0 .39.312.437.422.437.172 0 .422-.11.422-.422 0-.406-.407-.406-.5-.406.234-.594.765-.781 1.156-.781.734 0 1.125.625 1.125 1.297 0 .828-.578 1.437-1.531 2.39l-1 1.047c-.094.078-.094.094-.094.297h3.14Zm21.737-.104c0-.672-.531-1.266-1.344-1.454.625-.218 1.11-.75 1.11-1.39 0-.64-.72-1.094-1.547-1.094-.86 0-1.5.453-1.5 1.063 0 .296.187.421.406.421.25 0 .406-.171.406-.406 0-.297-.265-.406-.437-.406.344-.438.953-.469 1.094-.469.203 0 .812.063.812.89 0 .548-.234.891-.344 1.016-.234.25-.422.266-.906.297-.156 0-.219.016-.219.125 0 .11.078.11.219.11h.39c.626 0 1.032.453 1.032 1.297 0 1-.563 1.28-.984 1.28-.438 0-1.047-.155-1.329-.577.297 0 .5-.188.5-.438 0-.265-.187-.437-.453-.437-.203 0-.437.125-.437.453 0 .75.812 1.25 1.734 1.25 1.047 0 1.797-.735 1.797-1.531Zm21.767.213v-.25h-.843V59.31c0-.157 0-.219-.172-.219-.094 0-.11 0-.188.11l-2.547 3.702v.25h2.25v.672c0 .297-.015.375-.64.375h-.172v.266l1.14-.031 1.141.031V64.2h-.172c-.625 0-.64-.078-.64-.375v-.672Zm-1.437-.25h-2.031l2.03-2.953zm22.909-.198c0-.922-.672-1.75-1.61-1.75-.39 0-.765.125-1.078.406v-1.546c.11.03.422.125.766.125 1 0 1.594-.704 1.594-.829 0-.093-.047-.109-.094-.109 0 0-.031 0-.094.031a2.982 2.982 0 0 1-1.11.22c-.468 0-.859-.11-1.109-.22-.078-.03-.109-.03-.109-.03-.094 0-.094.077-.094.233v2.329c0 .14 0 .234.125.234.063 0 .078-.031.125-.094.094-.11.391-.515 1.078-.515.438 0 .657.359.735.515.125.281.14.656.14.953 0 .297 0 .735-.218 1.078a1.08 1.08 0 0 1-.907.485 1.271 1.271 0 0 1-1.203-.844c.016.016.078.016.078.016.22 0 .407-.14.407-.39a.388.388 0 0 0-.39-.407c-.157 0-.407.078-.407.422 0 .718.625 1.453 1.531 1.453 1 0 1.844-.781 1.844-1.766zM18.476 80.022c0-1.187-.813-2.187-1.89-2.187-.47 0-.907.156-1.267.515v-1.953c.204.063.532.125.844.125 1.235 0 1.938-.906 1.938-1.031 0-.063-.032-.11-.11-.11 0 0-.03 0-.078.032a3.22 3.22 0 0 1-1.36.297c-.39 0-.859-.079-1.327-.282-.078-.031-.11-.031-.11-.031-.109 0-.109.078-.109.234v2.954c0 .171 0 .25.14.25.079 0 .094-.016.141-.079.11-.156.469-.703 1.281-.703.516 0 .766.453.844.64.156.376.188.75.188 1.25 0 .36 0 .954-.25 1.376-.235.39-.61.64-1.063.64-.719 0-1.297-.53-1.469-1.109.032 0 .063.016.172.016.328 0 .5-.25.5-.485 0-.25-.172-.5-.5-.5-.14 0-.484.079-.484.532 0 .859.688 1.828 1.797 1.828 1.156 0 2.172-.953 2.172-2.219Zm18.871 2v-.312h-.313c-.906 0-.922-.11-.922-.47v-5.593c0-.25 0-.266-.234-.266-.625.641-1.5.641-1.812.641v.313c.203 0 .78 0 1.296-.266v5.172c0 .36-.03.469-.921.469h-.313v.312c.344-.031 1.203-.031 1.61-.031.39 0 1.265 0 1.609.031zm5.372-1.703c0-.813-.64-1.594-1.672-1.813.812-.265 1.39-.953 1.39-1.75 0-.812-.874-1.375-1.828-1.375-1 0-1.765.594-1.765 1.36 0 .328.219.515.515.515.297 0 .5-.218.5-.515 0-.485-.468-.485-.609-.485.297-.5.953-.625 1.313-.625.421 0 .968.22.968 1.11 0 .125-.03.703-.28 1.14-.298.485-.642.516-.892.516a3.29 3.29 0 0 1-.39.031c-.078.016-.14.032-.14.125 0 .11.062.11.234.11h.437c.813 0 1.188.672 1.188 1.656 0 1.36-.688 1.64-1.125 1.64-.438 0-1.188-.171-1.532-.75.344.047.657-.171.657-.546a.537.537 0 0 0-.547-.563c-.25 0-.563.14-.563.578 0 .907.922 1.563 2.016 1.563 1.219 0 2.125-.906 2.125-1.922zm16.287 1.703v-.312h-.313c-.906 0-.921-.11-.921-.47v-5.593c0-.25 0-.266-.235-.266-.625.641-1.5.641-1.812.641v.313c.203 0 .78 0 1.297-.266v5.172c0 .36-.032.469-.922.469h-.313v.312c.344-.031 1.203-.031 1.61-.031.39 0 1.265 0 1.609.031zm5.372-3.282c0-2.687-1.156-3.359-2.047-3.359-.547 0-1.031.188-1.453.625-.422.454-.64.875-.64 1.625 0 1.235.874 2.22 1.984 2.22.609 0 1.015-.423 1.25-1v.327c0 2.328-1.032 2.782-1.61 2.782-.172 0-.719-.016-.984-.36.437 0 .515-.281.515-.453 0-.312-.234-.453-.453-.453-.156 0-.453.078-.453.469 0 .672.531 1.078 1.375 1.078 1.297 0 2.516-1.36 2.516-3.5zm-.922-.921c0 .828-.344 1.797-1.219 1.797-.156 0-.625 0-.922-.625-.187-.375-.187-.86-.187-1.36 0-.53 0-1 .219-1.375.265-.5.64-.625.984-.625.469 0 .797.344.969.782.11.328.156.953.156 1.406zm17.504 2.579h-.234c-.062.297-.125.734-.234.89-.063.078-.719.078-.938.078h-1.796l1.062-1.03c1.547-1.376 2.14-1.907 2.14-2.907 0-1.14-.89-1.938-2.109-1.938a1.843 1.843 0 0 0-1.859 1.813c0 .547.5.547.531.547.172 0 .516-.11.516-.531a.513.513 0 0 0-.531-.516c-.079 0-.094 0-.125.016.218-.657.765-1.016 1.343-1.016.907 0 1.328.812 1.328 1.625 0 .797-.484 1.578-1.046 2.203L77.1 81.757c-.109.11-.109.14-.109.375h3.703zm4.685 1.734v-.312h-.312c-.907 0-.922-.11-.922-.47v-5.593c0-.25 0-.266-.235-.266-.625.641-1.5.641-1.812.641v.313c.203 0 .781 0 1.297-.266v5.172c0 .36-.031.469-.922.469h-.313v.312c.344-.031 1.204-.031 1.61-.031.39 0 1.265 0 1.61.031zm17.069-1.763c0-.813-.641-1.594-1.672-1.813.812-.265 1.39-.953 1.39-1.75 0-.812-.875-1.375-1.828-1.375-1 0-1.765.594-1.765 1.36 0 .328.218.515.515.515.297 0 .5-.218.5-.515 0-.485-.469-.485-.61-.485.298-.5.954-.625 1.313-.625.422 0 .969.22.969 1.11 0 .125-.031.703-.281 1.14-.297.485-.64.516-.89.516a3.29 3.29 0 0 1-.391.031c-.079.016-.141.031-.141.125 0 .11.062.11.234.11h.438c.812 0 1.187.671 1.187 1.656 0 1.36-.687 1.64-1.125 1.64-.437 0-1.187-.171-1.531-.75.344.047.656-.171.656-.546a.537.537 0 0 0-.547-.563c-.25 0-.562.14-.562.578 0 .906.922 1.563 2.016 1.563 1.218 0 2.125-.907 2.125-1.922zm5.246-4.719h-2.421c-1.204 0-1.235-.125-1.266-.312h-.25l-.328 2.046h.25c.031-.156.11-.78.25-.906.062-.062.844-.062.969-.062h2.062l-1.11 1.578c-.906 1.344-1.234 2.734-1.234 3.75 0 .094 0 .547.469.547.453 0 .453-.453.453-.547v-.516c0-.547.031-1.094.11-1.625.046-.234.171-1.094.625-1.703l1.343-1.906c.078-.11.078-.125.078-.344zm16.319 4.372c0-1.187-.813-2.187-1.89-2.187-.47 0-.907.156-1.266.515v-1.953c.203.063.53.125.843.125 1.235 0 1.938-.906 1.938-1.031 0-.063-.031-.11-.11-.11 0 0-.03 0-.078.032a3.22 3.22 0 0 1-1.36.297c-.39 0-.858-.079-1.327-.282-.078-.031-.11-.031-.11-.031-.109 0-.109.078-.109.234v2.954c0 .171 0 .25.14.25.079 0 .094-.016.141-.079.11-.156.469-.703 1.282-.703.515 0 .765.453.843.64.157.376.188.75.188 1.25 0 .36 0 .954-.25 1.376-.235.39-.61.64-1.063.64-.718 0-1.297-.53-1.468-1.109.03 0 .062.016.171.016.329 0 .5-.25.5-.485 0-.25-.171-.5-.5-.5-.14 0-.484.079-.484.532 0 .859.688 1.828 1.797 1.828 1.156 0 2.172-.953 2.172-2.219Zm5.075-.032c0-1.265-.89-2.218-2-2.218-.672 0-1.047.5-1.25.984v-.25c0-2.515 1.234-2.875 1.75-2.875.234 0 .656.063.875.407-.156 0-.547 0-.547.437 0 .313.234.469.453.469.156 0 .469-.094.469-.484 0-.594-.438-1.079-1.266-1.079-1.281 0-2.625 1.282-2.625 3.485 0 2.672 1.156 3.375 2.078 3.375 1.11 0 2.063-.938 2.063-2.25zm-.906-.015c0 .485 0 .985-.172 1.344-.297.594-.75.64-.985.64-.625 0-.922-.593-.984-.75-.188-.468-.188-1.265-.188-1.437 0-.781.329-1.781 1.22-1.781.171 0 .624 0 .937.625.172.36.172.875.172 1.36zm0 0"/><path fill="none" stroke="#000" stroke-linecap="round" stroke-miterlimit="10" stroke-width=".399" d="M38.156 96.73v-5.093"/><path d="m38.156 89.645-1.593 3.187 1.593-1.195 1.594 1.195m31.416 10.495a.534.534 0 0 0-.515-.531.537.537 0 0 0-.532.53.524.524 0 1 0 1.047 0Zm0 3.985a.534.534 0 0 0-.515-.531.537.537 0 0 0-.532.53.524.524 0 1 0 1.047 0Zm0 3.985a.534.534 0 0 0-.515-.531.537.537 0 0 0-.532.53.524.524 0 1 0 1.047 0Zm0 0"/><path fill="none" stroke="#000" stroke-miterlimit="10" stroke-width=".399" d="M5.867 153.625H27.13v-21.262H5.867Zm21.66 0h21.258v-21.262H27.527Zm21.657 0h21.261v-21.262H49.184Zm21.66 0h21.261v-21.262H70.844Zm21.66 0h21.258v-21.262H92.504Zm21.656 0h21.262v-21.262H114.16Zm0 0"/><path d="M18.273 125.93c0-.844-.079-1.36-.344-1.875-.344-.703-1-.875-1.438-.875-1 0-1.375.75-1.484.969-.281.578-.297 1.375-.297 1.781 0 .531.016 1.328.406 1.969.36.594.953.75 1.375.75.391 0 1.063-.125 1.47-.906.296-.578.312-1.297.312-1.813zm-.704-.094c0 .47 0 1.188-.093 1.641-.172.828-.719.938-.985.938-.265 0-.812-.125-.984-.954-.094-.453-.094-1.203-.094-1.625 0-.546 0-1.109.094-1.546.172-.813.781-.891.984-.891.266 0 .828.14.985.86.093.437.093 1.046.093 1.577zm22.034 2.808v-.266h-.28c-.75 0-.782-.093-.782-.39v-4.422c0-.219-.016-.219-.234-.219-.329.313-.75.5-1.5.5v.266c.218 0 .64 0 1.109-.203v4.078c0 .297-.031.39-.781.39h-.282v.266c.329-.031 1.016-.031 1.375-.031.36 0 1.047 0 1.375.031zm21.893-1.422h-.25c-.016.156-.078.547-.172.703-.047.063-.656.063-.781.063H58.87l1.078-.969a9.23 9.23 0 0 1 .594-.5c.484-.453.953-.89.953-1.61 0-.953-.797-1.562-1.781-1.562-.97 0-1.594.719-1.594 1.438 0 .39.312.437.422.437.172 0 .422-.11.422-.422 0-.406-.407-.406-.5-.406.234-.594.765-.781 1.156-.781.734 0 1.125.625 1.125 1.297 0 .828-.578 1.437-1.531 2.39l-1 1.047c-.094.078-.094.094-.094.297h3.14Zm21.737-.104c0-.672-.531-1.266-1.344-1.453.625-.22 1.11-.75 1.11-1.391 0-.64-.72-1.094-1.547-1.094-.86 0-1.5.453-1.5 1.063 0 .297.187.422.406.422.25 0 .406-.172.406-.407 0-.297-.265-.406-.437-.406.344-.437.953-.469 1.094-.469.203 0 .812.063.812.89 0 .548-.234.892-.344 1.017-.234.25-.422.265-.906.296-.156 0-.219.016-.219.125 0 .11.078.11.219.11h.39c.626 0 1.032.453 1.032 1.297 0 1-.563 1.28-.984 1.28-.438 0-1.047-.155-1.329-.577.297 0 .5-.188.5-.438 0-.265-.187-.437-.453-.437-.203 0-.437.125-.437.453 0 .75.812 1.25 1.734 1.25 1.047 0 1.797-.734 1.797-1.531Zm21.767.214v-.25h-.843v-3.594c0-.156 0-.219-.172-.219-.094 0-.11 0-.188.11l-2.547 3.703v.25h2.25v.671c0 .297-.015.375-.64.375h-.172v.266l1.14-.031 1.141.031v-.266h-.172c-.625 0-.64-.078-.64-.375v-.671Zm-1.437-.25h-2.031l2.03-2.954zm22.909-.199c0-.922-.672-1.75-1.61-1.75-.39 0-.765.125-1.078.407v-1.547c.11.03.422.125.766.125 1 0 1.594-.703 1.594-.828 0-.094-.047-.11-.094-.11 0 0-.031 0-.094.031a2.982 2.982 0 0 1-1.11.22c-.468 0-.859-.11-1.109-.22-.078-.03-.109-.03-.109-.03-.094 0-.094.077-.094.234v2.328c0 .14 0 .234.125.234.063 0 .078-.031.125-.094.094-.11.391-.515 1.078-.515.438 0 .657.359.735.515.125.282.14.657.14.953 0 .297 0 .735-.218 1.079-.157.25-.485.484-.907.484a1.271 1.271 0 0 1-1.203-.844c.016.016.078.016.078.016.22 0 .407-.14.407-.39a.388.388 0 0 0-.39-.407c-.157 0-.407.078-.407.422 0 .719.625 1.453 1.531 1.453 1 0 1.844-.781 1.844-1.766zM18.476 144.201c0-1.188-.813-2.188-1.89-2.188-.47 0-.907.157-1.267.516v-1.953c.204.063.532.125.844.125 1.235 0 1.938-.906 1.938-1.031 0-.063-.032-.11-.11-.11 0 0-.03 0-.078.032a3.22 3.22 0 0 1-1.36.296c-.39 0-.859-.078-1.327-.28-.078-.032-.11-.032-.11-.032-.109 0-.109.078-.109.234v2.953c0 .172 0 .25.14.25.079 0 .094-.015.141-.078.11-.156.469-.703 1.281-.703.516 0 .766.453.844.64.156.376.188.75.188 1.25 0 .36 0 .954-.25 1.376-.235.39-.61.64-1.063.64-.719 0-1.297-.53-1.469-1.109.032 0 .063.016.172.016.328 0 .5-.25.5-.485 0-.25-.172-.5-.5-.5-.14 0-.484.078-.484.532 0 .859.688 1.828 1.797 1.828 1.156 0 2.172-.953 2.172-2.219Zm18.871 2v-.313h-.313c-.906 0-.922-.109-.922-.468v-5.594c0-.25 0-.266-.234-.266-.625.641-1.5.641-1.812.641v.313c.203 0 .78 0 1.296-.266v5.172c0 .36-.03.469-.921.469h-.313v.312c.344-.031 1.203-.031 1.61-.031.39 0 1.265 0 1.609.031zm5.372-1.703c0-.813-.64-1.594-1.672-1.813.812-.265 1.39-.953 1.39-1.75 0-.812-.874-1.375-1.828-1.375-1 0-1.765.594-1.765 1.36 0 .328.219.515.515.515.297 0 .5-.218.5-.515 0-.485-.468-.485-.609-.485.297-.5.953-.625 1.313-.625.421 0 .968.22.968 1.11 0 .125-.03.703-.28 1.14-.298.485-.642.516-.892.516a3.29 3.29 0 0 1-.39.031c-.078.016-.14.031-.14.125 0 .11.062.11.234.11h.437c.813 0 1.188.671 1.188 1.656 0 1.36-.688 1.64-1.125 1.64-.438 0-1.188-.171-1.532-.75.344.047.657-.171.657-.546a.537.537 0 0 0-.547-.563c-.25 0-.563.14-.563.578 0 .906.922 1.563 2.016 1.563 1.219 0 2.125-.906 2.125-1.922zm16.287 1.703v-.313h-.313c-.906 0-.921-.109-.921-.468v-5.594c0-.25 0-.266-.235-.266-.625.641-1.5.641-1.812.641v.313c.203 0 .78 0 1.297-.266v5.172c0 .36-.032.469-.922.469h-.313v.312c.344-.031 1.203-.031 1.61-.031.39 0 1.265 0 1.609.031zm5.372-3.281c0-2.688-1.156-3.36-2.047-3.36-.547 0-1.031.188-1.453.625-.422.453-.64.875-.64 1.625 0 1.235.874 2.22 1.984 2.22.609 0 1.015-.423 1.25-1v.327c0 2.328-1.032 2.781-1.61 2.781-.172 0-.719-.015-.984-.359.437 0 .515-.281.515-.453 0-.313-.234-.453-.453-.453-.156 0-.453.078-.453.469 0 .671.531 1.078 1.375 1.078 1.297 0 2.516-1.36 2.516-3.5zm-.922-.922c0 .828-.344 1.797-1.219 1.797-.156 0-.625 0-.922-.625-.187-.375-.187-.86-.187-1.36 0-.53 0-1 .219-1.375.265-.5.64-.625.984-.625.469 0 .797.344.969.782.11.328.156.953.156 1.406zm17.504 2.579h-.234c-.062.297-.125.734-.234.89-.063.078-.719.078-.938.078h-1.796l1.062-1.03c1.547-1.376 2.14-1.907 2.14-2.907 0-1.14-.89-1.938-2.109-1.938a1.843 1.843 0 0 0-1.859 1.813c0 .547.5.547.531.547.172 0 .516-.11.516-.531a.513.513 0 0 0-.531-.516c-.079 0-.094 0-.125.016.218-.657.765-1.016 1.343-1.016.907 0 1.328.812 1.328 1.625 0 .797-.484 1.578-1.046 2.203l-1.907 2.125c-.109.11-.109.14-.109.375h3.703zm4.685 1.734v-.313h-.312c-.907 0-.922-.109-.922-.468v-5.594c0-.25 0-.266-.235-.266-.625.641-1.5.641-1.812.641v.313c.203 0 .781 0 1.297-.266v5.172c0 .36-.031.469-.922.469h-.313v.312c.344-.031 1.204-.031 1.61-.031.39 0 1.265 0 1.61.031zm17.069-1.763c0-.813-.641-1.594-1.672-1.813.812-.265 1.39-.953 1.39-1.75 0-.812-.875-1.375-1.828-1.375-1 0-1.765.594-1.765 1.36 0 .328.218.515.515.515.297 0 .5-.218.5-.515 0-.485-.469-.485-.61-.485.298-.5.954-.625 1.313-.625.422 0 .969.22.969 1.11 0 .125-.031.703-.281 1.14-.297.485-.64.516-.89.516a3.29 3.29 0 0 1-.391.031c-.079.016-.141.032-.141.125 0 .11.062.11.234.11h.438c.812 0 1.187.672 1.187 1.656 0 1.36-.687 1.64-1.125 1.64-.437 0-1.187-.171-1.531-.75.344.047.656-.171.656-.546a.537.537 0 0 0-.547-.563c-.25 0-.562.14-.562.578 0 .907.922 1.563 2.016 1.563 1.218 0 2.125-.906 2.125-1.922zm5.246-4.718h-2.421c-1.204 0-1.235-.126-1.266-.313h-.25l-.328 2.047h.25c.031-.157.11-.782.25-.907.062-.062.844-.062.969-.062h2.062l-1.11 1.578c-.906 1.344-1.234 2.734-1.234 3.75 0 .094 0 .547.469.547.453 0 .453-.453.453-.547v-.516c0-.547.031-1.093.11-1.625.046-.234.171-1.093.625-1.703l1.343-1.906c.078-.11.078-.125.078-.344zm16.319 4.371c0-1.188-.813-2.188-1.89-2.188-.47 0-.907.157-1.266.516v-1.953c.203.063.53.125.843.125 1.235 0 1.938-.906 1.938-1.031 0-.063-.031-.11-.11-.11 0 0-.03 0-.078.032a3.22 3.22 0 0 1-1.36.296 3.4 3.4 0 0 1-1.327-.28c-.078-.032-.11-.032-.11-.032-.109 0-.109.078-.109.234v2.953c0 .172 0 .25.14.25.079 0 .094-.015.141-.078.11-.156.469-.703 1.282-.703.515 0 .765.453.843.64.157.376.188.75.188 1.25 0 .36 0 .954-.25 1.376-.235.39-.61.64-1.063.64-.718 0-1.297-.53-1.468-1.109.03 0 .062.016.171.016.329 0 .5-.25.5-.485 0-.25-.171-.5-.5-.5-.14 0-.484.078-.484.532 0 .859.688 1.828 1.797 1.828 1.156 0 2.172-.953 2.172-2.219Zm5.075-.031c0-1.266-.89-2.219-2-2.219-.672 0-1.047.5-1.25.984v-.25c0-2.515 1.234-2.875 1.75-2.875.234 0 .656.063.875.407-.156 0-.547 0-.547.437 0 .313.234.469.453.469.156 0 .469-.094.469-.484 0-.594-.438-1.079-1.266-1.079-1.281 0-2.625 1.282-2.625 3.485 0 2.672 1.156 3.375 2.078 3.375 1.11 0 2.063-.938 2.063-2.25zm-.906-.016c0 .484 0 .984-.172 1.344-.297.594-.75.64-.985.64-.625 0-.922-.593-.984-.75-.188-.468-.188-1.265-.188-1.437 0-.781.329-1.781 1.22-1.781.171 0 .624 0 .937.625.172.36.172.875.172 1.36zm0 0"/><path fill="none" stroke="#000" stroke-linecap="round" stroke-miterlimit="10" stroke-width=".399" d="M124.79 160.91v-5.094"/><path d="m124.79 153.824-1.595 3.188 1.594-1.196 1.598 1.196m-94.308 28.976c0-1.094-.797-1.906-1.719-2.094l-1.437-.313c-.407-.093-.954-.421-.954-1.03 0-.438.282-1.048 1.266-1.048.797 0 1.813.329 2.047 1.688.031.25.031.266.234.266.25 0 .25-.047.25-.282v-1.828c0-.187 0-.281-.187-.281-.078 0-.078.016-.188.11l-.453.437c-.578-.453-1.234-.547-1.703-.547-1.516 0-2.234.969-2.234 2.016 0 .64.328 1.093.53 1.312.5.5.829.563 1.923.797.875.203 1.047.219 1.265.437.141.141.391.407.391.86 0 .484-.25 1.172-1.297 1.172-.75 0-2.265-.203-2.344-1.688-.015-.172-.015-.219-.234-.219-.234 0-.234.047-.234.282v1.812c0 .188 0 .281.172.281.093 0 .109-.015.187-.093l.469-.453c.656.484 1.578.546 1.984.546 1.656 0 2.266-1.125 2.266-2.14zm5.569.859c0-.172-.188-.172-.234-.172-.172 0-.188.047-.25.203-.204.485-.782.797-1.422.797-1.407 0-1.422-1.328-1.422-1.828h3.015c.22 0 .313 0 .313-.266 0-.312-.063-1.046-.563-1.546-.359-.36-.89-.532-1.578-.532-1.593 0-2.468 1.032-2.468 2.266 0 1.344 1 2.313 2.609 2.313 1.578 0 2-1.063 2-1.235zm-.938-1.328h-2.39c.015-.39.031-.813.234-1.14.266-.391.672-.516.953-.516 1.172 0 1.188 1.312 1.203 1.656zm7.25 4.438v-.47h-.687v-5.952h-.406l-.531.78a1.851 1.851 0 0 0-1.5-.78c-1.453 0-2.485.89-2.485 2.265 0 1.406 1.016 2.281 2.391 2.281.5 0 .938-.14 1.406-.546v1.953h-.687v.469l1.25-.032zm-1.75-3.36c0 .188 0 .219-.155.422-.407.594-.907.703-1.204.703-.625 0-1.218-.578-1.218-1.906 0-1.422.734-1.89 1.328-1.89.765 0 1.25.796 1.25 1.296zm7.939 1.422v-.469c-.61 0-.688 0-.688-.39v-3.625l-1.812.078v.469c.61 0 .687 0 .687.39v1.906c0 .813-.515 1.344-1.234 1.344-.781 0-.813-.25-.813-.797v-3.39l-1.812.078v.469c.61 0 .687 0 .687.39v2.328c0 1.063.797 1.281 1.797 1.281.25 0 .969 0 1.422-.78v.78Zm5.163-1.172c0-.172-.188-.172-.235-.172-.172 0-.187.047-.25.203-.203.485-.781.797-1.422.797-1.406 0-1.421-1.328-1.421-1.828h3.015c.219 0 .313 0 .313-.266 0-.312-.063-1.046-.563-1.546-.36-.36-.89-.532-1.578-.532-1.594 0-2.469 1.032-2.469 2.266 0 1.344 1 2.313 2.61 2.313 1.578 0 2-1.063 2-1.235zm-.938-1.328h-2.39c.015-.39.03-.813.234-1.14.266-.391.672-.516.953-.516 1.172 0 1.188 1.312 1.203 1.656zm7.391 2.5v-.469h-.687v-2.578c0-1.047-.532-1.437-1.532-1.437-.953 0-1.484.562-1.75 1.078v-1.078l-1.703.078v.469c.61 0 .688 0 .688.39v3.078h-.688v.469l1.25-.031 1.25.031v-.469h-.687v-2.078c0-1.094.86-1.578 1.5-1.578.328 0 .547.203.547.969v2.687h-.688v.469l1.25-.031zm3.745-1.234v-.532h-.469v.516c0 .672-.328.906-.61.906-.577 0-.577-.64-.577-.86v-2.75h1.468v-.468h-1.468v-1.906h-.47c0 1-.484 1.984-1.484 2.016v.359h.829v2.734c0 1.063.859 1.281 1.578 1.281.75 0 1.203-.578 1.203-1.296zm3.484 1.234v-.469h-.609v-4.015l-1.734.078v.469c.593 0 .656 0 .656.39v3.078h-.688v.469l1.22-.031Zm-.468-6.047a.774.774 0 0 0-.782-.781.784.784 0 0 0-.78.781.78.78 0 0 0 .78.766.77.77 0 0 0 .782-.766zm6.318 5.813c0-.235-.125-.235-.265-.235-.61-.015-.61-.14-.61-.375v-2.14c0-.891-.703-1.532-2.187-1.532-.563 0-1.781.047-1.781.922a.6.6 0 0 0 .609.625c.312 0 .625-.219.625-.625 0-.297-.188-.469-.219-.5a5.28 5.28 0 0 1 .719-.062c.75 0 1.11.422 1.11 1.172v.343c-.72.032-3.25.125-3.25 1.563 0 .953 1.234 1.14 1.921 1.14.797 0 1.266-.406 1.485-.828 0 .313 0 .766 1.046.766h.47c.202 0 .327 0 .327-.234zm-2-1.157c0 .97-.922 1.094-1.172 1.094-.515 0-.906-.344-.906-.797 0-1.062 1.578-1.203 2.078-1.234zm4.976 1.391v-.469h-.688v-6.453l-1.765.078v.469c.625 0 .687 0 .687.39v5.516h-.687v.469l1.218-.031Zm9.78-2.031c0-1.094-.797-1.906-1.718-2.094l-1.438-.313c-.406-.093-.953-.421-.953-1.03 0-.438.281-1.048 1.266-1.048.796 0 1.812.329 2.046 1.688.032.25.032.266.235.266.25 0 .25-.047.25-.282v-1.828c0-.187 0-.281-.188-.281-.078 0-.078.016-.187.11l-.453.437c-.578-.453-1.235-.547-1.703-.547-1.516 0-2.235.969-2.235 2.016 0 .64.328 1.093.531 1.312.5.5.829.563 1.922.797.875.203 1.047.219 1.266.437.14.141.39.407.39.86 0 .484-.25 1.172-1.296 1.172-.75 0-2.266-.203-2.344-1.688-.016-.172-.016-.219-.234-.219-.235 0-.235.047-.235.282v1.812c0 .188 0 .281.172.281.094 0 .11-.015.188-.093l.468-.453c.657.484 1.578.546 1.985.546 1.656 0 2.265-1.125 2.265-2.14zm5.57.859c0-.172-.188-.172-.235-.172-.172 0-.187.047-.25.203-.203.485-.781.797-1.422.797-1.406 0-1.422-1.328-1.422-1.828h3.016c.219 0 .313 0 .313-.266 0-.312-.063-1.046-.563-1.546-.36-.36-.89-.532-1.578-.532-1.594 0-2.469 1.032-2.469 2.266 0 1.344 1 2.313 2.61 2.313 1.578 0 2-1.063 2-1.235zm-.938-1.328h-2.39c.015-.39.03-.813.234-1.14.265-.391.672-.516.953-.516 1.172 0 1.187 1.312 1.203 1.656zm6.782 2.266c0-.235-.125-.235-.266-.235-.61-.015-.61-.14-.61-.375v-2.14c0-.891-.703-1.532-2.187-1.532-.562 0-1.781.047-1.781.922 0 .438.344.625.61.625.312 0 .624-.219.624-.625 0-.297-.187-.469-.219-.5a5.28 5.28 0 0 1 .72-.062c.75 0 1.109.422 1.109 1.172v.343c-.72.032-3.25.125-3.25 1.563 0 .953 1.234 1.14 1.921 1.14.797 0 1.266-.406 1.485-.828 0 .313 0 .766 1.047.766h.468c.204 0 .329 0 .329-.234zm-2-1.157c0 .97-.922 1.094-1.172 1.094-.516 0-.907-.344-.907-.797 0-1.062 1.579-1.203 2.079-1.234zm6.459-2.281c0-.531-.53-.812-1.062-.812-.688 0-1.094.5-1.313 1.125v-1.125l-1.656.078v.469c.61 0 .688 0 .688.39v3.078h-.688v.469l1.25-.031c.375 0 1.016 0 1.375.031v-.469h-.86v-1.75c0-.687.235-1.906 1.235-1.906 0 0-.187.172-.187.453 0 .406.328.61.609.61.297 0 .61-.204.61-.61zm5.082 2.5c0-.14-.14-.14-.234-.14-.188 0-.188.03-.25.156-.25.625-.735.812-1.235.812-1.39 0-1.39-1.453-1.39-1.922 0-.562 0-1.843 1.28-1.843.36 0 .516.015.657.047a.618.618 0 0 0-.203.468c0 .438.344.625.61.625.312 0 .64-.219.64-.625 0-.86-1.156-.922-1.734-.922-1.797 0-2.532 1.141-2.532 2.297 0 1.328.938 2.281 2.47 2.281 1.624 0 1.921-1.156 1.921-1.234zm6.141 1.172v-.469h-.687v-2.578c0-1.047-.531-1.437-1.531-1.437a1.9 1.9 0 0 0-1.688.953v-3.39l-1.766.077v.469c.61 0 .688 0 .688.39v5.516h-.688v.469l1.25-.031 1.25.031v-.469h-.687v-2.078c0-1.094.86-1.578 1.5-1.578.328 0 .547.203.547.969v2.687h-.688v.469l1.25-.031zm0 0"/><path fill="none" stroke="#000" stroke-miterlimit="10" stroke-width=".399" d="M164.168 39.438h21.258V18.18h-21.258Zm21.656 0h21.262V18.18h-21.262Zm21.66 0h21.258V18.18h-21.258Zm21.656 0h21.262V18.18h-21.261Zm21.66 0h21.262V18.18h-21.261Zm21.66 0h21.259V18.18H272.46Zm0 0"/><path d="M176.57 11.746c0-.844-.078-1.36-.343-1.875-.344-.703-1-.875-1.438-.875-1 0-1.375.75-1.484.969-.281.578-.297 1.375-.297 1.781 0 .531.016 1.328.406 1.969.36.594.953.75 1.375.75.391 0 1.063-.125 1.47-.906.296-.579.312-1.297.312-1.813zm-.703-.094c0 .47 0 1.188-.093 1.641-.172.828-.719.938-.985.938-.265 0-.812-.126-.984-.954-.094-.453-.094-1.203-.094-1.625 0-.546 0-1.109.094-1.546.172-.813.781-.891.984-.891.266 0 .828.14.985.86.093.437.093 1.046.093 1.577zm22.034 2.808v-.266h-.28c-.75 0-.782-.093-.782-.39V9.382c0-.219-.016-.219-.234-.219-.328.313-.75.5-1.5.5v.266c.218 0 .64 0 1.109-.203v4.078c0 .297-.031.39-.781.39h-.281v.266c.328-.031 1.015-.031 1.375-.031.359 0 1.046 0 1.375.031zm21.893-1.422h-.25c-.016.156-.078.547-.172.703-.047.063-.656.063-.781.063h-1.422l1.078-.969a9.23 9.23 0 0 1 .594-.5c.484-.453.953-.89.953-1.61 0-.952-.797-1.562-1.781-1.562-.97 0-1.594.719-1.594 1.438 0 .39.312.437.422.437.172 0 .422-.11.422-.422 0-.406-.407-.406-.5-.406.234-.594.765-.781 1.156-.781.734 0 1.125.625 1.125 1.297 0 .828-.578 1.437-1.531 2.39l-1 1.047c-.094.078-.094.094-.094.297h3.14Zm21.737-.104c0-.672-.531-1.266-1.344-1.454.625-.218 1.11-.75 1.11-1.39 0-.64-.72-1.094-1.547-1.094-.86 0-1.5.453-1.5 1.063 0 .296.187.421.406.421.25 0 .406-.171.406-.406 0-.297-.265-.406-.437-.406.344-.438.953-.469 1.094-.469.203 0 .812.063.812.89 0 .548-.234.891-.344 1.016-.234.25-.422.266-.906.297-.156 0-.219.016-.219.125 0 .11.078.11.219.11h.39c.626 0 1.032.453 1.032 1.297 0 1-.563 1.28-.984 1.28-.438 0-1.047-.155-1.329-.577.297 0 .5-.188.5-.438 0-.265-.187-.437-.453-.437-.203 0-.437.125-.437.453 0 .75.812 1.25 1.734 1.25 1.047 0 1.797-.735 1.797-1.531Zm21.769.214v-.25h-.844V9.304c0-.156 0-.219-.172-.219-.094 0-.11 0-.188.11l-2.547 3.703v.25h2.25v.671c0 .297-.015.375-.64.375h-.172v.266l1.14-.031 1.141.031v-.266h-.172c-.625 0-.64-.078-.64-.375v-.671Zm-1.438-.25h-2.031l2.03-2.954zm22.908-.198c0-.923-.672-1.75-1.61-1.75-.39 0-.765.124-1.078.405V9.81c.11.03.422.125.766.125 1 0 1.594-.704 1.594-.829 0-.093-.047-.109-.094-.109 0 0-.031 0-.094.031a2.982 2.982 0 0 1-1.11.22c-.468 0-.859-.11-1.109-.22-.078-.03-.109-.03-.109-.03-.094 0-.094.077-.094.233v2.329c0 .14 0 .234.125.234.063 0 .078-.031.125-.094.094-.11.391-.515 1.078-.515.438 0 .657.359.735.515.125.281.14.656.14.953 0 .297 0 .735-.218 1.079-.157.25-.485.484-.907.484a1.271 1.271 0 0 1-1.203-.844c.016.016.078.016.078.016.22 0 .407-.14.407-.39a.388.388 0 0 0-.39-.407c-.157 0-.407.078-.407.422 0 .718.625 1.453 1.531 1.453 1 0 1.844-.781 1.844-1.766zM176.775 30.017c0-1.188-.813-2.188-1.89-2.188-.47 0-.907.157-1.266.516v-1.953c.203.062.53.125.843.125 1.235 0 1.938-.906 1.938-1.031 0-.063-.031-.11-.11-.11 0 0-.03 0-.078.032a3.22 3.22 0 0 1-1.36.296 3.4 3.4 0 0 1-1.327-.28c-.078-.032-.11-.032-.11-.032-.109 0-.109.078-.109.234v2.953c0 .172 0 .25.14.25.079 0 .094-.015.141-.078.11-.156.469-.703 1.282-.703.515 0 .765.453.843.64.157.376.188.75.188 1.25 0 .36 0 .954-.25 1.376-.235.39-.61.64-1.063.64-.718 0-1.297-.53-1.468-1.109.03 0 .062.016.171.016.329 0 .5-.25.5-.485 0-.25-.171-.5-.5-.5-.14 0-.484.078-.484.532 0 .859.688 1.828 1.797 1.828 1.156 0 2.172-.953 2.172-2.219Zm18.871 2v-.313h-.313c-.906 0-.922-.109-.922-.468v-5.594c0-.25 0-.266-.234-.266-.625.641-1.5.641-1.812.641v.312c.203 0 .78 0 1.296-.265v5.172c0 .36-.03.468-.921.468h-.313v.313c.344-.031 1.203-.031 1.61-.031.39 0 1.265 0 1.609.031zm5.372-1.703c0-.813-.64-1.594-1.672-1.813.812-.265 1.39-.953 1.39-1.75 0-.812-.874-1.375-1.828-1.375-1 0-1.765.594-1.765 1.36 0 .328.219.515.515.515.297 0 .5-.218.5-.515 0-.485-.468-.485-.609-.485.297-.5.953-.625 1.313-.625.421 0 .968.22.968 1.11 0 .125-.03.703-.28 1.14-.298.485-.642.516-.892.516a3.29 3.29 0 0 1-.39.031c-.078.016-.14.031-.14.125 0 .11.062.11.234.11h.437c.813 0 1.188.671 1.188 1.656 0 1.36-.688 1.64-1.125 1.64-.438 0-1.188-.171-1.532-.75.344.047.657-.171.657-.546a.537.537 0 0 0-.547-.563c-.25 0-.563.14-.563.578 0 .906.922 1.563 2.016 1.563 1.219 0 2.125-.907 2.125-1.922zm16.286 1.703v-.313h-.313c-.906 0-.922-.109-.922-.468v-5.594c0-.25 0-.266-.234-.266-.625.641-1.5.641-1.812.641v.312c.203 0 .78 0 1.297-.265v5.172c0 .36-.032.468-.922.468h-.313v.313c.344-.031 1.203-.031 1.61-.031.39 0 1.265 0 1.609.031zm5.372-3.281c0-2.688-1.156-3.36-2.047-3.36-.547 0-1.031.188-1.453.625-.422.453-.64.875-.64 1.625 0 1.235.874 2.22 1.984 2.22.609 0 1.015-.423 1.25-1v.327c0 2.328-1.032 2.781-1.61 2.781-.172 0-.719-.015-.984-.359.437 0 .515-.281.515-.453 0-.313-.234-.453-.453-.453-.156 0-.453.078-.453.469 0 .671.531 1.078 1.375 1.078 1.297 0 2.516-1.36 2.516-3.5zm-.922-.922c0 .828-.344 1.797-1.219 1.797-.156 0-.625 0-.922-.625-.187-.375-.187-.86-.187-1.36 0-.53 0-1 .219-1.375.265-.5.64-.625.984-.625.469 0 .797.344.969.782.109.328.156.953.156 1.406zm17.506 2.579h-.235c-.062.296-.125.734-.234.89-.063.078-.719.078-.938.078h-1.796l1.062-1.03c1.547-1.376 2.14-1.907 2.14-2.907 0-1.14-.89-1.938-2.109-1.938a1.843 1.843 0 0 0-1.859 1.813c0 .547.5.547.531.547.172 0 .516-.11.516-.532a.513.513 0 0 0-.531-.515c-.078 0-.094 0-.125.015.218-.656.765-1.015 1.343-1.015.907 0 1.328.812 1.328 1.625 0 .797-.484 1.578-1.046 2.203l-1.907 2.125c-.109.11-.109.14-.109.375h3.703zm4.684 1.734v-.313h-.312c-.907 0-.922-.109-.922-.468v-5.594c0-.25 0-.266-.235-.266-.625.641-1.5.641-1.812.641v.312c.203 0 .781 0 1.297-.265v5.172c0 .36-.031.468-.922.468h-.313v.313c.344-.031 1.204-.031 1.61-.031.39 0 1.265 0 1.61.031zm17.068-1.763c0-.813-.641-1.594-1.672-1.813.812-.265 1.39-.953 1.39-1.75 0-.812-.875-1.375-1.828-1.375-1 0-1.765.594-1.765 1.36 0 .328.218.515.515.515.297 0 .5-.218.5-.515 0-.485-.469-.485-.61-.485.298-.5.954-.625 1.313-.625.422 0 .969.22.969 1.11 0 .125-.031.703-.281 1.14-.297.485-.64.516-.89.516a3.29 3.29 0 0 1-.391.031c-.079.016-.141.032-.141.125 0 .11.062.11.234.11h.438c.812 0 1.187.672 1.187 1.656 0 1.36-.687 1.64-1.125 1.64-.437 0-1.187-.171-1.531-.75.344.047.656-.171.656-.546a.537.537 0 0 0-.547-.563c-.25 0-.562.14-.562.578 0 .907.922 1.563 2.016 1.563 1.218 0 2.125-.906 2.125-1.922zm5.246-4.719h-2.421c-1.204 0-1.235-.125-1.266-.312h-.25l-.328 2.047h.25c.031-.157.11-.782.25-.907.062-.062.844-.062.969-.062h2.062l-1.11 1.578c-.906 1.344-1.234 2.734-1.234 3.75 0 .094 0 .547.469.547.453 0 .453-.453.453-.547v-.516c0-.547.031-1.093.11-1.625.046-.234.171-1.093.625-1.703l1.343-1.906c.078-.11.078-.125.078-.344zm16.319 4.372c0-1.188-.813-2.188-1.89-2.188-.47 0-.907.157-1.267.516v-1.953c.204.062.532.125.844.125 1.235 0 1.938-.906 1.938-1.031 0-.063-.031-.11-.11-.11 0 0-.03 0-.078.032a3.22 3.22 0 0 1-1.36.296 3.4 3.4 0 0 1-1.327-.28c-.078-.032-.11-.032-.11-.032-.109 0-.109.078-.109.234v2.953c0 .172 0 .25.14.25.079 0 .094-.015.141-.078.11-.156.469-.703 1.281-.703.516 0 .766.453.844.64.156.376.188.75.188 1.25 0 .36 0 .954-.25 1.376-.235.39-.61.64-1.063.64-.719 0-1.297-.53-1.469-1.109.032 0 .063.016.172.016.329 0 .5-.25.5-.485 0-.25-.171-.5-.5-.5-.14 0-.484.078-.484.532 0 .859.688 1.828 1.797 1.828 1.156 0 2.172-.953 2.172-2.219Zm5.075-.031c0-1.266-.89-2.219-2-2.219-.672 0-1.047.5-1.25.984v-.25c0-2.515 1.234-2.875 1.75-2.875.234 0 .656.063.875.407-.156 0-.547 0-.547.437 0 .313.234.469.453.469.156 0 .469-.094.469-.485 0-.593-.438-1.078-1.266-1.078-1.281 0-2.625 1.282-2.625 3.485 0 2.672 1.156 3.375 2.078 3.375 1.11 0 2.063-.938 2.063-2.25zm-.906-.016c0 .484 0 .984-.172 1.344-.297.594-.75.64-.985.64-.625 0-.922-.593-.984-.75-.188-.468-.188-1.265-.188-1.437 0-.781.329-1.781 1.22-1.781.171 0 .624 0 .937.625.172.36.172.875.172 1.36zm0 0"/><path fill="none" stroke="#000" stroke-linecap="round" stroke-miterlimit="10" stroke-width=".399" d="M174.797 46.727v-5.098"/><path d="m174.797 39.637-1.594 3.191 1.594-1.2 1.594 1.2m-5.698 10.113v-.266c-.5 0-.61 0-.61-.359V47.41l-1.187.094v.265c.547 0 .61.047.61.438v4.109c0 .36-.094.36-.61.36v.265c.313-.031.766-.031.906-.031.157 0 .578 0 .891.031zm4.211-1.703c0-.984-.829-1.844-1.875-1.844-1.047 0-1.875.86-1.875 1.844 0 1 .859 1.781 1.875 1.781 1.03 0 1.875-.781 1.875-1.781zm-.704-.063c0 .36-.015.797-.25 1.141-.203.313-.562.453-.921.453-.422 0-.766-.203-.938-.484-.203-.328-.219-.719-.219-1.11 0-.312 0-.78.235-1.125.218-.28.547-.437.922-.437.421 0 .765.203.937.469.219.343.234.765.234 1.093zm6.658-1.405v-.266c-.266.03-.282.03-.625.03-.25 0-.47 0-.72-.03v.265c.345.016.438.219.438.36 0 .109-.03.156-.046.203l-.75 1.984-.829-2.172c-.03-.11-.03-.125-.03-.156 0-.203.25-.219.437-.219v-.265c-.313.03-.735.03-.813.03-.172 0-.5 0-.734-.03v.265c.484 0 .5.047.656.469l-.734 1.969-.797-2.078c0-.032-.031-.11-.031-.141 0-.219.296-.219.437-.219v-.265c-.344.03-.703.03-.844.03-.14 0-.562 0-.781-.03v.265c.39 0 .469.031.563.25l1.062 2.813c.047.125.078.187.203.187.14 0 .172-.094.203-.187l.844-2.235.844 2.235c.047.093.078.187.219.187.125 0 .156-.078.187-.172l.969-2.531c.062-.187.203-.531.672-.547Zm0 0"/><path fill="none" stroke="#4384A1" stroke-linecap="round" stroke-miterlimit="10" stroke-width=".399" d="M218.113 46.727v-5.098"/><path fill="#4384A1" d="m218.113 39.637-1.593 3.191 1.593-1.2 1.594 1.2m-1.819 10.113v-.266c-.516 0-.61 0-.61-.359v-1.797c0-.64-.28-1.094-1.14-1.094-.734 0-1.11.5-1.234.735-.14-.578-.594-.735-1.11-.735a1.37 1.37 0 0 0-1.25.766v-.766l-1.156.094v.266c.547 0 .61.047.61.437v2.094c0 .36-.094.36-.61.36v.265c.344-.031.688-.031.906-.031.235 0 .563 0 .907.031v-.266c-.5 0-.61 0-.61-.359v-1.437c0-.844.64-1.235 1.14-1.235.517 0 .61.406.61.844v1.828c0 .36-.11.36-.61.36v.265c.345-.031.688-.031.907-.031.234 0 .563 0 .906.031v-.266c-.515 0-.609 0-.609-.359v-1.437c0-.844.64-1.235 1.14-1.235.516 0 .61.406.61.844v1.828c0 .36-.11.36-.61.36v.265c.344-.031.688-.031.907-.031.234 0 .562 0 .906.031zm2.304 0v-.266c-.532 0-.563-.03-.563-.343v-2.907l-1.156.094v.266c.516 0 .578.047.578.437v2.094c0 .36-.094.36-.61.36v.265c.313-.031.766-.031.891-.031.094 0 .578 0 .86.031zm-.453-4.797a.453.453 0 0 0-.454-.453.45.45 0 0 0-.437.453c0 .235.187.438.437.438a.45.45 0 0 0 .454-.438zm5.148 4.797v-.266c-.547 0-.61-.046-.61-.437V47.41l-1.187.094v.265c.531 0 .61.047.61.438v1.687a1.409 1.409 0 0 0-1.079-.469c-1 0-1.875.782-1.875 1.797 0 .985.797 1.797 1.797 1.797.469 0 .86-.219 1.125-.5v.5zm-1.22-.984c0 .14 0 .172-.124.328a1.146 1.146 0 0 1-.953.515c-.375 0-.688-.187-.875-.484-.219-.312-.266-.703-.266-1.078 0-.469.078-.797.266-1.063.187-.296.547-.53.953-.53.375 0 .765.202 1 .609zm0 0"/><path fill="none" stroke="#000" stroke-linecap="round" stroke-miterlimit="10" stroke-width=".399" d="M283.09 46.727v-5.098"/><path d="m283.09 39.637-1.594 3.191 1.594-1.2 1.594 1.2m-5.104 10.113v-.266c-.516 0-.61 0-.61-.359v-1.797c0-.656-.313-1.094-1.14-1.094-.704 0-1.063.454-1.22.704v-2.72l-1.187.095v.265c.547 0 .61.047.61.438v4.109c0 .36-.094.36-.61.36v.265c.344-.031.688-.031.906-.031.235 0 .563 0 .907.031v-.266c-.5 0-.61 0-.61-.359v-1.437c0-.844.64-1.235 1.125-1.235s.61.344.61.844v1.828c0 .36-.094.36-.61.36v.265c.344-.031.703-.031.907-.031.234 0 .578 0 .921.031zm2.295 0v-.266c-.53 0-.562-.03-.562-.343v-2.907l-1.156.094v.266c.515 0 .578.047.578.437v2.094c0 .36-.094.36-.61.36v.265c.313-.031.766-.031.891-.031.094 0 .578 0 .86.031zm-.453-4.797a.453.453 0 0 0-.453-.453.45.45 0 0 0-.437.453c0 .235.187.438.437.438a.45.45 0 0 0 .453-.438zm4.836 1.594a.43.43 0 0 0-.453-.406c-.14 0-.531.047-.89.375a1.585 1.585 0 0 0-.891-.282c-.782 0-1.36.547-1.36 1.172 0 .375.203.657.375.813a.934.934 0 0 0 .094 1.36c-.422.109-.75.421-.75.78 0 .579.828 1.032 1.875 1.032 1 0 1.875-.407 1.875-1.047 0-.422-.25-.766-.516-.89-.468-.25-.86-.25-1.64-.25h-.453c-.25-.032-.438-.235-.438-.532 0-.188.047-.266.094-.328.344.187.656.234.844.234.78 0 1.375-.547 1.375-1.172 0-.297-.141-.562-.329-.765.11-.094.375-.266.766-.266-.031.016-.078.063-.078.188 0 .14.11.25.25.25a.25.25 0 0 0 .25-.266zm-1.5.86c0 .296-.031.5-.156.656a.703.703 0 0 1-.578.28c-.735 0-.735-.765-.735-.937 0-.297.031-.5.156-.656a.717.717 0 0 1 .579-.281c.734 0 .734.765.734.937zm.906 2.952c0 .422-.61.797-1.406.797-.797 0-1.406-.375-1.406-.797 0-.171.14-.64.78-.64h.767c.218 0 1.265 0 1.265.64zm5.201-.609v-.266c-.516 0-.61 0-.61-.359v-1.797c0-.656-.312-1.094-1.14-1.094-.703 0-1.062.454-1.219.704v-2.72l-1.187.095v.265c.547 0 .61.047.61.438v4.109c0 .36-.095.36-.61.36v.265c.344-.031.687-.031.906-.031.234 0 .563 0 .906.031v-.266c-.5 0-.61 0-.61-.359v-1.437c0-.844.642-1.235 1.126-1.235.484 0 .61.344.61.844v1.828c0 .36-.094.36-.61.36v.265c.344-.031.703-.031.906-.031.235 0 .578 0 .922.031zm0 0"/><path fill="none" stroke="#000" stroke-miterlimit="10" stroke-width=".399" d="M164.168 89.445h21.258V68.184h-21.258Zm21.656 0h21.262V68.184h-21.262Zm21.66 0h21.258V68.184h-21.258Zm21.656 0h21.262V68.184h-21.261Zm21.66 0h21.262V68.184h-21.261Zm21.66 0h21.259V68.184H272.46Zm0 0"/><path d="M176.57 61.751c0-.844-.078-1.36-.343-1.875-.344-.703-1-.875-1.438-.875-1 0-1.375.75-1.484.969-.281.578-.297 1.375-.297 1.781 0 .531.016 1.328.406 1.969.36.594.953.75 1.375.75.391 0 1.063-.125 1.47-.906.296-.579.312-1.297.312-1.813zm-.703-.094c0 .47 0 1.188-.093 1.641-.172.828-.719.937-.985.937-.265 0-.812-.125-.984-.953-.094-.453-.094-1.203-.094-1.625 0-.547 0-1.109.094-1.547.172-.812.781-.89.984-.89.266 0 .828.14.985.86.093.437.093 1.046.093 1.577zm22.034 2.808v-.266h-.28c-.75 0-.782-.093-.782-.39v-4.422c0-.219-.016-.219-.234-.219-.328.313-.75.5-1.5.5v.266c.218 0 .64 0 1.109-.203v4.078c0 .297-.031.39-.781.39h-.281v.266c.328-.031 1.015-.031 1.375-.031.359 0 1.046 0 1.375.031zm21.893-1.422h-.25c-.016.156-.078.547-.172.703-.047.063-.656.063-.781.063h-1.422l1.078-.969a9.23 9.23 0 0 1 .594-.5c.484-.453.953-.89.953-1.61 0-.953-.797-1.562-1.781-1.562-.97 0-1.594.719-1.594 1.438 0 .39.312.437.422.437.172 0 .422-.11.422-.422 0-.406-.407-.406-.5-.406.234-.594.765-.781 1.156-.781.734 0 1.125.625 1.125 1.297 0 .828-.578 1.437-1.531 2.39l-1 1.047c-.094.078-.094.094-.094.297h3.14Zm21.737-.104c0-.672-.531-1.266-1.344-1.454.625-.218 1.11-.75 1.11-1.39 0-.64-.72-1.094-1.547-1.094-.86 0-1.5.453-1.5 1.063 0 .296.187.421.406.421.25 0 .406-.171.406-.406 0-.297-.265-.406-.437-.406.344-.438.953-.469 1.094-.469.203 0 .812.063.812.89 0 .548-.234.891-.344 1.016-.234.25-.422.266-.906.297-.156 0-.219.016-.219.125 0 .11.078.11.219.11h.39c.626 0 1.032.453 1.032 1.297 0 1-.563 1.28-.984 1.28-.438 0-1.047-.155-1.329-.577.297 0 .5-.188.5-.438 0-.265-.187-.437-.453-.437-.203 0-.437.125-.437.453 0 .75.812 1.25 1.734 1.25 1.047 0 1.797-.735 1.797-1.531Zm21.769.213v-.25h-.844V59.31c0-.157 0-.219-.172-.219-.094 0-.11 0-.188.11l-2.547 3.702v.25h2.25v.672c0 .297-.015.375-.64.375h-.172v.266l1.14-.031 1.141.031V64.2h-.172c-.625 0-.64-.078-.64-.375v-.672Zm-1.438-.25h-2.031l2.03-2.953zm22.908-.198c0-.922-.672-1.75-1.61-1.75-.39 0-.765.125-1.078.406v-1.546c.11.03.422.125.766.125 1 0 1.594-.704 1.594-.829 0-.093-.047-.109-.094-.109 0 0-.031 0-.094.031a2.982 2.982 0 0 1-1.11.22c-.468 0-.859-.11-1.109-.22-.078-.03-.109-.03-.109-.03-.094 0-.094.077-.094.233v2.329c0 .14 0 .234.125.234.063 0 .078-.031.125-.094.094-.11.391-.515 1.078-.515.438 0 .657.359.735.515.125.281.14.656.14.953 0 .297 0 .735-.218 1.078a1.08 1.08 0 0 1-.907.485 1.271 1.271 0 0 1-1.203-.844c.016.016.078.016.078.016.22 0 .407-.14.407-.39a.388.388 0 0 0-.39-.407c-.157 0-.407.078-.407.422 0 .718.625 1.453 1.531 1.453 1 0 1.844-.781 1.844-1.766zM176.775 80.022c0-1.187-.813-2.187-1.89-2.187-.47 0-.907.156-1.266.515v-1.953c.203.063.53.125.843.125 1.235 0 1.938-.906 1.938-1.031 0-.063-.031-.11-.11-.11 0 0-.03 0-.078.032a3.22 3.22 0 0 1-1.36.297c-.39 0-.858-.079-1.327-.282-.078-.031-.11-.031-.11-.031-.109 0-.109.078-.109.234v2.954c0 .171 0 .25.14.25.079 0 .094-.016.141-.079.11-.156.469-.703 1.282-.703.515 0 .765.453.843.64.157.376.188.75.188 1.25 0 .36 0 .954-.25 1.376-.235.39-.61.64-1.063.64-.718 0-1.297-.53-1.468-1.109.03 0 .062.016.171.016.329 0 .5-.25.5-.485 0-.25-.171-.5-.5-.5-.14 0-.484.079-.484.532 0 .859.688 1.828 1.797 1.828 1.156 0 2.172-.953 2.172-2.219Zm18.871 2v-.312h-.313c-.906 0-.922-.11-.922-.47v-5.593c0-.25 0-.266-.234-.266-.625.641-1.5.641-1.812.641v.313c.203 0 .78 0 1.296-.266v5.172c0 .36-.03.469-.921.469h-.313v.312c.344-.031 1.203-.031 1.61-.031.39 0 1.265 0 1.609.031zm5.372-1.703c0-.813-.64-1.594-1.672-1.813.812-.265 1.39-.953 1.39-1.75 0-.812-.874-1.375-1.828-1.375-1 0-1.765.594-1.765 1.36 0 .328.219.515.515.515.297 0 .5-.218.5-.515 0-.485-.468-.485-.609-.485.297-.5.953-.625 1.313-.625.421 0 .968.22.968 1.11 0 .125-.03.703-.28 1.14-.298.485-.642.516-.892.516a3.29 3.29 0 0 1-.39.031c-.078.016-.14.032-.14.125 0 .11.062.11.234.11h.437c.813 0 1.188.672 1.188 1.656 0 1.36-.688 1.64-1.125 1.64-.438 0-1.188-.171-1.532-.75.344.047.657-.171.657-.546a.537.537 0 0 0-.547-.563c-.25 0-.563.14-.563.578 0 .907.922 1.563 2.016 1.563 1.219 0 2.125-.906 2.125-1.922zm16.286 1.703v-.312h-.313c-.906 0-.922-.11-.922-.47v-5.593c0-.25 0-.266-.234-.266-.625.641-1.5.641-1.812.641v.313c.203 0 .78 0 1.297-.266v5.172c0 .36-.032.469-.922.469h-.313v.312c.344-.031 1.203-.031 1.61-.031.39 0 1.265 0 1.609.031zm5.372-3.282c0-2.687-1.156-3.359-2.047-3.359-.547 0-1.031.188-1.453.625-.422.454-.64.875-.64 1.625 0 1.235.874 2.22 1.984 2.22.609 0 1.015-.423 1.25-1v.327c0 2.328-1.032 2.782-1.61 2.782-.172 0-.719-.016-.984-.36.437 0 .515-.281.515-.453 0-.312-.234-.453-.453-.453-.156 0-.453.078-.453.469 0 .672.531 1.078 1.375 1.078 1.297 0 2.516-1.36 2.516-3.5zm-.922-.921c0 .828-.344 1.797-1.219 1.797-.156 0-.625 0-.922-.625-.187-.375-.187-.86-.187-1.36 0-.53 0-1 .219-1.375.265-.5.64-.625.984-.625.469 0 .797.344.969.782.109.328.156.953.156 1.406zm17.506 2.579h-.235c-.062.297-.125.734-.234.89-.063.078-.719.078-.938.078h-1.796l1.062-1.03c1.547-1.376 2.14-1.907 2.14-2.907 0-1.14-.89-1.938-2.109-1.938a1.843 1.843 0 0 0-1.859 1.813c0 .547.5.547.531.547.172 0 .516-.11.516-.531a.513.513 0 0 0-.531-.516c-.078 0-.094 0-.125.016.218-.657.765-1.016 1.343-1.016.907 0 1.328.812 1.328 1.625 0 .797-.484 1.578-1.046 2.203l-1.907 2.125c-.109.11-.109.14-.109.375h3.703zm4.684 1.734v-.312h-.312c-.907 0-.922-.11-.922-.47v-5.593c0-.25 0-.266-.235-.266-.625.641-1.5.641-1.812.641v.313c.203 0 .781 0 1.297-.266v5.172c0 .36-.031.469-.922.469h-.313v.312c.344-.031 1.204-.031 1.61-.031.39 0 1.265 0 1.61.031zm17.068-1.763c0-.813-.641-1.594-1.672-1.813.812-.265 1.39-.953 1.39-1.75 0-.812-.875-1.375-1.828-1.375-1 0-1.765.594-1.765 1.36 0 .328.218.515.515.515.297 0 .5-.218.5-.515 0-.485-.469-.485-.61-.485.298-.5.954-.625 1.313-.625.422 0 .969.22.969 1.11 0 .125-.031.703-.281 1.14-.297.485-.64.516-.89.516a3.29 3.29 0 0 1-.391.031c-.079.016-.141.031-.141.125 0 .11.062.11.234.11h.438c.812 0 1.187.671 1.187 1.656 0 1.36-.687 1.64-1.125 1.64-.437 0-1.187-.171-1.531-.75.344.047.656-.171.656-.546a.537.537 0 0 0-.547-.563c-.25 0-.562.14-.562.578 0 .906.922 1.563 2.016 1.563 1.218 0 2.125-.907 2.125-1.922zm5.246-4.719h-2.421c-1.204 0-1.235-.125-1.266-.312h-.25l-.328 2.046h.25c.031-.156.11-.78.25-.906.062-.062.844-.062.969-.062h2.062l-1.11 1.578c-.906 1.344-1.234 2.734-1.234 3.75 0 .094 0 .547.469.547.453 0 .453-.453.453-.547v-.516c0-.547.031-1.094.11-1.625.046-.234.171-1.094.625-1.703l1.343-1.906c.078-.11.078-.125.078-.344zm16.319 4.372c0-1.187-.813-2.187-1.89-2.187-.47 0-.907.156-1.267.515v-1.953c.204.063.532.125.844.125 1.235 0 1.938-.906 1.938-1.031 0-.063-.031-.11-.11-.11 0 0-.03 0-.078.032a3.22 3.22 0 0 1-1.36.297c-.39 0-.858-.079-1.327-.282-.078-.031-.11-.031-.11-.031-.109 0-.109.078-.109.234v2.954c0 .171 0 .25.14.25.079 0 .094-.016.141-.079.11-.156.469-.703 1.281-.703.516 0 .766.453.844.64.156.376.188.75.188 1.25 0 .36 0 .954-.25 1.376-.235.39-.61.64-1.063.64-.719 0-1.297-.53-1.469-1.109.032 0 .063.016.172.016.329 0 .5-.25.5-.485 0-.25-.171-.5-.5-.5-.14 0-.484.079-.484.532 0 .859.688 1.828 1.797 1.828 1.156 0 2.172-.953 2.172-2.219Zm5.075-.032c0-1.265-.89-2.218-2-2.218-.672 0-1.047.5-1.25.984v-.25c0-2.515 1.234-2.875 1.75-2.875.234 0 .656.063.875.407-.156 0-.547 0-.547.437 0 .313.234.469.453.469.156 0 .469-.094.469-.484 0-.594-.438-1.079-1.266-1.079-1.281 0-2.625 1.282-2.625 3.485 0 2.672 1.156 3.375 2.078 3.375 1.11 0 2.063-.938 2.063-2.25zm-.906-.015c0 .485 0 .985-.172 1.344-.297.594-.75.64-.985.64-.625 0-.922-.593-.984-.75-.188-.468-.188-1.265-.188-1.437 0-.781.329-1.781 1.22-1.781.171 0 .624 0 .937.625.172.36.172.875.172 1.36zm0 0"/><path fill="none" stroke="#000" stroke-linecap="round" stroke-miterlimit="10" stroke-width=".399" d="M239.773 96.73v-5.093"/><path d="m239.773 89.645-1.593 3.187 1.593-1.195 1.594 1.195m-5.699 10.115v-.266c-.5 0-.61 0-.61-.359v-4.906l-1.187.094v.265c.547 0 .61.047.61.438v4.109c0 .36-.094.36-.61.36v.265c.313-.031.766-.031.906-.031.157 0 .579 0 .891.031zm4.211-1.703c0-.984-.829-1.844-1.875-1.844-1.047 0-1.875.86-1.875 1.844 0 1 .859 1.781 1.875 1.781 1.03 0 1.875-.781 1.875-1.781zm-.704-.063c0 .36-.015.797-.25 1.141-.203.313-.562.453-.921.453-.422 0-.766-.203-.938-.484-.203-.328-.219-.719-.219-1.11 0-.312 0-.78.235-1.125.218-.28.547-.437.922-.437.421 0 .765.203.937.469.219.343.234.765.234 1.093zm6.658-1.406v-.266c-.266.032-.282.032-.625.032-.25 0-.47 0-.72-.031v.265c.345.016.438.219.438.36 0 .109-.03.156-.046.203l-.75 1.984-.829-2.172c-.03-.11-.03-.125-.03-.156 0-.203.25-.219.437-.219v-.266c-.313.032-.735.032-.813.032-.172 0-.5 0-.734-.031v.265c.484 0 .5.047.656.469l-.734 1.969-.797-2.078c0-.032-.031-.11-.031-.141 0-.219.296-.219.437-.219v-.266c-.344.032-.703.032-.844.032-.14 0-.562 0-.781-.031v.265c.39 0 .469.031.563.25l1.062 2.813c.047.125.078.187.203.187.14 0 .172-.094.203-.187l.844-2.235.844 2.235c.047.093.078.187.219.187.125 0 .156-.078.187-.172l.969-2.531c.062-.188.203-.531.672-.547Zm0 0"/><path fill="none" stroke="#4384A1" stroke-linecap="round" stroke-miterlimit="10" stroke-width=".399" d="M261.43 96.73v-5.093"/><path fill="#4384A1" d="m261.43 89.645-1.594 3.187 1.594-1.195 1.593 1.195m-1.818 10.115v-.266c-.515 0-.61 0-.61-.359v-1.797c0-.64-.28-1.094-1.14-1.094-.734 0-1.11.5-1.234.735-.14-.578-.594-.735-1.11-.735a1.37 1.37 0 0 0-1.25.766v-.766l-1.156.094v.266c.547 0 .61.047.61.437v2.094c0 .36-.094.36-.61.36v.265c.344-.031.688-.031.906-.031.235 0 .563 0 .907.031v-.266c-.5 0-.61 0-.61-.359v-1.438c0-.843.64-1.234 1.14-1.234.517 0 .61.406.61.844v1.828c0 .36-.11.36-.61.36v.265c.345-.031.688-.031.907-.031.235 0 .563 0 .906.031v-.266c-.515 0-.609 0-.609-.359v-1.438c0-.843.64-1.234 1.14-1.234.516 0 .61.406.61.844v1.828c0 .36-.11.36-.61.36v.265c.344-.031.688-.031.907-.031.234 0 .562 0 .906.031zm2.304 0v-.266c-.532 0-.563-.03-.563-.343V99.43l-1.156.094v.266c.516 0 .578.047.578.437v2.094c0 .36-.094.36-.61.36v.265c.313-.031.766-.031.891-.031.094 0 .578 0 .86.031zm-.453-4.797a.453.453 0 0 0-.454-.453.45.45 0 0 0-.437.453c0 .234.187.438.437.438a.45.45 0 0 0 .454-.438zm5.148 4.797v-.266c-.547 0-.61-.046-.61-.437v-4.828l-1.187.094v.265c.531 0 .61.047.61.438V99.9a1.409 1.409 0 0 0-1.079-.469c-1 0-1.875.782-1.875 1.797 0 .985.797 1.797 1.797 1.797.469 0 .86-.219 1.125-.5v.5zm-1.22-.984c0 .14 0 .172-.124.328a1.146 1.146 0 0 1-.953.515c-.375 0-.688-.187-.875-.484-.219-.313-.266-.703-.266-1.078 0-.469.078-.797.266-1.063.187-.296.547-.53.953-.53.375 0 .765.202 1 .609zm0 0"/><path fill="none" stroke="#000" stroke-linecap="round" stroke-miterlimit="10" stroke-width=".399" d="M283.09 96.73v-5.093"/><path d="m283.09 89.645-1.594 3.187 1.594-1.195 1.594 1.195m-5.104 10.115v-.266c-.516 0-.61 0-.61-.359v-1.797c0-.656-.313-1.094-1.14-1.094-.704 0-1.063.454-1.22.704v-2.72l-1.187.094v.266c.547 0 .61.047.61.438v4.109c0 .36-.094.36-.61.36v.265c.344-.031.688-.031.906-.031.235 0 .563 0 .907.031v-.266c-.5 0-.61 0-.61-.359v-1.438c0-.843.64-1.234 1.125-1.234s.61.344.61.844v1.828c0 .36-.094.36-.61.36v.265c.344-.031.703-.031.907-.031.234 0 .578 0 .921.031zm2.295 0v-.266c-.53 0-.562-.03-.562-.343V99.43l-1.156.094v.266c.515 0 .578.047.578.437v2.094c0 .36-.094.36-.61.36v.265c.313-.031.766-.031.891-.031.094 0 .578 0 .86.031zm-.453-4.797a.453.453 0 0 0-.453-.453.45.45 0 0 0-.437.453c0 .234.187.438.437.438a.45.45 0 0 0 .453-.438zm4.836 1.594a.43.43 0 0 0-.453-.406c-.14 0-.531.047-.89.375a1.585 1.585 0 0 0-.891-.282c-.782 0-1.36.547-1.36 1.172 0 .375.203.657.375.813a.934.934 0 0 0 .094 1.36c-.422.109-.75.421-.75.78 0 .579.828 1.032 1.875 1.032 1 0 1.875-.407 1.875-1.047 0-.422-.25-.766-.516-.89-.468-.25-.86-.25-1.64-.25h-.453c-.25-.032-.438-.235-.438-.532 0-.188.047-.266.094-.328.344.187.656.234.844.234.78 0 1.375-.547 1.375-1.172 0-.297-.141-.562-.329-.765.11-.094.375-.266.766-.266-.031.016-.078.063-.078.188 0 .14.11.25.25.25a.25.25 0 0 0 .25-.266zm-1.5.86c0 .296-.031.5-.156.656a.703.703 0 0 1-.578.28c-.735 0-.735-.765-.735-.937 0-.297.031-.5.156-.656a.717.717 0 0 1 .579-.281c.734 0 .734.765.734.937zm.906 2.952c0 .422-.61.797-1.406.797-.797 0-1.406-.375-1.406-.797 0-.171.14-.64.78-.64h.767c.218 0 1.265 0 1.265.64zm5.201-.609v-.266c-.516 0-.61 0-.61-.359v-1.797c0-.656-.312-1.094-1.14-1.094-.703 0-1.062.454-1.219.704v-2.72l-1.187.094v.266c.547 0 .61.047.61.438v4.109c0 .36-.095.36-.61.36v.265c.344-.031.687-.031.906-.031.234 0 .563 0 .906.031v-.266c-.5 0-.61 0-.61-.359v-1.438c0-.843.642-1.234 1.126-1.234.484 0 .61.344.61.844v1.828c0 .36-.094.36-.61.36v.265c.344-.031.703-.031.906-.031.235 0 .578 0 .922.031zm0 0"/><path fill="none" stroke="#000" stroke-miterlimit="10" stroke-width=".399" d="M164.168 139.45h21.258v-21.26h-21.258Zm21.656 0h21.262v-21.26h-21.262Zm21.66 0h21.258v-21.26h-21.258Zm21.656 0h21.262v-21.26h-21.261Zm21.66 0h21.262v-21.26h-21.261Zm21.66 0h21.259v-21.26H272.46Zm0 0"/><path d="M176.57 111.756c0-.844-.078-1.36-.343-1.875-.344-.703-1-.875-1.438-.875-1 0-1.375.75-1.484.969-.281.578-.297 1.375-.297 1.781 0 .531.016 1.328.406 1.969.36.594.953.75 1.375.75.391 0 1.063-.125 1.47-.906.296-.579.312-1.297.312-1.813zm-.703-.094c0 .47 0 1.188-.093 1.641-.172.828-.719.938-.985.938-.265 0-.812-.126-.984-.954-.094-.453-.094-1.203-.094-1.625 0-.547 0-1.109.094-1.547.172-.812.781-.89.984-.89.266 0 .828.14.985.86.093.437.093 1.046.093 1.577zm22.034 2.809v-.266h-.28c-.75 0-.782-.093-.782-.39v-4.422c0-.219-.016-.219-.234-.219-.328.313-.75.5-1.5.5v.266c.218 0 .64 0 1.109-.203v4.078c0 .297-.031.39-.781.39h-.281v.266c.328-.031 1.015-.031 1.375-.031.359 0 1.046 0 1.375.031zm21.893-1.421h-.25c-.016.155-.078.546-.172.702-.047.063-.656.063-.781.063h-1.422l1.078-.969a9.23 9.23 0 0 1 .594-.5c.484-.453.953-.89.953-1.61 0-.953-.797-1.562-1.781-1.562-.97 0-1.594.719-1.594 1.438 0 .39.312.437.422.437.172 0 .422-.11.422-.422 0-.406-.407-.406-.5-.406.234-.594.765-.781 1.156-.781.734 0 1.125.625 1.125 1.297 0 .828-.578 1.437-1.531 2.39l-1 1.047c-.094.078-.094.094-.094.297h3.14Zm21.737-.106c0-.672-.531-1.266-1.344-1.454.625-.218 1.11-.75 1.11-1.39 0-.64-.72-1.094-1.547-1.094-.86 0-1.5.453-1.5 1.063 0 .296.187.421.406.421.25 0 .406-.171.406-.406 0-.297-.265-.406-.437-.406.344-.438.953-.469 1.094-.469.203 0 .812.063.812.89 0 .548-.234.891-.344 1.016-.234.25-.422.266-.906.297-.156 0-.219.016-.219.125 0 .11.078.11.219.11h.39c.626 0 1.032.453 1.032 1.297 0 1-.563 1.28-.984 1.28-.438 0-1.047-.155-1.329-.577.297 0 .5-.188.5-.438 0-.265-.187-.437-.453-.437-.203 0-.437.125-.437.453 0 .75.812 1.25 1.734 1.25 1.047 0 1.797-.734 1.797-1.531Zm21.769.215v-.25h-.844v-3.594c0-.156 0-.219-.172-.219-.094 0-.11 0-.188.11l-2.547 3.703v.25h2.25v.671c0 .297-.015.375-.64.375h-.172v.266l1.14-.031 1.141.031v-.266h-.172c-.625 0-.64-.078-.64-.375v-.671Zm-1.438-.25h-2.031l2.03-2.954zm22.908-.199c0-.923-.672-1.75-1.61-1.75-.39 0-.765.124-1.078.406v-1.547c.11.03.422.125.766.125 1 0 1.594-.704 1.594-.829 0-.093-.047-.109-.094-.109 0 0-.031 0-.094.031a2.982 2.982 0 0 1-1.11.22c-.468 0-.859-.11-1.109-.22-.078-.03-.109-.03-.109-.03-.094 0-.094.077-.094.233v2.329c0 .14 0 .234.125.234.063 0 .078-.031.125-.094.094-.11.391-.515 1.078-.515.438 0 .657.359.735.515.125.281.14.656.14.953 0 .297 0 .735-.218 1.078a1.08 1.08 0 0 1-.907.485 1.271 1.271 0 0 1-1.203-.844c.016.016.078.016.078.016.22 0 .407-.14.407-.39a.388.388 0 0 0-.39-.407c-.157 0-.407.078-.407.422 0 .718.625 1.453 1.531 1.453 1 0 1.844-.781 1.844-1.766zm-107.995 17.318c0-1.188-.813-2.188-1.89-2.188-.47 0-.907.157-1.266.516v-1.953c.203.062.53.125.843.125 1.235 0 1.938-.906 1.938-1.031 0-.063-.031-.11-.11-.11 0 0-.03 0-.078.032a3.22 3.22 0 0 1-1.36.296 3.4 3.4 0 0 1-1.327-.28c-.078-.032-.11-.032-.11-.032-.109 0-.109.078-.109.234v2.953c0 .172 0 .25.14.25.079 0 .094-.015.141-.078.11-.156.469-.703 1.282-.703.515 0 .765.453.843.64.157.376.188.75.188 1.25 0 .36 0 .954-.25 1.376-.235.39-.61.64-1.063.64-.718 0-1.297-.53-1.468-1.109.03 0 .062.016.171.016.329 0 .5-.25.5-.485 0-.25-.171-.5-.5-.5-.14 0-.484.078-.484.532 0 .859.688 1.828 1.797 1.828 1.156 0 2.172-.953 2.172-2.219Zm18.871 2v-.313h-.313c-.906 0-.922-.109-.922-.468v-5.594c0-.25 0-.266-.234-.266-.625.641-1.5.641-1.812.641v.312c.203 0 .78 0 1.296-.265v5.172c0 .36-.03.468-.921.468h-.313v.313c.344-.031 1.203-.031 1.61-.031.39 0 1.265 0 1.609.031zm5.372-1.703c0-.813-.64-1.594-1.672-1.813.812-.265 1.39-.953 1.39-1.75 0-.812-.874-1.375-1.828-1.375-1 0-1.765.594-1.765 1.36 0 .328.219.515.515.515.297 0 .5-.218.5-.515 0-.485-.468-.485-.609-.485.297-.5.953-.625 1.313-.625.421 0 .968.22.968 1.11 0 .125-.03.703-.28 1.14-.298.485-.642.516-.892.516a3.29 3.29 0 0 1-.39.031c-.078.016-.14.031-.14.125 0 .11.062.11.234.11h.437c.813 0 1.188.671 1.188 1.656 0 1.36-.688 1.64-1.125 1.64-.438 0-1.188-.171-1.532-.75.344.047.657-.171.657-.546a.537.537 0 0 0-.547-.563c-.25 0-.563.14-.563.578 0 .906.922 1.563 2.016 1.563 1.219 0 2.125-.907 2.125-1.922zm16.286 1.703v-.313h-.313c-.906 0-.922-.109-.922-.468v-5.594c0-.25 0-.266-.234-.266-.625.641-1.5.641-1.812.641v.312c.203 0 .78 0 1.297-.265v5.172c0 .36-.032.468-.922.468h-.313v.313c.344-.031 1.203-.031 1.61-.031.39 0 1.265 0 1.609.031zm5.372-3.281c0-2.688-1.156-3.36-2.047-3.36-.547 0-1.031.188-1.453.625-.422.453-.64.875-.64 1.625 0 1.235.874 2.22 1.984 2.22.609 0 1.015-.423 1.25-1v.327c0 2.328-1.032 2.781-1.61 2.781-.172 0-.719-.015-.984-.359.437 0 .515-.281.515-.453 0-.313-.234-.453-.453-.453-.156 0-.453.078-.453.469 0 .671.531 1.078 1.375 1.078 1.297 0 2.516-1.36 2.516-3.5zm-.922-.922c0 .828-.344 1.797-1.219 1.797-.156 0-.625 0-.922-.625-.187-.375-.187-.86-.187-1.36 0-.53 0-1 .219-1.375.265-.5.64-.625.984-.625.469 0 .797.344.969.782.109.328.156.953.156 1.406zm17.506 2.578h-.235c-.062.296-.125.734-.234.89-.063.078-.719.078-.938.078h-1.796l1.062-1.03c1.547-1.376 2.14-1.907 2.14-2.907 0-1.14-.89-1.938-2.109-1.938a1.843 1.843 0 0 0-1.859 1.813c0 .547.5.547.531.547.172 0 .516-.11.516-.532a.513.513 0 0 0-.531-.515c-.078 0-.094 0-.125.015.218-.656.765-1.015 1.343-1.015.907 0 1.328.812 1.328 1.625 0 .797-.484 1.578-1.046 2.203l-1.907 2.125c-.109.11-.109.14-.109.375h3.703zm4.684 1.734v-.313h-.312c-.907 0-.922-.109-.922-.468v-5.594c0-.25 0-.266-.235-.266-.625.641-1.5.641-1.812.641v.312c.203 0 .781 0 1.297-.265v5.172c0 .36-.031.468-.922.468h-.313v.313c.344-.031 1.204-.031 1.61-.031.39 0 1.265 0 1.61.031zm17.068-1.762c0-.813-.641-1.594-1.672-1.813.812-.265 1.39-.953 1.39-1.75 0-.812-.875-1.375-1.828-1.375-1 0-1.765.594-1.765 1.36 0 .328.218.515.515.515.297 0 .5-.218.5-.515 0-.485-.469-.485-.61-.485.298-.5.954-.625 1.313-.625.422 0 .969.22.969 1.11 0 .125-.031.703-.281 1.14-.297.485-.64.516-.89.516a3.29 3.29 0 0 1-.391.031c-.079.016-.141.031-.141.125 0 .11.062.11.234.11h.438c.812 0 1.187.672 1.187 1.656 0 1.36-.687 1.64-1.125 1.64-.437 0-1.187-.171-1.531-.75.344.047.656-.171.656-.546a.537.537 0 0 0-.547-.563c-.25 0-.562.14-.562.578 0 .906.922 1.563 2.016 1.563 1.218 0 2.125-.906 2.125-1.922zm5.246-4.719h-2.421c-1.204 0-1.235-.125-1.266-.312h-.25l-.328 2.047h.25c.031-.157.11-.782.25-.907.062-.062.844-.062.969-.062h2.062l-1.11 1.578c-.906 1.344-1.234 2.734-1.234 3.75 0 .094 0 .547.469.547.453 0 .453-.453.453-.547v-.516c0-.547.031-1.094.11-1.625.046-.234.171-1.094.625-1.703L266.18 126c.078-.11.078-.125.078-.344zm16.319 4.372c0-1.188-.813-2.188-1.89-2.188-.47 0-.907.157-1.267.516v-1.953c.204.062.532.125.844.125 1.235 0 1.938-.906 1.938-1.031 0-.063-.031-.11-.11-.11 0 0-.03 0-.078.032a3.22 3.22 0 0 1-1.36.296 3.4 3.4 0 0 1-1.327-.28c-.078-.032-.11-.032-.11-.032-.109 0-.109.078-.109.234v2.953c0 .172 0 .25.14.25.079 0 .094-.015.141-.078.11-.156.469-.703 1.281-.703.516 0 .766.453.844.64.156.376.188.75.188 1.25 0 .36 0 .954-.25 1.376-.235.39-.61.64-1.063.64-.719 0-1.297-.53-1.469-1.109.032 0 .063.016.172.016.329 0 .5-.25.5-.485 0-.25-.171-.5-.5-.5-.14 0-.484.078-.484.532 0 .859.688 1.828 1.797 1.828 1.156 0 2.172-.953 2.172-2.219Zm5.075-.031c0-1.266-.89-2.219-2-2.219-.672 0-1.047.5-1.25.984v-.25c0-2.515 1.234-2.875 1.75-2.875.234 0 .656.063.875.407-.156 0-.547 0-.547.437 0 .313.234.469.453.469.156 0 .469-.094.469-.485 0-.593-.438-1.078-1.266-1.078-1.281 0-2.625 1.282-2.625 3.485 0 2.672 1.156 3.375 2.078 3.375 1.11 0 2.063-.938 2.063-2.25zm-.906-.016c0 .484 0 .984-.172 1.344-.297.594-.75.64-.985.64-.625 0-.922-.593-.984-.75-.188-.468-.188-1.265-.188-1.437 0-.781.329-1.781 1.22-1.781.171 0 .624 0 .937.625.172.36.172.875.172 1.36zm0 0"/><path fill="none" stroke="#000" stroke-linecap="round" stroke-miterlimit="10" stroke-width=".399" d="M283.09 146.734v-5.093"/><path d="m283.09 139.648-1.594 3.188 1.594-1.195 1.594 1.195m-5.104 10.117v-.266c-.515 0-.609 0-.609-.359v-1.797c0-.656-.312-1.094-1.14-1.094-.704 0-1.063.453-1.22.703v-2.718l-1.187.094v.265c.547 0 .61.047.61.438v4.109c0 .36-.094.36-.61.36v.265c.344-.031.688-.031.906-.031.235 0 .563 0 .907.031v-.266c-.5 0-.61 0-.61-.359v-1.438c0-.843.64-1.234 1.125-1.234s.61.344.61.844v1.828c0 .36-.094.36-.61.36v.265c.344-.031.703-.031.907-.031.234 0 .578 0 .921.031zm2.296 0v-.266c-.53 0-.562-.03-.562-.343v-2.907l-1.156.094v.266c.515 0 .578.047.578.437v2.094c0 .36-.094.36-.61.36v.265c.313-.031.766-.031.891-.031.094 0 .578 0 .86.031zm-.453-4.797a.453.453 0 0 0-.453-.453.45.45 0 0 0-.437.453c0 .234.187.438.437.438a.45.45 0 0 0 .453-.438zm4.836 1.594a.43.43 0 0 0-.453-.406c-.14 0-.531.047-.89.375a1.585 1.585 0 0 0-.891-.282c-.782 0-1.36.547-1.36 1.172 0 .375.203.656.375.813a.934.934 0 0 0 .094 1.36c-.422.108-.75.421-.75.78 0 .578.828 1.032 1.875 1.032 1 0 1.875-.407 1.875-1.047 0-.422-.25-.766-.516-.89-.468-.25-.86-.25-1.64-.25h-.453c-.25-.032-.438-.235-.438-.532 0-.188.047-.266.094-.328.344.187.656.234.844.234.78 0 1.375-.547 1.375-1.172 0-.297-.141-.562-.329-.765.11-.094.375-.266.766-.266-.031.016-.078.063-.078.188 0 .14.11.25.25.25a.25.25 0 0 0 .25-.266zm-1.5.86c0 .296-.031.5-.156.655a.703.703 0 0 1-.578.282c-.735 0-.735-.766-.735-.938 0-.297.031-.5.156-.656a.717.717 0 0 1 .579-.281c.734 0 .734.765.734.937zm.906 2.952c0 .422-.61.797-1.406.797-.797 0-1.406-.375-1.406-.797 0-.172.14-.64.78-.64h.767c.218 0 1.265 0 1.265.64zm5.201-.609v-.266c-.516 0-.61 0-.61-.359v-1.797c0-.656-.312-1.094-1.14-1.094-.703 0-1.062.453-1.219.703v-2.718l-1.187.094v.265c.547 0 .61.047.61.438v4.109c0 .36-.095.36-.61.36v.265c.344-.031.687-.031.906-.031.234 0 .563 0 .906.031v-.266c-.5 0-.61 0-.61-.359v-1.438c0-.843.642-1.234 1.126-1.234.484 0 .61.344.61.844v1.828c0 .36-.094.36-.61.36v.265c.344-.031.703-.031.906-.031.235 0 .578 0 .922.031zm-11.88 7.66v-.266c-.5 0-.61 0-.61-.359v-4.906l-1.187.094v.265c.547 0 .61.047.61.438v4.109c0 .36-.094.36-.61.36v.265c.313-.031.766-.031.906-.031.157 0 .578 0 .891.031zm4.211-1.703c0-.984-.829-1.844-1.875-1.844-1.047 0-1.875.86-1.875 1.844 0 1 .859 1.781 1.875 1.781 1.03 0 1.875-.781 1.875-1.781zm-.704-.063c0 .36-.015.797-.25 1.141-.203.313-.562.453-.921.453-.422 0-.766-.203-.938-.484-.203-.328-.219-.719-.219-1.11 0-.312 0-.78.235-1.125.218-.28.547-.437.922-.437.421 0 .765.203.937.469.219.343.234.765.234 1.093zm6.657-1.406v-.265c-.265.03-.28.03-.624.03-.25 0-.47 0-.72-.03v.265c.345.016.438.219.438.36 0 .109-.03.156-.046.203l-.75 1.984-.829-2.172c-.03-.11-.03-.125-.03-.156 0-.203.25-.219.437-.219v-.265c-.313.03-.735.03-.813.03-.172 0-.5 0-.734-.03v.265c.484 0 .5.047.656.469l-.734 1.969-.797-2.078c0-.032-.031-.11-.031-.141 0-.219.296-.219.437-.219v-.265c-.344.03-.703.03-.844.03-.14 0-.562 0-.781-.03v.265c.39 0 .469.031.563.25l1.062 2.813c.047.125.078.187.203.187.14 0 .172-.094.203-.187l.844-2.235.844 2.235c.047.093.078.187.219.187.125 0 .156-.078.187-.172l.969-2.531c.062-.187.203-.531.672-.547Zm0 0"/><path fill="#4384A1" d="M282.864 168.274v-.266c-.515 0-.61 0-.61-.359v-1.797c0-.64-.28-1.094-1.14-1.094-.734 0-1.11.5-1.234.735-.14-.578-.594-.735-1.11-.735a1.37 1.37 0 0 0-1.25.766v-.766l-1.156.094v.266c.547 0 .61.047.61.437v2.094c0 .36-.094.36-.61.36v.265c.344-.031.688-.031.906-.031.235 0 .563 0 .907.031v-.266c-.5 0-.61 0-.61-.359v-1.438c0-.843.64-1.234 1.14-1.234.517 0 .61.406.61.844v1.828c0 .36-.11.36-.61.36v.265c.345-.031.688-.031.907-.031.235 0 .563 0 .906.031v-.266c-.515 0-.609 0-.609-.359v-1.438c0-.843.64-1.234 1.14-1.234.516 0 .61.406.61.844v1.828c0 .36-.11.36-.61.36v.265c.344-.031.688-.031.907-.031.234 0 .562 0 .906.031zm2.304 0v-.266c-.532 0-.563-.03-.563-.343v-2.907l-1.156.094v.266c.516 0 .578.047.578.437v2.094c0 .36-.094.36-.61.36v.265c.313-.031.766-.031.891-.031.094 0 .578 0 .86.031zm-.453-4.797a.453.453 0 0 0-.454-.453.45.45 0 0 0-.437.453c0 .234.187.438.437.438a.45.45 0 0 0 .454-.438zm5.148 4.797v-.266c-.547 0-.61-.047-.61-.437v-4.828l-1.187.094v.265c.531 0 .61.047.61.438v1.687a1.409 1.409 0 0 0-1.079-.469c-1 0-1.875.782-1.875 1.797 0 .985.797 1.797 1.797 1.797.469 0 .86-.219 1.125-.5v.5zm-1.22-.984c0 .14 0 .172-.124.328a1.146 1.146 0 0 1-.953.515c-.375 0-.688-.187-.875-.484-.219-.313-.266-.703-.266-1.078 0-.469.078-.797.266-1.063a1.15 1.15 0 0 1 .953-.53c.375 0 .765.202 1 .608zm0 0"/><path d="M200.995 186.13c0-.953-.844-1.625-2.031-1.703 1.078-.204 1.719-.797 1.719-1.563 0-.922-.875-1.719-2.47-1.719h-4.327v.469h1.078v5.906h-1.078v.469h4.625c1.656 0 2.484-.875 2.484-1.86Zm-1.734-3.266c0 .766-.47 1.39-1.438 1.39h-1.562v-2.64h1.812c1.016 0 1.188.797 1.188 1.25zm.28 3.266c0 .109 0 1.39-1.437 1.39h-1.843v-2.906h1.937c.203 0 .672 0 1.016.422.328.422.328.984.328 1.094zm4.947 1.859v-.469h-.61v-4.015l-1.734.078v.469c.594 0 .657 0 .657.39v3.078h-.688v.469l1.219-.031Zm-.469-6.047a.774.774 0 0 0-.78-.781.784.784 0 0 0-.782.781c0 .422.36.766.781.766a.77.77 0 0 0 .781-.766zm6.928 6.047v-.469h-.687v-2.578c0-1.047-.531-1.437-1.531-1.437-.953 0-1.485.562-1.75 1.078v-1.078l-1.703.078v.469c.609 0 .687 0 .687.39v3.078h-.687v.469l1.25-.031 1.25.031v-.469h-.688v-2.078c0-1.094.86-1.578 1.5-1.578.328 0 .547.203.547.969v2.687h-.688v.469l1.25-.031zm5.757-.234c0-.235-.125-.235-.265-.235-.61-.015-.61-.14-.61-.375v-2.14c0-.891-.703-1.532-2.187-1.532-.563 0-1.782.047-1.782.922 0 .438.344.625.61.625.312 0 .625-.219.625-.625 0-.297-.188-.469-.219-.5a5.28 5.28 0 0 1 .719-.062c.75 0 1.11.422 1.11 1.172v.343c-.72.032-3.25.125-3.25 1.563 0 .953 1.234 1.14 1.921 1.14.797 0 1.266-.406 1.484-.828 0 .313 0 .766 1.047.766h.47c.202 0 .327 0 .327-.234zm-2-1.157c0 .97-.922 1.094-1.172 1.094-.515 0-.906-.344-.906-.797 0-1.062 1.578-1.203 2.078-1.234zm6.46-2.281c0-.531-.531-.812-1.063-.812-.687 0-1.093.5-1.312 1.125v-1.125l-1.656.078v.469c.61 0 .687 0 .687.39v3.078h-.687v.469l1.25-.031c.375 0 1.015 0 1.375.031v-.469h-.86v-1.75c0-.687.235-1.906 1.235-1.906 0 0-.188.172-.188.453 0 .406.328.61.61.61.296 0 .609-.204.609-.61zm6.097-.281v-.469a12.55 12.55 0 0 1-.781.031l-.906-.03v.468s.468 0 .468.11l-.062.124-1.14 2.453-1.266-2.687h.53v-.469l-1.233.031-1.125-.03v.468h.625l1.875 3.953-.235.484c-.219.47-.531 1.157-1.25 1.157-.14 0-.156-.016-.234-.047.094-.031.312-.172.312-.531 0-.329-.234-.563-.578-.563a.553.553 0 0 0-.562.578c0 .5.468.922 1.062.922.766 0 1.344-.625 1.625-1.188l2.14-4.562c.063-.14.095-.203.735-.203zm9.801 1.922c0-1.094-.797-1.906-1.72-2.094l-1.437-.313c-.406-.093-.953-.421-.953-1.03 0-.438.282-1.048 1.266-1.048.797 0 1.812.328 2.047 1.688.031.25.031.266.234.266.25 0 .25-.047.25-.282v-1.828c0-.187 0-.281-.187-.281-.078 0-.078.016-.188.11l-.453.437c-.578-.453-1.234-.547-1.703-.547-1.516 0-2.234.969-2.234 2.016 0 .64.328 1.093.53 1.312.5.5.829.563 1.923.797.875.203 1.047.219 1.265.437.14.141.39.407.39.86 0 .484-.25 1.172-1.296 1.172-.75 0-2.266-.203-2.344-1.688-.015-.172-.015-.219-.234-.219-.234 0-.234.047-.234.282v1.812c0 .188 0 .281.171.281.094 0 .11-.015.188-.093l.469-.453c.656.484 1.578.546 1.984.546 1.656 0 2.266-1.125 2.266-2.14zm5.568.859c0-.172-.187-.172-.233-.172-.172 0-.188.047-.25.203-.204.485-.782.797-1.422.797-1.407 0-1.422-1.328-1.422-1.828h3.015c.22 0 .313 0 .313-.266 0-.312-.063-1.046-.563-1.546-.359-.36-.89-.532-1.578-.532-1.593 0-2.468 1.032-2.468 2.266 0 1.344 1 2.313 2.609 2.313 1.578 0 2-1.063 2-1.235zm-.937-1.328h-2.39c.015-.39.031-.813.234-1.14.266-.391.672-.516.953-.516 1.172 0 1.188 1.312 1.203 1.656zm6.782 2.266c0-.235-.125-.235-.266-.235-.61-.015-.61-.14-.61-.375v-2.14c0-.891-.702-1.532-2.187-1.532-.562 0-1.78.047-1.78.922a.6.6 0 0 0 .609.625c.312 0 .625-.219.625-.625 0-.297-.188-.469-.22-.5a5.28 5.28 0 0 1 .72-.062c.75 0 1.109.422 1.109 1.172v.343c-.719.032-3.25.125-3.25 1.563 0 .953 1.234 1.14 1.922 1.14.797 0 1.265-.406 1.484-.828 0 .313 0 .766 1.047.766h.469c.203 0 .328 0 .328-.234zm-2-1.157c0 .97-.922 1.094-1.172 1.094-.516 0-.906-.344-.906-.797 0-1.062 1.578-1.203 2.078-1.234zm6.46-2.281c0-.531-.532-.812-1.063-.812-.687 0-1.094.5-1.312 1.125v-1.125l-1.657.078v.469c.61 0 .688 0 .688.39v3.078h-.688v.469l1.25-.031c.375 0 1.016 0 1.375.031v-.469h-.859v-1.75c0-.687.234-1.906 1.234-1.906 0 0-.187.172-.187.453 0 .406.328.61.61.61.296 0 .609-.204.609-.61zm5.081 2.5c0-.14-.14-.14-.234-.14-.188 0-.188.03-.25.156-.25.625-.734.812-1.234.812-1.391 0-1.391-1.453-1.391-1.922 0-.562 0-1.843 1.281-1.843.36 0 .516.015.656.047a.618.618 0 0 0-.203.468c0 .438.344.625.61.625.312 0 .64-.219.64-.625 0-.86-1.156-.922-1.734-.922-1.797 0-2.531 1.141-2.531 2.297 0 1.328.937 2.281 2.468 2.281 1.625 0 1.922-1.156 1.922-1.234zm6.142 1.172v-.469h-.688v-2.578c0-1.047-.531-1.437-1.531-1.437a1.9 1.9 0 0 0-1.688.953v-3.39l-1.765.077v.469c.61 0 .687 0 .687.39v5.516h-.687v.469l1.25-.031 1.25.031v-.469h-.688v-2.078c0-1.094.86-1.578 1.5-1.578.328 0 .547.203.547.969v2.687h-.687v.469l1.25-.031zm0 0"/></svg>