<svg xmlns="http://www.w3.org/2000/svg" width="269.52" height="143.293" viewBox="0 0 202.14 107.47"><path fill="none" stroke="#000" stroke-miterlimit="10" stroke-width=".399" d="M38.078 80.543h18.426V9.003H38.078Zm18.426-59.617H38.078m18.426 11.926H38.078m18.426 11.921H38.078M56.504 56.7H38.078m18.426 11.922H38.078"/><path d="M27.04 94.129h-.25c-.22 1.406-.453 2.047-2 2.047h-1.25c-.422 0-.453-.063-.453-.36V93.41h.843c.875 0 .985.281.985 1.063h.265v-2.391h-.265c0 .781-.11 1.047-.985 1.047h-.843v-2.14c0-.313.03-.376.453-.376h1.203c1.406 0 1.656.485 1.797 1.75h.25l-.25-2.031h-5.172v.281h.203c.687 0 .719.11.719.438v4.687c0 .344-.032.438-.72.438h-.202v.281h5.297zm7.775 2.328v-.281c-.469 0-.687 0-.703-.281v-1.72c0-.78 0-1.046-.297-1.374-.187-.219-.547-.328-.953-.328-.656 0-1.094.39-1.344.859-.11-.531-.469-.86-1.219-.86-.718 0-1.171.47-1.359.891v-.89l-1.312.109v.281c.609 0 .703.063.703.5v2.407c0 .406-.11.406-.703.406v.281c.421-.016.593-.031 1.03-.031.423 0 .548.015 1.016.031v-.281c-.593 0-.687 0-.687-.406v-1.641c0-.969.703-1.422 1.25-1.422.484 0 .656.344.656.984v2.079c0 .406-.11.406-.703.406v.281c.422-.016.594-.031 1.031-.031.438 0 .547.015 1.032.031v-.281c-.594 0-.704 0-.704-.406v-1.641c0-.969.704-1.422 1.25-1.422.485 0 .657.344.657.984v2.079c0 .406-.11.406-.703.406v.281c.437-.016.593-.031 1.03-.031.438 0 .548.015 1.032.031Zm5.032-1.937c0-1.141-.89-2.047-1.953-2.047-.484 0-.937.203-1.266.578v-.578l-1.343.109v.281c.64 0 .703.047.703.438v4.203c0 .422-.11.422-.703.422v.281c.422-.016.593-.031 1.03-.031.438 0 .548.015 1.032.031v-.281c-.594 0-.703 0-.703-.422V96.02c.234.234.547.53 1.14.53 1.063 0 2.063-.859 2.063-2.03zm-.781 0c0 1.015-.61 1.812-1.344 1.812-.406 0-.734-.234-.953-.547-.125-.187-.125-.203-.125-.375v-1.984a1.39 1.39 0 0 1 1.188-.688c.703 0 1.234.797 1.234 1.782zm4.17.828v-.516h-.25v.484c0 .657-.281.985-.61.985-.593 0-.593-.781-.593-.953v-2.485h1.297v-.281h-1.297v-1.656h-.25c-.016.75-.328 1.672-1.203 1.703v.234h.781v2.485c0 1 .735 1.203 1.203 1.203.61 0 .922-.578.922-1.203zm4.949-2.485v-.281a13.01 13.01 0 0 1-.688.016c-.25 0-.531 0-.781-.016v.281c.406.016.406.328.406.375a.589.589 0 0 1-.062.25l-.922 2.157-1-2.36c-.063-.125-.063-.187-.063-.187 0-.235.313-.235.5-.235v-.281l-1 .016c-.031 0-.531 0-.89-.016v.281c.406 0 .578.016.687.25l1.422 3.344-.234.531c-.188.485-.454 1.094-1.032 1.094a.646.646 0 0 1-.406-.14c.063-.016.313-.079.313-.391 0-.235-.157-.375-.375-.375-.22 0-.375.14-.375.39 0 .407.375.735.843.735.578 0 .969-.516 1.188-1.016l1.625-3.812c.094-.235.265-.594.844-.61Zm7.877 1.922c0-.5-.187-.906-.39-1.172-.39-.5-.797-.593-1.39-.734l-.782-.188c-.719-.171-.953-.75-.953-1.14 0-.61.484-1.188 1.234-1.188 1.156 0 1.625.86 1.766 1.782.015.156.031.203.14.203.125 0 .125-.063.125-.25v-1.735c0-.172 0-.25-.109-.25-.063 0-.078 0-.14.11-.11.172-.016.047-.329.515-.14-.172-.61-.625-1.453-.625-1.062 0-1.812.813-1.812 1.735 0 .703.421 1.14.468 1.187.407.39.563.438 1.641.688.719.172.797.187 1.094.5 0 0 .328.328.328.859 0 .625-.453 1.297-1.266 1.297-.687 0-1.937-.297-2.015-1.781-.016-.125-.016-.188-.125-.188-.125 0-.125.078-.125.25v1.75c0 .172 0 .25.109.25.062 0 .062-.015.125-.125.125-.156.031-.047.328-.515.563.546 1.266.64 1.719.64 1.094 0 1.812-.906 1.812-1.875zm3.608.563v-.516h-.25v.484c0 .657-.281.985-.61.985-.593 0-.593-.781-.593-.953v-2.485h1.297v-.281h-1.297v-1.656h-.25c-.016.75-.328 1.672-1.203 1.703v.234h.781v2.485c0 1 .734 1.203 1.203 1.203.61 0 .922-.578.922-1.203zm4.99.312v-.515h-.25v.5c0 .093 0 .546-.327.546-.313 0-.313-.421-.313-.578v-1.562c0-.516 0-.828-.406-1.188a1.826 1.826 0 0 0-1.219-.437c-.75 0-1.39.375-1.39.953 0 .281.187.437.421.437a.41.41 0 0 0 .422-.421c0-.391-.406-.422-.406-.422.234-.235.672-.328.938-.328.453 0 .968.343.968 1.14v.297c-.484.016-1.156.063-1.765.344-.641.328-.844.797-.844 1.156 0 .734.875.969 1.469.969a1.31 1.31 0 0 0 1.218-.735c.047.375.313.688.704.688.218 0 .78-.125.78-.844zm-1.562-.469c0 .875-.672 1.141-1.062 1.141-.438 0-.828-.312-.828-.75 0-.594.515-1.234 1.89-1.281zm5.564.188c0-.094-.094-.094-.125-.094-.094 0-.094.016-.156.156-.204.625-.704.86-1.172.86-.578 0-1.313-.469-1.313-1.797 0-1.406.719-1.828 1.266-1.828.11 0 .594.015.937.25-.187.031-.375.156-.375.422 0 .234.188.406.422.406.235 0 .422-.156.422-.422 0-.562-.64-.906-1.422-.906-1.156 0-2.015.969-2.015 2.094 0 1.156.921 2.03 1.984 2.03 1.266 0 1.547-1.077 1.547-1.171zm4.736 1.078v-.281c-.297 0-.516 0-.844-.438l-1.281-1.734c.89-.766 1.297-1.125 1.922-1.14v-.282c-.328.016-.344.016-.672.016l-.985-.016v.281c.125 0 .235.063.235.203 0 .172-.14.297-.219.36l-1.266 1.078v-4.297l-1.343.11v.265c.609 0 .703.063.703.516v4.672c0 .406-.11.406-.703.406v.281l1-.031 1 .031v-.281c-.594 0-.688 0-.688-.406v-.922l.578-.485.875 1.188c.14.187.203.297.203.422 0 .093-.015.203-.296.203v.281l.968-.031c.266 0 .547 0 .813.031zm0 0"/><path fill="none" stroke="#000" stroke-miterlimit="10" stroke-width=".399" d="M27.957 77.91h7.93"/><path d="m37.879 77.91-3.188-1.594 1.196 1.594-1.196 1.594m-21.367-.655a1.7 1.7 0 0 0-1.687-1.688c-.594 0-.969.329-1.094.47v-2.36l-1.11.078v.25c.5 0 .563.047.563.422v4.453h.235l.265-.469c.188.266.547.547 1.047.547.953 0 1.781-.734 1.781-1.703zm-.672 0c0 .172 0 .703-.265 1.062a1.129 1.129 0 0 1-.875.422c-.36 0-.656-.187-.844-.468-.094-.141-.094-.157-.094-.297v-1.469c0-.14 0-.156.11-.281.218-.282.562-.438.906-.438.39 0 .687.235.828.453.125.203.234.47.234 1.016zm4.8.953v-.422h-.234v.422c0 .297-.11.422-.266.422-.28 0-.28-.344-.28-.422V78.24c0-.735-.72-1.11-1.392-1.11-.624 0-1.187.235-1.187.735 0 .218.156.359.36.359.203 0 .343-.156.343-.36a.352.352 0 0 0-.265-.343c.265-.188.671-.188.734-.188.406 0 .828.297.828.907v.234c-.438.031-.938.047-1.453.266-.672.28-.797.718-.797.968 0 .641.766.844 1.281.844.547 0 .89-.312 1.047-.61.047.282.235.563.563.563.078 0 .718-.031.718-.703Zm-1.359-.39c0 .734-.61.921-.906.921-.39 0-.719-.25-.719-.609 0-.5.453-1.016 1.625-1.047zm4.357.093c0-.36-.218-.89-1.109-1.047a9.339 9.339 0 0 0-.515-.093c-.235-.047-.579-.204-.579-.516 0-.219.157-.531.875-.531.844 0 .875.61.891.828 0 .062.063.078.11.078.124 0 .124-.047.124-.188v-.718c0-.11 0-.188-.093-.188-.047 0-.063 0-.188.125-.015 0-.078.063-.11.063 0 0-.015 0-.062-.032-.125-.078-.343-.156-.672-.156-1.046 0-1.28.563-1.28.922 0 .375.28.594.296.625.297.219.469.25.969.344.36.062.937.172.937.687 0 .282-.203.625-.89.625-.75 0-.97-.578-1.063-.984-.031-.094-.047-.125-.14-.125-.11 0-.11.062-.11.203v.922c0 .125 0 .203.094.203.047 0 .047-.016.187-.156.032-.031.125-.125.157-.172.343.312.687.328.89.328.953 0 1.282-.547 1.282-1.047zm3.58.063c0-.032-.03-.094-.125-.094-.078 0-.093.047-.109.094-.265.718-.922.75-1.047.75-.343 0-.687-.157-.906-.5-.234-.344-.234-.828-.234-1.047h2.203c.172 0 .218 0 .218-.172 0-.672-.375-1.469-1.437-1.469-.922 0-1.656.766-1.656 1.703 0 .97.812 1.72 1.765 1.72.953 0 1.328-.813 1.328-.985zm-.515-1h-1.89c.062-1.047.702-1.235.968-1.235.89 0 .922 1.063.922 1.235zm0 0"/><path fill="none" stroke="#000" stroke-miterlimit="10" stroke-width=".399" d="M27.957 72.238h7.93"/><path d="m37.879 72.238-3.188-1.593 1.196 1.593-1.196 1.594m-19.296-.952v-.421h-.22v.406c0 .516-.234.797-.53.797-.5 0-.5-.64-.5-.766v-2.062h1.125v-.25h-1.125v-1.375h-.235c0 .672-.312 1.39-1 1.422v.203h.672v2.047c0 .875.672 1.015 1.016 1.015.5 0 .797-.453.797-1.015zm4.207-.656a1.76 1.76 0 0 0-1.766-1.75 1.77 1.77 0 0 0-1.766 1.75c0 .938.813 1.672 1.766 1.672.969 0 1.766-.734 1.766-1.672Zm-.672-.078c0 .36-.016.766-.22 1.078-.202.297-.546.438-.874.438-.406 0-.719-.203-.875-.453-.188-.313-.219-.688-.219-1.063 0-.281 0-.734.235-1.047.187-.265.515-.422.859-.422.39 0 .719.188.89.454.204.312.204.718.204 1.015zm5.06.047c0-.937-.765-1.687-1.672-1.687-.28 0-.718.078-1.109.468v-.468l-1.11.093v.235c.532 0 .563.047.563.359v3.5c0 .328-.078.328-.562.328v.25c.312-.015.656-.015.859-.015.203 0 .531 0 .844.015v-.25c-.469 0-.563 0-.563-.328v-1.25c.344.39.735.453.969.453.953 0 1.781-.734 1.781-1.703zm-.672 0c0 .875-.53 1.484-1.14 1.484a.978.978 0 0 1-.844-.484c-.094-.125-.094-.125-.094-.281v-1.594a1.195 1.195 0 0 1 1.016-.578c.578 0 1.062.64 1.062 1.453zm0 0"/><path fill="none" stroke="#000" stroke-miterlimit="10" stroke-width=".399" d="M127.77 83.21h18.425V6.337H127.77Zm18.425-64.948H127.77m18.425 8.508H127.77m18.425 11.925H127.77m18.425 15.032H127.77m18.425 14.57H127.77"/><path d="M134.619 22.51a.554.554 0 1 0-1.112.013.554.554 0 0 0 1.112-.013zm2.919 0a.554.554 0 1 0-1.112.013.554.554 0 0 0 1.112-.013zm2.919 0a.554.554 0 1 0-1.112.013.554.554 0 0 0 1.112-.013zm-.282 24.833c0-.094 0-.172-.14-.172-.11 0-.11.063-.125.172-.078 1.5-1.203 2.36-2.344 2.36-.64 0-2.703-.36-2.703-3.485 0-3.14 2.047-3.5 2.687-3.5 1.141 0 2.078.953 2.282 2.484.03.157.03.188.171.188.172 0 .172-.031.172-.25v-2.5c0-.172 0-.25-.125-.25-.03 0-.078 0-.156.125l-.531.781c-.39-.375-.922-.906-1.938-.906-1.953 0-3.64 1.672-3.64 3.812 0 2.172 1.687 3.828 3.64 3.828 1.72 0 2.75-1.468 2.75-2.687zm-.082 15.331c0-.906-.86-1.703-2.016-1.828 1.016-.203 1.735-.875 1.735-1.64 0-.922-.953-1.782-2.328-1.782h-3.844v.328h.25c.813 0 .828.11.828.485v5.547c0 .375-.016.484-.828.484h-.25v.328h4.125c1.39 0 2.328-.937 2.328-1.922Zm-1.297-3.469c0 .672-.515 1.547-1.672 1.547h-1.53v-2.578c0-.344.03-.422.515-.422h1.297c1.03 0 1.39.89 1.39 1.453zm.25 3.454c0 .75-.547 1.609-1.625 1.609h-1.312c-.485 0-.516-.078-.516-.422v-2.86h1.984c1.032 0 1.47.97 1.47 1.673zm1.529 16.853v-.328h-.187c-.64 0-.781-.078-.89-.422l-2.282-6.562c-.047-.125-.063-.204-.234-.204-.172 0-.204.063-.25.204l-2.172 6.28c-.188.532-.61.688-1.172.704v.328l1.062-.031 1.203.031v-.328c-.515 0-.78-.266-.78-.531 0-.032.015-.141.015-.157l.484-1.375h2.594l.562 1.61c0 .031.032.094.032.14 0 .313-.594.313-.875.313v.328c.375-.031 1.109-.031 1.515-.031Zm-2.718-2.719h-2.36l1.172-3.406Zm0 0"/><path fill="none" stroke="#000" stroke-miterlimit="10" stroke-width=".399" d="M117.648 76.324h7.93"/><path d="m127.57 76.324-3.187-1.594 1.195 1.594-1.195 1.594m-21.368-.654a1.7 1.7 0 0 0-1.687-1.688c-.594 0-.969.329-1.094.47v-2.36l-1.11.078v.25c.5 0 .563.047.563.422v4.453h.235l.265-.469c.188.266.547.547 1.047.547.953 0 1.781-.734 1.781-1.703zm-.672 0c0 .172 0 .703-.265 1.063a1.129 1.129 0 0 1-.875.421c-.36 0-.656-.187-.844-.468-.094-.141-.094-.157-.094-.297v-1.469c0-.14 0-.156.11-.281.218-.282.562-.438.906-.438.39 0 .687.235.828.453.125.203.234.47.234 1.016zm4.8.953v-.422h-.234v.422c0 .297-.11.422-.266.422-.28 0-.28-.344-.28-.422v-1.562c0-.735-.72-1.11-1.391-1.11-.625 0-1.188.235-1.188.735 0 .218.156.359.36.359.203 0 .343-.156.343-.36a.352.352 0 0 0-.265-.343c.265-.188.671-.188.734-.188.406 0 .828.297.828.907v.234c-.438.031-.938.047-1.453.266-.672.28-.797.718-.797.968 0 .641.766.844 1.281.844.547 0 .89-.312 1.047-.61.047.282.235.563.563.563.078 0 .718-.031.718-.703Zm-1.359-.39c0 .734-.61.921-.906.921-.39 0-.719-.25-.719-.609 0-.5.453-1.016 1.625-1.047zm4.357.093c0-.36-.218-.89-1.109-1.047a9.339 9.339 0 0 0-.516-.093c-.234-.047-.578-.204-.578-.516 0-.219.157-.531.875-.531.844 0 .875.61.891.828 0 .062.063.078.11.078.124 0 .124-.047.124-.188v-.718c0-.11 0-.188-.093-.188-.047 0-.063 0-.188.125-.016 0-.078.063-.11.063 0 0-.015 0-.062-.032-.125-.078-.344-.156-.672-.156-1.047 0-1.28.563-1.28.922 0 .375.28.594.296.625.297.219.469.25.969.344.36.062.937.172.937.687 0 .282-.203.625-.89.625-.75 0-.97-.578-1.063-.984-.031-.094-.047-.125-.14-.125-.11 0-.11.063-.11.203v.922c0 .125 0 .203.094.203.047 0 .047-.016.187-.156.032-.031.125-.125.157-.172.343.313.687.328.89.328.953 0 1.281-.547 1.281-1.047zm3.581.063c0-.032-.032-.094-.125-.094-.079 0-.094.047-.11.094-.265.718-.922.75-1.047.75-.343 0-.687-.157-.906-.5-.234-.344-.234-.828-.234-1.047h2.203c.172 0 .219 0 .219-.172 0-.672-.375-1.469-1.438-1.469-.922 0-1.656.766-1.656 1.703 0 .97.812 1.72 1.765 1.72.954 0 1.329-.813 1.329-.985zm-.516-1h-1.89c.062-1.047.702-1.235.968-1.235.89 0 .922 1.063.922 1.235zm0 0"/><path fill="none" stroke="#000" stroke-miterlimit="10" stroke-width=".399" d="M117.648 33.066h7.93"/><path d="m127.57 33.066-3.187-1.593 1.195 1.593-1.195 1.594m-19.298-.951v-.422h-.22v.406c0 .516-.233.797-.53.797-.5 0-.5-.64-.5-.766v-2.062h1.125v-.25h-1.125v-1.375h-.235c0 .672-.312 1.39-1 1.422v.203h.672v2.047c0 .874.672 1.015 1.016 1.015.5 0 .797-.453.797-1.015zm4.206-.657a1.76 1.76 0 0 0-1.765-1.75 1.77 1.77 0 0 0-1.766 1.75c0 .938.813 1.672 1.766 1.672.969 0 1.766-.734 1.766-1.672Zm-.671-.078c0 .36-.016.766-.22 1.078-.202.297-.546.438-.874.438-.406 0-.719-.203-.875-.453-.188-.313-.219-.688-.219-1.063 0-.281 0-.734.234-1.047.188-.265.516-.422.86-.422.39 0 .719.188.89.454.204.312.204.718.204 1.015zm5.06.047c0-.938-.765-1.688-1.672-1.688-.28 0-.718.079-1.109.47v-.47l-1.11.094v.235c.532 0 .563.047.563.359v3.5c0 .328-.078.328-.562.328v.25c.312-.015.656-.015.859-.015.203 0 .531 0 .844.015v-.25c-.469 0-.563 0-.563-.328v-1.25c.344.39.735.453.969.453.953 0 1.781-.734 1.781-1.703zm-.672 0c0 .875-.53 1.484-1.14 1.484a.978.978 0 0 1-.844-.484c-.094-.125-.094-.125-.094-.281v-1.594a1.195 1.195 0 0 1 1.016-.578c.578 0 1.062.64 1.062 1.453zm40.736 43.327c0-.797-.094-1.297-.328-1.765-.344-.672-.938-.828-1.36-.828-.937 0-1.28.703-1.39.906-.266.547-.281 1.297-.281 1.687 0 .5.015 1.25.375 1.844.343.563.906.703 1.296.703.36 0 1.016-.11 1.391-.86.266-.53.297-1.202.297-1.687Zm-.672-.093c0 .437 0 1.125-.094 1.546-.156.782-.672.891-.922.891s-.765-.125-.921-.906c-.094-.438-.094-1.14-.094-1.531 0-.516 0-1.047.094-1.454.156-.765.734-.843.921-.843.266 0 .782.125.922.812.094.406.094.969.094 1.485Zm.359-12.32v-.25h-.265c-.719 0-.735-.094-.735-.36v-4.171c0-.203-.015-.203-.218-.203-.313.297-.703.484-1.422.484v.234c.203 0 .61 0 1.047-.203v3.86c0 .265-.032.359-.735.359h-.265v.25c.312-.016.953-.016 1.297-.016.328 0 .984 0 1.296.016zm.219-16.225h-.234c-.016.156-.078.53-.172.671-.047.063-.61.063-.734.063h-1.329l1-.922c.125-.11.438-.36.563-.469.469-.422.906-.828.906-1.516 0-.89-.75-1.468-1.687-1.468-.907 0-1.5.672-1.5 1.343 0 .375.297.422.406.422.156 0 .39-.11.39-.39 0-.391-.374-.391-.468-.391a1.162 1.162 0 0 1 1.094-.734c.687 0 1.046.593 1.046 1.218 0 .782-.546 1.344-1.421 2.25l-.954.985c-.093.078-.093.094-.093.281h2.968zm.063-13.398c0-.625-.485-1.188-1.25-1.36.593-.203 1.03-.718 1.03-1.312 0-.61-.671-1.031-1.452-1.031-.813 0-1.406.437-1.406 1 0 .28.187.406.375.406.234 0 .375-.172.375-.39 0-.282-.235-.376-.391-.391.312-.407.89-.438 1.016-.438.203 0 .765.063.765.844 0 .515-.219.828-.312.953-.235.234-.407.25-.86.281-.14 0-.203.016-.203.11 0 .109.063.109.188.109h.375c.593 0 .968.437.968 1.219 0 .937-.53 1.218-.921 1.218-.422 0-.985-.156-1.235-.546.266 0 .453-.172.453-.422s-.172-.422-.406-.422a.414.414 0 0 0-.422.437c0 .703.766 1.172 1.625 1.172 1 0 1.688-.687 1.688-1.437zm.004-20.909c0-.36-.219-.89-1.11-1.047a9.339 9.339 0 0 0-.515-.093c-.234-.047-.578-.204-.578-.516 0-.219.156-.531.875-.531.844 0 .875.61.89.828 0 .062.063.078.11.078.125 0 .125-.047.125-.188v-.718c0-.11 0-.188-.094-.188-.047 0-.062 0-.187.125-.016 0-.078.063-.11.063 0 0-.015 0-.062-.031-.125-.079-.344-.157-.672-.157-1.047 0-1.281.563-1.281.922 0 .375.28.594.297.625.296.219.468.25.968.344.36.062.938.172.938.687 0 .282-.203.625-.89.625-.75 0-.97-.578-1.063-.984-.032-.094-.047-.125-.141-.125-.11 0-.11.063-.11.203v.922c0 .125 0 .203.094.203.047 0 .047-.015.188-.156.031-.031.125-.125.156-.172.344.313.688.328.89.328.954 0 1.282-.547 1.282-1.047zm2.908.031v-.421h-.219v.406c0 .515-.234.797-.53.797-.5 0-.5-.64-.5-.766v-2.062h1.124v-.25h-1.125V9.763h-.234c0 .671-.313 1.39-1 1.421v.204h.672v2.046c0 .876.672 1.016 1.015 1.016.5 0 .797-.453.797-1.015zm4.316.266v-.422h-.234v.422c0 .297-.11.422-.266.422-.28 0-.28-.344-.28-.422v-1.562c0-.735-.72-1.11-1.392-1.11-.625 0-1.187.235-1.187.735 0 .218.156.359.36.359.202 0 .343-.156.343-.36a.352.352 0 0 0-.266-.343c.266-.188.672-.188.735-.188.406 0 .828.297.828.907v.234c-.438.031-.938.047-1.453.266-.672.28-.797.718-.797.968 0 .641.766.844 1.281.844.547 0 .89-.312 1.047-.61.047.282.234.563.563.563.078 0 .718-.031.718-.703Zm-1.359-.39c0 .734-.61.921-.906.921-.39 0-.719-.25-.719-.609 0-.5.453-1.016 1.625-1.047zm4.795.156c0-.078-.11-.078-.125-.078-.047 0-.094 0-.11.078-.062.156-.265.75-1.015.75-.469 0-1.125-.36-1.125-1.469 0-1.078.547-1.484 1.094-1.484.062 0 .469 0 .734.125a.348.348 0 0 0-.25.343c0 .204.14.344.36.344.187 0 .343-.14.343-.36 0-.468-.5-.687-1.203-.687a1.72 1.72 0 0 0-1.75 1.719 1.71 1.71 0 0 0 1.719 1.703c1.062 0 1.328-.89 1.328-.984zm4.065.906v-.25c-.313 0-.453-.031-.719-.375l-1.094-1.422.641-.5c.5-.39.813-.437 1-.437v-.25c-.172.03-.281.03-.594.03-.359 0-.468-.015-.796-.03v.25c.14 0 .171.109.171.156 0 .156-.156.281-.218.328l-1.078.86V9.168l-1.11.078v.25c.5 0 .563.047.563.422v3.875c0 .328-.078.328-.563.328v.25c.297-.016.688-.016.828-.016s.531 0 .828.016v-.25c-.484 0-.578 0-.578-.328v-.735l.516-.406c.016 0 .219.266.344.406.109.157.234.313.343.454.11.156.266.343.266.468s-.14.141-.234.141v.25c.328-.016.656-.016.797-.016.28 0 .421 0 .687.016zm3.02-.969c0-.36-.219-.89-1.11-1.047a9.339 9.339 0 0 0-.515-.093c-.234-.047-.578-.204-.578-.516 0-.219.156-.531.875-.531.844 0 .875.61.89.828 0 .062.063.078.11.078.125 0 .125-.047.125-.188v-.718c0-.11 0-.188-.094-.188-.047 0-.062 0-.187.125-.016 0-.078.063-.11.063 0 0-.015 0-.062-.031-.125-.079-.344-.157-.672-.157-1.047 0-1.281.563-1.281.922 0 .375.28.594.297.625.296.219.468.25.968.344.36.062.938.172.938.687 0 .282-.203.625-.89.625-.75 0-.97-.578-1.063-.984-.032-.094-.047-.125-.141-.125-.11 0-.11.063-.11.203v.922c0 .125 0 .203.094.203.047 0 .047-.015.188-.156.031-.031.125-.125.156-.172.344.313.688.328.89.328.954 0 1.282-.547 1.282-1.047zm2.221.969v-.25c-.485 0-.516-.031-.516-.328v-2.735l-1.094.094v.235c.469 0 .547.046.547.421v1.985c0 .328-.094.328-.578.328v.25c.297-.016.719-.016.828-.016.094 0 .547 0 .813.016zm-.438-4.516a.407.407 0 0 0-.406-.421.407.407 0 0 0-.406.421c0 .22.172.407.406.407a.403.403 0 0 0 .406-.407zm3.9 3.063h-.234c-.078.875-.219 1.219-1.14 1.219h-.891l2.171-2.735c.063-.062.079-.078.079-.14 0-.125-.094-.125-.22-.125h-2.546l-.094 1.25h.234c.047-.782.204-1.032 1.047-1.032h.86l-2.172 2.735c-.063.078-.078.094-.078.156 0 .125.094.125.219.125h2.625zm3.649.547c0-.031-.03-.094-.125-.094-.078 0-.093.047-.109.094-.266.719-.922.75-1.047.75-.344 0-.687-.156-.906-.5-.234-.344-.234-.828-.234-1.047h2.203c.172 0 .218 0 .218-.172 0-.672-.375-1.469-1.437-1.469-.922 0-1.656.766-1.656 1.703 0 .97.812 1.72 1.765 1.72.953 0 1.328-.813 1.328-.985zm-.515-1h-1.89c.062-1.047.702-1.235.968-1.235.89 0 .922 1.063.922 1.235zm5.594.531v-.484h-2.11v.484Zm6.466 1.375v-.25h-.266c-.718 0-.734-.094-.734-.36v-4.17c0-.203-.016-.203-.219-.203-.312.296-.703.484-1.422.484v.234c.203 0 .61 0 1.047-.203v3.86c0 .265-.031.359-.734.359h-.266v.25c.313-.016.953-.016 1.297-.016.328 0 .984 0 1.297.016zm-92.338 80.245c0-.5-.187-.906-.39-1.172-.39-.5-.797-.593-1.39-.734l-.782-.188c-.719-.171-.953-.75-.953-1.14 0-.61.484-1.188 1.234-1.188 1.156 0 1.625.86 1.766 1.782.015.156.031.203.14.203.125 0 .125-.063.125-.25v-1.735c0-.172 0-.25-.109-.25-.063 0-.078 0-.14.11-.11.172-.016.047-.329.515-.14-.172-.61-.625-1.453-.625-1.062 0-1.812.813-1.812 1.735 0 .703.421 1.14.468 1.187.407.39.563.438 1.641.688.719.172.797.187 1.094.5 0 0 .328.328.328.859 0 .625-.453 1.297-1.266 1.297-.687 0-1.937-.297-2.015-1.781-.016-.125-.016-.188-.125-.188-.125 0-.125.078-.125.25v1.75c0 .172 0 .25.109.25.062 0 .062-.015.125-.125.125-.156.031-.047.328-.515.563.546 1.266.64 1.719.64 1.094 0 1.812-.906 1.812-1.875zm3.609.563v-.516h-.25v.484c0 .657-.282.985-.61.985-.594 0-.594-.781-.594-.953v-2.485h1.297v-.281h-1.297v-1.656h-.25c-.016.75-.328 1.672-1.203 1.703v.234h.781v2.485c0 1 .735 1.203 1.203 1.203.61 0 .922-.578.922-1.203zm4.99.312v-.515h-.25v.5c0 .093 0 .546-.328.546-.313 0-.313-.421-.313-.578v-1.562c0-.516 0-.828-.406-1.188a1.826 1.826 0 0 0-1.219-.437c-.75 0-1.39.375-1.39.953 0 .281.187.437.421.437a.41.41 0 0 0 .422-.421c0-.391-.406-.422-.406-.422.234-.235.672-.328.938-.328.453 0 .968.343.968 1.14v.297c-.484.016-1.156.063-1.765.344-.641.328-.844.797-.844 1.156 0 .734.875.969 1.469.969a1.31 1.31 0 0 0 1.218-.735c.047.375.313.688.704.688.218 0 .78-.125.78-.844zm-1.563-.469c0 .875-.672 1.141-1.062 1.141-.438 0-.828-.312-.828-.75 0-.594.515-1.234 1.89-1.281zm5.563.187c0-.093-.093-.093-.124-.093-.094 0-.094.016-.156.156-.204.625-.704.86-1.172.86-.578 0-1.313-.469-1.313-1.797 0-1.406.719-1.828 1.266-1.828.11 0 .594.015.937.25-.187.031-.375.156-.375.422 0 .234.188.406.422.406.235 0 .422-.156.422-.422 0-.562-.64-.906-1.422-.906-1.156 0-2.015.969-2.015 2.094 0 1.156.921 2.03 1.984 2.03 1.266 0 1.547-1.077 1.547-1.171zm4.728 1.079v-.281c-.297 0-.516 0-.844-.438l-1.281-1.734c.89-.766 1.297-1.125 1.922-1.14v-.282c-.329.016-.344.016-.672.016l-.985-.016v.281c.125 0 .235.063.235.203 0 .172-.14.297-.219.36l-1.266 1.078v-4.297l-1.343.11v.265c.609 0 .703.063.703.516v4.672c0 .406-.11.406-.703.406v.281l1-.031 1 .031v-.281c-.594 0-.688 0-.688-.406v-.922l.578-.485.875 1.188c.14.187.203.297.203.422 0 .093-.015.203-.297.203v.281l.97-.031c.265 0 .546 0 .812.031zm9.722-3.594v-.281c-.36.016-.376.016-.672.016-.344 0-.47 0-.829-.016v.281c.391 0 .516.25.516.422a.39.39 0 0 1-.047.203l-.828 2.25-.906-2.453c-.047-.125-.047-.156-.047-.172 0-.234.281-.25.516-.25v-.281c-.422.016-.782.016-.922.016-.282 0-.547 0-.829-.016v.281c.282 0 .454 0 .563.125.078.11.188.469.188.485l-.032.125-.75 2.03-.844-2.343c-.062-.125-.062-.156-.062-.187 0-.235.36-.235.531-.235v-.281l-.984.016c-.297 0-.563 0-.86-.016v.281c.422 0 .547.016.657.313l1.156 3.187c.047.11.063.188.203.188s.172-.094.203-.188l.922-2.515.922 2.515c.047.094.078.188.219.188.125 0 .156-.078.187-.172l1.078-2.922c.203-.562.563-.594.75-.594zm2.474 3.594v-.281c-.594 0-.625-.047-.625-.39v-3.313l-1.297.109v.281c.578 0 .657.047.657.485v2.422c0 .406-.094.406-.688.406v.281c.406-.016.594-.031.984-.031.141 0 .532 0 .97.031zm-.515-5.422a.468.468 0 0 0-.485-.484.477.477 0 0 0-.484.484c0 .266.219.485.484.485a.477.477 0 0 0 .485-.485zm3.886 4.313v-.516h-.25v.484c0 .657-.281.985-.61.985-.593 0-.593-.781-.593-.953v-2.485h1.297v-.281h-1.297v-1.656h-.25c-.016.75-.328 1.672-1.203 1.703v.234h.781v2.485c0 1 .734 1.203 1.203 1.203.61 0 .922-.578.922-1.203zm5.444 1.109v-.281c-.453 0-.688 0-.688-.281v-1.72c0-.75 0-1.015-.25-1.327-.218-.25-.562-.375-1-.375-.609 0-1.046.328-1.328.828h-.015v-3.094l-1.328.11v.265c.609 0 .703.063.703.516v4.672c0 .406-.11.406-.703.406v.281c.421-.016.593-.031 1.03-.031.423 0 .548.015 1.016.031v-.281c-.593 0-.687 0-.687-.406V93.96c0-.953.672-1.422 1.25-1.422.531 0 .64.438.64.984v2.079c0 .406-.093.406-.687.406v.281c.422-.016.594-.031 1.016-.031.437 0 .562.015 1.03.031zm9.32-2.329h-.25c-.22 1.407-.453 2.048-2 2.048h-1.25c-.422 0-.453-.063-.453-.36v-2.406h.843c.875 0 .985.281.985 1.063h.265v-2.391h-.265c0 .781-.11 1.047-.985 1.047h-.843v-2.14c0-.313.03-.376.453-.376h1.203c1.406 0 1.656.485 1.797 1.75h.25l-.25-2.031h-5.172v.281h.203c.687 0 .719.11.719.438v4.687c0 .344-.032.438-.72.438h-.202v.281h5.297zm2.619 2.329v-.281c-.594 0-.688 0-.688-.406v-5.563l-1.328.11v.265c.61 0 .688.063.688.516v4.672c0 .406-.094.406-.688.406v.281c.422-.016.594-.031 1-.031.422 0 .578.015 1.016.031Zm4.074-1.079c0-.062-.047-.108-.125-.108-.094 0-.125.062-.125.093a1.287 1.287 0 0 1-1.25.938c-.422 0-.797-.235-1-.547-.297-.438-.313-.984-.313-1.36h2.563c.203 0 .25 0 .25-.187 0-.922-.5-1.781-1.656-1.781-1.079 0-1.922.937-1.922 2.047 0 1.187.937 2.078 2.03 2.078 1.11 0 1.548-.953 1.548-1.172zm-.61-1.202h-2.187c.078-1.375.89-1.531 1.14-1.531.5 0 1.032.39 1.047 1.53zm8.379 2.281v-.281c-.469 0-.688 0-.703-.281v-1.72c0-.78 0-1.046-.297-1.374-.188-.219-.547-.328-.953-.328-.656 0-1.094.39-1.344.859-.11-.531-.469-.86-1.219-.86-.718 0-1.171.47-1.359.891v-.89l-1.313.109v.281c.61 0 .704.063.704.5v2.407c0 .406-.11.406-.703.406v.281c.421-.016.593-.031 1.03-.031.423 0 .548.015 1.016.031v-.281c-.593 0-.687 0-.687-.406V93.96c0-.969.703-1.422 1.25-1.422.484 0 .656.344.656.984v2.079c0 .406-.11.406-.703.406v.281c.422-.016.594-.031 1.031-.031.438 0 .547.015 1.032.031v-.281c-.594 0-.704 0-.704-.406V93.96c0-.969.704-1.422 1.25-1.422.485 0 .657.344.657.984v2.079c0 .406-.11.406-.703.406v.281c.437-.016.593-.031 1.03-.031.438 0 .548.015 1.032.031Zm4.048-1.079c0-.062-.047-.108-.125-.108-.094 0-.125.062-.125.093a1.287 1.287 0 0 1-1.25.938c-.422 0-.797-.235-1-.547-.297-.438-.313-.984-.313-1.36h2.563c.203 0 .25 0 .25-.187 0-.922-.5-1.781-1.657-1.781-1.078 0-1.921.937-1.921 2.047 0 1.187.937 2.078 2.03 2.078 1.11 0 1.548-.953 1.548-1.172zm-.61-1.202h-2.187c.078-1.375.89-1.531 1.14-1.531.5 0 1.032.39 1.047 1.53zm5.81 2.281v-.281c-.453 0-.688 0-.688-.281v-1.72c0-.75 0-1.015-.25-1.327-.218-.25-.562-.375-1-.375-.843 0-1.234.625-1.359.875v-.875l-1.312.109v.281c.609 0 .703.063.703.5v2.407c0 .406-.11.406-.703.406v.281c.421-.016.593-.031 1.03-.031.423 0 .548.015 1.016.031v-.281c-.593 0-.687 0-.687-.406V93.96c0-.953.672-1.422 1.25-1.422.531 0 .64.438.64.984v2.079c0 .406-.093.406-.687.406v.281c.422-.016.594-.031 1.016-.031.437 0 .562.015 1.03.031zm3.043-1.109v-.516h-.25v.484c0 .657-.281.985-.61.985-.593 0-.593-.781-.593-.953v-2.485h1.297v-.281h-1.297v-1.656h-.25c-.016.75-.328 1.672-1.203 1.703v.234h.781v2.485c0 1 .734 1.203 1.203 1.203.61 0 .922-.578.922-1.203zm3.85-.047c0-.406-.172-.64-.375-.844-.312-.297-.625-.36-1.297-.5-.234-.031-.89-.156-.89-.672 0-.281.203-.656 1.03-.656.97 0 1.032.734 1.048.969.015.109.015.156.125.156.125 0 .125-.063.125-.234v-.86c0-.156 0-.234-.11-.234-.046 0-.062 0-.171.11-.016.015-.11.093-.157.14-.281-.203-.562-.25-.86-.25-1.187 0-1.483.656-1.483 1.11 0 .296.125.53.328.718.297.281.64.344 1.109.437.453.079.61.11.813.266.078.063.312.234.312.578 0 .797-.906.797-1.031.797-.922 0-1.156-.766-1.266-1.25-.031-.094-.031-.14-.14-.14-.125 0-.125.062-.125.234v1.14c0 .157 0 .235.093.235.063 0 .078 0 .235-.172.03-.063.14-.172.172-.219.39.375.796.39 1.03.39 1.095 0 1.485-.64 1.485-1.25zm0 0"/></svg>