<svg xmlns="http://www.w3.org/2000/svg" width="312.467" height="96.35pt" viewBox="0 0 234.35 96.35"><defs><clipPath id="a"><path d="M208 50h26.352v27H208Zm0 0"/></clipPath></defs><path fill="none" stroke="#000" stroke-miterlimit="10" stroke-width=".399" d="M163.637 12.953a7.085 7.085 0 0 0-7.086-7.086 7.085 7.085 0 0 0-7.086 7.086 7.085 7.085 0 0 0 7.086 7.086 7.085 7.085 0 0 0 7.086-7.086Zm0 0"/><path d="M156.133 14.457c0-.813-.641-1.594-1.672-1.813.812-.265 1.39-.953 1.39-1.75 0-.812-.875-1.375-1.828-1.375-1 0-1.765.594-1.765 1.36 0 .328.218.515.515.515.297 0 .5-.218.5-.515 0-.485-.469-.485-.61-.485.298-.5.954-.625 1.313-.625.422 0 .969.22.969 1.11 0 .125-.031.703-.281 1.14-.297.485-.64.516-.89.516a3.29 3.29 0 0 1-.391.031c-.079.016-.141.031-.141.125 0 .11.062.11.234.11h.438c.812 0 1.187.671 1.187 1.656 0 1.36-.687 1.64-1.125 1.64-.437 0-1.187-.171-1.531-.75.344.047.656-.171.656-.546a.537.537 0 0 0-.547-.563c-.25 0-.562.14-.562.578 0 .906.922 1.563 2.016 1.563 1.218 0 2.125-.907 2.125-1.922zm4.997-1.484c0-.797-.047-1.594-.391-2.329-.453-.968-1.281-1.125-1.688-1.125-.61 0-1.328.266-1.75 1.188-.312.687-.36 1.469-.36 2.265 0 .75.032 1.641.454 2.407a1.83 1.83 0 0 0 1.64 1c.532 0 1.298-.203 1.735-1.157.313-.687.36-1.468.36-2.25zm-.813-.126c0 .75 0 1.422-.11 2.063-.156.953-.718 1.25-1.171 1.25-.391 0-.985-.25-1.157-1.203-.109-.594-.109-1.516-.109-2.11 0-.64 0-1.296.078-1.828.188-1.187.938-1.28 1.188-1.28.328 0 .984.187 1.172 1.171.109.563.109 1.313.109 1.938zm0 0"/><path fill="none" stroke="#900" stroke-miterlimit="10" stroke-width=".399" d="M85.285 12.953A7.085 7.085 0 0 0 78.2 5.867a7.085 7.085 0 0 0-7.086 7.086A7.085 7.085 0 0 0 78.2 20.04a7.085 7.085 0 0 0 7.086-7.086Zm0 0"/><path fill="#900" d="M77.686 14.426h-.235c-.062.296-.125.734-.234.89-.062.078-.719.078-.937.078h-1.797l1.062-1.03c1.547-1.376 2.14-1.907 2.14-2.907 0-1.14-.89-1.938-2.109-1.938a1.843 1.843 0 0 0-1.859 1.813c0 .547.5.547.531.547.172 0 .516-.11.516-.531a.513.513 0 0 0-.531-.516c-.078 0-.094 0-.125.015.218-.656.765-1.015 1.343-1.015.907 0 1.329.812 1.329 1.625 0 .797-.485 1.578-1.047 2.203l-1.907 2.125c-.109.11-.109.14-.109.375h3.703zm5.09-1.453c0-.797-.046-1.594-.39-2.329-.453-.968-1.281-1.125-1.688-1.125-.61 0-1.328.266-1.75 1.188-.312.687-.36 1.469-.36 2.265 0 .75.032 1.641.454 2.407a1.83 1.83 0 0 0 1.64 1c.532 0 1.298-.203 1.735-1.157.313-.687.36-1.468.36-2.25zm-.812-.126c0 .75 0 1.422-.11 2.063-.156.953-.718 1.25-1.171 1.25-.39 0-.985-.25-1.157-1.203-.109-.594-.109-1.516-.109-2.11 0-.64 0-1.296.078-1.828.188-1.187.938-1.28 1.188-1.28.328 0 .984.187 1.172 1.171.109.563.109 1.313.109 1.938zm0 0"/><path fill="none" stroke="#000" stroke-miterlimit="10" stroke-width=".399" d="M59.95 38.29a7.088 7.088 0 0 0-14.176 0 7.088 7.088 0 0 0 14.175 0Zm0 0"/><path d="M52.052 41.497v-.312h-.313c-.906 0-.921-.11-.921-.47v-5.593c0-.25 0-.266-.235-.266-.625.641-1.5.641-1.812.641v.313c.203 0 .78 0 1.297-.266v5.172c0 .36-.032.469-.922.469h-.313v.312c.344-.031 1.203-.031 1.61-.031.39 0 1.265 0 1.609.031zm5.388-3.187c0-.797-.047-1.594-.391-2.329-.453-.968-1.281-1.125-1.688-1.125-.61 0-1.328.266-1.75 1.188-.312.687-.36 1.469-.36 2.266 0 .75.032 1.64.454 2.406a1.83 1.83 0 0 0 1.64 1c.532 0 1.298-.203 1.735-1.156.313-.688.36-1.47.36-2.25zm-.813-.125c0 .75 0 1.421-.11 2.062-.156.953-.718 1.25-1.171 1.25-.39 0-.985-.25-1.157-1.203-.109-.594-.109-1.516-.109-2.11 0-.64 0-1.296.078-1.828.188-1.187.938-1.28 1.188-1.28.328 0 .984.187 1.172 1.171.109.563.109 1.313.109 1.938zm0 0"/><path fill="none" stroke="#900" stroke-miterlimit="10" stroke-width=".399" d="M31.203 38.29a7.085 7.085 0 0 0-7.086-7.087 7.085 7.085 0 0 0-7.086 7.086 7.085 7.085 0 0 0 7.086 7.086 7.085 7.085 0 0 0 7.086-7.086Zm0 0"/><path fill="#900" d="M26.095 39.497c0-1.187-.813-2.187-1.89-2.187-.47 0-.907.156-1.267.515v-1.953c.204.063.532.125.844.125 1.235 0 1.938-.906 1.938-1.031 0-.063-.032-.11-.11-.11 0 0-.03 0-.078.032a3.22 3.22 0 0 1-1.36.297c-.39 0-.859-.079-1.327-.282-.078-.031-.11-.031-.11-.031-.109 0-.109.078-.109.234v2.954c0 .171 0 .25.14.25.079 0 .094-.016.141-.079.11-.156.469-.703 1.281-.703.516 0 .766.453.844.64.156.376.188.75.188 1.25 0 .36 0 .954-.25 1.376-.235.39-.61.64-1.063.64-.719 0-1.297-.53-1.469-1.109.032 0 .063.016.172.016.328 0 .5-.25.5-.485 0-.25-.172-.5-.5-.5-.14 0-.484.079-.484.532 0 .859.687 1.828 1.797 1.828 1.156 0 2.172-.953 2.172-2.219Zm0 0"/><path fill="none" stroke="#000" stroke-miterlimit="10" stroke-width=".399" d="M20.04 63.625a7.085 7.085 0 0 0-7.087-7.086 7.085 7.085 0 0 0-7.086 7.086 7.085 7.085 0 0 0 7.086 7.086 7.085 7.085 0 0 0 7.086-7.086Zm0 0"/><path d="M14.634 66.944v-.313h-.313c-.906 0-.921-.109-.921-.468v-5.594c0-.25 0-.266-.235-.266-.625.641-1.5.641-1.812.641v.313c.203 0 .78 0 1.296-.266v5.172c0 .36-.03.469-.921.469h-.313v.312c.344-.031 1.203-.031 1.61-.031.39 0 1.265 0 1.609.031zm0 0"/><path fill="none" stroke="#000" stroke-miterlimit="10" stroke-width=".399" d="M42.367 63.625a7.085 7.085 0 0 0-7.086-7.086 7.085 7.085 0 0 0-7.086 7.086 7.085 7.085 0 0 0 7.086 7.086 7.085 7.085 0 0 0 7.086-7.086Zm0 0"/><path d="M37.352 64.803c0-1.266-.891-2.219-2-2.219-.672 0-1.047.5-1.25.984v-.25c0-2.515 1.234-2.875 1.75-2.875.234 0 .656.063.875.407-.157 0-.547 0-.547.437 0 .313.234.469.453.469.156 0 .469-.094.469-.484 0-.594-.438-1.079-1.266-1.079-1.281 0-2.625 1.282-2.625 3.485 0 2.672 1.156 3.375 2.078 3.375 1.11 0 2.063-.938 2.063-2.25zm-.907-.016c0 .484 0 .984-.172 1.344-.296.594-.75.64-.984.64-.625 0-.922-.593-.984-.75-.188-.468-.188-1.265-.188-1.437 0-.781.328-1.781 1.219-1.781.172 0 .625 0 .937.625.172.36.172.875.172 1.36zm0 0"/><path fill="none" stroke="#000" stroke-miterlimit="10" stroke-width=".399" d="M71.113 63.625a7.088 7.088 0 0 0-14.176 0 7.088 7.088 0 0 0 14.176 0Zm0 0"/><path d="M63.216 66.944v-.313h-.313c-.906 0-.922-.109-.922-.468v-5.594c0-.25 0-.266-.234-.266-.625.641-1.5.641-1.812.641v.313c.203 0 .78 0 1.296-.266v5.172c0 .36-.03.469-.921.469h-.313v.312c.344-.031 1.203-.031 1.61-.031.39 0 1.265 0 1.609.031zm5.278-1.734h-.234c-.063.297-.125.734-.235.89-.062.078-.718.078-.937.078H65.29l1.062-1.03c1.547-1.376 2.141-1.907 2.141-2.907 0-1.14-.89-1.938-2.11-1.938a1.844 1.844 0 0 0-1.859 1.813c0 .547.5.547.532.547.171 0 .515-.11.515-.531a.513.513 0 0 0-.531-.516c-.078 0-.094 0-.125.016.219-.657.766-1.016 1.344-1.016.906 0 1.328.812 1.328 1.625 0 .797-.485 1.578-1.047 2.203l-1.906 2.125c-.11.11-.11.14-.11.375h3.703zm0 0"/><path fill="none" stroke="#000" stroke-miterlimit="10" stroke-width=".399" d="M110.621 38.29a7.085 7.085 0 0 0-7.086-7.087 7.085 7.085 0 0 0-7.086 7.086 7.085 7.085 0 0 0 7.086 7.086 7.085 7.085 0 0 0 7.086-7.086Zm0 0"/><path d="M103.023 39.763h-.235c-.062.297-.125.734-.234.89-.062.078-.719.078-.937.078H99.82l1.062-1.03c1.547-1.376 2.14-1.907 2.14-2.907 0-1.14-.89-1.938-2.109-1.938a1.843 1.843 0 0 0-1.859 1.813c0 .547.5.547.531.547.172 0 .516-.11.516-.531a.513.513 0 0 0-.531-.516c-.078 0-.094 0-.125.016.218-.657.765-1.016 1.343-1.016.907 0 1.329.812 1.329 1.625 0 .797-.485 1.578-1.047 2.203l-1.907 2.125c-.109.11-.109.14-.109.375h3.703zm4.981-.266c0-1.187-.812-2.187-1.89-2.187-.47 0-.907.156-1.266.515v-1.953c.203.063.531.125.844.125 1.234 0 1.937-.906 1.937-1.031 0-.063-.031-.11-.11-.11 0 0-.03 0-.077.032a3.22 3.22 0 0 1-1.36.297c-.39 0-.86-.079-1.328-.282-.078-.031-.11-.031-.11-.031-.109 0-.109.078-.109.234v2.954c0 .171 0 .25.14.25.08 0 .095-.016.142-.079.109-.156.468-.703 1.28-.703.516 0 .766.453.845.64.156.376.187.75.187 1.25 0 .36 0 .954-.25 1.376-.234.39-.61.64-1.062.64-.72 0-1.297-.53-1.47-1.109.032 0 .063.016.173.016.328 0 .5-.25.5-.485 0-.25-.172-.5-.5-.5-.14 0-.485.079-.485.532 0 .859.688 1.828 1.797 1.828 1.156 0 2.172-.953 2.172-2.219Zm0 0"/><path fill="none" stroke="#000" stroke-miterlimit="10" stroke-width=".399" d="M99.457 63.625a7.085 7.085 0 0 0-7.086-7.086 7.085 7.085 0 0 0-7.086 7.086 7.085 7.085 0 0 0 7.086 7.086 7.085 7.085 0 0 0 7.086-7.086Zm0 0"/><path d="M91.86 65.1h-.235c-.062.297-.125.734-.234.89-.063.078-.719.078-.938.078h-1.796l1.062-1.03c1.547-1.376 2.14-1.907 2.14-2.907 0-1.14-.89-1.938-2.109-1.938a1.843 1.843 0 0 0-1.859 1.813c0 .547.5.547.531.547.172 0 .516-.11.516-.531a.513.513 0 0 0-.531-.516c-.079 0-.094 0-.125.016.218-.657.765-1.016 1.343-1.016.907 0 1.328.812 1.328 1.625 0 .797-.484 1.578-1.046 2.203L88 66.459c-.109.11-.109.14-.109.375h3.703zm5.075.03c0-.812-.64-1.593-1.672-1.812.812-.265 1.39-.953 1.39-1.75 0-.812-.874-1.375-1.828-1.375-1 0-1.765.594-1.765 1.36 0 .328.219.515.515.515.297 0 .5-.218.5-.515 0-.485-.468-.485-.609-.485.297-.5.953-.625 1.313-.625.421 0 .968.22.968 1.11 0 .125-.031.703-.281 1.14-.297.485-.64.516-.89.516a3.29 3.29 0 0 1-.391.031c-.078.016-.14.032-.14.125 0 .11.062.11.234.11h.437c.813 0 1.188.672 1.188 1.656 0 1.36-.688 1.64-1.125 1.64-.438 0-1.188-.171-1.532-.75.344.047.657-.171.657-.546a.537.537 0 0 0-.547-.563c-.25 0-.563.14-.563.578 0 .907.922 1.563 2.016 1.563 1.219 0 2.125-.906 2.125-1.922zm0 0"/><path fill="none" stroke="#000" stroke-miterlimit="10" stroke-width=".399" d="M150.133 63.625a7.085 7.085 0 0 0-7.086-7.086 7.085 7.085 0 0 0-7.086 7.086 7.085 7.085 0 0 0 7.086 7.086 7.085 7.085 0 0 0 7.086-7.086Zm0 0"/><path d="M142.534 65.1h-.235c-.062.297-.125.734-.234.89-.063.078-.719.078-.938.078h-1.796l1.062-1.03c1.547-1.376 2.14-1.907 2.14-2.907 0-1.14-.89-1.938-2.109-1.938a1.843 1.843 0 0 0-1.859 1.813c0 .547.5.547.531.547.172 0 .516-.11.516-.531a.513.513 0 0 0-.531-.516c-.078 0-.094 0-.125.016.218-.657.765-1.016 1.343-1.016.907 0 1.328.812 1.328 1.625 0 .797-.484 1.578-1.046 2.203l-1.907 2.125c-.109.11-.109.14-.109.375h3.703zm5.075.062c0-.36-.11-.812-.5-1.234-.188-.203-.344-.297-.985-.703.72-.375 1.204-.891 1.204-1.547 0-.922-.875-1.485-1.782-1.485-1 0-1.812.735-1.812 1.672 0 .172.015.625.437 1.094.11.11.485.36.735.531-.578.297-1.438.844-1.438 1.844 0 1.047 1.016 1.719 2.063 1.719 1.125 0 2.078-.828 2.078-1.89zm-.719-3.484c0 .578-.39 1.047-.984 1.39l-1.235-.796c-.453-.297-.5-.625-.5-.797 0-.61.657-1.032 1.36-1.032.718 0 1.359.516 1.359 1.235zm.219 3.844c0 .734-.75 1.25-1.563 1.25-.86 0-1.578-.61-1.578-1.438 0-.578.313-1.219 1.156-1.688l1.235.782c.281.187.75.484.75 1.094zm0 0"/><path fill="none" stroke="#900" stroke-miterlimit="10" stroke-width=".399" d="M121.387 63.625a7.085 7.085 0 0 0-7.086-7.086 7.085 7.085 0 0 0-7.086 7.086 7.085 7.085 0 0 0 7.086 7.086 7.085 7.085 0 0 0 7.086-7.086Zm0 0"/><path fill="#900" d="M113.789 65.15h-.235c-.062.297-.125.734-.234.89-.063.078-.719.078-.938.078h-1.796l1.062-1.03c1.547-1.376 2.14-1.907 2.14-2.907 0-1.14-.89-1.938-2.109-1.938a1.843 1.843 0 0 0-1.859 1.813c0 .547.5.547.531.547.172 0 .516-.11.516-.531a.513.513 0 0 0-.531-.516c-.079 0-.094 0-.125.016.218-.657.765-1.016 1.343-1.016.907 0 1.328.812 1.328 1.625 0 .797-.484 1.578-1.046 2.203l-1.907 2.125c-.109.11-.109.14-.109.375h3.703zm5.341-4.688h-2.422c-1.204 0-1.235-.125-1.266-.312h-.25l-.328 2.047h.25c.031-.157.11-.782.25-.907.062-.062.844-.062.969-.062h2.062l-1.11 1.578c-.906 1.344-1.234 2.734-1.234 3.75 0 .094 0 .547.469.547.453 0 .453-.453.453-.547v-.516c0-.547.031-1.093.11-1.625.046-.234.171-1.093.625-1.703l1.343-1.906c.078-.11.078-.125.078-.344zm0 0"/><path fill="none" stroke="#000" stroke-miterlimit="10" stroke-width=".399" d="M217.32 38.29a7.085 7.085 0 0 0-7.086-7.087 7.085 7.085 0 0 0-7.086 7.086 7.085 7.085 0 0 0 7.086 7.086 7.085 7.085 0 0 0 7.086-7.086Zm0 0"/><path d="M209.816 38.216c0-2.688-1.157-3.36-2.047-3.36-.547 0-1.032.188-1.453.625-.422.454-.641.875-.641 1.625 0 1.235.875 2.22 1.984 2.22.61 0 1.016-.423 1.25-1v.327c0 2.328-1.031 2.782-1.61 2.782-.171 0-.718-.016-.983-.36.437 0 .515-.281.515-.453 0-.312-.234-.453-.453-.453-.156 0-.453.078-.453.469 0 .672.531 1.078 1.375 1.078 1.297 0 2.516-1.36 2.516-3.5zm-.922-.922c0 .828-.344 1.797-1.22 1.797-.155 0-.624 0-.921-.625-.187-.375-.187-.86-.187-1.36 0-.53 0-1 .218-1.375.266-.5.64-.625.985-.625.468 0 .797.344.968.782.11.328.157.953.157 1.406zm5.918 1.016c0-.797-.046-1.594-.39-2.329-.453-.968-1.281-1.125-1.688-1.125-.61 0-1.328.266-1.75 1.188-.312.687-.36 1.469-.36 2.266 0 .75.032 1.64.454 2.406a1.83 1.83 0 0 0 1.64 1c.532 0 1.298-.203 1.735-1.156.313-.688.36-1.47.36-2.25zm-.812-.125c0 .75 0 1.421-.11 2.062-.156.953-.718 1.25-1.171 1.25-.391 0-.985-.25-1.157-1.203-.109-.594-.109-1.516-.109-2.11 0-.64 0-1.296.078-1.828.188-1.187.938-1.28 1.188-1.28.328 0 .984.187 1.172 1.171.109.563.109 1.313.109 1.938zm0 0"/><path fill="none" stroke="#900" stroke-miterlimit="10" stroke-width=".399" d="M188.578 38.29a7.088 7.088 0 0 0-14.176 0 7.088 7.088 0 0 0 14.176 0Zm0 0"/><path fill="#900" d="M181.07 39.794c0-.813-.64-1.594-1.671-1.813.812-.265 1.39-.953 1.39-1.75 0-.812-.875-1.375-1.828-1.375-1 0-1.766.594-1.766 1.36 0 .328.22.515.516.515.297 0 .5-.218.5-.515 0-.485-.469-.485-.61-.485.298-.5.954-.625 1.313-.625.422 0 .969.22.969 1.11 0 .125-.031.703-.281 1.14-.297.485-.64.516-.89.516a3.29 3.29 0 0 1-.391.031c-.079.016-.141.032-.141.125 0 .11.062.11.234.11h.438c.812 0 1.187.672 1.187 1.656 0 1.36-.687 1.64-1.125 1.64-.437 0-1.187-.171-1.531-.75.344.047.656-.171.656-.546a.537.537 0 0 0-.547-.563c-.25 0-.562.14-.562.578 0 .907.922 1.563 2.016 1.563 1.218 0 2.125-.906 2.125-1.922zm4.888-.297c0-1.187-.812-2.187-1.89-2.187-.47 0-.907.156-1.266.515v-1.953c.203.063.531.125.844.125 1.234 0 1.937-.906 1.937-1.031 0-.063-.031-.11-.11-.11 0 0-.03 0-.077.032a3.22 3.22 0 0 1-1.36.297c-.39 0-.86-.079-1.328-.282-.078-.031-.11-.031-.11-.031-.109 0-.109.078-.109.234v2.954c0 .171 0 .25.14.25.079 0 .095-.016.142-.079.109-.156.468-.703 1.28-.703.516 0 .766.453.845.64.156.376.187.75.187 1.25 0 .36 0 .954-.25 1.376-.234.39-.61.64-1.062.64-.72 0-1.297-.53-1.47-1.109.032 0 .063.016.173.016.328 0 .5-.25.5-.485 0-.25-.172-.5-.5-.5-.141 0-.485.079-.485.532 0 .859.688 1.828 1.797 1.828 1.156 0 2.172-.953 2.172-2.219Zm0 0"/><path fill="none" stroke="#000" stroke-miterlimit="10" stroke-width=".399" d="M177.414 63.625a7.088 7.088 0 0 0-14.176 0 7.088 7.088 0 0 0 14.176 0Zm0 0"/><path d="M169.907 65.13c0-.812-.64-1.593-1.671-1.812.812-.265 1.39-.953 1.39-1.75 0-.812-.875-1.375-1.828-1.375-1 0-1.766.594-1.766 1.36 0 .328.22.515.516.515.297 0 .5-.218.5-.515 0-.485-.469-.485-.61-.485.298-.5.954-.625 1.313-.625.422 0 .969.22.969 1.11 0 .125-.031.703-.281 1.14-.297.485-.64.516-.89.516a3.29 3.29 0 0 1-.392.031c-.078.016-.14.032-.14.125 0 .11.062.11.234.11h.438c.812 0 1.187.672 1.187 1.656 0 1.36-.687 1.64-1.125 1.64-.437 0-1.187-.171-1.531-.75.344.047.656-.171.656-.546a.537.537 0 0 0-.547-.563c-.25 0-.562.14-.562.578 0 .907.922 1.563 2.016 1.563 1.218 0 2.125-.906 2.125-1.922zm4.982 0c0-.812-.64-1.593-1.672-1.812.812-.265 1.39-.953 1.39-1.75 0-.812-.874-1.375-1.828-1.375-1 0-1.765.594-1.765 1.36 0 .328.219.515.515.515.297 0 .5-.218.5-.515 0-.485-.468-.485-.609-.485.297-.5.953-.625 1.313-.625.421 0 .968.22.968 1.11 0 .125-.031.703-.281 1.14-.297.485-.64.516-.89.516a3.29 3.29 0 0 1-.391.031c-.078.016-.14.032-.14.125 0 .11.062.11.234.11h.437c.813 0 1.188.672 1.188 1.656 0 1.36-.688 1.64-1.125 1.64-.438 0-1.188-.171-1.532-.75.344.047.657-.171.657-.546a.537.537 0 0 0-.547-.563c-.25 0-.563.14-.563.578 0 .907.922 1.563 2.016 1.563 1.219 0 2.125-.906 2.125-1.922zm0 0"/><path fill="none" stroke="#000" stroke-miterlimit="10" stroke-width=".399" d="M199.738 63.625a7.085 7.085 0 0 0-7.086-7.086 7.085 7.085 0 0 0-7.086 7.086 7.085 7.085 0 0 0 7.086 7.086 7.085 7.085 0 0 0 7.086-7.086Zm0 0"/><path d="M192.234 65.13c0-.812-.64-1.593-1.671-1.812.812-.265 1.39-.953 1.39-1.75 0-.812-.875-1.375-1.828-1.375-1 0-1.766.594-1.766 1.36 0 .328.22.515.516.515.297 0 .5-.218.5-.515 0-.485-.469-.485-.61-.485.298-.5.954-.625 1.313-.625.422 0 .969.22.969 1.11 0 .125-.031.703-.281 1.14-.297.485-.64.516-.89.516a3.29 3.29 0 0 1-.392.031c-.078.016-.14.032-.14.125 0 .11.062.11.234.11h.438c.812 0 1.187.672 1.187 1.656 0 1.36-.687 1.64-1.125 1.64-.437 0-1.187-.171-1.531-.75.344.047.656-.171.656-.546a.537.537 0 0 0-.547-.563c-.25 0-.562.14-.562.578 0 .907.922 1.563 2.016 1.563 1.218 0 2.124-.906 2.124-1.922zm4.982.032c0-.36-.11-.812-.5-1.234-.188-.203-.344-.297-.985-.703.72-.375 1.204-.891 1.204-1.547 0-.922-.875-1.485-1.782-1.485-1 0-1.812.735-1.812 1.672 0 .172.015.625.437 1.094.11.11.485.36.735.531-.578.297-1.438.844-1.438 1.844 0 1.047 1.016 1.719 2.063 1.719 1.125 0 2.078-.828 2.078-1.89zm-.719-3.484c0 .578-.39 1.047-.984 1.39l-1.235-.796c-.453-.297-.5-.625-.5-.797 0-.61.657-1.032 1.36-1.032.718 0 1.36.516 1.36 1.235zm.219 3.844c0 .734-.75 1.25-1.563 1.25-.86 0-1.578-.61-1.578-1.438 0-.578.313-1.219 1.156-1.688l1.235.782c.281.187.75.484.75 1.094zm0 0"/><g clip-path="url(#a)"><path fill="none" stroke="#000" stroke-miterlimit="10" stroke-width=".399" d="M228.484 63.625a7.085 7.085 0 0 0-7.086-7.086 7.085 7.085 0 0 0-7.085 7.086 7.085 7.085 0 0 0 7.085 7.086 7.085 7.085 0 0 0 7.086-7.086Zm0 0"/></g><path d="M220.98 63.553c0-2.688-1.157-3.36-2.047-3.36-.547 0-1.032.188-1.453.625-.422.454-.641.875-.641 1.625 0 1.235.875 2.22 1.984 2.22.61 0 1.016-.423 1.25-1v.327c0 2.328-1.031 2.782-1.61 2.782-.171 0-.718-.016-.983-.36.437 0 .515-.281.515-.453 0-.313-.234-.453-.453-.453-.156 0-.453.078-.453.469 0 .672.531 1.078 1.375 1.078 1.297 0 2.516-1.36 2.516-3.5zm-.922-.922c0 .828-.344 1.797-1.22 1.797-.155 0-.624 0-.921-.625-.187-.375-.187-.86-.187-1.36 0-.53 0-1 .218-1.375.266-.5.64-.625.985-.625.468 0 .797.344.968.782.11.328.157.953.157 1.406zm5.902.922c0-2.688-1.155-3.36-2.046-3.36-.547 0-1.031.188-1.453.625-.422.454-.64.875-.64 1.625 0 1.235.874 2.22 1.984 2.22.609 0 1.015-.423 1.25-1v.327c0 2.328-1.032 2.782-1.61 2.782-.172 0-.719-.016-.984-.36.437 0 .515-.281.515-.453 0-.313-.234-.453-.453-.453-.156 0-.453.078-.453.469 0 .672.531 1.078 1.375 1.078 1.297 0 2.516-1.36 2.516-3.5zm-.921-.922c0 .828-.344 1.797-1.219 1.797-.156 0-.625 0-.922-.625-.187-.375-.187-.86-.187-1.36 0-.53 0-1 .219-1.375.265-.5.64-.625.984-.625.469 0 .797.344.969.782.109.328.156.953.156 1.406zm0 0"/><path fill="none" stroke="#900" stroke-linecap="round" stroke-miterlimit="10" stroke-width=".399" d="M149.266 12.953h-61.79"/><path fill="#900" d="m85.484 12.953 3.188 1.594-1.195-1.594 1.195-1.594"/><path fill="none" stroke="#000" stroke-linecap="round" stroke-miterlimit="10" stroke-width=".399" d="M73.047 18.105 59.422 31.727"/><path d="m58.016 33.137 3.379-1.125-1.973-.285-.281-1.973"/><path fill="none" stroke="#900" stroke-linecap="round" stroke-miterlimit="10" stroke-width=".399" d="M45.574 38.29h-12.18"/><path fill="#900" d="m31.402 38.29 3.188 1.593-1.195-1.594 1.195-1.594"/><path fill="none" stroke="#000" stroke-linecap="round" stroke-miterlimit="10" stroke-width=".399" d="m21.18 44.957-4.485 10.18"/><path d="m15.89 56.957 2.743-2.273-1.938.453-.976-1.739"/><path fill="none" stroke="#000" stroke-linecap="round" stroke-miterlimit="10" stroke-width=".399" d="m27.055 44.957 4.484 10.18"/><path d="m32.344 56.957.172-3.559-.977 1.739-1.941-.453"/><path fill="none" stroke="#000" stroke-linecap="round" stroke-miterlimit="10" stroke-width=".399" d="m55.8 44.957 4.485 10.18"/><path d="m61.09 56.957.172-3.559-.977 1.739-1.941-.453"/><path fill="none" stroke="#000" stroke-linecap="round" stroke-miterlimit="10" stroke-width=".399" d="m83.352 18.105 13.625 13.622"/><path d="m98.383 33.137-1.125-3.383-.281 1.973-1.973.285"/><path fill="none" stroke="#000" stroke-linecap="round" stroke-miterlimit="10" stroke-width=".399" d="m100.598 44.957-4.485 10.18"/><path d="m95.309 56.957 2.746-2.273-1.942.453-.976-1.739"/><path fill="none" stroke="#000" stroke-linecap="round" stroke-miterlimit="10" stroke-width=".399" d="m109.668 42.223 25.566 16.394"/><path d="m136.914 59.691-1.824-3.062.144 1.988-1.863.696"/><path fill="none" stroke="#900" stroke-linecap="round" stroke-miterlimit="10" stroke-width=".399" d="M135.762 63.625h-12.184"/><path fill="#900" d="m121.586 63.625 3.187 1.594-1.195-1.594 1.195-1.594"/><path fill="none" stroke="#000" stroke-linecap="round" stroke-miterlimit="10" stroke-width=".399" d="m163.14 16.063 38.704 18.265"/><path d="m203.645 35.18-2.2-2.801.399 1.95-1.762.933"/><path fill="none" stroke="#900" stroke-linecap="round" stroke-miterlimit="10" stroke-width=".399" d="M202.95 38.29h-12.18"/><path fill="#900" d="m188.777 38.29 3.188 1.593-1.195-1.594 1.195-1.594"/><path fill="none" stroke="#000" stroke-linecap="round" stroke-miterlimit="10" stroke-width=".399" d="m178.55 44.957-4.484 10.18"/><path d="m173.262 56.957 2.746-2.273-1.942.453-.976-1.739"/><path fill="none" stroke="#000" stroke-linecap="round" stroke-miterlimit="10" stroke-width=".399" d="m184.426 44.957 4.488 10.18"/><path d="m189.715 56.957.176-3.559-.977 1.739-1.941-.453"/><path fill="none" stroke="#000" stroke-linecap="round" stroke-miterlimit="10" stroke-width=".399" d="m213.172 44.957 4.484 10.18"/><path d="m218.46 56.957.173-3.559-.977 1.739-1.937-.453M70.7 82.923l-.203-2.406h-6.719l-.203 2.406h.469c.093-1.125.187-1.938 1.625-1.938h.765v5.797h-1.531v.469c.547-.031 1.656-.031 2.234-.031.594 0 1.703 0 2.235.031v-.469H67.84v-5.797h.766c1.422 0 1.531.797 1.625 1.938zm0 0"/><path d="M74.583 83.58c0-.532-.531-.813-1.063-.813-.687 0-1.093.5-1.312 1.125v-1.125l-1.656.078v.468c.609 0 .687 0 .687.391v3.078h-.687v.469l1.25-.031c.375 0 1.015 0 1.375.031v-.469h-.86v-1.75c0-.687.235-1.906 1.235-1.906 0 0-.188.172-.188.453 0 .406.328.61.61.61.296 0 .609-.204.609-.61zm5.832 3.437c0-.235-.125-.235-.266-.235-.61-.015-.61-.14-.61-.375v-2.14c0-.891-.703-1.532-2.187-1.532-.562 0-1.781.047-1.781.922 0 .438.344.625.61.625.312 0 .624-.219.624-.625 0-.297-.187-.469-.219-.5a5.28 5.28 0 0 1 .72-.062c.75 0 1.109.422 1.109 1.172v.343c-.72.032-3.25.125-3.25 1.563 0 .953 1.234 1.14 1.921 1.14.797 0 1.266-.406 1.485-.828 0 .313 0 .766 1.047.766h.468c.204 0 .329 0 .329-.234zm-2-1.157c0 .97-.922 1.094-1.172 1.094-.516 0-.907-.344-.907-.797 0-1.062 1.579-1.203 2.079-1.234zm8.178 1.391v-.469h-.687v-2.578c0-1.047-.532-1.437-1.532-1.437-.953 0-1.484.562-1.75 1.078v-1.078l-1.703.078v.468c.61 0 .688 0 .688.391v3.078h-.688v.469l1.25-.031 1.25.031v-.469h-.687v-2.078c0-1.094.859-1.578 1.5-1.578.328 0 .547.203.547.969v2.687h-.688v.469l1.25-.031zm4.382-1.391c0-.437-.203-.78-.547-1.062-.39-.281-.719-.344-1.485-.485-.375-.062-1.015-.171-1.015-.64 0-.625.922-.625 1.11-.625.75 0 1.124.297 1.171.844.016.156.031.203.234.203.235 0 .235-.047.235-.282v-.796c0-.188 0-.282-.172-.282-.047 0-.063 0-.453.188-.266-.125-.61-.188-1-.188-.313 0-1.844 0-1.844 1.313 0 .39.203.656.406.828.391.344.782.406 1.547.547.36.062 1.094.187 1.094.781 0 .75-.906.75-1.125.75-1.063 0-1.313-.734-1.438-1.156-.046-.14-.109-.14-.234-.14-.25 0-.25.062-.25.28v1.094c0 .188 0 .281.188.281.062 0 .078 0 .296-.156l.25-.172c.47.328.985.328 1.188.328.312 0 1.844 0 1.844-1.453zm4.741-4.718c0-.422-.359-.875-1.14-.875-.969 0-2.047.421-2.047 1.546v1.016h-.75v.469h.75v3.484h-.688v.469l1.25-.031c.375 0 1.016 0 1.375.031v-.469h-.859v-3.484h1.14v-.469h-1.202v-1.016c0-1.093.75-1.187 1-1.187.046 0 .109 0 .171.031a.585.585 0 0 0-.234.485c0 .421.36.609.61.609.296 0 .624-.203.624-.61zm4.544 3.938c0-1.345-.922-2.345-2.547-2.345-1.64 0-2.547 1.016-2.547 2.344 0 1.234.891 2.234 2.547 2.234 1.672 0 2.547-1.015 2.547-2.234zm-1.281-.11c0 .86 0 1.937-1.266 1.937-1.265 0-1.265-1.078-1.265-1.937 0-.453 0-.953.172-1.297.187-.375.609-.578 1.093-.578.422 0 .844.156 1.063.5.203.343.203.89.203 1.375Zm6.01-1.39c0-.532-.532-.813-1.063-.813-.687 0-1.094.5-1.312 1.125v-1.125l-1.657.078v.468c.61 0 .688 0 .688.391v3.078h-.688v.469l1.25-.031c.375 0 1.016 0 1.375.031v-.469h-.859v-1.75c0-.687.234-1.906 1.234-1.906 0 0-.187.172-.187.453 0 .406.328.61.61.61.296 0 .609-.204.609-.61zm9.644 3.671v-.469h-.688v-2.578c0-1.031-.515-1.437-1.546-1.437-.907 0-1.422.5-1.688.953-.187-.922-1.11-.953-1.484-.953-.875 0-1.438.453-1.766 1.078v-1.078l-1.703.078v.468c.61 0 .687 0 .687.391v3.078h-.687v.469l1.25-.031 1.25.031v-.469h-.688v-2.078c0-1.094.875-1.578 1.5-1.578.329 0 .547.203.547.969v2.687h-.687v.469l1.265-.031 1.25.031v-.469h-.687v-2.078c0-1.094.86-1.578 1.484-1.578.344 0 .563.203.563.969v2.687h-.688v.469l1.25-.031zm5.137-1.171c0-.173-.187-.173-.234-.173-.171 0-.187.047-.25.203-.203.485-.78.797-1.421.797-1.407 0-1.422-1.328-1.422-1.828h3.015c.22 0 .313 0 .313-.266 0-.312-.063-1.046-.563-1.546-.36-.36-.89-.532-1.578-.532-1.594 0-2.469 1.032-2.469 2.266 0 1.344 1 2.312 2.61 2.312 1.578 0 2-1.062 2-1.234zm-.937-1.329h-2.39c.015-.39.03-.813.234-1.14.266-.391.672-.516.953-.516 1.172 0 1.188 1.312 1.203 1.656zm7.251 2.5v-.469c-.61 0-.688 0-.688-.39v-6.063l-1.766.078v.469c.625 0 .704 0 .704.39v1.954a2.178 2.178 0 0 0-1.36-.453c-1.453 0-2.5.875-2.5 2.28 0 1.313.922 2.266 2.39 2.266.61 0 1.095-.234 1.407-.484v.484Zm-1.813-1.031c-.14.187-.547.734-1.297.734-1.219 0-1.219-1.203-1.219-1.906 0-.485 0-1.016.25-1.406.297-.422.766-.516 1.079-.516.562 0 .968.312 1.187.61zm11.156-1.188h-.468c-.032.203-.125.844-.266.906-.11.063-.86.063-1.016.063h-1.468c.468-.39 1-.813 1.437-1.14 1.14-.844 1.781-1.313 1.781-2.25 0-1.157-1.047-1.891-2.437-1.891-1.219 0-2.156.625-2.156 1.515 0 .594.484.735.718.735.328 0 .719-.219.719-.719 0-.516-.422-.672-.562-.719.28-.234.671-.344 1.03-.344.845 0 1.313.672 1.313 1.422 0 .688-.375 1.375-1.078 2.078l-2 2.047c-.14.11-.14.141-.14.344v.172h4.28zm3.744.485v-.97h-3.046v.97zm5.894-.063c0-.547-.297-1.406-1.734-1.719.687-.203 1.406-.765 1.406-1.625 0-.765-.75-1.39-2.156-1.39-1.188 0-1.969.64-1.969 1.437 0 .422.313.703.688.703a.668.668 0 0 0 .703-.687c0-.578-.547-.688-.578-.703.343-.282.78-.36 1.093-.36.828 0 .86.641.86.97 0 .124-.016 1.437-1.047 1.5-.406.015-.438.015-.485.03-.093.016-.125.11-.125.172 0 .172.11.172.282.172h.437c1.094 0 1.094.984 1.094 1.5 0 .469 0 1.484-1.031 1.484-.266 0-.782-.046-1.266-.343.328-.094.578-.344.578-.75 0-.453-.312-.75-.75-.75-.422 0-.765.265-.765.765 0 .907.968 1.5 2.25 1.5 1.78 0 2.515-1 2.515-1.906zm11.841-2.531-.203-2.406h-6.719l-.203 2.406h.469c.094-1.125.187-1.938 1.625-1.938h.766v5.797h-1.532v.469c.547-.031 1.657-.031 2.235-.031.593 0 1.703 0 2.234.031v-.469h-1.531v-5.797h.765c1.422 0 1.532.797 1.625 1.938zm0 0"/><path d="M160.79 83.58c0-.532-.532-.813-1.063-.813-.688 0-1.094.5-1.313 1.125v-1.125l-1.656.078v.468c.61 0 .688 0 .688.391v3.078h-.688v.469l1.25-.031c.375 0 1.016 0 1.375.031v-.469h-.86v-1.75c0-.687.235-1.906 1.235-1.906 0 0-.187.172-.187.453 0 .406.328.61.609.61.297 0 .61-.204.61-.61zm5.237 2.5c0-.173-.187-.173-.234-.173-.172 0-.188.047-.25.203-.203.485-.781.797-1.422.797-1.406 0-1.422-1.328-1.422-1.828h3.016c.218 0 .312 0 .312-.266 0-.312-.062-1.046-.562-1.546-.36-.36-.891-.532-1.578-.532-1.594 0-2.47 1.032-2.47 2.266 0 1.344 1 2.312 2.61 2.312 1.578 0 2-1.062 2-1.234zm-.937-1.329h-2.391c.016-.39.031-.813.234-1.14.266-.391.672-.516.954-.516 1.171 0 1.187 1.312 1.203 1.656zm6.187 1.329c0-.173-.187-.173-.234-.173-.172 0-.187.047-.25.203-.203.485-.781.797-1.422.797-1.406 0-1.422-1.328-1.422-1.828h3.016c.219 0 .312 0 .312-.266 0-.312-.062-1.046-.562-1.546-.36-.36-.89-.532-1.578-.532-1.594 0-2.469 1.032-2.469 2.266 0 1.344 1 2.312 2.61 2.312 1.578 0 2-1.062 2-1.234zm-.937-1.329h-2.39c.015-.39.03-.813.234-1.14.265-.391.672-.516.953-.516 1.172 0 1.187 1.312 1.203 1.656zm0 0"/></svg>