<svg xmlns="http://www.w3.org/2000/svg" width="233.6pt" height="166.973" viewBox="0 0 233.6 125.23"><path fill="none" stroke="#000" stroke-miterlimit="10" stroke-width=".399" d="M139.758 25.395c0-5.747-4.66-10.403-10.406-10.403-5.747 0-10.403 4.656-10.403 10.403 0 5.746 4.656 10.402 10.403 10.402 5.746 0 10.406-4.656 10.406-10.402Zm0 0"/><path d="M132.946 29.153v-.328h-.187c-.64 0-.781-.078-.89-.422l-2.282-6.563c-.047-.125-.063-.203-.234-.203-.172 0-.204.063-.25.203l-2.172 6.282c-.188.531-.61.687-1.172.703v.328l1.062-.031 1.203.031v-.328c-.515 0-.78-.266-.78-.531 0-.032.015-.141.015-.157l.484-1.375h2.594l.562 1.61c0 .031.032.093.032.14 0 .313-.594.313-.875.313v.328c.375-.031 1.109-.031 1.515-.031Zm-2.718-2.719h-2.36l1.172-3.406Zm0 0"/><path fill="none" stroke="#000" stroke-miterlimit="10" stroke-width=".399" d="M114.648 50.191c0-5.574-4.52-10.093-10.093-10.093-5.575 0-10.098 4.52-10.098 10.093 0 5.579 4.523 10.098 10.098 10.098 5.574 0 10.093-4.52 10.093-10.098Zm0 0"/><path d="M107.665 51.857c0-.906-.86-1.703-2.016-1.828 1.016-.203 1.735-.875 1.735-1.64 0-.923-.953-1.782-2.328-1.782h-3.844v.328h.25c.813 0 .828.11.828.485v5.546c0 .375-.016.485-.828.485h-.25v.328h4.125c1.39 0 2.328-.938 2.328-1.922Zm-1.297-3.469c0 .672-.515 1.547-1.672 1.547h-1.53v-2.578c0-.344.03-.422.515-.422h1.297c1.03 0 1.39.89 1.39 1.453zm.25 3.453c0 .75-.547 1.61-1.625 1.61h-1.312c-.485 0-.516-.078-.516-.422v-2.86h1.984c1.032 0 1.47.97 1.47 1.672zm0 0"/><path fill="none" stroke="#000" stroke-miterlimit="10" stroke-width=".399" d="M164.582 50.332c0-5.684-4.61-10.293-10.293-10.293-5.684 0-10.289 4.61-10.289 10.293 0 5.684 4.605 10.29 10.29 10.29 5.683 0 10.292-4.606 10.292-10.29Zm0 0"/><path d="M157.484 51.464c0-.094 0-.172-.14-.172-.11 0-.11.063-.125.172-.078 1.5-1.203 2.36-2.344 2.36-.64 0-2.703-.36-2.703-3.485 0-3.14 2.047-3.5 2.687-3.5 1.141 0 2.078.953 2.282 2.484.03.157.03.188.172.188.171 0 .171-.032.171-.25v-2.5c0-.172 0-.25-.125-.25-.03 0-.078 0-.156.125l-.531.781c-.39-.375-.922-.906-1.938-.906-1.953 0-3.64 1.672-3.64 3.812 0 2.172 1.687 3.828 3.64 3.828 1.72 0 2.75-1.468 2.75-2.687zm0 0"/><path fill="none" stroke="#000" stroke-miterlimit="10" stroke-width=".399" d="M90.14 74.945c0-5.71-4.628-10.336-10.34-10.336-5.706 0-10.335 4.625-10.335 10.336 0 5.707 4.629 10.336 10.336 10.336 5.71 0 10.34-4.629 10.34-10.336Zm0 0"/><path d="M83.213 75c0-1.985-1.422-3.64-3.219-3.64h-3.828v.327h.25c.797 0 .828.11.828.485v5.546c0 .375-.031.485-.828.485h-.25v.328h3.828c1.766 0 3.219-1.547 3.219-3.531zm-1.047 0c0 1.172-.203 1.797-.578 2.312-.203.281-.813.89-1.875.89H78.65c-.484 0-.5-.077-.5-.421v-5.672c0-.344.016-.422.5-.422h1.063c.64 0 1.375.235 1.906.969.453.625.547 1.531.547 2.344Zm0 0"/><path fill="none" stroke="#000" stroke-miterlimit="10" stroke-width=".399" d="M139.64 74.988c0-5.527-4.48-10.008-10.007-10.008-5.528 0-10.004 4.48-10.004 10.008 0 5.528 4.476 10.008 10.004 10.008 5.527 0 10.008-4.48 10.008-10.008Zm0 0"/><path d="M132.903 75.855h-.266c-.25 1.61-.5 2.375-2.297 2.375h-1.406c-.484 0-.516-.078-.516-.422v-2.797h.953c1.016 0 1.125.328 1.125 1.219h.266v-2.781h-.266c0 .906-.109 1.234-1.125 1.234h-.953v-2.516c0-.343.032-.422.516-.422h1.36c1.609 0 1.89.579 2.062 2.032h.25l-.281-2.36h-5.922v.328h.25c.812 0 .828.11.828.485v5.515c0 .375-.016.485-.828.485h-.25v.328h6.062zm0 0"/><path fill="none" stroke="#000" stroke-miterlimit="10" stroke-width=".399" d="M188.754 74.906a9.888 9.888 0 0 0-9.89-9.89c-5.462 0-9.891 4.425-9.891 9.89 0 5.461 4.43 9.89 9.89 9.89 5.465 0 9.89-4.429 9.89-9.89Zm0 0"/><path d="m181.842 73.694-.297-2.36h-5.765v.328h.25c.812 0 .828.11.828.485v5.515c0 .375-.016.485-.828.485h-.25v.328c.375-.031 1.187-.031 1.594-.031.437 0 1.39 0 1.765.031v-.328h-.344c-1 0-1-.14-1-.5v-2.578h.907c1.015 0 1.109.328 1.109 1.218h.266v-2.78h-.266c0 .89-.094 1.234-1.11 1.234h-.906v-2.657c0-.343.032-.422.516-.422h1.266c1.578 0 1.828.594 2 2.032zm0 0"/><path fill="none" stroke="#000" stroke-miterlimit="10" stroke-width=".399" d="M65.277 100.016c0-5.825-4.722-10.547-10.547-10.547-5.824 0-10.542 4.722-10.542 10.547 0 5.824 4.718 10.543 10.542 10.543 5.825 0 10.547-4.72 10.547-10.543Zm0 0"/><path d="M58.33 101.054v-.312l-1.282.03c-.421 0-1.312 0-1.687-.03v.312h.328c.953 0 .984.125.984.516v.672c0 1.171-1.343 1.265-1.625 1.265-.687 0-2.765-.375-2.765-3.5 0-3.14 2.062-3.484 2.703-3.484 1.11 0 2.078.953 2.281 2.484.016.156.016.188.172.188.172 0 .172-.031.172-.25v-2.5c0-.172 0-.25-.125-.25-.047 0-.078 0-.172.125l-.516.781c-.343-.328-.906-.906-1.953-.906-1.953 0-3.64 1.656-3.64 3.812 0 2.156 1.672 3.828 3.672 3.828.765 0 1.609-.28 1.953-.89.14.219.562.64.687.64.094 0 .094-.078.094-.234v-1.828c0-.406.031-.469.719-.469zm0 0"/><path fill="none" stroke="#000" stroke-miterlimit="10" stroke-width=".399" d="m121.855 32.89-10.023 10.024"/><path d="M147.905 18.402c0-1.062-.875-1.906-1.953-1.906h-2.266v.203h.14c.438 0 .438.078.438.25v2.828c0 .188 0 .25-.437.25h-.141v.219h2.281c1.063 0 1.938-.813 1.938-1.844zm-.578 0c0 .36-.063.844-.36 1.156-.328.375-.797.47-1.156.47h-.75c-.266 0-.266-.048-.266-.204v-2.906c0-.172 0-.219.266-.219h.734c.391 0 .829.125 1.141.469.313.328.39.828.39 1.234Zm3.772 1.188c0-.032-.016-.094-.11-.094-.078 0-.078.031-.109.094-.156.422-.578.515-.828.515a.95.95 0 0 1-.719-.328c-.203-.265-.203-.625-.203-.781h1.797c.125 0 .172 0 .172-.125 0-.422-.234-1.078-1.156-1.078-.766 0-1.328.594-1.328 1.25 0 .687.625 1.265 1.406 1.265.797 0 1.078-.593 1.078-.718Zm-.406-.75h-1.547c.062-.735.562-.875.797-.875.703 0 .75.718.75.875zm4.081.218c0-.671-.578-1.234-1.344-1.234-.5 0-.812.25-.89.328v-.328l-.875.063v.203c.375 0 .437 0 .437.265v2.5c0 .25-.047.25-.437.25v.203c.046 0 .421-.015.671-.015.235 0 .61.015.657.015v-.203c-.375 0-.438 0-.438-.25v-.875c.235.22.485.328.797.328.766 0 1.422-.546 1.422-1.25zm-.531 0c0 .61-.438 1.063-.922 1.063-.422 0-.672-.297-.766-.453v-1.25c.188-.25.5-.406.828-.406.5 0 .86.484.86 1.046zm3.03.5v-.312h-.203v.297c0 .39-.203.562-.406.562-.39 0-.39-.437-.39-.547V18.09h.89v-.219h-.89v-1h-.204c-.016.484-.25 1.016-.797 1.047v.172h.547v1.468c0 .579.422.75.797.75.39 0 .656-.312.656-.75zm3.88.688v-.219c-.375 0-.422 0-.422-.234V18.59c0-.547-.312-.766-.875-.766-.578 0-.844.36-.922.484v-1.875l-.875.063v.203c.39 0 .438.047.438.313v2.78c0 .235-.063.235-.438.235v.219c.047 0 .422-.016.656-.016.25 0 .61.016.672.016v-.219c-.375 0-.437 0-.437-.234v-.969c0-.61.516-.828.86-.828.374 0 .452.234.452.578v1.219c0 .234-.047.234-.422.234v.219c.032 0 .407-.016.657-.016.25 0 .61.016.656.016Zm6.975-2c0-.156-.157-.156-.235-.156h-3.797c-.093 0-.234 0-.234.156 0 .14.125.14.203.14h3.86c.078 0 .203 0 .203-.14zm0 1.25c0-.14-.125-.14-.203-.14h-3.86c-.078 0-.203 0-.203.14 0 .156.14.156.234.156h3.797c.078 0 .235 0 .235-.156zm5.462-1c0-.406 0-1.906-1.36-1.906-1.344 0-1.344 1.5-1.344 1.906 0 .39 0 1.86 1.344 1.86 1.36 0 1.36-1.47 1.36-1.86zm-.532-.078c0 .36 0 .906-.094 1.219a.737.737 0 0 1-.734.546.76.76 0 0 1-.734-.562c-.079-.328-.079-.86-.079-1.203 0-.36 0-.797.063-1.094.14-.484.562-.562.75-.562.266 0 .625.125.75.546.078.282.078.688.078 1.11Zm-23.282 6.794h-.203c-.063.672-.235 1.25-1.235 1.25h-.593c-.282 0-.282-.047-.282-.203v-2.875c0-.172 0-.25.532-.25h.203v-.203c-.281.016-.688.016-.985.016l-.875-.016v.203h.141c.438 0 .438.078.438.25v2.828c0 .188 0 .25-.438.25h-.14v.219h3.265Zm3.1.813c0-.031-.016-.094-.11-.094-.077 0-.077.031-.109.094-.156.422-.578.515-.828.515a.95.95 0 0 1-.719-.328c-.203-.265-.203-.625-.203-.781h1.797c.125 0 .172 0 .172-.125 0-.422-.234-1.078-1.156-1.078-.766 0-1.328.594-1.328 1.25 0 .687.625 1.265 1.406 1.265.797 0 1.078-.593 1.078-.718Zm-.406-.75h-1.547c.062-.735.562-.875.797-.875.703 0 .75.719.75.875zm3.971-.75v-.219s-.25.031-.437.031c-.188 0-.484-.015-.516-.031v.219c.235.015.235.187.235.203 0 .078-.032.125-.047.172l-.656 1.328-.704-1.485a.168.168 0 0 1-.03-.093c0-.125.187-.125.28-.125v-.219l-.656.031a7.18 7.18 0 0 1-.562-.031v.219c.328 0 .375.015.468.187l.907 1.89c.047.11.11.142.172.142.109 0 .14-.063.171-.141l.844-1.75c.14-.266.328-.328.531-.328Zm2.804 1.5c0-.031-.016-.094-.11-.094-.077 0-.077.031-.109.094-.156.422-.578.515-.828.515a.95.95 0 0 1-.719-.328c-.203-.265-.203-.625-.203-.781h1.797c.125 0 .172 0 .172-.125 0-.422-.234-1.078-1.156-1.078-.766 0-1.328.594-1.328 1.25 0 .687.625 1.265 1.406 1.265.797 0 1.078-.593 1.078-.718Zm-.406-.75h-1.547c.062-.735.562-.875.797-.875.703 0 .75.719.75.875zm2.315 1.406v-.219c-.375 0-.437 0-.437-.234v-3.36l-.86.063v.203c.375 0 .422.047.422.313v2.78c0 .235-.047.235-.422.235v.219l.641-.016c.219 0 .438 0 .656.016zm6.974-2c0-.156-.156-.156-.234-.156h-3.797c-.094 0-.234 0-.234.156 0 .14.125.14.203.14h3.859c.078 0 .203 0 .203-.14zm0 1.25c0-.14-.125-.14-.203-.14h-3.86c-.077 0-.202 0-.202.14 0 .156.14.156.234.156h3.797c.078 0 .234 0 .234-.156zm5.212.75v-.219h-.235c-.578 0-.578-.062-.578-.25v-3.031c0-.156-.015-.156-.187-.156-.36.344-.922.344-1.11.344v.218c.141 0 .5 0 .829-.156v2.781c0 .188 0 .25-.563.25h-.234v.219c.297-.016.734-.016 1.03-.016.313 0 .735 0 1.048.016zm-26.758 6.435v-.219h-.141c-.438 0-.438-.062-.438-.25V29.82c0-.172 0-.25.438-.25h.14v-.203l-.859.016-.86-.016v.203h.141c.454 0 .454.078.454.25v1.235h-1.954V29.82c0-.172 0-.25.454-.25h.14v-.203l-.86.016-.859-.016v.203h.141c.438 0 .438.078.438.25v2.828c0 .188 0 .25-.438.25h-.14v.219l.859-.016.86.016v-.219h-.142c-.453 0-.453-.062-.453-.25v-1.375h1.954v1.375c0 .188 0 .25-.454.25h-.14v.219l.86-.016zm3.115-.656c0-.031-.016-.094-.11-.094-.077 0-.077.031-.109.094-.156.422-.578.515-.828.515a.95.95 0 0 1-.719-.328c-.203-.265-.203-.625-.203-.781h1.797c.125 0 .172 0 .172-.125 0-.422-.234-1.078-1.156-1.078-.766 0-1.328.594-1.328 1.25 0 .687.625 1.266 1.406 1.266.797 0 1.078-.594 1.078-.72Zm-.406-.75h-1.547c.062-.735.562-.875.797-.875.703 0 .75.719.75.875zm2.269 1.406v-.219c-.344 0-.391 0-.391-.234v-1.969l-.844.063v.203c.36 0 .406.047.406.312v1.39c0 .235-.047.235-.422.235v.219l.641-.016c.047 0 .469 0 .61.016zm-.313-3.312a.33.33 0 0 0-.328-.329.344.344 0 0 0-.344.329c0 .187.156.343.344.343.203 0 .328-.172.328-.343zm3.826 1.125c0-.125-.109-.297-.343-.297-.235 0-.485.093-.672.25a1.244 1.244 0 0 0-.672-.188c-.594 0-1.031.375-1.031.813 0 .172.062.359.265.547a.683.683 0 0 0-.156.437c0 .313.188.469.219.5-.203.063-.547.234-.547.547 0 .422.672.703 1.422.703.703 0 1.437-.25 1.437-.719 0-.14-.047-.484-.484-.672-.328-.125-.64-.125-1.156-.125-.125 0-.344 0-.39-.015-.142-.016-.282-.156-.282-.36 0-.109.062-.187.078-.203.125.078.344.172.625.172.61 0 1.031-.39 1.031-.812 0-.313-.234-.516-.234-.532a1.1 1.1 0 0 1 .562-.171c-.015.03-.03.046-.03.125 0 .093.062.187.171.187.125 0 .188-.094.188-.187Zm-1.125.578c0 .093 0 .625-.562.625-.453 0-.578-.328-.578-.625 0-.11 0-.641.578-.641.484 0 .563.39.563.64zm.688 2.03c0 .267-.453.532-1.078.532-.594 0-1.063-.25-1.063-.547 0-.125.125-.406.594-.406h.61c.171 0 .937 0 .937.422Zm4.048-.421v-.219c-.375 0-.422 0-.422-.234V31.46c0-.547-.312-.766-.875-.766-.578 0-.844.36-.922.485v-1.875l-.875.062v.203c.39 0 .438.047.438.313v2.78c0 .235-.063.235-.438.235v.219c.047 0 .422-.016.657-.016.25 0 .609.016.671.016v-.219c-.375 0-.437 0-.437-.234v-.969c0-.61.516-.828.86-.828.374 0 .452.234.452.578v1.219c0 .234-.046.234-.421.234v.219c.03 0 .406-.016.656-.016s.61.016.656.016Zm2.308-.687v-.313h-.203v.297c0 .39-.204.562-.407.562-.39 0-.39-.437-.39-.546v-1.47h.89v-.218h-.89v-1h-.203c-.016.484-.25 1.016-.797 1.047v.172h.547v1.469c0 .578.421.75.796.75.391 0 .657-.313.657-.75zm7.136-1.313c0-.156-.156-.156-.234-.156h-3.797c-.094 0-.234 0-.234.156 0 .14.125.14.203.14h3.859c.078 0 .203 0 .203-.14zm0 1.25c0-.14-.125-.14-.203-.14h-3.86c-.077 0-.202 0-.202.14 0 .156.14.156.234.156h3.797c.078 0 .234 0 .234-.156zm5.446-.203c0-.406-.312-.828-.969-.984.438-.141.782-.5.782-.954 0-.437-.516-.765-1.172-.765-.64 0-1.14.297-1.14.75 0 .234.187.297.296.297.14 0 .297-.094.297-.297 0-.156-.125-.266-.266-.281.25-.282.75-.282.797-.282.281 0 .64.125.64.578 0 .313-.171.829-.718.86-.11.015-.25.031-.297.031-.062 0-.125 0-.125.094 0 .078.063.078.156.078h.313c.469 0 .781.312.781.875 0 .61-.36.875-.75.875-.156 0-.719-.031-.969-.36.22-.015.297-.156.297-.312 0-.187-.125-.312-.312-.312a.307.307 0 0 0-.313.328c0 .547.61.843 1.313.843.812 0 1.36-.515 1.36-1.062zm0 0"/><path fill="none" stroke="#000" stroke-miterlimit="10" stroke-width=".399" d="m136.852 32.89 10.02 10.024"/><path d="M172.842 43.34c0-1.063-.875-1.907-1.953-1.907h-2.266v.203h.14c.438 0 .438.078.438.25v2.828c0 .188 0 .25-.437.25h-.141v.219h2.281c1.063 0 1.938-.813 1.938-1.844zm-.578 0c0 .359-.063.843-.36 1.155-.328.375-.797.47-1.156.47h-.75c-.266 0-.266-.048-.266-.204v-2.906c0-.172 0-.219.266-.219h.734c.391 0 .828.125 1.141.469.313.328.39.828.39 1.234Zm3.772 1.187c0-.032-.016-.094-.11-.094-.077 0-.077.031-.109.094-.156.422-.578.515-.828.515a.95.95 0 0 1-.719-.328c-.203-.265-.203-.625-.203-.781h1.797c.125 0 .172 0 .172-.125 0-.422-.234-1.078-1.156-1.078-.766 0-1.328.594-1.328 1.25 0 .687.625 1.265 1.406 1.265.797 0 1.078-.593 1.078-.718Zm-.406-.75h-1.547c.062-.735.562-.875.797-.875.703 0 .75.718.75.875zm4.08.218c0-.671-.577-1.234-1.343-1.234-.5 0-.812.25-.89.328v-.328l-.876.063v.203c.375 0 .438 0 .438.265v2.5c0 .25-.047.25-.438.25v.203c.047 0 .422-.015.672-.015.235 0 .61.015.657.015v-.203c-.375 0-.438 0-.438-.25v-.875c.234.22.484.328.797.328.766 0 1.422-.546 1.422-1.25zm-.53 0c0 .61-.438 1.063-.922 1.063-.422 0-.672-.297-.766-.453v-1.25c.188-.25.5-.406.828-.406.5 0 .86.484.86 1.046zm3.03.5v-.312h-.203v.297c0 .39-.203.562-.406.562-.39 0-.39-.437-.39-.547v-1.468h.89v-.219h-.89v-1h-.204c-.016.484-.25 1.016-.797 1.047v.172h.547v1.468c0 .579.422.75.797.75.39 0 .656-.312.656-.75zm3.88.688v-.219c-.375 0-.422 0-.422-.234v-1.203c0-.547-.312-.766-.875-.766-.578 0-.844.36-.922.484V41.37l-.875.063v.203c.39 0 .438.047.438.313v2.78c0 .235-.063.235-.438.235v.219c.047 0 .422-.016.656-.016.25 0 .61.016.672.016v-.219c-.375 0-.437 0-.437-.234v-.969c0-.61.516-.828.86-.828.374 0 .452.234.452.578v1.219c0 .234-.047.234-.422.234v.219c.032 0 .407-.016.657-.016.25 0 .61.016.656.016Zm6.975-2c0-.156-.157-.156-.235-.156h-3.797c-.093 0-.234 0-.234.156 0 .14.125.14.203.14h3.86c.078 0 .203 0 .203-.14zm0 1.25c0-.14-.125-.14-.203-.14h-3.86c-.078 0-.203 0-.203.14 0 .156.14.156.234.156h3.797c.078 0 .235 0 .235-.156zm5.211.75v-.219h-.234c-.578 0-.578-.062-.578-.25v-3.031c0-.156-.016-.156-.188-.156-.36.343-.922.343-1.11.343v.22c.142 0 .5 0 .829-.157v2.781c0 .188 0 .25-.563.25h-.234v.219c.297-.016.734-.016 1.031-.016.313 0 .735 0 1.047.016zm-23.563 4.967h-.203c-.063.671-.235 1.25-1.235 1.25h-.593c-.282 0-.282-.048-.282-.204v-2.875c0-.172 0-.25.532-.25h.203v-.203c-.281.016-.688.016-.985.016l-.875-.016v.203h.141c.438 0 .438.078.438.25v2.828c0 .188 0 .25-.438.25h-.14v.219h3.265Zm3.1.812c0-.032-.016-.094-.11-.094-.078 0-.078.031-.109.094-.156.422-.578.515-.828.515a.95.95 0 0 1-.719-.328c-.203-.265-.203-.625-.203-.781h1.797c.125 0 .172 0 .172-.125 0-.422-.234-1.078-1.156-1.078-.766 0-1.328.594-1.328 1.25 0 .687.625 1.266 1.406 1.266.797 0 1.078-.594 1.078-.72Zm-.406-.75h-1.547c.062-.735.562-.875.797-.875.703 0 .75.718.75.875zm3.971-.75v-.219s-.25.031-.437.031c-.188 0-.484-.015-.516-.031v.219c.235.015.235.187.235.203 0 .078-.032.125-.047.172l-.656 1.328-.704-1.484a.168.168 0 0 1-.03-.094c0-.125.187-.125.28-.125v-.219l-.656.031a7.18 7.18 0 0 1-.562-.031v.219c.328 0 .375.015.468.187l.907 1.89c.047.11.11.142.172.142.109 0 .14-.063.171-.141l.844-1.75c.14-.266.328-.328.531-.328Zm2.804 1.5c0-.032-.016-.094-.11-.094-.077 0-.077.031-.109.094-.156.422-.578.515-.828.515a.95.95 0 0 1-.719-.328c-.203-.265-.203-.625-.203-.781h1.797c.125 0 .172 0 .172-.125 0-.422-.234-1.078-1.156-1.078-.766 0-1.328.594-1.328 1.25 0 .687.625 1.266 1.406 1.266.797 0 1.078-.594 1.078-.72Zm-.406-.75h-1.547c.062-.735.562-.875.797-.875.703 0 .75.718.75.875zm2.315 1.406v-.219c-.375 0-.437 0-.437-.234v-3.36l-.86.063v.203c.375 0 .422.047.422.313v2.78c0 .235-.047.235-.422.235v.219l.641-.016c.219 0 .438 0 .656.016zm6.974-2c0-.156-.156-.156-.234-.156h-3.797c-.094 0-.234 0-.234.156 0 .14.124.14.203.14h3.859c.078 0 .203 0 .203-.14zm0 1.25c0-.14-.125-.14-.203-.14h-3.86c-.078 0-.203 0-.203.14 0 .156.141.156.235.156h3.797c.078 0 .234 0 .234-.156zm5.384-.281h-.204c0 .078-.062.437-.14.5-.047.031-.484.031-.563.031h-1.03l.702-.563c.188-.156.672-.5.844-.671.172-.157.39-.438.39-.828 0-.688-.609-1.094-1.359-1.094-.703 0-1.203.468-1.203.984 0 .281.234.313.297.313.14 0 .297-.094.297-.297 0-.125-.063-.297-.313-.297.125-.281.47-.484.844-.484.578 0 .89.421.89.875 0 .39-.265.78-.64 1.14l-1.312 1.188c-.047.062-.063.062-.063.234h2.39Zm-26.931 7.466v-.219h-.14c-.438 0-.438-.062-.438-.25v-2.828c0-.172 0-.25.438-.25h.14v-.203l-.859.016-.86-.016v.203h.141c.453 0 .453.078.453.25v1.235h-1.953v-1.235c0-.172 0-.25.453-.25h.141v-.203l-.86.016-.859-.016v.203h.141c.437 0 .437.078.437.25v2.828c0 .188 0 .25-.437.25h-.14v.219l.859-.016.86.016v-.219h-.142c-.453 0-.453-.062-.453-.25V56.21h1.953v1.375c0 .188 0 .25-.453.25h-.14v.219l.86-.016zm3.116-.656c0-.031-.016-.094-.11-.094-.078 0-.078.031-.109.094-.156.422-.578.515-.828.515a.95.95 0 0 1-.719-.328c-.203-.265-.203-.625-.203-.781h1.797c.125 0 .172 0 .172-.125 0-.422-.234-1.078-1.156-1.078-.766 0-1.328.594-1.328 1.25 0 .687.625 1.266 1.406 1.266.797 0 1.078-.594 1.078-.72Zm-.406-.75h-1.547c.062-.735.562-.875.797-.875.703 0 .75.719.75.875zm2.268 1.406v-.219c-.343 0-.39 0-.39-.234v-1.97l-.844.063v.203c.36 0 .406.047.406.312v1.39c0 .235-.047.235-.422.235v.219l.641-.016c.047 0 .469 0 .61.016zm-.312-3.312a.33.33 0 0 0-.328-.329.344.344 0 0 0-.344.329c0 .187.156.343.344.343.203 0 .328-.172.328-.343zm3.826 1.125c0-.125-.109-.297-.343-.297-.235 0-.485.093-.672.25a1.244 1.244 0 0 0-.672-.188c-.594 0-1.031.375-1.031.813 0 .172.062.359.265.547a.683.683 0 0 0-.156.437c0 .313.188.469.219.5-.203.063-.547.234-.547.547 0 .422.672.703 1.422.703.703 0 1.437-.25 1.437-.719 0-.14-.046-.484-.484-.672-.328-.125-.64-.125-1.156-.125-.125 0-.344 0-.39-.015-.141-.016-.282-.156-.282-.36 0-.109.062-.187.078-.203.125.078.344.172.625.172.61 0 1.031-.39 1.031-.812 0-.313-.234-.516-.234-.532a1.1 1.1 0 0 1 .562-.171c-.015.03-.03.046-.03.125 0 .093.062.187.171.187.125 0 .188-.094.188-.187Zm-1.124.578c0 .093 0 .625-.563.625-.453 0-.578-.328-.578-.625 0-.11 0-.641.578-.641.484 0 .563.39.563.64zm.687 2.03c0 .267-.453.532-1.078.532-.594 0-1.063-.25-1.063-.547 0-.125.125-.406.594-.406h.61c.171 0 .937 0 .937.422Zm4.048-.421v-.219c-.375 0-.422 0-.422-.234v-1.203c0-.547-.312-.766-.875-.766-.578 0-.844.36-.922.485V54.24l-.875.062v.203c.39 0 .438.047.438.313v2.78c0 .235-.063.235-.438.235v.219c.047 0 .422-.016.657-.016.25 0 .609.016.671.016v-.219c-.375 0-.437 0-.437-.234v-.969c0-.61.516-.828.86-.828.374 0 .452.234.452.578v1.22c0 .234-.046.234-.421.234v.219c.03 0 .406-.016.656-.016s.61.016.656.016Zm2.308-.687v-.313h-.204v.297c0 .39-.203.562-.406.562-.39 0-.39-.437-.39-.546v-1.47h.89v-.218h-.89v-1h-.204c-.015.484-.25 1.016-.796 1.047v.172h.546v1.469c0 .578.422.75.797.75.391 0 .657-.313.657-.75zm7.136-1.313c0-.156-.156-.156-.234-.156h-3.797c-.094 0-.234 0-.234.156 0 .14.124.14.203.14h3.859c.078 0 .203 0 .203-.14zm0 1.25c0-.14-.125-.14-.203-.14h-3.86c-.078 0-.203 0-.203.14 0 .156.141.156.235.156h3.797c.078 0 .234 0 .234-.156zm5.212.75v-.219h-.235c-.578 0-.578-.062-.578-.25v-3.031c0-.156-.015-.156-.187-.156-.36.344-.922.344-1.11.344v.218c.141 0 .5 0 .828-.156v2.781c0 .188 0 .25-.562.25h-.234v.219c.296-.016.734-.016 1.03-.016.313 0 .735 0 1.048.016zm0 0"/><path fill="none" stroke="#000" stroke-miterlimit="10" stroke-width=".399" d="m97.273 57.473-10.02 10.023"/><path d="M65.872 43.201c0-1.062-.875-1.906-1.953-1.906h-2.266v.203h.14c.438 0 .438.078.438.25v2.828c0 .188 0 .25-.437.25h-.141v.219h2.281c1.063 0 1.938-.813 1.938-1.844zm-.578 0c0 .36-.063.844-.36 1.156-.328.375-.797.47-1.156.47h-.75c-.266 0-.266-.048-.266-.204v-2.906c0-.172 0-.219.266-.219h.734c.391 0 .828.125 1.141.469.312.328.39.828.39 1.234Zm3.772 1.188c0-.032-.016-.094-.11-.094-.077 0-.077.031-.109.094-.156.422-.578.515-.828.515a.95.95 0 0 1-.719-.328c-.203-.265-.203-.625-.203-.781h1.797c.125 0 .172 0 .172-.125 0-.422-.234-1.078-1.156-1.078-.766 0-1.328.594-1.328 1.25 0 .687.625 1.265 1.406 1.265.797 0 1.078-.593 1.078-.718Zm-.406-.75h-1.547c.062-.735.562-.875.797-.875.703 0 .75.718.75.875zm4.08.218c0-.671-.577-1.234-1.343-1.234-.5 0-.812.25-.89.328v-.328l-.876.063v.203c.376 0 .438 0 .438.265v2.5c0 .25-.047.25-.438.25v.203c.047 0 .422-.015.672-.015.235 0 .61.015.657.015v-.203c-.375 0-.438 0-.438-.25v-.875c.234.22.484.328.797.328.766 0 1.422-.546 1.422-1.25zm-.53 0c0 .61-.438 1.063-.922 1.063-.422 0-.672-.297-.766-.453v-1.25c.188-.25.5-.406.828-.406.5 0 .86.484.86 1.046zm3.03.5v-.312h-.203v.297c0 .39-.203.562-.406.562-.39 0-.39-.437-.39-.547V42.89h.89v-.219h-.89v-1h-.204c-.016.484-.25 1.016-.797 1.047v.172h.547v1.468c0 .579.422.75.797.75.39 0 .656-.312.656-.75zm3.88.688v-.219c-.375 0-.422 0-.422-.234v-1.203c0-.547-.312-.766-.875-.766-.578 0-.844.36-.922.484v-1.875l-.875.063v.203c.39 0 .438.047.438.313v2.78c0 .235-.063.235-.438.235v.219c.047 0 .422-.016.657-.016.25 0 .609.016.671.016v-.219c-.375 0-.437 0-.437-.234v-.969c0-.61.516-.828.86-.828.374 0 .452.234.452.578v1.219c0 .234-.046.234-.421.234v.219c.03 0 .406-.016.656-.016s.61.016.656.016Zm6.975-2c0-.156-.157-.156-.235-.156h-3.797c-.093 0-.234 0-.234.156 0 .14.125.14.203.14h3.86c.078 0 .203 0 .203-.14zm0 1.25c0-.14-.125-.14-.203-.14h-3.86c-.078 0-.203 0-.203.14 0 .156.14.156.234.156h3.797c.078 0 .235 0 .235-.156zm5.211.75v-.219h-.234c-.578 0-.578-.062-.578-.25v-3.031c0-.156-.016-.156-.188-.156-.36.343-.922.343-1.11.343v.22c.142 0 .5 0 .829-.157v2.781c0 .188 0 .25-.562.25h-.235v.219c.297-.016.735-.016 1.031-.016.313 0 .735 0 1.047.016zm-23.563 4.966h-.203c-.063.672-.235 1.25-1.235 1.25h-.593c-.282 0-.282-.047-.282-.203v-2.875c0-.172 0-.25.532-.25h.203v-.203c-.282.016-.688.016-.985.016l-.875-.016v.203h.141c.437 0 .437.078.437.25v2.828c0 .188 0 .25-.437.25h-.14v.219h3.265Zm3.1.813c0-.032-.016-.094-.11-.094-.077 0-.077.031-.109.094-.156.422-.578.515-.828.515a.95.95 0 0 1-.719-.328c-.203-.265-.203-.625-.203-.781h1.797c.125 0 .172 0 .172-.125 0-.422-.234-1.078-1.156-1.078-.766 0-1.328.594-1.328 1.25 0 .687.625 1.265 1.406 1.265.797 0 1.078-.593 1.078-.718Zm-.406-.75H68.89c.062-.735.562-.875.797-.875.703 0 .75.718.75.875zm3.972-.75v-.219s-.25.031-.438.031c-.187 0-.484-.015-.516-.031v.219c.235.015.235.187.235.203 0 .078-.031.125-.047.172l-.656 1.328-.703-1.485a.168.168 0 0 1-.032-.093c0-.125.188-.125.282-.125v-.219l-.657.031a7.18 7.18 0 0 1-.562-.031v.219c.328 0 .375.015.469.187l.906 1.89c.047.11.11.141.172.141.109 0 .14-.062.172-.14l.843-1.75c.14-.266.328-.328.532-.328Zm2.803 1.5c0-.032-.016-.094-.11-.094-.078 0-.078.031-.109.094-.156.422-.578.515-.828.515a.95.95 0 0 1-.719-.328c-.203-.265-.203-.625-.203-.781h1.797c.125 0 .172 0 .172-.125 0-.422-.234-1.078-1.156-1.078-.766 0-1.328.594-1.328 1.25 0 .687.625 1.265 1.406 1.265.797 0 1.078-.593 1.078-.718Zm-.406-.75h-1.547c.062-.735.562-.875.797-.875.703 0 .75.718.75.875zm2.315 1.406v-.219c-.375 0-.437 0-.437-.234v-3.36l-.86.063v.203c.375 0 .422.047.422.313v2.78c0 .235-.047.235-.422.235v.219l.641-.016c.219 0 .437 0 .656.016zm6.974-2c0-.156-.156-.156-.234-.156h-3.797c-.094 0-.235 0-.235.156 0 .14.125.14.204.14h3.859c.078 0 .203 0 .203-.14zm0 1.25c0-.14-.125-.14-.203-.14h-3.86c-.078 0-.203 0-.203.14 0 .156.141.156.235.156h3.797c.078 0 .234 0 .234-.156zm5.384-.281h-.204c0 .078-.062.437-.14.5-.047.031-.485.031-.563.031h-1.03l.702-.563c.188-.156.672-.5.844-.671.172-.157.39-.438.39-.829 0-.687-.609-1.093-1.359-1.093-.703 0-1.203.468-1.203.984 0 .281.234.313.297.313.14 0 .297-.094.297-.297 0-.125-.063-.297-.313-.297.125-.281.47-.485.844-.485.578 0 .89.422.89.875 0 .391-.265.782-.64 1.141l-1.312 1.188c-.047.062-.063.062-.063.234h2.39Zm-26.931 7.466v-.219h-.14c-.438 0-.438-.062-.438-.25v-2.828c0-.172 0-.25.438-.25h.14v-.203l-.859.016-.86-.016v.203h.141c.453 0 .453.078.453.25v1.235H61.47v-1.235c0-.172 0-.25.453-.25h.141v-.203l-.86.016-.859-.016v.203h.141c.438 0 .438.078.438.25v2.828c0 .188 0 .25-.438.25h-.14v.219l.859-.016.86.016v-.219h-.142c-.453 0-.453-.062-.453-.25v-1.375h1.953v1.375c0 .188 0 .25-.453.25h-.14v.219l.86-.016zm3.116-.656c0-.031-.016-.094-.11-.094-.077 0-.077.031-.109.094-.156.422-.578.515-.828.515a.95.95 0 0 1-.719-.328c-.203-.265-.203-.625-.203-.781h1.797c.125 0 .172 0 .172-.125 0-.422-.234-1.078-1.156-1.078-.766 0-1.328.594-1.328 1.25 0 .687.625 1.266 1.406 1.266.797 0 1.078-.594 1.078-.72Zm-.406-.75H65.71c.062-.735.562-.875.797-.875.703 0 .75.719.75.875zm2.268 1.406v-.219c-.343 0-.39 0-.39-.234v-1.969l-.844.063v.203c.36 0 .406.047.406.312v1.39c0 .235-.047.235-.422.235v.219l.641-.016c.047 0 .469 0 .61.016zm-.312-3.312a.33.33 0 0 0-.328-.329.344.344 0 0 0-.344.329c0 .187.156.343.344.343.203 0 .328-.172.328-.343zm3.826 1.125c0-.125-.109-.297-.343-.297-.235 0-.485.093-.672.25a1.244 1.244 0 0 0-.672-.188c-.594 0-1.031.375-1.031.813 0 .172.062.359.265.547a.683.683 0 0 0-.156.437c0 .313.188.469.219.5-.203.063-.547.234-.547.547 0 .422.672.703 1.422.703.703 0 1.437-.25 1.437-.719 0-.14-.047-.484-.484-.672-.328-.125-.64-.125-1.156-.125-.125 0-.344 0-.39-.015-.142-.016-.282-.156-.282-.36 0-.109.062-.187.078-.203.125.078.344.172.625.172.61 0 1.031-.39 1.031-.812 0-.313-.234-.516-.234-.532a1.1 1.1 0 0 1 .562-.171c-.015.03-.03.046-.03.125 0 .093.062.187.171.187.125 0 .187-.094.187-.187Zm-1.125.578c0 .093 0 .625-.562.625-.453 0-.578-.328-.578-.625 0-.11 0-.641.578-.641.484 0 .562.39.562.64zm.688 2.03c0 .267-.453.532-1.078.532-.594 0-1.063-.25-1.063-.547 0-.125.125-.406.594-.406h.61c.171 0 .937 0 .937.422Zm4.048-.421v-.219c-.375 0-.422 0-.422-.234v-1.203c0-.547-.312-.766-.875-.766-.578 0-.844.36-.922.485v-1.875l-.875.062v.203c.39 0 .438.047.438.313v2.78c0 .235-.063.235-.438.235v.219c.047 0 .422-.016.657-.016.25 0 .609.016.671.016v-.219c-.375 0-.437 0-.437-.234v-.969c0-.61.516-.828.86-.828.374 0 .452.234.452.578v1.219c0 .234-.046.234-.421.234v.219c.03 0 .406-.016.656-.016s.61.016.656.016Zm2.308-.687v-.313h-.203v.297c0 .39-.204.562-.407.562-.39 0-.39-.437-.39-.546v-1.47h.89v-.218h-.89v-1h-.203c-.016.484-.25 1.016-.797 1.047v.172h.547v1.469c0 .578.421.75.796.75.391 0 .657-.313.657-.75zm7.136-1.313c0-.156-.156-.156-.234-.156h-3.797c-.094 0-.235 0-.235.156 0 .14.125.14.204.14h3.859c.078 0 .203 0 .203-.14zm0 1.25c0-.14-.125-.14-.203-.14h-3.86c-.078 0-.203 0-.203.14 0 .156.141.156.235.156h3.797c.078 0 .234 0 .234-.156zm5.384-.281h-.204c0 .078-.062.437-.14.5-.047.031-.485.031-.563.031h-1.03l.702-.562c.188-.157.672-.5.844-.672.172-.157.39-.438.39-.828 0-.688-.609-1.094-1.359-1.094-.703 0-1.203.469-1.203.984 0 .281.234.313.297.313.14 0 .297-.094.297-.297 0-.125-.063-.297-.313-.297.125-.281.47-.484.844-.484.578 0 .89.421.89.875 0 .39-.265.78-.64 1.14l-1.312 1.188c-.047.062-.063.062-.063.234h2.39Zm0 0"/><path fill="none" stroke="#000" stroke-miterlimit="10" stroke-width=".399" d="M72.352 82.395 62.328 92.418"/><path d="M41.12 67.953c0-1.062-.875-1.906-1.953-1.906H36.9v.203h.14c.438 0 .438.078.438.25v2.828c0 .188 0 .25-.437.25H36.9v.219h2.281c1.063 0 1.938-.813 1.938-1.844zm-.578 0c0 .36-.063.844-.36 1.156-.328.375-.797.47-1.156.47h-.75c-.266 0-.266-.048-.266-.204V66.47c0-.172 0-.219.266-.219h.734c.391 0 .829.125 1.141.469.313.328.39.828.39 1.234Zm3.772 1.187c0-.03-.016-.093-.11-.093-.078 0-.078.031-.109.094-.156.422-.578.515-.828.515a.95.95 0 0 1-.719-.328c-.203-.265-.203-.625-.203-.781h1.797c.125 0 .172 0 .172-.125 0-.422-.234-1.078-1.156-1.078-.766 0-1.328.594-1.328 1.25 0 .687.625 1.265 1.406 1.265.797 0 1.078-.593 1.078-.718Zm-.406-.75H42.36c.062-.734.562-.874.797-.874.703 0 .75.718.75.875zm4.081.22c0-.672-.578-1.235-1.344-1.235-.5 0-.812.25-.89.328v-.328l-.875.063v.203c.375 0 .437 0 .437.265v2.5c0 .25-.047.25-.437.25v.203c.046 0 .421-.015.671-.015.235 0 .61.015.657.015v-.203c-.375 0-.438 0-.438-.25v-.875c.235.22.485.328.797.328.766 0 1.422-.546 1.422-1.25zm-.531 0c0 .609-.438 1.062-.922 1.062-.422 0-.672-.297-.766-.453v-1.25c.188-.25.5-.406.828-.406.5 0 .86.484.86 1.046zm3.03.5v-.313h-.203v.297c0 .39-.203.562-.406.562-.39 0-.39-.437-.39-.547v-1.468h.89v-.219h-.89v-1h-.204c-.016.484-.25 1.016-.797 1.047v.172h.547v1.468c0 .579.422.75.797.75.39 0 .656-.312.656-.75zm3.88.687v-.219c-.375 0-.422 0-.422-.234V68.14c0-.547-.312-.766-.875-.766-.578 0-.844.36-.922.484v-1.875l-.875.063v.203c.39 0 .438.047.438.313v2.78c0 .235-.063.235-.438.235v.219c.047 0 .422-.016.657-.016.25 0 .609.016.671.016v-.219c-.375 0-.437 0-.437-.234v-.969c0-.61.516-.828.86-.828.374 0 .452.234.452.578v1.219c0 .234-.046.234-.421.234v.219c.03 0 .406-.016.656-.016s.61.016.656.016Zm6.975-2c0-.156-.157-.156-.235-.156h-3.797c-.093 0-.234 0-.234.156 0 .14.125.14.203.14h3.86c.078 0 .203 0 .203-.14zm0 1.25c0-.14-.125-.14-.204-.14H57.28c-.078 0-.203 0-.203.14 0 .156.14.156.234.156h3.797c.078 0 .235 0 .235-.156zm5.383-.281h-.203c0 .078-.063.437-.14.5-.048.031-.485.031-.563.031h-1.031l.703-.563c.187-.156.672-.5.843-.671.172-.157.391-.438.391-.829 0-.687-.61-1.093-1.36-1.093-.702 0-1.202.468-1.202.984 0 .281.234.313.296.313.141 0 .297-.094.297-.297 0-.125-.062-.297-.312-.297.125-.281.469-.485.844-.485.578 0 .89.422.89.875 0 .391-.265.782-.64 1.141l-1.313 1.188c-.047.062-.062.062-.062.234h2.39ZM42.99 74.763h-.202c-.063.672-.235 1.25-1.235 1.25h-.593c-.282 0-.282-.047-.282-.203v-2.875c0-.172 0-.25.532-.25h.203v-.203c-.281.016-.688.016-.985.016l-.875-.016v.203h.141c.438 0 .438.078.438.25v2.828c0 .188 0 .25-.438.25h-.14v.219h3.265Zm3.101.813c0-.031-.016-.094-.11-.094-.078 0-.078.031-.109.094-.156.422-.578.515-.828.515a.95.95 0 0 1-.719-.328c-.203-.265-.203-.625-.203-.781h1.797c.125 0 .172 0 .172-.125 0-.422-.234-1.078-1.156-1.078-.766 0-1.328.594-1.328 1.25 0 .687.625 1.266 1.406 1.266.797 0 1.078-.594 1.078-.72Zm-.406-.75h-1.547c.062-.735.562-.875.797-.875.703 0 .75.719.75.875zm3.972-.75v-.219s-.25.031-.438.031c-.187 0-.484-.015-.516-.031v.219c.235.015.235.187.235.203 0 .078-.031.125-.047.172l-.656 1.328-.703-1.484a.168.168 0 0 1-.032-.094c0-.125.188-.125.282-.125v-.219l-.657.031a7.18 7.18 0 0 1-.562-.031v.219c.328 0 .375.015.469.187l.906 1.89c.047.11.11.142.172.142.109 0 .14-.063.172-.141l.843-1.75c.14-.266.328-.328.532-.328Zm2.803 1.5c0-.031-.016-.094-.11-.094-.078 0-.078.031-.109.094-.156.422-.578.515-.828.515a.95.95 0 0 1-.719-.328c-.203-.265-.203-.625-.203-.781h1.797c.125 0 .172 0 .172-.125 0-.422-.234-1.078-1.156-1.078-.766 0-1.328.594-1.328 1.25 0 .687.625 1.266 1.406 1.266.797 0 1.078-.594 1.078-.72Zm-.406-.75h-1.547c.062-.735.562-.875.797-.875.703 0 .75.719.75.875zm2.316 1.406v-.219c-.376 0-.438 0-.438-.234v-3.36l-.86.063v.203c.375 0 .422.047.422.313v2.78c0 .235-.047.235-.422.235v.219l.641-.016c.219 0 .438 0 .656.016zm6.973-2c0-.156-.156-.156-.234-.156h-3.797c-.094 0-.235 0-.235.156 0 .14.125.14.204.14h3.859c.078 0 .203 0 .203-.14zm0 1.25c0-.14-.125-.14-.203-.14h-3.86c-.078 0-.203 0-.203.14 0 .156.141.156.235.156h3.797c.078 0 .234 0 .234-.156zm5.447-.203c0-.406-.313-.828-.97-.984.438-.141.782-.5.782-.954 0-.437-.516-.765-1.172-.765-.64 0-1.14.297-1.14.75 0 .234.187.297.296.297.14 0 .297-.094.297-.297 0-.156-.125-.266-.266-.281.25-.282.75-.282.797-.282.281 0 .64.125.64.578 0 .313-.171.829-.718.86-.11.015-.25.031-.297.031-.062 0-.125 0-.125.094 0 .078.063.078.156.078h.313c.469 0 .781.312.781.875 0 .61-.36.875-.75.875-.156 0-.719-.031-.969-.36.22-.015.297-.156.297-.312 0-.187-.125-.312-.312-.312a.307.307 0 0 0-.313.328c0 .547.61.843 1.313.843.812 0 1.36-.515 1.36-1.062zm-26.993 7.388v-.219h-.141c-.438 0-.438-.062-.438-.25V79.37c0-.172 0-.25.438-.25h.14v-.203l-.859.016-.86-.016v.203h.141c.454 0 .454.078.454.25v1.234h-1.954V79.37c0-.172 0-.25.454-.25h.14v-.203l-.86.016-.859-.016v.203h.141c.438 0 .438.078.438.25v2.828c0 .188 0 .25-.438.25h-.14v.219l.859-.016.86.016v-.219h-.141c-.454 0-.454-.062-.454-.25v-1.375h1.954v1.375c0 .188 0 .25-.454.25h-.14v.219l.86-.016zm3.115-.657c0-.03-.016-.093-.11-.093-.078 0-.078.031-.109.094-.156.422-.578.515-.828.515a.95.95 0 0 1-.719-.328c-.203-.265-.203-.625-.203-.781h1.797c.125 0 .172 0 .172-.125 0-.422-.234-1.078-1.156-1.078-.766 0-1.328.594-1.328 1.25 0 .687.625 1.266 1.406 1.266.797 0 1.078-.594 1.078-.72Zm-.406-.75h-1.547c.062-.734.562-.874.797-.874.703 0 .75.719.75.875zm2.268 1.407v-.219c-.343 0-.39 0-.39-.234v-1.969l-.844.063v.203c.36 0 .406.047.406.312v1.39c0 .235-.047.235-.422.235v.219l.641-.016c.047 0 .469 0 .61.016zm-.312-3.313a.33.33 0 0 0-.328-.328.344.344 0 0 0-.344.329c0 .187.156.343.344.343.203 0 .328-.172.328-.343zm3.827 1.126c0-.126-.11-.297-.344-.297-.235 0-.485.093-.672.25a1.244 1.244 0 0 0-.672-.188c-.594 0-1.031.375-1.031.813 0 .171.062.359.265.546a.683.683 0 0 0-.156.438c0 .313.188.469.219.5-.203.063-.547.234-.547.547 0 .422.672.703 1.422.703.703 0 1.437-.25 1.437-.719 0-.14-.046-.484-.484-.672-.328-.125-.64-.125-1.156-.125-.125 0-.344 0-.39-.015-.141-.016-.282-.156-.282-.36 0-.109.062-.187.078-.203.125.078.344.172.625.172.61 0 1.031-.39 1.031-.812 0-.313-.234-.516-.234-.532a1.1 1.1 0 0 1 .562-.171c-.015.03-.03.046-.03.124 0 .094.062.188.171.188.125 0 .188-.094.188-.188Zm-1.125.578c0 .093 0 .625-.563.625-.453 0-.578-.329-.578-.625 0-.11 0-.641.578-.641.484 0 .563.39.563.64zm.687 2.03c0 .267-.453.532-1.078.532-.594 0-1.063-.25-1.063-.547 0-.125.125-.406.594-.406h.61c.171 0 .937 0 .937.422Zm4.048-.421v-.219c-.375 0-.422 0-.422-.234V81.01c0-.547-.312-.766-.875-.766-.578 0-.844.36-.922.484v-1.874l-.875.062v.203c.39 0 .438.047.438.313v2.78c0 .235-.063.235-.438.235v.219c.047 0 .422-.016.656-.016.25 0 .61.016.672.016v-.219c-.375 0-.437 0-.437-.234v-.969c0-.61.515-.828.86-.828.374 0 .452.234.452.578v1.219c0 .234-.047.234-.422.234v.219c.032 0 .407-.016.657-.016.25 0 .61.016.656.016Zm2.308-.687v-.313h-.203v.297c0 .39-.204.562-.407.562-.39 0-.39-.437-.39-.546v-1.47h.89v-.218h-.89v-1h-.203c-.016.484-.25 1.016-.797 1.047v.172h.547v1.469c0 .578.421.75.796.75.391 0 .657-.313.657-.75zm7.136-1.313c0-.156-.156-.156-.234-.156h-3.797c-.094 0-.235 0-.235.156 0 .14.125.14.204.14h3.859c.078 0 .203 0 .203-.14zm0 1.25c0-.14-.125-.14-.203-.14h-3.86c-.078 0-.203 0-.203.14 0 .156.141.156.235.156h3.797c.078 0 .234 0 .234-.156zm5.212.75v-.219h-.235c-.578 0-.578-.062-.578-.25v-3.031c0-.156-.015-.156-.187-.156-.36.344-.922.344-1.11.344v.218c.141 0 .5 0 .828-.156v2.781c0 .188 0 .25-.562.25h-.234v.219c.296-.016.734-.016 1.03-.016.313 0 .735 0 1.048.016zM16.05 93.023c0-1.062-.875-1.906-1.953-1.906H11.83v.203h.14c.438 0 .438.078.438.25v2.828c0 .188 0 .25-.437.25h-.141v.219h2.281c1.063 0 1.938-.813 1.938-1.844zm-.578 0c0 .36-.063.844-.36 1.156-.328.375-.797.47-1.156.47h-.75c-.266 0-.266-.048-.266-.204V91.54c0-.172 0-.219.266-.219h.734c.391 0 .829.125 1.141.469.313.328.39.828.39 1.234Zm3.772 1.187c0-.03-.016-.093-.11-.093-.078 0-.078.031-.109.094-.156.422-.578.515-.828.515a.95.95 0 0 1-.719-.328c-.203-.265-.203-.625-.203-.781h1.797c.125 0 .172 0 .172-.125 0-.422-.234-1.078-1.156-1.078-.766 0-1.328.594-1.328 1.25 0 .687.625 1.265 1.406 1.265.797 0 1.078-.593 1.078-.718Zm-.406-.75H17.29c.062-.734.562-.874.797-.874.703 0 .75.718.75.875zm4.081.22c0-.672-.578-1.235-1.344-1.235-.5 0-.812.25-.89.328v-.328l-.875.063v.203c.375 0 .437 0 .437.265v2.5c0 .25-.047.25-.438.25v.203c.047 0 .422-.015.672-.015.235 0 .61.015.657.015v-.203c-.375 0-.438 0-.438-.25v-.875c.235.22.485.328.797.328.766 0 1.422-.546 1.422-1.25zm-.531 0c0 .609-.438 1.062-.922 1.062-.422 0-.672-.297-.766-.453v-1.25c.188-.25.5-.406.828-.406.5 0 .86.484.86 1.046zm3.03.5v-.313h-.203v.297c0 .39-.203.562-.406.562-.39 0-.39-.437-.39-.547v-1.468h.89v-.219h-.89v-1h-.204c-.016.484-.25 1.016-.797 1.047v.172h.547v1.468c0 .579.422.75.797.75.39 0 .656-.312.656-.75zm3.88.687v-.219c-.375 0-.422 0-.422-.234V93.21c0-.547-.312-.766-.875-.766-.578 0-.844.36-.922.484v-1.875l-.875.063v.203c.39 0 .438.047.438.313v2.78c0 .235-.063.235-.438.235v.219c.047 0 .422-.016.656-.016.25 0 .61.016.672.016v-.219c-.375 0-.437 0-.437-.234v-.969c0-.61.515-.828.86-.828.374 0 .452.234.452.578v1.219c0 .234-.047.234-.422.234v.219c.032 0 .407-.016.657-.016.25 0 .61.016.656.016Zm6.975-2c0-.156-.157-.156-.235-.156h-3.797c-.093 0-.234 0-.234.156 0 .14.125.14.203.14h3.86c.078 0 .203 0 .203-.14zm0 1.25c0-.14-.125-.14-.203-.14h-3.86c-.078 0-.203 0-.203.14 0 .156.14.156.234.156h3.797c.078 0 .235 0 .235-.156zm5.446-.203c0-.406-.313-.828-.97-.985.438-.14.782-.5.782-.953 0-.437-.516-.765-1.172-.765-.64 0-1.14.297-1.14.75 0 .234.187.297.296.297.141 0 .297-.094.297-.297 0-.157-.125-.266-.265-.282.25-.28.75-.28.797-.28.28 0 .64.124.64.577 0 .313-.172.828-.719.86-.109.015-.25.031-.296.031-.063 0-.125 0-.125.094 0 .078.062.078.156.078h.312c.47 0 .782.312.782.875 0 .61-.36.875-.75.875-.157 0-.72-.031-.97-.36.22-.015.298-.156.298-.312 0-.188-.125-.313-.313-.313a.307.307 0 0 0-.312.329c0 .546.61.843 1.312.843.813 0 1.36-.515 1.36-1.062zM17.92 99.833h-.202c-.063.672-.235 1.25-1.235 1.25h-.593c-.282 0-.282-.047-.282-.203v-2.875c0-.172 0-.25.532-.25h.203v-.203c-.281.016-.688.016-.985.016l-.875-.016v.203h.141c.438 0 .438.078.438.25v2.828c0 .188 0 .25-.438.25h-.14v.219h3.265Zm3.101.813c0-.031-.016-.094-.11-.094-.078 0-.078.031-.109.094-.156.422-.578.515-.828.515a.95.95 0 0 1-.719-.328c-.203-.265-.203-.625-.203-.781h1.797c.125 0 .172 0 .172-.125 0-.422-.234-1.078-1.156-1.078-.766 0-1.328.594-1.328 1.25 0 .687.625 1.266 1.406 1.266.797 0 1.078-.594 1.078-.72Zm-.406-.75h-1.547c.062-.735.562-.875.797-.875.703 0 .75.719.75.875zm3.972-.75v-.219s-.25.031-.438.031-.484-.015-.516-.031v.219c.235.015.235.187.235.203 0 .078-.031.125-.047.172l-.656 1.328-.703-1.484a.168.168 0 0 1-.032-.094c0-.125.188-.125.282-.125v-.219l-.657.031a7.18 7.18 0 0 1-.562-.031v.219c.328 0 .375.015.469.187l.906 1.89c.047.11.11.142.172.142.109 0 .14-.063.172-.141l.843-1.75c.14-.266.328-.328.532-.328Zm2.803 1.5c0-.031-.016-.094-.11-.094-.078 0-.078.031-.109.094-.156.422-.578.515-.828.515a.95.95 0 0 1-.719-.328c-.203-.265-.203-.625-.203-.781h1.797c.125 0 .172 0 .172-.125 0-.422-.234-1.078-1.156-1.078-.766 0-1.328.594-1.328 1.25 0 .687.625 1.266 1.406 1.266.797 0 1.078-.594 1.078-.72Zm-.406-.75h-1.547c.062-.735.562-.875.797-.875.703 0 .75.719.75.875zm2.316 1.406v-.219c-.376 0-.438 0-.438-.234v-3.36l-.86.063v.203c.375 0 .422.047.422.313v2.78c0 .235-.047.235-.422.235v.219l.641-.016c.219 0 .438 0 .656.016zm6.973-2c0-.156-.156-.156-.234-.156h-3.797c-.094 0-.234 0-.234.156 0 .14.124.14.203.14h3.859c.078 0 .203 0 .203-.14zm0 1.25c0-.14-.125-.14-.203-.14h-3.86c-.078 0-.203 0-.203.14 0 .156.141.156.235.156h3.797c.078 0 .234 0 .234-.156zm5.54-.156v-.203h-.656v-2.438c0-.125 0-.172-.125-.172-.11 0-.11.016-.172.094l-1.907 2.516v.203h1.72v.437c0 .188 0 .25-.47.25h-.156v.219l.875-.016.86.016v-.219h-.157c-.468 0-.468-.062-.468-.25v-.437zm-1.11-.203h-1.515l1.515-2zm-25.977 7.544v-.219h-.14c-.438 0-.438-.062-.438-.25v-2.828c0-.172 0-.25.438-.25h.14v-.203l-.859.016-.86-.016v.203h.141c.454 0 .454.078.454.25v1.234h-1.954v-1.234c0-.172 0-.25.454-.25h.14v-.203l-.86.016-.859-.016v.203h.141c.438 0 .438.078.438.25v2.828c0 .188 0 .25-.438.25h-.14v.219l.859-.016.86.016v-.219H12.1c-.453 0-.453-.062-.453-.25v-1.375h1.954v1.375c0 .188 0 .25-.454.25h-.14v.219l.86-.016zm3.116-.657c0-.03-.016-.093-.11-.093-.078 0-.078.031-.109.094-.156.422-.578.515-.828.515a.95.95 0 0 1-.719-.328c-.203-.265-.203-.625-.203-.781h1.797c.125 0 .172 0 .172-.125 0-.422-.234-1.078-1.156-1.078-.766 0-1.328.594-1.328 1.25 0 .687.625 1.265 1.406 1.265.797 0 1.078-.593 1.078-.718Zm-.406-.75h-1.547c.062-.734.562-.874.797-.874.703 0 .75.718.75.875zm2.268 1.407v-.219c-.343 0-.39 0-.39-.234v-1.969l-.844.063v.203c.36 0 .406.047.406.312v1.39c0 .235-.047.235-.422.235v.219l.641-.016c.047 0 .469 0 .61.016zm-.312-3.313a.33.33 0 0 0-.328-.328.344.344 0 0 0-.344.328c0 .188.156.344.344.344.203 0 .328-.172.328-.344zm3.826 1.126c0-.126-.109-.297-.343-.297-.235 0-.485.093-.672.25a1.244 1.244 0 0 0-.672-.188c-.594 0-1.031.375-1.031.813 0 .171.062.359.265.546a.683.683 0 0 0-.156.438c0 .313.188.469.219.5-.203.063-.547.234-.547.547 0 .422.672.703 1.422.703.703 0 1.437-.25 1.437-.719 0-.14-.047-.484-.484-.672-.328-.125-.64-.125-1.156-.125-.125 0-.344 0-.39-.015-.142-.016-.282-.157-.282-.36 0-.109.062-.187.078-.203.125.078.344.172.625.172.61 0 1.031-.39 1.031-.812 0-.313-.234-.516-.234-.532a1.1 1.1 0 0 1 .562-.172c-.015.032-.03.047-.03.125 0 .094.062.188.171.188.125 0 .188-.094.188-.188Zm-1.125.578c0 .093 0 .625-.562.625-.453 0-.578-.329-.578-.625 0-.11 0-.641.578-.641.484 0 .563.39.563.64zm.688 2.03c0 .266-.453.532-1.078.532-.594 0-1.063-.25-1.063-.547 0-.125.125-.406.594-.406h.61c.171 0 .937 0 .937.422Zm4.048-.421v-.219c-.375 0-.422 0-.422-.234v-1.203c0-.547-.312-.766-.875-.766-.578 0-.844.36-.922.484v-1.875l-.875.063v.203c.39 0 .438.047.438.313v2.78c0 .235-.063.235-.438.235v.219c.047 0 .422-.016.657-.016.25 0 .609.016.671.016v-.219c-.375 0-.437 0-.437-.234v-.969c0-.61.515-.828.86-.828.374 0 .452.234.452.578v1.219c0 .234-.046.234-.421.234v.219c.03 0 .406-.016.656-.016s.61.016.656.016Zm2.308-.687v-.313h-.204v.297c0 .39-.203.562-.406.562-.39 0-.39-.437-.39-.547v-1.468h.89v-.219h-.89v-1h-.204c-.015.484-.25 1.016-.796 1.047v.172h.546v1.468c0 .579.422.75.797.75.391 0 .657-.312.657-.75zm7.136-1.313c0-.156-.156-.156-.234-.156h-3.797c-.094 0-.234 0-.234.156 0 .14.124.14.203.14h3.859c.078 0 .203 0 .203-.14zm0 1.25c0-.14-.125-.14-.203-.14h-3.86c-.078 0-.203 0-.203.14 0 .156.141.156.235.156h3.797c.078 0 .234 0 .234-.156zm5.462-1c0-.406 0-1.906-1.36-1.906-1.343 0-1.343 1.5-1.343 1.906 0 .39 0 1.86 1.343 1.86 1.36 0 1.36-1.47 1.36-1.86zm-.532-.078c0 .36 0 .906-.093 1.219a.737.737 0 0 1-.735.546.76.76 0 0 1-.734-.562c-.078-.328-.078-.86-.078-1.203 0-.36 0-.797.062-1.094.141-.484.563-.562.75-.562.266 0 .625.125.75.546.078.282.078.688.078 1.11Zm0 0"/><path fill="none" stroke="#000" stroke-miterlimit="10" stroke-width=".399" d="m146.871 57.75-10.02 10.02m24.856-10.02 10.023 10.02"/><path d="M197.416 67.913c0-1.062-.875-1.906-1.953-1.906h-2.266v.203h.14c.438 0 .438.078.438.25v2.828c0 .188 0 .25-.437.25h-.141v.219h2.281c1.063 0 1.938-.812 1.938-1.844zm-.578 0c0 .36-.063.844-.36 1.157-.328.375-.797.468-1.156.468h-.75c-.266 0-.266-.047-.266-.203V66.43c0-.172 0-.219.266-.219h.734c.391 0 .829.125 1.141.469.313.328.39.828.39 1.234Zm3.772 1.187c0-.03-.016-.093-.11-.093-.077 0-.077.031-.109.094-.156.422-.578.515-.828.515a.95.95 0 0 1-.719-.328c-.203-.265-.203-.625-.203-.781h1.797c.125 0 .172 0 .172-.125 0-.422-.234-1.078-1.156-1.078-.766 0-1.328.594-1.328 1.25 0 .687.625 1.266 1.406 1.266.797 0 1.078-.594 1.078-.72Zm-.406-.75h-1.547c.062-.734.562-.874.797-.874.703 0 .75.719.75.875zm4.081.22c0-.672-.578-1.235-1.344-1.235-.5 0-.812.25-.89.328v-.328l-.875.063v.203c.375 0 .437 0 .437.265v2.5c0 .25-.047.25-.437.25v.204c.046 0 .421-.016.671-.016.235 0 .61.016.657.016v-.204c-.375 0-.438 0-.438-.25v-.875c.235.22.485.329.797.329.766 0 1.422-.547 1.422-1.25zm-.531 0c0 .609-.438 1.062-.922 1.062-.422 0-.672-.297-.766-.453v-1.25c.188-.25.5-.406.828-.406.5 0 .86.484.86 1.047zm3.03.5v-.313h-.203v.297c0 .39-.203.562-.406.562-.39 0-.39-.437-.39-.546V67.6h.89v-.218h-.89v-1h-.204c-.016.484-.25 1.016-.797 1.047v.172h.547v1.469c0 .578.422.75.797.75.39 0 .656-.313.656-.75zm3.88.687v-.219c-.375 0-.422 0-.422-.234V68.1c0-.547-.312-.766-.875-.766-.578 0-.844.36-.922.485v-1.875l-.875.062v.203c.39 0 .438.047.438.313v2.78c0 .235-.063.235-.438.235v.219c.047 0 .422-.016.656-.016.25 0 .61.016.672.016v-.219c-.375 0-.437 0-.437-.234v-.969c0-.61.515-.828.86-.828.374 0 .452.234.452.578v1.219c0 .234-.047.234-.422.234v.219c.032 0 .407-.016.657-.016.25 0 .61.016.656.016Zm6.975-2c0-.156-.157-.156-.235-.156h-3.797c-.093 0-.234 0-.234.156 0 .14.125.14.203.14h3.86c.078 0 .203 0 .203-.14zm0 1.25c0-.14-.125-.14-.204-.14h-3.859c-.078 0-.203 0-.203.14 0 .156.14.156.234.156h3.797c.078 0 .235 0 .235-.156zm5.383-.281h-.203c0 .078-.063.437-.14.5-.048.031-.485.031-.563.031h-1.031l.703-.562c.187-.157.672-.5.843-.672.172-.157.391-.438.391-.828 0-.688-.61-1.094-1.36-1.094-.702 0-1.202.469-1.202.984 0 .281.234.313.296.313.141 0 .297-.094.297-.297 0-.125-.062-.297-.312-.297.125-.281.469-.484.844-.484.578 0 .89.421.89.875 0 .39-.265.78-.64 1.14l-1.313 1.188c-.047.062-.062.062-.062.234h2.39Zm-23.735 5.997h-.203c-.063.672-.235 1.25-1.235 1.25h-.593c-.282 0-.282-.047-.282-.203v-2.875c0-.172 0-.25.532-.25h.203v-.203c-.281.016-.688.016-.985.016l-.875-.016v.203h.141c.438 0 .438.078.438.25v2.828c0 .188 0 .25-.438.25h-.14v.219h3.265Zm3.1.813c0-.031-.016-.094-.11-.094-.078 0-.078.031-.109.094-.156.422-.578.515-.828.515a.95.95 0 0 1-.719-.328c-.203-.265-.203-.625-.203-.781h1.797c.125 0 .172 0 .172-.125 0-.422-.234-1.078-1.156-1.078-.766 0-1.328.594-1.328 1.25 0 .687.625 1.266 1.406 1.266.797 0 1.078-.594 1.078-.72Zm-.406-.75h-1.547c.062-.735.562-.875.797-.875.703 0 .75.719.75.875zm3.971-.75v-.219s-.25.031-.437.031c-.188 0-.484-.015-.516-.031v.219c.235.015.235.187.235.203 0 .078-.032.125-.047.172l-.656 1.328-.704-1.484a.168.168 0 0 1-.03-.094c0-.125.187-.125.28-.125v-.219l-.656.031a7.18 7.18 0 0 1-.562-.031v.219c.328 0 .375.015.468.187l.907 1.89c.047.11.11.142.172.142.109 0 .14-.063.171-.141l.844-1.75c.14-.266.328-.328.531-.328Zm2.804 1.5c0-.031-.016-.094-.11-.094-.077 0-.077.031-.109.094-.156.422-.578.515-.828.515a.95.95 0 0 1-.719-.328c-.203-.265-.203-.625-.203-.781h1.797c.125 0 .172 0 .172-.125 0-.422-.234-1.078-1.156-1.078-.766 0-1.328.594-1.328 1.25 0 .687.625 1.266 1.406 1.266.797 0 1.078-.594 1.078-.72Zm-.406-.75h-1.547c.062-.735.562-.875.797-.875.703 0 .75.719.75.875zm2.315 1.406v-.219c-.375 0-.437 0-.437-.234v-3.36l-.86.063v.203c.375 0 .422.047.422.313v2.78c0 .235-.047.235-.422.235v.219l.641-.016c.219 0 .438 0 .656.016zm6.975-2c0-.156-.157-.156-.235-.156h-3.797c-.094 0-.234 0-.234.156 0 .14.125.14.203.14h3.859c.078 0 .203 0 .203-.14zm0 1.25c0-.14-.126-.14-.204-.14h-3.86c-.077 0-.202 0-.202.14 0 .156.14.156.234.156h3.797c.078 0 .234 0 .234-.156zm5.445-.203c0-.406-.312-.828-.969-.984.438-.141.782-.5.782-.954 0-.437-.516-.765-1.172-.765-.64 0-1.14.297-1.14.75 0 .234.187.297.296.297.14 0 .297-.094.297-.297 0-.156-.125-.266-.266-.281.25-.282.75-.282.797-.282.281 0 .64.125.64.578 0 .313-.171.829-.718.86-.11.015-.25.031-.297.031-.062 0-.125 0-.125.094 0 .078.063.078.156.078h.313c.469 0 .781.312.781.875 0 .61-.36.875-.75.875-.156 0-.719-.031-.969-.36.22-.015.297-.156.297-.312 0-.187-.125-.312-.312-.312a.307.307 0 0 0-.313.328c0 .547.61.843 1.313.843.812 0 1.36-.515 1.36-1.062zm-26.992 7.388v-.219h-.141c-.438 0-.438-.062-.438-.25V79.33c0-.172 0-.25.438-.25h.14v-.203l-.859.016-.86-.016v.203h.141c.453 0 .453.078.453.25v1.234h-1.953V79.33c0-.172 0-.25.453-.25h.141v-.203l-.86.016-.859-.016v.203h.141c.438 0 .438.078.438.25v2.828c0 .188 0 .25-.438.25h-.14v.219l.859-.016.86.016v-.219h-.142c-.453 0-.453-.062-.453-.25v-1.375h1.953v1.375c0 .188 0 .25-.453.25h-.14v.219l.86-.016zm3.115-.657c0-.03-.016-.093-.11-.093-.078 0-.078.031-.109.094-.156.422-.578.515-.828.515a.95.95 0 0 1-.719-.328c-.203-.265-.203-.625-.203-.781h1.797c.125 0 .172 0 .172-.125 0-.422-.234-1.078-1.156-1.078-.766 0-1.328.594-1.328 1.25 0 .687.625 1.265 1.406 1.265.797 0 1.078-.593 1.078-.718Zm-.406-.75h-1.547c.062-.734.562-.874.797-.874.703 0 .75.718.75.875zm2.268 1.407v-.219c-.343 0-.39 0-.39-.234v-1.969l-.844.063v.203c.36 0 .406.047.406.312v1.39c0 .235-.047.235-.422.235v.219l.641-.016c.047 0 .469 0 .61.016zm-.312-3.313a.33.33 0 0 0-.328-.328.344.344 0 0 0-.344.328c0 .188.156.344.344.344.203 0 .328-.172.328-.344zm3.826 1.126c0-.126-.109-.297-.343-.297-.235 0-.485.093-.672.25a1.244 1.244 0 0 0-.672-.188c-.594 0-1.031.375-1.031.813 0 .171.062.359.265.546a.683.683 0 0 0-.156.438c0 .312.188.469.219.5-.203.062-.547.234-.547.547 0 .422.672.703 1.422.703.703 0 1.437-.25 1.437-.719 0-.14-.047-.484-.484-.672-.328-.125-.64-.125-1.156-.125-.125 0-.344 0-.39-.015-.142-.016-.282-.157-.282-.36 0-.109.062-.187.078-.203.125.078.344.172.625.172.61 0 1.031-.39 1.031-.812 0-.313-.234-.516-.234-.532a1.1 1.1 0 0 1 .562-.172c-.015.032-.03.047-.03.125 0 .094.062.188.171.188.125 0 .188-.094.188-.188Zm-1.125.578c0 .093 0 .625-.562.625-.453 0-.578-.329-.578-.625 0-.11 0-.641.578-.641.484 0 .563.39.563.64zm.688 2.03c0 .266-.453.532-1.078.532-.594 0-1.063-.25-1.063-.547 0-.125.125-.406.594-.406h.61c.171 0 .937 0 .937.422Zm4.048-.421v-.219c-.375 0-.422 0-.422-.234V80.97c0-.547-.312-.766-.875-.766-.578 0-.844.36-.922.484v-1.875l-.875.063v.203c.39 0 .438.047.438.313v2.78c0 .235-.063.235-.438.235v.219c.047 0 .422-.016.657-.016.25 0 .609.016.671.016v-.219c-.375 0-.437 0-.437-.234v-.969c0-.61.516-.828.86-.828.374 0 .452.234.452.578v1.219c0 .234-.046.234-.421.234v.219c.03 0 .406-.016.656-.016s.61.016.656.016Zm2.308-.687v-.313h-.203v.297c0 .39-.204.562-.407.562-.39 0-.39-.437-.39-.547v-1.468h.89v-.219h-.89v-1h-.203c-.016.484-.25 1.016-.797 1.047v.172h.547v1.468c0 .579.421.75.796.75.391 0 .657-.312.657-.75zm7.137-1.313c0-.156-.157-.156-.235-.156h-3.797c-.094 0-.234 0-.234.156 0 .14.125.14.203.14h3.859c.078 0 .203 0 .203-.14zm0 1.25c0-.14-.126-.14-.204-.14h-3.86c-.077 0-.202 0-.202.14 0 .156.14.156.234.156h3.797c.078 0 .234 0 .234-.156zm5.46-1c0-.406 0-1.906-1.359-1.906-1.343 0-1.343 1.5-1.343 1.906 0 .39 0 1.86 1.343 1.86 1.36 0 1.36-1.47 1.36-1.86zm-.53-.078c0 .36 0 .906-.094 1.219a.737.737 0 0 1-.735.546.76.76 0 0 1-.734-.562c-.078-.328-.078-.86-.078-1.203 0-.36 0-.797.062-1.094.141-.484.563-.562.75-.562.266 0 .625.125.75.546.078.282.078.688.078 1.11Zm0 0"/><path fill="none" stroke="#000" stroke-dasharray="2.989 2.989" stroke-miterlimit="10" stroke-width=".399" d="M41.156 113.59H68.31"/><path d="M76.568 114.935v-.219h-.14c-.438 0-.438-.062-.438-.25v-2.828c0-.172 0-.25.438-.25h.14v-.203l-.859.016-.86-.016v.203h.141c.453 0 .453.078.453.25v1.234H73.49v-1.234c0-.172 0-.25.453-.25h.141v-.203l-.86.016-.859-.016v.203h.141c.437 0 .437.078.437.25v2.828c0 .188 0 .25-.437.25h-.14v.219l.859-.016.86.016v-.219h-.142c-.453 0-.453-.062-.453-.25v-1.375h1.953v1.375c0 .188 0 .25-.453.25h-.14v.219l.86-.016zm3.116-.656c0-.031-.016-.094-.11-.094-.078 0-.078.031-.109.094-.156.422-.578.515-.828.515a.95.95 0 0 1-.719-.328c-.203-.265-.203-.625-.203-.781h1.797c.125 0 .172 0 .172-.125 0-.422-.234-1.078-1.156-1.078-.766 0-1.328.594-1.328 1.25 0 .687.625 1.266 1.406 1.266.797 0 1.078-.594 1.078-.72Zm-.406-.75H77.73c.062-.735.562-.875.797-.875.703 0 .75.719.75.875zm2.268 1.406v-.219c-.343 0-.39 0-.39-.234v-1.969l-.844.063v.203c.36 0 .406.047.406.312v1.39c0 .235-.047.235-.422.235v.219l.641-.016c.047 0 .469 0 .61.016zm-.312-3.313a.33.33 0 0 0-.328-.328.344.344 0 0 0-.344.329c0 .187.156.343.344.343.203 0 .328-.172.328-.343zm3.826 1.126c0-.126-.109-.297-.343-.297-.235 0-.485.093-.672.25a1.244 1.244 0 0 0-.672-.188c-.594 0-1.031.375-1.031.813 0 .172.062.359.265.547a.683.683 0 0 0-.156.437c0 .313.188.469.219.5-.203.063-.547.234-.547.547 0 .422.672.703 1.422.703.703 0 1.437-.25 1.437-.719 0-.14-.046-.484-.484-.672-.328-.125-.64-.125-1.156-.125-.125 0-.344 0-.39-.015-.141-.016-.282-.156-.282-.36 0-.109.062-.187.078-.203.125.078.344.172.625.172.61 0 1.031-.39 1.031-.812 0-.313-.234-.516-.234-.532a1.1 1.1 0 0 1 .562-.171c-.015.03-.03.046-.03.124 0 .094.062.188.171.188.125 0 .188-.094.188-.188Zm-1.124.578c0 .093 0 .625-.563.625-.453 0-.578-.328-.578-.625 0-.11 0-.641.578-.641.484 0 .563.39.563.64zm.687 2.03c0 .267-.453.532-1.078.532-.594 0-1.063-.25-1.063-.547 0-.125.125-.406.594-.406h.61c.171 0 .937 0 .937.422Zm4.048-.421v-.219c-.375 0-.422 0-.422-.234v-1.203c0-.547-.312-.766-.875-.766-.578 0-.844.36-.922.484v-1.874l-.875.062v.203c.39 0 .438.047.438.313v2.78c0 .235-.063.235-.438.235v.219c.047 0 .422-.016.656-.016.25 0 .61.016.672.016v-.219c-.375 0-.437 0-.437-.234v-.969c0-.61.515-.828.86-.828.374 0 .452.234.452.578v1.219c0 .234-.047.234-.422.234v.219c.032 0 .407-.016.657-.016.25 0 .61.016.656.016Zm2.313-.687v-.313h-.203v.297c0 .39-.203.562-.406.562-.39 0-.39-.437-.39-.546v-1.47h.89v-.218h-.89v-1h-.204c-.016.484-.25 1.016-.797 1.047v.172h.547v1.469c0 .578.422.75.797.75.39 0 .656-.313.656-.75zm6.965-.328c0-.422-.422-.86-1.203-.954.562-.093 1.031-.422 1.031-.86 0-.5-.625-.921-1.406-.921H94.09v.203h.14c.453 0 .453.078.453.25v2.828c0 .188 0 .25-.453.25h-.14v.219h2.453c.796 0 1.406-.469 1.406-1.016Zm-.734-1.813c0 .422-.438.781-1.063.781h-.969v-1.281c0-.172 0-.219.281-.219h.876c.53 0 .874.36.874.719zm.156 1.812c0 .407-.406.797-1.031.797h-.876c-.28 0-.28-.047-.28-.203v-1.437h1.25c.593 0 .937.453.937.843zm4.211.516v-.297h-.203v.297c0 .047 0 .297-.218.297-.204 0-.204-.25-.204-.297v-1.14c0-.516-.53-.813-1.14-.813-.266 0-.922.031-.922.484 0 .157.11.282.281.282a.263.263 0 0 0 .266-.266c0-.11-.047-.203-.156-.234.187-.094.468-.094.515-.094.39 0 .688.234.688.656v.14c-.25.016-.688.016-1.094.172-.36.126-.703.36-.703.735 0 .484.578.64 1.015.64.454 0 .735-.234.86-.453.031.297.219.422.406.422.016 0 .61 0 .61-.531zm-1.093-.281c0 .578-.563.656-.735.656-.297 0-.578-.172-.578-.453 0-.313.297-.703 1.313-.734zm3.657.078c0-.219-.11-.39-.234-.5-.235-.203-.453-.234-.782-.297-.406-.063-.78-.125-.78-.406 0-.156.156-.39.718-.39.39 0 .672.14.719.53 0 .079 0 .125.093.125.11 0 .11-.046.11-.156v-.5c0-.094 0-.156-.094-.156-.031 0-.047 0-.125.062l-.094.094c-.218-.156-.484-.156-.609-.156-.86 0-1.016.437-1.016.687 0 .532.641.641 1.063.704.25.046.719.109.719.484 0 .203-.157.453-.72.453-.53 0-.75-.297-.859-.719-.015-.047-.03-.078-.109-.078-.094 0-.094.047-.094.156v.672c0 .094 0 .157.078.157.032 0 .047-.016.141-.11l.14-.14c.266.25.594.25.704.25.812 0 1.031-.454 1.031-.766zm3.044.047c0-.031-.016-.094-.11-.094-.078 0-.078.031-.11.094-.156.422-.577.515-.827.515a.95.95 0 0 1-.72-.328c-.202-.265-.202-.625-.202-.781h1.797c.125 0 .171 0 .171-.125 0-.422-.234-1.078-1.156-1.078-.765 0-1.328.594-1.328 1.25 0 .687.625 1.266 1.406 1.266.797 0 1.078-.594 1.078-.72Zm-.407-.75h-1.547c.063-.735.563-.875.797-.875.703 0 .75.719.75.875zm6.75-.063h-.203c-.063.672-.235 1.25-1.235 1.25h-.593c-.282 0-.282-.047-.282-.203v-2.875c0-.172 0-.25.532-.25h.203v-.203c-.281.016-.688.016-.985.016l-.875-.016v.203h.141c.438 0 .438.078.438.25v2.828c0 .188 0 .25-.438.25h-.14v.219h3.265Zm1.959 1.469v-.219c-.343 0-.39 0-.39-.234v-1.969l-.844.063v.203c.36 0 .406.047.406.312v1.39c0 .235-.047.235-.422.235v.219l.641-.016c.047 0 .469 0 .61.016zm-.312-3.313a.33.33 0 0 0-.328-.328.344.344 0 0 0-.344.329c0 .187.156.343.344.343.203 0 .328-.172.328-.343zm4.077 3.313v-.219c-.376 0-.422 0-.422-.234v-1.203c0-.547-.313-.766-.875-.766-.485 0-.782.25-.938.516v-.516l-.86.063v.203c.391 0 .438.047.438.312v1.39c0 .235-.062.235-.437.235v.219c.047 0 .422-.016.656-.016.25 0 .61.016.672.016v-.219c-.375 0-.438 0-.438-.234v-.969c0-.61.516-.828.86-.828.375 0 .453.234.453.578v1.219c0 .234-.047.234-.422.234v.219c.031 0 .406-.016.656-.016s.61.016.657.016Zm3.03-.656c0-.031-.016-.094-.11-.094-.078 0-.078.031-.109.094-.156.422-.578.515-.828.515a.95.95 0 0 1-.719-.328c-.203-.265-.203-.625-.203-.781h1.797c.125 0 .172 0 .172-.125 0-.422-.234-1.078-1.156-1.078-.766 0-1.328.594-1.328 1.25 0 .687.625 1.266 1.406 1.266.797 0 1.078-.594 1.078-.72Zm-.406-.75h-1.547c.062-.735.562-.875.797-.875.703 0 .75.719.75.875zm0 0"/><path fill="none" stroke="#000" stroke-dasharray="2.989 2.989" stroke-miterlimit="10" stroke-width=".399" d="m116.441 88.184 75.536-.168"/><path d="M95.734 95.698v-.219h-.14c-.438 0-.438-.062-.438-.25v-2.828c0-.172 0-.25.438-.25h.14v-.203l-.859.016-.86-.016v.203h.141c.453 0 .453.078.453.25v1.234h-1.953v-1.234c0-.172 0-.25.453-.25h.141v-.203l-.86.016-.859-.016v.203h.141c.437 0 .437.078.437.25v2.828c0 .188 0 .25-.437.25h-.14v.219l.859-.016.86.016v-.219h-.142c-.453 0-.453-.062-.453-.25v-1.375h1.953v1.375c0 .188 0 .25-.453.25h-.14v.219l.86-.016zm3.116-.656c0-.032-.016-.094-.11-.094-.078 0-.078.031-.109.094-.156.422-.578.515-.828.515a.95.95 0 0 1-.719-.328c-.203-.265-.203-.625-.203-.781h1.797c.125 0 .172 0 .172-.125 0-.422-.234-1.078-1.156-1.078-.766 0-1.328.594-1.328 1.25 0 .687.625 1.265 1.406 1.265.797 0 1.078-.593 1.078-.718Zm-.406-.75h-1.547c.062-.735.562-.875.797-.875.703 0 .75.718.75.875zm2.268 1.406v-.219c-.343 0-.39 0-.39-.234v-1.969l-.844.063v.203c.36 0 .406.047.406.312v1.39c0 .235-.047.235-.422.235v.219l.641-.016c.047 0 .469 0 .61.016zm-.312-3.313a.33.33 0 0 0-.328-.328.344.344 0 0 0-.344.328c0 .188.156.344.344.344.203 0 .328-.172.328-.344zm3.827 1.125c0-.125-.11-.296-.344-.296-.235 0-.485.093-.672.25a1.244 1.244 0 0 0-.672-.188c-.594 0-1.031.375-1.031.813 0 .171.062.359.265.546a.683.683 0 0 0-.156.438c0 .312.188.469.219.5-.203.062-.547.234-.547.547 0 .422.672.703 1.422.703.703 0 1.437-.25 1.437-.719 0-.14-.046-.484-.484-.672-.328-.125-.64-.125-1.156-.125-.125 0-.344 0-.39-.015-.141-.016-.282-.157-.282-.36 0-.109.062-.187.078-.203.125.078.344.172.625.172.61 0 1.031-.39 1.031-.812 0-.313-.234-.516-.234-.532a1.1 1.1 0 0 1 .562-.172c-.015.032-.03.047-.03.125 0 .094.062.188.171.188.125 0 .188-.094.188-.188Zm-1.126.579c0 .093 0 .625-.562.625-.453 0-.578-.329-.578-.625 0-.11 0-.641.578-.641.484 0 .563.39.563.64zm.688 2.03c0 .266-.453.532-1.078.532-.594 0-1.063-.25-1.063-.547 0-.125.125-.406.594-.406h.61c.171 0 .937 0 .937.422Zm4.048-.421v-.219c-.375 0-.422 0-.422-.234v-1.203c0-.547-.312-.766-.875-.766-.578 0-.844.36-.922.484v-1.875l-.875.063v.203c.39 0 .438.047.438.313v2.78c0 .235-.063.235-.438.235v.219c.047 0 .422-.016.657-.016.25 0 .609.016.671.016v-.219c-.375 0-.437 0-.437-.234v-.969c0-.61.516-.828.86-.828.374 0 .452.234.452.578v1.219c0 .234-.046.234-.421.234v.219c.03 0 .406-.016.656-.016s.61.016.656.016Zm2.313-.688v-.312h-.203v.297c0 .39-.203.562-.406.562-.39 0-.39-.437-.39-.547v-1.468h.89v-.219h-.89v-1h-.204c-.016.484-.25 1.016-.797 1.047v.172h.547v1.468c0 .579.422.75.797.75.39 0 .656-.312.656-.75zm6.965-.328c0-.422-.422-.859-1.203-.953.562-.094 1.031-.422 1.031-.86 0-.5-.625-.921-1.406-.921h-2.282v.203h.141c.453 0 .453.078.453.25v2.828c0 .188 0 .25-.453.25h-.14v.219h2.453c.796 0 1.406-.469 1.406-1.016Zm-.734-1.812c0 .422-.438.781-1.063.781h-.969V92.37c0-.172 0-.219.281-.219h.876c.53 0 .874.36.874.719zm.156 1.812c0 .407-.407.797-1.032.797h-.874c-.282 0-.282-.047-.282-.203V93.84h1.25c.594 0 .938.453.938.843zm4.212.516v-.297h-.204v.297c0 .047 0 .297-.218.297-.203 0-.203-.25-.203-.297v-1.14c0-.516-.532-.813-1.141-.813-.266 0-.922.031-.922.484 0 .156.11.281.281.281a.263.263 0 0 0 .266-.265c0-.11-.047-.203-.156-.235.187-.093.468-.093.515-.093.39 0 .688.234.688.656v.14c-.25.016-.688.016-1.094.172-.36.125-.703.36-.703.735 0 .484.578.64 1.016.64.453 0 .734-.234.859-.453.031.297.219.422.406.422.016 0 .61 0 .61-.531zm-1.094-.281c0 .578-.563.656-.735.656-.296 0-.578-.172-.578-.453 0-.313.297-.703 1.313-.735zm3.657.078c0-.219-.11-.39-.234-.5-.235-.203-.453-.235-.782-.297-.406-.063-.78-.125-.78-.406 0-.157.155-.39.718-.39.39 0 .672.14.719.53 0 .078 0 .125.093.125.11 0 .11-.047.11-.156v-.5c0-.094 0-.156-.094-.156-.031 0-.047 0-.125.062l-.094.094c-.218-.156-.484-.156-.609-.156-.86 0-1.016.437-1.016.687 0 .532.641.641 1.063.703.25.047.719.11.719.485 0 .203-.157.453-.72.453-.53 0-.75-.297-.859-.719-.015-.047-.03-.078-.109-.078-.094 0-.094.047-.094.156v.672c0 .094 0 .156.078.156.032 0 .047-.015.141-.109l.14-.14c.266.25.594.25.704.25.812 0 1.031-.454 1.031-.766zm3.044.047c0-.032-.016-.094-.11-.094-.078 0-.078.031-.11.094-.155.422-.577.515-.827.515a.95.95 0 0 1-.72-.328c-.202-.265-.202-.625-.202-.781h1.797c.125 0 .172 0 .172-.125 0-.422-.235-1.078-1.157-1.078-.765 0-1.328.594-1.328 1.25 0 .687.625 1.265 1.406 1.265.797 0 1.079-.593 1.079-.718Zm-.407-.75h-1.547c.063-.735.563-.875.797-.875.703 0 .75.718.75.875zm6.75-.062h-.203c-.063.671-.235 1.25-1.235 1.25h-.593c-.282 0-.282-.048-.282-.204v-2.875c0-.172 0-.25.532-.25h.203v-.203c-.282.016-.688.016-.985.016l-.875-.016v.203h.141c.437 0 .437.078.437.25v2.828c0 .188 0 .25-.437.25h-.14v.219h3.265Zm1.959 1.468v-.219c-.343 0-.39 0-.39-.234v-1.969l-.844.063v.203c.36 0 .406.047.406.312v1.39c0 .235-.047.235-.422.235v.219l.641-.016c.047 0 .469 0 .61.016zm-.312-3.313a.33.33 0 0 0-.328-.328.344.344 0 0 0-.344.328c0 .188.156.344.344.344.203 0 .328-.172.328-.344zm4.077 3.313v-.219c-.375 0-.422 0-.422-.234v-1.203c0-.547-.313-.766-.875-.766-.485 0-.782.25-.938.516v-.516l-.86.063v.203c.391 0 .438.047.438.312v1.39c0 .235-.062.235-.437.235v.219c.047 0 .422-.016.656-.016.25 0 .61.016.672.016v-.219c-.375 0-.438 0-.438-.234v-.969c0-.61.516-.828.86-.828.375 0 .453.234.453.578v1.219c0 .234-.047.234-.422.234v.219c.031 0 .406-.016.656-.016s.61.016.657.016Zm3.03-.656c0-.032-.016-.094-.11-.094-.077 0-.077.031-.109.094-.156.422-.578.515-.828.515a.95.95 0 0 1-.719-.328c-.203-.265-.203-.625-.203-.781h1.797c.125 0 .172 0 .172-.125 0-.422-.234-1.078-1.156-1.078-.766 0-1.328.594-1.328 1.25 0 .687.625 1.265 1.406 1.265.797 0 1.078-.593 1.078-.718Zm-.406-.75H139.5c.062-.735.562-.875.797-.875.703 0 .75.718.75.875zm0 0"/><path fill="none" stroke="#000" stroke-dasharray="2.989 2.989" stroke-miterlimit="10" stroke-width=".399" d="M115.879 11.918h26.95"/><path d="M48.715 11.45c0-1.062-.875-1.906-1.953-1.906h-2.266v.203h.14c.438 0 .438.078.438.25v2.828c0 .188 0 .25-.437.25h-.141v.219h2.281c1.063 0 1.938-.813 1.938-1.844zm-.578 0c0 .36-.063.844-.36 1.157-.328.375-.797.468-1.156.468h-.75c-.266 0-.266-.047-.266-.203V9.966c0-.172 0-.219.266-.219h.734c.391 0 .828.125 1.141.469.312.328.39.828.39 1.234Zm3.772 1.188c0-.031-.016-.094-.11-.094-.078 0-.078.031-.109.094-.156.422-.578.515-.828.515a.95.95 0 0 1-.719-.328c-.203-.265-.203-.625-.203-.781h1.797c.125 0 .172 0 .172-.125 0-.422-.234-1.078-1.156-1.078-.766 0-1.328.594-1.328 1.25 0 .687.625 1.266 1.406 1.266.797 0 1.078-.594 1.078-.72Zm-.406-.75h-1.547c.062-.735.562-.875.797-.875.703 0 .75.719.75.875zm4.081.219c0-.672-.578-1.235-1.344-1.235-.5 0-.812.25-.89.328v-.328l-.876.063v.203c.375 0 .438 0 .438.265v2.5c0 .25-.047.25-.438.25v.204c.047 0 .422-.016.672-.016.235 0 .61.016.657.016v-.204c-.375 0-.438 0-.438-.25v-.875c.234.22.484.329.797.329.766 0 1.422-.547 1.422-1.25zm-.531 0c0 .609-.438 1.062-.922 1.062-.422 0-.672-.297-.766-.453v-1.25c.188-.25.5-.406.828-.406.5 0 .86.484.86 1.046zm3.03.5v-.313h-.203v.297c0 .39-.203.562-.406.562-.39 0-.39-.437-.39-.546v-1.47h.89v-.218h-.89v-1h-.204c-.016.484-.25 1.016-.797 1.047v.172h.547v1.469c0 .578.422.75.797.75.39 0 .656-.313.656-.75zm3.88.687v-.219c-.375 0-.422 0-.422-.234v-1.203c0-.547-.312-.766-.875-.766-.578 0-.844.36-.922.485V9.482l-.875.062v.203c.39 0 .438.047.438.313v2.78c0 .235-.063.235-.438.235v.219c.047 0 .422-.016.657-.016.25 0 .609.016.671.016v-.219c-.375 0-.437 0-.437-.234v-.969c0-.61.516-.828.86-.828.374 0 .452.234.452.578v1.219c0 .234-.046.234-.421.234v.219c.03 0 .406-.016.656-.016s.61.016.656.016Zm3.202-3.984a.14.14 0 0 0-.14-.141c-.063 0-.11.016-.157.125l-2.156 5.11c-.031.078-.031.124-.031.124a.14.14 0 0 0 .14.141c.047 0 .11-.016.157-.125l2.156-5.11c.031-.077.031-.124.031-.124zm4.235 2.515h-.202c-.063.672-.235 1.25-1.235 1.25h-.593c-.282 0-.282-.047-.282-.203V9.997c0-.172 0-.25.532-.25h.203v-.203c-.282.016-.688.016-.985.016l-.875-.016v.203h.141c.437 0 .437.078.437.25v2.828c0 .188 0 .25-.437.25h-.14v.219h3.265Zm3.101.813c0-.031-.016-.094-.11-.094-.078 0-.078.031-.109.094-.156.422-.578.515-.828.515a.95.95 0 0 1-.719-.328c-.203-.265-.203-.625-.203-.781h1.797c.125 0 .172 0 .172-.125 0-.422-.234-1.078-1.156-1.078-.766 0-1.328.594-1.328 1.25 0 .687.625 1.266 1.406 1.266.797 0 1.078-.594 1.078-.72Zm-.406-.75h-1.547c.062-.735.562-.875.797-.875.703 0 .75.719.75.875zm3.971-.75v-.219s-.25.031-.437.031c-.188 0-.484-.015-.516-.031v.219c.235.015.235.187.235.203 0 .078-.032.125-.047.172l-.656 1.328-.704-1.484a.168.168 0 0 1-.03-.094c0-.125.187-.125.28-.125v-.219l-.656.031a7.18 7.18 0 0 1-.562-.031v.219c.328 0 .375.015.468.187l.907 1.89c.047.11.11.142.172.142.109 0 .14-.063.171-.141l.844-1.75c.14-.266.328-.328.531-.328Zm2.81 1.5c0-.031-.016-.094-.11-.094-.078 0-.078.031-.11.094-.155.422-.577.515-.827.515a.95.95 0 0 1-.72-.328c-.202-.265-.202-.625-.202-.781h1.797c.125 0 .172 0 .172-.125 0-.422-.235-1.078-1.157-1.078-.765 0-1.328.594-1.328 1.25 0 .687.625 1.266 1.406 1.266.797 0 1.079-.594 1.079-.72Zm-.407-.75h-1.547c.063-.735.563-.875.797-.875.703 0 .75.719.75.875zm2.316 1.406v-.219c-.375 0-.438 0-.438-.234V9.48l-.86.063v.203c.376 0 .423.047.423.313v2.78c0 .235-.047.235-.422.235v.219l.64-.016c.22 0 .438 0 .657.016zm6.802-1.016c0-.421-.422-.859-1.203-.953.562-.093 1.031-.422 1.031-.86 0-.5-.625-.921-1.406-.921h-2.281v.203h.14c.453 0 .453.078.453.25v2.828c0 .188 0 .25-.453.25h-.14v.219h2.453c.797 0 1.406-.469 1.406-1.016Zm-.734-1.812c0 .422-.438.781-1.063.781h-.969V9.966c0-.172 0-.219.282-.219h.875c.53 0 .875.36.875.719zm.156 1.812c0 .407-.406.797-1.031.797h-.875c-.282 0-.282-.047-.282-.203v-1.437h1.25c.594 0 .938.453.938.843zm4.211.516v-.297h-.203v.297c0 .047 0 .297-.218.297-.204 0-.204-.25-.204-.297v-1.14c0-.516-.53-.813-1.14-.813-.266 0-.922.031-.922.484 0 .157.11.282.281.282a.263.263 0 0 0 .266-.266c0-.11-.047-.203-.156-.234.187-.094.468-.094.515-.094.39 0 .688.234.688.656v.14c-.25.016-.688.016-1.094.173-.36.125-.703.359-.703.734 0 .484.578.64 1.015.64.454 0 .735-.234.86-.453.031.297.219.422.406.422.016 0 .61 0 .61-.531zm-1.093-.281c0 .578-.563.656-.735.656-.297 0-.578-.172-.578-.453 0-.313.297-.703 1.313-.734zm3.657.077a.67.67 0 0 0-.234-.5c-.235-.202-.453-.233-.781-.296-.407-.063-.782-.125-.782-.406 0-.156.157-.39.719-.39.39 0 .672.14.719.53 0 .079 0 .125.094.125.109 0 .109-.046.109-.156v-.5c0-.094 0-.156-.094-.156-.031 0-.047 0-.125.062l-.094.094c-.218-.156-.484-.156-.609-.156-.86 0-1.016.437-1.016.687 0 .532.641.641 1.063.704.25.046.719.109.719.484 0 .203-.157.453-.72.453-.53 0-.75-.297-.858-.719-.016-.047-.032-.078-.11-.078-.094 0-.094.047-.094.156v.672c0 .094 0 .157.079.157.03 0 .046-.016.14-.11l.14-.14c.266.25.595.25.704.25.812 0 1.031-.454 1.031-.766zm3.043.048c0-.031-.015-.094-.109-.094-.078 0-.078.031-.11.094-.156.422-.577.515-.827.515a.95.95 0 0 1-.72-.328c-.202-.265-.202-.625-.202-.781h1.797c.125 0 .171 0 .171-.125 0-.422-.234-1.078-1.156-1.078-.765 0-1.328.594-1.328 1.25 0 .687.625 1.266 1.406 1.266.797 0 1.078-.594 1.078-.72Zm-.406-.75h-1.547c.063-.735.563-.875.797-.875.703 0 .75.719.75.875zm6.749-.063h-.202c-.063.672-.235 1.25-1.235 1.25h-.593c-.282 0-.282-.047-.282-.203V9.997c0-.172 0-.25.532-.25h.203v-.203c-.281.016-.688.016-.985.016l-.875-.016v.203h.141c.438 0 .438.078.438.25v2.828c0 .188 0 .25-.438.25h-.14v.219h3.265Zm1.96 1.469v-.219c-.343 0-.39 0-.39-.234v-1.969l-.844.063v.203c.36 0 .406.047.406.312v1.39c0 .235-.047.235-.422.235v.219l.641-.016c.047 0 .469 0 .61.016zm-.312-3.313a.33.33 0 0 0-.328-.328.344.344 0 0 0-.344.329c0 .187.156.343.344.343.203 0 .328-.172.328-.343zm4.076 3.313v-.219c-.375 0-.421 0-.421-.234v-1.203c0-.547-.313-.766-.875-.766-.485 0-.782.25-.938.516v-.516l-.86.063v.203c.391 0 .438.047.438.312v1.39c0 .235-.062.235-.437.235v.219c.047 0 .422-.016.656-.016.25 0 .61.016.672.016v-.219c-.375 0-.438 0-.438-.234v-.969c0-.61.516-.828.86-.828.375 0 .453.234.453.578v1.219c0 .234-.047.234-.422.234v.219c.031 0 .406-.016.656-.016s.61.016.656.016Zm3.031-.656c0-.031-.016-.094-.11-.094-.078 0-.078.031-.109.094-.156.422-.578.515-.828.515a.95.95 0 0 1-.719-.328c-.203-.265-.203-.625-.203-.781h1.797c.125 0 .172 0 .172-.125 0-.422-.234-1.078-1.156-1.078-.766 0-1.328.594-1.328 1.25 0 .687.625 1.266 1.406 1.266.797 0 1.078-.594 1.078-.72Zm-.406-.75h-1.547c.062-.735.562-.875.797-.875.703 0 .75.719.75.875zm0 0"/></svg>