<svg xmlns="http://www.w3.org/2000/svg" width="289.653" height="195.16" viewBox="0 0 217.24 146.37"><defs><clipPath id="a"><path d="M184 56h33.238v34H184Zm0 0"/></clipPath><clipPath id="b"><path d="M56 113h34v33.371H56Zm0 0"/></clipPath><clipPath id="c"><path d="M113 113h34v33.371h-34Zm0 0"/></clipPath></defs><path fill="none" stroke="#000" stroke-miterlimit="10" stroke-width=".399" d="M119.246 16.5c0-5.871-4.758-10.633-10.629-10.633-5.87 0-10.629 4.762-10.629 10.633 0 5.871 4.758 10.629 10.63 10.629 5.87 0 10.628-4.758 10.628-10.629Zm0 0"/><path d="M111.457 16.702c.172 0 .36 0 .36-.203s-.188-.203-.36-.203h-5.688c-.172 0-.359 0-.359.203s.188.203.36.203zm0 0"/><path fill="none" stroke="#000" stroke-miterlimit="10" stroke-width=".399" d="M55.473 44.844c0-5.871-4.762-10.633-10.633-10.633-5.871 0-10.63 4.762-10.63 10.633 0 5.87 4.759 10.629 10.63 10.629 5.87 0 10.633-4.758 10.633-10.63Zm0 0"/><path d="M45.055 45.046h2.922c.156 0 .36 0 .36-.203s-.204-.203-.36-.203h-2.922v-2.953c0-.14 0-.344-.219-.344-.203 0-.203.203-.203.344v2.953h-2.938c-.156 0-.343 0-.343.203s.187.203.343.203h2.938V48c0 .14 0 .344.203.344.219 0 .219-.203.219-.344zm0 0"/><path fill="none" stroke="#000" stroke-miterlimit="10" stroke-width=".399" d="M183.023 44.844c0-5.871-4.757-10.633-10.628-10.633-5.872 0-10.63 4.762-10.63 10.633 0 5.87 4.758 10.629 10.63 10.629 5.87 0 10.628-4.758 10.628-10.63Zm0 0"/><path d="M173.062 42.577a.664.664 0 0 0-.672-.656.664.664 0 0 0-.672.656c0 .328.297.657.672.657a.663.663 0 0 0 .672-.657zm0 4.532a.674.674 0 0 0-.672-.657.674.674 0 0 0-.672.657c0 .343.297.656.672.656a.654.654 0 0 0 .672-.656zm-3.813-2.47c-.171 0-.359 0-.359.204 0 .203.188.203.36.203h6.28c.188 0 .376 0 .376-.203s-.188-.203-.375-.203zm0 0"/><path fill="none" stroke="#000" stroke-miterlimit="10" stroke-width=".399" d="M27.129 73.188c0-5.872-4.762-10.633-10.633-10.633-5.871 0-10.629 4.761-10.629 10.633 0 5.87 4.758 10.628 10.63 10.628 5.87 0 10.632-4.757 10.632-10.629Zm0 0"/><path d="M17.644 71.478c-.188-.39-.5-.672-.969-.672-1.234 0-2.531 1.547-2.531 3.078 0 .985.578 1.672 1.39 1.672.22 0 .735-.03 1.376-.78a.949.949 0 0 0 .953.78c.359 0 .609-.234.765-.578.188-.375.328-1.015.328-1.031 0-.11-.093-.11-.125-.11-.109 0-.125.047-.156.188-.172.688-.36 1.313-.797 1.313-.281 0-.312-.282-.312-.485 0-.234.015-.312.14-.781.11-.438.125-.547.22-.953l.39-1.469c.062-.281.062-.312.062-.344 0-.187-.125-.297-.297-.297-.25 0-.406.235-.437.47zm-.688 2.719c-.046.187-.046.203-.203.39-.468.579-.906.75-1.187.75-.531 0-.672-.578-.672-1 0-.515.328-1.812.578-2.296.313-.61.797-1 1.219-1 .672 0 .828.86.828.922 0 .062-.031.125-.031.171zm0 0"/><path fill="none" stroke="#000" stroke-miterlimit="10" stroke-width=".399" d="M83.816 73.188c0-5.872-4.761-10.633-10.632-10.633-5.871 0-10.63 4.761-10.63 10.633 0 5.87 4.758 10.628 10.63 10.628 5.87 0 10.632-4.757 10.632-10.629Zm0 0"/><path d="m73.18 72.89-2.095-2.095c-.125-.125-.14-.14-.234-.14s-.203.093-.203.203c0 .078.015.11.14.219l2.094 2.109-2.094 2.11c-.125.109-.14.14-.14.218 0 .11.11.203.203.203.094 0 .11-.015.234-.14l2.094-2.094 2.172 2.172a.294.294 0 0 0 .156.062.197.197 0 0 0 .203-.203c0-.031 0-.078-.03-.125 0-.016-1.673-1.672-2.204-2.203l1.922-1.922c.062-.062.219-.203.265-.266a.203.203 0 0 0 .047-.14.197.197 0 0 0-.203-.203c-.078 0-.125.047-.25.156zm0 0"/><path fill="none" stroke="#000" stroke-miterlimit="10" stroke-width=".399" d="M154.68 73.188c0-5.872-4.758-10.633-10.63-10.633-5.87 0-10.628 4.761-10.628 10.633 0 5.87 4.758 10.628 10.629 10.628 5.87 0 10.629-4.757 10.629-10.629Zm0 0"/><path d="M143.576 73.025c.297 0 1.078-.031 1.593-.25.75-.312.797-.922.797-1.078 0-.453-.406-.89-1.125-.89-1.172 0-2.75 1.015-2.75 2.859 0 1.062.625 1.89 1.641 1.89 1.516 0 2.39-1.109 2.39-1.234 0-.063-.062-.14-.124-.14-.047 0-.079.03-.141.109-.828 1.047-1.969 1.047-2.094 1.047-.828 0-.922-.891-.922-1.22 0-.124.016-.452.172-1.093zm-.5-.234c.406-1.594 1.5-1.75 1.765-1.75.5 0 .782.297.782.656 0 1.094-1.688 1.094-2.11 1.094zm0 0"/><g clip-path="url(#a)"><path fill="none" stroke="#000" stroke-miterlimit="10" stroke-width=".399" d="M211.367 73.188c0-5.872-4.758-10.633-10.629-10.633-5.87 0-10.629 4.761-10.629 10.633 0 5.87 4.758 10.628 10.63 10.628 5.87 0 10.628-4.757 10.628-10.629Zm0 0"/></g><path d="M201.462 71.608h.891c.219 0 .328 0 .328-.203 0-.125-.11-.125-.297-.125h-.86l.22-1.188c.03-.219.187-.969.25-1.094.093-.203.265-.359.484-.359.047 0 .328 0 .516.188a.584.584 0 0 0-.563.562c0 .25.188.375.39.375a.608.608 0 0 0 .579-.625c0-.484-.484-.734-.922-.734-.344 0-1.016.187-1.328 1.234-.063.219-.094.328-.344 1.64h-.719c-.203 0-.328 0-.328.204 0 .125.094.125.297.125h.703l-.797 4.156c-.187 1.016-.359 1.969-.906 1.969-.047 0-.312 0-.516-.188.485-.03.579-.406.579-.562 0-.25-.188-.375-.375-.375-.282 0-.578.234-.578.625 0 .484.453.734.89.734.578 0 1-.625 1.188-1.015.328-.672.578-1.938.578-2.016Zm0 0"/><path fill="none" stroke="#000" stroke-miterlimit="10" stroke-width=".399" d="M55.473 101.531c0-5.87-4.762-10.633-10.633-10.633-5.871 0-10.63 4.762-10.63 10.633 0 5.871 4.759 10.63 10.63 10.63 5.87 0 10.633-4.759 10.633-10.63Zm0 0"/><path d="M45.104 98.004c0-.016 0-.11-.141-.11-.25 0-1.016.079-1.281.094-.078.016-.203.032-.203.22 0 .124.093.124.25.124.515 0 .53.078.53.172 0 .078-.093.438-.155.656l-.86 3.422c-.125.532-.156.688-.156 1.063 0 1 .547 1.64 1.328 1.64 1.235 0 2.531-1.562 2.531-3.078 0-.953-.562-1.672-1.39-1.672-.485 0-.922.297-1.235.625zm-1 3.969c.062-.234.062-.25.172-.36.5-.687.984-.843 1.25-.843.375 0 .656.312.656.984 0 .625-.344 1.828-.531 2.219-.344.703-.829 1.094-1.235 1.094-.36 0-.703-.297-.703-1.063 0-.203 0-.406.172-1.062zm0 0"/><path fill="none" stroke="#000" stroke-miterlimit="10" stroke-width=".399" d="M112.156 101.531c0-5.87-4.758-10.633-10.629-10.633-5.87 0-10.629 4.762-10.629 10.633 0 5.871 4.758 10.63 10.63 10.63 5.87 0 10.628-4.759 10.628-10.63Zm0 0"/><path d="M104.367 101.733c.172 0 .36 0 .36-.203s-.188-.203-.36-.203h-5.688c-.172 0-.359 0-.359.203s.188.203.36.203zm0 0"/><g clip-path="url(#b)"><path fill="none" stroke="#000" stroke-miterlimit="10" stroke-width=".399" d="M83.816 129.875c0-5.871-4.761-10.633-10.632-10.633-5.871 0-10.63 4.762-10.63 10.633 0 5.867 4.758 10.629 10.63 10.629 5.87 0 10.632-4.762 10.632-10.629Zm0 0"/></g><path d="M75.068 128.15c-.172 0-.312 0-.453.14a.596.596 0 0 0-.203.406c0 .25.203.375.39.375.313 0 .594-.25.594-.671 0-.516-.5-.907-1.234-.907-1.422 0-2.812 1.5-2.812 2.985 0 .937.609 1.765 1.687 1.765 1.516 0 2.39-1.109 2.39-1.234 0-.063-.062-.14-.124-.14-.047 0-.078.03-.141.109-.828 1.047-1.969 1.047-2.094 1.047-.672 0-.953-.516-.953-1.157 0-.422.219-1.437.578-2.093.313-.594.89-1.047 1.469-1.047.36 0 .766.125.906.422zm0 0"/><g clip-path="url(#c)"><path fill="none" stroke="#000" stroke-miterlimit="10" stroke-width=".399" d="M140.5 129.875c0-5.871-4.758-10.633-10.629-10.633-5.871 0-10.629 4.762-10.629 10.633 0 5.867 4.758 10.629 10.63 10.629 5.87 0 10.628-4.762 10.628-10.629Zm0 0"/></g><path d="M132.56 126.347c0-.015 0-.11-.14-.11-.156 0-1.156.095-1.328.11-.094.016-.156.063-.156.203 0 .125.094.125.25.125.516 0 .531.078.531.172l-.031.219-.625 2.484c-.188-.39-.5-.672-.969-.672-1.234 0-2.531 1.547-2.531 3.079 0 .984.578 1.671 1.39 1.671.22 0 .735-.03 1.376-.78a.949.949 0 0 0 .953.78c.359 0 .609-.234.765-.578.188-.375.328-1.015.328-1.031 0-.11-.093-.11-.125-.11-.109 0-.125.048-.156.188-.172.688-.36 1.313-.797 1.313-.281 0-.312-.282-.312-.485 0-.25.015-.328.062-.515zm-2.187 5.922c-.046.188-.046.203-.203.39-.468.579-.906.75-1.187.75-.531 0-.672-.577-.672-1 0-.515.328-1.812.578-2.296.313-.61.797-1 1.219-1 .672 0 .828.86.828.922 0 .062-.031.125-.031.172zm0 0"/><path fill="none" stroke="#000" stroke-miterlimit="10" stroke-width=".399" d="M98.723 20.898 54.738 40.445m63.774-19.547L162.5 40.445M37.184 52.5 24.156 65.527M52.5 52.5l13.027 13.027m0 15.317L52.5 93.87m28.344-13.026L93.87 93.87m.001 15.318-13.027 13.027m28.34-13.027 13.03 13.027M164.738 52.5l-13.031 13.027M180.05 52.5l13.032 13.027"/></svg>