<svg xmlns="http://www.w3.org/2000/svg" width="707.84" height="164.893" viewBox="0 0 530.88 123.67"><defs><clipPath id="a"><path d="M74 12h36v35H74Zm0 0"/></clipPath><clipPath id="b"><path d="M109.086 29.504c0-9.422-7.637-17.059-17.059-17.059S74.97 20.082 74.97 29.504c0 9.418 7.636 17.055 17.058 17.055s17.059-7.637 17.059-17.055Zm0 0"/></clipPath><clipPath id="c"><path d="m71.695 73.11 63.942-23.274-23.274-63.941L48.422 9.168Zm0 0"/></clipPath><clipPath id="e"><path d="M15 51h55v36H15Zm0 0"/></clipPath><clipPath id="f"><path d="M62.516 51.926h-39.82a7.085 7.085 0 0 0-7.087 7.086v20.672a7.088 7.088 0 0 0 7.086 7.09h39.82a7.092 7.092 0 0 0 7.09-7.09V59.012a7.088 7.088 0 0 0-7.09-7.086Zm0 0"/></clipPath><clipPath id="g"><path d="m10.426 123.465 91.617-33.348-27.254-74.883-91.621 33.348Zm0 0"/></clipPath><clipPath id="i"><path d="M114 51h55v36h-55Zm0 0"/></clipPath><clipPath id="j"><path d="M161.36 51.926h-39.82a7.085 7.085 0 0 0-7.087 7.086v20.672a7.088 7.088 0 0 0 7.086 7.09h39.82a7.088 7.088 0 0 0 7.086-7.09V59.012a7.085 7.085 0 0 0-7.086-7.086Zm0 0"/></clipPath><clipPath id="k"><path d="m109.27 123.465 91.617-33.348-27.258-74.883-91.617 33.348Zm0 0"/></clipPath><clipPath id="m"><path d="M248 12h35v35h-35Zm0 0"/></clipPath><clipPath id="n"><path d="M282.5 29.504c0-9.422-7.637-17.059-17.059-17.059-9.421 0-17.058 7.637-17.058 17.059 0 9.418 7.637 17.055 17.058 17.055 9.422 0 17.059-7.637 17.059-17.055Zm0 0"/></clipPath><clipPath id="o"><path d="m245.11 73.11 63.94-23.274-23.273-63.941-63.941 23.273Zm0 0"/></clipPath><clipPath id="q"><path d="M189 51h55v36h-55Zm0 0"/></clipPath><clipPath id="r"><path d="M235.93 51.926h-39.82a7.088 7.088 0 0 0-7.087 7.086v20.672a7.091 7.091 0 0 0 7.086 7.09h39.82a7.092 7.092 0 0 0 7.09-7.09V59.012a7.088 7.088 0 0 0-7.09-7.086Zm0 0"/></clipPath><clipPath id="s"><path d="m183.84 123.465 91.617-33.348-27.254-74.883-91.621 33.348Zm0 0"/></clipPath><clipPath id="u"><path d="M287 51h55v36h-55Zm0 0"/></clipPath><clipPath id="v"><path d="M334.773 51.926h-39.82a7.085 7.085 0 0 0-7.086 7.086v20.672a7.088 7.088 0 0 0 7.086 7.09h39.82a7.088 7.088 0 0 0 7.086-7.09V59.012a7.085 7.085 0 0 0-7.086-7.086Zm0 0"/></clipPath><clipPath id="w"><path d="M282.684 123.465 374.3 90.117l-27.258-74.883-91.617 33.348Zm0 0"/></clipPath><clipPath id="y"><path d="M421 12h35v35h-35Zm0 0"/></clipPath><clipPath id="z"><path d="M455.914 29.504c0-9.422-7.637-17.059-17.059-17.059-9.418 0-17.058 7.637-17.058 17.059 0 9.418 7.64 17.055 17.058 17.055 9.422 0 17.06-7.637 17.06-17.055Zm0 0"/></clipPath><clipPath id="A"><path d="m418.523 73.11 63.942-23.274-23.274-63.941L395.25 9.168Zm0 0"/></clipPath><clipPath id="C"><path d="M362 51h55v36h-55Zm0 0"/></clipPath><clipPath id="D"><path d="M409.348 51.926h-39.82a7.088 7.088 0 0 0-7.09 7.086v20.672a7.092 7.092 0 0 0 7.09 7.09h39.82a7.091 7.091 0 0 0 7.086-7.09V59.012a7.088 7.088 0 0 0-7.086-7.086Zm0 0"/></clipPath><clipPath id="E"><path d="m357.254 123.465 91.621-33.348-27.258-74.883L330 48.582Zm0 0"/></clipPath><clipPath id="G"><path d="M461 51h55v36h-55Zm0 0"/></clipPath><clipPath id="H"><path d="M508.188 51.926h-39.82a7.085 7.085 0 0 0-7.087 7.086v20.672a7.088 7.088 0 0 0 7.086 7.09h39.82a7.088 7.088 0 0 0 7.086-7.09V59.012a7.085 7.085 0 0 0-7.086-7.086Zm0 0"/></clipPath><clipPath id="I"><path d="m456.098 123.465 91.617-33.348-27.254-74.883-91.621 33.348Zm0 0"/></clipPath><linearGradient id="d" x1="0" x2="0" y1="17.868" y2="82.132" gradientTransform="scale(.68045 -.68045) rotate(20 357.344 245.045)" gradientUnits="userSpaceOnUse"><stop offset="0" stop-color="#F0E5E5"/><stop offset=".125" stop-color="#F0E5E5"/><stop offset=".141" stop-color="#EFE5E5"/><stop offset=".156" stop-color="#EFE4E4"/><stop offset=".172" stop-color="#EFE4E4"/><stop offset=".188" stop-color="#EEE3E3"/><stop offset=".203" stop-color="#EEE3E3"/><stop offset=".219" stop-color="#EEE2E2"/><stop offset=".234" stop-color="#EDE2E2"/><stop offset=".25" stop-color="#EDE1E1"/><stop offset=".266" stop-color="#EDE1E1"/><stop offset=".281" stop-color="#EDE0E0"/><stop offset=".297" stop-color="#ECE0E0"/><stop offset=".313" stop-color="#ECDFDF"/><stop offset=".328" stop-color="#ECDFDF"/><stop offset=".344" stop-color="#EBDEDE"/><stop offset=".359" stop-color="#EBDEDE"/><stop offset=".375" stop-color="#EBDDDD"/><stop offset=".391" stop-color="#EADDDD"/><stop offset=".406" stop-color="#EADCDC"/><stop offset=".422" stop-color="#EADCDC"/><stop offset=".438" stop-color="#E9DBDB"/><stop offset=".453" stop-color="#E9DBDB"/><stop offset=".469" stop-color="#E9DADA"/><stop offset=".484" stop-color="#E9DADA"/><stop offset=".5" stop-color="#E8D9D9"/><stop offset=".516" stop-color="#E8D8D8"/><stop offset=".531" stop-color="#E8D8D8"/><stop offset=".547" stop-color="#E7D7D7"/><stop offset=".563" stop-color="#E7D7D7"/><stop offset=".578" stop-color="#E7D6D6"/><stop offset=".594" stop-color="#E6D6D6"/><stop offset=".609" stop-color="#E6D5D5"/><stop offset=".625" stop-color="#E6D5D5"/><stop offset=".641" stop-color="#E5D4D4"/><stop offset=".656" stop-color="#E5D4D4"/><stop offset=".672" stop-color="#E5D3D3"/><stop offset=".688" stop-color="#E5D3D3"/><stop offset=".703" stop-color="#E4D2D2"/><stop offset=".719" stop-color="#E4D2D2"/><stop offset=".734" stop-color="#E4D1D1"/><stop offset=".75" stop-color="#E3D1D1"/><stop offset=".766" stop-color="#E3D0D0"/><stop offset=".781" stop-color="#E3D0D0"/><stop offset=".797" stop-color="#E2CFCF"/><stop offset=".813" stop-color="#E2CFCF"/><stop offset=".828" stop-color="#E2CECE"/><stop offset=".844" stop-color="#E1CECE"/><stop offset=".859" stop-color="#E1CDCD"/><stop offset=".875" stop-color="#E1CDCD"/><stop offset="1" stop-color="#E1CCCC"/></linearGradient><linearGradient id="h" x1="0" x2="0" y1="17.868" y2="82.132" gradientTransform="matrix(.91619 -.33347 -.27256 -.74884 10.425 123.465)" gradientUnits="userSpaceOnUse"><stop offset="0" stop-color="#E5E5F0"/><stop offset=".125" stop-color="#E5E5F0"/><stop offset=".141" stop-color="#E5E5EF"/><stop offset=".156" stop-color="#E4E4EF"/><stop offset=".172" stop-color="#E4E4EF"/><stop offset=".188" stop-color="#E3E3EE"/><stop offset=".203" stop-color="#E3E3EE"/><stop offset=".219" stop-color="#E2E2EE"/><stop offset=".234" stop-color="#E2E2ED"/><stop offset=".25" stop-color="#E1E1ED"/><stop offset=".266" stop-color="#E1E1ED"/><stop offset=".281" stop-color="#E0E0ED"/><stop offset=".297" stop-color="#E0E0EC"/><stop offset=".313" stop-color="#DFDFEC"/><stop offset=".328" stop-color="#DFDFEC"/><stop offset=".344" stop-color="#DEDEEB"/><stop offset=".359" stop-color="#DEDEEB"/><stop offset=".375" stop-color="#DDDDEB"/><stop offset=".391" stop-color="#DDDDEA"/><stop offset=".406" stop-color="#DCDCEA"/><stop offset=".422" stop-color="#DCDCEA"/><stop offset=".438" stop-color="#DBDBE9"/><stop offset=".453" stop-color="#DBDBE9"/><stop offset=".469" stop-color="#DADAE9"/><stop offset=".484" stop-color="#DADAE9"/><stop offset=".5" stop-color="#D9D9E8"/><stop offset=".516" stop-color="#D8D8E8"/><stop offset=".531" stop-color="#D8D8E8"/><stop offset=".547" stop-color="#D7D7E7"/><stop offset=".563" stop-color="#D7D7E7"/><stop offset=".578" stop-color="#D6D6E7"/><stop offset=".594" stop-color="#D6D6E6"/><stop offset=".609" stop-color="#D5D5E6"/><stop offset=".625" stop-color="#D5D5E6"/><stop offset=".641" stop-color="#D4D4E5"/><stop offset=".656" stop-color="#D4D4E5"/><stop offset=".672" stop-color="#D3D3E5"/><stop offset=".688" stop-color="#D3D3E5"/><stop offset=".703" stop-color="#D2D2E4"/><stop offset=".719" stop-color="#D2D2E4"/><stop offset=".734" stop-color="#D1D1E4"/><stop offset=".75" stop-color="#D1D1E3"/><stop offset=".766" stop-color="#D0D0E3"/><stop offset=".781" stop-color="#D0D0E3"/><stop offset=".797" stop-color="#CFCFE2"/><stop offset=".813" stop-color="#CFCFE2"/><stop offset=".828" stop-color="#CECEE2"/><stop offset=".844" stop-color="#CECEE1"/><stop offset=".859" stop-color="#CDCDE1"/><stop offset=".875" stop-color="#CDCDE1"/><stop offset="1" stop-color="#CCCCE1"/></linearGradient><linearGradient id="l" x1="0" x2="0" y1="17.868" y2="82.132" gradientTransform="matrix(.91619 -.33347 -.27256 -.74884 109.268 123.465)" gradientUnits="userSpaceOnUse"><stop offset="0" stop-color="#E5E5F0"/><stop offset=".125" stop-color="#E5E5F0"/><stop offset=".141" stop-color="#E5E5EF"/><stop offset=".156" stop-color="#E4E4EF"/><stop offset=".172" stop-color="#E4E4EF"/><stop offset=".188" stop-color="#E3E3EE"/><stop offset=".203" stop-color="#E3E3EE"/><stop offset=".219" stop-color="#E2E2EE"/><stop offset=".234" stop-color="#E2E2ED"/><stop offset=".25" stop-color="#E1E1ED"/><stop offset=".266" stop-color="#E1E1ED"/><stop offset=".281" stop-color="#E0E0ED"/><stop offset=".297" stop-color="#E0E0EC"/><stop offset=".313" stop-color="#DFDFEC"/><stop offset=".328" stop-color="#DFDFEC"/><stop offset=".344" stop-color="#DEDEEB"/><stop offset=".359" stop-color="#DEDEEB"/><stop offset=".375" stop-color="#DDDDEB"/><stop offset=".391" stop-color="#DDDDEA"/><stop offset=".406" stop-color="#DCDCEA"/><stop offset=".422" stop-color="#DCDCEA"/><stop offset=".438" stop-color="#DBDBE9"/><stop offset=".453" stop-color="#DBDBE9"/><stop offset=".469" stop-color="#DADAE9"/><stop offset=".484" stop-color="#DADAE9"/><stop offset=".5" stop-color="#D9D9E8"/><stop offset=".516" stop-color="#D8D8E8"/><stop offset=".531" stop-color="#D8D8E8"/><stop offset=".547" stop-color="#D7D7E7"/><stop offset=".563" stop-color="#D7D7E7"/><stop offset=".578" stop-color="#D6D6E7"/><stop offset=".594" stop-color="#D6D6E6"/><stop offset=".609" stop-color="#D5D5E6"/><stop offset=".625" stop-color="#D5D5E6"/><stop offset=".641" stop-color="#D4D4E5"/><stop offset=".656" stop-color="#D4D4E5"/><stop offset=".672" stop-color="#D3D3E5"/><stop offset=".688" stop-color="#D3D3E5"/><stop offset=".703" stop-color="#D2D2E4"/><stop offset=".719" stop-color="#D2D2E4"/><stop offset=".734" stop-color="#D1D1E4"/><stop offset=".75" stop-color="#D1D1E3"/><stop offset=".766" stop-color="#D0D0E3"/><stop offset=".781" stop-color="#D0D0E3"/><stop offset=".797" stop-color="#CFCFE2"/><stop offset=".813" stop-color="#CFCFE2"/><stop offset=".828" stop-color="#CECEE2"/><stop offset=".844" stop-color="#CECEE1"/><stop offset=".859" stop-color="#CDCDE1"/><stop offset=".875" stop-color="#CDCDE1"/><stop offset="1" stop-color="#CCCCE1"/></linearGradient><linearGradient id="p" x1="0" x2="0" y1="17.868" y2="82.132" gradientTransform="scale(.68045 -.68045) rotate(20 484.771 967.703)" gradientUnits="userSpaceOnUse"><stop offset="0" stop-color="#F0E5E5"/><stop offset=".125" stop-color="#F0E5E5"/><stop offset=".141" stop-color="#EFE5E5"/><stop offset=".156" stop-color="#EFE4E4"/><stop offset=".172" stop-color="#EFE4E4"/><stop offset=".188" stop-color="#EEE3E3"/><stop offset=".203" stop-color="#EEE3E3"/><stop offset=".219" stop-color="#EEE2E2"/><stop offset=".234" stop-color="#EDE2E2"/><stop offset=".25" stop-color="#EDE1E1"/><stop offset=".266" stop-color="#EDE1E1"/><stop offset=".281" stop-color="#EDE0E0"/><stop offset=".297" stop-color="#ECE0E0"/><stop offset=".313" stop-color="#ECDFDF"/><stop offset=".328" stop-color="#ECDFDF"/><stop offset=".344" stop-color="#EBDEDE"/><stop offset=".359" stop-color="#EBDEDE"/><stop offset=".375" stop-color="#EBDDDD"/><stop offset=".391" stop-color="#EADDDD"/><stop offset=".406" stop-color="#EADCDC"/><stop offset=".422" stop-color="#EADCDC"/><stop offset=".438" stop-color="#E9DBDB"/><stop offset=".453" stop-color="#E9DBDB"/><stop offset=".469" stop-color="#E9DADA"/><stop offset=".484" stop-color="#E9DADA"/><stop offset=".5" stop-color="#E8D9D9"/><stop offset=".516" stop-color="#E8D8D8"/><stop offset=".531" stop-color="#E8D8D8"/><stop offset=".547" stop-color="#E7D7D7"/><stop offset=".563" stop-color="#E7D7D7"/><stop offset=".578" stop-color="#E7D6D6"/><stop offset=".594" stop-color="#E6D6D6"/><stop offset=".609" stop-color="#E6D5D5"/><stop offset=".625" stop-color="#E6D5D5"/><stop offset=".641" stop-color="#E5D4D4"/><stop offset=".656" stop-color="#E5D4D4"/><stop offset=".672" stop-color="#E5D3D3"/><stop offset=".688" stop-color="#E5D3D3"/><stop offset=".703" stop-color="#E4D2D2"/><stop offset=".719" stop-color="#E4D2D2"/><stop offset=".734" stop-color="#E4D1D1"/><stop offset=".75" stop-color="#E3D1D1"/><stop offset=".766" stop-color="#E3D0D0"/><stop offset=".781" stop-color="#E3D0D0"/><stop offset=".797" stop-color="#E2CFCF"/><stop offset=".813" stop-color="#E2CFCF"/><stop offset=".828" stop-color="#E2CECE"/><stop offset=".844" stop-color="#E1CECE"/><stop offset=".859" stop-color="#E1CDCD"/><stop offset=".875" stop-color="#E1CDCD"/><stop offset="1" stop-color="#E1CCCC"/></linearGradient><linearGradient id="t" x1="0" x2="0" y1="17.868" y2="82.132" gradientTransform="matrix(.91619 -.33347 -.27256 -.74884 183.84 123.465)" gradientUnits="userSpaceOnUse"><stop offset="0" stop-color="#E5E5F0"/><stop offset=".125" stop-color="#E5E5F0"/><stop offset=".141" stop-color="#E5E5EF"/><stop offset=".156" stop-color="#E4E4EF"/><stop offset=".172" stop-color="#E4E4EF"/><stop offset=".188" stop-color="#E3E3EE"/><stop offset=".203" stop-color="#E3E3EE"/><stop offset=".219" stop-color="#E2E2EE"/><stop offset=".234" stop-color="#E2E2ED"/><stop offset=".25" stop-color="#E1E1ED"/><stop offset=".266" stop-color="#E1E1ED"/><stop offset=".281" stop-color="#E0E0ED"/><stop offset=".297" stop-color="#E0E0EC"/><stop offset=".313" stop-color="#DFDFEC"/><stop offset=".328" stop-color="#DFDFEC"/><stop offset=".344" stop-color="#DEDEEB"/><stop offset=".359" stop-color="#DEDEEB"/><stop offset=".375" stop-color="#DDDDEB"/><stop offset=".391" stop-color="#DDDDEA"/><stop offset=".406" stop-color="#DCDCEA"/><stop offset=".422" stop-color="#DCDCEA"/><stop offset=".438" stop-color="#DBDBE9"/><stop offset=".453" stop-color="#DBDBE9"/><stop offset=".469" stop-color="#DADAE9"/><stop offset=".484" stop-color="#DADAE9"/><stop offset=".5" stop-color="#D9D9E8"/><stop offset=".516" stop-color="#D8D8E8"/><stop offset=".531" stop-color="#D8D8E8"/><stop offset=".547" stop-color="#D7D7E7"/><stop offset=".563" stop-color="#D7D7E7"/><stop offset=".578" stop-color="#D6D6E7"/><stop offset=".594" stop-color="#D6D6E6"/><stop offset=".609" stop-color="#D5D5E6"/><stop offset=".625" stop-color="#D5D5E6"/><stop offset=".641" stop-color="#D4D4E5"/><stop offset=".656" stop-color="#D4D4E5"/><stop offset=".672" stop-color="#D3D3E5"/><stop offset=".688" stop-color="#D3D3E5"/><stop offset=".703" stop-color="#D2D2E4"/><stop offset=".719" stop-color="#D2D2E4"/><stop offset=".734" stop-color="#D1D1E4"/><stop offset=".75" stop-color="#D1D1E3"/><stop offset=".766" stop-color="#D0D0E3"/><stop offset=".781" stop-color="#D0D0E3"/><stop offset=".797" stop-color="#CFCFE2"/><stop offset=".813" stop-color="#CFCFE2"/><stop offset=".828" stop-color="#CECEE2"/><stop offset=".844" stop-color="#CECEE1"/><stop offset=".859" stop-color="#CDCDE1"/><stop offset=".875" stop-color="#CDCDE1"/><stop offset="1" stop-color="#CCCCE1"/></linearGradient><linearGradient id="x" x1="0" x2="0" y1="17.868" y2="82.132" gradientTransform="matrix(.91619 -.33347 -.27256 -.74884 282.682 123.465)" gradientUnits="userSpaceOnUse"><stop offset="0" stop-color="#E5E5F0"/><stop offset=".125" stop-color="#E5E5F0"/><stop offset=".141" stop-color="#E5E5EF"/><stop offset=".156" stop-color="#E4E4EF"/><stop offset=".172" stop-color="#E4E4EF"/><stop offset=".188" stop-color="#E3E3EE"/><stop offset=".203" stop-color="#E3E3EE"/><stop offset=".219" stop-color="#E2E2EE"/><stop offset=".234" stop-color="#E2E2ED"/><stop offset=".25" stop-color="#E1E1ED"/><stop offset=".266" stop-color="#E1E1ED"/><stop offset=".281" stop-color="#E0E0ED"/><stop offset=".297" stop-color="#E0E0EC"/><stop offset=".313" stop-color="#DFDFEC"/><stop offset=".328" stop-color="#DFDFEC"/><stop offset=".344" stop-color="#DEDEEB"/><stop offset=".359" stop-color="#DEDEEB"/><stop offset=".375" stop-color="#DDDDEB"/><stop offset=".391" stop-color="#DDDDEA"/><stop offset=".406" stop-color="#DCDCEA"/><stop offset=".422" stop-color="#DCDCEA"/><stop offset=".438" stop-color="#DBDBE9"/><stop offset=".453" stop-color="#DBDBE9"/><stop offset=".469" stop-color="#DADAE9"/><stop offset=".484" stop-color="#DADAE9"/><stop offset=".5" stop-color="#D9D9E8"/><stop offset=".516" stop-color="#D8D8E8"/><stop offset=".531" stop-color="#D8D8E8"/><stop offset=".547" stop-color="#D7D7E7"/><stop offset=".563" stop-color="#D7D7E7"/><stop offset=".578" stop-color="#D6D6E7"/><stop offset=".594" stop-color="#D6D6E6"/><stop offset=".609" stop-color="#D5D5E6"/><stop offset=".625" stop-color="#D5D5E6"/><stop offset=".641" stop-color="#D4D4E5"/><stop offset=".656" stop-color="#D4D4E5"/><stop offset=".672" stop-color="#D3D3E5"/><stop offset=".688" stop-color="#D3D3E5"/><stop offset=".703" stop-color="#D2D2E4"/><stop offset=".719" stop-color="#D2D2E4"/><stop offset=".734" stop-color="#D1D1E4"/><stop offset=".75" stop-color="#D1D1E3"/><stop offset=".766" stop-color="#D0D0E3"/><stop offset=".781" stop-color="#D0D0E3"/><stop offset=".797" stop-color="#CFCFE2"/><stop offset=".813" stop-color="#CFCFE2"/><stop offset=".828" stop-color="#CECEE2"/><stop offset=".844" stop-color="#CECEE1"/><stop offset=".859" stop-color="#CDCDE1"/><stop offset=".875" stop-color="#CDCDE1"/><stop offset="1" stop-color="#CCCCE1"/></linearGradient><linearGradient id="B" x1="0" x2="0" y1="17.868" y2="82.132" gradientTransform="scale(.68045 -.68045) rotate(20 612.198 1690.362)" gradientUnits="userSpaceOnUse"><stop offset="0" stop-color="#F0E5E5"/><stop offset=".125" stop-color="#F0E5E5"/><stop offset=".141" stop-color="#EFE5E5"/><stop offset=".156" stop-color="#EFE4E4"/><stop offset=".172" stop-color="#EFE4E4"/><stop offset=".188" stop-color="#EEE3E3"/><stop offset=".203" stop-color="#EEE3E3"/><stop offset=".219" stop-color="#EEE2E2"/><stop offset=".234" stop-color="#EDE2E2"/><stop offset=".25" stop-color="#EDE1E1"/><stop offset=".266" stop-color="#EDE1E1"/><stop offset=".281" stop-color="#EDE0E0"/><stop offset=".297" stop-color="#ECE0E0"/><stop offset=".313" stop-color="#ECDFDF"/><stop offset=".328" stop-color="#ECDFDF"/><stop offset=".344" stop-color="#EBDEDE"/><stop offset=".359" stop-color="#EBDEDE"/><stop offset=".375" stop-color="#EBDDDD"/><stop offset=".391" stop-color="#EADDDD"/><stop offset=".406" stop-color="#EADCDC"/><stop offset=".422" stop-color="#EADCDC"/><stop offset=".438" stop-color="#E9DBDB"/><stop offset=".453" stop-color="#E9DBDB"/><stop offset=".469" stop-color="#E9DADA"/><stop offset=".484" stop-color="#E9DADA"/><stop offset=".5" stop-color="#E8D9D9"/><stop offset=".516" stop-color="#E8D8D8"/><stop offset=".531" stop-color="#E8D8D8"/><stop offset=".547" stop-color="#E7D7D7"/><stop offset=".563" stop-color="#E7D7D7"/><stop offset=".578" stop-color="#E7D6D6"/><stop offset=".594" stop-color="#E6D6D6"/><stop offset=".609" stop-color="#E6D5D5"/><stop offset=".625" stop-color="#E6D5D5"/><stop offset=".641" stop-color="#E5D4D4"/><stop offset=".656" stop-color="#E5D4D4"/><stop offset=".672" stop-color="#E5D3D3"/><stop offset=".688" stop-color="#E5D3D3"/><stop offset=".703" stop-color="#E4D2D2"/><stop offset=".719" stop-color="#E4D2D2"/><stop offset=".734" stop-color="#E4D1D1"/><stop offset=".75" stop-color="#E3D1D1"/><stop offset=".766" stop-color="#E3D0D0"/><stop offset=".781" stop-color="#E3D0D0"/><stop offset=".797" stop-color="#E2CFCF"/><stop offset=".813" stop-color="#E2CFCF"/><stop offset=".828" stop-color="#E2CECE"/><stop offset=".844" stop-color="#E1CECE"/><stop offset=".859" stop-color="#E1CDCD"/><stop offset=".875" stop-color="#E1CDCD"/><stop offset="1" stop-color="#E1CCCC"/></linearGradient><linearGradient id="F" x1="0" x2="0" y1="17.868" y2="82.132" gradientTransform="matrix(.91619 -.33347 -.27256 -.74884 357.254 123.465)" gradientUnits="userSpaceOnUse"><stop offset="0" stop-color="#E5E5F0"/><stop offset=".125" stop-color="#E5E5F0"/><stop offset=".141" stop-color="#E5E5EF"/><stop offset=".156" stop-color="#E4E4EF"/><stop offset=".172" stop-color="#E4E4EF"/><stop offset=".188" stop-color="#E3E3EE"/><stop offset=".203" stop-color="#E3E3EE"/><stop offset=".219" stop-color="#E2E2EE"/><stop offset=".234" stop-color="#E2E2ED"/><stop offset=".25" stop-color="#E1E1ED"/><stop offset=".266" stop-color="#E1E1ED"/><stop offset=".281" stop-color="#E0E0ED"/><stop offset=".297" stop-color="#E0E0EC"/><stop offset=".313" stop-color="#DFDFEC"/><stop offset=".328" stop-color="#DFDFEC"/><stop offset=".344" stop-color="#DEDEEB"/><stop offset=".359" stop-color="#DEDEEB"/><stop offset=".375" stop-color="#DDDDEB"/><stop offset=".391" stop-color="#DDDDEA"/><stop offset=".406" stop-color="#DCDCEA"/><stop offset=".422" stop-color="#DCDCEA"/><stop offset=".438" stop-color="#DBDBE9"/><stop offset=".453" stop-color="#DBDBE9"/><stop offset=".469" stop-color="#DADAE9"/><stop offset=".484" stop-color="#DADAE9"/><stop offset=".5" stop-color="#D9D9E8"/><stop offset=".516" stop-color="#D8D8E8"/><stop offset=".531" stop-color="#D8D8E8"/><stop offset=".547" stop-color="#D7D7E7"/><stop offset=".563" stop-color="#D7D7E7"/><stop offset=".578" stop-color="#D6D6E7"/><stop offset=".594" stop-color="#D6D6E6"/><stop offset=".609" stop-color="#D5D5E6"/><stop offset=".625" stop-color="#D5D5E6"/><stop offset=".641" stop-color="#D4D4E5"/><stop offset=".656" stop-color="#D4D4E5"/><stop offset=".672" stop-color="#D3D3E5"/><stop offset=".688" stop-color="#D3D3E5"/><stop offset=".703" stop-color="#D2D2E4"/><stop offset=".719" stop-color="#D2D2E4"/><stop offset=".734" stop-color="#D1D1E4"/><stop offset=".75" stop-color="#D1D1E3"/><stop offset=".766" stop-color="#D0D0E3"/><stop offset=".781" stop-color="#D0D0E3"/><stop offset=".797" stop-color="#CFCFE2"/><stop offset=".813" stop-color="#CFCFE2"/><stop offset=".828" stop-color="#CECEE2"/><stop offset=".844" stop-color="#CECEE1"/><stop offset=".859" stop-color="#CDCDE1"/><stop offset=".875" stop-color="#CDCDE1"/><stop offset="1" stop-color="#CCCCE1"/></linearGradient><linearGradient id="J" x1="0" x2="0" y1="17.868" y2="82.132" gradientTransform="matrix(.91619 -.33347 -.27256 -.74884 456.096 123.465)" gradientUnits="userSpaceOnUse"><stop offset="0" stop-color="#E5E5F0"/><stop offset=".125" stop-color="#E5E5F0"/><stop offset=".141" stop-color="#E5E5EF"/><stop offset=".156" stop-color="#E4E4EF"/><stop offset=".172" stop-color="#E4E4EF"/><stop offset=".188" stop-color="#E3E3EE"/><stop offset=".203" stop-color="#E3E3EE"/><stop offset=".219" stop-color="#E2E2EE"/><stop offset=".234" stop-color="#E2E2ED"/><stop offset=".25" stop-color="#E1E1ED"/><stop offset=".266" stop-color="#E1E1ED"/><stop offset=".281" stop-color="#E0E0ED"/><stop offset=".297" stop-color="#E0E0EC"/><stop offset=".313" stop-color="#DFDFEC"/><stop offset=".328" stop-color="#DFDFEC"/><stop offset=".344" stop-color="#DEDEEB"/><stop offset=".359" stop-color="#DEDEEB"/><stop offset=".375" stop-color="#DDDDEB"/><stop offset=".391" stop-color="#DDDDEA"/><stop offset=".406" stop-color="#DCDCEA"/><stop offset=".422" stop-color="#DCDCEA"/><stop offset=".438" stop-color="#DBDBE9"/><stop offset=".453" stop-color="#DBDBE9"/><stop offset=".469" stop-color="#DADAE9"/><stop offset=".484" stop-color="#DADAE9"/><stop offset=".5" stop-color="#D9D9E8"/><stop offset=".516" stop-color="#D8D8E8"/><stop offset=".531" stop-color="#D8D8E8"/><stop offset=".547" stop-color="#D7D7E7"/><stop offset=".563" stop-color="#D7D7E7"/><stop offset=".578" stop-color="#D6D6E7"/><stop offset=".594" stop-color="#D6D6E6"/><stop offset=".609" stop-color="#D5D5E6"/><stop offset=".625" stop-color="#D5D5E6"/><stop offset=".641" stop-color="#D4D4E5"/><stop offset=".656" stop-color="#D4D4E5"/><stop offset=".672" stop-color="#D3D3E5"/><stop offset=".688" stop-color="#D3D3E5"/><stop offset=".703" stop-color="#D2D2E4"/><stop offset=".719" stop-color="#D2D2E4"/><stop offset=".734" stop-color="#D1D1E4"/><stop offset=".75" stop-color="#D1D1E3"/><stop offset=".766" stop-color="#D0D0E3"/><stop offset=".781" stop-color="#D0D0E3"/><stop offset=".797" stop-color="#CFCFE2"/><stop offset=".813" stop-color="#CFCFE2"/><stop offset=".828" stop-color="#CECEE2"/><stop offset=".844" stop-color="#CECEE1"/><stop offset=".859" stop-color="#CDCDE1"/><stop offset=".875" stop-color="#CDCDE1"/><stop offset="1" stop-color="#CCCCE1"/></linearGradient></defs><path fill="#F0E5E5" d="M109.086 29.504c0-9.422-7.637-17.059-17.059-17.059S74.97 20.082 74.97 29.504c0 9.418 7.636 17.055 17.058 17.055s17.059-7.637 17.059-17.055Zm0 0"/><g clip-path="url(#a)"><g clip-path="url(#b)"><g clip-path="url(#c)"><path fill="url(#d)" d="m78.96 57.523-14.956-41.09 41.09-14.953 14.957 41.09Zm0 0"/></g></g></g><path fill="none" stroke="#000" stroke-miterlimit="10" stroke-width=".399" d="M109.086 29.504c0-9.422-7.637-17.059-17.059-17.059S74.97 20.082 74.97 29.504c0 9.418 7.636 17.055 17.058 17.055s17.059-7.637 17.059-17.055Zm0 0"/><path d="M87.584 26.244v-.328l-1.22.031-1.233-.03v.327c1.078 0 1.078.485 1.078.782v4.484l-3.703-5.453c-.094-.125-.11-.14-.313-.14h-1.781v.327h.312c.157 0 .36.016.516.016.25.031.25.047.25.25v5.469c0 .297 0 .78-1.078.78v.329l1.234-.031 1.219.031v-.328c-1.078 0-1.078-.484-1.078-.781v-5.453c.062.046.062.062.11.125l4.28 6.296c.094.125.11.141.188.141.14 0 .14-.078.14-.266v-5.796c0-.297 0-.782 1.079-.782zm5.312 4.594c0-1.344-1.062-2.453-2.328-2.453-1.312 0-2.328 1.14-2.328 2.453 0 1.36 1.094 2.36 2.312 2.36a2.334 2.334 0 0 0 2.344-2.36zm-.875-.078c0 .375 0 .937-.234 1.406-.235.469-.688.781-1.219.781-.453 0-.906-.234-1.203-.703-.25-.468-.25-1.11-.25-1.484 0-.406 0-.984.25-1.438a1.386 1.386 0 0 1 1.187-.703c.47 0 .922.235 1.188.672.281.453.281 1.063.281 1.469zm6.987 2.328v-.328c-.735 0-.813-.078-.813-.578v-6.375l-1.515.11v.327c.734 0 .812.078.812.578v2.282a1.62 1.62 0 0 0-1.312-.657c-1.25 0-2.344 1.032-2.344 2.391 0 1.328 1.031 2.36 2.219 2.36.672 0 1.156-.344 1.406-.688v.687zm-1.547-1.234c0 .187 0 .203-.11.39-.312.5-.78.735-1.234.735-.484 0-.86-.282-1.11-.672-.265-.438-.296-1.031-.296-1.469 0-.39.016-1.016.312-1.484.235-.328.625-.672 1.188-.672.375 0 .812.156 1.14.625.11.187.11.203.11.39zm6.213-.016c0-.11-.078-.125-.14-.125-.095 0-.11.063-.141.14-.36 1.094-1.313 1.094-1.407 1.094-.53 0-.953-.328-1.187-.703-.313-.515-.313-1.203-.313-1.578h2.922c.235 0 .266 0 .266-.219 0-1.046-.563-2.062-1.875-2.062-1.219 0-2.188 1.078-2.188 2.39 0 1.407 1.094 2.422 2.313 2.422 1.281 0 1.75-1.156 1.75-1.359zm-.688-1.39h-2.5c.063-1.563.953-1.829 1.313-1.829 1.078 0 1.187 1.407 1.187 1.828zm0 0"/><path fill="#E5E5F0" d="M62.516 51.926h-39.82a7.085 7.085 0 0 0-7.087 7.086v20.672a7.088 7.088 0 0 0 7.086 7.09h39.82a7.092 7.092 0 0 0 7.09-7.09V59.012a7.088 7.088 0 0 0-7.09-7.086Zm0 0"/><g clip-path="url(#e)"><g clip-path="url(#f)"><g clip-path="url(#g)"><path fill="url(#h)" d="M21.926 104.125 4.41 56.004l58.88-21.43 17.515 48.121Zm0 0"/></g></g></g><path fill="none" stroke="#000" stroke-miterlimit="10" stroke-width=".399" d="M62.516 51.926h-39.82a7.085 7.085 0 0 0-7.087 7.086v20.672a7.088 7.088 0 0 0 7.086 7.09h39.82a7.092 7.092 0 0 0 7.09-7.09V59.012a7.088 7.088 0 0 0-7.09-7.086Zm0 0"/><path d="M39.455 62.469h-.265c-.11 1.062-.25 2.375-2.11 2.375h-.859c-.484 0-.516-.078-.516-.422v-5.594c0-.36 0-.5 1-.5h.344V58c-.375.031-1.328.031-1.765.031-.407 0-1.22 0-1.594-.03v.327h.25c.812 0 .828.11.828.485v5.546c0 .375-.016.485-.828.485h-.25v.328h5.469Zm4.813 1.453c0-.11-.078-.125-.14-.125-.094 0-.11.062-.141.14-.36 1.094-1.313 1.094-1.407 1.094-.53 0-.953-.328-1.187-.703-.313-.515-.313-1.203-.313-1.578h2.922c.235 0 .266 0 .266-.219 0-1.047-.563-2.062-1.875-2.062-1.219 0-2.188 1.078-2.188 2.39 0 1.407 1.094 2.422 2.313 2.422 1.281 0 1.75-1.156 1.75-1.359zm-.688-1.39h-2.5c.063-1.563.954-1.829 1.313-1.829 1.078 0 1.187 1.406 1.187 1.828zm4.74-4.032c0-.39-.39-.734-.953-.734-.734 0-1.625.562-1.625 1.672v1.203h-.828v.328h.828v3.406c0 .469-.109.469-.812.469v.328l1.187-.031c.422 0 .922 0 1.344.031v-.328h-.219c-.78 0-.797-.11-.797-.485v-3.39h1.188v-.328h-1.219v-1.219c0-.922.5-1.422.953-1.422.032 0 .203 0 .36.078a.452.452 0 0 0-.328.438c0 .234.171.453.453.453.312 0 .468-.219.468-.469zm0 0"/><path d="M51.268 63.875v-.61h-.266v.579c0 .781-.312 1.187-.703 1.187-.703 0-.703-.968-.703-1.14v-2.922h1.5v-.328h-1.5v-1.922h-.266c0 .86-.312 1.984-1.343 2.015v.235h.89v2.906c0 1.281.969 1.406 1.36 1.406.734 0 1.03-.734 1.03-1.406zM30.321 77.142c0-1.047-.687-1.906-1.562-2.125l-1.344-.328a1.36 1.36 0 0 1-1.062-1.328c0-.735.562-1.375 1.375-1.375 1.765 0 1.984 1.718 2.046 2.203.016.062.016.125.125.125.141 0 .141-.063.141-.266v-2.11c0-.171 0-.25-.11-.25-.077 0-.093.016-.155.141l-.375.594c-.313-.297-.75-.734-1.672-.734a2.024 2.024 0 0 0-2.047 2.047c0 .859.547 1.625 1.375 1.922.11.03.64.156 1.375.343.297.063.61.14.89.532.235.28.328.625.328.968 0 .75-.515 1.5-1.406 1.5-.297 0-1.093-.047-1.656-.562-.61-.578-.64-1.25-.656-1.625 0-.11-.094-.11-.125-.11-.125 0-.125.079-.125.266v2.11c0 .171 0 .25.11.25.077 0 .077-.032.155-.141 0 0 .032-.047.375-.594.328.36 1 .734 1.938.734 1.234 0 2.062-1.03 2.062-2.187zm6.229 1.953v-.328c-.75 0-.828-.078-.828-.578v-3.735l-1.547.11v.328c.734 0 .828.078.828.594v1.859c0 .922-.516 1.64-1.281 1.64-.875 0-.922-.5-.922-1.046v-3.485l-1.531.11v.328c.812 0 .812.031.812.969v1.578c0 .812 0 1.765 1.594 1.765.594 0 1.047-.28 1.36-.937v.937zm5.682-2.265c0-1.329-1.032-2.376-2.219-2.376-.828 0-1.281.5-1.438.688v-3.328l-1.515.11v.327c.734 0 .812.078.812.578v6.266h.266l.375-.656c.156.25.61.765 1.375.765a2.357 2.357 0 0 0 2.344-2.375zm-.875-.016c0 .39-.016 1.015-.313 1.5-.234.312-.625.672-1.187.672-.485 0-.86-.266-1.11-.641-.14-.219-.14-.266-.14-.453v-2.156c0-.203 0-.203.11-.375a1.491 1.491 0 0 1 1.233-.672c.485 0 .86.265 1.11.672.265.422.297 1.03.297 1.453Zm4.728.984v-.61h-.265v.579c0 .781-.313 1.187-.703 1.187-.703 0-.703-.968-.703-1.14v-2.922h1.5v-.328h-1.5v-1.922h-.266c0 .86-.313 1.984-1.344 2.016v.234h.89v2.906c0 1.281.97 1.406 1.36 1.406.735 0 1.031-.734 1.031-1.406zm4.429-2.703c0-.344-.328-.64-.782-.64-.765 0-1.14.703-1.296 1.156v-1.157l-1.454.11v.328c.735 0 .813.078.813.594v2.812c0 .469-.11.469-.813.469v.328l1.188-.031c.422 0 .922 0 1.344.031v-.328h-.22c-.78 0-.796-.11-.796-.484v-1.625c0-1.032.438-1.97 1.234-1.97h.11a.476.476 0 0 0-.235.423c0 .28.22.453.454.453.187 0 .453-.14.453-.469zm4.646 2.75c0-.11-.077-.125-.14-.125-.094 0-.11.063-.14.14-.36 1.094-1.313 1.094-1.407 1.094-.53 0-.953-.328-1.187-.703-.313-.515-.313-1.203-.313-1.578h2.922c.235 0 .266 0 .266-.219 0-1.046-.563-2.062-1.875-2.062-1.219 0-2.188 1.078-2.188 2.39 0 1.407 1.094 2.422 2.313 2.422 1.281 0 1.75-1.156 1.75-1.359zm-.687-1.39h-2.5c.063-1.563.953-1.829 1.313-1.829 1.078 0 1.187 1.407 1.187 1.828zm5.35 1.39c0-.11-.078-.125-.14-.125-.094 0-.11.063-.141.14-.36 1.094-1.313 1.094-1.407 1.094-.53 0-.953-.328-1.187-.703-.313-.515-.313-1.203-.313-1.578h2.922c.235 0 .266 0 .266-.219 0-1.046-.563-2.062-1.875-2.062-1.219 0-2.188 1.078-2.188 2.39 0 1.407 1.094 2.422 2.313 2.422 1.281 0 1.75-1.156 1.75-1.359zm-.688-1.39h-2.5c.063-1.563.954-1.829 1.313-1.829 1.078 0 1.187 1.407 1.187 1.828zm0 0"/><path fill="#E5E5F0" d="M161.36 51.926h-39.82a7.085 7.085 0 0 0-7.087 7.086v20.672a7.088 7.088 0 0 0 7.086 7.09h39.82a7.088 7.088 0 0 0 7.086-7.09V59.012a7.085 7.085 0 0 0-7.086-7.086Zm0 0"/><g clip-path="url(#i)"><g clip-path="url(#j)"><g clip-path="url(#k)"><path fill="url(#l)" d="m120.77 104.125-17.516-48.121 58.875-21.43 17.516 48.121Zm0 0"/></g></g></g><path fill="none" stroke="#000" stroke-miterlimit="10" stroke-width=".399" d="M161.36 51.926h-39.82a7.085 7.085 0 0 0-7.087 7.086v20.672a7.088 7.088 0 0 0 7.086 7.09h39.82a7.088 7.088 0 0 0 7.086-7.09V59.012a7.085 7.085 0 0 0-7.086-7.086Zm0 0"/><path d="M136.374 64.25c0-.062 0-.187-.141-.187-.11 0-.11.093-.125.171-.063.75-.422.938-.688.938-.515 0-.609-.531-.75-1.516l-.14-.843c-.188-.672-.703-1.016-1.281-1.204 1.03-.265 1.843-.906 1.843-1.718 0-1.016-1.203-1.89-2.734-1.89h-3.297v.327h.25c.797 0 .828.11.828.485v5.546c0 .375-.031.485-.828.485h-.25v.328c.375-.031 1.11-.031 1.531-.031.406 0 1.156 0 1.531.031v-.328h-.25c-.812 0-.828-.11-.828-.485v-2.656h1.204c.171 0 .609 0 .968.344.406.39.406.703.406 1.406 0 .688 0 1.11.422 1.516.438.375 1.016.437 1.329.437.812 0 1-.859 1-1.156zm-2.36-4.36c0 .72-.25 1.579-1.812 1.579h-1.157V58.75c0-.25 0-.375.22-.406.109-.016.421-.016.624-.016.938 0 2.125.047 2.125 1.563zm4.994 5.282v-.328c-.688 0-.735-.047-.735-.453v-3.86l-1.468.11v.328c.687 0 .78.062.78.578v2.828c0 .469-.124.469-.827.469v.328l1.156-.031c.375 0 .734.015 1.094.031zm-.578-6.344a.57.57 0 0 0-.563-.562.57.57 0 0 0-.562.562c0 .281.25.563.562.563a.56.56 0 0 0 .563-.563zm5.997 2.11c0-.188-.125-.516-.532-.516-.218 0-.671.062-1.125.484a1.74 1.74 0 0 0-1.109-.375c-.969 0-1.703.72-1.703 1.532 0 .468.234.859.5 1.078-.14.156-.328.515-.328.875 0 .328.14.718.469.937-.641.172-.97.625-.97 1.047 0 .75 1.032 1.328 2.313 1.328 1.25 0 2.344-.531 2.344-1.344 0-.375-.156-.906-.687-1.203-.563-.297-1.172-.297-1.813-.297h-.781c-.344-.046-.563-.375-.563-.703 0-.047 0-.297.188-.5a1.74 1.74 0 0 0 1.031.328c.984 0 1.703-.718 1.703-1.53 0-.391-.172-.782-.437-1.016.39-.36.765-.422.953-.422 0 0 .078 0 .11.015-.126.047-.173.157-.173.282a.3.3 0 0 0 .297.312c.11 0 .313-.078.313-.312zm-1.844 1.125c0 .28-.016.625-.172.89a.902.902 0 0 1-.75.406c-.906 0-.906-1.046-.906-1.28 0-.282 0-.626.156-.891.094-.125.328-.422.75-.422.922 0 .922 1.062.922 1.297zM143.739 66c0 .563-.75 1.094-1.781 1.094-1.063 0-1.781-.531-1.781-1.094a.92.92 0 0 1 .86-.906h.624c.89 0 2.078 0 2.078.906zm6.469-.828v-.328c-.547 0-.813 0-.828-.313v-2c0-.906 0-1.234-.328-1.609-.14-.188-.485-.39-1.094-.39-.89 0-1.344.624-1.516 1h-.015V57.89l-1.5.11v.327c.734 0 .812.078.812.578v5.47c0 .468-.11.468-.812.468v.328l1.172-.031 1.187.031v-.328c-.703 0-.828 0-.828-.469v-1.937c0-1.094.75-1.672 1.422-1.672.656 0 .781.562.781 1.156v2.453c0 .469-.125.469-.828.469v.328l1.187-.031zm3.403-1.297v-.61h-.265v.579c0 .781-.313 1.187-.703 1.187-.703 0-.703-.968-.703-1.14v-2.922h1.5v-.328h-1.5v-1.922h-.266c0 .86-.313 1.984-1.344 2.015v.235h.89v2.906c0 1.281.97 1.406 1.36 1.406.734 0 1.031-.734 1.031-1.406zm-24.448 13.267c0-1.047-.687-1.906-1.562-2.125l-1.344-.328a1.36 1.36 0 0 1-1.062-1.328c0-.735.562-1.375 1.375-1.375 1.765 0 1.984 1.718 2.047 2.203.015.062.015.125.125.125.14 0 .14-.063.14-.266v-2.11c0-.171 0-.25-.11-.25-.077 0-.093.016-.155.141l-.375.594c-.313-.297-.75-.734-1.672-.734a2.024 2.024 0 0 0-2.047 2.047c0 .859.547 1.625 1.375 1.922.11.03.64.156 1.375.343.297.063.61.14.89.532.235.28.328.625.328.968 0 .75-.515 1.5-1.406 1.5-.297 0-1.093-.047-1.656-.562-.61-.578-.64-1.25-.656-1.625 0-.11-.094-.11-.125-.11-.125 0-.125.079-.125.266v2.11c0 .171 0 .25.11.25.077 0 .077-.032.155-.141 0 0 .032-.047.375-.594.329.36 1 .734 1.938.734 1.234 0 2.062-1.03 2.062-2.187zm6.229 1.953v-.328c-.75 0-.828-.078-.828-.578v-3.735l-1.547.11v.328c.734 0 .828.078.828.594v1.859c0 .922-.516 1.64-1.281 1.64-.875 0-.922-.5-.922-1.046v-3.485l-1.531.11v.328c.812 0 .812.031.812.969v1.578c0 .812 0 1.765 1.594 1.765.594 0 1.047-.28 1.36-.937v.937zm5.682-2.265c0-1.329-1.032-2.376-2.219-2.376-.828 0-1.281.5-1.438.688v-3.328l-1.515.11v.327c.734 0 .812.078.812.578v6.266h.266l.375-.656c.156.25.61.765 1.375.765a2.357 2.357 0 0 0 2.344-2.375zm-.875-.016c0 .39-.016 1.015-.313 1.5-.234.312-.625.672-1.187.672-.485 0-.86-.266-1.11-.641-.14-.219-.14-.266-.14-.453v-2.156c0-.203 0-.203.11-.375a1.491 1.491 0 0 1 1.233-.672c.485 0 .86.265 1.11.672.266.422.297 1.03.297 1.453Zm4.728.984v-.61h-.265v.579c0 .781-.313 1.187-.703 1.187-.704 0-.704-.968-.704-1.14v-2.922h1.5v-.328h-1.5v-1.922h-.265c0 .86-.313 1.984-1.344 2.016v.234h.89v2.906c0 1.281.97 1.406 1.36 1.406.734 0 1.031-.734 1.031-1.406zm4.429-2.703c0-.344-.328-.64-.782-.64-.765 0-1.14.703-1.297 1.156v-1.157l-1.453.11v.328c.735 0 .813.078.813.594v2.812c0 .469-.11.469-.813.469v.328l1.188-.031c.422 0 .922 0 1.344.031v-.328h-.22c-.78 0-.796-.11-.796-.484v-1.625c0-1.032.438-1.97 1.234-1.97h.11a.476.476 0 0 0-.235.423c0 .28.22.453.453.453.188 0 .454-.14.454-.469zm4.647 2.75c0-.11-.078-.125-.14-.125-.095 0-.11.063-.141.14-.36 1.094-1.313 1.094-1.407 1.094-.53 0-.953-.328-1.187-.703-.313-.515-.313-1.203-.313-1.578h2.922c.235 0 .266 0 .266-.219 0-1.046-.563-2.062-1.875-2.062-1.219 0-2.188 1.078-2.188 2.39 0 1.407 1.094 2.422 2.313 2.422 1.281 0 1.75-1.156 1.75-1.359zm-.688-1.39h-2.5c.063-1.563.953-1.829 1.313-1.829 1.078 0 1.187 1.407 1.187 1.828zm5.35 1.39c0-.11-.078-.125-.14-.125-.095 0-.11.063-.141.14-.36 1.094-1.313 1.094-1.407 1.094-.53 0-.953-.328-1.187-.703-.313-.515-.313-1.203-.313-1.578h2.922c.235 0 .266 0 .266-.219 0-1.046-.563-2.062-1.875-2.062-1.219 0-2.188 1.078-2.188 2.39 0 1.407 1.094 2.422 2.313 2.422 1.281 0 1.75-1.156 1.75-1.359zm-.688-1.39h-2.5c.063-1.563.953-1.829 1.313-1.829 1.078 0 1.187 1.407 1.187 1.828zm0 0"/><path fill="none" stroke="#000" stroke-miterlimit="10" stroke-width=".399" d="M78.594 40.332 64.457 51.727"/><path d="M110.357 14.457v-.25h-.265c-.719 0-.735-.094-.735-.36v-4.17c0-.203-.015-.203-.218-.203-.313.296-.703.484-1.422.484v.234c.203 0 .61 0 1.047-.203v3.86c0 .265-.032.359-.735.359h-.265v.25c.312-.016.953-.016 1.297-.016.328 0 .984 0 1.296.016zm3.499-.969c0-.36-.22-.89-1.11-1.047a9.339 9.339 0 0 0-.515-.093c-.235-.047-.579-.204-.579-.516 0-.219.157-.531.875-.531.844 0 .875.61.891.828 0 .062.063.078.11.078.124 0 .124-.047.124-.188v-.718c0-.11 0-.188-.093-.188-.047 0-.063 0-.188.125-.015 0-.078.063-.11.063 0 0-.015 0-.062-.031-.125-.079-.343-.157-.672-.157-1.046 0-1.28.563-1.28.922 0 .375.28.594.296.625.297.219.469.25.969.344.36.062.937.172.937.687 0 .282-.203.625-.89.625-.75 0-.97-.578-1.063-.984-.031-.094-.047-.125-.14-.125-.11 0-.11.063-.11.203v.922c0 .125 0 .203.094.203.047 0 .047-.015.187-.156.032-.031.125-.125.157-.172.343.313.687.328.89.328.953 0 1.282-.547 1.282-1.047zm2.908.032v-.422h-.22v.406c0 .516-.233.797-.53.797-.5 0-.5-.64-.5-.766v-2.062h1.125v-.25h-1.125V9.848h-.235c0 .671-.312 1.39-1 1.421v.204h.672v2.046c0 .876.672 1.016 1.016 1.016.5 0 .797-.453.797-1.015zM12.746 93.817h-.234c-.016.157-.078.532-.172.672-.047.063-.61.063-.734.063h-1.329l1-.922c.125-.11.438-.36.563-.469.469-.422.906-.828.906-1.516 0-.89-.75-1.468-1.687-1.468-.907 0-1.5.672-1.5 1.343 0 .375.297.422.406.422.156 0 .39-.11.39-.39 0-.391-.374-.391-.468-.391a1.162 1.162 0 0 1 1.094-.734c.687 0 1.046.593 1.046 1.218 0 .782-.546 1.344-1.421 2.25l-.954.985c-.093.078-.093.094-.093.281h2.968zm4.624 1.344v-.25c-.485 0-.579 0-.579-.328v-1.688c0-.64-.281-1.046-1.062-1.046-.75 0-1.078.546-1.172.718h-.016v-.718l-1.078.093v.235c.5 0 .563.062.563.422v1.984c0 .328-.094.328-.563.328v.25c.313-.016.64-.016.844-.016.218 0 .531 0 .86.016v-.25c-.485 0-.563 0-.563-.328v-1.36c0-.796.593-1.156 1.046-1.156.47 0 .579.313.579.797v1.719c0 .328-.094.328-.579.328v.25c.329-.016.657-.016.86-.016.219 0 .531 0 .86.016zm4.362 0v-.25c-.516 0-.578-.047-.578-.422v-4.531l-1.11.078v.25c.516 0 .563.047.563.422v1.578a1.323 1.323 0 0 0-1-.437c-.938 0-1.766.734-1.766 1.703 0 .922.75 1.687 1.688 1.687.453 0 .812-.219 1.062-.469v.47zm-1.14-.937c0 .14 0 .171-.11.328a1.14 1.14 0 0 1-.906.468.964.964 0 0 1-.829-.453c-.203-.297-.234-.656-.234-1.015 0-.438.063-.735.234-1a1.06 1.06 0 0 1 .891-.485c.375 0 .734.172.953.563zm0 0"/><path fill="none" stroke="#000" stroke-miterlimit="10" stroke-width=".399" d="m105.465 40.332 14.137 11.395"/><path d="M165.696 93.88c0-.625-.485-1.188-1.25-1.36.593-.203 1.03-.718 1.03-1.312 0-.61-.671-1.031-1.452-1.031-.813 0-1.407.437-1.407 1 0 .28.188.406.375.406.235 0 .375-.172.375-.39 0-.282-.234-.376-.39-.391.312-.407.89-.438 1.015-.438.204 0 .766.063.766.844 0 .516-.219.828-.312.953-.235.234-.407.25-.86.281-.14 0-.203.016-.203.11 0 .109.063.109.188.109h.375c.593 0 .968.438.968 1.219 0 .937-.53 1.219-.922 1.219-.421 0-.984-.157-1.234-.547.266 0 .453-.172.453-.422s-.172-.422-.406-.422a.414.414 0 0 0-.422.437c0 .704.766 1.172 1.625 1.172 1 0 1.688-.687 1.688-1.437zm3.217-1.547c0-.266-.235-.484-.563-.484-.484 0-.812.375-.984.796v-.796l-1.063.093v.235c.5 0 .563.062.563.422v1.984c0 .328-.078.328-.563.328v.25c.297-.016.703-.016.875-.016.453 0 .469 0 .953.016v-.25h-.156c-.547 0-.562-.078-.562-.344v-1.11c0-.562.234-1.374.953-1.39-.047.032-.11.094-.11.266a.32.32 0 0 0 .328.328.32.32 0 0 0 .329-.328Zm4.386 2.828v-.25c-.516 0-.578-.047-.578-.422v-4.531l-1.11.078v.25c.516 0 .563.047.563.422v1.578a1.323 1.323 0 0 0-1-.437c-.938 0-1.766.734-1.766 1.703 0 .922.75 1.687 1.688 1.687.453 0 .812-.219 1.062-.469v.47zm-1.14-.937c0 .14 0 .171-.11.328a1.14 1.14 0 0 1-.906.468.964.964 0 0 1-.829-.453c-.203-.297-.234-.656-.234-1.015 0-.438.063-.735.234-1a1.06 1.06 0 0 1 .891-.485c.375 0 .734.172.953.563zm0 0"/><path fill="none" stroke="#4384A1" stroke-miterlimit="10" stroke-width=".797" d="M74.77 29.504c-14.262-5.469-32.235 6.95-32.176 19.633"/><path fill="#4384A1" d="m42.605 51.727 2.055-4.153-2.066 1.563-2.078-1.543"/><path fill="none" stroke="#4384A1" stroke-miterlimit="10" stroke-width=".797" d="M69.805 69.348c9.785 14.308 34.66 14.308 42.984 2.14"/><path fill="#4384A1" d="m114.254 69.348-4.05 2.25 2.585-.11.836 2.453"/><path d="M49.877 109.283c0-1.157-1.047-2.047-2.797-2.047h-4.375v.5h1.14v6.203h-1.14v.5c.407-.031 1.438-.031 1.875-.031.453 0 1.485 0 1.89.031v-.5h-1.14v-2.672h1.86c1.468 0 2.687-.75 2.687-1.984zm-1.61 0c0 .75 0 1.562-1.593 1.562h-1.406v-3.11h1.422c1.578 0 1.578.798 1.578 1.548zm6.926 1.297c0-.563-.563-.86-1.11-.86-.734 0-1.156.516-1.406 1.188v-1.188l-1.734.078v.5c.656 0 .718 0 .718.407v3.234h-.718v.5l1.328-.031c.39 0 1.062 0 1.437.031v-.5h-.906v-1.828c0-.735.266-2.016 1.312-2.016 0 0-.203.172-.203.485 0 .421.344.64.641.64.312 0 .64-.219.64-.64zm5.523 2.625c0-.188-.203-.188-.25-.188-.187 0-.203.063-.265.219-.219.515-.813.844-1.5.844-1.485 0-1.485-1.391-1.485-1.922h3.157c.234 0 .343 0 .343-.297 0-.313-.062-1.094-.593-1.61-.39-.375-.938-.562-1.672-.562-1.672 0-2.578 1.078-2.578 2.39 0 1.407 1.047 2.422 2.734 2.422 1.656 0 2.11-1.109 2.11-1.296zm-1-1.407h-2.5c.016-.406.032-.843.25-1.187a1.16 1.16 0 0 1 .985-.547c1.234 0 1.25 1.375 1.265 1.734zm7.034.36c0-1.422-.969-2.469-2.672-2.469-1.719 0-2.672 1.063-2.672 2.469 0 1.297.922 2.343 2.672 2.343 1.766 0 2.672-1.062 2.672-2.343Zm-1.344-.125c0 .922 0 2.047-1.328 2.047s-1.328-1.125-1.328-2.047c0-.469 0-1 .172-1.36.203-.39.64-.609 1.156-.609.438 0 .875.172 1.11.531.218.36.218.938.218 1.438zm6.334-1.453c0-.563-.562-.86-1.109-.86-.734 0-1.156.516-1.406 1.188v-1.188l-1.734.078v.5c.656 0 .718 0 .718.407v3.234h-.718v.5l1.328-.031c.39 0 1.062 0 1.437.031v-.5h-.906v-1.828c0-.735.266-2.016 1.312-2.016 0 0-.203.172-.203.485 0 .421.344.64.641.64.312 0 .64-.219.64-.64zm6.65 3.859v-.5c-.657 0-.72 0-.72-.406v-6.375l-1.859.078v.5c.641 0 .72 0 .72.406v2.047a2.295 2.295 0 0 0-1.423-.469c-1.531 0-2.625.922-2.625 2.39 0 1.391.953 2.391 2.516 2.391.64 0 1.14-.25 1.469-.515v.515Zm-1.922-1.078c-.141.187-.563.765-1.36.765-1.281 0-1.281-1.265-1.281-2.015 0-.5 0-1.063.266-1.469.312-.437.797-.547 1.125-.547.593 0 1.015.328 1.25.64zm7.506-.156c0-.188-.203-.188-.25-.188-.188 0-.203.063-.266.219-.218.515-.812.844-1.5.844-1.484 0-1.484-1.391-1.484-1.922h3.156c.235 0 .344 0 .344-.297 0-.313-.063-1.094-.594-1.61-.39-.375-.937-.562-1.672-.562-1.672 0-2.578 1.078-2.578 2.39 0 1.407 1.047 2.422 2.735 2.422 1.656 0 2.109-1.109 2.109-1.296zm-1-1.407h-2.5c.016-.406.031-.843.25-1.187a1.16 1.16 0 0 1 .984-.547c1.235 0 1.25 1.375 1.266 1.734zm5.986-1.218c0-.563-.562-.86-1.109-.86-.734 0-1.156.516-1.406 1.188v-1.188l-1.734.078v.5c.656 0 .718 0 .718.407v3.234h-.718v.5l1.328-.031c.39 0 1.062 0 1.437.031v-.5h-.906v-1.828c0-.735.266-2.016 1.313-2.016 0 0-.204.172-.204.485 0 .421.344.64.641.64.313 0 .64-.219.64-.64zm12.301-.704-.219-2.53h-7.078l-.219 2.53h.5c.094-1.187.204-2.03 1.704-2.03h.812v6.093h-1.61v.5c.579-.031 1.735-.031 2.36-.031.61 0 1.781 0 2.344.031v-.5H98.26v-6.094h.797c1.5 0 1.594.844 1.703 2.031zm0 0"/><path d="M105.351 110.58c0-.563-.562-.86-1.11-.86-.734 0-1.156.516-1.406 1.188v-1.188l-1.734.078v.5c.656 0 .719 0 .719.407v3.234h-.719v.5l1.328-.031c.39 0 1.063 0 1.438.031v-.5h-.907v-1.828c0-.735.266-2.016 1.313-2.016 0 0-.203.172-.203.485 0 .421.344.64.64.64.313 0 .641-.219.641-.64zm6.149 3.609c0-.25-.14-.25-.281-.25-.64 0-.64-.14-.64-.375v-2.266c0-.937-.75-1.609-2.313-1.609-.594 0-1.875.031-1.875.953a.65.65 0 0 0 .656.672c.328 0 .656-.219.656-.672 0-.312-.203-.484-.234-.516.297-.062.64-.062.765-.062.782 0 1.157.438 1.157 1.234v.36c-.75.031-3.422.125-3.422 1.64 0 1.016 1.297 1.203 2.031 1.203.844 0 1.328-.437 1.563-.875 0 .329 0 .813 1.093.813h.5c.219 0 .344 0 .344-.25Zm-2.11-1.203c0 1-.968 1.14-1.234 1.14-.531 0-.953-.375-.953-.828 0-1.14 1.656-1.28 2.188-1.312zm7.925-2.719v-.484c-.266.015-.578.031-.828.031l-.953-.031v.484c.187 0 .5.031.5.125 0 0 0 .016-.063.125l-1.219 2.625-1.328-2.875h.563v-.484l-1.297.031-1.203-.031v.484h.672l1.843 3.953c.125.266.266.266.407.266.171 0 .28-.031.374-.25l1.75-3.75c.063-.14.11-.219.782-.219zm5.131 2.938c0-.188-.203-.188-.25-.188-.188 0-.203.063-.266.219-.218.515-.812.844-1.5.844-1.484 0-1.484-1.391-1.484-1.922h3.156c.235 0 .344 0 .344-.297 0-.313-.063-1.094-.594-1.61-.39-.375-.937-.562-1.672-.562-1.672 0-2.578 1.078-2.578 2.39 0 1.407 1.047 2.422 2.735 2.422 1.656 0 2.109-1.109 2.109-1.296zm-1-1.407h-2.5c.016-.406.031-.843.25-1.187a1.16 1.16 0 0 1 .984-.547c1.235 0 1.25 1.375 1.266 1.734zm5.987-1.218c0-.563-.563-.86-1.11-.86-.734 0-1.156.516-1.406 1.188v-1.188l-1.734.078v.5c.656 0 .718 0 .718.407v3.234h-.718v.5l1.328-.031c.39 0 1.062 0 1.437.031v-.5h-.906v-1.828c0-.735.266-2.016 1.313-2.016 0 0-.204.172-.204.485 0 .421.344.64.641.64.313 0 .64-.219.64-.64zm4.695 2.39c0-.453-.218-.812-.578-1.11-.406-.312-.75-.374-1.562-.515-.39-.062-1.078-.187-1.078-.672 0-.656.984-.656 1.187-.656.781 0 1.172.313 1.234.89 0 .157.016.204.235.204.25 0 .25-.047.25-.297v-.844c0-.187 0-.281-.188-.281-.03 0-.062 0-.468.188-.266-.126-.641-.188-1.063-.188-.312 0-1.922 0-1.922 1.375 0 .406.203.703.406.875.422.375.829.438 1.641.578.375.063 1.156.203 1.156.813 0 .796-.968.796-1.187.796-1.125 0-1.39-.765-1.516-1.218-.062-.157-.11-.157-.25-.157-.25 0-.25.079-.25.313v1.14c0 .204 0 .297.188.297.062 0 .094 0 .312-.156l.266-.172c.484.328 1.031.328 1.25.328.312 0 1.937 0 1.937-1.53zm6.221 1.219c0-.25-.141-.25-.282-.25-.64 0-.64-.14-.64-.375v-2.266c0-.937-.75-1.609-2.313-1.609-.594 0-1.875.031-1.875.953a.65.65 0 0 0 .656.672c.328 0 .657-.219.657-.672 0-.312-.203-.484-.235-.516.297-.062.64-.062.766-.062.781 0 1.156.438 1.156 1.234v.36c-.75.031-3.422.125-3.422 1.64 0 1.016 1.297 1.203 2.031 1.203.844 0 1.329-.437 1.563-.875 0 .329 0 .813 1.094.813h.5c.219 0 .344 0 .344-.25Zm-2.11-1.203c0 1-.969 1.14-1.234 1.14-.531 0-.953-.375-.953-.828 0-1.14 1.656-1.28 2.187-1.312zm5.245 1.453v-.5h-.72v-6.781l-1.859.078v.5c.641 0 .72 0 .72.406v5.797h-.72v.5l1.282-.031zm0 0"/><path fill="#F0E5E5" d="M282.5 29.504c0-9.422-7.637-17.059-17.059-17.059-9.421 0-17.058 7.637-17.058 17.059 0 9.418 7.637 17.055 17.058 17.055 9.422 0 17.059-7.637 17.059-17.055Zm0 0"/><g clip-path="url(#m)"><g clip-path="url(#n)"><g clip-path="url(#o)"><path fill="url(#p)" d="m252.375 57.523-14.957-41.09 41.09-14.953 14.957 41.09Zm0 0"/></g></g></g><path fill="none" stroke="#000" stroke-miterlimit="10" stroke-width=".399" d="M282.5 29.504c0-9.422-7.637-17.059-17.059-17.059-9.421 0-17.058 7.637-17.058 17.059 0 9.418 7.637 17.055 17.058 17.055 9.422 0 17.059-7.637 17.059-17.055Zm0 0"/><path d="M260.999 26.244v-.328l-1.22.031-1.233-.03v.327c1.078 0 1.078.485 1.078.782v4.484l-3.704-5.453c-.093-.125-.109-.14-.312-.14h-1.781v.327h.312c.156 0 .36.016.516.016.25.031.25.047.25.25v5.469c0 .297 0 .78-1.078.78v.329l1.234-.031 1.219.031v-.328c-1.078 0-1.078-.484-1.078-.781v-5.453c.062.046.062.062.11.125l4.28 6.296c.094.125.11.141.188.141.14 0 .14-.078.14-.266v-5.796c0-.297 0-.782 1.079-.782zm5.312 4.594c0-1.344-1.062-2.453-2.328-2.453-1.313 0-2.328 1.14-2.328 2.453 0 1.36 1.094 2.36 2.312 2.36a2.334 2.334 0 0 0 2.344-2.36zm-.875-.078c0 .375 0 .937-.234 1.406-.235.469-.688.781-1.219.781-.453 0-.906-.234-1.203-.703-.25-.468-.25-1.11-.25-1.484 0-.406 0-.984.25-1.438a1.386 1.386 0 0 1 1.187-.703c.47 0 .922.235 1.188.672.281.453.281 1.063.281 1.469zm6.987 2.328v-.328c-.735 0-.813-.078-.813-.578v-6.375l-1.515.11v.327c.734 0 .812.078.812.578v2.282a1.62 1.62 0 0 0-1.312-.657c-1.25 0-2.344 1.032-2.344 2.391 0 1.328 1.031 2.36 2.219 2.36.672 0 1.156-.344 1.406-.688v.687zm-1.547-1.234c0 .187 0 .203-.11.39-.312.5-.78.735-1.234.735-.484 0-.86-.282-1.11-.672-.265-.438-.296-1.031-.296-1.469 0-.39.016-1.016.312-1.484.235-.328.625-.672 1.188-.672.375 0 .812.156 1.14.625.11.187.11.203.11.39zm6.213-.016c0-.11-.078-.125-.14-.125-.095 0-.11.063-.141.14-.36 1.094-1.313 1.094-1.407 1.094-.53 0-.953-.328-1.187-.703-.313-.515-.313-1.203-.313-1.578h2.922c.235 0 .266 0 .266-.219 0-1.046-.563-2.062-1.875-2.062-1.219 0-2.188 1.078-2.188 2.39 0 1.407 1.094 2.422 2.313 2.422 1.281 0 1.75-1.156 1.75-1.359zm-.688-1.39h-2.5c.063-1.563.953-1.829 1.313-1.829 1.078 0 1.187 1.407 1.187 1.828zm0 0"/><path fill="#E5E5F0" d="M235.93 51.926h-39.82a7.088 7.088 0 0 0-7.087 7.086v20.672a7.091 7.091 0 0 0 7.086 7.09h39.82a7.092 7.092 0 0 0 7.09-7.09V59.012a7.088 7.088 0 0 0-7.09-7.086Zm0 0"/><g clip-path="url(#q)"><g clip-path="url(#r)"><g clip-path="url(#s)"><path fill="url(#t)" d="m195.34 104.125-17.516-48.121 58.88-21.43 17.515 48.121Zm0 0"/></g></g></g><path fill="none" stroke="#000" stroke-miterlimit="10" stroke-width=".399" d="M235.93 51.926h-39.82a7.088 7.088 0 0 0-7.087 7.086v20.672a7.091 7.091 0 0 0 7.086 7.09h39.82a7.092 7.092 0 0 0 7.09-7.09V59.012a7.088 7.088 0 0 0-7.09-7.086Zm0 0"/><path d="M212.87 62.469h-.266c-.11 1.062-.25 2.375-2.11 2.375h-.859c-.484 0-.516-.078-.516-.422v-5.594c0-.36 0-.5 1-.5h.344V58c-.375.031-1.328.031-1.766.031-.406 0-1.218 0-1.593-.03v.327h.25c.812 0 .828.11.828.485v5.546c0 .375-.016.485-.828.485h-.25v.328h5.468Zm4.812 1.453c0-.11-.078-.125-.14-.125-.095 0-.11.062-.141.14-.36 1.094-1.313 1.094-1.407 1.094-.53 0-.953-.328-1.187-.703-.313-.515-.313-1.203-.313-1.578h2.922c.235 0 .266 0 .266-.219 0-1.047-.563-2.062-1.875-2.062-1.219 0-2.188 1.078-2.188 2.39 0 1.407 1.094 2.422 2.313 2.422 1.281 0 1.75-1.156 1.75-1.359zm-.688-1.39h-2.5c.063-1.563.953-1.829 1.313-1.829 1.078 0 1.187 1.406 1.187 1.828zm4.74-4.032c0-.39-.39-.734-.953-.734-.734 0-1.625.562-1.625 1.672v1.203h-.828v.328h.828v3.406c0 .469-.109.469-.812.469v.328l1.187-.031c.422 0 .922 0 1.344.031v-.328h-.219c-.78 0-.797-.11-.797-.485v-3.39h1.188v-.328h-1.219v-1.219c0-.922.5-1.422.953-1.422.032 0 .203 0 .36.078a.452.452 0 0 0-.328.438c0 .234.172.453.453.453.312 0 .469-.219.469-.469zm0 0"/><path d="M224.682 63.875v-.61h-.266v.579c0 .781-.312 1.187-.703 1.187-.703 0-.703-.968-.703-1.14v-2.922h1.5v-.328h-1.5v-1.922h-.266c0 .86-.312 1.984-1.343 2.015v.235h.89v2.906c0 1.281.969 1.406 1.36 1.406.734 0 1.03-.734 1.03-1.406zm-20.947 13.267c0-1.047-.687-1.906-1.562-2.125l-1.344-.328a1.36 1.36 0 0 1-1.062-1.328c0-.735.562-1.375 1.375-1.375 1.765 0 1.984 1.718 2.047 2.203.015.062.015.125.125.125.14 0 .14-.063.14-.266v-2.11c0-.171 0-.25-.11-.25-.077 0-.093.016-.155.141l-.375.594c-.313-.297-.75-.734-1.672-.734a2.024 2.024 0 0 0-2.047 2.047c0 .859.547 1.625 1.375 1.922.11.03.64.156 1.375.343.297.063.61.14.89.532.235.28.329.625.329.968 0 .75-.516 1.5-1.407 1.5-.297 0-1.093-.047-1.656-.562-.61-.578-.64-1.25-.656-1.625 0-.11-.094-.11-.125-.11-.125 0-.125.079-.125.266v2.11c0 .171 0 .25.11.25.077 0 .077-.032.155-.141 0 0 .032-.047.375-.594.329.36 1 .734 1.938.734 1.234 0 2.062-1.03 2.062-2.187zm6.229 1.953v-.328c-.75 0-.828-.078-.828-.578v-3.735l-1.547.11v.328c.734 0 .828.078.828.594v1.859c0 .922-.516 1.64-1.281 1.64-.875 0-.922-.5-.922-1.046v-3.485l-1.531.11v.328c.812 0 .812.031.812.969v1.578c0 .812 0 1.765 1.594 1.765.594 0 1.047-.28 1.36-.937v.937zm5.682-2.265c0-1.329-1.031-2.376-2.219-2.376-.828 0-1.281.5-1.438.688v-3.328l-1.515.11v.327c.734 0 .812.078.812.578v6.266h.266l.375-.656c.156.25.61.765 1.375.765a2.357 2.357 0 0 0 2.344-2.375zm-.875-.016c0 .39-.016 1.015-.313 1.5-.234.312-.625.672-1.187.672-.485 0-.86-.266-1.11-.641-.14-.219-.14-.266-.14-.453v-2.156c0-.203 0-.203.11-.375a1.491 1.491 0 0 1 1.233-.672c.485 0 .86.265 1.11.672.266.422.297 1.03.297 1.453Zm4.729.984v-.61h-.266v.579c0 .781-.313 1.187-.703 1.187-.704 0-.704-.968-.704-1.14v-2.922h1.5v-.328h-1.5v-1.922h-.265c0 .86-.313 1.984-1.344 2.016v.234h.89v2.906c0 1.281.97 1.406 1.36 1.406.734 0 1.031-.734 1.031-1.406zm4.428-2.703c0-.344-.328-.64-.782-.64-.765 0-1.14.703-1.296 1.156v-1.157l-1.454.11v.328c.735 0 .813.078.813.594v2.812c0 .469-.11.469-.813.469v.328l1.188-.031c.422 0 .922 0 1.344.031v-.328h-.22c-.78 0-.796-.11-.796-.484v-1.625c0-1.032.438-1.97 1.234-1.97h.11a.476.476 0 0 0-.235.423c0 .28.22.453.454.453.187 0 .453-.14.453-.469zm4.647 2.75c0-.11-.078-.125-.14-.125-.095 0-.11.063-.141.14-.36 1.094-1.313 1.094-1.407 1.094-.53 0-.953-.328-1.187-.703-.313-.515-.313-1.203-.313-1.578h2.922c.235 0 .266 0 .266-.219 0-1.046-.563-2.062-1.875-2.062-1.219 0-2.188 1.078-2.188 2.39 0 1.407 1.094 2.422 2.313 2.422 1.281 0 1.75-1.156 1.75-1.359zm-.688-1.39h-2.5c.063-1.563.953-1.829 1.313-1.829 1.078 0 1.187 1.407 1.187 1.828zm5.35 1.39c0-.11-.078-.125-.14-.125-.095 0-.11.063-.141.14-.36 1.094-1.313 1.094-1.407 1.094-.53 0-.953-.328-1.187-.703-.313-.515-.313-1.203-.313-1.578h2.922c.235 0 .266 0 .266-.219 0-1.046-.563-2.062-1.875-2.062-1.219 0-2.188 1.078-2.188 2.39 0 1.407 1.094 2.422 2.313 2.422 1.281 0 1.75-1.156 1.75-1.359zm-.688-1.39h-2.5c.063-1.563.953-1.829 1.313-1.829 1.078 0 1.187 1.407 1.187 1.828zm0 0"/><path fill="#E5E5F0" d="M334.773 51.926h-39.82a7.085 7.085 0 0 0-7.086 7.086v20.672a7.088 7.088 0 0 0 7.086 7.09h39.82a7.088 7.088 0 0 0 7.086-7.09V59.012a7.085 7.085 0 0 0-7.086-7.086Zm0 0"/><g clip-path="url(#u)"><g clip-path="url(#v)"><g clip-path="url(#w)"><path fill="url(#x)" d="m294.184 104.125-17.516-48.121 58.875-21.43 17.516 48.121Zm0 0"/></g></g></g><path fill="none" stroke="#000" stroke-miterlimit="10" stroke-width=".399" d="M334.773 51.926h-39.82a7.085 7.085 0 0 0-7.086 7.086v20.672a7.088 7.088 0 0 0 7.086 7.09h39.82a7.088 7.088 0 0 0 7.086-7.09V59.012a7.085 7.085 0 0 0-7.086-7.086Zm0 0"/><path d="M309.788 64.25c0-.062 0-.187-.141-.187-.11 0-.11.093-.125.171-.063.75-.422.938-.688.938-.515 0-.609-.531-.75-1.516l-.14-.843c-.188-.672-.703-1.016-1.281-1.204 1.03-.265 1.843-.906 1.843-1.718 0-1.016-1.203-1.89-2.734-1.89h-3.297v.327h.25c.797 0 .828.11.828.485v5.546c0 .375-.031.485-.828.485h-.25v.328c.375-.031 1.11-.031 1.531-.031.407 0 1.157 0 1.532.031v-.328h-.25c-.813 0-.829-.11-.829-.485v-2.656h1.204c.171 0 .609 0 .968.344.407.39.407.703.407 1.406 0 .688 0 1.11.421 1.516.438.375 1.016.437 1.329.437.812 0 1-.859 1-1.156zm-2.36-4.36c0 .72-.25 1.579-1.812 1.579h-1.157V58.75c0-.25 0-.375.22-.406.109-.016.421-.016.624-.016.938 0 2.125.047 2.125 1.563zm4.994 5.282v-.328c-.688 0-.735-.047-.735-.453v-3.86l-1.468.11v.328c.687 0 .78.062.78.578v2.828c0 .469-.124.469-.827.469v.328l1.156-.031c.375 0 .734.015 1.094.031zm-.578-6.344a.57.57 0 0 0-.563-.562.57.57 0 0 0-.562.562c0 .281.25.563.562.563a.56.56 0 0 0 .563-.563zm5.996 2.11c0-.188-.124-.516-.53-.516-.22 0-.672.062-1.125.484a1.74 1.74 0 0 0-1.11-.375c-.969 0-1.703.72-1.703 1.532 0 .468.234.859.5 1.078-.14.156-.328.515-.328.875 0 .328.14.718.469.937-.641.172-.97.625-.97 1.047 0 .75 1.032 1.328 2.313 1.328 1.25 0 2.344-.531 2.344-1.344 0-.375-.156-.906-.687-1.203-.563-.297-1.172-.297-1.813-.297h-.781c-.344-.046-.563-.375-.563-.703 0-.047 0-.297.188-.5a1.74 1.74 0 0 0 1.031.328c.985 0 1.703-.718 1.703-1.53 0-.391-.172-.782-.437-1.016.39-.36.765-.422.953-.422 0 0 .078 0 .11.015-.126.047-.173.157-.173.282a.3.3 0 0 0 .297.312c.11 0 .313-.078.313-.312zm-1.843 1.125c0 .28-.016.625-.172.89a.902.902 0 0 1-.75.406c-.906 0-.906-1.046-.906-1.28 0-.282 0-.626.156-.891.094-.125.328-.422.75-.422.922 0 .922 1.062.922 1.297zM317.153 66c0 .563-.75 1.094-1.781 1.094-1.062 0-1.781-.531-1.781-1.094a.92.92 0 0 1 .86-.906h.624c.89 0 2.078 0 2.078.906zm6.469-.828v-.328c-.547 0-.812 0-.828-.313v-2c0-.906 0-1.234-.328-1.609-.14-.188-.485-.39-1.094-.39-.89 0-1.344.624-1.516 1h-.015V57.89l-1.5.11v.327c.734 0 .812.078.812.578v5.47c0 .468-.11.468-.812.468v.328l1.172-.031 1.187.031v-.328c-.703 0-.828 0-.828-.469v-1.937c0-1.094.75-1.672 1.422-1.672.656 0 .781.562.781 1.156v2.453c0 .469-.125.469-.828.469v.328l1.188-.031zm3.403-1.297v-.61h-.265v.579c0 .781-.313 1.187-.703 1.187-.704 0-.704-.968-.704-1.14v-2.922h1.5v-.328h-1.5v-1.922h-.265c0 .86-.313 1.984-1.344 2.015v.235h.89v2.906c0 1.281.97 1.406 1.36 1.406.734 0 1.031-.734 1.031-1.406zm-24.448 13.267c0-1.047-.687-1.906-1.562-2.125l-1.344-.328a1.36 1.36 0 0 1-1.062-1.328c0-.735.562-1.375 1.375-1.375 1.765 0 1.984 1.718 2.046 2.203.016.062.016.125.125.125.141 0 .141-.063.141-.266v-2.11c0-.171 0-.25-.11-.25-.077 0-.093.016-.156.141l-.375.594c-.312-.297-.75-.734-1.671-.734a2.024 2.024 0 0 0-2.047 2.047c0 .859.547 1.625 1.375 1.922.11.03.64.156 1.375.343.297.063.61.14.89.532.235.28.328.625.328.968 0 .75-.515 1.5-1.406 1.5-.297 0-1.094-.047-1.656-.562-.61-.578-.64-1.25-.656-1.625 0-.11-.094-.11-.125-.11-.125 0-.125.079-.125.266v2.11c0 .171 0 .25.11.25.077 0 .077-.032.155-.141 0 0 .032-.047.375-.594.328.36 1 .734 1.938.734 1.234 0 2.062-1.03 2.062-2.187zm6.229 1.953v-.328c-.75 0-.828-.078-.828-.578v-3.735l-1.547.11v.328c.734 0 .828.078.828.594v1.859c0 .922-.516 1.64-1.281 1.64-.875 0-.922-.5-.922-1.046v-3.485l-1.531.11v.328c.812 0 .812.031.812.969v1.578c0 .812 0 1.765 1.594 1.765.594 0 1.047-.28 1.36-.937v.937zm5.682-2.265c0-1.329-1.031-2.376-2.219-2.376-.828 0-1.281.5-1.437.688v-3.328l-1.516.11v.327c.734 0 .812.078.812.578v6.266h.266l.375-.656c.156.25.61.765 1.375.765a2.357 2.357 0 0 0 2.344-2.375zm-.875-.016c0 .39-.016 1.015-.313 1.5-.234.312-.625.672-1.187.672-.485 0-.86-.266-1.11-.641-.14-.219-.14-.266-.14-.453v-2.156c0-.203 0-.203.11-.375a1.491 1.491 0 0 1 1.234-.672c.484 0 .859.265 1.109.672.266.422.297 1.03.297 1.453Zm4.728.984v-.61h-.265v.579c0 .781-.313 1.187-.703 1.187-.704 0-.704-.968-.704-1.14v-2.922h1.5v-.328h-1.5v-1.922h-.265c0 .86-.313 1.984-1.344 2.016v.234h.89v2.906c0 1.281.97 1.406 1.36 1.406.734 0 1.031-.734 1.031-1.406zm4.429-2.703c0-.344-.328-.64-.782-.64-.765 0-1.14.703-1.296 1.156v-1.157l-1.454.11v.328c.735 0 .813.078.813.594v2.812c0 .469-.11.469-.813.469v.328l1.188-.031c.422 0 .922 0 1.344.031v-.328h-.22c-.78 0-.796-.11-.796-.484v-1.625c0-1.032.438-1.97 1.234-1.97h.11a.476.476 0 0 0-.235.423c0 .28.22.453.454.453.187 0 .453-.14.453-.469zm4.647 2.75c0-.11-.078-.125-.14-.125-.094 0-.11.063-.141.14-.36 1.094-1.313 1.094-1.407 1.094-.53 0-.953-.328-1.187-.703-.313-.515-.313-1.203-.313-1.578h2.922c.235 0 .266 0 .266-.219 0-1.046-.563-2.062-1.875-2.062-1.219 0-2.188 1.078-2.188 2.39 0 1.407 1.094 2.422 2.313 2.422 1.281 0 1.75-1.156 1.75-1.359zm-.688-1.39h-2.5c.063-1.563.954-1.829 1.313-1.829 1.078 0 1.187 1.407 1.187 1.828zm5.35 1.39c0-.11-.078-.125-.14-.125-.094 0-.11.063-.141.14-.36 1.094-1.313 1.094-1.407 1.094-.53 0-.953-.328-1.187-.703-.313-.515-.313-1.203-.313-1.578h2.922c.235 0 .266 0 .266-.219 0-1.046-.563-2.062-1.875-2.062-1.219 0-2.188 1.078-2.188 2.39 0 1.407 1.094 2.422 2.313 2.422 1.281 0 1.75-1.156 1.75-1.359zm-.688-1.39h-2.5c.063-1.563.954-1.829 1.313-1.829 1.078 0 1.187 1.407 1.187 1.828zm0 0"/><path fill="none" stroke="#000" stroke-miterlimit="10" stroke-width=".399" d="M252.008 40.332 237.87 51.727"/><path d="M283.991 13.113h-.234c-.016.157-.078.532-.172.672-.047.063-.61.063-.735.063h-1.328l1-.922c.125-.11.438-.36.563-.469.469-.422.906-.828.906-1.516 0-.89-.75-1.468-1.687-1.468-.907 0-1.5.671-1.5 1.343 0 .375.296.422.406.422.156 0 .39-.11.39-.39 0-.391-.375-.391-.468-.391a1.162 1.162 0 0 1 1.093-.734c.688 0 1.047.593 1.047 1.218 0 .782-.547 1.344-1.422 2.25l-.953.985c-.093.078-.093.094-.093.281h2.968zm4.623 1.344v-.25c-.484 0-.578 0-.578-.328V12.19c0-.64-.281-1.046-1.062-1.046-.75 0-1.078.546-1.172.718h-.016v-.718l-1.078.093v.235c.5 0 .563.062.563.421v1.985c0 .328-.094.328-.563.328v.25c.313-.016.64-.016.844-.016.219 0 .531 0 .86.016v-.25c-.485 0-.563 0-.563-.328v-1.36c0-.796.593-1.156 1.047-1.156.468 0 .578.313.578.797v1.719c0 .328-.094.328-.578.328v.25c.328-.016.656-.016.859-.016.219 0 .531 0 .86.016zm4.363 0v-.25c-.516 0-.578-.047-.578-.422V9.254l-1.11.078v.25c.516 0 .563.047.563.422v1.578a1.323 1.323 0 0 0-1-.438c-.938 0-1.766.735-1.766 1.704 0 .921.75 1.687 1.688 1.687.453 0 .812-.219 1.062-.469v.47zm-1.14-.938c0 .141 0 .172-.11.329a1.14 1.14 0 0 1-.906.468.964.964 0 0 1-.829-.453c-.203-.297-.234-.656-.234-1.015 0-.438.063-.735.234-1a1.06 1.06 0 0 1 .891-.485c.375 0 .734.172.953.563zM188.551 94.943v-.25h-.265c-.719 0-.735-.094-.735-.36v-4.171c0-.203-.015-.203-.218-.203-.313.297-.703.484-1.422.484v.234c.203 0 .61 0 1.047-.203v3.86c0 .265-.032.359-.735.359h-.265v.25c.312-.016.953-.016 1.297-.016.328 0 .984 0 1.296.016zm3.499-.969c0-.36-.22-.89-1.11-1.047a9.339 9.339 0 0 0-.516-.093c-.234-.047-.578-.203-.578-.516 0-.219.157-.531.875-.531.844 0 .875.61.891.828 0 .062.063.078.11.078.124 0 .124-.047.124-.187v-.72c0-.109 0-.187-.093-.187-.047 0-.063 0-.188.125-.016 0-.078.063-.11.063 0 0-.015 0-.062-.031-.125-.079-.344-.157-.672-.157-1.047 0-1.28.563-1.28.922 0 .375.28.594.296.625.297.219.469.25.969.344.36.062.937.172.937.687 0 .282-.203.625-.89.625-.75 0-.97-.578-1.063-.984-.031-.094-.047-.125-.14-.125-.11 0-.11.063-.11.203v.922c0 .125 0 .203.094.203.047 0 .047-.015.187-.156.032-.031.125-.125.157-.172.343.313.687.328.89.328.953 0 1.281-.547 1.281-1.047zm2.908.032v-.422h-.22v.406c0 .516-.233.797-.53.797-.5 0-.5-.64-.5-.766V91.96h1.125v-.25h-1.125v-1.375h-.235c0 .672-.312 1.39-1 1.422v.203h.672v2.047c0 .875.672 1.015 1.016 1.015.5 0 .797-.453.797-1.015zm0 0"/><path fill="none" stroke="#000" stroke-miterlimit="10" stroke-width=".399" d="m278.879 40.332 14.137 11.395"/><path d="M339.11 93.88c0-.625-.484-1.188-1.25-1.36.594-.203 1.032-.718 1.032-1.312 0-.61-.672-1.031-1.453-1.031-.813 0-1.406.437-1.406 1 0 .28.187.406.375.406.234 0 .375-.172.375-.39 0-.282-.235-.376-.391-.391.312-.407.89-.438 1.016-.438.203 0 .765.063.765.844 0 .516-.219.828-.312.953-.235.234-.407.25-.86.281-.14 0-.203.016-.203.11 0 .109.063.109.188.109h.375c.593 0 .968.438.968 1.219 0 .937-.53 1.219-.921 1.219-.422 0-.985-.157-1.235-.547.266 0 .453-.172.453-.422s-.172-.422-.406-.422a.414.414 0 0 0-.422.437c0 .704.766 1.172 1.625 1.172 1 0 1.688-.687 1.688-1.437zm3.218-1.547c0-.266-.235-.484-.563-.484-.484 0-.812.375-.984.796v-.796l-1.063.093v.235c.5 0 .563.062.563.422v1.984c0 .328-.078.328-.563.328v.25c.297-.016.703-.016.875-.016.453 0 .469 0 .953.016v-.25h-.156c-.547 0-.562-.078-.562-.344v-1.11c0-.562.234-1.374.953-1.39-.047.032-.11.094-.11.266a.32.32 0 0 0 .328.328.32.32 0 0 0 .329-.328Zm4.386 2.828v-.25c-.516 0-.578-.047-.578-.422v-4.531l-1.11.078v.25c.516 0 .563.047.563.422v1.578a1.323 1.323 0 0 0-1-.437c-.938 0-1.766.734-1.766 1.703 0 .922.75 1.687 1.688 1.687.453 0 .812-.219 1.062-.469v.47zm-1.14-.937c0 .14 0 .171-.11.328a1.14 1.14 0 0 1-.906.468.964.964 0 0 1-.829-.453c-.203-.297-.234-.656-.234-1.015 0-.438.063-.735.234-1a1.06 1.06 0 0 1 .891-.485c.375 0 .734.172.953.563zm0 0"/><path fill="none" stroke="#4384A1" stroke-miterlimit="10" stroke-width=".797" d="M216.02 51.727c-.07-15.274 17.902-27.692 29.746-23.153"/><path fill="#4384A1" d="m248.184 29.504-3.125-3.422.707 2.492-2.192 1.38"/><path fill="none" stroke="#4384A1" stroke-miterlimit="10" stroke-width=".797" d="M282.7 29.504c14.265-5.469 32.234 6.95 32.175 19.633"/><path fill="#4384A1" d="m314.863 51.727 2.09-4.133-2.078 1.543-2.066-1.563"/><path d="M223.686 114.439v-.5h-1.203v-6.203h1.203v-.5c-.437.031-1.468.031-1.953.031-.469 0-1.5 0-1.937-.031v.5h1.203v6.203h-1.203v.5c.437-.031 1.469-.031 1.937-.031.485 0 1.516 0 1.953.031zm6.797 0v-.5h-.719v-2.719c0-1.094-.562-1.5-1.625-1.5-1 0-1.562.594-1.828 1.125v-1.125l-1.812.078v.5c.656 0 .734 0 .734.407v3.234h-.734v.5l1.328-.031 1.328.031v-.5h-.734v-2.188c0-1.14.906-1.656 1.562-1.656.36 0 .578.219.578 1.016v2.828h-.719v.5l1.329-.031zm5.944-2.281c0-1.422-.969-2.469-2.672-2.469-1.719 0-2.672 1.063-2.672 2.469 0 1.297.922 2.343 2.672 2.343 1.766 0 2.672-1.062 2.672-2.343Zm-1.344-.125c0 .922 0 2.047-1.328 2.047s-1.328-1.125-1.328-2.047c0-.469 0-1 .172-1.36.203-.39.64-.609 1.156-.609.438 0 .875.172 1.11.531.218.36.218.938.218 1.438zm6.335-1.453c0-.563-.563-.86-1.11-.86-.734 0-1.156.516-1.406 1.188v-1.188l-1.734.078v.5c.656 0 .718 0 .718.407v3.234h-.718v.5l1.328-.031c.39 0 1.062 0 1.437.031v-.5h-.906v-1.828c0-.735.266-2.016 1.312-2.016 0 0-.203.172-.203.485 0 .421.344.64.641.64.312 0 .64-.219.64-.64zm6.648 3.859v-.5c-.656 0-.718 0-.718-.406v-6.375l-1.86.078v.5c.641 0 .72 0 .72.406v2.047a2.295 2.295 0 0 0-1.423-.469c-1.531 0-2.625.922-2.625 2.39 0 1.391.953 2.391 2.516 2.391.64 0 1.14-.25 1.469-.515v.515Zm-1.921-1.078c-.141.187-.563.765-1.36.765-1.281 0-1.281-1.265-1.281-2.015 0-.5 0-1.063.266-1.469.312-.437.796-.547 1.125-.547.593 0 1.015.328 1.25.64zm7.506-.156c0-.188-.203-.188-.25-.188-.188 0-.203.063-.266.219-.218.515-.812.844-1.5.844-1.484 0-1.484-1.391-1.484-1.922h3.156c.235 0 .344 0 .344-.297 0-.313-.063-1.094-.594-1.61-.39-.375-.937-.562-1.672-.562-1.671 0-2.578 1.078-2.578 2.39 0 1.407 1.047 2.422 2.735 2.422 1.656 0 2.109-1.109 2.109-1.296zm-1-1.407h-2.5c.016-.406.031-.843.25-1.187a1.16 1.16 0 0 1 .984-.547c1.235 0 1.25 1.375 1.266 1.734zm5.987-1.218c0-.563-.563-.86-1.11-.86-.734 0-1.156.516-1.406 1.188v-1.188l-1.734.078v.5c.656 0 .718 0 .718.407v3.234h-.718v.5l1.328-.031c.39 0 1.062 0 1.437.031v-.5h-.906v-1.828c0-.735.266-2.016 1.312-2.016 0 0-.203.172-.203.485 0 .421.344.64.641.64.312 0 .64-.219.64-.64zm12.3-.704-.219-2.53h-7.078l-.219 2.53h.5c.094-1.187.204-2.03 1.704-2.03h.812v6.093h-1.61v.5c.579-.031 1.735-.031 2.36-.031.61 0 1.781 0 2.344.031v-.5h-1.594v-6.094h.797c1.5 0 1.594.844 1.703 2.031zm0 0"/><path d="M275.028 110.58c0-.563-.562-.86-1.11-.86-.734 0-1.155.516-1.405 1.188v-1.188l-1.735.078v.5c.656 0 .719 0 .719.407v3.234h-.719v.5l1.328-.031c.39 0 1.063 0 1.438.031v-.5h-.906v-1.828c0-.735.265-2.016 1.312-2.016 0 0-.203.172-.203.485 0 .421.344.64.64.64.313 0 .641-.219.641-.64zm6.149 3.609c0-.25-.14-.25-.281-.25-.64 0-.64-.14-.64-.375v-2.266c0-.937-.75-1.609-2.313-1.609-.594 0-1.875.031-1.875.953a.65.65 0 0 0 .656.672c.328 0 .656-.219.656-.672 0-.312-.203-.484-.234-.516.297-.062.64-.062.765-.062.782 0 1.157.438 1.157 1.234v.36c-.75.031-3.422.125-3.422 1.64 0 1.016 1.297 1.203 2.031 1.203.844 0 1.328-.437 1.563-.875 0 .329 0 .813 1.093.813h.5c.219 0 .344 0 .344-.25Zm-2.11-1.203c0 1-.968 1.14-1.234 1.14-.531 0-.953-.375-.953-.828 0-1.14 1.656-1.28 2.188-1.312zm7.925-2.719v-.484c-.266.015-.578.031-.828.031l-.953-.031v.484c.187 0 .5.031.5.125 0 0 0 .016-.063.125l-1.219 2.625-1.328-2.875h.563v-.484l-1.297.031-1.203-.031v.484h.672l1.843 3.953c.125.266.266.266.407.266.171 0 .28-.031.375-.25l1.75-3.75c.062-.14.109-.219.78-.219zm5.131 2.938c0-.188-.203-.188-.25-.188-.188 0-.203.063-.266.219-.218.515-.812.844-1.5.844-1.484 0-1.484-1.391-1.484-1.922h3.156c.235 0 .344 0 .344-.297 0-.313-.063-1.094-.594-1.61-.39-.375-.937-.562-1.672-.562-1.672 0-2.578 1.078-2.578 2.39 0 1.407 1.047 2.422 2.735 2.422 1.656 0 2.109-1.109 2.109-1.296zm-1-1.407h-2.5c.016-.406.031-.843.25-1.187a1.16 1.16 0 0 1 .984-.547c1.235 0 1.25 1.375 1.266 1.734zm5.987-1.218c0-.563-.563-.86-1.11-.86-.734 0-1.156.516-1.406 1.188v-1.188l-1.734.078v.5c.656 0 .718 0 .718.407v3.234h-.718v.5l1.328-.031c.39 0 1.062 0 1.437.031v-.5h-.906v-1.828c0-.735.266-2.016 1.312-2.016 0 0-.203.172-.203.485 0 .421.344.64.641.64.312 0 .64-.219.64-.64zm4.695 2.39c0-.453-.218-.812-.578-1.11-.406-.312-.75-.374-1.562-.515-.39-.062-1.078-.187-1.078-.672 0-.656.984-.656 1.187-.656.781 0 1.172.313 1.235.89 0 .157.015.204.234.204.25 0 .25-.047.25-.297v-.844c0-.187 0-.281-.188-.281-.03 0-.062 0-.468.188-.266-.126-.641-.188-1.063-.188-.312 0-1.922 0-1.922 1.375 0 .406.203.703.407.875.421.375.828.438 1.64.578.375.063 1.156.203 1.156.813 0 .796-.968.796-1.187.796-1.125 0-1.39-.765-1.516-1.218-.062-.157-.11-.157-.25-.157-.25 0-.25.079-.25.313v1.14c0 .204 0 .297.188.297.062 0 .094 0 .312-.156l.266-.172c.484.328 1.031.328 1.25.328.312 0 1.937 0 1.937-1.53zm6.221 1.219c0-.25-.141-.25-.282-.25-.64 0-.64-.14-.64-.375v-2.266c0-.937-.75-1.609-2.313-1.609-.594 0-1.875.031-1.875.953a.65.65 0 0 0 .656.672c.329 0 .657-.219.657-.672 0-.312-.203-.484-.235-.516.297-.062.64-.062.766-.062.781 0 1.156.438 1.156 1.234v.36c-.75.031-3.422.125-3.422 1.64 0 1.016 1.297 1.203 2.032 1.203.843 0 1.328-.437 1.562-.875 0 .329 0 .813 1.094.813h.5c.219 0 .344 0 .344-.25Zm-2.11-1.203c0 1-.969 1.14-1.234 1.14-.531 0-.953-.375-.953-.828 0-1.14 1.656-1.28 2.187-1.312zm5.244 1.453v-.5h-.718v-6.781l-1.86.078v.5c.641 0 .72 0 .72.406v5.797h-.72v.5l1.282-.031zm0 0"/><path fill="#F0E5E5" d="M455.914 29.504c0-9.422-7.637-17.059-17.059-17.059-9.418 0-17.058 7.637-17.058 17.059 0 9.418 7.64 17.055 17.058 17.055 9.422 0 17.06-7.637 17.06-17.055Zm0 0"/><g clip-path="url(#y)"><g clip-path="url(#z)"><g clip-path="url(#A)"><path fill="url(#B)" d="m425.79 57.523-14.958-41.09L451.926 1.48l14.953 41.09Zm0 0"/></g></g></g><path fill="none" stroke="#000" stroke-miterlimit="10" stroke-width=".399" d="M455.914 29.504c0-9.422-7.637-17.059-17.059-17.059-9.418 0-17.058 7.637-17.058 17.059 0 9.418 7.64 17.055 17.058 17.055 9.422 0 17.06-7.637 17.06-17.055Zm0 0"/><path d="M434.413 26.244v-.328l-1.22.031-1.233-.03v.327c1.078 0 1.078.485 1.078.782v4.484l-3.704-5.453c-.093-.125-.109-.14-.312-.14h-1.781v.327h.312c.156 0 .36.016.516.016.25.031.25.047.25.25v5.469c0 .297 0 .78-1.078.78v.329l1.234-.031 1.219.031v-.328c-1.078 0-1.078-.484-1.078-.781v-5.453c.062.046.062.062.11.125l4.28 6.296c.094.125.11.141.188.141.14 0 .14-.078.14-.266v-5.796c0-.297 0-.782 1.079-.782zm5.312 4.594c0-1.344-1.062-2.453-2.328-2.453-1.313 0-2.328 1.14-2.328 2.453 0 1.36 1.094 2.36 2.312 2.36a2.334 2.334 0 0 0 2.344-2.36zm-.875-.078c0 .375 0 .937-.234 1.406-.235.469-.688.781-1.219.781-.453 0-.906-.234-1.203-.703-.25-.468-.25-1.11-.25-1.484 0-.406 0-.984.25-1.438a1.386 1.386 0 0 1 1.187-.703c.47 0 .922.235 1.188.672.281.453.281 1.063.281 1.469zm6.987 2.328v-.328c-.735 0-.813-.078-.813-.578v-6.375l-1.515.11v.327c.734 0 .812.078.812.578v2.282a1.62 1.62 0 0 0-1.312-.657c-1.25 0-2.344 1.032-2.344 2.391 0 1.328 1.031 2.36 2.219 2.36.672 0 1.156-.344 1.406-.688v.687zm-1.547-1.234c0 .187 0 .203-.11.39-.312.5-.78.735-1.234.735-.484 0-.86-.282-1.11-.672-.265-.438-.296-1.031-.296-1.469 0-.39.016-1.016.312-1.484.235-.328.625-.672 1.188-.672.375 0 .812.156 1.14.625.11.187.11.203.11.39zm6.213-.016c0-.11-.078-.125-.14-.125-.095 0-.11.063-.141.14-.36 1.094-1.313 1.094-1.407 1.094-.53 0-.953-.328-1.187-.703-.313-.515-.313-1.203-.313-1.578h2.922c.235 0 .266 0 .266-.219 0-1.046-.563-2.062-1.875-2.062-1.219 0-2.188 1.078-2.188 2.39 0 1.407 1.094 2.422 2.313 2.422 1.281 0 1.75-1.156 1.75-1.359zm-.688-1.39h-2.5c.063-1.563.953-1.829 1.313-1.829 1.078 0 1.187 1.407 1.187 1.828zm0 0"/><path fill="#E5E5F0" d="M409.348 51.926h-39.82a7.088 7.088 0 0 0-7.09 7.086v20.672a7.092 7.092 0 0 0 7.09 7.09h39.82a7.091 7.091 0 0 0 7.086-7.09V59.012a7.088 7.088 0 0 0-7.086-7.086Zm0 0"/><g clip-path="url(#C)"><g clip-path="url(#D)"><g clip-path="url(#E)"><path fill="url(#F)" d="m368.754 104.125-17.516-48.121 58.88-21.43 17.515 48.121Zm0 0"/></g></g></g><path fill="none" stroke="#000" stroke-miterlimit="10" stroke-width=".399" d="M409.348 51.926h-39.82a7.088 7.088 0 0 0-7.09 7.086v20.672a7.092 7.092 0 0 0 7.09 7.09h39.82a7.091 7.091 0 0 0 7.086-7.09V59.012a7.088 7.088 0 0 0-7.086-7.086Zm0 0"/><path d="M386.284 62.469h-.265c-.11 1.062-.25 2.375-2.11 2.375h-.859c-.484 0-.516-.078-.516-.422v-5.594c0-.36 0-.5 1-.5h.344V58c-.375.031-1.328.031-1.766.031-.406 0-1.218 0-1.593-.03v.327h.25c.812 0 .828.11.828.485v5.546c0 .375-.016.485-.828.485h-.25v.328h5.468Zm4.813 1.453c0-.11-.078-.125-.14-.125-.095 0-.11.062-.141.14-.36 1.094-1.313 1.094-1.407 1.094-.53 0-.953-.328-1.187-.703-.313-.515-.313-1.203-.313-1.578h2.922c.235 0 .266 0 .266-.219 0-1.047-.563-2.062-1.875-2.062-1.219 0-2.188 1.078-2.188 2.39 0 1.407 1.094 2.422 2.313 2.422 1.281 0 1.75-1.156 1.75-1.359zm-.688-1.39h-2.5c.063-1.563.953-1.829 1.313-1.829 1.078 0 1.187 1.406 1.187 1.828zm4.741-4.032c0-.39-.391-.734-.954-.734-.734 0-1.625.562-1.625 1.672v1.203h-.828v.328h.828v3.406c0 .469-.109.469-.812.469v.328l1.187-.031c.422 0 .922 0 1.344.031v-.328h-.219c-.78 0-.796-.11-.796-.485v-3.39h1.187v-.328h-1.219v-1.219c0-.922.5-1.422.953-1.422.032 0 .204 0 .36.078a.452.452 0 0 0-.328.438c0 .234.172.453.453.453.312 0 .469-.219.469-.469zm0 0"/><path d="M398.097 63.875v-.61h-.266v.579c0 .781-.312 1.187-.703 1.187-.703 0-.703-.968-.703-1.14v-2.922h1.5v-.328h-1.5v-1.922h-.266c0 .86-.312 1.984-1.343 2.015v.235h.89v2.906c0 1.281.969 1.406 1.36 1.406.734 0 1.03-.734 1.03-1.406zM377.15 77.142c0-1.047-.687-1.906-1.562-2.125l-1.344-.328a1.36 1.36 0 0 1-1.062-1.328c0-.735.562-1.375 1.375-1.375 1.765 0 1.984 1.718 2.046 2.203.016.062.016.125.125.125.141 0 .141-.063.141-.266v-2.11c0-.171 0-.25-.11-.25-.077 0-.093.016-.156.141l-.375.594c-.312-.297-.75-.734-1.671-.734a2.024 2.024 0 0 0-2.047 2.047c0 .859.547 1.625 1.375 1.922.11.03.64.156 1.375.343.297.063.61.14.89.532.235.28.328.625.328.968 0 .75-.515 1.5-1.406 1.5-.297 0-1.094-.047-1.656-.562-.61-.578-.64-1.25-.656-1.625 0-.11-.094-.11-.125-.11-.125 0-.125.079-.125.266v2.11c0 .171 0 .25.11.25.077 0 .077-.032.155-.141 0 0 .032-.047.375-.594.328.36 1 .734 1.938.734 1.234 0 2.062-1.03 2.062-2.187zm6.229 1.953v-.328c-.75 0-.828-.078-.828-.578v-3.735l-1.547.11v.328c.734 0 .828.078.828.594v1.859c0 .922-.515 1.64-1.281 1.64-.875 0-.922-.5-.922-1.046v-3.485l-1.531.11v.328c.812 0 .812.031.812.969v1.578c0 .812 0 1.765 1.594 1.765.594 0 1.047-.28 1.36-.937v.937zm5.681-2.265c0-1.329-1.03-2.376-2.218-2.376-.828 0-1.281.5-1.437.688v-3.328l-1.516.11v.327c.734 0 .812.078.812.578v6.266h.266l.375-.656c.156.25.61.765 1.375.765a2.357 2.357 0 0 0 2.344-2.375zm-.874-.016c0 .39-.016 1.015-.313 1.5-.234.312-.625.672-1.187.672-.485 0-.86-.266-1.11-.641-.14-.219-.14-.266-.14-.453v-2.156c0-.203 0-.203.11-.375a1.491 1.491 0 0 1 1.234-.672c.484 0 .859.265 1.109.672.266.422.297 1.03.297 1.453Zm4.728.984v-.61h-.265v.579c0 .781-.313 1.187-.703 1.187-.704 0-.704-.968-.704-1.14v-2.922h1.5v-.328h-1.5v-1.922h-.265c0 .86-.313 1.984-1.344 2.016v.234h.89v2.906c0 1.281.97 1.406 1.36 1.406.734 0 1.031-.734 1.031-1.406zm4.429-2.703c0-.344-.329-.64-.782-.64-.765 0-1.14.703-1.296 1.156v-1.157l-1.454.11v.328c.735 0 .813.078.813.594v2.812c0 .469-.11.469-.813.469v.328l1.188-.031c.422 0 .922 0 1.344.031v-.328h-.22c-.78 0-.796-.11-.796-.484v-1.625c0-1.032.438-1.97 1.234-1.97h.11a.476.476 0 0 0-.235.423c0 .28.22.453.454.453.187 0 .453-.14.453-.469zm4.647 2.75c0-.11-.078-.125-.14-.125-.095 0-.11.063-.141.14-.36 1.094-1.313 1.094-1.407 1.094-.53 0-.953-.328-1.187-.703-.313-.515-.313-1.203-.313-1.578h2.922c.235 0 .266 0 .266-.219 0-1.046-.563-2.062-1.875-2.062-1.219 0-2.188 1.078-2.188 2.39 0 1.407 1.094 2.422 2.313 2.422 1.281 0 1.75-1.156 1.75-1.359zm-.688-1.39h-2.5c.063-1.563.953-1.829 1.313-1.829 1.078 0 1.187 1.407 1.187 1.828zm5.35 1.39c0-.11-.078-.125-.14-.125-.094 0-.11.063-.141.14-.36 1.094-1.313 1.094-1.407 1.094-.53 0-.953-.328-1.187-.703-.313-.515-.313-1.203-.313-1.578h2.922c.235 0 .266 0 .266-.219 0-1.046-.563-2.062-1.875-2.062-1.219 0-2.188 1.078-2.188 2.39 0 1.407 1.094 2.422 2.313 2.422 1.281 0 1.75-1.156 1.75-1.359zm-.688-1.39h-2.5c.063-1.563.954-1.829 1.313-1.829 1.078 0 1.187 1.407 1.187 1.828zm0 0"/><path fill="#E5E5F0" d="M508.188 51.926h-39.82a7.085 7.085 0 0 0-7.087 7.086v20.672a7.088 7.088 0 0 0 7.086 7.09h39.82a7.088 7.088 0 0 0 7.086-7.09V59.012a7.085 7.085 0 0 0-7.086-7.086Zm0 0"/><g clip-path="url(#G)"><g clip-path="url(#H)"><g clip-path="url(#I)"><path fill="url(#J)" d="m467.598 104.125-17.516-48.121 58.875-21.43 17.516 48.121Zm0 0"/></g></g></g><path fill="none" stroke="#000" stroke-miterlimit="10" stroke-width=".399" d="M508.188 51.926h-39.82a7.085 7.085 0 0 0-7.087 7.086v20.672a7.088 7.088 0 0 0 7.086 7.09h39.82a7.088 7.088 0 0 0 7.086-7.09V59.012a7.085 7.085 0 0 0-7.086-7.086Zm0 0"/><path d="M483.203 64.25c0-.062 0-.187-.141-.187-.11 0-.11.093-.125.171-.063.75-.422.938-.688.938-.515 0-.609-.531-.75-1.516l-.14-.843c-.188-.672-.703-1.016-1.281-1.204 1.03-.265 1.843-.906 1.843-1.718 0-1.016-1.203-1.89-2.734-1.89h-3.297v.327h.25c.797 0 .828.11.828.485v5.546c0 .375-.031.485-.828.485h-.25v.328c.375-.031 1.11-.031 1.531-.031.407 0 1.157 0 1.532.031v-.328h-.25c-.813 0-.829-.11-.829-.485v-2.656h1.204c.171 0 .609 0 .968.344.407.39.407.703.407 1.406 0 .688 0 1.11.421 1.516.438.375 1.016.437 1.329.437.812 0 1-.859 1-1.156zm-2.36-4.36c0 .72-.25 1.579-1.812 1.579h-1.157V58.75c0-.25 0-.375.22-.406.109-.016.421-.016.624-.016.938 0 2.125.047 2.125 1.563zm4.994 5.282v-.328c-.688 0-.735-.047-.735-.453v-3.86l-1.468.11v.328c.687 0 .78.062.78.578v2.828c0 .469-.124.469-.827.469v.328l1.156-.031c.375 0 .734.015 1.094.031zm-.578-6.344a.57.57 0 0 0-.563-.562.57.57 0 0 0-.562.562c0 .281.25.563.562.563a.56.56 0 0 0 .563-.563zm5.997 2.11c0-.188-.125-.516-.532-.516-.218 0-.671.062-1.125.484a1.74 1.74 0 0 0-1.109-.375c-.969 0-1.703.72-1.703 1.532 0 .468.234.859.5 1.078-.14.156-.328.515-.328.875 0 .328.14.718.469.937-.641.172-.97.625-.97 1.047 0 .75 1.032 1.328 2.313 1.328 1.25 0 2.344-.531 2.344-1.344 0-.375-.156-.906-.687-1.203-.563-.297-1.172-.297-1.813-.297h-.781c-.344-.046-.563-.375-.563-.703 0-.047 0-.297.188-.5a1.74 1.74 0 0 0 1.031.328c.984 0 1.703-.718 1.703-1.53 0-.391-.172-.782-.437-1.016.39-.36.765-.422.953-.422 0 0 .078 0 .11.015-.126.047-.173.157-.173.282a.3.3 0 0 0 .297.312c.11 0 .313-.078.313-.312zm-1.844 1.125c0 .28-.016.625-.172.89a.902.902 0 0 1-.75.406c-.906 0-.906-1.046-.906-1.28 0-.282 0-.626.156-.891.094-.125.328-.422.75-.422.922 0 .922 1.062.922 1.297zM490.568 66c0 .563-.75 1.094-1.781 1.094-1.063 0-1.781-.531-1.781-1.094a.92.92 0 0 1 .86-.906h.624c.89 0 2.078 0 2.078.906zm6.469-.828v-.328c-.547 0-.813 0-.828-.313v-2c0-.906 0-1.234-.328-1.609-.14-.188-.485-.39-1.094-.39-.89 0-1.344.624-1.516 1h-.015V57.89l-1.5.11v.327c.734 0 .812.078.812.578v5.47c0 .468-.11.468-.812.468v.328l1.172-.031 1.187.031v-.328c-.703 0-.828 0-.828-.469v-1.937c0-1.094.75-1.672 1.422-1.672.656 0 .781.562.781 1.156v2.453c0 .469-.125.469-.828.469v.328l1.187-.031zm3.403-1.297v-.61h-.265v.579c0 .781-.313 1.187-.703 1.187-.704 0-.704-.968-.704-1.14v-2.922h1.5v-.328h-1.5v-1.922h-.265c0 .86-.313 1.984-1.344 2.015v.235h.89v2.906c0 1.281.97 1.406 1.36 1.406.734 0 1.031-.734 1.031-1.406zm-24.448 13.267c0-1.047-.687-1.906-1.562-2.125l-1.344-.328a1.36 1.36 0 0 1-1.062-1.328c0-.735.562-1.375 1.375-1.375 1.765 0 1.984 1.718 2.046 2.203.016.062.016.125.125.125.141 0 .141-.063.141-.266v-2.11c0-.171 0-.25-.11-.25-.077 0-.093.016-.156.141l-.375.594c-.312-.297-.75-.734-1.671-.734a2.024 2.024 0 0 0-2.047 2.047c0 .859.547 1.625 1.375 1.922.11.03.64.156 1.375.343.297.063.61.14.89.532.235.28.328.625.328.968 0 .75-.515 1.5-1.406 1.5-.297 0-1.094-.047-1.656-.562-.61-.578-.64-1.25-.656-1.625 0-.11-.094-.11-.125-.11-.125 0-.125.079-.125.266v2.11c0 .171 0 .25.11.25.077 0 .077-.032.155-.141 0 0 .032-.047.375-.594.328.36 1 .734 1.938.734 1.234 0 2.062-1.03 2.062-2.187zm6.229 1.953v-.328c-.75 0-.828-.078-.828-.578v-3.735l-1.547.11v.328c.734 0 .828.078.828.594v1.859c0 .922-.515 1.64-1.281 1.64-.875 0-.922-.5-.922-1.046v-3.485l-1.531.11v.328c.812 0 .812.031.812.969v1.578c0 .812 0 1.765 1.594 1.765.594 0 1.047-.28 1.36-.937v.937zm5.682-2.265c0-1.329-1.032-2.376-2.219-2.376-.828 0-1.281.5-1.438.688v-3.328l-1.515.11v.327c.734 0 .812.078.812.578v6.266h.266l.375-.656c.156.25.61.765 1.375.765a2.357 2.357 0 0 0 2.344-2.375zm-.875-.016c0 .39-.016 1.015-.313 1.5-.234.312-.625.672-1.187.672-.485 0-.86-.266-1.11-.641-.14-.219-.14-.266-.14-.453v-2.156c0-.203 0-.203.11-.375a1.491 1.491 0 0 1 1.233-.672c.485 0 .86.265 1.11.672.265.422.297 1.03.297 1.453Zm4.728.984v-.61h-.265v.579c0 .781-.313 1.187-.703 1.187-.704 0-.704-.968-.704-1.14v-2.922h1.5v-.328h-1.5v-1.922h-.265c0 .86-.313 1.984-1.344 2.016v.234h.89v2.906c0 1.281.97 1.406 1.36 1.406.734 0 1.031-.734 1.031-1.406zm4.429-2.703c0-.344-.328-.64-.782-.64-.765 0-1.14.703-1.296 1.156v-1.157l-1.454.11v.328c.735 0 .813.078.813.594v2.812c0 .469-.11.469-.813.469v.328l1.188-.031c.422 0 .922 0 1.344.031v-.328h-.22c-.78 0-.796-.11-.796-.484v-1.625c0-1.032.438-1.97 1.234-1.97h.11a.476.476 0 0 0-.235.423c0 .28.22.453.454.453.187 0 .453-.14.453-.469zm4.647 2.75c0-.11-.078-.125-.14-.125-.094 0-.11.063-.141.14-.36 1.094-1.313 1.094-1.407 1.094-.53 0-.953-.328-1.187-.703-.313-.515-.313-1.203-.313-1.578h2.922c.235 0 .266 0 .266-.219 0-1.046-.563-2.062-1.875-2.062-1.219 0-2.188 1.078-2.188 2.39 0 1.407 1.094 2.422 2.313 2.422 1.281 0 1.75-1.156 1.75-1.359zm-.688-1.39h-2.5c.063-1.563.954-1.829 1.313-1.829 1.078 0 1.187 1.407 1.187 1.828zm5.35 1.39c0-.11-.078-.125-.14-.125-.095 0-.11.063-.141.14-.36 1.094-1.313 1.094-1.407 1.094-.53 0-.953-.328-1.187-.703-.313-.515-.313-1.203-.313-1.578h2.922c.235 0 .266 0 .266-.219 0-1.046-.563-2.062-1.875-2.062-1.219 0-2.188 1.078-2.188 2.39 0 1.407 1.094 2.422 2.313 2.422 1.281 0 1.75-1.156 1.75-1.359zm-.688-1.39h-2.5c.063-1.563.953-1.829 1.313-1.829 1.078 0 1.187 1.407 1.187 1.828zm0 0"/><path fill="none" stroke="#000" stroke-miterlimit="10" stroke-width=".399" d="m425.422 40.332-14.137 11.395"/><path d="M457.468 13.093c0-.625-.485-1.188-1.25-1.36.593-.203 1.03-.718 1.03-1.312 0-.61-.671-1.031-1.452-1.031-.813 0-1.406.437-1.406 1 0 .28.187.406.375.406.234 0 .375-.172.375-.39 0-.282-.235-.376-.391-.391.312-.407.89-.438 1.015-.438.204 0 .766.063.766.844 0 .516-.219.828-.312.953-.235.234-.407.25-.86.281-.14 0-.203.016-.203.11 0 .109.063.109.188.109h.375c.593 0 .968.438.968 1.219 0 .937-.53 1.219-.921 1.219-.422 0-.985-.157-1.235-.547.266 0 .453-.172.453-.422s-.172-.422-.406-.422a.414.414 0 0 0-.422.437c0 .704.766 1.172 1.625 1.172 1 0 1.688-.687 1.688-1.437zm3.217-1.547c0-.266-.235-.484-.563-.484-.484 0-.812.375-.984.796v-.796l-1.063.093v.235c.5 0 .563.062.563.421v1.985c0 .328-.078.328-.563.328v.25c.297-.016.703-.016.875-.016.453 0 .469 0 .953.016v-.25h-.156c-.547 0-.562-.078-.562-.344v-1.11c0-.562.234-1.374.953-1.39-.047.032-.11.094-.11.266a.32.32 0 0 0 .328.328.32.32 0 0 0 .329-.328Zm4.385 2.828v-.25c-.515 0-.577-.047-.577-.422V9.171l-1.11.078v.25c.516 0 .563.047.563.422v1.578a1.323 1.323 0 0 0-1-.438c-.938 0-1.766.735-1.766 1.704 0 .921.75 1.687 1.688 1.687.453 0 .812-.219 1.062-.469v.47zm-1.14-.938c0 .141 0 .172-.11.329a1.14 1.14 0 0 1-.906.468.964.964 0 0 1-.828-.453c-.203-.297-.234-.656-.234-1.015 0-.438.062-.735.234-1a1.06 1.06 0 0 1 .891-.485c.375 0 .734.172.953.563zM361.966 94.943v-.25h-.265c-.719 0-.735-.094-.735-.36v-4.171c0-.203-.015-.203-.218-.203-.313.297-.704.484-1.422.484v.234c.203 0 .61 0 1.047-.203v3.86c0 .265-.032.359-.735.359h-.265v.25c.312-.016.953-.016 1.296-.016.329 0 .985 0 1.297.016zm3.499-.969c0-.36-.22-.89-1.11-1.047a9.339 9.339 0 0 0-.515-.093c-.235-.047-.579-.203-.579-.516 0-.219.157-.531.875-.531.844 0 .875.61.891.828 0 .062.063.078.11.078.124 0 .124-.047.124-.187v-.72c0-.109 0-.187-.093-.187-.047 0-.063 0-.188.125-.015 0-.078.063-.11.063 0 0-.015 0-.062-.031-.125-.079-.343-.157-.672-.157-1.046 0-1.28.563-1.28.922 0 .375.28.594.296.625.297.219.469.25.969.344.36.062.937.172.937.687 0 .282-.203.625-.89.625-.75 0-.97-.578-1.063-.984-.031-.094-.047-.125-.14-.125-.11 0-.11.063-.11.203v.922c0 .125 0 .203.094.203.047 0 .047-.015.187-.156.032-.031.125-.125.157-.172.343.313.687.328.89.328.953 0 1.282-.547 1.282-1.047zm2.908.032v-.422h-.22v.406c0 .516-.234.797-.53.797-.5 0-.5-.64-.5-.766V91.96h1.125v-.25h-1.125v-1.375h-.235c0 .672-.312 1.39-1 1.422v.203h.672v2.047c0 .875.672 1.015 1.016 1.015.5 0 .797-.453.797-1.015zm0 0"/><path fill="none" stroke="#000" stroke-miterlimit="10" stroke-width=".399" d="m452.293 40.332 14.137 11.395"/><path d="M512.462 93.817h-.234c-.016.157-.078.532-.172.672-.047.063-.61.063-.735.063h-1.328l1-.922c.125-.11.438-.36.563-.469.469-.422.906-.828.906-1.516 0-.89-.75-1.468-1.687-1.468-.907 0-1.5.672-1.5 1.343 0 .375.297.422.406.422.156 0 .39-.11.39-.39 0-.391-.375-.391-.468-.391a1.162 1.162 0 0 1 1.094-.734c.687 0 1.046.593 1.046 1.218 0 .782-.546 1.344-1.421 2.25l-.954.985c-.093.078-.093.094-.093.281h2.968zm4.623 1.344v-.25c-.484 0-.578 0-.578-.328v-1.688c0-.64-.281-1.046-1.062-1.046-.75 0-1.078.546-1.172.718h-.016v-.718l-1.078.093v.235c.5 0 .563.062.563.422v1.984c0 .328-.094.328-.563.328v.25c.313-.016.64-.016.844-.016.219 0 .531 0 .86.016v-.25c-.485 0-.563 0-.563-.328v-1.36c0-.796.593-1.156 1.047-1.156.468 0 .578.313.578.797v1.719c0 .328-.094.328-.578.328v.25c.328-.016.656-.016.859-.016.219 0 .531 0 .86.016zm4.363 0v-.25c-.516 0-.578-.047-.578-.422v-4.531l-1.11.078v.25c.516 0 .563.047.563.422v1.578a1.323 1.323 0 0 0-1-.437c-.938 0-1.766.734-1.766 1.703 0 .922.75 1.687 1.688 1.687.453 0 .812-.219 1.062-.469v.47zm-1.14-.937c0 .14 0 .171-.11.328a1.14 1.14 0 0 1-.906.468.964.964 0 0 1-.829-.453c-.203-.297-.234-.656-.234-1.015 0-.438.063-.735.234-1a1.06 1.06 0 0 1 .891-.485c.375 0 .734.172.953.563zm0 0"/><path fill="none" stroke="#4384A1" stroke-miterlimit="10" stroke-width=".797" d="M488.277 51.727c.07-15.274-17.898-27.692-29.746-23.153"/><path fill="#4384A1" d="m456.113 29.504 4.614.45-2.196-1.38.711-2.492"/><path fill="none" stroke="#4384A1" stroke-miterlimit="10" stroke-width=".797" d="M416.633 69.348c9.785 14.308 34.66 14.308 42.988 2.14"/><path fill="#4384A1" d="m461.082 69.348-4.05 2.25 2.59-.11.831 2.453"/><path d="M394.38 109.283c0-1.157-1.047-2.047-2.797-2.047h-4.375v.5h1.14v6.203h-1.14v.5c.406-.031 1.438-.031 1.875-.031.453 0 1.485 0 1.89.031v-.5h-1.14v-2.672h1.86c1.468 0 2.687-.75 2.687-1.984zm-1.61 0c0 .75 0 1.562-1.593 1.562h-1.406v-3.11h1.422c1.578 0 1.578.798 1.578 1.548zm7.636 2.875c0-1.422-.968-2.469-2.671-2.469-1.72 0-2.672 1.063-2.672 2.469 0 1.297.922 2.343 2.672 2.343 1.765 0 2.671-1.062 2.671-2.343Zm-1.343-.125c0 .922 0 2.047-1.328 2.047-1.329 0-1.329-1.125-1.329-2.047 0-.469 0-1 .172-1.36.203-.39.641-.609 1.157-.609.437 0 .875.172 1.109.531.219.36.219.938.219 1.438zm6.053.937c0-.453-.219-.812-.578-1.11-.406-.312-.75-.374-1.563-.515-.39-.062-1.078-.187-1.078-.672 0-.656.985-.656 1.188-.656.78 0 1.172.313 1.234.89 0 .157.016.204.234.204.25 0 .25-.047.25-.297v-.844c0-.187 0-.281-.187-.281-.031 0-.063 0-.469.188-.265-.126-.64-.188-1.062-.188-.313 0-1.922 0-1.922 1.375 0 .406.203.703.406.875.422.375.828.438 1.64.578.376.063 1.157.203 1.157.813 0 .796-.969.796-1.188.796-1.125 0-1.39-.765-1.515-1.218-.063-.157-.11-.157-.25-.157-.25 0-.25.079-.25.313v1.14c0 .204 0 .297.187.297.063 0 .094 0 .313-.156l.265-.172c.485.328 1.032.328 1.25.328.313 0 1.938 0 1.938-1.53zm4.424.172v-.562h-.5v.53c0 .72-.329.97-.626.97-.61 0-.61-.672-.61-.907v-2.906h1.532v-.484h-1.531v-2.016h-.5c0 1.047-.516 2.094-1.563 2.125v.375h.86v2.875c0 1.125.922 1.36 1.656 1.36.797 0 1.281-.594 1.281-1.36zm6.365-.984c0-1.422-.97-2.469-2.672-2.469-1.72 0-2.672 1.063-2.672 2.469 0 1.297.922 2.343 2.672 2.343 1.765 0 2.672-1.062 2.672-2.343Zm-1.344-.125c0 .922 0 2.047-1.328 2.047s-1.328-1.125-1.328-2.047c0-.469 0-1 .171-1.36.204-.39.641-.609 1.157-.609.437 0 .875.172 1.109.531.219.36.219.938.219 1.438zm6.334-1.453c0-.563-.562-.86-1.11-.86-.734 0-1.156.516-1.406 1.188v-1.188l-1.734.078v.5c.656 0 .719 0 .719.407v3.234h-.719v.5l1.328-.031c.39 0 1.063 0 1.438.031v-.5h-.907v-1.828c0-.735.266-2.016 1.313-2.016 0 0-.203.172-.203.485 0 .421.344.64.64.64.313 0 .641-.219.641-.64zm6.649 3.859v-.5c-.656 0-.719 0-.719-.406v-6.375l-1.86.078v.5c.642 0 .72 0 .72.406v2.047a2.295 2.295 0 0 0-1.422-.469c-1.531 0-2.625.922-2.625 2.39 0 1.391.953 2.391 2.515 2.391.641 0 1.141-.25 1.47-.515v.515Zm-1.922-1.078c-.14.187-.562.765-1.36.765-1.28 0-1.28-1.265-1.28-2.015 0-.5 0-1.063.265-1.469.313-.437.797-.547 1.125-.547.594 0 1.016.328 1.25.64zm7.507-.156c0-.188-.204-.188-.25-.188-.188 0-.204.063-.266.219-.219.515-.813.844-1.5.844-1.484 0-1.484-1.391-1.484-1.922h3.156c.234 0 .344 0 .344-.297 0-.313-.063-1.094-.594-1.61-.39-.375-.938-.562-1.672-.562-1.672 0-2.578 1.078-2.578 2.39 0 1.407 1.047 2.422 2.734 2.422 1.656 0 2.11-1.109 2.11-1.296zm-1-1.407h-2.5c.015-.406.03-.843.25-1.187a1.16 1.16 0 0 1 .984-.547c1.234 0 1.25 1.375 1.266 1.734zm5.986-1.218c0-.563-.562-.86-1.11-.86-.734 0-1.156.516-1.406 1.188v-1.188l-1.734.078v.5c.656 0 .719 0 .719.407v3.234h-.719v.5l1.328-.031c.39 0 1.063 0 1.438.031v-.5h-.907v-1.828c0-.735.266-2.016 1.313-2.016 0 0-.203.172-.203.485 0 .421.344.64.64.64.313 0 .641-.219.641-.64zm12.301-.704-.22-2.53h-7.077l-.219 2.53h.5c.094-1.187.203-2.03 1.703-2.03h.813v6.093h-1.61v.5c.578-.031 1.735-.031 2.36-.031.609 0 1.78 0 2.343.031v-.5h-1.593v-6.094h.796c1.5 0 1.594.844 1.704 2.031zm0 0"/><path d="M454.506 110.58c0-.563-.563-.86-1.11-.86-.734 0-1.156.516-1.406 1.188v-1.188l-1.734.078v.5c.656 0 .718 0 .718.407v3.234h-.718v.5l1.328-.031c.39 0 1.062 0 1.437.031v-.5h-.906v-1.828c0-.735.266-2.016 1.312-2.016 0 0-.203.172-.203.485 0 .421.344.64.641.64.312 0 .64-.219.64-.64zm6.149 3.609c0-.25-.141-.25-.282-.25-.64 0-.64-.14-.64-.375v-2.266c0-.937-.75-1.609-2.313-1.609-.594 0-1.875.031-1.875.953a.65.65 0 0 0 .656.672c.329 0 .657-.219.657-.672 0-.312-.203-.484-.235-.516.297-.062.64-.062.766-.062.781 0 1.156.438 1.156 1.234v.36c-.75.031-3.422.125-3.422 1.64 0 1.016 1.297 1.203 2.032 1.203.843 0 1.328-.437 1.562-.875 0 .329 0 .813 1.094.813h.5c.219 0 .344 0 .344-.25Zm-2.11-1.203c0 1-.969 1.14-1.234 1.14-.531 0-.953-.375-.953-.828 0-1.14 1.656-1.28 2.187-1.312zm7.925-2.719v-.484c-.266.015-.579.031-.829.031l-.953-.031v.484c.187 0 .5.031.5.125 0 0 0 .016-.063.125l-1.218 2.625-1.328-2.875h.562v-.484l-1.297.031-1.203-.031v.484h.672l1.844 3.953c.125.266.265.266.406.266.172 0 .281-.031.375-.25l1.75-3.75c.062-.14.11-.219.781-.219zm5.13 2.938c0-.188-.203-.188-.25-.188-.187 0-.203.063-.265.219-.219.515-.813.844-1.5.844-1.485 0-1.485-1.391-1.485-1.922h3.157c.234 0 .343 0 .343-.297 0-.313-.062-1.094-.593-1.61-.39-.375-.938-.562-1.672-.562-1.672 0-2.578 1.078-2.578 2.39 0 1.407 1.047 2.422 2.734 2.422 1.656 0 2.11-1.109 2.11-1.296zm-1-1.407h-2.5c.016-.406.032-.843.25-1.187a1.16 1.16 0 0 1 .985-.547c1.234 0 1.25 1.375 1.265 1.734zm5.987-1.218c0-.563-.562-.86-1.11-.86-.734 0-1.155.516-1.405 1.188v-1.188l-1.735.078v.5c.656 0 .719 0 .719.407v3.234h-.719v.5l1.328-.031c.39 0 1.063 0 1.438.031v-.5h-.906v-1.828c0-.735.265-2.016 1.312-2.016 0 0-.203.172-.203.485 0 .421.344.64.64.64.313 0 .641-.219.641-.64zm4.696 2.39c0-.453-.219-.812-.578-1.11-.407-.312-.75-.374-1.563-.515-.39-.062-1.078-.187-1.078-.672 0-.656.984-.656 1.188-.656.78 0 1.171.313 1.234.89 0 .157.016.204.234.204.25 0 .25-.047.25-.297v-.844c0-.187 0-.281-.187-.281-.031 0-.063 0-.469.188-.266-.126-.64-.188-1.062-.188-.313 0-1.922 0-1.922 1.375 0 .406.203.703.406.875.422.375.828.438 1.64.578.376.063 1.157.203 1.157.813 0 .796-.969.796-1.188.796-1.125 0-1.39-.765-1.515-1.218-.063-.157-.11-.157-.25-.157-.25 0-.25.079-.25.313v1.14c0 .204 0 .297.187.297.063 0 .094 0 .313-.156l.265-.172c.485.328 1.032.328 1.25.328.313 0 1.938 0 1.938-1.53zm6.22 1.219c0-.25-.14-.25-.281-.25-.64 0-.64-.14-.64-.375v-2.266c0-.937-.75-1.609-2.313-1.609-.594 0-1.875.031-1.875.953a.65.65 0 0 0 .656.672c.328 0 .656-.219.656-.672 0-.312-.203-.484-.234-.516.297-.062.64-.062.765-.062.782 0 1.157.438 1.157 1.234v.36c-.75.031-3.422.125-3.422 1.64 0 1.016 1.297 1.203 2.031 1.203.844 0 1.328-.437 1.562-.875 0 .329 0 .813 1.094.813h.5c.219 0 .344 0 .344-.25Zm-2.11-1.203c0 1-.968 1.14-1.234 1.14-.531 0-.953-.375-.953-.828 0-1.14 1.656-1.28 2.188-1.312zm5.245 1.453v-.5h-.719v-6.781l-1.859.078v.5c.64 0 .719 0 .719.406v5.797h-.719v.5l1.281-.031zm0 0"/></svg>