<?xml version="1.0" standalone="no"?><!DOCTYPE svg PUBLIC "-//W3C//DTD SVG 1.1//EN" "http://www.w3.org/Graphics/SVG/1.1/DTD/svg11.dtd"><svg t="1672470815398" class="icon" viewBox="0 0 1024 1024" version="1.1" xmlns="http://www.w3.org/2000/svg" p-id="4162" xmlns:xlink="http://www.w3.org/1999/xlink" width="48" height="48"><path d="M435.6 360.7l517.2-101.9L775.2 558l-87.9-51.1-452.2 258.3L71.2 670l452.3-258.3-87.9-51" fill="#D4E4FC" p-id="4163"></path><path d="M235.1 772.5c-1.3 0-2.5-0.3-3.7-1L67.6 676.3c-2.3-1.3-3.7-3.7-3.6-6.4s1.4-5 3.7-6.3l441.2-252-77-44.6c-2.6-1.5-4-4.5-3.5-7.5s2.8-5.4 5.8-6l517.1-101.9c2.8-0.6 5.7 0.6 7.4 3 1.7 2.4 1.8 5.5 0.3 7.9L781.5 561.7c-2.1 3.5-6.5 4.6-10 2.6l-84.2-48.9-448.6 256.2c-1.1 0.6-2.3 0.9-3.6 0.9zM85.9 670.1l149.2 86.7 448.6-256.2c2.3-1.3 5.1-1.3 7.3 0l81.6 47.4 165.5-278.9-482 94.9 71.1 41.3c2.3 1.3 3.7 3.7 3.6 6.4 0 2.6-1.4 5-3.7 6.3L85.9 670.1z" fill="#0276F7" p-id="4164"></path></svg>