<?xml version="1.0" standalone="no"?><!DOCTYPE svg PUBLIC "-//W3C//DTD SVG 1.1//EN" "http://www.w3.org/Graphics/SVG/1.1/DTD/svg11.dtd"><svg t="1672470651038" class="icon" viewBox="0 0 1024 1024" version="1.1" xmlns="http://www.w3.org/2000/svg" p-id="2652" xmlns:xlink="http://www.w3.org/1999/xlink" width="48" height="48"><path d="M798.2 402.4l-1.1 411.5-457.5-265.6 1.2-411.4z" fill="#D4E4FC" p-id="2653"></path><path d="M797.1 820.9c-1.2 0-2.5-0.3-3.5-1L336.1 554.4c-2.2-1.3-3.5-3.6-3.5-6.1l1.2-411.4c0-2.5 1.4-4.9 3.5-6.1 2.2-1.3 4.9-1.2 7.1 0l457.5 265.6c2.2 1.3 3.5 3.6 3.5 6.1l-1.2 411.4c0 2.5-1.4 4.9-3.5 6.1-1.2 0.6-2.4 0.9-3.6 0.9zM346.7 544.2L790 801.6l1.1-395.1-443.3-257.4-1.1 395.1z" fill="#0276F7" p-id="2654"></path><path d="M798.2 402.4l113.5-65.9-1.1 411.4-113.5 66z" fill="#D4E4FC" p-id="2655"></path><path d="M797.1 820.9c-1.2 0-2.4-0.3-3.5-0.9-2.2-1.3-3.5-3.6-3.5-6.1l1.2-411.4c0-2.5 1.3-4.8 3.5-6.1l113.5-66c2.2-1.3 4.9-1.3 7.1 0 2.2 1.3 3.5 3.6 3.5 6.1l-1.2 411.4c0 2.5-1.3 4.8-3.5 6.1l-113.5 66c-1.2 0.6-2.4 0.9-3.6 0.9z m8.2-414.4l-1.1 395.1 99.4-57.7 1.1-395.1-99.4 57.7z" fill="#0276F7" p-id="2656"></path><path d="M340.8 136.9l113.5-66 457.4 265.6-113.5 65.9z" fill="#FFFFFF" p-id="2657"></path><path d="M798.2 409.5c-1.2 0-2.5-0.3-3.5-1L337.2 143c-2.2-1.3-3.5-3.6-3.5-6.1s1.3-4.8 3.5-6.1l113.5-66c2.2-1.3 4.9-1.3 7.1 0l457.5 265.6c2.2 1.3 3.5 3.6 3.5 6.1 0 2.5-1.3 4.8-3.5 6.1l-113.5 66c-1.1 0.6-2.3 0.9-3.6 0.9zM354.8 136.9l443.4 257.4 99.5-57.8L454.3 79.1l-99.5 57.8z" fill="#0276F7" p-id="2658"></path><path d="M798.2 693.9c-1.3 0-2.5-0.3-3.6-1L336.3 418.8l7.3-12.1 454.5 271.8 109.8-71.7 7.7 11.8-113.5 74.1c-1.2 0.8-2.5 1.2-3.9 1.2zM798.2 555.9c-1.3 0-2.5-0.3-3.6-1L336.3 280.8l7.3-12.1 454.6 271.9 109.4-67.5 7.4 12-113.1 69.8c-1.1 0.7-2.4 1-3.7 1z" fill="#0276F7" p-id="2659"></path><path d="M509.7 238.5h14.1v136.9h-14.1zM659.5 473.9h14.1v130h-14.1zM504.6 508.6h14.1v138.1h-14.1z" fill="#0276F7" p-id="2660"></path><path d="M570.9 541.7l-1.2 411.4-457.4-265.6 1.1-411.4z" fill="#D4E4FC" p-id="2661"></path><path d="M569.7 960.2c-1.2 0-2.5-0.3-3.5-1L108.7 693.6c-2.2-1.3-3.5-3.6-3.5-6.1l1.2-411.4c0-2.5 1.4-4.9 3.5-6.1 2.2-1.3 4.9-1.2 7.1 0l457.5 265.6c2.2 1.3 3.5 3.6 3.5 6.1l-1.2 411.4c0 2.5-1.4 4.9-3.5 6.1-1.2 0.7-2.4 1-3.6 1zM119.3 683.5l443.4 257.4 1.1-395.1-443.3-257.4-1.2 395.1z" fill="#0276F7" p-id="2662"></path><path d="M570.9 541.7l113.5-66-1.2 411.4-113.5 66z" fill="#D4E4FC" p-id="2663"></path><path d="M569.7 960.2c-1.2 0-2.4-0.3-3.5-0.9-2.2-1.3-3.5-3.6-3.5-6.1l1.2-411.4c0-2.5 1.3-4.8 3.5-6.1l113.5-66c2.2-1.3 4.9-1.3 7.1 0 2.2 1.3 3.5 3.6 3.5 6.1l-1.2 411.4c0 2.5-1.3 4.8-3.5 6.1l-113.5 66c-1.1 0.6-2.4 0.9-3.6 0.9z m8.2-414.4l-1.1 395.1 99.4-57.7 1.1-395.1-99.4 57.7z" fill="#0276F7" p-id="2664"></path><path d="M113.4 276.1l113.5-66 457.5 265.6-113.5 66z" fill="#FFFFFF" p-id="2665"></path><path d="M570.9 548.8c-1.2 0-2.5-0.3-3.5-1L109.9 282.2c-2.2-1.3-3.5-3.6-3.5-6.1 0-2.5 1.3-4.8 3.5-6.1l113.5-66c2.2-1.3 4.9-1.3 7.1 0L688 469.6c2.2 1.3 3.5 3.6 3.5 6.1 0 2.5-1.3 4.8-3.5 6.1l-113.5 66c-1.2 0.6-2.4 1-3.6 1zM127.5 276.1l443.4 257.4 99.5-57.8-443.5-257.4-99.4 57.8z" fill="#0276F7" p-id="2666"></path><path d="M570.9 833.1c-1.3 0-2.5-0.3-3.6-1L108.9 558l7.3-12.1 454.5 271.8L680.5 746l7.7 11.8L574.7 832c-1.1 0.7-2.5 1.1-3.8 1.1zM570.9 695.2c-1.3 0-2.5-0.3-3.6-1L108.9 420.1l7.3-12.1 454.6 271.9 109.4-67.5 7.4 12-113.1 69.8c-1 0.6-2.3 1-3.6 1z" fill="#0276F7" p-id="2667"></path><path d="M282.4 377.7h14.1v136.9h-14.1zM432.1 613.1h14.1v130h-14.1zM277.2 647.8h14.1v138.1h-14.1z" fill="#0276F7" p-id="2668"></path></svg>