<?xml version="1.0" standalone="no"?><!DOCTYPE svg PUBLIC "-//W3C//DTD SVG 1.1//EN" "http://www.w3.org/Graphics/SVG/1.1/DTD/svg11.dtd"><svg t="1672470731567" class="icon" viewBox="0 0 1024 1024" version="1.1" xmlns="http://www.w3.org/2000/svg" p-id="3674" xmlns:xlink="http://www.w3.org/1999/xlink" width="48" height="48"><path d="M951.5 415.7c0.1-8.8-5.7-17.6-17.3-24.3l-264.9-153c-22.9-13.2-59.9-13.2-82.7 0.1L97.1 523c-11.3 6.5-16.9 15.1-17 23.6v62c0 8.7 5.8 17.3 17.3 23.9l264.9 153c22.9 13.2 59.9 13.3 82.7 0.1l489.6-284.5c11.1-6.4 16.7-14.8 17-23.2 0.2-9-0.1-62.2-0.1-62.2z" fill="#D4E4FC" p-id="3675"></path><path d="M403.8 803.2c-16.3 0-32.6-3.7-45.3-11l-264.9-153c-13.6-7.8-21.1-18.6-21.1-30.5-0.1-8.6 0-62.1 0-62.1 0-0.3 0-0.7 0.1-1 0.5-11.4 7.8-21.7 20.8-29.3L583 231.8c25.3-14.7 65-14.7 90.4 0l264.9 153c13.4 7.7 20.8 18.4 21.1 30.2v0.7c0 2.2 0.3 53.5 0 62.4-0.4 11.5-7.8 22.1-20.8 29.6L448.8 792.2c-12.6 7.3-28.8 11-45 11zM87.7 547.5v61.1c0 6.1 4.9 12.4 13.4 17.3l264.9 153c20.4 11.8 54.8 11.8 75 0.1l489.6-284.5c8.3-4.8 13-10.8 13.2-16.8 0.3-8.1 0-54.6 0-61.1v-0.9c0.1-6.3-4.7-12.6-13.4-17.6l-264.9-153c-20.4-11.7-54.7-11.7-75 0L100.9 529.6c-8.4 4.9-13.1 11-13.1 17.1 0 0.3 0 0.5-0.1 0.8z" fill="#0276F7" p-id="3676"></path><path d="M918.6 391.9c21.8 12.6 21.9 33 0.3 45.5L438.4 717.9c-21.6 12.6-56.7 12.5-78.5-0.1L108.4 572.6c-21.8-12.6-21.9-32.9-0.3-45.4l480.4-280.4c21.6-12.6 56.7-12.6 78.5-0.1l251.6 145.2z" fill="#FFFFFF" p-id="3677"></path><path d="M403.8 741.5c-16.3 0-32.6-3.7-45.3-11L119.1 592.2c-3.7-2.1-4.9-6.8-2.8-10.5 2.1-3.7 6.8-5 10.5-2.8l239.4 138.2c20.4 11.8 54.8 11.8 75 0.1L879 462.7c3.7-2.1 8.4-0.9 10.5 2.8 2.1 3.7 0.9 8.4-2.8 10.5L448.8 730.5c-12.6 7.3-28.8 11-45 11z" fill="#0276F7" p-id="3678"></path><path d="M848.1 399.2L649.6 284.6c-16.5-9.5-43.2-9.5-59.6 0L248.7 482.9c-16.3 9.5-16.3 25 0.2 34.5L447.4 632c16.4 9.5 43.3 9.5 59.6 0l341.2-198.3c16.5-9.5 16.3-25-0.1-34.5" fill="#D4E4FC" p-id="3679"></path><path d="M477.3 646.9c-12.1 0-24.2-2.7-33.7-8.2L245.1 524.1c-10.5-6-16.2-14.5-16.3-23.9 0-9.2 5.8-17.9 16-23.9L586.1 278c18.8-10.9 48.4-11 67.3 0l198.5 114.6c10.3 6 16.2 14.7 16.3 24 0 9.4-5.7 17.8-16 23.9L510.9 638.7c-9.4 5.5-21.5 8.2-33.6 8.2z m142.4-361.7c-9.5 0-18.9 2-25.9 6.1L252.6 489.6c-5.3 3.1-8.4 7-8.4 10.6 0 3.7 3.1 7.6 8.6 10.7l198.5 114.6c14.1 8.2 37.9 8.2 52 0l341.2-198.3c5.3-3.1 8.4-7 8.4-10.6 0-3.7-3.1-7.6-8.6-10.7L645.8 291.3c-7.1-4.1-16.6-6.1-26.1-6.1z" fill="#0276F7" p-id="3680"></path><path d="M313.6 588.1c-15.5-8.9-40.6-8.9-56 0.1s-15.3 23.4 0.2 32.4c15.5 8.9 40.5 8.9 55.9 0 15.4-9 15.4-23.6-0.1-32.5" fill="#0276F7" p-id="3681"></path></svg>