<?xml version="1.0" standalone="no"?><!DOCTYPE svg PUBLIC "-//W3C//DTD SVG 1.1//EN" "http://www.w3.org/Graphics/SVG/1.1/DTD/svg11.dtd"><svg t="1672470641743" class="icon" viewBox="0 0 1024 1024" version="1.1" xmlns="http://www.w3.org/2000/svg" p-id="2483" xmlns:xlink="http://www.w3.org/1999/xlink" width="48" height="48"><path d="M872.1 776.5c-14 0-25.5-11.5-25.5-25.5l57.9-440c0-14 11.5-25.5 25.5-25.5s25.5 11.5 25.5 25.5l-57.9 440c0 14-11.5 25.5-25.5 25.5z" fill="#D4E4FC" p-id="2484"></path><path d="M872.1 784.3c-18.3 0-33.2-14.9-33.2-33.2l58-441.1c-0.1-17.3 14.8-32.2 33.2-32.2 18.3 0 33.2 14.9 33.2 33.2l-58 441.1c0 17.2-14.9 32.2-33.2 32.2z m58-491.1c-9.8 0-17.8 8-17.8 17.8l-58 441.1c0.1 8.8 8 16.8 17.8 16.8s17.8-8 17.8-17.8l58-441.1c-0.1-8.8-8-16.8-17.8-16.8z" fill="#0276F7" p-id="2485"></path><path d="M741.3 706.7c-14 0-25.5-11.5-25.5-25.5l57.9-440c0-14 11.5-25.5 25.5-25.5s25.5 11.5 25.5 25.5l-57.9 440c0 14-11.5 25.5-25.5 25.5z" fill="#D4E4FC" p-id="2486"></path><path d="M741.3 714.4c-18.3 0-33.2-14.9-33.2-33.2l58-441.1c-0.1-17.3 14.8-32.2 33.2-32.2 18.3 0 33.2 14.9 33.2 33.2l-58 441.1c0 17.3-14.9 32.2-33.2 32.2z m57.9-491.1c-9.8 0-17.8 8-17.8 17.8l-58 441.1c0.1 8.8 8 16.8 17.8 16.8s17.8-8 17.8-17.8l58-441.1c0-8.8-8-16.8-17.8-16.8z" fill="#0276F7" p-id="2487"></path><path d="M616.5 633.2c-14 0-25.5-11.5-25.5-25.5l57.9-440c0-14 11.5-25.5 25.5-25.5s25.5 11.5 25.5 25.5l-57.9 440c0 14-11.5 25.5-25.5 25.5z" fill="#D4E4FC" p-id="2488"></path><path d="M616.5 640.9c-18.3 0-33.2-14.9-33.2-33.2l58-441.1c-0.1-17.3 14.8-32.2 33.2-32.2 18.3 0 33.2 14.9 33.2 33.2l-58 441.1c0.1 17.3-14.9 32.2-33.2 32.2z m58-491c-9.8 0-17.8 8-17.8 17.8l-58 441.1c0.1 8.8 8 16.8 17.8 16.8s17.8-8 17.8-17.8l58-441.1c-0.1-8.8-8-16.8-17.8-16.8z" fill="#0276F7" p-id="2489"></path><path d="M477.1 565.3c-14 0-25.5-11.5-25.5-25.5l57.9-440c0-14 11.5-25.5 25.5-25.5s25.5 11.5 25.5 25.5l-57.9 440c0 14-11.5 25.5-25.5 25.5z" fill="#D4E4FC" p-id="2490"></path><path d="M477.1 573c-18.3 0-33.2-14.9-33.2-33.2l58-441.1c-0.1-17.3 14.8-32.2 33.2-32.2 18.3 0 33.2 14.9 33.2 33.2l-58 441.1c0 17.3-14.9 32.2-33.2 32.2zM535 82c-9.8 0-17.8 8-17.8 17.8l-58 441.1c0.1 8.8 8 16.8 17.8 16.8s17.8-8 17.8-17.8l58-441.1c0-8.9-8-16.8-17.8-16.8z" fill="#0276F7" p-id="2491"></path><path d="M816.1 241.9c-0.2 0.9-0.6 2.8-2.2 4.3-0.8 0.8-1.8 1.2-3 1.7-7.3 3.1-18.1 1.4-24.1-3.8-0.5-0.4-1.5-1.2-2.4-2.6-1.5-2.2-1.9-4.4-2-5.8 0.5-1.1 1-2.3 1.5-3.4 1-1.6 2.7-4.2 5.8-6 6.5-4 16.2-3.4 21.9 2.3 4.1 3.9 5.3 9.8 4.5 13.3zM947.2 312.3c-0.2 0.9-0.6 2.8-2.2 4.3-0.8 0.8-1.8 1.2-3 1.7-7.3 3.1-18.1 1.4-24.1-3.8-0.5-0.4-1.5-1.2-2.4-2.6-1.5-2.2-1.9-4.4-2-5.8 0.5-1.1 1-2.3 1.5-3.4 1-1.6 2.7-4.2 5.8-6 6.5-4 16.2-3.4 21.9 2.3 4.1 4 5.2 9.8 4.5 13.3zM691 168.5c-0.2 0.9-0.6 2.8-2.2 4.3-0.8 0.8-1.8 1.2-3 1.7-7.3 3.1-18.1 1.4-24.1-3.8-0.5-0.4-1.5-1.2-2.4-2.6-1.5-2.2-1.9-4.4-2-5.8 0.5-1.1 1-2.3 1.5-3.4 1-1.6 2.7-4.2 5.8-6 6.5-4 16.2-3.4 21.9 2.3 4.2 4 5.3 9.9 4.5 13.3zM552.6 101c-0.2 0.9-0.6 2.8-2.2 4.3-0.8 0.8-1.8 1.2-3 1.7-7.3 3.1-18.1 1.4-24.1-3.8-0.5-0.4-1.5-1.2-2.4-2.6-1.5-2.2-1.9-4.4-2-5.8 0.5-1.1 1-2.3 1.5-3.4 1-1.6 2.7-4.2 5.8-6 6.5-4 16.2-3.4 21.9 2.3 4.1 3.9 5.3 9.8 4.5 13.3z" fill="#FFFFFF" p-id="2492"></path><path d="M377.7 405.8l-275.3 160c-20.9 12.2-33.8 34.5-33.9 58.7-0.1 24.4 12.9 47 34 59.2l445.2 257c21.1 12.2 47.2 12.2 68.3-0.1l275.3-160c20.9-12.2 33.8-34.5 33.9-58.7 0.1-24.4-12.9-47-34-59.2L446 405.7c-21.2-12.2-47.3-12.2-68.3 0.1z" fill="#D4E4FC" p-id="2493"></path><path d="M581.7 957.5c-13.1 0-26.2-3.4-37.9-10.1l-445.2-257c-23.5-13.6-38-38.8-37.9-65.9 0.1-26.8 14.5-51.9 37.7-65.4l275.3-160c23.4-13.6 52.5-13.7 76-0.1L895 656c23.5 13.6 38 38.8 37.9 65.9-0.1 26.8-14.5 51.8-37.7 65.3l-275.3 160c-11.8 6.9-25 10.3-38.2 10.3zM381.5 412.4l-275.3 160c-18.5 10.7-30 30.7-30 52-0.1 21.6 11.5 41.7 30.2 52.5l445.2 257c18.7 10.8 41.8 10.7 60.5-0.1l275.3-160c18.5-10.7 30-30.7 30-52 0.1-21.6-11.5-41.7-30.2-52.5L442 412.3c-18.6-10.7-41.8-10.7-60.5 0.1z" fill="#0276F7" p-id="2494"></path><path d="M582.1 889.6c-1.3 0-2.6-0.3-3.9-1L108.3 617.3c-3.7-2.1-5-6.9-2.8-10.6 2.1-3.7 6.9-5 10.6-2.8L586 875.2c3.7 2.1 5 6.9 2.8 10.6-1.5 2.4-4.1 3.8-6.7 3.8z" fill="#0276F7" p-id="2495"></path><path d="M582.1 889.6c-2.7 0-5.3-1.4-6.7-3.8-2.2-3.7-0.9-8.4 2.8-10.6l300.9-174.9c3.7-2.2 8.4-0.9 10.6 2.8 2.2 3.7 0.9 8.4-2.8 10.6L586 888.6c-1.3 0.7-2.6 1-3.9 1z" fill="#0276F7" p-id="2496"></path><path d="M581.8 928.9c-4.3 0-7.8-3.5-7.7-7.8l0.2-39.3c0-4.3 3.5-7.7 7.7-7.7 4.3 0 7.7 3.5 7.7 7.8l-0.2 39.3c0.1 4.2-3.4 7.7-7.7 7.7zM376.8 471.7c-2.6 0-5.2-1.3-6.6-3.7-2.2-3.6-1.1-8.4 2.6-10.6l38.9-23.7c3.7-2.2 8.4-1.1 10.6 2.6 2.2 3.6 1.1 8.4-2.6 10.6l-38.9 23.7c-1.2 0.8-2.6 1.1-4 1.1zM417.2 494.3c-2.6 0-5.2-1.3-6.6-3.7-2.2-3.6-1.1-8.4 2.6-10.6l38.9-23.7c3.7-2.2 8.4-1.1 10.6 2.6 2.2 3.6 1.1 8.4-2.6 10.6l-38.9 23.7c-1.2 0.8-2.6 1.1-4 1.1zM457.6 517c-2.6 0-5.2-1.3-6.6-3.7-2.2-3.6-1.1-8.4 2.6-10.6l38.9-23.7c3.7-2.2 8.4-1.1 10.6 2.6 2.2 3.6 1.1 8.4-2.6 10.6l-38.9 23.7c-1.2 0.7-2.6 1.1-4 1.1zM498 539.6c-2.6 0-5.2-1.3-6.6-3.7-2.2-3.6-1.1-8.4 2.6-10.6l38.9-23.7c3.7-2.2 8.4-1.1 10.6 2.6 2.2 3.6 1.1 8.4-2.6 10.6L502 538.5c-1.2 0.7-2.6 1.1-4 1.1zM538.4 562.2c-2.6 0-5.2-1.3-6.6-3.7-2.2-3.6-1.1-8.4 2.6-10.6l38.9-23.7c3.7-2.2 8.4-1.1 10.6 2.6 2.2 3.6 1.1 8.4-2.6 10.6l-38.9 23.7c-1.2 0.8-2.6 1.1-4 1.1zM578.9 584.9c-2.6 0-5.2-1.3-6.6-3.7-2.2-3.6-1.1-8.4 2.6-10.6l38.9-23.7c3.7-2.2 8.4-1.1 10.6 2.6 2.2 3.6 1.1 8.4-2.6 10.6l-38.9 23.7c-1.3 0.7-2.7 1.1-4 1.1z" fill="#0276F7" p-id="2497"></path><path d="M619.3 607.5c-2.6 0-5.2-1.3-6.6-3.7-2.2-3.6-1.1-8.4 2.6-10.6l38.9-23.7c3.7-2.2 8.4-1.1 10.6 2.6 2.2 3.6 1.1 8.4-2.6 10.6l-38.9 23.7c-1.3 0.7-2.7 1.1-4 1.1z" fill="#0276F7" p-id="2498"></path><path d="M659.7 630.1c-2.6 0-5.2-1.3-6.6-3.7-2.2-3.6-1.1-8.4 2.6-10.6l38.9-23.7c3.7-2.2 8.4-1.1 10.6 2.6 2.2 3.6 1.1 8.4-2.6 10.6L663.7 629c-1.3 0.8-2.7 1.1-4 1.1z" fill="#0276F7" p-id="2499"></path><path d="M700.1 652.8c-2.6 0-5.2-1.3-6.6-3.7-2.2-3.6-1.1-8.4 2.6-10.6l38.9-23.7c3.7-2.2 8.4-1.1 10.6 2.6 2.2 3.6 1.1 8.4-2.6 10.6l-38.9 23.7c-1.3 0.7-2.6 1.1-4 1.1z" fill="#0276F7" p-id="2500"></path><path d="M740.5 675.4c-2.6 0-5.2-1.3-6.6-3.7-2.2-3.6-1.1-8.4 2.6-10.6l38.9-23.7c3.7-2.2 8.4-1.1 10.6 2.6 2.2 3.6 1.1 8.4-2.6 10.6l-38.9 23.7c-1.2 0.7-2.6 1.1-4 1.1z" fill="#0276F7" p-id="2501"></path><path d="M780.9 698c-2.6 0-5.2-1.3-6.6-3.7-2.2-3.6-1.1-8.4 2.6-10.6l38.9-23.7c3.7-2.2 8.4-1.1 10.6 2.6 2.2 3.6 1.1 8.4-2.6 10.6l-38.9 23.7c-1.2 0.8-2.6 1.1-4 1.1z" fill="#0276F7" p-id="2502"></path></svg>