<?xml version="1.0" standalone="no"?><!DOCTYPE svg PUBLIC "-//W3C//DTD SVG 1.1//EN" "http://www.w3.org/Graphics/SVG/1.1/DTD/svg11.dtd"><svg t="1672470746205" class="icon" viewBox="0 0 1024 1024" version="1.1" xmlns="http://www.w3.org/2000/svg" p-id="3841" xmlns:xlink="http://www.w3.org/1999/xlink" width="48" height="48"><path d="M512.1 909c-1.3 0-2.5-0.3-3.7-1L112.2 678c-2.3-1.3-3.6-3.7-3.6-6.3V516.3c0-2.6 1.4-5 3.6-6.3l396.2-233.4c1.1-0.7 2.4-1 3.7-1 1.3 0 2.6 0.3 3.7 1L911.9 510c2.2 1.3 3.6 3.7 3.6 6.3v155.4c0 2.6-1.4 5-3.6 6.3L515.7 908c-1.1 0.6-2.4 1-3.6 1z" fill="#B5D6FB" p-id="3842"></path><path d="M512.1 282.9l396.1 233.4v155.4l-64.6 37.5-331.5 192.4-331.6-192.4-64.6-37.5V516.3l396.2-233.4m0-14.6c-2.6 0-5.1 0.7-7.4 2L108.4 503.7c-4.5 2.6-7.2 7.4-7.2 12.6v155.4c0 5.2 2.8 10 7.3 12.6l64.6 37.5 331.6 192.5c2.3 1.3 4.8 2 7.3 2s5.1-0.7 7.3-2l331.5-192.5 64.6-37.5c4.5-2.6 7.3-7.4 7.3-12.6V516.3c0-5.2-2.7-10-7.2-12.6l-396-233.4c-2.3-1.4-4.9-2-7.4-2z" fill="#0276F7" p-id="3843"></path><path d="M115.8 516.3L512 747.9l396.2-231.6-396.1-233.4z" fill="#FFFFFF" p-id="3844"></path><path d="M512 755.2c-1.3 0-2.5-0.3-3.7-1L176.8 561.7c-3.5-2-4.7-6.5-2.7-10s6.5-4.7 10-2.7L512 739.4l327.8-190.3c3.5-2 8-0.8 10 2.7s0.8 8-2.7 10L515.7 754.2c-1.1 0.6-2.4 1-3.7 1zM256.2 668.4c-1.3 0-2.7-0.4-3.9-1.1l-17.6-11c-3.4-2.1-4.5-6.6-2.3-10.1 2.1-3.4 6.6-4.5 10.1-2.3l17.6 11c3.4 2.1 4.5 6.6 2.3 10.1-1.4 2.1-3.7 3.4-6.2 3.4zM299.3 692.8c-1.3 0-2.7-0.4-3.9-1.1l-17.6-11c-3.4-2.1-4.5-6.6-2.3-10.1 2.1-3.4 6.6-4.5 10.1-2.3l17.6 11c3.4 2.1 4.5 6.6 2.3 10.1-1.3 2.2-3.7 3.4-6.2 3.4zM342.4 717.2c-1.3 0-2.7-0.4-3.9-1.1l-17.6-11c-3.4-2.1-4.5-6.6-2.3-10.1 2.1-3.4 6.6-4.5 10.1-2.3l17.6 11c3.4 2.1 4.5 6.6 2.3 10.1-1.3 2.2-3.7 3.4-6.2 3.4zM385.6 741.6c-1.3 0-2.7-0.4-3.9-1.1l-17.6-11c-3.4-2.1-4.5-6.6-2.3-10.1 2.1-3.4 6.6-4.5 10.1-2.3l17.6 11c3.4 2.1 4.5 6.6 2.3 10.1-1.4 2.2-3.8 3.4-6.2 3.4zM428.7 766c-1.3 0-2.7-0.4-3.9-1.1l-17.6-11c-3.4-2.1-4.5-6.6-2.3-10.1 2.1-3.4 6.6-4.5 10.1-2.3l17.6 11c3.4 2.1 4.5 6.6 2.3 10.1-1.4 2.2-3.8 3.4-6.2 3.4zM471.8 790.4c-1.3 0-2.7-0.4-3.9-1.1l-17.6-11c-3.4-2.1-4.5-6.6-2.3-10.1 2.1-3.4 6.7-4.5 10.1-2.3l17.6 11c3.4 2.1 4.5 6.6 2.3 10.1-1.4 2.2-3.8 3.4-6.2 3.4zM256.2 719.1c-1.3 0-2.7-0.4-3.9-1.1l-17.6-11c-3.4-2.1-4.5-6.6-2.3-10.1 2.1-3.4 6.6-4.5 10.1-2.3l17.6 11c3.4 2.1 4.5 6.6 2.3 10.1-1.4 2.2-3.7 3.4-6.2 3.4zM299.3 743.6c-1.3 0-2.7-0.4-3.9-1.1l-17.6-11c-3.4-2.1-4.5-6.6-2.3-10.1 2.1-3.4 6.6-4.5 10.1-2.3l17.6 11c3.4 2.1 4.5 6.6 2.3 10.1-1.3 2.1-3.7 3.4-6.2 3.4zM342.4 768c-1.3 0-2.7-0.4-3.9-1.1l-17.6-11c-3.4-2.1-4.5-6.6-2.3-10.1 2.1-3.4 6.6-4.5 10.1-2.3l17.6 11c3.4 2.1 4.5 6.6 2.3 10.1-1.3 2.2-3.7 3.4-6.2 3.4z" fill="#0276F7" p-id="3845"></path><path d="M512.1 748.4c-1.3 0-2.5-0.3-3.7-1L112.2 517.5c-2.3-1.3-3.6-3.7-3.6-6.3V355.8c0-2.6 1.4-5 3.6-6.3l396.2-233.4c1.1-0.7 2.4-1 3.7-1 1.3 0 2.6 0.3 3.7 1l396.1 233.4c2.2 1.3 3.6 3.7 3.6 6.3v155.4c0 2.6-1.4 5-3.6 6.3l-396.2 230c-1.1 0.6-2.4 0.9-3.6 0.9z" fill="#B5D6FB" p-id="3846"></path><path d="M512.1 122.4l396.1 233.4v155.4l-64.6 37.5-331.5 192.4-331.6-192.4-64.6-37.5V355.8l396.2-233.4m0-14.7c-2.6 0-5.1 0.7-7.4 2L108.4 343.2c-4.5 2.6-7.2 7.4-7.2 12.6v155.4c0 5.2 2.8 10 7.3 12.6l64.6 37.5 331.6 192.5c2.3 1.3 4.8 2 7.3 2s5.1-0.7 7.3-2l331.5-192.5 64.6-37.5c4.5-2.6 7.3-7.4 7.3-12.6V355.8c0-5.2-2.7-10-7.2-12.6l-396-233.4c-2.3-1.4-4.9-2.1-7.4-2.1z" fill="#0276F7" p-id="3847"></path><path d="M115.8 355.8L512 587.3l396.2-231.5-396.1-233.4z" fill="#FFFFFF" p-id="3848"></path><path d="M512 594.6c-1.3 0-2.5-0.3-3.7-1L176.8 401.2c-3.5-2-4.7-6.5-2.7-10s6.5-4.7 10-2.7L512 578.9l327.8-190.3c3.5-2 8-0.8 10 2.7s0.8 8-2.7 10L515.7 593.7c-1.1 0.6-2.4 0.9-3.7 0.9z" fill="#0276F7" p-id="3849"></path><path d="M256.2 507.8c-1.3 0-2.7-0.4-3.9-1.1l-17.6-11c-3.4-2.1-4.5-6.6-2.3-10.1 2.1-3.4 6.6-4.5 10.1-2.3l17.6 11c3.4 2.1 4.5 6.6 2.3 10.1-1.4 2.2-3.7 3.4-6.2 3.4zM299.3 532.2c-1.3 0-2.7-0.4-3.9-1.1l-17.6-11c-3.4-2.1-4.5-6.6-2.3-10.1 2.1-3.4 6.6-4.5 10.1-2.3l17.6 11c3.4 2.1 4.5 6.6 2.3 10.1-1.3 2.2-3.7 3.4-6.2 3.4zM342.4 556.7c-1.3 0-2.7-0.4-3.9-1.1l-17.6-11c-3.4-2.1-4.5-6.6-2.3-10.1 2.1-3.4 6.6-4.5 10.1-2.3l17.6 11c3.4 2.1 4.5 6.6 2.3 10.1-1.3 2.2-3.7 3.4-6.2 3.4zM385.6 581.1c-1.3 0-2.7-0.4-3.9-1.1l-17.6-11c-3.4-2.1-4.5-6.6-2.3-10.1 2.1-3.4 6.6-4.5 10.1-2.3l17.6 11c3.4 2.1 4.5 6.6 2.3 10.1-1.4 2.2-3.8 3.4-6.2 3.4zM428.7 605.5c-1.3 0-2.7-0.4-3.9-1.1l-17.6-11c-3.4-2.1-4.5-6.6-2.3-10.1 2.1-3.4 6.6-4.5 10.1-2.3l17.6 11c3.4 2.1 4.5 6.6 2.3 10.1-1.4 2.2-3.8 3.4-6.2 3.4zM471.8 629.9c-1.3 0-2.7-0.4-3.9-1.1l-17.6-11c-3.4-2.1-4.5-6.6-2.3-10.1 2.1-3.4 6.7-4.5 10.1-2.3l17.6 11c3.4 2.1 4.5 6.6 2.3 10.1-1.4 2.2-3.8 3.4-6.2 3.4zM256.2 558.6c-1.3 0-2.7-0.4-3.9-1.1l-17.6-11c-3.4-2.1-4.5-6.6-2.3-10.1 2.1-3.4 6.6-4.5 10.1-2.3l17.6 11c3.4 2.1 4.5 6.6 2.3 10.1-1.4 2.2-3.7 3.4-6.2 3.4zM299.3 583c-1.3 0-2.7-0.4-3.9-1.1l-17.6-11c-3.4-2.1-4.5-6.6-2.3-10.1 2.1-3.4 6.6-4.5 10.1-2.3l17.6 11c3.4 2.1 4.5 6.6 2.3 10.1-1.3 2.2-3.7 3.4-6.2 3.4zM342.4 607.4c-1.3 0-2.7-0.4-3.9-1.1l-17.6-11c-3.4-2.1-4.5-6.6-2.3-10.1 2.1-3.4 6.6-4.5 10.1-2.3l17.6 11c3.4 2.1 4.5 6.6 2.3 10.1-1.3 2.2-3.7 3.4-6.2 3.4z" fill="#0276F7" p-id="3850"></path><path d="M749.8 347.9L666.2 311l0.1 19.1h-92.1l0.3 35.5h91.9l0.1 19.1 83.3-36.8m-298.3-17.8l-92-0.1-0.2-19-83.2 36.9 83.7 36.8-0.1-19.1h91.9l-0.1-35.5m92.4 57.1l-61.3 0.1 0.3 53.3H450l63.8 48.4 63.3-48.4-32.8 0.1-0.4-53.5m-31.7-180.4l-63.4 48.3 32.9 0.1 0.3 53.3h61.4l-0.3-53.3H576l-63.8-48.4" fill="#B5D6FB" p-id="3851"></path></svg>