<svg xmlns="http://www.w3.org/2000/svg" width="442.395" height="178.052" viewBox="0 0 331.796 133.539"><defs><clipPath id="a"><path d="M193 0h138.797v1H193Zm0 0"/></clipPath><clipPath id="b"><path d="M193 19h138.797v2H193Zm0 0"/></clipPath><clipPath id="c"><path d="M0 132h57v1.54H0Zm0 0"/></clipPath><clipPath id="d"><path d="M55 132h140v1.54H55Zm0 0"/></clipPath><clipPath id="e"><path d="M193 132h138.797v1.54H193Zm0 0"/></clipPath></defs><path d="M115.034 6.547c-.11-.125-.125-.14-.328-.14h-2.281v.468h1.078V12.5c0 .219-.016.219-.297.25-.234.031-.25.031-.531.031h-.25v.469c.375-.031.937-.031 1.328-.031.422 0 .937 0 1.36.031v-.469h-.25a5.6 5.6 0 0 1-.532-.031c-.297-.031-.297-.031-.297-.25V7.281l4.953 5.844c.11.11.11.125.281.125.266 0 .266-.094.266-.313V7.173c0-.219 0-.234.281-.266.25-.031.266-.031.547-.031h.25v-.469c-.39.032-.953.032-1.344.032-.421 0-.937 0-1.343-.032v.469h.25c.172 0 .343.016.53.031.282.032.298.047.298.266v4.031zm8.841 3.687h1.766c1.39 0 2.547-.718 2.547-1.875 0-1.093-.985-1.953-2.64-1.953h-4.157v.469h1.078v5.906h-1.078v.469c.375-.031 1.36-.031 1.781-.031.438 0 1.406 0 1.781.031v-.469h-1.078Zm1.282-.406h-1.329V6.875h1.344c1.485 0 1.485.766 1.485 1.484 0 .704 0 1.47-1.5 1.47zm6.675-3.281c-.11-.125-.125-.14-.328-.14h-2.281v.468h1.078V12.5c0 .219-.016.219-.297.25-.235.031-.25.031-.531.031h-.25v.469c.375-.031.937-.031 1.328-.031.422 0 .937 0 1.36.031v-.469h-.25a5.6 5.6 0 0 1-.532-.031c-.297-.031-.297-.031-.297-.25V7.281l4.953 5.844c.11.11.11.125.281.125.266 0 .266-.094.266-.313V7.173c0-.219 0-.234.281-.266.25-.031.266-.031.547-.031h.25v-.469c-.39.032-.953.032-1.344.032-.422 0-.937 0-1.343-.032v.469h.25c.171 0 .343.016.53.031.282.032.298.047.298.266v4.031zM253.4 10.234h1.766c1.39 0 2.547-.718 2.547-1.875 0-1.093-.985-1.953-2.641-1.953h-4.156v.469h1.078v5.906h-1.078v.469c.375-.031 1.36-.031 1.781-.031.437 0 1.406 0 1.781.031v-.469H253.4Zm1.281-.406h-1.328V6.875h1.344c1.484 0 1.484.766 1.484 1.484 0 .704 0 1.47-1.5 1.47zm6.676-3.281c-.11-.125-.125-.14-.328-.14h-2.282v.468h1.078V12.5c0 .219-.015.219-.296.25-.235.031-.25.031-.532.031h-.25v.469c.375-.031.938-.031 1.328-.031.422 0 .938 0 1.36.031v-.469h-.25a5.56 5.56 0 0 1-.531-.031c-.297-.031-.297-.031-.297-.25V7.281l4.953 5.844c.11.11.11.125.281.125.266 0 .266-.094.266-.313V7.173c0-.219 0-.234.28-.266.25-.031.267-.031.548-.031h.25v-.469c-.39.032-.953.032-1.344.032-.422 0-.937 0-1.344-.032v.469h.25c.172 0 .344.016.532.031.28.032.296.047.296.266v4.031zm8.841 3.687h1.766c1.39 0 2.547-.718 2.547-1.875 0-1.093-.985-1.953-2.641-1.953h-4.156v.469h1.078v5.906h-1.078v.469c.375-.031 1.359-.031 1.78-.031.438 0 1.407 0 1.782.031v-.469h-1.078Zm1.281-.406h-1.328V6.875h1.344c1.484 0 1.484.766 1.484 1.484 0 .704 0 1.47-1.5 1.47zM10.956 42.723l-1.28-.297c-.626-.156-1-.687-1-1.266 0-.703.53-1.312 1.312-1.312 1.656 0 1.875 1.64 1.937 2.078.016.063.016.125.125.125.125 0 .125-.047.125-.234v-2c0-.172 0-.25-.11-.25-.062 0-.077.015-.14.14l-.36.563c-.296-.297-.702-.703-1.593-.703-1.11 0-1.937.875-1.937 1.937 0 .828.53 1.563 1.296 1.828.11.032.625.157 1.329.328.265.063.562.141.843.5.203.266.313.594.313.922 0 .703-.5 1.422-1.344 1.422-.281 0-1.047-.047-1.578-.531-.578-.547-.61-1.172-.61-1.531-.015-.11-.093-.11-.124-.11-.125 0-.125.078-.125.25v2c0 .172 0 .235.109.235.062 0 .078-.016.14-.125 0-.016.032-.047.36-.578.312.343.953.703 1.844.703 1.156 0 1.953-.969 1.953-2.078 0-.985-.656-1.813-1.485-2.016zm3.77-.109h1.437V42.3h-1.437v-1.828h-.25c0 .813-.297 1.875-1.281 1.922v.219h.843v2.75c0 1.218.938 1.343 1.297 1.343.703 0 .985-.703.985-1.343V44.8h-.25v.547c0 .734-.297 1.11-.672 1.11-.672 0-.672-.907-.672-1.079zm3.828.671v-1.093l-1.391.11v.312c.703 0 .781.062.781.562v2.672c0 .438-.11.438-.781.438v.312c.39-.016.86-.031 1.14-.031.391 0 .86 0 1.266.031v-.313h-.219c-.734 0-.75-.109-.75-.468v-1.532c0-.984.422-1.874 1.172-1.874.063 0 .094 0 .11.015-.032 0-.235.125-.235.39 0 .266.22.423.438.423a.421.421 0 0 0 .422-.438c0-.312-.313-.61-.735-.61-.734 0-1.093.673-1.218 1.094zm6.121 2.532v.89l1.437-.109v-.313c-.687 0-.765-.062-.765-.562v-3.531l-1.47.11v.312c.688 0 .782.062.782.562v1.766c0 .875-.484 1.547-1.219 1.547-.828 0-.875-.47-.875-.985v-3.312l-1.468.11v.312c.78 0 .78.03.78.906v1.5c0 .781 0 1.687 1.516 1.687.563 0 1-.28 1.282-.89zm2.816-1.391c0-1.625.813-2.047 1.344-2.047.094 0 .719.016 1.062.375-.406.032-.468.328-.468.453 0 .266.187.453.453.453.265 0 .468-.156.468-.468 0-.672-.765-1.063-1.53-1.063-1.25 0-2.157 1.078-2.157 2.313 0 1.281.984 2.265 2.14 2.265 1.329 0 1.657-1.203 1.657-1.297 0-.093-.11-.093-.14-.093-.079 0-.11.031-.126.093-.281.922-.937 1.047-1.297 1.047-.53 0-1.406-.422-1.406-2.03zm4.974-1.812h1.438V42.3h-1.438v-1.828h-.25c0 .813-.296 1.875-1.28 1.922v.219h.843v2.75c0 1.218.937 1.343 1.297 1.343.703 0 .984-.703.984-1.343V44.8h-.25v.547c0 .734-.297 1.11-.672 1.11-.672 0-.672-.907-.672-1.079zm6.047 3.203v.89l1.437-.109v-.313c-.687 0-.765-.062-.765-.562v-3.531l-1.47.11v.312c.688 0 .782.062.782.562v1.766c0 .875-.484 1.547-1.219 1.547-.828 0-.875-.47-.875-.985v-3.312l-1.468.11v.312c.78 0 .78.03.78.906v1.5c0 .781 0 1.687 1.516 1.687.563 0 1-.28 1.282-.89zm3.316-2.532v-1.093l-1.39.11v.312c.703 0 .78.062.78.562v2.672c0 .438-.109.438-.78.438v.312c.39-.016.859-.031 1.14-.031.39 0 .86 0 1.266.031v-.313h-.219c-.734 0-.75-.109-.75-.468v-1.532c0-.984.422-1.874 1.172-1.874.062 0 .094 0 .11.015-.032 0-.235.125-.235.39 0 .266.219.423.437.423a.421.421 0 0 0 .422-.438c0-.312-.312-.61-.734-.61-.734 0-1.094.673-1.219 1.094zm3.34.797c.063-1.484.906-1.734 1.25-1.734 1.016 0 1.125 1.344 1.125 1.734zm0 .22h2.781c.219 0 .25 0 .25-.22 0-.984-.547-1.953-1.781-1.953-1.156 0-2.078 1.032-2.078 2.282 0 1.328 1.047 2.296 2.187 2.296 1.22 0 1.672-1.109 1.672-1.297 0-.093-.078-.124-.14-.124-.078 0-.11.062-.125.14-.344 1.031-1.25 1.031-1.344 1.031-.5 0-.89-.297-1.125-.672-.297-.468-.297-1.124-.297-1.484zm0 0"/><path fill="none" stroke="#000" stroke-miterlimit="10" stroke-width=".399" d="M82.309 48.77V24.406c0-1.097.89-1.992 1.992-1.992h81.054c1.102 0 1.993.895 1.993 1.992V48.77a1.99 1.99 0 0 1-1.993 1.992H84.301a1.99 1.99 0 0 1-1.992-1.992Zm28.347 1.992V22.414m14.172 28.348V22.414M70.129 36.59a1.994 1.994 0 0 0-3.988 0c0 1.097.894 1.992 1.992 1.992a1.996 1.996 0 0 0 1.996-1.992Zm113.387 0a1.994 1.994 0 0 0-3.988 0c0 1.098.894 1.992 1.995 1.992a1.996 1.996 0 0 0 1.993-1.992Zm0 0"/><path d="M70.77 43.477h-.25c-.203 1.203-.374 1.812-1.812 1.812h-1.187c-.36 0-.375-.047-.375-.328v-2.093h.765c.797 0 .906.234.906.937h.25V41.68h-.25c0 .688-.109.922-.906.922h-.765v-1.875c0-.266.015-.328.375-.328h1.14c1.313 0 1.485.484 1.625 1.547h.25l-.234-1.813h-4.703v.266h.187c.61 0 .625.093.625.39v4.125c0 .297-.015.375-.625.375H65.6v.266h4.812zm0 0"/><path fill="none" stroke="#000" stroke-miterlimit="10" stroke-width=".399" d="M70.129 36.59h12.18"/><path d="M184.103 40.149c0-.125 0-.203-.11-.203-.062 0-.062 0-.14.109l-.407.594a2.117 2.117 0 0 0-1.578-.703c-1.593 0-2.937 1.28-2.937 2.89s1.328 2.89 2.953 2.89c1.328 0 2.219-1.062 2.219-2.03 0-.078 0-.157-.141-.157-.078 0-.11.047-.11.125-.062 1.22-1.062 1.797-1.906 1.797-.671 0-2.187-.422-2.187-2.625 0-2.156 1.437-2.625 2.187-2.625.75 0 1.672.532 1.891 1.907 0 .062.016.109.125.109.14 0 .14-.047.14-.203zm0 0"/><path fill="none" stroke="#000" stroke-miterlimit="10" stroke-width=".399" d="M179.527 36.59h-12.18m-49.605 26.351v-12.18m1.992 14.173a1.993 1.993 0 1 0-1.992 1.996 1.994 1.994 0 0 0 1.992-1.996Zm0 0"/><path d="M121.636 62.221v.266h.188c.609 0 .624.078.624.375v4.156c0 .297-.015.375-.624.375h-.188v.266h3.266c1.093 0 1.875-.703 1.875-1.453 0-.656-.61-1.281-1.61-1.39.86-.188 1.375-.704 1.375-1.25 0-.72-.797-1.345-1.875-1.345zm1.484 2.5V62.8c0-.266.016-.313.391-.313h1.11c.78 0 1.14.61 1.14 1.078 0 .547-.469 1.156-1.39 1.156Zm.391 2.672c-.375 0-.39-.047-.39-.328V64.94h1.624c.766 0 1.22.625 1.22 1.25 0 .64-.532 1.203-1.345 1.203zM95.058 33.321c-.094-.125-.094-.14-.282-.14h-1.703v.312h.297c.14 0 .344.016.484.016.235.03.25.047.25.234v5.203c0 .266 0 .735-1.03.735v.312c.343-.016.843-.031 1.171-.031.328 0 .813.015 1.156.031v-.313c-1.015 0-1.015-.468-1.015-.734V33.76c.047.047.047.062.093.125l4.063 5.984c.094.11.11.125.172.125.14 0 .14-.063.14-.266v-5.5c0-.265 0-.734 1.032-.734v-.313c-.36.016-.844.032-1.172.032-.328 0-.813-.016-1.156-.032v.313c1.015 0 1.015.469 1.015.734v4.266Zm21.559 3.516h1.687c1.188 0 2.266-.797 2.266-1.797 0-.984-.985-1.86-2.344-1.86h-3.531v.313h.25c.765 0 .781.11.781.469v5.25c0 .36-.016.468-.781.468h-.25v.313c.36-.031 1.094-.031 1.469-.031.374 0 1.124 0 1.484.031v-.313h-.25c-.766 0-.781-.109-.781-.468zm-.032-.25v-2.688c0-.343.016-.406.485-.406h.89c1.579 0 1.579 1.063 1.579 1.547 0 .469 0 1.547-1.579 1.547zm28.078-3.266c-.093-.125-.093-.14-.28-.14h-1.704v.312h.297c.14 0 .344.016.484.016.235.03.25.047.25.234v5.203c0 .266 0 .735-1.03.735v.312c.343-.016.843-.031 1.171-.031.328 0 .813.015 1.156.031v-.313c-1.015 0-1.015-.468-1.015-.734V33.76c.047.047.047.062.093.125l4.063 5.984c.094.11.11.125.172.125.14 0 .14-.063.14-.266v-5.5c0-.265 0-.734 1.032-.734v-.313c-.36.016-.844.032-1.172.032-.328 0-.813-.016-1.156-.032v.313c1.015 0 1.015.469 1.015.734v4.266Zm0 0"/><path fill="none" stroke="#000" stroke-miterlimit="10" stroke-width=".399" d="M220.227 48.77V24.406c0-1.097.89-1.992 1.992-1.992h81.054c1.102 0 1.993.895 1.993 1.992V48.77a1.99 1.99 0 0 1-1.993 1.992H222.22a1.99 1.99 0 0 1-1.992-1.992Zm28.347 1.992V22.414m14.172 28.348V22.414M208.047 36.59a1.993 1.993 0 1 0-3.986.001 1.993 1.993 0 0 0 3.986-.001Zm113.387 0a1.99 1.99 0 0 0-1.993-1.992 1.993 1.993 0 1 0 1.992 1.992Zm0 0"/><path d="M208.69 43.477h-.25c-.202 1.203-.374 1.812-1.812 1.812h-1.187c-.36 0-.375-.047-.375-.328v-2.093h.765c.797 0 .907.234.907.937h.25V41.68h-.25c0 .688-.11.922-.907.922h-.765v-1.875c0-.266.015-.328.375-.328h1.14c1.313 0 1.485.484 1.625 1.547h.25l-.234-1.813h-4.703v.266h.187c.61 0 .625.093.625.39v4.125c0 .297-.015.375-.625.375h-.187v.266h4.812zm0 0"/><path fill="none" stroke="#000" stroke-miterlimit="10" stroke-width=".399" d="M208.047 36.59h12.18"/><path d="M322.023 40.149c0-.125 0-.203-.11-.203-.062 0-.062 0-.14.109l-.407.594a2.117 2.117 0 0 0-1.578-.703c-1.594 0-2.937 1.28-2.937 2.89s1.328 2.89 2.953 2.89c1.328 0 2.219-1.062 2.219-2.03 0-.078 0-.157-.141-.157-.078 0-.11.047-.11.125-.062 1.22-1.062 1.797-1.906 1.797-.672 0-2.187-.422-2.187-2.625 0-2.156 1.437-2.625 2.187-2.625.75 0 1.672.532 1.891 1.907 0 .062.016.109.125.109.14 0 .14-.047.14-.203zm0 0"/><path fill="none" stroke="#000" stroke-miterlimit="10" stroke-width=".399" d="M317.45 36.59h-12.184M255.66 62.941v-12.18m1.992 14.173a1.993 1.993 0 1 0-1.992 1.996 1.994 1.994 0 0 0 1.992-1.996Zm0 0"/><path d="M259.555 62.221v.266h.187c.61 0 .625.078.625.375v4.156c0 .297-.015.375-.625.375h-.187v.266h3.266c1.093 0 1.875-.703 1.875-1.453 0-.656-.61-1.281-1.61-1.39.86-.188 1.375-.704 1.375-1.25 0-.72-.797-1.345-1.875-1.345zm1.484 2.5V62.8c0-.266.016-.313.391-.313h1.11c.78 0 1.14.61 1.14 1.078 0 .547-.469 1.156-1.39 1.156Zm.391 2.672c-.375 0-.39-.047-.39-.328V64.94h1.624c.766 0 1.22.625 1.22 1.25 0 .64-.532 1.203-1.345 1.203zm-28.154-30.556h1.687c1.188 0 2.266-.797 2.266-1.797 0-.984-.985-1.86-2.344-1.86h-3.531v.313h.25c.765 0 .781.11.781.469v5.25c0 .36-.016.468-.781.468h-.25v.313c.36-.031 1.093-.031 1.468-.031s1.125 0 1.485.031v-.313h-.25c-.766 0-.781-.109-.781-.468zm-.032-.25v-2.688c0-.343.016-.406.485-.406h.89c1.578 0 1.578 1.063 1.578 1.547 0 .469 0 1.547-1.578 1.547zm20.993-3.266c-.094-.125-.094-.14-.282-.14h-1.703v.312h.297c.14 0 .344.016.484.016.235.03.25.047.25.234v5.203c0 .266 0 .735-1.03.735v.312c.343-.016.843-.031 1.171-.031.328 0 .813.015 1.156.031v-.313c-1.015 0-1.015-.468-1.015-.734V33.76c.047.047.047.062.093.125l4.063 5.984c.094.11.11.125.172.125.14 0 .14-.063.14-.266v-5.5c0-.265 0-.734 1.032-.734v-.313c-.36.016-.844.032-1.172.032-.328 0-.813-.016-1.156-.032v.313c1.015 0 1.015.469 1.015.734v4.266Zm28.646 3.516h1.687c1.188 0 2.266-.797 2.266-1.797 0-.984-.985-1.86-2.344-1.86h-3.531v.313h.25c.765 0 .781.11.781.469v5.25c0 .36-.016.468-.781.468h-.25v.313c.36-.031 1.094-.031 1.469-.031s1.125 0 1.484.031v-.313h-.25c-.766 0-.781-.109-.781-.468zm-.032-.25v-2.688c0-.343.016-.406.485-.406h.89c1.579 0 1.579 1.063 1.579 1.547 0 .469 0 1.547-1.579 1.547zM9.462 92.905l-1.28-.297c-.626-.156-1-.687-1-1.266 0-.703.53-1.312 1.312-1.312 1.656 0 1.875 1.64 1.937 2.078.016.063.016.125.125.125.125 0 .125-.047.125-.234v-2c0-.172 0-.25-.11-.25-.062 0-.077.015-.14.14l-.36.563c-.296-.297-.702-.703-1.593-.703-1.11 0-1.937.875-1.937 1.937 0 .828.53 1.563 1.296 1.828.11.032.625.157 1.329.328.265.063.562.141.843.5.203.266.313.594.313.922 0 .703-.5 1.422-1.344 1.422-.281 0-1.047-.047-1.578-.531-.578-.547-.61-1.172-.61-1.531-.015-.11-.093-.11-.124-.11-.125 0-.125.078-.125.25v2c0 .172 0 .235.109.235.062 0 .078-.016.14-.125 0-.016.032-.047.36-.578.312.343.953.703 1.844.703 1.156 0 1.953-.969 1.953-2.078 0-.985-.656-1.813-1.485-2.016zm3.223 1.703c0-1.625.813-2.047 1.344-2.047.094 0 .719.016 1.062.375-.406.031-.468.328-.468.453 0 .266.187.453.453.453.265 0 .468-.156.468-.468 0-.672-.765-1.063-1.53-1.063-1.25 0-2.157 1.078-2.157 2.313 0 1.281.984 2.265 2.14 2.265 1.329 0 1.657-1.203 1.657-1.297 0-.093-.11-.093-.14-.093-.079 0-.11.031-.126.093-.281.922-.937 1.047-1.297 1.047-.53 0-1.406-.422-1.406-2.03zm4.07 1.422c0 .437-.109.437-.78.437v.313c.359-.016.859-.031 1.14-.031.25 0 .765.015 1.11.031v-.313c-.673 0-.782 0-.782-.437v-1.844c0-1.031.719-1.594 1.344-1.594.64 0 .75.532.75 1.11v2.328c0 .437-.11.437-.782.437v.313c.344-.016.86-.031 1.125-.031.25 0 .782.015 1.11.031v-.313c-.516 0-.766 0-.766-.296v-1.907c0-.859 0-1.156-.312-1.515-.141-.172-.47-.375-1.047-.375-.844 0-1.281.593-1.453.984v-3.5l-1.438.11v.312c.703 0 .781.062.781.562zm5.551-1.766c.063-1.484.906-1.734 1.25-1.734 1.016 0 1.125 1.344 1.125 1.734zm0 .22h2.781c.22 0 .25 0 .25-.22 0-.984-.546-1.953-1.78-1.953-1.157 0-2.079 1.031-2.079 2.281 0 1.329 1.047 2.297 2.188 2.297 1.218 0 1.671-1.109 1.671-1.297 0-.093-.078-.125-.14-.125-.078 0-.11.063-.125.141-.344 1.031-1.25 1.031-1.344 1.031-.5 0-.89-.297-1.125-.672-.297-.468-.297-1.125-.297-1.484zm4.412-1.126v2.672c0 .437-.11.437-.781.437v.313c.36-.016.86-.031 1.14-.031.25 0 .766.015 1.11.031v-.313c-.672 0-.782 0-.782-.437v-1.844c0-1.031.72-1.594 1.344-1.594.64 0 .75.532.75 1.11v2.328c0 .437-.11.437-.781.437v.313c.344-.016.86-.031 1.125-.031.25 0 .781.015 1.11.031v-.313c-.657 0-.766 0-.766-.437v-1.844c0-1.031.703-1.594 1.343-1.594.625 0 .735.532.735 1.11v2.328c0 .437-.11.437-.781.437v.313c.343-.016.859-.031 1.125-.031.265 0 .78.015 1.125.031v-.313c-.516 0-.766 0-.782-.296v-1.907c0-.859 0-1.156-.312-1.515-.14-.172-.469-.375-1.047-.375-.828 0-1.281.593-1.438.984-.14-.875-.875-.984-1.328-.984-.734 0-1.203.422-1.484 1.047v-1.047l-1.406.11v.312c.703 0 .781.062.781.562zm10.521 2.672c.046.39.312.812.78.812.22 0 .829-.14.829-.953v-.562h-.25v.562c0 .578-.25.641-.36.641-.328 0-.374-.453-.374-.5v-1.984c0-.422 0-.813-.36-1.188a1.9 1.9 0 0 0-1.36-.547c-.827 0-1.515.469-1.515 1.125 0 .297.203.469.469.469a.435.435 0 0 0 .453-.453c0-.125-.047-.453-.516-.453.282-.36.766-.469 1.079-.469.5 0 1.062.39 1.062 1.281v.36c-.516.03-1.203.062-1.828.359-.75.344-1 .86-1 1.297 0 .812.969 1.062 1.594 1.062.656 0 1.11-.406 1.297-.859zm-.063-1.64v1c0 .937-.719 1.28-1.172 1.28-.484 0-.89-.343-.89-.843 0-.547.421-1.375 2.062-1.438zm3.45-1.594h1.438v-.313h-1.438v-1.828h-.25c0 .812-.297 1.875-1.281 1.922v.219h.844v2.75c0 1.218.937 1.343 1.297 1.343.703 0 .984-.703.984-1.343v-.563h-.25v.547c0 .734-.297 1.11-.672 1.11-.672 0-.672-.907-.672-1.079zm3.921-.422-1.39.11v.312c.64 0 .734.062.734.546v2.688c0 .437-.11.437-.781.437v.313c.312-.016.86-.031 1.094-.031.36 0 .703.015 1.047.031v-.313c-.672 0-.704-.046-.704-.437zm.032-1.735a.514.514 0 0 0-.516-.53.537.537 0 0 0-.531.53c0 .266.219.532.531.532a.514.514 0 0 0 .516-.532zm2.142 3.969c0-1.625.813-2.047 1.344-2.047.094 0 .719.016 1.063.375-.407.031-.47.328-.47.453 0 .266.188.453.454.453s.469-.156.469-.468c0-.672-.766-1.063-1.532-1.063-1.25 0-2.156 1.078-2.156 2.313 0 1.281.985 2.265 2.14 2.265 1.329 0 1.657-1.203 1.657-1.297 0-.093-.11-.093-.14-.093-.079 0-.11.031-.126.093-.28.922-.937 1.047-1.296 1.047-.532 0-1.407-.422-1.407-2.03zM15.273 104.86l-1.28-.297c-.626-.156-1-.687-1-1.266 0-.703.53-1.312 1.312-1.312 1.656 0 1.875 1.64 1.937 2.078.016.063.016.125.125.125.125 0 .125-.047.125-.234v-2c0-.172 0-.25-.11-.25-.062 0-.077.015-.14.14l-.36.563c-.296-.297-.702-.703-1.593-.703-1.11 0-1.938.875-1.938 1.937 0 .828.532 1.563 1.297 1.828.11.032.625.157 1.329.329.265.062.562.14.843.5.203.265.313.593.313.921 0 .704-.5 1.422-1.344 1.422-.281 0-1.047-.047-1.578-.531-.578-.547-.61-1.172-.61-1.531-.015-.11-.093-.11-.125-.11-.125 0-.125.079-.125.25v2c0 .172 0 .235.11.235.062 0 .078-.016.14-.125 0-.016.032-.047.36-.578.312.343.953.703 1.844.703 1.156 0 1.953-.969 1.953-2.078 0-.985-.656-1.813-1.485-2.016zm6.192.531c.25-.64.765-.64.922-.64v-.313c-.235.016-.516.031-.75.031-.172 0-.64-.015-.86-.03v.312c.313 0 .47.171.47.421 0 .11-.017.126-.063.25l-1.016 2.438-1.094-2.672c-.047-.11-.062-.14-.062-.187 0-.25.36-.25.562-.25v-.313c-.265.016-.922.031-1.094.031-.265 0-.671-.015-.968-.03v.312c.484 0 .672 0 .812.343l1.5 3.641a6.764 6.764 0 0 0-.25.594c-.219.547-.5 1.234-1.14 1.234-.047 0-.282 0-.47-.187.313-.032.391-.25.391-.422 0-.25-.187-.406-.421-.406-.204 0-.422.124-.422.421 0 .454.422.813.922.813.625 0 1.03-.578 1.265-1.14zm2.211-.078v2.672c0 .438-.11.438-.781.438v.312c.36-.016.86-.031 1.14-.031.25 0 .766.015 1.11.031v-.313c-.672 0-.781 0-.781-.437v-1.844c0-1.031.718-1.594 1.343-1.594.641 0 .75.532.75 1.11v2.328c0 .438-.109.438-.78.438v.312c.343-.016.859-.031 1.124-.031.25 0 .781.015 1.11.031v-.313c-.657 0-.766 0-.766-.437v-1.844c0-1.031.703-1.594 1.344-1.594.625 0 .734.532.734 1.11v2.328c0 .438-.11.438-.781.438v.312c.344-.016.86-.031 1.125-.031s.781.015 1.125.031v-.313c-.516 0-.766 0-.781-.296v-1.907c0-.859 0-1.156-.313-1.515-.14-.172-.469-.375-1.047-.375-.828 0-1.281.594-1.437.984-.14-.875-.875-.984-1.328-.984-.735 0-1.204.422-1.485 1.047v-1.047l-1.406.11v.312c.703 0 .781.062.781.562zm8.648-.343v-3.157l-1.437.11v.312c.703 0 .78.063.78.563v5.937h.25c0-.016.079-.156.36-.625.14.234.563.734 1.297.734 1.188 0 2.219-.984 2.219-2.265 0-1.266-.969-2.25-2.11-2.25-.78 0-1.203.469-1.359.64zm.031 2.624v-2.046c0-.188 0-.204.11-.36.39-.562.937-.64 1.172-.64.453 0 .812.265 1.046.64.266.406.282.969.282 1.39 0 .36-.016.954-.297 1.407-.219.313-.594.64-1.125.64-.453 0-.813-.234-1.047-.609-.14-.203-.14-.234-.14-.422Zm8.752-1c0-1.265-.984-2.328-2.187-2.328-1.25 0-2.22 1.094-2.22 2.328a2.22 2.22 0 0 0 2.204 2.25c1.203 0 2.203-.984 2.203-2.25zm-2.187 2a1.28 1.28 0 0 1-1.141-.671c-.25-.438-.25-1.047-.25-1.407 0-.39 0-.922.234-1.36a1.347 1.347 0 0 1 1.14-.671c.438 0 .86.219 1.126.656.266.422.266 1 .266 1.375 0 .36 0 .906-.22 1.344-.234.453-.671.734-1.155.734Zm4.246-6.781-1.437.11v.312c.703 0 .781.063.781.563v5.187c0 .438-.11.438-.781.438v.312c.328-.016.86-.031 1.11-.031.25 0 .734.015 1.109.031v-.313c-.672 0-.782 0-.782-.437zm0 0"/><path fill="none" stroke="#000" stroke-miterlimit="10" stroke-width=".399" d="M128.781 80.852v13.296l-11.902 5.457"/><path fill="none" stroke="#000" stroke-miterlimit="10" stroke-width=".797" d="M116.879 94.148v17.461"/><path fill="none" stroke="#000" stroke-miterlimit="10" stroke-width=".399" d="m116.879 106.152 11.902 5.457v13.297"/><path d="m121.07 108.074.953-2.078 3.692 4.207-5.598-.05Zm0 0"/><path fill="none" stroke="#000" stroke-miterlimit="10" stroke-width=".399" d="M116.879 102.879h-12.106"/><path stroke="#000" stroke-miterlimit="10" stroke-width=".399" d="M130.371 124.707a1.589 1.589 0 1 0-3.177-.002 1.589 1.589 0 0 0 3.177.002Zm0 0"/><path d="M137.818 125.35h-.25c-.204 1.204-.375 1.813-1.813 1.813h-1.187c-.36 0-.375-.046-.375-.328v-2.093h.765c.797 0 .906.234.906.937h.25v-2.125h-.25c0 .688-.109.922-.906.922h-.765V122.6c0-.266.015-.328.375-.328h1.14c1.313 0 1.485.484 1.625 1.547h.25l-.234-1.813h-4.703v.266h.187c.61 0 .625.094.625.39v4.125c0 .297-.015.375-.625.375h-.187v.266h4.812zm6.462-.343c0-.64-.281-1.094-1.14-1.094-.735 0-1.11.5-1.235.735-.14-.578-.594-.735-1.11-.735a1.37 1.37 0 0 0-1.25.766v-.766l-1.156.094v.266c.547 0 .61.047.61.437v2.094c0 .36-.094.36-.61.36v.265c.344-.031.688-.031.907-.031.234 0 .562 0 .906.031v-.266c-.5 0-.61 0-.61-.359v-1.438c0-.843.641-1.234 1.141-1.234.516 0 .61.406.61.844v1.828c0 .36-.11.36-.61.36v.265c.344-.031.688-.031.906-.031.235 0 .563 0 .907.031v-.266c-.516 0-.61 0-.61-.359v-1.438c0-.843.64-1.234 1.14-1.234.516 0 .61.406.61.844v1.828c0 .36-.11.36-.61.36v.265c.345-.031.688-.031.907-.031.234 0 .563 0 .906.031v-.266c-.515 0-.61 0-.61-.359zm2.385-2.484c0-.235-.172-.453-.438-.453a.437.437 0 0 0-.437.437.45.45 0 0 0 .437.453.436.436 0 0 0 .438-.437zm-1.188 1.484v.266c.516 0 .578.047.578.437v2.094c0 .36-.093.36-.609.36v.265c.313-.031.766-.031.89-.031.094 0 .579 0 .86.031v-.266c-.531 0-.562-.03-.562-.343v-2.907zm3.477.25h1.188v-.266h-1.188v-1.468h-.25c0 .734-.328 1.484-1.078 1.515v.22h.719v2.171c0 .938.719 1.078 1.078 1.078.547 0 .86-.469.86-1.078v-.438h-.25v.422c0 .547-.25.844-.547.844-.532 0-.532-.687-.532-.812zm3.294 0h1.187v-.266h-1.187v-1.468h-.25c0 .734-.329 1.484-1.079 1.515v.22h.72v2.171c0 .938.718 1.078 1.077 1.078.547 0 .86-.469.86-1.078v-.438h-.25v.422c0 .547-.25.844-.547.844-.531 0-.531-.687-.531-.812zm5.105 1.36c.172 0 .219 0 .219-.188 0-.703-.39-1.547-1.516-1.547-.984 0-1.765.813-1.765 1.797 0 1.031.86 1.828 1.875 1.828 1 0 1.406-.844 1.406-1.031a.12.12 0 0 0-.125-.11c-.094 0-.11.047-.125.094a1.14 1.14 0 0 1-1.11.797c-.359 0-.734-.156-.968-.531-.234-.36-.234-.875-.234-1.11Zm-2.343-.22c.078-1.109.75-1.296 1.046-1.296.938 0 .97 1.125.97 1.297zm4.279.22c0-.61.25-1.47 1.015-1.485-.047.031-.14.094-.14.281 0 .25.203.36.359.36.187 0 .36-.125.36-.36 0-.28-.25-.5-.61-.5-.516 0-.875.391-1.031.844h-.016v-.844l-1.125.094v.266c.547 0 .61.047.61.437v2.094c0 .36-.11.36-.61.36v.265c.313-.031.75-.031.938-.031.468 0 .484 0 1 .031v-.266h-.157c-.578 0-.593-.078-.593-.375zm0 0"/><path stroke="#000" stroke-miterlimit="10" stroke-width=".399" d="M130.371 81.05a1.588 1.588 0 1 0-3.176.005 1.588 1.588 0 0 0 3.176-.004Zm0 0"/><path d="M137.944 78.414c0-.125 0-.203-.11-.203-.062 0-.062 0-.14.109l-.407.594a2.117 2.117 0 0 0-1.578-.703c-1.594 0-2.937 1.28-2.937 2.89s1.328 2.89 2.953 2.89c1.328 0 2.219-1.062 2.219-2.03 0-.079 0-.157-.141-.157-.078 0-.11.047-.11.125-.062 1.22-1.062 1.797-1.906 1.797-.672 0-2.187-.422-2.187-2.625 0-2.156 1.437-2.625 2.187-2.625.75 0 1.672.531 1.891 1.906 0 .063.016.11.125.11.14 0 .14-.047.14-.203zm4.46 3.703c0-.985-.828-1.844-1.875-1.844-1.047 0-1.875.86-1.875 1.844 0 1 .859 1.781 1.875 1.781 1.03 0 1.875-.781 1.875-1.781zm-1.875 1.531c-.422 0-.766-.203-.938-.484-.203-.328-.219-.719-.219-1.11 0-.312 0-.78.235-1.125.219-.28.547-.437.922-.437.422 0 .765.203.937.469.219.343.234.765.234 1.093 0 .36-.015.797-.25 1.141-.203.313-.562.453-.921.453zm3.641-5.359-1.188.093v.266c.547 0 .61.047.61.438v4.109c0 .36-.094.36-.61.36v.265c.312-.031.766-.031.906-.031.156 0 .578 0 .89.031v-.266c-.5 0-.609 0-.609-.359zm2.351 0-1.187.093v.266c.547 0 .61.047.61.438v4.109c0 .36-.094.36-.61.36v.265c.312-.031.766-.031.906-.031.156 0 .578 0 .89.031v-.266c-.5 0-.609 0-.609-.359zm4.134 3.718c.171 0 .218 0 .218-.187 0-.703-.39-1.547-1.515-1.547-.985 0-1.766.813-1.766 1.797 0 1.031.86 1.828 1.875 1.828 1 0 1.406-.844 1.406-1.031a.12.12 0 0 0-.125-.11c-.093 0-.109.047-.125.094a1.14 1.14 0 0 1-1.109.797c-.36 0-.734-.156-.969-.531-.234-.36-.234-.875-.234-1.11Zm-2.344-.218c.078-1.11.75-1.297 1.047-1.297.937 0 .968 1.125.968 1.297zm5.748-1.125a.336.336 0 0 0-.266.343c0 .22.156.375.375.375s.375-.14.375-.39c0-.485-.531-.719-1.281-.719-1.11 0-1.86.875-1.86 1.828 0 1.016.829 1.797 1.829 1.797 1.125 0 1.406-.937 1.406-1.031 0-.094-.11-.094-.125-.094-.063 0-.094 0-.125.078a1.071 1.071 0 0 1-1.078.797c-.485 0-1.203-.375-1.203-1.562 0-1.141.593-1.579 1.171-1.579.079 0 .5 0 .782.157zm2.311-.016h1.187v-.266h-1.188v-1.468h-.25c0 .734-.328 1.484-1.078 1.515v.22h.719v2.171c0 .938.718 1.078 1.078 1.078.547 0 .86-.469.86-1.078v-.438h-.25v.422c0 .547-.25.844-.548.844-.53 0-.53-.687-.53-.812zm5.792 1.469c0-.985-.828-1.844-1.875-1.844-1.047 0-1.875.86-1.875 1.844 0 1 .86 1.781 1.875 1.781 1.032 0 1.875-.781 1.875-1.781zm-1.875 1.531c-.422 0-.765-.203-.937-.484-.203-.328-.219-.719-.219-1.11 0-.312 0-.78.234-1.125.22-.28.547-.437.922-.437.422 0 .766.203.938.469.219.343.234.765.234 1.093 0 .36-.015.797-.25 1.141-.203.313-.562.453-.922.453zm3.594-1.641c0-.609.25-1.468 1.016-1.484-.047.031-.14.094-.14.281 0 .25.202.36.359.36.187 0 .359-.125.359-.36 0-.28-.25-.5-.61-.5-.515 0-.874.391-1.03.844h-.016v-.844l-1.125.094v.266c.547 0 .61.047.61.437v2.094c0 .36-.11.36-.61.36v.265c.312-.031.75-.031.937-.031.469 0 .485 0 1 .031v-.266h-.156c-.578 0-.594-.078-.594-.375zm0 0"/><path stroke="#000" stroke-miterlimit="10" stroke-width=".399" d="M106.559 102.879a1.587 1.587 0 1 0-3.175.002 1.587 1.587 0 0 0 3.175-.002Zm0 0"/><path d="M84.495 100.165v.265h.188c.609 0 .625.078.625.375v4.156c0 .297-.016.375-.625.375h-.188v.266h3.266c1.093 0 1.875-.703 1.875-1.453 0-.656-.61-1.281-1.61-1.39.86-.188 1.375-.704 1.375-1.25 0-.72-.797-1.344-1.875-1.344zm1.484 2.5v-1.922c0-.266.016-.313.391-.313h1.11c.78 0 1.14.61 1.14 1.078 0 .547-.469 1.157-1.39 1.157Zm.391 2.671c-.375 0-.39-.046-.39-.328v-2.125h1.624c.766 0 1.22.625 1.22 1.25 0 .64-.532 1.203-1.345 1.203zm7.088-2.109c0-.781-.75-1.172-1.484-1.172-.657 0-1.25.25-1.25.781a.36.36 0 0 0 .375.375c.234 0 .375-.156.375-.375 0-.187-.11-.328-.297-.359.297-.203.734-.203.781-.203.453 0 .89.312.89.969v.234c-.452.031-.984.047-1.546.281-.703.313-.844.766-.844 1.032 0 .687.813.89 1.36.89.578 0 .937-.328 1.124-.64.032.296.235.609.594.609.078 0 .75-.031.75-.766v-.437h-.25v.437c0 .328-.11.453-.281.453-.297 0-.297-.359-.297-.453zm-.61 1.25c0 .781-.64.984-.968.984-.406 0-.766-.28-.766-.671 0-.516.5-1.063 1.735-1.094Zm4.345-2.219c0-.125 0-.203-.11-.203-.047 0-.062 0-.187.125-.016 0-.094.078-.11.078-.015 0-.03 0-.078-.031-.125-.094-.36-.172-.719-.172-1.109 0-1.359.594-1.359.984 0 .391.297.626.313.657.328.234.5.265 1.046.36.375.077.985.187.985.718 0 .312-.203.687-.938.687-.812 0-1.047-.625-1.14-1.046-.032-.11-.047-.141-.14-.141-.126 0-.126.062-.126.219v.984c0 .125 0 .203.094.203.062 0 .062 0 .203-.156.047-.047.125-.14.172-.188.36.329.734.344.937.344 1.016 0 1.36-.578 1.36-1.11 0-.374-.22-.937-1.172-1.109a10.121 10.121 0 0 0-.547-.093c-.25-.063-.625-.235-.625-.547 0-.235.187-.578.937-.578.891 0 .938.656.954.875 0 .062.062.093.109.093.14 0 .14-.062.14-.203zm3.793 1.532c.172 0 .219 0 .219-.188 0-.703-.39-1.547-1.516-1.547-.984 0-1.766.813-1.766 1.797 0 1.031.86 1.828 1.875 1.828 1 0 1.407-.844 1.407-1.031a.12.12 0 0 0-.125-.11c-.094 0-.11.047-.125.094a1.14 1.14 0 0 1-1.11.797c-.359 0-.734-.156-.968-.531-.235-.36-.235-.875-.235-1.11Zm-2.344-.22c.078-1.109.75-1.296 1.047-1.296.938 0 .969 1.125.969 1.297zm0 0"/><path fill="none" stroke="#000" stroke-miterlimit="10" stroke-width=".399" d="M266.703 80.809v13.296l-11.906 5.457"/><path fill="none" stroke="#000" stroke-miterlimit="10" stroke-width=".797" d="M254.797 94.105v17.461"/><path fill="none" stroke="#000" stroke-miterlimit="10" stroke-width=".399" d="m254.797 106.11 11.906 5.456v13.293"/><path d="m262.508 96.027.953 2.078-5.598.051 3.696-4.207Zm0 0"/><path fill="none" stroke="#000" stroke-miterlimit="10" stroke-width=".399" d="M254.797 102.836H242.69"/><path stroke="#000" stroke-miterlimit="10" stroke-width=".399" d="M268.29 81.008a1.587 1.587 0 0 0-3.173 0 1.587 1.587 0 0 0 3.172 0Zm0 0"/><path d="M275.739 81.653h-.25c-.204 1.203-.375 1.812-1.813 1.812h-1.187c-.36 0-.375-.046-.375-.328v-2.093h.765c.797 0 .906.234.906.937h.25v-2.125h-.25c0 .688-.109.922-.906.922h-.765v-1.875c0-.266.015-.328.375-.328h1.14c1.313 0 1.485.484 1.625 1.547h.25l-.234-1.813h-4.703v.266h.187c.61 0 .625.094.625.39v4.125c0 .297-.015.375-.625.375h-.187v.266h4.812zm6.462-.343c0-.641-.281-1.095-1.14-1.095-.735 0-1.11.5-1.235.735-.14-.578-.594-.735-1.11-.735a1.37 1.37 0 0 0-1.25.766v-.766l-1.156.094v.266c.547 0 .61.047.61.437v2.094c0 .36-.094.36-.61.36v.265c.344-.031.688-.031.907-.031.234 0 .562 0 .906.031v-.266c-.5 0-.61 0-.61-.359v-1.437c0-.844.641-1.235 1.141-1.235.516 0 .61.406.61.844v1.828c0 .36-.11.36-.61.36v.265c.344-.031.688-.031.906-.031.235 0 .563 0 .907.031v-.266c-.516 0-.61 0-.61-.359v-1.437c0-.844.64-1.235 1.14-1.235.516 0 .61.406.61.844v1.828c0 .36-.11.36-.61.36v.265c.345-.031.688-.031.907-.031.234 0 .563 0 .906.031v-.266c-.515 0-.609 0-.609-.359zm2.385-2.485c0-.235-.172-.453-.438-.453a.437.437 0 0 0-.437.437.45.45 0 0 0 .437.453.436.436 0 0 0 .438-.437zm-1.188 1.484v.266c.516 0 .578.047.578.437v2.094c0 .36-.093.36-.609.36v.265c.313-.031.766-.031.89-.031.094 0 .579 0 .86.031v-.266c-.531 0-.562-.03-.562-.343v-2.907zm3.477.251h1.188v-.266h-1.188v-1.47h-.25c0 .735-.328 1.485-1.078 1.516v.22h.719v2.171c0 .938.719 1.078 1.078 1.078.547 0 .86-.469.86-1.078v-.437h-.25v.421c0 .547-.25.844-.547.844-.532 0-.532-.687-.532-.812zm3.294 0h1.187v-.266h-1.187v-1.47h-.25c0 .735-.329 1.485-1.079 1.516v.22h.72v2.171c0 .938.718 1.078 1.077 1.078.547 0 .86-.469.86-1.078v-.437h-.25v.421c0 .547-.25.844-.547.844-.531 0-.531-.687-.531-.812zm5.105 1.359c.172 0 .219 0 .219-.188 0-.703-.39-1.547-1.516-1.547-.984 0-1.765.813-1.765 1.797 0 1.031.86 1.828 1.875 1.828 1 0 1.406-.844 1.406-1.031a.12.12 0 0 0-.125-.11c-.094 0-.11.047-.125.094a1.14 1.14 0 0 1-1.11.797c-.359 0-.734-.156-.968-.531-.234-.36-.234-.875-.234-1.11Zm-2.343-.22c.078-1.109.75-1.296 1.046-1.296.938 0 .97 1.125.97 1.297zm4.279.22c0-.61.25-1.47 1.015-1.485-.047.031-.14.094-.14.281 0 .25.203.36.359.36.188 0 .36-.125.36-.36 0-.28-.25-.5-.61-.5-.516 0-.875.391-1.031.844h-.016v-.844l-1.125.094v.266c.547 0 .61.047.61.437v2.094c0 .36-.11.36-.61.36v.265c.313-.031.75-.031.938-.031.468 0 .484 0 1 .031v-.266h-.157c-.578 0-.593-.078-.593-.375zm0 0"/><path stroke="#000" stroke-miterlimit="10" stroke-width=".399" d="M268.29 124.66a1.587 1.587 0 1 0-3.175.002 1.587 1.587 0 0 0 3.174-.002Zm0 0"/><path d="M275.864 122.023c0-.125 0-.203-.11-.203-.062 0-.062 0-.14.109l-.407.594a2.117 2.117 0 0 0-1.578-.703c-1.594 0-2.937 1.28-2.937 2.89s1.328 2.89 2.953 2.89c1.328 0 2.219-1.062 2.219-2.03 0-.078 0-.157-.141-.157-.078 0-.11.047-.11.125-.062 1.22-1.062 1.797-1.906 1.797-.672 0-2.187-.422-2.187-2.625 0-2.156 1.437-2.625 2.187-2.625.75 0 1.672.532 1.891 1.907 0 .062.016.109.125.109.14 0 .14-.047.14-.203zm4.46 3.703c0-.984-.828-1.844-1.875-1.844-1.047 0-1.875.86-1.875 1.844 0 1 .859 1.781 1.875 1.781 1.03 0 1.875-.781 1.875-1.781zm-1.875 1.531c-.422 0-.766-.203-.938-.484-.203-.328-.219-.719-.219-1.11 0-.312 0-.78.235-1.125.219-.28.547-.437.922-.437.422 0 .765.203.937.469.219.343.235.765.235 1.093 0 .36-.016.797-.25 1.141-.204.313-.563.453-.922.453zm3.641-5.359-1.188.094v.265c.547 0 .61.047.61.438v4.109c0 .36-.094.36-.61.36v.265c.312-.031.766-.031.906-.031.156 0 .578 0 .89.031v-.266c-.5 0-.609 0-.609-.359zm2.351 0-1.187.094v.265c.547 0 .61.047.61.438v4.109c0 .36-.094.36-.61.36v.265c.312-.031.765-.031.906-.031.156 0 .578 0 .89.031v-.266c-.5 0-.609 0-.609-.359zm4.134 3.719c.171 0 .218 0 .218-.188 0-.703-.39-1.547-1.515-1.547-.985 0-1.766.813-1.766 1.797 0 1.031.86 1.828 1.875 1.828 1 0 1.406-.844 1.406-1.031a.12.12 0 0 0-.125-.11c-.093 0-.109.047-.125.094a1.14 1.14 0 0 1-1.109.797c-.36 0-.734-.156-.969-.531-.234-.36-.234-.875-.234-1.11Zm-2.344-.22c.078-1.109.75-1.296 1.047-1.296.937 0 .968 1.125.968 1.297zm5.748-1.124a.336.336 0 0 0-.266.344c0 .218.156.374.375.374s.375-.14.375-.39c0-.484-.531-.719-1.281-.719-1.11 0-1.86.875-1.86 1.828 0 1.016.829 1.797 1.829 1.797 1.125 0 1.406-.937 1.406-1.031 0-.094-.11-.094-.125-.094-.063 0-.094 0-.125.078a1.071 1.071 0 0 1-1.078.797c-.485 0-1.203-.375-1.203-1.562 0-1.141.593-1.578 1.171-1.578.079 0 .5 0 .782.156zm2.311-.016h1.187v-.266h-1.188v-1.468h-.25c0 .734-.328 1.484-1.078 1.515v.22h.719v2.171c0 .938.718 1.078 1.078 1.078.547 0 .86-.469.86-1.078v-.438h-.25v.422c0 .547-.25.844-.548.844-.53 0-.53-.687-.53-.812zm5.792 1.469c0-.984-.828-1.844-1.875-1.844-1.047 0-1.875.86-1.875 1.844 0 1 .86 1.781 1.875 1.781 1.032 0 1.875-.781 1.875-1.781zm-1.875 1.531c-.422 0-.765-.203-.937-.484-.203-.328-.219-.719-.219-1.11 0-.312 0-.78.234-1.125.22-.28.547-.437.922-.437.422 0 .766.203.938.469.219.343.234.765.234 1.093 0 .36-.015.797-.25 1.141-.203.313-.562.453-.922.453zm3.594-1.64c0-.61.25-1.47 1.016-1.485-.047.031-.14.094-.14.281 0 .25.202.36.359.36.187 0 .359-.125.359-.36 0-.28-.25-.5-.61-.5-.515 0-.874.391-1.03.844h-.016v-.844l-1.125.094v.266c.547 0 .61.047.61.437v2.094c0 .36-.11.36-.61.36v.265c.312-.031.75-.031.937-.031.469 0 .485 0 1 .031v-.266h-.156c-.578 0-.594-.078-.594-.375zm0 0"/><path stroke="#000" stroke-miterlimit="10" stroke-width=".399" d="M244.48 102.836a1.589 1.589 0 1 0-3.177-.002 1.589 1.589 0 0 0 3.177.002Zm0 0"/><path d="M222.415 100.12v.266h.187c.61 0 .625.078.625.375v4.156c0 .297-.015.375-.625.375h-.187v.266h3.266c1.093 0 1.875-.703 1.875-1.453 0-.656-.61-1.281-1.61-1.39.86-.188 1.375-.704 1.375-1.25 0-.72-.797-1.344-1.875-1.344zm1.484 2.5v-1.92c0-.266.016-.313.391-.313h1.11c.78 0 1.14.61 1.14 1.078 0 .547-.469 1.157-1.39 1.157Zm.391 2.672c-.375 0-.39-.046-.39-.328v-2.125h1.624c.766 0 1.22.625 1.22 1.25 0 .64-.532 1.203-1.345 1.203zm7.088-2.109c0-.781-.75-1.172-1.484-1.172-.657 0-1.25.25-1.25.781a.36.36 0 0 0 .375.375c.234 0 .375-.156.375-.375 0-.187-.11-.328-.297-.359.297-.203.734-.203.781-.203.453 0 .89.312.89.969v.234c-.452.031-.984.047-1.546.281-.703.313-.844.766-.844 1.032 0 .687.813.89 1.36.89.578 0 .937-.328 1.124-.64.032.296.235.609.594.609.078 0 .75-.031.75-.766v-.437h-.25v.437c0 .328-.11.453-.281.453-.297 0-.297-.359-.297-.453zm-.61 1.25c0 .781-.64.984-.968.984-.406 0-.766-.28-.766-.671 0-.516.5-1.063 1.735-1.094Zm4.345-2.219c0-.125 0-.203-.11-.203-.047 0-.062 0-.187.125-.016 0-.094.078-.11.078-.015 0-.03 0-.078-.031-.125-.094-.36-.172-.719-.172-1.109 0-1.359.594-1.359.985 0 .39.297.625.313.656.328.234.5.265 1.046.36.375.077.985.187.985.718 0 .312-.203.687-.938.687-.812 0-1.047-.625-1.14-1.046-.032-.11-.047-.141-.14-.141-.126 0-.126.062-.126.219v.984c0 .125 0 .203.094.203.062 0 .062 0 .203-.156.047-.047.125-.14.172-.188.36.329.734.344.937.344 1.016 0 1.36-.578 1.36-1.11 0-.374-.219-.937-1.172-1.109a10.121 10.121 0 0 0-.547-.093c-.25-.063-.625-.235-.625-.547 0-.235.187-.578.937-.578.891 0 .938.656.954.875 0 .062.062.093.109.093.14 0 .14-.062.14-.203zm3.793 1.532c.172 0 .219 0 .219-.188 0-.703-.39-1.547-1.516-1.547-.984 0-1.766.813-1.766 1.797 0 1.031.86 1.828 1.875 1.828 1 0 1.407-.844 1.407-1.031a.12.12 0 0 0-.125-.11c-.094 0-.11.047-.125.094a1.14 1.14 0 0 1-1.11.797c-.359 0-.734-.156-.968-.531-.235-.36-.235-.875-.235-1.11Zm-2.344-.22c.078-1.109.75-1.296 1.047-1.296.938 0 .969 1.125.969 1.297zm0 0"/><path fill="none" stroke="#000" stroke-miterlimit="10" stroke-width=".797" d="M0 .398h55.957m0 0h137.918"/><g clip-path="url(#a)"><path fill="none" stroke="#000" stroke-miterlimit="10" stroke-width=".797" d="M193.875.398h137.922"/></g><path fill="none" stroke="#000" stroke-miterlimit="10" stroke-width=".498" d="M0 19.977h55.957m0 0h137.918"/><g clip-path="url(#b)"><path fill="none" stroke="#000" stroke-miterlimit="10" stroke-width=".498" d="M193.875 19.977h137.922"/></g><g clip-path="url(#c)"><path fill="none" stroke="#000" stroke-miterlimit="10" stroke-width=".797" d="M0 133.14h55.957"/></g><g clip-path="url(#d)"><path fill="none" stroke="#000" stroke-miterlimit="10" stroke-width=".797" d="M55.957 133.14h137.918"/></g><g clip-path="url(#e)"><path fill="none" stroke="#000" stroke-miterlimit="10" stroke-width=".797" d="M193.875 133.14h137.922"/></g></svg>