<svg xmlns="http://www.w3.org/2000/svg" width="282.858" height="225.792" viewBox="0 0 212.143 169.344"><path fill="#231F20" d="M208.89 74.726h-1.485v.125c.156.015.5.046.5.28 0 .22-.344.813-.406.938l-1.625 2.797h-.032l-.53-3.484v-.14c0-.329.234-.36.609-.391v-.125h-1.922v.125c.453.046.468.093.625 1.078l.687 4.156h.156l2.985-4.922c.047-.078.187-.312.437-.312Zm2.261 5.828v-1.39h-.14c-.063.452-.172.577-.656.577h-.875v-1.344c0-.171.046-.203.187-.203h.828c.656 0 .813.11.906.641h.157l-.016-.86h-3.187v.11c.375.031.515.062.515.547v2.594c0 .484-.078.578-.515.609v.11h1.671v-.11c-.421-.016-.546-.094-.546-.547v-1.312h.875c.453.015.593.078.656.578zm-66.544 2.218c1.032 0 1.047 2.016 1.047 2.563 0 .625-.015 2.547-1.047 2.547-1.03 0-1.046-1.907-1.046-2.547 0-.547.015-2.563 1.046-2.563zm0-.203c-1.468 0-1.812 1.813-1.812 2.766 0 .953.344 2.75 1.812 2.75 1.47 0 1.813-1.797 1.813-2.75 0-.953-.344-2.766-1.813-2.766Zm3 5.501c.172 0 .454-.142.454-.438a.464.464 0 0 0-.454-.454.45.45 0 0 0-.437.454c0 .296.266.437.437.437zm4.594-5.392h-2.969l-.125.36-.343.812.14.063c.266-.406.407-.64.922-.64h1.735l-1.579 4.765h.516l1.703-5.235Zm7.587 0h-1.64v.157c.296.015.577.031.577.36 0 .171-.125.515-.14.562l-1.188 2.937-1.203-2.703c-.187-.422-.328-.75-.328-.86 0-.265.156-.28.594-.296v-.157h-2.125v.157c.375.015.515.11.844.843l1.968 4.391h.125l1.782-4.5c.234-.61.343-.719.734-.734Zm-41.431-.906c1.031 0 1.047 2.016 1.047 2.563 0 .625-.016 2.547-1.047 2.547s-1.047-1.907-1.047-2.547c0-.547.016-2.563 1.047-2.563zm0-.203c-1.469 0-1.813 1.813-1.813 2.766 0 .953.344 2.75 1.813 2.75 1.469 0 1.812-1.797 1.812-2.75 0-.953-.343-2.766-1.812-2.766Zm-16.307 85.135h1.953v-.125c-.344-.047-.547-.062-.547-.328 0-.187.047-.344.094-.5l.984-3.547c.125-.515.266-.531.656-.594v-.125h-1.984v.125c.344.032.562.063.562.344 0 .14-.046.328-.093.5l-.985 3.531c-.125.5-.25.516-.64.594zm6.681 1.891c-.25-.016-.39-.125-.515-.281l-1.235-1.516c.297-.062 1.079-.219 1.079-1.016 0-.921-.985-1.046-1.516-1.046h-1.656v.109c.406.047.5.094.5.547v2.594c0 .453-.016.578-.5.609v.11h1.656v-.11c-.484-.031-.547-.14-.547-.547v-1.187h.344l1.422 1.843h.968zm-2.734-3.422c0-.172.063-.219.375-.219.25 0 1.031.016 1.031.813 0 .86-.89.875-1.406.875zm7.017-3.875c-1.235.734-1.969 1.938-1.969 3.313 0 1.109.25 1.671.656 2.25.297.453.828 1.015 1.297 1.265l.094-.14c-1.36-.86-1.36-2.625-1.36-3.438 0-2.031.766-2.656 1.36-3.125zm.789 1.406v3.938c0 .469-.125.61-.203 1.062-.094.532.156.782.359.782.219 0 .469-.25.375-.782-.078-.453-.219-.593-.234-1.062v-.188c.109.078.375.391.75.391.28 0 .562-.094.75-.234.375-.282.484-.454.562-.547.047.25.047.453.328.656.11.094.438.219.813.016.422-.235.484-.563.547-.844h-.157c-.062.14-.03.375-.25.515-.156.079-.296.063-.421-.078-.125-.109-.188-.343-.188-.547v-3.078h-.687v2.97c-.11.265-.391.468-.579.546a.8.8 0 0 1-.656 0c-.328-.14-.422-.469-.422-.86v-2.656Zm9.766 3.844c-.344-.016-.454-.11-.72-.687l-1.984-4.547h-.156l-1.672 3.922c-.156.359-.39.937-.578 1.14a.49.49 0 0 1-.406.172v.156h1.578v-.156c-.172 0-.547 0-.547-.328 0-.094.031-.203.063-.313l.375-.937h2.093l.329.781c.046.11.156.375.156.5 0 .297-.266.297-.563.297v.156h2.032zm-3.907-1.906.907-2.188.937 2.188zm4.338 3.484c1.25-.734 1.985-1.937 1.985-3.312 0-1.11-.265-1.688-.656-2.266-.313-.437-.828-1-1.297-1.25l-.094.125c1.36.875 1.36 2.625 1.36 3.438 0 2.03-.766 2.656-1.36 3.125zM5.368 74.86H3.884v.126c.156.015.5.047.5.281 0 .219-.344.813-.407.938L2.352 79h-.03l-.532-3.484v-.14c0-.329.234-.36.61-.391v-.125H.476v.125c.453.047.47.094.625 1.078l.688 4.156h.156l2.984-4.922c.047-.078.188-.312.438-.312Zm3.342 7.11c-.25-.015-.39-.124-.515-.28L6.96 80.174c.296-.062 1.078-.219 1.078-1.016 0-.921-.985-1.046-1.516-1.046H4.867v.109c.406.047.5.094.5.547v2.594c0 .453-.016.578-.5.609v.11h1.656v-.11c-.484-.031-.547-.14-.547-.547v-1.187h.344l1.422 1.843h.969zm-2.734-3.42c0-.173.063-.22.375-.22.25 0 1.031.016 1.031.813 0 .86-.89.875-1.406.875zm32.861-10.876h-1.484v.125c.156.015.5.046.5.28 0 .22-.344.813-.406.938l-1.625 2.797h-.031l-.532-3.484v-.14c0-.329.235-.36.61-.391v-.125h-1.922v.125c.453.046.469.093.625 1.078l.687 4.156h.157l2.984-4.922c.047-.078.187-.312.437-.312Zm-.502 3.359c.484.031.562.094.562.547v2.656c0 .422-.062.531-.562.547v.11h2c1.328 0 1.453-.829 1.453-1.063 0-.625-.484-.906-1-1.016V72.8c.266-.063.797-.204.797-.86 0-.937-1.063-1.015-1.578-1.015h-1.672Zm1.187 1.906c.563 0 .766.031.969.094.313.094.61.281.61.781 0 .797-.735.86-1.126.86-.359 0-.453-.032-.453-.25zm0-1.61c0-.093 0-.187.125-.187h.266c.437 0 1.047.11 1.047.828 0 .72-.703.72-.875.72l-.563.015zm6.658 3.454c-.25-.016-.39-.125-.515-.281l-1.234-1.516c.296-.062 1.078-.219 1.078-1.016 0-.921-.985-1.046-1.516-1.046h-1.656v.109c.406.047.5.094.5.547v2.594c0 .453-.016.578-.5.609v.11h1.656v-.11c-.484-.031-.547-.14-.547-.547V73.05h.344l1.422 1.843h.969zm-2.734-3.422c0-.172.063-.219.375-.219.25 0 1.031.016 1.031.813 0 .86-.89.875-1.406.875zm1.781 15.172c.406.015.547.031.547.25 0 .265-.234.484-2.031 2.11V87.25c0-.593.11-.687.734-.718v-.157h-2.281v.157c.547.031.719.093.719.718v3.47c0 .655-.094.765-.72.796v.156h2.267v-.156c-.625-.031-.72-.156-.72-.719v-1.5l.204-.156.844.828c.28.281 1.047 1.11 1.047 1.344 0 .187-.141.187-.563.203v.156h2.438v-.156h-.032c-.437 0-.718-.297-1.218-.86l-1.875-2 1.53-1.5c.563-.562.735-.593 1.22-.624v-.157h-2.11Zm3.12 4.422c0 .468-.125.578-.5.593v.125h1.703v-.125c-.422-.015-.531-.14-.531-.406v-2.25c.297-.297.547-.453.797-.453.468 0 .609.281.609.766v1.671c0 .61-.203.657-.5.672v.125h1.656v-.125c-.39-.03-.484-.14-.484-.515v-1.844c0-.984-.563-1.203-.938-1.203-.468 0-.765.281-1.171.656v-.625l-.047-.031c-.375.14-.75.265-1.11.375v.125a.686.686 0 0 1 .235-.031c.125 0 .28.015.28.515zm6.625-.595c-.188.298-.531.845-1.234.845-.532 0-1.188-.329-1.282-1.75h2.485c-.078-1.047-.657-1.47-1.407-1.47-.64 0-1.625.5-1.625 1.97 0 1.14.61 1.796 1.5 1.796 1.141 0 1.61-1.093 1.688-1.328zm-2.484-1.155c.125-.704.437-.922.875-.922.625 0 .718.531.765.922zm6.036 1.155c-.188.298-.531.845-1.234.845-.532 0-1.188-.329-1.282-1.75h2.485c-.078-1.047-.657-1.47-1.407-1.47-.64 0-1.625.5-1.625 1.97 0 1.14.61 1.796 1.5 1.796 1.141 0 1.61-1.093 1.688-1.328zm-2.484-1.155c.125-.704.437-.922.875-.922.625 0 .718.531.765.922zm44.828-82.688h1.953v-.125c-.344-.047-.547-.062-.547-.328 0-.187.047-.344.094-.5l.984-3.547c.125-.515.266-.53.656-.593v-.125h-1.984v.125c.344.03.563.062.563.343 0 .141-.047.328-.094.5l-.985 3.532c-.125.5-.25.515-.64.593zm5.602.61v-1.39h-.141c-.063.452-.172.577-.657.577h-.875V4.97c0-.171.047-.203.188-.203h.828c.656 0 .813.11.906.641h.157l-.016-.86h-3.188v.11c.375.031.516.062.516.547v2.594c0 .484-.078.578-.516.609v.11h1.672v-.11c-.422-.016-.547-.094-.547-.547V6.55h.875c.454.015.594.078.657.578zm4.815-6.016c-1.234.734-1.968 1.938-1.968 3.313 0 1.109.25 1.671.656 2.25.297.453.828 1.015 1.297 1.265l.093-.14c-1.359-.86-1.359-2.625-1.359-3.438 0-2.031.766-2.656 1.36-3.125zm.992 4.719c0 .547-.234.562-.562.562v.125h1.781v-.125c-.281 0-.547-.015-.547-.406V3.72c0-.03.375-.468.922-.468.422 0 .547.312.547.843V5.83c0 .515-.187.547-.547.562v.125h1.797v-.125c-.328 0-.578-.03-.578-.64V3.736c.187-.266.453-.484.89-.484.579 0 .579.468.579.875v1.687c0 .516-.125.531-.516.578v.125h1.75v-.125l-.219-.015c-.328-.047-.343-.266-.343-.438V4.267c0-.593-.11-1.437-.938-1.437-.625 0-1.125.484-1.281.672-.094-.328-.344-.672-.86-.672-.437 0-.765.265-1.234.625V2.86l-.062-.031c-.36.14-.735.265-1.11.375v.125a.98.98 0 0 1 .25-.031c.125 0 .281.015.281.515zm11.178.531c-.344-.016-.454-.11-.72-.687l-1.984-4.547h-.156l-1.672 3.922c-.156.359-.39.937-.578 1.14a.49.49 0 0 1-.406.172v.156h1.578v-.156c-.172 0-.547 0-.547-.328 0-.094.031-.203.063-.313l.375-.937h2.093l.329.781c.046.11.156.375.156.5 0 .297-.266.297-.563.297v.156h2.032zm-3.907-1.906.907-2.188.937 2.188zm4.339 3.485c1.25-.735 1.984-1.938 1.984-3.313 0-1.11-.265-1.688-.656-2.266-.313-.437-.828-1-1.297-1.25l-.094.125c1.36.875 1.36 2.625 1.36 3.438 0 2.03-.766 2.656-1.36 3.125zm0 0"/><path fill="none" stroke="#231F20" stroke-dasharray="1 0.75" stroke-miterlimit="3.864" stroke-width=".5" d="M40.348 78.113v5.973"/><path fill="none" stroke="#00ADEF" stroke-miterlimit="3.864" d="m156.652 18.992-3.125 42.344s0 7.535-2.414 10.52c-2.418 2.984-11.375 3.98-18.629 4.55-7.254.567-18.77 1.707-18.77 1.707l-1.507 1.848h-38.16"/><path fill="none" stroke="#00ADEF" stroke-dasharray="1 0.75" stroke-miterlimit="3.864" d="M72.762 79.96h-8.246"/><path fill="none" stroke="#00ADEF" stroke-miterlimit="3.864" d="M63.523 79.96h-11.66s-5.972-.425-9.468 2.134c-2.961 2.168-5.887 7.96-7.024 12.37-1.14 4.407-6.543 29.86-9.242 45.641-.461 2.68-.906 5.391-1.332 8.055"/><path fill="#231F20" d="m195.61 80.125 5.75-1.875-5.75-1.875v3.75m-179.274 0-5.75-1.875 5.75-1.875v3.75"/><path fill="none" stroke="#231F20" stroke-miterlimit="3.864" stroke-width=".5" d="M63.52 78.258H15.016m182.02 0H74.186"/><path fill="none" stroke="#231F20" stroke-dasharray="1 0.75" stroke-miterlimit="3.864" stroke-width=".5" d="M72.906 78.258h-8.39"/><path fill="none" stroke="#231F20" stroke-miterlimit="3.864" stroke-width=".5" d="M113.691 14.652v140.836"/><path fill="#231F20" d="m115.559 16.566-1.875-5.75-1.875 5.75h3.75m0 136.961-1.875 5.75-1.875-5.75h3.75"/><path fill="none" stroke="#231F20" stroke-dasharray="1 0.75" stroke-miterlimit="3.864" stroke-width=".5" d="M151.293 71.55v6.704"/><path fill="#00ADEF" d="M40.196 123.017c-.328-.016-.516-.156-.688-.375l-1.656-2.016c.422-.078 1.453-.28 1.453-1.343 0-1.235-1.312-1.407-2.031-1.407h-2.203v.157c.562.046.672.125.672.718v3.47c0 .593-.031.765-.672.796v.156h2.219v-.156c-.641-.031-.735-.188-.735-.719v-1.578l.453-.016 1.907 2.47h1.28zm-3.64-4.563c0-.218.077-.28.5-.28.327 0 1.374.03 1.374 1.093 0 1.14-1.203 1.156-1.875 1.156Zm6.976 3.406c-.188.298-.531.844-1.234.844-.532 0-1.188-.328-1.282-1.75h2.485c-.078-1.046-.657-1.468-1.407-1.468-.64 0-1.625.5-1.625 1.968 0 1.141.61 1.797 1.5 1.797 1.141 0 1.61-1.093 1.688-1.328zm-2.484-1.156c.125-.703.437-.921.875-.921.625 0 .718.53.765.921zm6.582-1.124h-1.109v.109c.204.016.375.078.375.266 0 .296-.562 1.53-.843 2.312l-.813-2.047c-.015-.078-.062-.187-.062-.281 0-.203.172-.234.359-.25v-.11h-1.562v.11a.499.499 0 0 1 .437.297c.281.578 1.047 2.422 1.25 2.922.125.343.14.375.219.375.047 0 .125-.188.203-.391l1.031-2.578c.188-.469.25-.594.516-.625zm3.454 2.28c-.188.298-.531.844-1.234.844-.532 0-1.188-.328-1.282-1.75h2.485c-.078-1.046-.657-1.468-1.407-1.468-.64 0-1.625.5-1.625 1.968 0 1.141.61 1.797 1.5 1.797 1.141 0 1.61-1.093 1.688-1.328zm-2.484-1.156c.125-.703.437-.921.875-.921.625 0 .718.53.765.921zm3.38 1.797c0 .453-.125.47-.563.547v.125h1.906v-.125c-.406-.015-.671-.047-.671-.594v-1.796c0-.266.343-.657.546-.657.188 0 .266.282.547.282.188 0 .313-.157.313-.36 0-.265-.172-.437-.438-.437-.312 0-.578.172-.953.734h-.015v-.703l-.047-.031c-.391.172-.782.312-1.172.437v.125a1.15 1.15 0 0 1 .265-.031c.125 0 .282.016.282.484zm4.57-1.843-.031-1.094h-.078c-.032.031-.063.094-.141.094-.14 0-.39-.172-.734-.172-.782 0-1.125.531-1.125.984 0 .594.437.89.937 1.172l.469.266c.25.14.406.328.406.578 0 .468-.375.593-.64.593-.782 0-.938-.703-1.032-1.124h-.125v1.25h.094c.047-.079.078-.094.187-.094h.016c.219 0 .547.14.906.14.516 0 1.157-.328 1.157-1.03 0-.485-.282-.704-.672-.938l-.86-.516c-.297-.172-.343-.406-.343-.563 0-.218.171-.53.609-.53.344 0 .703.171.89.984zm3.862 1.202c-.188.298-.531.844-1.234.844-.532 0-1.188-.328-1.282-1.75h2.485c-.078-1.046-.657-1.468-1.407-1.468-.64 0-1.625.5-1.625 1.968 0 1.141.61 1.797 1.5 1.797 1.141 0 1.61-1.093 1.688-1.328zm-2.484-1.156c.125-.703.437-.921.875-.921.625 0 .718.53.765.921zm5.989-.109c.031-.453.547-.594.813-.594.718 0 1.015.813 1.015 1.563 0 .531-.14 1.437-1.062 1.437-.188 0-.766-.109-.766-.39zm-.672 2.14c0 .298.844.516 1.25.516 1.469 0 1.953-1.265 1.953-1.984 0-.86-.468-1.781-1.437-1.781-.594 0-1.031.468-1.078.656h-.016v-2.422l-.031-.016c-.39.141-.781.25-1.156.36v.125h.171c.344 0 .344.156.344.406zm3.578.438h1.907v-.125c-.563-.031-.594-.156-.594-.687v-2.844l-.031-.031c-.422.156-.829.312-1.25.453v.11c.109-.016.218-.032.328-.032.125 0 .28.016.28.484v1.86c0 .625-.14.672-.64.687zm.5-5.062c0 .156.11.422.407.422a.407.407 0 0 0 .406-.422.403.403 0 0 0-.406-.407c-.282 0-.407.266-.407.407zm3.897 4.078c0 .234-.032.344-.266.453a1.28 1.28 0 0 1-.5.14c-.297 0-.532-.234-.532-.624v-.016c0-.266.094-.719 1.297-1.11Zm1.234.453a.485.485 0 0 1-.36.156c-.234 0-.234-.234-.234-.469v-1.562c0-.469 0-1.281-1.188-1.281-.922 0-1.297.578-1.297.89 0 .141.094.36.344.36a.36.36 0 0 0 .36-.344c0-.078-.047-.188-.047-.313 0-.25.312-.39.578-.39.234 0 .61.078.61.656v.484c-1.313.516-2 .797-2 1.594 0 .531.421.828.843.828.437 0 .875-.312 1.156-.578.047.578.39.578.531.578.125 0 .375 0 .704-.39zm2.536-1.984-.031-1.094h-.078c-.032.031-.063.094-.141.094-.14 0-.39-.172-.734-.172-.782 0-1.125.531-1.125.984 0 .594.437.89.937 1.172l.469.266c.25.14.406.328.406.578 0 .468-.375.593-.64.593-.782 0-.938-.703-1.032-1.124h-.125v1.25h.094c.047-.079.078-.094.187-.094h.016c.219 0 .547.14.906.14.516 0 1.157-.328 1.157-1.03 0-.485-.282-.704-.672-.938l-.86-.516c-.297-.172-.343-.406-.343-.563 0-.218.171-.53.609-.53.344 0 .703.171.89.984zm80.331-15.376c.657.031.766.125.766.719v3.547c0 .578-.094.703-.766.719v.156h2.672c1.766 0 1.938-1.11 1.938-1.406 0-.844-.64-1.22-1.344-1.375v-.016c.36-.078 1.062-.266 1.062-1.14 0-1.25-1.39-1.36-2.093-1.36h-2.235Zm1.578 2.531c.766 0 1.032.047 1.297.125.422.125.813.391.813 1.047 0 1.063-.969 1.141-1.5 1.141-.469 0-.61-.031-.61-.328zm0-2.156c0-.11.016-.219.172-.219.078 0 .203-.015.36-.015.578 0 1.406.156 1.406 1.11 0 .952-.953.968-1.172.968h-.766Zm5.915 3.781c0 .235-.032.344-.266.454-.078.046-.328.14-.5.14-.297 0-.531-.234-.531-.625v-.015c0-.266.093-.72 1.297-1.11Zm1.234.454a.485.485 0 0 1-.36.156c-.234 0-.234-.235-.234-.469v-1.562c0-.47 0-1.282-1.187-1.282-.922 0-1.297.578-1.297.891 0 .14.094.36.344.36a.36.36 0 0 0 .359-.344c0-.079-.047-.188-.047-.313 0-.25.313-.39.578-.39.235 0 .61.078.61.656v.484c-1.313.516-2 .797-2 1.594 0 .531.421.828.843.828.438 0 .875-.313 1.157-.578.046.578.39.578.53.578.126 0 .376 0 .704-.39zm.63-.141c0 .453-.125.469-.562.547v.125h1.906v-.125c-.406-.016-.672-.047-.672-.594v-1.797c0-.265.344-.656.547-.656.187 0 .265.281.547.281.187 0 .312-.156.312-.36 0-.265-.172-.437-.437-.437-.313 0-.578.172-.953.735h-.016v-.703l-.047-.032c-.39.172-.781.313-1.172.438v.125c.063-.016.156-.031.266-.031.125 0 .281.015.281.484zm2.664 0c0 .453-.125.469-.562.547v.125h1.906v-.125c-.406-.016-.672-.047-.672-.594v-1.797c0-.265.344-.656.547-.656.187 0 .265.281.547.281.187 0 .312-.156.312-.36 0-.265-.172-.437-.437-.437-.313 0-.578.172-.953.735h-.016v-.703l-.047-.032c-.39.172-.781.313-1.172.438v.125c.063-.016.156-.031.266-.031.125 0 .281.015.281.484zm2.18.672h1.906v-.125c-.563-.031-.594-.156-.594-.688v-2.843l-.031-.032c-.422.157-.828.313-1.25.453v.11c.11-.016.219-.031.328-.031.125 0 .281.015.281.484v1.86c0 .624-.14.671-.64.687zm.5-5.063c0 .157.11.422.406.422a.407.407 0 0 0 .406-.422.403.403 0 0 0-.406-.406c-.281 0-.406.266-.406.406zm4.864 3.75c-.187.297-.53.844-1.234.844-.531 0-1.188-.328-1.281-1.75h2.484c-.078-1.047-.656-1.469-1.406-1.469-.64 0-1.625.5-1.625 1.97 0 1.14.61 1.796 1.5 1.796 1.14 0 1.61-1.094 1.687-1.328zm-2.484-1.156c.125-.703.437-.922.875-.922.625 0 .719.531.766.922zm3.38 1.797c0 .453-.125.469-.562.547v.125h1.906v-.125c-.406-.016-.672-.047-.672-.594v-1.797c0-.265.344-.656.547-.656.187 0 .265.281.547.281.187 0 .312-.156.312-.36 0-.265-.172-.437-.437-.437-.313 0-.578.172-.953.735h-.016v-.703l-.047-.032c-.39.172-.781.313-1.172.438v.125c.063-.016.156-.031.266-.031.125 0 .281.015.281.484zm4.648 1.719c0 .343-.03.515-.546.547v.14h1.921v-.14c-.562 0-.703-.094-.703-.61v-1.25c.266.25.5.344.813.344 1.11 0 1.687-1.125 1.687-2.031 0-1.078-.609-1.735-1.328-1.735-.61 0-.984.407-1.156.625l-.016-.015v-.578l-.047-.032c-.375.157-.765.297-1.14.422v.125c.062-.015.14-.015.219-.015.28 0 .296.14.296.453zm.672-3.719c.047-.297.5-.531.797-.531.969 0 1.016 1.297 1.016 1.484 0 1.39-.719 1.547-.985 1.547-.453 0-.828-.344-.828-.531zm4.688-1.016c-1.063 0-1.719.875-1.719 1.86 0 1.078.719 1.906 1.75 1.906 1.219 0 1.781-1.11 1.781-1.906 0-1.157-.75-1.86-1.812-1.86zm.14 3.547c-.953 0-1.14-1.469-1.14-2.062 0-.844.437-1.25.937-1.25.735 0 1.157.875 1.157 1.86 0 1.14-.547 1.452-.954 1.452zm3.954-3.452h-.813v-.938c0-.063 0-.094-.062-.094-.297.422-.407.594-.72.906-.171.172-.343.219-.343.313 0 .03.016.046.031.062h.422v2.406c0 .797.328 1.016.735 1.016.359 0 .75-.266.937-.61l-.11-.078c-.077.094-.234.266-.484.266-.406 0-.406-.469-.406-.719v-2.28h.813zm3.442 2.28c-.187.297-.53.844-1.234.844-.531 0-1.188-.328-1.281-1.75h2.484c-.078-1.047-.656-1.469-1.406-1.469-.64 0-1.625.5-1.625 1.97 0 1.14.61 1.796 1.5 1.796 1.14 0 1.61-1.094 1.687-1.328zm-2.484-1.156c.125-.703.437-.922.875-.922.625 0 .719.531.766.922zm3.411 1.75c0 .469-.125.578-.5.594v.125h1.703v-.125c-.421-.016-.53-.14-.53-.406v-2.25c.296-.297.546-.454.796-.454.469 0 .61.282.61.766v1.672c0 .61-.204.656-.5.672v.125h1.656v-.125c-.39-.031-.485-.14-.485-.516v-1.844c0-.984-.562-1.203-.937-1.203-.469 0-.766.282-1.172.657v-.625l-.047-.032c-.375.141-.75.266-1.11.375v.125a.686.686 0 0 1 .235-.03c.125 0 .281.015.281.515zm5.407-2.874h-.813v-.938c0-.063 0-.094-.062-.094-.297.422-.407.594-.72.906-.171.172-.343.219-.343.313 0 .03.016.046.031.062h.422v2.406c0 .797.328 1.016.735 1.016.359 0 .75-.266.937-.61l-.11-.078c-.077.094-.234.266-.484.266-.406 0-.406-.469-.406-.719v-2.28h.813zm.302 3.593h1.906v-.125c-.563-.031-.594-.156-.594-.688v-2.843l-.031-.032c-.422.157-.828.313-1.25.453v.11c.11-.016.219-.031.328-.031.125 0 .281.015.281.484v1.86c0 .624-.14.671-.64.687zm.5-5.063c0 .157.11.422.406.422a.407.407 0 0 0 .406-.422.403.403 0 0 0-.406-.406c-.281 0-.406.266-.406.406zm3.896 4.078c0 .235-.032.344-.266.454-.078.046-.328.14-.5.14-.297 0-.531-.234-.531-.625v-.015c0-.266.093-.72 1.297-1.11Zm1.234.454a.485.485 0 0 1-.36.156c-.234 0-.234-.235-.234-.469v-1.562c0-.47 0-1.282-1.187-1.282-.922 0-1.297.578-1.297.891 0 .14.094.36.344.36a.36.36 0 0 0 .359-.344c0-.079-.047-.188-.047-.313 0-.25.313-.39.578-.39.235 0 .61.078.61.656v.484c-1.313.516-2 .797-2 1.594 0 .531.421.828.843.828.438 0 .875-.313 1.157-.578.046.578.39.578.53.578.126 0 .376 0 .704-.39zm.193.531h1.89v-.125c-.469-.016-.61-.078-.61-.547v-4.781l-.03-.016c-.422.14-.844.25-1.266.36v.124c.094 0 .156-.015.266-.015.312 0 .359.125.359.484v3.813c0 .453-.14.547-.61.578ZM164.258 48.83v-1.86h-.187c-.078.594-.219.766-.875.766h-1.156v-1.782c0-.234.047-.265.25-.265h1.093c.891 0 1.094.125 1.22.828h.202l-.031-1.14h-4.25v.156c.5.03.703.078.703.718v3.47c0 .655-.094.765-.703.796v.156h2.25v-.156c-.578-.016-.734-.11-.734-.719v-1.734h1.156c.61.015.797.094.875.765zm2.573-1.844c-1.062 0-1.718.875-1.718 1.86 0 1.077.718 1.905 1.75 1.905 1.218 0 1.78-1.109 1.78-1.906 0-1.156-.75-1.86-1.812-1.86zm.141 3.547c-.953 0-1.14-1.47-1.14-2.063 0-.844.437-1.25.937-1.25.734 0 1.156.875 1.156 1.86 0 1.14-.547 1.453-.953 1.453zm2.516-.532c0 .453-.125.47-.563.547v.125h1.906v-.125c-.406-.015-.671-.047-.671-.594v-1.796c0-.266.343-.657.546-.657.188 0 .266.282.547.282.188 0 .313-.157.313-.36 0-.265-.172-.437-.438-.437-.312 0-.578.172-.953.734h-.015v-.703l-.047-.031c-.391.172-.782.312-1.172.437v.125a1.15 1.15 0 0 1 .265-.031c.125 0 .282.016.282.484zm6.617-2.921v.109c.203.047.36.078.36.265 0 .094-.048.313-.141.516l-.72 1.781-.64-1.718c-.125-.313-.172-.407-.172-.547 0-.235.203-.25.47-.297v-.11h-1.626v.11c.328.047.422.094.719 1l-.735 1.594c-.359-1.016-.843-2.032-.843-2.313 0-.234.187-.266.375-.281v-.11h-1.438v.11c.203.015.266.125.422.515l1.078 2.735c.11.265.156.344.203.344.047 0 .094-.079.203-.313l.891-1.922.734 1.89c.11.298.125.345.188.345.062 0 .094-.079.234-.391l1.094-2.766c.125-.297.172-.375.328-.437v-.11Zm3.51 2.609c0 .234-.031.344-.265.453a1.28 1.28 0 0 1-.5.14c-.297 0-.532-.234-.532-.624v-.016c0-.266.094-.719 1.297-1.11Zm1.235.453a.485.485 0 0 1-.36.156c-.234 0-.234-.234-.234-.469v-1.562c0-.469 0-1.281-1.188-1.281-.922 0-1.297.578-1.297.89 0 .141.094.36.344.36a.36.36 0 0 0 .36-.344c0-.078-.047-.188-.047-.313 0-.25.312-.39.578-.39.234 0 .61.078.61.656v.484c-1.313.516-2 .797-2 1.594 0 .531.421.828.843.828.437 0 .875-.312 1.156-.578.047.578.39.578.531.578.125 0 .375 0 .704-.39zm.63-.141c0 .453-.125.47-.563.547v.125h1.906v-.125c-.406-.015-.671-.047-.671-.594v-1.796c0-.266.343-.657.546-.657.188 0 .266.282.547.282.188 0 .313-.157.313-.36 0-.265-.172-.437-.438-.437-.312 0-.578.172-.953.734h-.015v-.703l-.047-.031c-.391.172-.782.312-1.172.437v.125a1.15 1.15 0 0 1 .265-.031c.125 0 .282.016.282.484zm4.773-.141c-.062.282-.375.47-.703.47-.531 0-1.11-.438-1.11-1.626 0-1.093.547-1.484.985-1.484.375 0 .766.25.828.797zm1.203.344a.422.422 0 0 1-.14.016c-.391 0-.391-.156-.391-.453V45.22l-.031-.016c-.391.141-.782.25-1.188.36v.125h.203c.344 0 .344.156.344.406v1.234c-.266-.218-.5-.343-.844-.343-.906 0-1.656.922-1.656 1.968 0 1.641 1.14 1.797 1.453 1.797.594 0 .89-.297 1.031-.515h.016v.5l.031.015c.422-.156.797-.28 1.172-.422zm3.297-2.109c.031-.453.547-.594.813-.594.718 0 1.015.813 1.015 1.563 0 .531-.14 1.437-1.062 1.437-.188 0-.766-.109-.766-.39zm-.672 2.14c0 .298.844.516 1.25.516 1.469 0 1.953-1.265 1.953-1.984 0-.86-.468-1.781-1.437-1.781-.594 0-1.031.468-1.078.656h-.016V45.22l-.031-.016c-.39.141-.781.25-1.156.36v.125h.171c.344 0 .344.156.344.406zm3.579.438h1.906v-.125c-.563-.031-.594-.156-.594-.687v-2.844l-.031-.031c-.422.156-.829.312-1.25.453v.11c.109-.016.218-.032.328-.032.125 0 .28.016.28.484v1.86c0 .625-.14.672-.64.687zm.5-5.062c0 .156.109.422.406.422a.407.407 0 0 0 .406-.422.403.403 0 0 0-.406-.407c-.282 0-.407.266-.407.407zm3.895 4.078c0 .234-.031.344-.265.453a1.28 1.28 0 0 1-.5.14c-.297 0-.532-.234-.532-.624v-.016c0-.266.094-.719 1.297-1.11Zm1.235.453a.485.485 0 0 1-.36.156c-.234 0-.234-.234-.234-.469v-1.562c0-.469 0-1.281-1.188-1.281-.922 0-1.297.578-1.297.89 0 .141.094.36.344.36a.36.36 0 0 0 .36-.344c0-.078-.047-.188-.047-.313 0-.25.312-.39.578-.39.234 0 .61.078.61.656v.484c-1.313.516-2 .797-2 1.594 0 .531.421.828.843.828.437 0 .875-.312 1.156-.578.047.578.39.578.531.578.125 0 .375 0 .704-.39zm2.536-1.984-.031-1.094h-.078c-.032.031-.063.094-.141.094-.14 0-.39-.172-.734-.172-.782 0-1.125.531-1.125.984 0 .594.437.89.937 1.172l.469.266c.25.14.406.328.406.578 0 .468-.375.593-.64.593-.782 0-.938-.703-1.032-1.125h-.125v1.25h.094c.047-.078.078-.093.187-.093h.016c.219 0 .547.14.906.14.516 0 1.157-.328 1.157-1.03 0-.485-.282-.704-.672-.938l-.86-.516c-.297-.172-.343-.406-.343-.563 0-.218.171-.53.609-.53.344 0 .703.171.89.984zm0 0"/><path fill="none" stroke="#00ADEF" stroke-miterlimit="3.864" stroke-width=".5" d="m155.395 93.797 3.324 9.129"/><path fill="#00ADEF" d="m157.188 94.336-2.981-3.809.164 4.836 2.816-1.027"/></svg>