<svg xmlns="http://www.w3.org/2000/svg" width="326.32" height="102.44" viewBox="0 0 244.74 76.83"><path fill="none" stroke="#000" stroke-miterlimit="10" stroke-width=".399" d="M40.082 29.55c0-5.87-4.758-10.628-10.629-10.628-5.871 0-10.629 4.758-10.629 10.629 0 5.87 4.758 10.629 10.63 10.629 5.87 0 10.628-4.758 10.628-10.63Zm0 0"/><path d="M32.425 27.917c0-1.031-1.031-1.953-2.469-1.953h-3.703v.328h.25c.797 0 .828.11.828.485v5.547c0 .375-.031.484-.828.484h-.25v.328c.36-.031 1.14-.031 1.531-.031.407 0 1.188 0 1.563.031v-.328h-.25c-.813 0-.828-.11-.828-.484v-2.5h1.765c1.266 0 2.39-.86 2.39-1.907zm-1.078 0c0 .5 0 1.625-1.672 1.625h-1.438v-2.828c0-.344.016-.422.5-.422h.938c1.672 0 1.672 1.11 1.672 1.625zM11.336 29.55a2.832 2.832 0 0 0-2.832-2.835 2.836 2.836 0 0 0-2.836 2.836 2.832 2.832 0 0 0 2.836 2.832 2.83 2.83 0 0 0 2.832-2.832Zm35.766-14.816a2.835 2.835 0 0 0-5.668 0 2.835 2.835 0 1 0 5.668 0Zm6.136 14.816a2.836 2.836 0 1 0-5.672 0 2.832 2.832 0 0 0 2.836 2.833 2.832 2.832 0 0 0 2.836-2.832ZM32.29 8.602a2.836 2.836 0 1 0-5.673 0 2.835 2.835 0 0 0 2.836 2.832 2.835 2.835 0 0 0 2.836-2.832Zm0 41.898a2.836 2.836 0 1 0-5.672 0 2.836 2.836 0 0 0 5.671 0Zm0 0"/><path fill="none" stroke="#000" stroke-miterlimit="10" stroke-width=".399" d="M97.371 29.55c0-5.925-4.805-10.726-10.726-10.726-5.926 0-10.73 4.801-10.73 10.727s4.804 10.726 10.73 10.726c5.921 0 10.726-4.8 10.726-10.726Zm0 0"/><path d="M87.498 31.183c0-1.047-.687-1.906-1.562-2.125l-1.344-.328a1.36 1.36 0 0 1-1.062-1.328c0-.735.562-1.375 1.375-1.375 1.765 0 1.984 1.718 2.046 2.203.016.062.016.125.126.125.14 0 .14-.063.14-.266v-2.11c0-.171 0-.25-.11-.25-.077 0-.093.016-.156.141l-.374.594c-.313-.297-.75-.734-1.672-.734a2.024 2.024 0 0 0-2.047 2.047c0 .859.547 1.625 1.375 1.922.11.03.64.156 1.375.343.297.063.61.14.89.532.235.28.328.625.328.968 0 .75-.515 1.5-1.406 1.5-.297 0-1.094-.047-1.656-.562-.61-.578-.64-1.25-.656-1.625 0-.11-.094-.11-.125-.11-.125 0-.125.079-.125.266v2.11c0 .171 0 .25.11.25.077 0 .077-.032.155-.141 0 0 .032-.047.375-.594.328.36 1 .734 1.938.734 1.234 0 2.062-1.03 2.062-2.187zm3.198 1.953v-.328c-.688 0-.735-.047-.735-.453v-3.86l-1.468.11v.328c.687 0 .78.062.78.578v2.828c0 .469-.124.469-.827.469v.328l1.156-.031c.375 0 .734.015 1.094.031zm-.578-6.344a.57.57 0 0 0-.563-.562.57.57 0 0 0-.562.562c0 .282.25.563.562.563a.56.56 0 0 0 .563-.563zM68.43 29.55a2.835 2.835 0 1 0-5.666-.002 2.835 2.835 0 0 0 5.666.003Zm42.093 0a2.832 2.832 0 0 0-2.832-2.835 2.836 2.836 0 0 0-2.836 2.836 2.832 2.832 0 0 0 2.836 2.832 2.83 2.83 0 0 0 2.832-2.832ZM89.477 8.504a2.835 2.835 0 1 0-5.668 0 2.835 2.835 0 0 0 5.668 0Zm0 42.094a2.835 2.835 0 1 0-2.832 2.836 2.835 2.835 0 0 0 2.832-2.836ZM19.35 59.941v-.266c-.485.016-.625.016-1.063.016-.437 0-.547 0-1.062-.016v.266c.922 0 .922.438.922.688v3.843l-3.266-4.687c-.078-.11-.094-.11-.266-.11H13.1v.266h.25c.437 0 .672.063.672.063v4.859c0 .234 0 .672-.922.672v.281c.5-.016.625-.031 1.062-.031.438 0 .563.015 1.047.031v-.281c-.922 0-.922-.438-.922-.672v-4.64l3.828 5.484c.079.109.125.109.172.109.14 0 .14-.078.14-.25v-4.937c0-.25 0-.688.923-.688zm2.908 4.203v-.547h-2.47v.547zm3.602.563v-.516h-.25v.484c0 .657-.281.985-.61.985-.593 0-.593-.781-.593-.953v-2.485h1.297v-.281h-1.297v-1.656h-.25c-.016.75-.328 1.672-1.203 1.703v.234h.781v2.485c0 1 .735 1.203 1.203 1.203.61 0 .922-.578.922-1.203zm4.957-2.485v-.281c-.296.016-.578.016-.687.016-.25 0-.531 0-.781-.016v.281c.406.016.406.328.406.375a.589.589 0 0 1-.063.25l-.921 2.157-1-2.36c-.063-.125-.063-.187-.063-.187 0-.235.313-.235.5-.235v-.281l-1 .016c-.031 0-.531 0-.89-.016v.281c.406 0 .578.016.687.25l1.422 3.344-.235.531c-.187.485-.453 1.094-1.03 1.094a.646.646 0 0 1-.407-.14c.062-.016.312-.079.312-.391 0-.235-.156-.375-.375-.375-.218 0-.375.14-.375.39 0 .407.375.735.844.735.578 0 .969-.516 1.188-1.016l1.625-3.812c.093-.235.265-.594.843-.61Zm5.019 1.657c0-1.141-.89-2.047-1.953-2.047-.484 0-.938.203-1.266.578v-.578l-1.343.109v.281c.64 0 .703.047.703.438v4.203c0 .422-.11.422-.703.422v.281c.421-.016.593-.031 1.03-.031.438 0 .548.015 1.032.031v-.281c-.594 0-.703 0-.703-.422v-1.484c.234.234.547.53 1.14.53 1.063 0 2.063-.859 2.063-2.03zm-.781 0c0 1.015-.61 1.812-1.344 1.812-.406 0-.734-.234-.953-.547-.125-.187-.125-.203-.125-.375v-1.984a1.39 1.39 0 0 1 1.187-.688c.704 0 1.235.797 1.235 1.782zm5.188.859c0-.063-.047-.11-.125-.11-.094 0-.125.063-.125.094a1.287 1.287 0 0 1-1.25.938c-.422 0-.797-.235-1-.547-.297-.438-.313-.984-.313-1.36h2.563c.203 0 .25 0 .25-.187 0-.922-.5-1.781-1.657-1.781-1.078 0-1.921.937-1.921 2.047 0 1.187.937 2.078 2.03 2.078 1.11 0 1.548-.953 1.548-1.172zm-.61-1.203h-2.187c.078-1.375.89-1.531 1.14-1.531.5 0 1.032.39 1.047 1.53zm8.575.609c0-.5-.187-.906-.39-1.172-.39-.5-.797-.593-1.39-.734l-.782-.188c-.719-.171-.953-.75-.953-1.14 0-.61.484-1.188 1.234-1.188 1.156 0 1.625.86 1.766 1.782.015.156.031.203.14.203.125 0 .125-.063.125-.25v-1.735c0-.172 0-.25-.109-.25-.063 0-.078 0-.14.11-.11.172-.016.047-.329.515-.14-.172-.61-.625-1.453-.625-1.062 0-1.812.813-1.812 1.735 0 .703.421 1.14.468 1.187.407.39.563.438 1.641.688.719.172.797.187 1.094.5 0 0 .328.328.328.859 0 .625-.453 1.297-1.266 1.297-.687 0-1.937-.297-2.015-1.781-.016-.125-.016-.188-.125-.188-.125 0-.125.078-.125.25v1.75c0 .172 0 .25.109.25.062 0 .062-.015.125-.125.125-.156.031-.047.328-.515.563.546 1.266.64 1.719.64 1.094 0 1.812-.906 1.812-1.875zm4.374.594c0-.063-.047-.11-.125-.11-.094 0-.125.063-.125.094a1.287 1.287 0 0 1-1.25.938c-.422 0-.797-.235-1-.547-.297-.438-.313-.984-.313-1.36h2.563c.203 0 .25 0 .25-.187 0-.922-.5-1.781-1.657-1.781-1.078 0-1.921.937-1.921 2.047 0 1.187.937 2.078 2.03 2.078 1.11 0 1.548-.953 1.548-1.172zm-.61-1.203h-2.187c.078-1.375.89-1.531 1.14-1.531.5 0 1.032.39 1.047 1.53zm8.379 2.281v-.281c-.469 0-.687 0-.703-.281v-1.72c0-.78 0-1.046-.297-1.374-.187-.219-.547-.328-.953-.328-.656 0-1.094.39-1.344.859-.11-.531-.469-.86-1.219-.86-.718 0-1.171.47-1.359.891v-.89l-1.312.109v.281c.609 0 .703.063.703.5v2.407c0 .406-.11.406-.703.406v.281c.421-.016.593-.031 1.03-.031.423 0 .548.015 1.016.031v-.281c-.593 0-.687 0-.687-.406v-1.641c0-.969.703-1.422 1.25-1.422.484 0 .656.344.656.984v2.079c0 .406-.11.406-.703.406v.281c.422-.016.594-.031 1.031-.031.438 0 .547.015 1.032.031v-.281c-.594 0-.704 0-.704-.406v-1.641c0-.969.704-1.422 1.25-1.422.485 0 .657.344.657.984v2.079c0 .406-.11.406-.703.406v.281c.437-.016.593-.031 1.03-.031.438 0 .548.015 1.032.031Zm2.485 0v-.281c-.593 0-.625-.047-.625-.39v-3.313l-1.297.109v.281c.578 0 .657.047.657.485v2.422c0 .406-.094.406-.688.406v.281c.406-.016.594-.031.984-.031.141 0 .532 0 .97.031zm-.515-5.422a.468.468 0 0 0-.485-.484.477.477 0 0 0-.484.484c0 .266.219.485.484.485a.477.477 0 0 0 .485-.485zm4.652 4.344c0-.094-.094-.094-.125-.094-.094 0-.094.016-.156.156-.204.625-.704.86-1.172.86-.578 0-1.313-.469-1.313-1.797 0-1.406.719-1.828 1.266-1.828.11 0 .594.015.937.25-.187.031-.375.156-.375.422 0 .234.188.406.422.406.235 0 .422-.156.422-.422 0-.562-.64-.906-1.422-.906-1.156 0-2.015.969-2.015 2.094 0 1.156.921 2.03 1.984 2.03 1.266 0 1.547-1.077 1.547-1.171zm4.628-.844c0-1.172-.937-2.11-2.047-2.11-1.14 0-2.046.97-2.046 2.11 0 1.125.937 2.016 2.03 2.016 1.157 0 2.063-.906 2.063-2.016zm-.78-.078c0 .328 0 .86-.22 1.25-.25.422-.672.594-1.047.594-.453 0-.828-.219-1.03-.578-.235-.375-.25-.844-.25-1.266 0-.328 0-.844.234-1.219a1.199 1.199 0 0 1 1.03-.593c.516 0 .891.296 1.063.593.22.39.22.844.22 1.219zm5.969 2v-.281c-.453 0-.688 0-.688-.281v-1.72c0-.75 0-1.015-.25-1.327-.218-.25-.562-.375-1-.375-.843 0-1.234.625-1.359.875v-.875l-1.313.109v.281c.61 0 .704.063.704.5v2.407c0 .406-.11.406-.704.406v.281c.422-.016.594-.031 1.032-.031.422 0 .547.015 1.015.031v-.281c-.593 0-.687 0-.687-.406v-1.641c0-.953.672-1.422 1.25-1.422.531 0 .64.438.64.984v2.079c0 .406-.093.406-.687.406v.281c.422-.016.594-.031 1.016-.031.437 0 .562.015 1.03.031zm5.076 0v-.281c-.609 0-.687-.063-.687-.5v-5.469l-1.344.11v.265c.625 0 .703.063.703.516v1.906c-.047-.047-.453-.531-1.156-.531-1.11 0-2.062.89-2.062 2.047 0 1.125.89 2.03 1.968 2.03.657 0 1.063-.374 1.219-.577v.578Zm-1.359-1.078c0 .156 0 .187-.14.375a1.259 1.259 0 0 1-1.047.578c-.391 0-.75-.219-.985-.594-.234-.39-.25-.922-.25-1.203 0-.422.063-.906.297-1.265a1.271 1.271 0 0 1 1.031-.563c.39 0 .75.188.985.531.109.14.109.157.109.328Zm6.561 1.078v-.281c-.61 0-.688-.063-.688-.5v-3.203l-1.359.109v.281c.61 0 .688.063.688.5v1.594c0 .797-.454 1.375-1.094 1.375-.75 0-.797-.39-.797-.875v-2.984l-1.36.109v.281c.704 0 .704.016.704.828v1.344c0 .578 0 .969.406 1.281.266.172.625.235.984.235.469 0 .922-.203 1.172-.735h.016v.735Zm4.061-1.078c0-.094-.094-.094-.125-.094-.094 0-.094.016-.156.156-.204.625-.704.86-1.172.86-.578 0-1.313-.469-1.313-1.797 0-1.406.719-1.828 1.266-1.828.11 0 .594.015.937.25-.187.031-.375.156-.375.422 0 .234.188.406.422.406.235 0 .422-.156.422-.422 0-.562-.64-.906-1.422-.906-1.156 0-2.015.969-2.015 2.094 0 1.156.921 2.03 1.984 2.03 1.266 0 1.547-1.077 1.547-1.171zm3.347-.031v-.516h-.25v.484c0 .657-.281.985-.61.985-.593 0-.593-.781-.593-.953v-2.485h1.297v-.281h-1.297v-1.656h-.25c-.016.75-.328 1.672-1.203 1.703v.234h.781v2.485c0 1 .735 1.203 1.203 1.203.61 0 .922-.578.922-1.203zm4.881-.813c0-1.172-.937-2.11-2.046-2.11-1.141 0-2.047.97-2.047 2.11 0 1.125.937 2.016 2.03 2.016 1.157 0 2.063-.906 2.063-2.016zm-.78-.078c0 .328 0 .86-.22 1.25-.25.422-.671.594-1.046.594-.454 0-.829-.219-1.032-.578-.234-.375-.25-.844-.25-1.266 0-.328 0-.844.235-1.219a1.199 1.199 0 0 1 1.03-.593c.517 0 .892.296 1.063.593.22.39.22.844.22 1.219zm4.406-1.422c0-.281-.265-.562-.671-.562-.547 0-.922.39-1.125.937h-.016v-.937l-1.281.109v.281c.609 0 .703.063.703.5v2.407c0 .406-.11.406-.703.406v.281c.484-.016.593-.031 1.062-.031l1.14.031v-.281h-.187c-.656 0-.672-.094-.672-.438v-1.343c0-.375.094-1.688 1.125-1.688a.397.397 0 0 0-.171.344c0 .234.187.39.406.39a.39.39 0 0 0 .39-.406zm0 0"/><path fill="none" stroke="#000" stroke-miterlimit="10" stroke-width=".399" d="M168.637 29.55c0-5.87-4.762-10.628-10.63-10.628-5.87 0-10.632 4.758-10.632 10.629 0 5.87 4.762 10.629 10.633 10.629 5.867 0 10.629-4.758 10.629-10.63Zm0 0"/><path d="M161.117 31.214c0-.906-.86-1.703-2.016-1.828 1.016-.203 1.735-.875 1.735-1.64 0-.922-.953-1.782-2.328-1.782h-3.844v.328h.25c.813 0 .828.11.828.485v5.547c0 .375-.016.484-.828.484h-.25v.328h4.125c1.39 0 2.328-.937 2.328-1.922Zm-1.297-3.469c0 .672-.515 1.547-1.672 1.547h-1.53v-2.578c0-.344.03-.422.515-.422h1.297c1.03 0 1.39.89 1.39 1.453zm.25 3.454c0 .75-.547 1.609-1.625 1.609h-1.312c-.485 0-.516-.078-.516-.422v-2.86h1.984c1.032 0 1.47.97 1.47 1.673zm-20.18-1.649a2.835 2.835 0 1 0-5.666-.002 2.835 2.835 0 0 0 5.667.003Zm41.9 0a2.835 2.835 0 1 0-5.67-.001 2.835 2.835 0 0 0 5.67.002ZM160.84 8.602a2.835 2.835 0 1 0-5.668 0 2.835 2.835 0 0 0 5.668 0Zm0 0"/><path fill="none" stroke="#000" stroke-dasharray="0.3985 0.99628" stroke-miterlimit="10" stroke-width=".399" d="M160.84 50.5a2.835 2.835 0 1 0-2.832 2.836 2.835 2.835 0 0 0 2.832-2.836Zm0 0"/><path fill="none" stroke="#000" stroke-miterlimit="10" stroke-width=".399" d="M225.922 29.55c0-5.925-4.8-10.726-10.727-10.726-5.925 0-10.726 4.801-10.726 10.727s4.8 10.726 10.726 10.726c5.926 0 10.727-4.8 10.727-10.726Zm0 0"/><path d="M216.051 31.183c0-1.047-.687-1.906-1.562-2.125l-1.344-.328a1.36 1.36 0 0 1-1.062-1.328c0-.735.562-1.375 1.375-1.375 1.765 0 1.984 1.718 2.047 2.203.015.062.015.125.125.125.14 0 .14-.063.14-.266v-2.11c0-.171 0-.25-.11-.25-.077 0-.093.016-.155.141l-.375.594c-.313-.297-.75-.734-1.672-.734a2.024 2.024 0 0 0-2.047 2.047c0 .859.547 1.625 1.375 1.922.11.03.64.156 1.375.343.297.063.61.14.89.532.235.28.329.625.329.968 0 .75-.516 1.5-1.407 1.5-.297 0-1.094-.047-1.656-.562-.61-.578-.64-1.25-.656-1.625 0-.11-.094-.11-.125-.11-.125 0-.125.079-.125.266v2.11c0 .171 0 .25.11.25.077 0 .077-.032.155-.141 0 0 .032-.047.375-.594.329.36 1 .734 1.938.734 1.234 0 2.062-1.03 2.062-2.187zm3.198 1.953v-.328c-.688 0-.735-.047-.735-.453v-3.86l-1.468.11v.328c.687 0 .78.062.78.578v2.828c0 .469-.124.469-.827.469v.328l1.156-.031c.375 0 .734.015 1.094.031zm-.578-6.344a.57.57 0 0 0-.563-.562.57.57 0 0 0-.562.562c0 .282.25.563.562.563a.56.56 0 0 0 .563-.563zm-21.687 2.758a2.836 2.836 0 1 0-5.672 0 2.832 2.832 0 0 0 2.836 2.833 2.832 2.832 0 0 0 2.836-2.832Zm42.094 0a2.835 2.835 0 1 0-5.666-.002 2.835 2.835 0 0 0 5.666.003ZM218.031 8.504a2.836 2.836 0 1 0-5.672 0 2.835 2.835 0 0 0 2.836 2.832 2.835 2.835 0 0 0 2.836-2.832Zm0 42.094a2.836 2.836 0 1 0-5.671 0 2.836 2.836 0 0 0 5.671 0Zm-70.632 10.749c0-.89-.922-1.672-2.172-1.672h-3.235v.266h.204c.703 0 .718.11.718.438v4.718c0 .344-.015.438-.718.438h-.204v.281c.407-.031.907-.031 1.329-.031.406 0 .906 0 1.312.031v-.281h-.203c-.688 0-.703-.094-.703-.438v-2.11h1.5c1.25 0 2.172-.78 2.172-1.64zm-.922 0c0 .407 0 1.39-1.485 1.39h-1.296v-2.421c0-.312.015-.375.437-.375h.86c1.484 0 1.484 1 1.484 1.406zm4.01 2.797v-.547h-2.47v.547zm3.603.563v-.516h-.25v.484c0 .657-.282.985-.61.985-.594 0-.594-.781-.594-.953v-2.485h1.297v-.281h-1.297v-1.656h-.25c-.016.75-.328 1.672-1.203 1.703v.234h.781v2.485c0 1 .734 1.203 1.203 1.203.61 0 .922-.578.922-1.203zm4.956-2.485v-.281c-.296.016-.578.016-.687.016-.25 0-.531 0-.781-.016v.281c.406.016.406.328.406.375a.589.589 0 0 1-.063.25L157 65.004l-1-2.36c-.063-.125-.063-.187-.063-.187 0-.235.313-.235.5-.235v-.281l-1 .016c-.031 0-.531 0-.89-.016v.281c.406 0 .578.016.687.25l1.422 3.344-.235.531c-.187.485-.453 1.094-1.03 1.094a.646.646 0 0 1-.407-.14c.062-.016.312-.079.312-.391 0-.235-.156-.375-.375-.375-.218 0-.375.14-.375.39 0 .407.375.735.844.735.578 0 .969-.516 1.188-1.016l1.625-3.812c.093-.235.265-.594.843-.61Zm5.019 1.657c0-1.141-.89-2.047-1.953-2.047-.484 0-.938.203-1.266.578v-.578l-1.343.109v.281c.64 0 .703.047.703.438v4.203c0 .422-.11.422-.703.422v.281c.422-.016.593-.031 1.03-.031.438 0 .548.015 1.032.031v-.281c-.594 0-.703 0-.703-.422v-1.484c.234.234.547.53 1.14.53 1.063 0 2.063-.859 2.063-2.03zm-.781 0c0 1.015-.61 1.812-1.344 1.812-.406 0-.734-.234-.953-.547-.125-.187-.125-.203-.125-.375v-1.984a1.39 1.39 0 0 1 1.188-.688c.703 0 1.234.797 1.234 1.782zm5.188.859c0-.063-.047-.11-.125-.11-.094 0-.125.063-.125.094a1.287 1.287 0 0 1-1.25.938c-.422 0-.797-.235-1-.547-.297-.438-.313-.984-.313-1.36h2.563c.203 0 .25 0 .25-.187 0-.922-.5-1.781-1.656-1.781-1.079 0-1.922.937-1.922 2.047 0 1.187.937 2.078 2.03 2.078 1.11 0 1.548-.953 1.548-1.172zm-.61-1.203h-2.187c.078-1.375.89-1.531 1.14-1.531.5 0 1.032.39 1.047 1.53zm8.575.609c0-.5-.187-.906-.39-1.172-.39-.5-.797-.593-1.39-.734l-.782-.188c-.719-.171-.953-.75-.953-1.14 0-.61.484-1.188 1.234-1.188 1.156 0 1.625.86 1.766 1.782.015.156.031.203.14.203.125 0 .125-.063.125-.25v-1.735c0-.172 0-.25-.109-.25-.063 0-.078 0-.14.11-.11.172-.016.047-.329.515-.14-.172-.61-.625-1.453-.625-1.062 0-1.812.813-1.812 1.735 0 .703.422 1.14.468 1.187.407.39.563.438 1.641.688.719.172.797.187 1.094.5 0 0 .328.328.328.859 0 .625-.453 1.297-1.266 1.297-.687 0-1.937-.297-2.015-1.781-.016-.125-.016-.188-.125-.188-.125 0-.125.078-.125.25v1.75c0 .172 0 .25.109.25.063 0 .063-.015.125-.125.125-.156.031-.047.328-.515.563.546 1.266.64 1.719.64 1.094 0 1.812-.906 1.812-1.875zm4.373.594c0-.063-.046-.11-.124-.11-.094 0-.125.063-.125.094a1.287 1.287 0 0 1-1.25.938c-.422 0-.797-.235-1-.547-.297-.438-.313-.984-.313-1.36h2.563c.203 0 .25 0 .25-.187 0-.922-.5-1.781-1.656-1.781-1.079 0-1.922.937-1.922 2.047 0 1.187.937 2.078 2.03 2.078 1.11 0 1.548-.953 1.548-1.172zm-.609-1.203h-2.187c.078-1.375.89-1.531 1.14-1.531.5 0 1.032.39 1.047 1.53zm8.379 2.281v-.281c-.469 0-.688 0-.703-.281v-1.72c0-.78 0-1.046-.297-1.374-.188-.219-.547-.328-.953-.328-.656 0-1.094.39-1.344.859-.11-.531-.469-.86-1.219-.86-.718 0-1.171.47-1.359.891v-.89l-1.313.109v.281c.61 0 .704.063.704.5v2.407c0 .406-.11.406-.703.406v.281c.421-.016.593-.031 1.03-.031.423 0 .548.015 1.016.031v-.281c-.593 0-.687 0-.687-.406v-1.641c0-.969.703-1.422 1.25-1.422.484 0 .656.344.656.984v2.079c0 .406-.11.406-.703.406v.281c.422-.016.594-.031 1.031-.031.438 0 .547.015 1.032.031v-.281c-.594 0-.704 0-.704-.406v-1.641c0-.969.704-1.422 1.25-1.422.485 0 .657.344.657.984v2.079c0 .406-.11.406-.703.406v.281c.437-.016.593-.031 1.03-.031.438 0 .548.015 1.032.031Zm2.485 0v-.281c-.594 0-.625-.047-.625-.39v-3.313l-1.297.109v.281c.578 0 .657.047.657.485v2.422c0 .406-.094.406-.688.406v.281c.406-.016.594-.031.984-.031.141 0 .532 0 .97.031zm-.515-5.422a.468.468 0 0 0-.485-.484.477.477 0 0 0-.484.484c0 .266.219.485.484.485a.477.477 0 0 0 .485-.485zm4.652 4.344c0-.094-.094-.094-.125-.094-.094 0-.094.016-.156.156-.204.625-.704.86-1.172.86-.578 0-1.313-.469-1.313-1.797 0-1.406.719-1.828 1.266-1.828.11 0 .594.015.937.25-.187.031-.375.156-.375.422 0 .234.188.406.422.406.234 0 .422-.156.422-.422 0-.562-.64-.906-1.422-.906-1.156 0-2.016.969-2.016 2.094 0 1.156.922 2.03 1.985 2.03 1.266 0 1.547-1.077 1.547-1.171zm4.628-.844c0-1.172-.937-2.11-2.047-2.11-1.14 0-2.046.97-2.046 2.11 0 1.125.937 2.016 2.03 2.016 1.157 0 2.063-.906 2.063-2.016zm-.78-.078c0 .328 0 .86-.22 1.25-.25.422-.672.594-1.047.594-.453 0-.828-.219-1.03-.578-.235-.375-.25-.844-.25-1.266 0-.328 0-.844.234-1.219a1.199 1.199 0 0 1 1.03-.593c.516 0 .891.296 1.063.593.22.39.22.844.22 1.219zm5.969 2v-.281c-.453 0-.688 0-.688-.281v-1.72c0-.75 0-1.015-.25-1.327-.218-.25-.562-.375-1-.375-.843 0-1.234.625-1.359.875v-.875l-1.313.109v.281c.61 0 .704.063.704.5v2.407c0 .406-.11.406-.703.406v.281c.421-.016.593-.031 1.03-.031.423 0 .548.015 1.016.031v-.281c-.593 0-.687 0-.687-.406v-1.641c0-.953.672-1.422 1.25-1.422.531 0 .64.438.64.984v2.079c0 .406-.093.406-.687.406v.281c.422-.016.594-.031 1.016-.031.437 0 .562.015 1.03.031zm5.076 0v-.281c-.609 0-.687-.063-.687-.5v-5.469l-1.344.11v.265c.625 0 .703.063.703.516v1.906c-.047-.047-.453-.531-1.156-.531-1.11 0-2.063.89-2.063 2.047 0 1.125.891 2.03 1.97 2.03.655 0 1.062-.374 1.218-.577v.578Zm-1.359-1.078c0 .156 0 .187-.14.375a1.259 1.259 0 0 1-1.048.578c-.39 0-.75-.219-.984-.594-.234-.39-.25-.922-.25-1.203 0-.422.063-.906.297-1.265a1.271 1.271 0 0 1 1.031-.563c.39 0 .75.188.985.531.109.14.109.157.109.328Zm6.561 1.078v-.281c-.61 0-.688-.063-.688-.5v-3.203l-1.359.109v.281c.61 0 .688.063.688.5v1.594c0 .797-.454 1.375-1.094 1.375-.75 0-.797-.39-.797-.875v-2.984l-1.36.109v.281c.704 0 .704.016.704.828v1.344c0 .578 0 .969.406 1.281.266.172.625.235.984.235.469 0 .922-.203 1.172-.735h.016v.735Zm4.061-1.078c0-.094-.094-.094-.125-.094-.094 0-.094.016-.156.156-.204.625-.704.86-1.172.86-.578 0-1.313-.469-1.313-1.797 0-1.406.719-1.828 1.266-1.828.11 0 .594.015.937.25-.187.031-.375.156-.375.422 0 .234.188.406.422.406.235 0 .422-.156.422-.422 0-.562-.64-.906-1.422-.906-1.156 0-2.015.969-2.015 2.094 0 1.156.921 2.03 1.984 2.03 1.266 0 1.547-1.077 1.547-1.171zm3.347-.031v-.516h-.25v.484c0 .657-.281.985-.61.985-.593 0-.593-.781-.593-.953v-2.485h1.297v-.281h-1.297v-1.656h-.25c-.016.75-.328 1.672-1.203 1.703v.234h.781v2.485c0 1 .734 1.203 1.203 1.203.61 0 .922-.578.922-1.203zm4.881-.813c0-1.172-.937-2.11-2.046-2.11-1.141 0-2.047.97-2.047 2.11 0 1.125.937 2.016 2.03 2.016 1.157 0 2.063-.906 2.063-2.016zm-.78-.078c0 .328 0 .86-.22 1.25-.25.422-.671.594-1.046.594-.454 0-.829-.219-1.032-.578-.234-.375-.25-.844-.25-1.266 0-.328 0-.844.235-1.219a1.199 1.199 0 0 1 1.03-.593c.517 0 .892.296 1.063.593.22.39.22.844.22 1.219zm4.406-1.422c0-.281-.265-.562-.671-.562-.547 0-.922.39-1.125.937h-.016v-.937l-1.281.109v.281c.609 0 .703.063.703.5v2.407c0 .406-.11.406-.703.406v.281c.484-.016.593-.031 1.062-.031l1.14.031v-.281h-.187c-.656 0-.672-.094-.672-.438v-1.343c0-.375.094-1.688 1.125-1.688a.397.397 0 0 0-.171.344c0 .234.187.39.406.39a.39.39 0 0 0 .39-.406zm0 0"/></svg>