<svg xmlns="http://www.w3.org/2000/svg" xmlns:xlink="http://www.w3.org/1999/xlink" width="1800" height="1000" viewBox="0 0 1694.118 1000"><defs><linearGradient id="a"><stop offset="0" style="stop-color:#000;stop-opacity:0"/><stop offset="1" style="stop-color:#000;stop-opacity:1"/></linearGradient><linearGradient xlink:href="#a" id="e" x1="-486.503" x2="198.002" y1="1345.252" y2="1345.252" gradientTransform="translate(1323.584 -216.303) scale(.5721)" gradientUnits="userSpaceOnUse"/><linearGradient xlink:href="#a" id="d" x1="-43.254" x2="198.002" y1="1345.252" y2="1345.252" gradientTransform="translate(551.997 -206.25) scale(.5721)" gradientUnits="userSpaceOnUse"/></defs><g transform="translate(0 -52.362)"><g id="c" transform="translate(-154.611 -526.92)"><circle cx="58.132" cy="674.234" r="23.594" style="fill:#fff;fill-opacity:1;fill-rule:evenodd;stroke:#000;stroke-width:3;stroke-linecap:butt;stroke-linejoin:miter;stroke-opacity:1;stroke-miterlimit:4;stroke-dasharray:none"/><path d="M58.133 654.11a20.123 20.123 0 0 0-20.124 20.124 20.123 20.123 0 0 0 .265 3.192 27.064 27.064 0 0 1 24.038-22.868 20.123 20.123 0 0 0-4.18-.447z" style="fill:#000;fill-opacity:.25882354;fill-rule:evenodd;stroke:none;stroke-width:1.18343043px;stroke-linecap:butt;stroke-linejoin:miter;stroke-opacity:1"/></g><g id="b" transform="translate(-125.353 54.808) scale(.09783)"><circle cx="282.697" cy="317.707" r="241.161" style="fill:red;fill-rule:evenodd;stroke:#000;stroke-width:30.66413299;stroke-linecap:butt;stroke-linejoin:miter;stroke-opacity:1;stroke-miterlimit:4;stroke-dasharray:none"/><path d="M282.697 112.02a205.688 205.688 0 0 0-205.69 205.687 205.688 205.688 0 0 0 2.712 32.629 276.634 276.634 0 0 1 245.697-233.742 205.688 205.688 0 0 0-42.719-4.574Z" style="fill:#000;fill-opacity:.25882354;fill-rule:evenodd;stroke:none;stroke-width:1.18343043px;stroke-linecap:butt;stroke-linejoin:miter;stroke-opacity:1"/></g><g id="h" transform="translate(51.46 -488.989)"><use xlink:href="#b" width="100%" height="100%" transform="translate(445.84 1081.592)"/><use xlink:href="#c" width="100%" height="100%" transform="translate(277.353 852.301)"/><use xlink:href="#c" width="100%" height="100%" transform="translate(513.267 833.117)"/><use xlink:href="#c" width="100%" height="100%" transform="translate(284.779 956.323)"/><use xlink:href="#b" width="100%" height="100%" transform="translate(333.447 853.087)"/><use xlink:href="#c" width="100%" height="100%" transform="translate(523.46 939.657)"/><use xlink:href="#c" width="100%" height="100%" transform="translate(506.11 970.555)"/><use xlink:href="#c" width="100%" height="100%" transform="translate(300.127 812.677)"/><use xlink:href="#c" width="100%" height="100%" transform="translate(270.215 907.25)"/><use xlink:href="#c" width="100%" height="100%" transform="translate(389.987 1027.386)"/><use xlink:href="#c" width="100%" height="100%" transform="translate(477.42 999.687)"/><use xlink:href="#c" width="100%" height="100%" transform="translate(316.11 834.025)"/><use xlink:href="#b" width="100%" height="100%" transform="translate(296.774 996.864)"/><use xlink:href="#c" width="100%" height="100%" transform="translate(303.032 902.424)"/><use xlink:href="#c" width="100%" height="100%" transform="translate(310.624 992.276)"/><use xlink:href="#c" width="100%" height="100%" transform="translate(363.327 772.286)"/><use xlink:href="#b" width="100%" height="100%" transform="translate(490.055 863.258)"/><use xlink:href="#c" width="100%" height="100%" transform="translate(356.272 807.869)"/><use xlink:href="#c" width="100%" height="100%" transform="translate(455.82 779.383)"/><use xlink:href="#c" width="100%" height="100%" transform="translate(413.802 772.41)"/><use xlink:href="#c" width="100%" height="100%" transform="translate(451.528 835.139)"/><use xlink:href="#c" width="100%" height="100%" transform="translate(417.493 1002.672)"/><use xlink:href="#c" width="100%" height="100%" transform="translate(522.1 862.414)"/><use xlink:href="#c" width="100%" height="100%" transform="translate(495.733 929.612)"/><use xlink:href="#b" width="100%" height="100%" transform="translate(477.092 1014.35)"/><use xlink:href="#b" width="100%" height="100%" transform="translate(447.68 862.834)"/><use xlink:href="#c" width="100%" height="100%" transform="translate(470.071 826.251)"/><use xlink:href="#b" width="100%" height="100%" transform="translate(531.946 961.596)"/><use xlink:href="#b" width="100%" height="100%" transform="translate(387.873 855.218)"/><use xlink:href="#b" width="100%" height="100%" transform="translate(356.492 1079.265)"/><use xlink:href="#c" width="100%" height="100%" transform="translate(351.753 992.07)"/><use xlink:href="#b" width="100%" height="100%" transform="translate(327.24 1029.133)"/><use xlink:href="#c" width="100%" height="100%" transform="translate(388.946 992.07)"/><use xlink:href="#b" width="100%" height="100%" transform="translate(290.646 933.657)"/><use xlink:href="#c" width="100%" height="100%" transform="translate(322.753 874.062)"/><use xlink:href="#b" width="100%" height="100%" transform="translate(490.446 917.408)"/><use xlink:href="#b" width="100%" height="100%" transform="translate(344.215 896.657)"/><use xlink:href="#b" width="100%" height="100%" transform="translate(338.48 968.165)"/><use xlink:href="#c" width="100%" height="100%" transform="translate(415.205 816.573)"/><use xlink:href="#c" width="100%" height="100%" transform="translate(447.857 843.696)"/><use xlink:href="#c" width="100%" height="100%" transform="translate(451.837 975.795)"/><use xlink:href="#b" width="100%" height="100%" transform="translate(419.79 1022.554)"/><use xlink:href="#c" width="100%" height="100%" transform="translate(384.863 949.887)"/><use xlink:href="#c" width="100%" height="100%" transform="translate(490.497 894.07)"/><use xlink:href="#c" width="100%" height="100%" transform="translate(453.18 879.525)"/><use xlink:href="#b" width="100%" height="100%" transform="translate(461.233 983.202)"/><use xlink:href="#c" width="100%" height="100%" transform="translate(332.386 937.471)"/><use xlink:href="#b" width="100%" height="100%" transform="translate(359.19 1018.278)"/><use xlink:href="#c" width="100%" height="100%" transform="translate(384.026 837.842)"/><use xlink:href="#c" width="100%" height="100%" transform="translate(429.25 938.83)"/><use xlink:href="#c" width="100%" height="100%" transform="translate(428.796 895.722)"/><use xlink:href="#b" width="100%" height="100%" transform="translate(400.474 978.571)"/><use xlink:href="#b" width="100%" height="100%" transform="translate(418.562 918.838)"/><use xlink:href="#c" width="100%" height="100%" transform="translate(361.119 871.32)"/><use xlink:href="#c" width="100%" height="100%" transform="translate(365.39 914.182)"/><use xlink:href="#c" width="100%" height="100%" transform="translate(391.4 883.387)"/></g><path id="f" d="M527.251 563.373H650.98" style="fill:none;fill-rule:evenodd;stroke:url(#d);stroke-width:17.79999924;stroke-linecap:butt;stroke-linejoin:miter;stroke-miterlimit:4;stroke-dasharray:none;stroke-opacity:1;marker-end:url(#marker1384)"/><use xlink:href="#c" width="100%" height="100%" transform="translate(178.014 410.847)"/><path id="g" d="M1044.838 553.321h377.728" style="fill:none;fill-rule:evenodd;stroke:url(#e);stroke-width:17.79999924;stroke-linecap:butt;stroke-linejoin:miter;stroke-miterlimit:4;stroke-dasharray:none;stroke-opacity:1;marker-end:url(#marker17327)"/><use xlink:href="#f" width="100%" height="100%" transform="rotate(-30 576.26 -412.66)"/><use xlink:href="#f" width="100%" height="100%" transform="rotate(30 602.612 1527.746)"/><use xlink:href="#c" width="100%" height="100%" transform="translate(1559.877 248.798)"/><use xlink:href="#c" width="100%" height="100%" transform="translate(1583.64 405.734)"/><use xlink:href="#c" width="100%" height="100%" transform="translate(1560.923 576.159)"/><g transform="translate(96.644 -375.88)"><use xlink:href="#c" width="100%" height="100%" transform="translate(1322.819 599.132)"/><use xlink:href="#c" width="100%" height="100%" transform="translate(1248.306 421.865)"/><use xlink:href="#b" width="100%" height="100%" transform="translate(1225.023 643.286)"/><use xlink:href="#c" width="100%" height="100%" transform="translate(1377.268 515.899)"/><use xlink:href="#b" width="100%" height="100%" transform="translate(1195.99 539.082)"/><use xlink:href="#c" width="100%" height="100%" transform="translate(1214.6 446.503)"/><use xlink:href="#c" width="100%" height="100%" transform="translate(1287.692 415.913)"/><use xlink:href="#c" width="100%" height="100%" transform="translate(1185.953 514.901)"/><use xlink:href="#c" width="100%" height="100%" transform="translate(1199.117 554.784)"/><use xlink:href="#c" width="100%" height="100%" transform="translate(1218.82 495.162)"/><use xlink:href="#c" width="100%" height="100%" transform="translate(1292.372 603.029)"/><use xlink:href="#c" width="100%" height="100%" transform="translate(1346.856 576.264)"/><use xlink:href="#c" width="100%" height="100%" transform="translate(1254.472 598.922)"/><use xlink:href="#c" width="100%" height="100%" transform="translate(1343.562 449.135)"/><use xlink:href="#c" width="100%" height="100%" transform="translate(1365.744 550.823)"/><use xlink:href="#b" width="100%" height="100%" transform="translate(1324.905 487.463)"/><use xlink:href="#c" width="100%" height="100%" transform="translate(1354.89 448.222)"/><use xlink:href="#c" width="100%" height="100%" transform="translate(1267.024 571.478)"/><use xlink:href="#b" width="100%" height="100%" transform="translate(1300.052 630.475)"/><use xlink:href="#b" width="100%" height="100%" transform="translate(1351.421 589.719)"/><use xlink:href="#c" width="100%" height="100%" transform="translate(1326.167 551.163)"/><use xlink:href="#b" width="100%" height="100%" transform="translate(1373.183 542.716)"/><use xlink:href="#b" width="100%" height="100%" transform="translate(1236.248 524.703)"/><use xlink:href="#b" width="100%" height="100%" transform="translate(1222.92 584.82)"/><use xlink:href="#c" width="100%" height="100%" transform="translate(1301.922 443.1)"/><use xlink:href="#c" width="100%" height="100%" transform="translate(1272.36 457.588)"/><use xlink:href="#b" width="100%" height="100%" transform="translate(1306.508 533.491)"/><use xlink:href="#c" width="100%" height="100%" transform="translate(1339.89 457.693)"/><use xlink:href="#c" width="100%" height="100%" transform="translate(1345.213 493.522)"/><use xlink:href="#c" width="100%" height="100%" transform="translate(1234.672 560.201)"/><use xlink:href="#c" width="100%" height="100%" transform="translate(1249.829 492.396)"/><use xlink:href="#c" width="100%" height="100%" transform="translate(1257.424 528.178)"/><use xlink:href="#b" width="100%" height="100%" transform="translate(1290.609 597.504)"/><use xlink:href="#c" width="100%" height="100%" transform="translate(1314.07 508.884)"/><use xlink:href="#c" width="100%" height="100%" transform="translate(1283.433 497.383)"/></g><g transform="translate(80.415 -572.102)"><use xlink:href="#c" width="100%" height="100%" transform="translate(1282.578 1171.91)"/><use xlink:href="#b" width="100%" height="100%" transform="translate(1251.39 1342.397)"/><use xlink:href="#c" width="100%" height="100%" transform="translate(1290.234 1311.35)"/><use xlink:href="#c" width="100%" height="100%" transform="translate(1268.684 1300.52)"/><use xlink:href="#c" width="100%" height="100%" transform="translate(1313.588 1165.49)"/><use xlink:href="#b" width="100%" height="100%" transform="translate(1310.975 1369.842)"/><use xlink:href="#c" width="100%" height="100%" transform="translate(1338.524 1308.362)"/><use xlink:href="#c" width="100%" height="100%" transform="translate(1350.42 1176.336)"/><use xlink:href="#b" width="100%" height="100%" transform="translate(1382.703 1328.383)"/><use xlink:href="#c" width="100%" height="100%" transform="translate(1385.228 1232.526)"/><use xlink:href="#b" width="100%" height="100%" transform="translate(1375.875 1260.637)"/><use xlink:href="#b" width="100%" height="100%" transform="translate(1241.931 1294.635)"/><use xlink:href="#c" width="100%" height="100%" transform="translate(1245.875 1215.13)"/><use xlink:href="#b" width="100%" height="100%" transform="translate(1314.314 1242.948)"/><use xlink:href="#c" width="100%" height="100%" transform="translate(1338.555 1195.466)"/><use xlink:href="#c" width="100%" height="100%" transform="translate(1359.078 1291.976)"/><use xlink:href="#c" width="100%" height="100%" transform="translate(1300.59 1280.237)"/><use xlink:href="#c" width="100%" height="100%" transform="translate(1331.018 1271.828)"/><use xlink:href="#c" width="100%" height="100%" transform="translate(1369.847 1215.171)"/><use xlink:href="#b" width="100%" height="100%" transform="translate(1368.259 1317.887)"/><use xlink:href="#c" width="100%" height="100%" transform="translate(1247.782 1260.602)"/><use xlink:href="#b" width="100%" height="100%" transform="translate(1258.883 1254.891)"/><use xlink:href="#c" width="100%" height="100%" transform="translate(1292.485 1192.673)"/><use xlink:href="#c" width="100%" height="100%" transform="translate(1285.467 1211.33)"/><use xlink:href="#c" width="100%" height="100%" transform="translate(1282.597 1273.317)"/><use xlink:href="#c" width="100%" height="100%" transform="translate(1315.987 1220.26)"/><use xlink:href="#c" width="100%" height="100%" transform="translate(1338.824 1234.664)"/><use xlink:href="#c" width="100%" height="100%" transform="translate(1272.757 1233.59)"/><use xlink:href="#b" width="100%" height="100%" transform="translate(1305.85 1309.872)"/></g><use xlink:href="#g" width="100%" height="100%" transform="rotate(-15 873.813 591.047)"/><use xlink:href="#g" width="100%" height="100%" transform="rotate(15 846.358 539.622)"/><g style="font-style:normal;font-weight:400;line-height:0%;font-family:sans-serif;letter-spacing:0;word-spacing:0;fill:#000;fill-opacity:1;stroke:none;stroke-width:1px;stroke-linecap:butt;stroke-linejoin:miter;stroke-opacity:1"><path d="M157.876 533.509v24.477h24.478v7.47h-24.478v24.478h-7.383v-24.477h-24.477v-7.47h24.477v-24.478z" aria-label="+" style="font-style:normal;font-variant:normal;font-weight:400;font-stretch:normal;font-size:90px;line-height:1.25;font-family:&quot;Open Sans&quot;;-inkscape-font-specification:&quot;Open Sans&quot;"/></g><g style="font-style:normal;font-weight:400;line-height:0%;font-family:sans-serif;letter-spacing:0;word-spacing:0;fill:#000;fill-opacity:1;stroke:none;stroke-width:1px;stroke-linecap:butt;stroke-linejoin:miter;stroke-opacity:1"><path d="M103.068 642.914v29.707h-8.086v-29.444q0-6.987-2.725-10.458-2.724-3.472-8.173-3.472-6.548 0-10.328 4.175-3.779 4.174-3.779 11.381v27.818h-8.13v-49.219h8.13v7.647q2.9-4.439 6.812-6.636 3.955-2.197 9.096-2.197 8.482 0 12.832 5.273 4.351 5.23 4.351 15.425z" aria-label="n" style="font-style:normal;font-variant:normal;font-weight:400;font-stretch:normal;font-size:90px;line-height:1.25;font-family:&quot;Open Sans&quot;;-inkscape-font-specification:&quot;Open Sans&quot;"/></g><g style="font-style:normal;font-weight:400;line-height:0%;font-family:sans-serif;letter-spacing:0;word-spacing:0;fill:#000;fill-opacity:1;stroke:none;stroke-width:1px;stroke-linecap:butt;stroke-linejoin:miter;stroke-opacity:1"><path d="M1564.167 390.927v29.707h-8.086V391.19q0-6.987-2.725-10.458-2.725-3.472-8.174-3.472-6.548 0-10.327 4.175-3.78 4.174-3.78 11.381v27.818h-8.13v-49.219h8.13v7.647q2.901-4.439 6.812-6.636 3.955-2.197 9.097-2.197 8.482 0 12.832 5.273 4.35 5.23 4.35 15.425z" aria-label="n" style="font-style:normal;font-variant:normal;font-weight:400;font-stretch:normal;font-size:90px;line-height:1.25;font-family:&quot;Open Sans&quot;;-inkscape-font-specification:&quot;Open Sans&quot;"/></g><g style="font-style:normal;font-weight:400;line-height:0%;font-family:sans-serif;letter-spacing:0;word-spacing:0;fill:#000;fill-opacity:1;stroke:none;stroke-width:1px;stroke-linecap:butt;stroke-linejoin:miter;stroke-opacity:1"><path d="M1584.773 547.863v29.707h-8.086v-29.443q0-6.988-2.724-10.46-2.725-3.47-8.174-3.47-6.548 0-10.327 4.174-3.78 4.175-3.78 11.382v27.817h-8.13v-49.219h8.13v7.647q2.9-4.439 6.812-6.636 3.955-2.197 9.097-2.197 8.481 0 12.832 5.273 4.35 5.23 4.35 15.425z" aria-label="n" style="font-style:normal;font-variant:normal;font-weight:400;font-stretch:normal;font-size:90px;line-height:1.25;font-family:&quot;Open Sans&quot;;-inkscape-font-specification:&quot;Open Sans&quot;"/></g><g style="font-style:normal;font-weight:400;line-height:0%;font-family:sans-serif;letter-spacing:0;word-spacing:0;fill:#000;fill-opacity:1;stroke:none;stroke-width:1px;stroke-linecap:butt;stroke-linejoin:miter;stroke-opacity:1"><path d="M1560.054 718.287v29.708h-8.086V718.55q0-6.987-2.724-10.459-2.725-3.472-8.174-3.472-6.548 0-10.327 4.175-3.78 4.175-3.78 11.382v27.818h-8.13v-49.22h8.13v7.647q2.9-4.438 6.812-6.635 3.955-2.198 9.097-2.198 8.481 0 12.832 5.274 4.35 5.23 4.35 15.424z" aria-label="n" style="font-style:normal;font-variant:normal;font-weight:400;font-stretch:normal;font-size:90px;line-height:1.25;font-family:&quot;Open Sans&quot;;-inkscape-font-specification:&quot;Open Sans&quot;"/></g><g aria-label="235U" style="font-style:normal;font-weight:400;line-height:0%;font-family:sans-serif;letter-spacing:0;word-spacing:0;fill:#000;fill-opacity:1;stroke:none;stroke-width:1px;stroke-linecap:butt;stroke-linejoin:miter;stroke-opacity:1"><path d="M286.36 786.821h20.138v4.856H279.42v-4.856q3.285-3.4 8.941-9.112 5.684-5.741 7.141-7.398 2.77-3.114 3.856-5.256 1.114-2.17 1.114-4.256 0-3.4-2.4-5.542-2.37-2.142-6.198-2.142-2.713 0-5.741.943-3 .942-6.427 2.856v-5.827q3.485-1.4 6.513-2.114 3.027-.714 5.541-.714 6.627 0 10.569 3.314 3.942 3.313 3.942 8.855 0 2.627-1 4.998-.971 2.343-3.57 5.542-.715.828-4.542 4.799-3.828 3.942-10.798 11.054zm49.76-18.138q4.142.885 6.455 3.684 2.343 2.8 2.343 6.913 0 6.313-4.342 9.77-4.342 3.455-12.34 3.455-2.685 0-5.542-.542-2.827-.514-5.855-1.571v-5.57q2.4 1.4 5.256 2.113 2.856.714 5.97.714 5.427 0 8.255-2.142 2.856-2.142 2.856-6.227 0-3.77-2.656-5.884-2.628-2.143-7.341-2.143h-4.97v-4.741h5.198q4.256 0 6.513-1.686 2.256-1.713 2.256-4.913 0-3.285-2.342-5.027-2.314-1.77-6.655-1.77-2.371 0-5.085.513-2.714.514-5.97 1.6v-5.142q3.285-.914 6.141-1.37 2.886-.458 5.428-.458 6.57 0 10.397 3 3.828 2.97 3.828 8.055 0 3.542-2.028 5.998-2.028 2.428-5.77 3.37zm19.823-19.653h22.652v4.856h-17.367v10.455q1.257-.429 2.514-.629 1.256-.228 2.513-.228 7.141 0 11.312 3.913 4.17 3.914 4.17 10.598 0 6.884-4.284 10.711-4.285 3.8-12.083 3.8-2.685 0-5.485-.458-2.77-.457-5.741-1.37v-5.8q2.57 1.4 5.313 2.086 2.742.685 5.798.685 4.942 0 7.827-2.599 2.885-2.6 2.885-7.055 0-4.456-2.885-7.056-2.885-2.6-7.827-2.6-2.313 0-4.627.515-2.285.514-4.685 1.6z" style="font-size:65%;baseline-shift:super"/><path d="M394.701 762.067h8.92v39.858q0 10.547 3.824 15.205 3.823 4.614 12.393 4.614 8.525 0 12.348-4.614 3.824-4.658 3.824-15.205v-39.858h8.92v40.957q0 12.832-6.372 19.38-6.328 6.547-18.72 6.547-12.437 0-18.809-6.547-6.328-6.548-6.328-19.38z" style="font-style:normal;font-variant:normal;font-weight:400;font-stretch:normal;font-size:90px;line-height:1.25;font-family:&quot;Open Sans&quot;;-inkscape-font-specification:&quot;Open Sans&quot;"/></g><g style="font-style:normal;font-weight:400;line-height:0%;font-family:sans-serif;letter-spacing:0;word-spacing:0;fill:#000;fill-opacity:1;stroke:none;stroke-width:1px;stroke-linecap:butt;stroke-linejoin:miter;stroke-opacity:1"><path d="M315.04 844.792v-5.256q2.17 1.028 4.398 1.57 2.228.543 4.37.543 5.713 0 8.713-3.827 3.027-3.856 3.456-11.683-1.657 2.457-4.199 3.77-2.542 1.314-5.627 1.314-6.399 0-10.14-3.856-3.714-3.885-3.714-10.597 0-6.57 3.885-10.54 3.885-3.97 10.34-3.97 7.398 0 11.283 5.683 3.913 5.656 3.913 16.454 0 10.083-4.798 16.11-4.77 5.998-12.854 5.998-2.171 0-4.4-.428-2.227-.429-4.627-1.285zm11.482-18.082q3.885 0 6.141-2.656 2.286-2.657 2.286-7.284 0-4.599-2.286-7.256-2.256-2.685-6.14-2.685-3.886 0-6.17 2.685-2.257 2.657-2.257 7.256 0 4.627 2.256 7.284 2.285 2.656 6.17 2.656zm30.564 14.111h20.138v4.856h-27.08v-4.856q3.286-3.4 8.942-9.112 5.684-5.741 7.14-7.398 2.771-3.114 3.857-5.256 1.114-2.17 1.114-4.256 0-3.4-2.4-5.542-2.37-2.142-6.198-2.142-2.714 0-5.741.943-3 .942-6.427 2.856v-5.827q3.484-1.4 6.512-2.114 3.028-.714 5.542-.714 6.627 0 10.569 3.314 3.941 3.313 3.941 8.855 0 2.627-1 4.998-.97 2.343-3.57 5.542-.714.828-4.542 4.799-3.827 3.942-10.797 11.054z" aria-label="92" style="font-size:65%;baseline-shift:sub;fill:#000"/></g><g aria-label="236U" style="font-style:normal;font-weight:400;line-height:0%;font-family:sans-serif;letter-spacing:0;word-spacing:0;fill:#000;fill-opacity:1;stroke:none;stroke-width:1px;stroke-linecap:butt;stroke-linejoin:miter;stroke-opacity:1"><path d="M779.258 787.945h20.138v4.856h-27.079v-4.856q3.285-3.4 8.94-9.112 5.685-5.742 7.142-7.399 2.77-3.113 3.856-5.255 1.114-2.171 1.114-4.257 0-3.399-2.4-5.541-2.37-2.142-6.198-2.142-2.713 0-5.741.942-3 .943-6.427 2.857v-5.827q3.485-1.4 6.512-2.114 3.028-.714 5.542-.714 6.627 0 10.569 3.313 3.942 3.314 3.942 8.855 0 2.628-1 4.999-.971 2.342-3.57 5.541-.715.829-4.542 4.8-3.828 3.941-10.798 11.054zm49.76-18.139q4.141.886 6.455 3.685 2.342 2.8 2.342 6.913 0 6.312-4.341 9.769-4.342 3.456-12.34 3.456-2.685 0-5.542-.543-2.828-.514-5.855-1.57v-5.57q2.399 1.399 5.255 2.113 2.857.714 5.97.714 5.428 0 8.255-2.142 2.857-2.143 2.857-6.227 0-3.77-2.657-5.885-2.628-2.142-7.34-2.142h-4.97v-4.742h5.198q4.256 0 6.513-1.685 2.256-1.714 2.256-4.913 0-3.285-2.342-5.027-2.314-1.771-6.656-1.771-2.37 0-5.084.514-2.714.514-5.97 1.6v-5.142q3.285-.914 6.141-1.371 2.885-.457 5.428-.457 6.57 0 10.397 2.999 3.828 2.97 3.828 8.055 0 3.542-2.028 5.999-2.029 2.428-5.77 3.37zm32.82-.628q-3.885 0-6.17 2.656-2.256 2.657-2.256 7.284 0 4.6 2.256 7.284 2.285 2.657 6.17 2.657t6.141-2.657q2.286-2.685 2.286-7.284 0-4.627-2.286-7.284-2.256-2.656-6.14-2.656zm11.454-18.081v5.255q-2.17-1.028-4.399-1.57-2.199-.543-4.37-.543-5.713 0-8.74 3.856-3 3.856-3.428 11.654 1.685-2.485 4.227-3.799 2.542-1.342 5.599-1.342 6.427 0 10.14 3.913 3.742 3.885 3.742 10.597 0 6.57-3.885 10.54-3.884 3.971-10.34 3.971-7.398 0-11.311-5.656-3.914-5.684-3.914-16.453 0-10.112 4.799-16.11 4.799-6.027 12.883-6.027 2.17 0 4.37.428 2.228.429 4.627 1.286z" style="font-size:65%;baseline-shift:super"/><path d="M887.599 763.19h8.92v39.859q0 10.547 3.824 15.205 3.823 4.614 12.393 4.614 8.525 0 12.348-4.614 3.823-4.658 3.823-15.205V763.19h8.921v40.957q0 12.832-6.372 19.38-6.328 6.548-18.72 6.548-12.437 0-18.81-6.548-6.327-6.548-6.327-19.38z" style="font-style:normal;font-variant:normal;font-weight:400;font-stretch:normal;font-size:90px;line-height:1.25;font-family:&quot;Open Sans&quot;;-inkscape-font-specification:&quot;Open Sans&quot;"/></g><g style="font-style:normal;font-weight:400;line-height:0%;font-family:sans-serif;letter-spacing:0;word-spacing:0;fill:#000;fill-opacity:1;stroke:none;stroke-width:1px;stroke-linecap:butt;stroke-linejoin:miter;stroke-opacity:1"><path d="M807.937 845.915v-5.256q2.17 1.029 4.399 1.571 2.228.543 4.37.543 5.713 0 8.712-3.828 3.028-3.856 3.457-11.682-1.657 2.456-4.2 3.77-2.542 1.314-5.626 1.314-6.399 0-10.14-3.856-3.714-3.885-3.714-10.598 0-6.57 3.885-10.54 3.884-3.97 10.34-3.97 7.398 0 11.283 5.684 3.913 5.656 3.913 16.453 0 10.083-4.799 16.11-4.77 5.999-12.854 5.999-2.17 0-4.399-.428-2.228-.429-4.627-1.286zm11.483-18.081q3.885 0 6.141-2.657 2.285-2.656 2.285-7.284 0-4.598-2.285-7.255-2.256-2.685-6.141-2.685-3.885 0-6.17 2.685-2.257 2.657-2.257 7.255 0 4.628 2.257 7.284 2.285 2.657 6.17 2.657zm30.564 14.111h20.138v4.856h-27.08v-4.856q3.286-3.4 8.941-9.112 5.685-5.742 7.141-7.399 2.771-3.113 3.857-5.255 1.114-2.171 1.114-4.257 0-3.399-2.4-5.541-2.37-2.142-6.198-2.142-2.714 0-5.742.942-2.999.943-6.427 2.857v-5.827q3.485-1.4 6.513-2.114t5.541-.714q6.627 0 10.57 3.313 3.941 3.314 3.941 8.855 0 2.628-1 4.999-.97 2.342-3.57 5.541-.714.829-4.542 4.8-3.827 3.941-10.797 11.054z" aria-label="92" style="font-size:65%;baseline-shift:sub;fill:#000"/></g><g aria-label="89Kr" style="font-style:normal;font-weight:400;line-height:0%;font-family:sans-serif;letter-spacing:0;word-spacing:0;fill:#000;fill-opacity:1;stroke:none;stroke-width:1px;stroke-linecap:butt;stroke-linejoin:miter;stroke-opacity:1"><path d="M1450.373 862.436q-4.113 0-6.484 2.2-2.342 2.199-2.342 6.055t2.342 6.056q2.37 2.2 6.484 2.2 4.113 0 6.484-2.2 2.371-2.228 2.371-6.056 0-3.856-2.37-6.055-2.343-2.2-6.485-2.2zm-5.77-2.456q-3.713-.915-5.798-3.457-2.057-2.542-2.057-6.198 0-5.113 3.628-8.084 3.656-2.97 9.997-2.97 6.37 0 9.998 2.97 3.627 2.97 3.627 8.084 0 3.656-2.085 6.198-2.056 2.542-5.741 3.457 4.17.97 6.484 3.799 2.342 2.828 2.342 6.912 0 6.199-3.799 9.512-3.77 3.314-10.826 3.314-7.055 0-10.854-3.314-3.77-3.313-3.77-9.512 0-4.084 2.341-6.912 2.343-2.828 6.513-3.8zm-2.114-9.113q0 3.314 2.057 5.17 2.085 1.857 5.827 1.857 3.713 0 5.799-1.856 2.113-1.857 2.113-5.17 0-3.314-2.113-5.17-2.086-1.857-5.799-1.857-3.742 0-5.827 1.856-2.057 1.857-2.057 5.17zm32.964 30.936v-5.256q2.17 1.028 4.399 1.571 2.228.543 4.37.543 5.713 0 8.712-3.828 3.028-3.856 3.456-11.683-1.656 2.457-4.199 3.77-2.542 1.315-5.627 1.315-6.398 0-10.14-3.857-3.713-3.884-3.713-10.597 0-6.57 3.884-10.54 3.885-3.97 10.34-3.97 7.399 0 11.284 5.684 3.913 5.655 3.913 16.453 0 10.083-4.799 16.11-4.77 5.999-12.854 5.999-2.17 0-4.399-.429-2.228-.428-4.627-1.285zm11.483-18.081q3.884 0 6.141-2.657 2.285-2.656 2.285-7.284 0-4.599-2.285-7.255-2.257-2.685-6.141-2.685-3.885 0-6.17 2.685-2.257 2.656-2.257 7.255 0 4.628 2.257 7.284 2.285 2.656 6.17 2.656z" style="font-size:65%;baseline-shift:super"/><path d="M1515.107 853.078h8.877v27.73l29.443-27.73h11.426l-32.564 30.586 34.893 35.024h-11.69l-31.508-31.596v31.596h-8.877zm87.231 23.95q-1.362-.79-2.988-1.142-1.582-.396-3.516-.396-6.855 0-10.547 4.482-3.647 4.439-3.647 12.789v25.927h-8.13V869.47h8.13v7.646q2.549-4.482 6.636-6.636 4.087-2.197 9.931-2.197.835 0 1.846.132 1.01.088 2.241.307z" style="font-style:normal;font-variant:normal;font-weight:400;font-stretch:normal;font-size:90px;line-height:1.25;font-family:&quot;Open Sans&quot;;-inkscape-font-specification:&quot;Open Sans&quot;"/></g><g style="font-style:normal;font-weight:400;line-height:0%;font-family:sans-serif;letter-spacing:0;word-spacing:0;fill:#000;fill-opacity:1;stroke:none;stroke-width:1px;stroke-linecap:butt;stroke-linejoin:miter;stroke-opacity:1"><path d="M1455.515 913.694q4.142.885 6.455 3.685 2.343 2.799 2.343 6.912 0 6.313-4.342 9.77-4.342 3.456-12.34 3.456-2.685 0-5.542-.543-2.827-.514-5.855-1.571v-5.57q2.4 1.4 5.256 2.114 2.856.714 5.97.714 5.427 0 8.255-2.143 2.856-2.142 2.856-6.227 0-3.77-2.656-5.884-2.628-2.142-7.341-2.142h-4.97v-4.742h5.198q4.256 0 6.513-1.685 2.256-1.714 2.256-4.913 0-3.285-2.342-5.028-2.314-1.77-6.655-1.77-2.371 0-5.085.513-2.714.515-5.97 1.6v-5.142q3.285-.914 6.141-1.37 2.885-.458 5.428-.458 6.57 0 10.397 3 3.828 2.97 3.828 8.055 0 3.542-2.028 5.998-2.028 2.428-5.77 3.37zm32.82-.629q-3.884 0-6.17 2.657-2.256 2.656-2.256 7.284 0 4.599 2.256 7.284 2.286 2.656 6.17 2.656 3.885 0 6.142-2.656 2.285-2.685 2.285-7.284 0-4.628-2.285-7.284-2.257-2.657-6.142-2.657zm11.455-18.08v5.255q-2.171-1.028-4.4-1.571-2.199-.543-4.37-.543-5.712 0-8.74 3.856-3 3.857-3.428 11.655 1.685-2.485 4.228-3.8 2.542-1.342 5.598-1.342 6.427 0 10.14 3.914 3.742 3.884 3.742 10.597 0 6.57-3.884 10.54-3.885 3.97-10.34 3.97-7.399 0-11.312-5.655-3.913-5.684-3.913-16.453 0-10.112 4.798-16.11 4.8-6.028 12.883-6.028 2.17 0 4.37.429 2.228.428 4.628 1.285z" aria-label="36" style="font-size:65%;baseline-shift:sub;fill:#000"/></g><g aria-label="144Ba" style="font-style:normal;font-weight:400;line-height:0%;font-family:sans-serif;letter-spacing:0;word-spacing:0;fill:#000;fill-opacity:1;stroke:none;stroke-width:1px;stroke-linecap:butt;stroke-linejoin:miter;stroke-opacity:1"><path d="M1413.42 178.956h9.427v-32.535l-10.255 2.057v-5.256l10.198-2.057h5.77v37.791h9.426v4.856h-24.565zm52.102-32.763-14.567 22.765h14.567zm-1.514-5.028h7.256v27.793h6.084v4.8h-6.084v10.054h-5.742v-10.055h-19.252v-5.57zm38.762 5.028-14.567 22.765h14.567zm-1.513-5.028h7.255v27.793h6.084v4.8h-6.084v10.054h-5.742v-10.055h-19.252v-5.57z" style="font-size:65%;baseline-shift:super"/><path d="M1535.62 188.479v24.038h14.238q7.163 0 10.59-2.944 3.472-2.989 3.472-9.097 0-6.152-3.471-9.053-3.428-2.944-10.591-2.944zm0-26.983v19.776h13.14q6.503 0 9.667-2.417 3.208-2.461 3.208-7.47 0-4.967-3.208-7.428-3.164-2.46-9.668-2.46zm-8.877-7.294h22.675q10.152 0 15.645 4.218 5.493 4.22 5.493 11.997 0 6.02-2.813 9.58-2.812 3.56-8.261 4.439 6.548 1.406 10.151 5.889 3.648 4.438 3.648 11.118 0 8.789-5.977 13.579-5.977 4.79-17.007 4.79h-23.555zm83.715 40.868q-9.8 0-13.579 2.242-3.779 2.241-3.779 7.646 0 4.307 2.813 6.856 2.856 2.505 7.734 2.505 6.724 0 10.766-4.746 4.087-4.79 4.087-12.7v-1.802zm16.128-3.34v28.082h-8.086v-7.47q-2.768 4.482-6.9 6.635-4.13 2.11-10.106 2.11-7.56 0-12.042-4.22-4.438-4.262-4.438-11.381 0-8.306 5.537-12.525 5.581-4.218 16.611-4.218h11.338v-.791q0-5.581-3.691-8.614-3.647-3.076-10.283-3.076-4.219 0-8.218 1.01-4 1.012-7.69 3.033v-7.47q4.438-1.714 8.613-2.55 4.175-.878 8.13-.878 10.678 0 15.952 5.537 5.273 5.537 5.273 16.787z" style="font-style:normal;font-variant:normal;font-weight:400;font-stretch:normal;font-size:90px;line-height:1.25;font-family:&quot;Open Sans&quot;;-inkscape-font-specification:&quot;Open Sans&quot;"/></g><g style="font-style:normal;font-weight:400;line-height:0%;font-family:sans-serif;letter-spacing:0;word-spacing:0;fill:#000;fill-opacity:1;stroke:none;stroke-width:1px;stroke-linecap:butt;stroke-linejoin:miter;stroke-opacity:1"><path d="M1445.956 195.165h22.651v4.856h-17.367v10.455q1.257-.429 2.514-.629 1.257-.228 2.514-.228 7.14 0 11.311 3.913 4.17 3.913 4.17 10.598 0 6.884-4.284 10.711-4.285 3.8-12.083 3.8-2.685 0-5.484-.458-2.771-.457-5.742-1.37v-5.8q2.57 1.4 5.313 2.086 2.742.685 5.799.685 4.941 0 7.826-2.599 2.885-2.6 2.885-7.055 0-4.457-2.885-7.056-2.885-2.6-7.826-2.6-2.314 0-4.628.515-2.285.514-4.684 1.6zm50.244 19.025q-3.884 0-6.17 2.656-2.256 2.656-2.256 7.284 0 4.598 2.257 7.283 2.285 2.657 6.17 2.657 3.884 0 6.14-2.657 2.286-2.685 2.286-7.283 0-4.628-2.285-7.284-2.257-2.657-6.141-2.657zm11.455-18.082v5.256q-2.171-1.029-4.399-1.571-2.2-.543-4.37-.543-5.713 0-8.741 3.856-3 3.856-3.428 11.654 1.685-2.485 4.228-3.799 2.542-1.342 5.598-1.342 6.427 0 10.14 3.913 3.743 3.885 3.743 10.598 0 6.57-3.885 10.54-3.885 3.97-10.34 3.97-7.399 0-11.312-5.655-3.913-5.685-3.913-16.454 0-10.111 4.798-16.11 4.8-6.027 12.883-6.027 2.171 0 4.37.428 2.228.429 4.628 1.286z" aria-label="56" style="font-size:65%;baseline-shift:sub;fill:#000"/></g><use xlink:href="#h" width="100%" height="100%" transform="translate(492)"/><use xlink:href="#c" width="100%" height="100%" transform="translate(965.904 386.74)"/></g></svg>