<svg xmlns="http://www.w3.org/2000/svg" xmlns:xlink="http://www.w3.org/1999/xlink" width="539.373" height="275.453" viewBox="0 0 404.53 206.59"><defs><path id="j" d="M6.922-2.422c.172 0 .36 0 .36-.203s-.188-.203-.36-.203H1.234c-.171 0-.359 0-.359.203s.188.203.36.203Zm0 0"/><path id="k" d="M4.297-2.422h2.922c.156 0 .36 0 .36-.203s-.204-.203-.36-.203H4.297v-2.953c0-.14 0-.344-.219-.344-.203 0-.203.203-.203.344v2.953H.937c-.156 0-.343 0-.343.203s.187.203.344.203h2.937V.531c0 .14 0 .344.203.344.219 0 .219-.203.219-.344Zm0 0"/><path id="l" d="M5.766-4.469c0-.89-.922-1.672-2.172-1.672H.359v.266h.204c.703 0 .718.11.718.438V-.72c0 .344-.015.438-.718.438H.359V0c.407-.031.907-.031 1.329-.031.406 0 .906 0 1.312.031v-.281h-.203c-.688 0-.703-.094-.703-.438v-2.11h1.5c1.25 0 2.172-.78 2.172-1.64Zm-.922 0c0 .407 0 1.39-1.485 1.39H2.063V-5.5c0-.313.015-.375.437-.375h.86c1.484 0 1.484 1 1.484 1.406Zm0 0"/><path id="m" d="M2.563-1.672v-.547H.092v.547Zm0 0"/><path id="n" d="M3.078-1.11v-.515h-.25v.484c0 .657-.281.985-.61.985-.593 0-.593-.781-.593-.953v-2.485h1.297v-.281H1.625v-1.656h-.25c-.016.75-.328 1.672-1.203 1.703v.234h.781v2.485c0 1 .735 1.203 1.203 1.203.61 0 .922-.578.922-1.203Zm0 0"/><path id="o" d="M4.688-3.594v-.281A13.01 13.01 0 0 1 4-3.859c-.25 0-.531 0-.781-.016v.281c.406.016.406.328.406.375a.589.589 0 0 1-.063.25L2.641-.813l-1-2.359c-.063-.125-.063-.187-.063-.187 0-.235.313-.235.5-.235v-.281l-1 .016c-.031 0-.531 0-.89-.016v.281c.406 0 .578.016.687.25L2.297 0l-.235.531c-.187.485-.453 1.094-1.03 1.094a.646.646 0 0 1-.407-.14c.063-.016.313-.079.313-.391C.938.859.78.719.563.719c-.22 0-.375.14-.375.39 0 .407.374.735.843.735.578 0 .969-.516 1.188-1.016l1.625-3.812c.094-.235.265-.594.844-.61Zm0 0"/><path id="p" d="M4.828-1.938c0-1.14-.89-2.046-1.953-2.046-.484 0-.938.203-1.266.578v-.578l-1.343.109v.281c.64 0 .703.047.703.438v4.203c0 .422-.11.422-.703.422v.281c.421-.016.593-.031 1.03-.031.438 0 .548.015 1.032.031v-.281c-.594 0-.703 0-.703-.422V-.437c.234.234.547.53 1.14.53 1.063 0 2.063-.859 2.063-2.03Zm-.781 0c0 1.016-.61 1.813-1.344 1.813-.406 0-.734-.234-.953-.547-.125-.187-.125-.203-.125-.375V-3.03a1.39 1.39 0 0 1 1.188-.688c.703 0 1.234.797 1.234 1.781Zm0 0"/><path id="q" d="M3.844-1.078c0-.063-.047-.11-.125-.11-.094 0-.125.063-.125.094a1.287 1.287 0 0 1-1.25.938c-.422 0-.797-.235-1-.547-.297-.438-.313-.985-.313-1.36h2.563c.203 0 .25 0 .25-.187 0-.922-.5-1.781-1.656-1.781-1.079 0-1.922.937-1.922 2.047 0 1.187.937 2.078 2.03 2.078 1.11 0 1.548-.953 1.548-1.172Zm-.61-1.203H1.047c.078-1.375.89-1.531 1.14-1.531.5 0 1.032.39 1.047 1.53Zm0 0"/><path id="r" d="M6.594-5.875v-.266c-.485.016-.625.016-1.063.016-.437 0-.547 0-1.062-.016v.266c.922 0 .922.438.922.688v3.843L2.125-6.03c-.078-.11-.094-.11-.266-.11H.344v.266h.25c.437 0 .672.063.672.063v4.859c0 .234 0 .672-.922.672V0c.5-.016.625-.031 1.062-.031.438 0 .563.015 1.047.031v-.281c-.922 0-.922-.438-.922-.672v-4.64L5.36-.11c.078.11.124.11.171.11.14 0 .14-.078.14-.25v-4.938c0-.25 0-.687.923-.687Zm0 0"/><path id="t" d="M6.016-2.328h-.25c-.22 1.406-.454 2.047-2 2.047h-1.25c-.422 0-.454-.063-.454-.36v-2.406h.844c.875 0 .985.281.985 1.063h.265v-2.391h-.265c0 .781-.11 1.047-.985 1.047h-.844v-2.14c0-.313.032-.376.454-.376h1.203c1.406 0 1.656.485 1.797 1.75h.25l-.25-2.031H.344v.281h.203c.687 0 .719.11.719.438V-.72c0 .344-.032.438-.72.438H.345V0H5.64Zm0 0"/><path id="u" d="M2.344 0v-.281c-.594 0-.688 0-.688-.406V-6.25l-1.328.11v.265c.61 0 .688.063.688.516v4.671c0 .407-.094.407-.688.407V0c.422-.016.594-.031 1-.031.422 0 .578.015 1.016.031Zm0 0"/><path id="v" d="M3.844-1.078c0-.094-.094-.094-.125-.094-.094 0-.094.016-.156.156-.204.625-.704.86-1.172.86-.579 0-1.313-.469-1.313-1.797 0-1.406.719-1.828 1.266-1.828.11 0 .594.015.937.25-.187.031-.375.156-.375.422 0 .234.188.406.422.406.235 0 .422-.156.422-.422 0-.563-.64-.906-1.422-.906-1.156 0-2.015.968-2.015 2.093C.313-.78 1.234.095 2.296.095c1.265 0 1.547-1.078 1.547-1.172Zm0 0"/><path id="w" d="M3.36-3.422c0-.281-.266-.562-.672-.562-.547 0-.922.39-1.126.937h-.015v-.937l-1.281.109v.281c.609 0 .703.063.703.5v2.406c0 .407-.11.407-.703.407V0C.75-.016.859-.031 1.328-.031L2.468 0v-.281h-.187c-.656 0-.672-.094-.672-.438v-1.344c0-.374.094-1.687 1.125-1.687a.397.397 0 0 0-.171.344c0 .234.187.39.406.39a.39.39 0 0 0 .39-.406Zm0 0"/><path id="x" d="M2.281 0v-.281c-.594 0-.625-.047-.625-.39v-3.313L.36-3.875v.281c.579 0 .657.047.657.485v2.421c0 .407-.094.407-.688.407V0c.406-.016.594-.031.984-.031.141 0 .532 0 .97.031Zm-.515-5.422a.468.468 0 0 0-.485-.484.477.477 0 0 0-.484.484c0 .266.219.484.484.484a.477.477 0 0 0 .485-.484Zm0 0"/><path id="y" d="m5.64-4.094-.25-2.031H.345v.281h.203c.687 0 .719.11.719.438V-.72c0 .344-.032.438-.72.438H.345V0c.406-.031.969-.031 1.375-.031.36 0 1.172 0 1.5.031v-.281h-.297c-.813 0-.86-.11-.86-.438v-2.203h.813c.875 0 .984.281.984 1.047h.25V-4.25h-.25c0 .766-.109 1.047-.984 1.047h-.813V-5.47c0-.312.032-.375.454-.375H3.64c1.375 0 1.609.5 1.75 1.75Zm0 0"/><path id="z" d="M4.86 0v-.281c-.61 0-.688-.063-.688-.5V-6.25l-1.344.11v.265c.625 0 .703.063.703.516v1.906c-.047-.047-.453-.531-1.156-.531-1.11 0-2.063.89-2.063 2.046 0 1.125.891 2.032 1.97 2.032.655 0 1.062-.375 1.218-.578v.578ZM3.5-1.078c0 .156 0 .187-.14.375a1.259 1.259 0 0 1-1.047.578c-.391 0-.75-.219-.985-.594-.234-.39-.25-.922-.25-1.203 0-.422.063-.906.297-1.266a1.271 1.271 0 0 1 1.031-.562c.39 0 .75.188.985.531.109.14.109.156.109.328Zm0 0"/><path id="B" d="M6.547-3.031c0-1.703-1.25-3.11-2.844-3.11H.36v.266h.204c.703 0 .718.11.718.438V-.72c0 .344-.015.438-.718.438H.359V0h3.344c1.563 0 2.844-1.328 2.844-3.031Zm-.89 0c0 .375 0 1.328-.5 1.953-.47.61-1.11.797-1.688.797H2.5c-.422 0-.438-.063-.438-.36V-5.5c0-.313.016-.375.438-.375h.969a2.04 2.04 0 0 1 1.656.797c.39.516.531 1.156.531 2.047Zm0 0"/><path id="C" d="M4.36-1.922c0-1.172-.938-2.11-2.048-2.11-1.14 0-2.046.97-2.046 2.11 0 1.125.937 2.016 2.03 2.016 1.157 0 2.063-.906 2.063-2.016ZM3.577-2c0 .328 0 .86-.219 1.25-.25.422-.671.594-1.046.594-.454 0-.829-.219-1.032-.578-.234-.375-.25-.844-.25-1.266 0-.328 0-.844.235-1.219a1.199 1.199 0 0 1 1.03-.594c.517 0 .892.297 1.063.594.22.39.22.844.22 1.219Zm0 0"/><path id="D" d="M4.922 0v-.281c-.453 0-.688 0-.688-.281v-1.72c0-.75 0-1.015-.25-1.327-.218-.25-.562-.375-1-.375-.843 0-1.234.625-1.359.875v-.875l-1.313.109v.281c.61 0 .704.063.704.5v2.406c0 .407-.11.407-.704.407V0c.422-.016.594-.031 1.032-.031.422 0 .547.015 1.015.031v-.281c-.593 0-.687 0-.687-.406v-1.641c0-.953.672-1.422 1.25-1.422.531 0 .64.438.64.984v2.079c0 .406-.093.406-.687.406V0c.422-.016.594-.031 1.016-.031.437 0 .562.015 1.03.031Zm0 0"/><path id="E" d="M6.766-.797c0-.062 0-.172-.125-.172-.11 0-.11.094-.125.156-.047.563-.329.782-.61.782-.281 0-.375-.172-.453-.328-.078-.204-.156-.813-.219-1.22-.062-.562-.156-1.155-1.14-1.468.843-.25 1.547-.781 1.547-1.484 0-.89-1.094-1.61-2.407-1.61H.36v.266h.204c.703 0 .718.11.718.438V-.72c0 .344-.015.438-.718.438H.359V0c.422-.031.875-.031 1.313-.031.422 0 .875 0 1.312.031v-.281h-.218c-.688 0-.704-.094-.704-.438v-2.25h1.079c.64 0 .937.344.968.39.282.329.282.47.282 1.11 0 .594 0 .985.421 1.328.422.344.97.344 1.063.344.766 0 .89-.781.89-1ZM4.719-4.53c0 .781-.39 1.343-1.61 1.343H2.063V-5.5c0-.234.015-.313.187-.344.078-.031.375-.031.563-.031.765 0 1.906 0 1.906 1.344Zm0 0"/><path id="F" d="M4.484-3.625A.457.457 0 0 0 4-4.078c-.25 0-.656.094-.969.422a1.554 1.554 0 0 0-.984-.328c-.844 0-1.5.625-1.5 1.328 0 .453.265.781.422.922-.031.015-.281.328-.281.75 0 .296.156.625.39.78C.625-.046.266.282.266.704c0 .64.89 1.156 2.03 1.156 1.11 0 2.063-.484 2.063-1.171 0-.375-.171-.766-.5-.985-.515-.312-1.03-.312-1.89-.312-.172 0-.469 0-.532-.016C1.172-.688 1-.922 1-1.219c0-.14.047-.281.125-.39.219.14.5.28.922.28.844 0 1.5-.609 1.5-1.327 0-.438-.25-.75-.375-.875.36-.328.781-.328.89-.328-.046.03-.109.078-.109.234 0 .11.063.281.266.281a.267.267 0 0 0 .265-.281Zm-1.625.969c0 .203 0 1.078-.812 1.078-.813 0-.813-.875-.813-1.078 0-.235.032-.547.172-.766a.874.874 0 0 1 .64-.312c.813 0 .813.875.813 1.078Zm1 3.344c0 .515-.703.921-1.546.921-.876 0-1.547-.421-1.547-.921 0-.141.093-.735.859-.735h.828c.297 0 1.406.016 1.406.735Zm0 0"/><path id="s" d="M3.531-1.969c0-.36-.203-.468-.328-.468-.156 0-.312.171-.312.312 0 .11.062.172.093.188a.507.507 0 0 1 .22.421c0 .297-.423 1.391-1.063 1.391-.297 0-.547-.11-.547-.5 0-.281.156-.64.312-1.047a.637.637 0 0 0 .078-.281c0-.266-.25-.484-.593-.484-.594 0-.891.718-.891.859 0 .078.094.078.11.078.093 0 .109-.031.14-.11.11-.374.36-.64.61-.64.109 0 .171.063.171.219 0 .11-.031.172-.093.328-.22.531-.297.797-.297 1 0 .531.437.765.968.765.438 0 .766-.328.954-.625a2.927 2.927 0 0 0 .468-1.406Zm0 0"/><path id="A" d="M2.828-3.047h.922c.64 0 .766.11.766.406 0 .079-.032.266-.063.407-.016.062-.031.093-.031.125 0 .015 0 .125.125.125.11 0 .11-.063.156-.204l.469-1.89c.047-.125.047-.14.047-.172 0-.078-.063-.125-.14-.125-.095 0-.095.063-.141.219-.188.718-.47.828-1.188.828h-.86c.141-.547.563-2.266.61-2.375.063-.125.125-.14.422-.14h1.312c1.125 0 1.375.265 1.375 1 0 .28-.046.546-.046.609 0 .078.046.14.14.14.094 0 .11-.062.125-.218L7.016-6c0-.125-.079-.125-.25-.125H2.125c-.172 0-.266 0-.266.172 0 .11.079.11.282.11.03 0 .187 0 .328.015.203.031.219.062.219.156 0 .016 0 .031-.047.203L1.437-.687c-.078.328-.093.406-.765.406-.172 0-.281 0-.281.172C.39 0 .484 0 .64 0h4.765c.157 0 .172 0 .203-.031.032-.016.032-.016.094-.14.11-.235.86-1.954.86-2.032 0-.078-.047-.125-.125-.125-.063 0-.079.015-.172.219C5.703-.844 5.344-.281 3.844-.281H2.28c-.078-.016-.11-.031-.11-.094 0-.016 0-.031.048-.203Zm0 0"/><path id="G" d="M7.578-5.156c0-1.157-1.047-2.047-2.797-2.047H.406v.5h1.14V-.5H.407V0c.406-.031 1.438-.031 1.875-.031.453 0 1.485 0 1.89.031v-.5h-1.14v-2.672h1.86c1.468 0 2.687-.75 2.687-1.984Zm-1.61 0c0 .75 0 1.562-1.593 1.562H2.969v-3.11H4.39c1.578 0 1.578.798 1.578 1.548Zm0 0"/><path id="H" d="M3.344-1.828v-1.016H.14v1.016Zm0 0"/><path id="I" d="M9.031-6.703v-.5c-.406.031-1 .031-1.406.031-.438 0-.984 0-1.422-.031v.5h.266c.187 0 .36 0 .562.031.297.031.313.031.313.266v4.25L3.156-7.062c-.11-.125-.125-.141-.344-.141H.406v.5h1.14v5.906c0 .235-.015.235-.312.266C.984-.5.97-.5.672-.5H.406V0c.406-.031 1-.031 1.406-.031.438 0 .985 0 1.422.031v-.5H2.97c-.188 0-.36 0-.547-.031-.313-.031-.328-.031-.328-.266v-5.5L7.328-.14c.11.125.11.141.281.141.282 0 .282-.094.282-.344v-6.062c0-.235.015-.235.312-.266.25-.031.266-.031.563-.031Zm0 0"/><path id="J" d="M5.531-6.703v-.5c-.36.031-1.25.031-1.672.031-.546 0-1.578 0-2.078-.031v.5H3.25v5.14c0 .204 0 1.297-1.031 1.297-.188 0-.531-.03-.86-.171 0 0 .485-.204.485-.766 0-.563-.453-.797-.797-.797-.39 0-.813.25-.813.797 0 .812.844 1.312 2.032 1.312 1.406 0 2.421-.593 2.421-1.687v-5.125Zm0 0"/><path id="K" d="M6.453 0v-.5c-.64 0-.719 0-.719-.406V-4.72l-1.921.078v.5c.656 0 .718 0 .718.407v2c0 .86-.531 1.422-1.297 1.422-.812 0-.843-.265-.843-.828v-3.578L.469-4.64v.5c.656 0 .734 0 .734.407v2.437c0 1.125.844 1.36 1.89 1.36.266 0 1.016 0 1.5-.813v.813Zm0 0"/><path id="L" d="M6.453 0v-.5h-.719v-2.719c0-1.094-.562-1.5-1.625-1.5-1 0-1.562.594-1.828 1.125v-1.125L.47-4.64v.5c.656 0 .734 0 .734.407V-.5H.47V0l1.328-.031L3.125 0v-.5h-.734v-2.188c0-1.14.906-1.656 1.562-1.656.36 0 .578.219.578 1.016V-.5h-.718V0L5.14-.031Zm0 0"/><path id="M" d="M5.016-1.234c0-.141-.141-.141-.25-.141-.188 0-.204.016-.25.156-.282.657-.782.86-1.313.86C1.75-.36 1.75-1.906 1.75-2.391c0-.578 0-1.953 1.344-1.953.375 0 .547.032.687.063a.677.677 0 0 0-.219.484.65.65 0 0 0 .657.672c.328 0 .656-.219.656-.672 0-.89-1.203-.953-1.813-.953-1.89 0-2.656 1.203-2.656 2.422 0 1.39.985 2.39 2.594 2.39 1.703 0 2.016-1.218 2.016-1.296Zm0 0"/><path id="N" d="M4.016-1.297v-.562h-.5v.53c0 .72-.329.97-.625.97-.61 0-.61-.672-.61-.907v-2.906h1.531v-.484h-1.53v-2.016h-.5c0 1.047-.516 2.094-1.563 2.125v.375h.86v2.875c0 1.125.921 1.36 1.655 1.36.797 0 1.282-.594 1.282-1.36Zm0 0"/><path id="O" d="M3 0v-.5h-.64v-4.219L.53-4.64v.5c.61 0 .688 0 .688.407V-.5H.5V0l1.281-.031Zm-.5-6.375a.82.82 0 0 0-1.64 0c0 .453.374.828.827.828a.83.83 0 0 0 .813-.828Zm0 0"/><path id="P" d="M5.688-2.281c0-1.422-.97-2.469-2.672-2.469-1.72 0-2.672 1.063-2.672 2.469 0 1.297.922 2.344 2.672 2.344C4.78.063 5.687-1 5.687-2.281Zm-1.344-.125c0 .922 0 2.047-1.328 2.047-1.329 0-1.329-1.125-1.329-2.047 0-.469 0-1 .172-1.36.204-.39.641-.609 1.157-.609.437 0 .875.172 1.109.531.219.36.219.938.219 1.438Zm0 0"/><path id="Q" d="M6.75-2.875h-.484C6.172-2.156 6-.5 4.109-.5H3.031v-6.203h1.422v-.5c-.469.031-1.61.031-2.125.031-.453 0-1.515 0-1.922-.031v.5h1.14V-.5H.407V0h6.016Zm0 0"/><path id="R" d="M5.188-1.234c0-.188-.204-.188-.25-.188-.188 0-.204.063-.266.219-.219.516-.813.844-1.5.844-1.485 0-1.485-1.391-1.485-1.922h3.157c.234 0 .343 0 .343-.297 0-.313-.062-1.094-.593-1.61-.39-.375-.938-.562-1.672-.562C1.25-4.75.344-3.672.344-2.36.344-.952 1.39.063 3.078.063c1.656 0 2.11-1.109 2.11-1.296Zm-1-1.407h-2.5c.015-.406.03-.843.25-1.187a1.16 1.16 0 0 1 .984-.547c1.234 0 1.25 1.375 1.265 1.734Zm0 0"/><path id="S" d="M5.86-4.172a.617.617 0 0 0-.657-.61c-.156 0-.656.032-1.125.407-.187-.125-.625-.344-1.406-.344-1.5 0-2.078.813-2.078 1.547 0 .438.203.86.547 1.11-.297.359-.36.703-.36.921 0 .172.031.672.453 1.016-.125.031-.89.25-.89.906 0 .547.562 1.328 2.672 1.328 1.859 0 2.671-.625 2.671-1.359 0-.313-.078-.969-.78-1.328-.595-.297-1.22-.297-2.235-.297h-.797a.677.677 0 0 1-.578-.672c0-.11.031-.266.094-.344.484.25 1.03.282 1.28.282 1.517 0 2.095-.829 2.095-1.563 0-.5-.266-.844-.422-1 .312-.172.531-.203.656-.203a.756.756 0 0 0-.047.203c0 .266.188.453.453.453a.435.435 0 0 0 .453-.453Zm-2.266 1c0 .469 0 1.172-.922 1.172s-.922-.703-.922-1.172 0-1.172.922-1.172.922.703.922 1.172ZM4.78.781c0 .39-.406.953-1.765.953-1.266 0-1.782-.484-1.782-.968 0-.625.672-.625.813-.625H3.28c.313 0 1.5 0 1.5.64Zm0 0"/><path id="T" d="M6.313 0v-.5c-.657 0-.72 0-.72-.406v-6.375l-1.859.078v.5c.641 0 .72 0 .72.406v2.047a2.295 2.295 0 0 0-1.423-.469c-1.531 0-2.625.922-2.625 2.39C.406-.936 1.36.064 2.922.064c.64 0 1.14-.25 1.469-.516v.516ZM4.39-1.078c-.141.187-.563.766-1.36.766-1.281 0-1.281-1.266-1.281-2.016 0-.5 0-1.063.266-1.469.312-.437.796-.547 1.125-.547.593 0 1.015.328 1.25.64Zm0 0"/><path id="U" d="M3.469-1.688h2.297c.093 0 .28 0 .28-.187 0-.188-.171-.188-.28-.188H3.469v-2.296c0-.11 0-.282-.172-.282-.188 0-.188.172-.188.282v2.296H.797c-.094 0-.266 0-.266.188s.172.188.266.188h2.312V.608c0 .094 0 .282.172.282.188 0 .188-.172.188-.282Zm0 0"/><path id="V" d="M5.578-1.688c.125 0 .297 0 .297-.187 0-.188-.172-.188-.297-.188H1.11c-.125 0-.296 0-.296.188s.171.188.296.188Zm0 0"/><path id="W" d="M5.297-1.75c0-.078 0-.14-.11-.14-.093 0-.109.03-.125.109-.046 1.156-.984 1.687-1.78 1.687-.641 0-2.063-.39-2.063-2.469 0-2.015 1.36-2.468 2.062-2.468.703 0 1.578.5 1.781 1.797 0 .046 0 .109.11.109.125 0 .125-.063.125-.203v-1.75c0-.125 0-.203-.094-.203-.047 0-.062.015-.125.11l-.39.546a2.01 2.01 0 0 0-1.485-.656c-1.5 0-2.765 1.203-2.765 2.718 0 1.516 1.25 2.72 2.78 2.72 1.266 0 2.079-1 2.079-1.907Zm0 0"/><path id="X" d="M4.219 0v-.25c-.485 0-.578 0-.578-.328v-1.688c0-.64-.282-1.046-1.063-1.046-.672 0-1.015.421-1.14.671h-.016v-2.562l-1.11.078v.25c.5 0 .563.047.563.422v3.875c0 .328-.094.328-.563.328V0c.313-.016.641-.016.844-.016.219 0 .532 0 .86.016v-.25c-.485 0-.563 0-.563-.328v-1.36c0-.796.594-1.156 1.047-1.156.469 0 .578.313.578.797v1.719c0 .328-.094.328-.578.328V0c.328-.016.656-.016.86-.016.218 0 .53 0 .859.016Zm0 0"/><path id="Y" d="M3.86-.672v-.422h-.235v.422c0 .297-.11.422-.266.422-.28 0-.28-.344-.28-.422v-1.562c0-.735-.72-1.11-1.392-1.11-.625 0-1.187.235-1.187.735 0 .218.156.359.36.359.203 0 .343-.156.343-.36a.352.352 0 0 0-.266-.343c.266-.188.672-.188.735-.188.406 0 .828.297.828.907V-2c-.438.031-.938.047-1.453.266-.672.28-.797.718-.797.968 0 .641.766.844 1.281.844.547 0 .89-.312 1.047-.61.047.282.235.563.563.563.078 0 .718-.031.718-.703Zm-1.36-.39c0 .734-.61.921-.906.921-.39 0-.719-.25-.719-.609 0-.5.453-1.016 1.625-1.047Zm0 0"/><path id="Z" d="M2.875-2.828c0-.266-.234-.485-.563-.485-.484 0-.812.376-.984.797v-.796L.266-3.22v.235c.5 0 .562.062.562.421v1.985C.828-.25.75-.25.266-.25V0c.296-.016.703-.016.875-.016.453 0 .468 0 .953.016v-.25h-.156c-.547 0-.563-.078-.563-.344v-1.11c0-.562.234-1.374.953-1.39-.047.031-.11.094-.11.266a.32.32 0 0 0 .329.328.32.32 0 0 0 .328-.328Zm0 0"/><path id="aa" d="M3.86-3a.39.39 0 0 0-.422-.39c-.126 0-.485.03-.829.343a1.425 1.425 0 0 0-.843-.265c-.735 0-1.282.515-1.282 1.109 0 .344.188.61.344.765a.974.974 0 0 0-.219.61c0 .297.141.531.313.656-.39.11-.703.406-.703.75 0 .547.781.953 1.765.953.938 0 1.766-.375 1.766-.968 0-.407-.234-.72-.484-.844-.454-.235-.813-.235-1.547-.235h-.422a.494.494 0 0 1-.422-.5.46.46 0 0 1 .094-.312c.328.187.61.219.797.219.734 0 1.28-.516 1.28-1.094 0-.281-.124-.531-.296-.719.094-.094.344-.25.719-.265-.031.03-.078.062-.078.187 0 .14.109.234.234.234.11 0 .234-.062.234-.234Zm-1.407.797c0 .281-.031.469-.14.625a.747.747 0 0 1-.547.266c-.688 0-.688-.735-.688-.891 0-.281.031-.469.14-.625a.688.688 0 0 1 .548-.266c.687 0 .687.719.687.89Zm.86 2.765c0 .407-.579.75-1.329.75S.672.97.672.563c0-.156.11-.593.734-.593h.719c.203 0 1.188 0 1.188.594Zm0 0"/><path id="ab" d="M3.313-.906C3.313-.937 3.28-1 3.187-1c-.078 0-.093.047-.109.094-.265.719-.922.75-1.047.75-.344 0-.687-.157-.906-.5C.891-1 .891-1.484.891-1.703h2.203c.172 0 .219 0 .219-.172 0-.672-.376-1.469-1.438-1.469-.922 0-1.656.766-1.656 1.703 0 .97.812 1.72 1.765 1.72.954 0 1.329-.813 1.329-.985Zm-.516-1H.907c.062-1.047.702-1.235.968-1.235.89 0 .922 1.063.922 1.235Zm0 0"/><path id="ac" d="M1.953 0v-.25c-.484 0-.516-.031-.516-.328v-2.735l-1.093.094v.235c.469 0 .547.046.547.421v1.985C.89-.25.797-.25.312-.25V0c.297-.016.72-.016.829-.016.093 0 .546 0 .812.016Zm-.437-4.516a.407.407 0 0 0-.407-.421.407.407 0 0 0-.406.421c0 .22.172.407.406.407a.403.403 0 0 0 .407-.407Zm0 0"/><path id="ad" d="M2.875-.969c0-.36-.219-.89-1.11-1.047a9.339 9.339 0 0 0-.515-.093c-.234-.047-.578-.204-.578-.516 0-.219.156-.531.875-.531.844 0 .875.61.89.828 0 .062.063.078.11.078.125 0 .125-.047.125-.188v-.718c0-.11 0-.188-.094-.188-.047 0-.062 0-.187.125-.016 0-.079.063-.11.063 0 0-.015 0-.062-.031-.125-.079-.344-.157-.672-.157-1.047 0-1.281.563-1.281.922 0 .375.28.594.296.625.297.219.47.25.97.344.359.062.937.172.937.687 0 .282-.203.625-.89.625-.75 0-.97-.578-1.063-.984C.484-1.219.469-1.25.375-1.25c-.11 0-.11.063-.11.203v.922c0 .125 0 .203.094.203.047 0 .047-.015.188-.156C.578-.11.672-.203.703-.25c.344.313.688.328.89.328.954 0 1.282-.547 1.282-1.047Zm0 0"/><path id="ae" d="M2.578 0v-.25h-.187c-.594 0-.61-.078-.61-.36v-3.906c0-.28.016-.359.61-.359h.187v-.25l-1.14.031-1.141-.031v.25h.172c.594 0 .625.078.625.36V-.61c0 .28-.032.359-.625.359H.297V0l1.14-.016Zm0 0"/><path id="af" d="M3.75-1.594a1.76 1.76 0 0 0-1.766-1.75A1.77 1.77 0 0 0 .22-1.594c0 .938.812 1.672 1.765 1.672.97 0 1.766-.734 1.766-1.672Zm-.672-.078c0 .36-.015.766-.219 1.078-.203.297-.546.438-.875.438-.406 0-.718-.203-.875-.453C.922-.922.891-1.297.891-1.672c0-.281 0-.734.234-1.047.188-.265.516-.422.86-.422.39 0 .718.188.89.454.203.312.203.718.203 1.015Zm0 0"/><path id="ag" d="M4.219 0v-.25c-.485 0-.578 0-.578-.328v-1.688c0-.64-.282-1.046-1.063-1.046-.75 0-1.078.546-1.172.718h-.015v-.719l-1.079.094v.235c.5 0 .563.062.563.421v1.985c0 .328-.094.328-.563.328V0c.313-.016.641-.016.844-.016.219 0 .532 0 .86.016v-.25c-.485 0-.563 0-.563-.328v-1.36c0-.796.594-1.156 1.047-1.156.469 0 .578.313.578.797v1.719c0 .328-.094.328-.578.328V0c.328-.016.656-.016.86-.016.218 0 .53 0 .859.016Zm0 0"/><path id="ah" d="M5.625-2.516c0-1.437-1.094-2.609-2.438-2.609H.345v.25h.172c.578 0 .593.078.593.36V-.61c0 .28-.015.359-.593.359H.344V0h2.844c1.359 0 2.437-1.125 2.437-2.516Zm-.75 0c0 .375 0 1.11-.469 1.672-.265.297-.75.594-1.406.594h-.875c-.344 0-.36-.047-.36-.313v-4c0-.265.016-.312.36-.312H3c.578 0 1.063.234 1.39.61.485.577.485 1.374.485 1.75Zm0 0"/><path id="ai" d="M4.984-4.734c0-.329-.312-.547-.703-.547-.281 0-.61.093-.86.312-.233-.281-.687-.312-.89-.312-.75 0-1.703.375-1.703 1.218v.829h-.61v.25h.61v2.406C.828-.25.75-.25.266-.25V0c.296-.016.703-.016.843-.016.141 0 .547 0 .844.016v-.25c-.484 0-.578 0-.578-.328v-2.406h1.656v2.406c0 .328-.078.328-.562.328V0c.297-.016.703-.016.89-.016.438 0 .454 0 .938.016v-.25H4.14c-.547 0-.563-.078-.563-.344v-2.39H4.5v-.25h-.938v-.844c0-.672.376-.984.704-.984.03 0 .109 0 .218.03-.14.063-.171.188-.171.298 0 .187.14.328.343.328s.328-.14.328-.328Zm-1.89-.22a.321.321 0 0 0-.219.313c0 .063.016.235.188.313-.032.078-.032.219-.032.25v.844H1.36v-.813c0-.734.657-1.016 1.157-1.016.078 0 .359 0 .578.11Zm0 0"/><path id="aj" d="M4.219 0v-.25c-.516 0-.578-.047-.578-.422v-2.64L2.5-3.22v.235c.516 0 .578.062.578.421v1.313c0 .64-.39 1.11-.953 1.11-.64 0-.672-.313-.672-.688v-2.485l-1.14.094v.235c.562 0 .562.03.562.703v1.125c0 .531 0 1.234 1.203 1.234.703 0 .969-.547 1.016-.61v.61Zm0 0"/><path id="ak" d="M2.828-4.734c0-.329-.312-.547-.719-.547-.562 0-1.218.406-1.218 1.203v.844H.266v.25H.89v2.406C.89-.25.797-.25.312-.25V0c.297-.016.704-.016.891-.016.438 0 .453 0 .938.016v-.25H2c-.547 0-.563-.078-.563-.344v-2.39h.891v-.25h-.922v-.844c0-.656.375-.984.703-.984a.52.52 0 0 1 .22.03c-.142.063-.173.188-.173.298 0 .187.14.328.328.328.204 0 .344-.14.344-.328Zm0 0"/><path id="al" d="M2.64-.938v-.421h-.218v.406c0 .515-.235.797-.531.797-.5 0-.5-.64-.5-.766v-2.062h1.125v-.25H1.39V-4.61h-.235c0 .671-.312 1.39-1 1.421v.204h.672v2.046C.828-.063 1.5.079 1.844.079c.5 0 .797-.453.797-1.016Zm0 0"/><clipPath id="a"><path d="M147 24h143v141H147Zm0 0"/></clipPath><clipPath id="b"><path d="M147.602 165.414h127.562c7.828 0 14.172-6.344 14.172-14.172V37.855c0-7.828-6.344-14.171-14.172-14.171H147.602Zm0 0"/></clipPath><clipPath id="d"><path d="M5 24h143v141H5Zm0 0"/></clipPath><clipPath id="e"><path d="M147.602 165.414H20.043c-7.828 0-14.176-6.344-14.176-14.172V37.855c0-7.828 6.348-14.171 14.176-14.171h127.559Zm0 0"/></clipPath><clipPath id="g"><path d="M119 24h57v141h-57Zm0 0"/></clipPath><clipPath id="h"><path d="M119.254 151.242V37.855c0-7.828 6.348-14.171 14.176-14.171h28.347c7.825 0 14.172 6.343 14.172 14.171v113.387c0 7.828-6.347 14.172-14.172 14.172H133.43c-7.828 0-14.176-6.344-14.176-14.172Zm0 0"/></clipPath><linearGradient id="c" x1="0" x2="0" y1="25.003" y2="74.997" gradientTransform="matrix(-2.83502 0 0 2.83502 360.22 -47.202)" gradientUnits="userSpaceOnUse"><stop offset="0" stop-color="#E5E5F0"/><stop offset=".031" stop-color="#E5E5EF"/><stop offset=".063" stop-color="#E4E4EF"/><stop offset=".094" stop-color="#E4E4EF"/><stop offset=".125" stop-color="#E3E3EE"/><stop offset=".156" stop-color="#E2E2EE"/><stop offset=".188" stop-color="#E1E1ED"/><stop offset=".219" stop-color="#E0E0ED"/><stop offset=".25" stop-color="#E0E0EC"/><stop offset=".281" stop-color="#DFDFEC"/><stop offset=".313" stop-color="#DEDEEB"/><stop offset=".344" stop-color="#DDDDEB"/><stop offset=".375" stop-color="#DCDCEA"/><stop offset=".406" stop-color="#DCDCEA"/><stop offset=".438" stop-color="#DBDBE9"/><stop offset=".469" stop-color="#DADAE9"/><stop offset=".5" stop-color="#D9D9E8"/><stop offset=".531" stop-color="#D8D8E8"/><stop offset=".563" stop-color="#D8D8E7"/><stop offset=".594" stop-color="#D7D7E7"/><stop offset=".625" stop-color="#D6D6E6"/><stop offset=".656" stop-color="#D5D5E6"/><stop offset=".688" stop-color="#D4D4E5"/><stop offset=".719" stop-color="#D4D4E5"/><stop offset=".75" stop-color="#D3D3E4"/><stop offset=".781" stop-color="#D2D2E4"/><stop offset=".813" stop-color="#D1D1E4"/><stop offset=".844" stop-color="#D0D0E3"/><stop offset=".875" stop-color="#D0D0E3"/><stop offset=".906" stop-color="#CFCFE2"/><stop offset=".938" stop-color="#CECEE2"/><stop offset=".969" stop-color="#CDCDE1"/><stop offset="1" stop-color="#CCCCE1"/></linearGradient><linearGradient id="f" x1="0" x2="0" y1="25.003" y2="74.997" gradientTransform="matrix(-2.83502 0 0 2.83502 218.486 -47.202)" gradientUnits="userSpaceOnUse"><stop offset="0" stop-color="#F0E5E5"/><stop offset=".031" stop-color="#EFE5E5"/><stop offset=".063" stop-color="#EFE4E4"/><stop offset=".094" stop-color="#EFE4E4"/><stop offset=".125" stop-color="#EEE3E3"/><stop offset=".156" stop-color="#EEE2E2"/><stop offset=".188" stop-color="#EDE1E1"/><stop offset=".219" stop-color="#EDE0E0"/><stop offset=".25" stop-color="#ECE0E0"/><stop offset=".281" stop-color="#ECDFDF"/><stop offset=".313" stop-color="#EBDEDE"/><stop offset=".344" stop-color="#EBDDDD"/><stop offset=".375" stop-color="#EADCDC"/><stop offset=".406" stop-color="#EADCDC"/><stop offset=".438" stop-color="#E9DBDB"/><stop offset=".469" stop-color="#E9DADA"/><stop offset=".5" stop-color="#E8D9D9"/><stop offset=".531" stop-color="#E8D8D8"/><stop offset=".563" stop-color="#E7D8D8"/><stop offset=".594" stop-color="#E7D7D7"/><stop offset=".625" stop-color="#E6D6D6"/><stop offset=".656" stop-color="#E6D5D5"/><stop offset=".688" stop-color="#E5D4D4"/><stop offset=".719" stop-color="#E5D4D4"/><stop offset=".75" stop-color="#E4D3D3"/><stop offset=".781" stop-color="#E4D2D2"/><stop offset=".813" stop-color="#E4D1D1"/><stop offset=".844" stop-color="#E3D0D0"/><stop offset=".875" stop-color="#E3D0D0"/><stop offset=".906" stop-color="#E2CFCF"/><stop offset=".938" stop-color="#E2CECE"/><stop offset=".969" stop-color="#E1CDCD"/><stop offset="1" stop-color="#E1CCCC"/></linearGradient><linearGradient id="i" x1="0" x2="0" y1="25.003" y2="74.997" gradientTransform="matrix(-1.134 0 0 2.83502 204.302 -47.202)" gradientUnits="userSpaceOnUse"><stop offset="0" stop-color="#D1C2B2"/><stop offset=".016" stop-color="#D1C1B2"/><stop offset=".031" stop-color="#D0C1B1"/><stop offset=".047" stop-color="#D0C0B1"/><stop offset=".063" stop-color="#CFC0B0"/><stop offset=".078" stop-color="#CFBFAF"/><stop offset=".094" stop-color="#CEBEAE"/><stop offset=".109" stop-color="#CEBEAD"/><stop offset=".125" stop-color="#CEBDAD"/><stop offset=".141" stop-color="#CDBCAC"/><stop offset=".156" stop-color="#CDBCAB"/><stop offset=".172" stop-color="#CBA"/><stop offset=".188" stop-color="#CCBAA9"/><stop offset=".203" stop-color="#CBBAA9"/><stop offset=".219" stop-color="#CBB9A8"/><stop offset=".234" stop-color="#CAB9A7"/><stop offset=".25" stop-color="#CAB8A6"/><stop offset=".266" stop-color="#C9B7A5"/><stop offset=".281" stop-color="#C9B7A5"/><stop offset=".297" stop-color="#C8B6A4"/><stop offset=".313" stop-color="#C8B5A3"/><stop offset=".328" stop-color="#C7B5A2"/><stop offset=".344" stop-color="#C7B4A1"/><stop offset=".359" stop-color="#C6B3A1"/><stop offset=".375" stop-color="#C6B3A0"/><stop offset=".391" stop-color="#C5B29F"/><stop offset=".406" stop-color="#C5B29E"/><stop offset=".422" stop-color="#C4B19D"/><stop offset=".438" stop-color="#C4B09D"/><stop offset=".453" stop-color="#C3B09C"/><stop offset=".469" stop-color="#C3AF9B"/><stop offset=".484" stop-color="#C3AE9A"/><stop offset=".5" stop-color="#C2AE99"/><stop offset=".516" stop-color="#C2AD99"/><stop offset=".531" stop-color="#C1AC98"/><stop offset=".547" stop-color="#C1AC97"/><stop offset=".563" stop-color="#C0AB96"/><stop offset=".578" stop-color="#C0AB95"/><stop offset=".594" stop-color="#BFAA95"/><stop offset=".609" stop-color="#BFA994"/><stop offset=".625" stop-color="#BEA993"/><stop offset=".641" stop-color="#BEA892"/><stop offset=".656" stop-color="#BDA791"/><stop offset=".672" stop-color="#BDA791"/><stop offset=".688" stop-color="#BCA690"/><stop offset=".703" stop-color="#BCA58F"/><stop offset=".719" stop-color="#BBA58E"/><stop offset=".734" stop-color="#BBA48D"/><stop offset=".75" stop-color="#BAA48D"/><stop offset=".766" stop-color="#BAA38C"/><stop offset=".781" stop-color="#B9A28B"/><stop offset=".797" stop-color="#B9A28A"/><stop offset=".813" stop-color="#B8A189"/><stop offset=".828" stop-color="#B8A089"/><stop offset=".844" stop-color="#B8A088"/><stop offset=".859" stop-color="#B79F87"/><stop offset=".875" stop-color="#B79E86"/><stop offset=".891" stop-color="#B69E85"/><stop offset=".906" stop-color="#B69D85"/><stop offset=".922" stop-color="#B59D84"/><stop offset=".938" stop-color="#B59C83"/><stop offset=".953" stop-color="#B49B82"/><stop offset=".969" stop-color="#B49B81"/><stop offset=".984" stop-color="#B39A81"/><stop offset="1" stop-color="#B39980"/></linearGradient></defs><path fill="#F0E5E5" d="M147.602 165.414h127.562c7.828 0 14.172-6.344 14.172-14.172V37.855c0-7.828-6.344-14.171-14.172-14.171H147.602Zm0 0"/><g clip-path="url(#a)"><g clip-path="url(#b)"><path fill="url(#c)" d="M289.336 23.684v141.73H147.602V23.684Zm0 0"/></g></g><path fill="#F0E5E5" d="M147.602 165.414H20.043c-7.828 0-14.176-6.344-14.176-14.172V37.855c0-7.828 6.348-14.171 14.176-14.171h127.559Zm0 0"/><g clip-path="url(#d)"><g clip-path="url(#e)"><path fill="url(#f)" d="M147.602 23.684v141.73H5.867V23.684Zm0 0"/></g></g><path fill="#D1C2B2" d="M119.254 151.242V37.855c0-7.828 6.348-14.171 14.176-14.171h28.347c7.825 0 14.172 6.343 14.172 14.171v113.387c0 7.828-6.347 14.172-14.172 14.172H133.43c-7.828 0-14.176-6.344-14.176-14.172Zm0 0"/><g clip-path="url(#g)"><g clip-path="url(#h)"><path fill="url(#i)" d="M175.95 23.684v141.73h-56.696V23.684Zm0 0"/></g></g><path fill="none" stroke="#000" stroke-miterlimit="10" stroke-width=".399" d="M5.867 151.242V37.855c0-7.828 6.348-14.171 14.176-14.171h255.121c7.828 0 14.172 6.343 14.172 14.171v113.387c0 7.828-6.344 14.172-14.172 14.172H20.043c-7.828 0-14.176-6.344-14.176-14.172Zm0 0"/><path fill="none" stroke="#000" stroke-miterlimit="10" stroke-width=".399" d="M27.836 149.824a6.377 6.377 0 1 0-12.754 0 6.377 6.377 0 1 0 12.754 0Zm0 0"/><use xlink:href="#j" x="17.375" y="152.45"/><path fill="none" stroke="#000" stroke-miterlimit="10" stroke-width=".399" d="M280.125 149.824a6.378 6.378 0 0 0-6.379-6.379 6.378 6.378 0 0 0-6.379 6.38 6.378 6.378 0 0 0 6.38 6.378 6.378 6.378 0 0 0 6.378-6.379Zm0 0"/><use xlink:href="#k" x="269.662" y="152.45"/><path fill="none" stroke="#000" stroke-miterlimit="10" stroke-width=".399" d="M27.836 127.715a6.377 6.377 0 1 0-12.754 0 6.377 6.377 0 1 0 12.754 0Zm0 0"/><use xlink:href="#j" x="17.375" y="130.34"/><path fill="none" stroke="#000" stroke-miterlimit="10" stroke-width=".399" d="M280.125 127.715a6.378 6.378 0 0 0-6.379-6.38 6.378 6.378 0 0 0-6.379 6.38 6.378 6.378 0 0 0 6.38 6.379 6.378 6.378 0 0 0 6.378-6.38Zm0 0"/><use xlink:href="#k" x="269.662" y="130.34"/><path fill="none" stroke="#000" stroke-miterlimit="10" stroke-width=".399" d="M27.836 105.605a6.377 6.377 0 1 0-12.753-.003 6.377 6.377 0 0 0 12.753.003Zm0 0"/><use xlink:href="#j" x="17.375" y="108.229"/><path fill="none" stroke="#000" stroke-miterlimit="10" stroke-width=".399" d="M280.125 105.605a6.378 6.378 0 0 0-6.379-6.378 6.377 6.377 0 1 0 0 12.754 6.377 6.377 0 0 0 6.379-6.376Zm0 0"/><use xlink:href="#k" x="269.662" y="108.229"/><path fill="none" stroke="#000" stroke-miterlimit="10" stroke-width=".399" d="M27.836 83.492a6.377 6.377 0 1 0-12.755.005 6.377 6.377 0 0 0 12.755-.005Zm0 0"/><use xlink:href="#j" x="17.375" y="86.119"/><path fill="none" stroke="#000" stroke-miterlimit="10" stroke-width=".399" d="M280.125 83.492a6.377 6.377 0 0 0-6.379-6.375 6.377 6.377 0 1 0 0 12.754 6.378 6.378 0 0 0 6.379-6.379Zm0 0"/><use xlink:href="#k" x="269.662" y="86.119"/><path fill="none" stroke="#000" stroke-miterlimit="10" stroke-width=".399" d="M27.836 61.383a6.377 6.377 0 1 0-12.754 0 6.377 6.377 0 1 0 12.754 0Zm0 0"/><use xlink:href="#j" x="17.375" y="64.008"/><path fill="none" stroke="#000" stroke-miterlimit="10" stroke-width=".399" d="M280.125 61.383a6.378 6.378 0 0 0-6.379-6.38 6.378 6.378 0 0 0-6.379 6.38 6.378 6.378 0 0 0 6.38 6.379 6.378 6.378 0 0 0 6.378-6.38Zm0 0"/><use xlink:href="#k" x="269.662" y="64.008"/><path fill="none" stroke="#000" stroke-miterlimit="10" stroke-width=".399" d="M27.836 39.273a6.377 6.377 0 1 0-12.754 0 6.377 6.377 0 1 0 12.754 0Zm0 0"/><use xlink:href="#j" x="17.375" y="41.898"/><path fill="none" stroke="#000" stroke-miterlimit="10" stroke-width=".399" d="M280.125 39.273a6.378 6.378 0 0 0-6.379-6.378 6.378 6.378 0 0 0-6.379 6.378 6.378 6.378 0 0 0 6.38 6.38 6.378 6.378 0 0 0 6.378-6.38Zm0 0"/><use xlink:href="#k" x="269.662" y="41.898"/><path fill="none" stroke="#000" stroke-miterlimit="10" stroke-width=".399" d="M49.95 149.824a6.378 6.378 0 0 0-6.38-6.379 6.378 6.378 0 0 0-6.379 6.38 6.378 6.378 0 0 0 6.38 6.378 6.378 6.378 0 0 0 6.378-6.379Zm0 0"/><use xlink:href="#j" x="39.486" y="152.45"/><path fill="none" stroke="#000" stroke-miterlimit="10" stroke-width=".399" d="M258.012 149.824a6.377 6.377 0 1 0-12.754 0 6.377 6.377 0 1 0 12.754 0Zm0 0"/><use xlink:href="#k" x="247.552" y="152.45"/><path fill="none" stroke="#000" stroke-miterlimit="10" stroke-width=".399" d="M49.95 127.715a6.378 6.378 0 0 0-6.38-6.38 6.378 6.378 0 0 0-6.379 6.38 6.378 6.378 0 0 0 6.38 6.379 6.378 6.378 0 0 0 6.378-6.38Zm0 0"/><use xlink:href="#j" x="39.486" y="130.34"/><path fill="none" stroke="#000" stroke-miterlimit="10" stroke-width=".399" d="M258.012 127.715a6.377 6.377 0 1 0-12.754 0 6.377 6.377 0 1 0 12.754 0Zm0 0"/><use xlink:href="#k" x="247.552" y="130.34"/><path fill="none" stroke="#000" stroke-miterlimit="10" stroke-width=".399" d="M49.95 105.605a6.378 6.378 0 0 0-6.38-6.378 6.377 6.377 0 1 0 0 12.754 6.377 6.377 0 0 0 6.38-6.376Zm0 0"/><use xlink:href="#j" x="39.486" y="108.229"/><path fill="none" stroke="#000" stroke-miterlimit="10" stroke-width=".399" d="M258.012 105.605a6.377 6.377 0 1 0-12.755-.002 6.377 6.377 0 0 0 12.755.002Zm0 0"/><use xlink:href="#k" x="247.552" y="108.229"/><path fill="none" stroke="#000" stroke-miterlimit="10" stroke-width=".399" d="M49.95 83.492a6.377 6.377 0 0 0-6.38-6.375 6.377 6.377 0 1 0 0 12.754 6.378 6.378 0 0 0 6.38-6.379Zm0 0"/><use xlink:href="#j" x="39.486" y="86.119"/><path fill="none" stroke="#000" stroke-miterlimit="10" stroke-width=".399" d="M258.012 83.492a6.377 6.377 0 1 0-12.754.003 6.377 6.377 0 0 0 12.754-.003Zm0 0"/><use xlink:href="#k" x="247.552" y="86.119"/><path fill="none" stroke="#000" stroke-miterlimit="10" stroke-width=".399" d="M49.95 61.383a6.378 6.378 0 0 0-6.38-6.38 6.378 6.378 0 0 0-6.379 6.38 6.378 6.378 0 0 0 6.38 6.379 6.378 6.378 0 0 0 6.378-6.38Zm0 0"/><use xlink:href="#j" x="39.486" y="64.008"/><path fill="none" stroke="#000" stroke-miterlimit="10" stroke-width=".399" d="M258.012 61.383a6.377 6.377 0 1 0-12.754 0 6.377 6.377 0 1 0 12.754 0Zm0 0"/><use xlink:href="#k" x="247.552" y="64.008"/><path fill="none" stroke="#000" stroke-miterlimit="10" stroke-width=".399" d="M49.95 39.273a6.378 6.378 0 0 0-6.38-6.378 6.378 6.378 0 0 0-6.379 6.378 6.378 6.378 0 0 0 6.38 6.38 6.378 6.378 0 0 0 6.378-6.38Zm0 0"/><use xlink:href="#j" x="39.486" y="41.898"/><path fill="none" stroke="#000" stroke-miterlimit="10" stroke-width=".399" d="M258.012 39.273a6.377 6.377 0 1 0-12.754 0 6.377 6.377 0 1 0 12.754 0Zm0 0"/><use xlink:href="#k" x="247.552" y="41.898"/><path fill="none" stroke="#000" stroke-miterlimit="10" stroke-width=".399" d="M72.059 149.824a6.378 6.378 0 0 0-6.38-6.379 6.378 6.378 0 0 0-6.378 6.38 6.378 6.378 0 0 0 6.379 6.378 6.378 6.378 0 0 0 6.379-6.379Zm0 0"/><use xlink:href="#j" x="61.596" y="152.45"/><path fill="none" stroke="#000" stroke-miterlimit="10" stroke-width=".399" d="M235.902 149.824a6.378 6.378 0 0 0-6.379-6.379 6.378 6.378 0 0 0-6.378 6.38 6.378 6.378 0 0 0 6.378 6.378 6.378 6.378 0 0 0 6.38-6.379Zm0 0"/><use xlink:href="#k" x="225.441" y="152.45"/><path fill="none" stroke="#000" stroke-miterlimit="10" stroke-width=".399" d="M72.059 127.715a6.378 6.378 0 0 0-6.38-6.38 6.378 6.378 0 0 0-6.378 6.38 6.378 6.378 0 0 0 6.379 6.379 6.378 6.378 0 0 0 6.379-6.38Zm0 0"/><use xlink:href="#j" x="61.596" y="130.34"/><path fill="none" stroke="#000" stroke-miterlimit="10" stroke-width=".399" d="M235.902 127.715a6.378 6.378 0 0 0-6.379-6.38 6.378 6.378 0 0 0-6.378 6.38 6.378 6.378 0 0 0 6.378 6.379 6.378 6.378 0 0 0 6.38-6.38Zm0 0"/><use xlink:href="#k" x="225.441" y="130.34"/><path fill="none" stroke="#000" stroke-miterlimit="10" stroke-width=".399" d="M72.059 105.605a6.378 6.378 0 0 0-6.38-6.378 6.377 6.377 0 1 0 0 12.754 6.377 6.377 0 0 0 6.38-6.376Zm0 0"/><use xlink:href="#j" x="61.596" y="108.229"/><path fill="none" stroke="#000" stroke-miterlimit="10" stroke-width=".399" d="M235.902 105.605a6.378 6.378 0 0 0-6.379-6.378 6.377 6.377 0 1 0 0 12.754 6.377 6.377 0 0 0 6.38-6.376Zm0 0"/><use xlink:href="#k" x="225.441" y="108.229"/><path fill="none" stroke="#000" stroke-miterlimit="10" stroke-width=".399" d="M72.059 83.492a6.377 6.377 0 0 0-6.38-6.375 6.377 6.377 0 1 0 0 12.754 6.378 6.378 0 0 0 6.38-6.379Zm0 0"/><use xlink:href="#j" x="61.596" y="86.119"/><path fill="none" stroke="#000" stroke-miterlimit="10" stroke-width=".399" d="M235.902 83.492a6.377 6.377 0 0 0-6.379-6.375 6.377 6.377 0 1 0 0 12.754 6.378 6.378 0 0 0 6.38-6.379Zm0 0"/><use xlink:href="#k" x="225.441" y="86.119"/><path fill="none" stroke="#000" stroke-miterlimit="10" stroke-width=".399" d="M72.059 61.383a6.378 6.378 0 0 0-6.38-6.38 6.378 6.378 0 0 0-6.378 6.38 6.378 6.378 0 0 0 6.379 6.379 6.378 6.378 0 0 0 6.379-6.38Zm0 0"/><use xlink:href="#j" x="61.596" y="64.008"/><path fill="none" stroke="#000" stroke-miterlimit="10" stroke-width=".399" d="M235.902 61.383a6.378 6.378 0 0 0-6.379-6.38 6.378 6.378 0 0 0-6.378 6.38 6.378 6.378 0 0 0 6.378 6.379 6.378 6.378 0 0 0 6.38-6.38Zm0 0"/><use xlink:href="#k" x="225.441" y="64.008"/><path fill="none" stroke="#000" stroke-miterlimit="10" stroke-width=".399" d="M72.059 39.273a6.378 6.378 0 0 0-6.38-6.378 6.378 6.378 0 0 0-6.378 6.378 6.378 6.378 0 0 0 6.379 6.38 6.378 6.378 0 0 0 6.379-6.38Zm0 0"/><use xlink:href="#j" x="61.596" y="41.898"/><path fill="none" stroke="#000" stroke-miterlimit="10" stroke-width=".399" d="M235.902 39.273a6.378 6.378 0 0 0-6.379-6.378 6.378 6.378 0 0 0-6.378 6.378 6.378 6.378 0 0 0 6.378 6.38 6.378 6.378 0 0 0 6.38-6.38Zm0 0"/><use xlink:href="#k" x="225.441" y="41.898"/><path fill="none" stroke="#000" stroke-miterlimit="10" stroke-width=".399" d="M94.168 149.824a6.377 6.377 0 1 0-12.754 0 6.377 6.377 0 1 0 12.754 0Zm0 0"/><use xlink:href="#j" x="83.707" y="152.45"/><path fill="none" stroke="#000" stroke-miterlimit="10" stroke-width=".399" d="M213.793 149.824a6.378 6.378 0 0 0-6.379-6.379 6.378 6.378 0 0 0-6.379 6.38 6.378 6.378 0 0 0 6.38 6.378 6.378 6.378 0 0 0 6.378-6.379Zm0 0"/><use xlink:href="#k" x="203.331" y="152.45"/><path fill="none" stroke="#000" stroke-miterlimit="10" stroke-width=".399" d="M94.168 127.715a6.377 6.377 0 1 0-12.754 0 6.377 6.377 0 1 0 12.754 0Zm0 0"/><use xlink:href="#j" x="83.707" y="130.34"/><path fill="none" stroke="#000" stroke-miterlimit="10" stroke-width=".399" d="M213.793 127.715a6.378 6.378 0 0 0-6.379-6.38 6.378 6.378 0 0 0-6.379 6.38 6.378 6.378 0 0 0 6.38 6.379 6.378 6.378 0 0 0 6.378-6.38Zm0 0"/><use xlink:href="#k" x="203.331" y="130.34"/><path fill="none" stroke="#000" stroke-miterlimit="10" stroke-width=".399" d="M94.168 105.605a6.377 6.377 0 1 0-12.753-.003 6.377 6.377 0 0 0 12.753.003Zm0 0"/><use xlink:href="#j" x="83.707" y="108.229"/><path fill="none" stroke="#000" stroke-miterlimit="10" stroke-width=".399" d="M213.793 105.605a6.378 6.378 0 0 0-6.379-6.378 6.377 6.377 0 1 0 0 12.754 6.377 6.377 0 0 0 6.379-6.376Zm0 0"/><use xlink:href="#k" x="203.331" y="108.229"/><path fill="none" stroke="#000" stroke-miterlimit="10" stroke-width=".399" d="M94.168 83.492a6.377 6.377 0 1 0-12.755.005 6.377 6.377 0 0 0 12.755-.005Zm0 0"/><use xlink:href="#j" x="83.707" y="86.119"/><path fill="none" stroke="#000" stroke-miterlimit="10" stroke-width=".399" d="M213.793 83.492a6.377 6.377 0 0 0-6.379-6.375 6.377 6.377 0 1 0 0 12.754 6.378 6.378 0 0 0 6.379-6.379Zm0 0"/><use xlink:href="#k" x="203.331" y="86.119"/><path fill="none" stroke="#000" stroke-miterlimit="10" stroke-width=".399" d="M94.168 61.383a6.377 6.377 0 1 0-12.754 0 6.377 6.377 0 1 0 12.754 0Zm0 0"/><use xlink:href="#j" x="83.707" y="64.008"/><path fill="none" stroke="#000" stroke-miterlimit="10" stroke-width=".399" d="M213.793 61.383a6.378 6.378 0 0 0-6.379-6.38 6.378 6.378 0 0 0-6.379 6.38 6.378 6.378 0 0 0 6.38 6.379 6.378 6.378 0 0 0 6.378-6.38Zm0 0"/><use xlink:href="#k" x="203.331" y="64.008"/><path fill="none" stroke="#000" stroke-miterlimit="10" stroke-width=".399" d="M94.168 39.273a6.377 6.377 0 1 0-12.754 0 6.377 6.377 0 1 0 12.754 0Zm0 0"/><use xlink:href="#j" x="83.707" y="41.898"/><path fill="none" stroke="#000" stroke-miterlimit="10" stroke-width=".399" d="M213.793 39.273a6.378 6.378 0 0 0-6.379-6.378 6.378 6.378 0 0 0-6.379 6.378 6.378 6.378 0 0 0 6.38 6.38 6.378 6.378 0 0 0 6.378-6.38Zm0 0"/><use xlink:href="#k" x="203.331" y="41.898"/><path fill="none" stroke="#000" stroke-miterlimit="10" stroke-width=".399" d="M116.277 149.824a6.377 6.377 0 1 0-12.754 0 6.377 6.377 0 1 0 12.754 0Zm0 0"/><use xlink:href="#j" x="105.817" y="152.45"/><path fill="none" stroke="#000" stroke-miterlimit="10" stroke-width=".399" d="M191.68 149.824a6.377 6.377 0 1 0-12.754 0 6.377 6.377 0 1 0 12.754 0Zm0 0"/><use xlink:href="#k" x="181.22" y="152.45"/><path fill="none" stroke="#000" stroke-miterlimit="10" stroke-width=".399" d="M116.277 127.715a6.377 6.377 0 1 0-12.754 0 6.377 6.377 0 1 0 12.754 0Zm0 0"/><use xlink:href="#j" x="105.817" y="130.34"/><path fill="none" stroke="#000" stroke-miterlimit="10" stroke-width=".399" d="M191.68 127.715a6.377 6.377 0 1 0-12.754 0 6.377 6.377 0 1 0 12.754 0Zm0 0"/><use xlink:href="#k" x="181.22" y="130.34"/><path fill="none" stroke="#000" stroke-miterlimit="10" stroke-width=".399" d="M116.277 105.605a6.377 6.377 0 1 0-12.755-.002 6.377 6.377 0 0 0 12.755.002Zm0 0"/><use xlink:href="#j" x="105.817" y="108.229"/><path fill="none" stroke="#000" stroke-miterlimit="10" stroke-width=".399" d="M191.68 105.605a6.377 6.377 0 1 0-12.755-.002 6.377 6.377 0 0 0 12.755.002Zm0 0"/><use xlink:href="#k" x="181.22" y="108.229"/><path fill="none" stroke="#000" stroke-miterlimit="10" stroke-width=".399" d="M116.277 83.492a6.377 6.377 0 1 0-12.753.003 6.377 6.377 0 0 0 12.753-.003Zm0 0"/><use xlink:href="#j" x="105.817" y="86.119"/><path fill="none" stroke="#000" stroke-miterlimit="10" stroke-width=".399" d="M191.68 83.492a6.377 6.377 0 1 0-12.754.003 6.377 6.377 0 0 0 12.754-.003Zm0 0"/><use xlink:href="#k" x="181.22" y="86.119"/><path fill="none" stroke="#000" stroke-miterlimit="10" stroke-width=".399" d="M116.277 61.383a6.377 6.377 0 1 0-12.754 0 6.377 6.377 0 1 0 12.754 0Zm0 0"/><use xlink:href="#j" x="105.817" y="64.008"/><path fill="none" stroke="#000" stroke-miterlimit="10" stroke-width=".399" d="M191.68 61.383a6.377 6.377 0 1 0-12.754 0 6.377 6.377 0 1 0 12.754 0Zm0 0"/><use xlink:href="#k" x="181.22" y="64.008"/><path fill="none" stroke="#000" stroke-miterlimit="10" stroke-width=".399" d="M116.277 39.273a6.377 6.377 0 1 0-12.754 0 6.377 6.377 0 1 0 12.754 0Zm0 0"/><use xlink:href="#j" x="105.817" y="41.898"/><path fill="none" stroke="#000" stroke-miterlimit="10" stroke-width=".399" d="M191.68 39.273a6.377 6.377 0 1 0-12.754 0 6.377 6.377 0 1 0 12.754 0Zm0 0"/><use xlink:href="#k" x="181.22" y="41.898"/><path fill="none" stroke="#000" stroke-miterlimit="10" stroke-width=".399" d="M138.39 149.824a6.378 6.378 0 0 0-6.378-6.379 6.378 6.378 0 0 0-6.38 6.38 6.378 6.378 0 0 0 6.38 6.378 6.378 6.378 0 0 0 6.379-6.379Zm0 0"/><use xlink:href="#j" x="127.928" y="152.45"/><path fill="none" stroke="#000" stroke-miterlimit="10" stroke-width=".399" d="M169.57 149.824a6.377 6.377 0 1 0-12.754 0 6.377 6.377 0 1 0 12.754 0Zm0 0"/><use xlink:href="#k" x="159.11" y="152.45"/><path fill="none" stroke="#000" stroke-miterlimit="10" stroke-width=".399" d="M138.39 127.715a6.378 6.378 0 0 0-6.378-6.38 6.378 6.378 0 0 0-6.38 6.38 6.378 6.378 0 0 0 6.38 6.379 6.378 6.378 0 0 0 6.379-6.38Zm0 0"/><use xlink:href="#j" x="127.928" y="130.34"/><path fill="none" stroke="#000" stroke-miterlimit="10" stroke-width=".399" d="M169.57 127.715a6.377 6.377 0 1 0-12.754 0 6.377 6.377 0 1 0 12.754 0Zm0 0"/><use xlink:href="#k" x="159.11" y="130.34"/><path fill="none" stroke="#000" stroke-miterlimit="10" stroke-width=".399" d="M138.39 105.605a6.378 6.378 0 0 0-6.378-6.378 6.377 6.377 0 1 0 0 12.754 6.377 6.377 0 0 0 6.379-6.376Zm0 0"/><use xlink:href="#j" x="127.928" y="108.229"/><path fill="none" stroke="#000" stroke-miterlimit="10" stroke-width=".399" d="M169.57 105.605a6.377 6.377 0 1 0-12.753-.003 6.377 6.377 0 0 0 12.753.003Zm0 0"/><use xlink:href="#k" x="159.11" y="108.229"/><path fill="none" stroke="#000" stroke-miterlimit="10" stroke-width=".399" d="M138.39 83.492a6.377 6.377 0 0 0-6.378-6.375 6.377 6.377 0 1 0 0 12.754 6.378 6.378 0 0 0 6.379-6.379Zm0 0"/><use xlink:href="#j" x="127.928" y="86.119"/><path fill="none" stroke="#000" stroke-miterlimit="10" stroke-width=".399" d="M169.57 83.492a6.377 6.377 0 1 0-12.755.005 6.377 6.377 0 0 0 12.755-.005Zm0 0"/><use xlink:href="#k" x="159.11" y="86.119"/><path fill="none" stroke="#000" stroke-miterlimit="10" stroke-width=".399" d="M138.39 61.383a6.378 6.378 0 0 0-6.378-6.38 6.378 6.378 0 0 0-6.38 6.38 6.378 6.378 0 0 0 6.38 6.379 6.378 6.378 0 0 0 6.379-6.38Zm0 0"/><use xlink:href="#j" x="127.928" y="64.008"/><path fill="none" stroke="#000" stroke-miterlimit="10" stroke-width=".399" d="M169.57 61.383a6.377 6.377 0 1 0-12.754 0 6.377 6.377 0 1 0 12.754 0Zm0 0"/><use xlink:href="#k" x="159.11" y="64.008"/><path fill="none" stroke="#000" stroke-miterlimit="10" stroke-width=".399" d="M138.39 39.273a6.378 6.378 0 0 0-6.378-6.378 6.378 6.378 0 0 0-6.38 6.378 6.378 6.378 0 0 0 6.38 6.38 6.378 6.378 0 0 0 6.379-6.38Zm0 0"/><use xlink:href="#j" x="127.928" y="41.898"/><path fill="none" stroke="#000" stroke-miterlimit="10" stroke-width=".399" d="M169.57 39.273a6.377 6.377 0 1 0-12.754 0 6.377 6.377 0 1 0 12.754 0Zm0 0"/><use xlink:href="#k" x="159.11" y="41.898"/><g fill="#B27F7F"><use xlink:href="#l" x="63.181" y="178.906"/><use xlink:href="#m" x="69.472" y="178.906"/><use xlink:href="#n" x="72.559" y="178.906"/></g><g fill="#B27F7F"><use xlink:href="#o" x="75.907" y="178.906"/><use xlink:href="#p" x="80.785" y="178.906"/></g><use xlink:href="#q" x="86.176" y="178.906" fill="#B27F7F"/><g fill="#7F7FB2"><use xlink:href="#r" x="204.591" y="178.906"/><use xlink:href="#m" x="211.53" y="178.906"/><use xlink:href="#n" x="214.617" y="178.906"/></g><g fill="#7F7FB2"><use xlink:href="#o" x="217.965" y="178.906"/><use xlink:href="#p" x="222.843" y="178.906"/></g><use xlink:href="#q" x="228.234" y="178.906" fill="#7F7FB2"/><path fill="none" stroke="#000" stroke-dasharray="0.3985 0.99628" stroke-miterlimit="10" stroke-width=".399" d="M36.102 117.41a2.835 2.835 0 0 0-2.836-2.832 2.835 2.835 0 1 0 2.836 2.832Zm0-66.332a2.835 2.835 0 0 0-2.836-2.832 2.835 2.835 0 1 0 2.836 2.832ZM58.21 73.191a2.835 2.835 0 1 0-5.666-.002 2.835 2.835 0 0 0 5.667.002Zm0 44.219a2.835 2.835 0 0 0-5.667 0 2.835 2.835 0 1 0 5.668 0Zm22.11-66.332a2.834 2.834 0 1 0-5.668.004 2.834 2.834 0 0 0 5.668-.004ZM102.434 95.3a2.836 2.836 0 1 0-5.672 0 2.836 2.836 0 0 0 5.672 0Zm0 44.223a2.836 2.836 0 1 0-5.672 0 2.835 2.835 0 0 0 2.836 2.832 2.835 2.835 0 0 0 2.836-2.832Zm22.109 0a2.836 2.836 0 0 0-2.836-2.835 2.832 2.832 0 0 0-2.832 2.835 2.835 2.835 0 0 0 5.668 0Zm0 0"/><path d="M102.434 117.41a2.835 2.835 0 0 0-2.836-2.832 2.835 2.835 0 1 0 2.836 2.832ZM80.32 73.191a2.835 2.835 0 1 0-5.67-.002 2.835 2.835 0 0 0 5.67.002ZM58.21 95.3a2.835 2.835 0 1 0-5.668 0 2.835 2.835 0 1 0 5.669 0Zm-22.108 44.223a2.836 2.836 0 1 0-5.672 0 2.835 2.835 0 0 0 2.836 2.832 2.835 2.835 0 0 0 2.836-2.832Zm141.734 0a2.836 2.836 0 1 0-5.672 0 2.835 2.835 0 0 0 2.836 2.832 2.835 2.835 0 0 0 2.836-2.832Zm0-44.223a2.836 2.836 0 1 0-5.672 0 2.836 2.836 0 0 0 5.672 0Zm22.109 22.11a2.835 2.835 0 0 0-5.668 0 2.835 2.835 0 1 0 5.668 0Zm0-66.332a2.835 2.835 0 0 0-5.668 0 2.835 2.835 0 1 0 5.668 0Zm22.11 88.445a2.835 2.835 0 1 0-5.668 0 2.835 2.835 0 0 0 5.668 0Zm22.113-66.332a2.836 2.836 0 1 0-5.672 0 2.832 2.832 0 0 0 2.836 2.832 2.832 2.832 0 0 0 2.836-2.832Zm0 44.219a2.835 2.835 0 0 0-2.836-2.832 2.835 2.835 0 1 0 2.836 2.832Zm22.109-22.11a2.836 2.836 0 1 0-5.671 0 2.836 2.836 0 0 0 5.671 0Zm0 0"/><path fill="none" stroke="#000" stroke-dasharray="0.3985 0.99628" stroke-miterlimit="10" stroke-width=".399" d="M266.277 51.078a2.835 2.835 0 0 0-2.836-2.832 2.835 2.835 0 1 0 2.836 2.832ZM244.168 95.3a2.836 2.836 0 1 0-5.671 0 2.836 2.836 0 0 0 5.671 0Zm-22.113-22.109a2.835 2.835 0 1 0-5.67-.002 2.835 2.835 0 0 0 5.67.002Zm-22.11 66.332a2.835 2.835 0 1 0-2.836 2.832 2.835 2.835 0 0 0 2.836-2.832Zm0 0"/><path fill="none" stroke="#404040" stroke-linecap="round" stroke-miterlimit="10" stroke-width=".399" d="M260.406 51.078h-6.308"/><path fill="#404040" d="m252.102 51.078 3.191 1.598-1.195-1.598 1.195-1.594"/><use xlink:href="#s" x="247.069" y="52.264" fill="#404040"/><path fill="none" stroke="#404040" stroke-linecap="round" stroke-miterlimit="10" stroke-width=".399" d="M102.633 117.41h6.312"/><path fill="#404040" d="m110.938 117.41-3.188-1.594 1.195 1.594-1.195 1.594"/><use xlink:href="#s" x="111.8" y="118.595" fill="#404040"/><path fill="none" stroke="#404040" stroke-linecap="round" stroke-miterlimit="10" stroke-width=".399" d="M238.297 95.3h-6.313"/><path fill="#404040" d="m229.992 95.3 3.188 1.595-1.196-1.594 1.196-1.594"/><use xlink:href="#s" x="224.959" y="96.485" fill="#404040"/><path fill="none" stroke="#404040" stroke-linecap="round" stroke-miterlimit="10" stroke-width=".399" d="M80.52 73.191h6.312"/><path fill="#404040" d="m88.824 73.191-3.187-1.593 1.195 1.593-1.195 1.594"/><use xlink:href="#s" x="89.69" y="74.374" fill="#404040"/><path fill="none" stroke="#404040" stroke-linecap="round" stroke-miterlimit="10" stroke-width=".399" d="M216.188 73.191h-6.313"/><path fill="#404040" d="m207.883 73.191 3.187 1.594-1.195-1.594 1.195-1.593"/><use xlink:href="#s" x="202.849" y="74.374" fill="#404040"/><path fill="none" stroke="#404040" stroke-linecap="round" stroke-miterlimit="10" stroke-width=".399" d="M58.41 95.3h6.313"/><path fill="#404040" d="m66.715 95.3-3.188-1.593 1.196 1.594-1.196 1.594"/><use xlink:href="#s" x="67.579" y="96.485" fill="#404040"/><path fill="none" stroke="#404040" stroke-linecap="round" stroke-miterlimit="10" stroke-width=".399" d="M194.078 139.523h-6.312"/><path fill="#404040" d="m185.773 139.523 3.188 1.594-1.195-1.594 1.195-1.593"/><use xlink:href="#s" x="180.738" y="140.706" fill="#404040"/><path fill="none" stroke="#404040" stroke-linecap="round" stroke-miterlimit="10" stroke-width=".399" d="M36.3 139.523h6.313"/><path fill="#404040" d="m44.605 139.523-3.187-1.593 1.195 1.593-1.195 1.594"/><use xlink:href="#s" x="45.469" y="140.706" fill="#404040"/><path fill="none" stroke="#939" stroke-linecap="round" stroke-miterlimit="10" stroke-width=".399" d="M171.965 139.523h-6.313"/><path fill="#939" d="m163.66 139.523 3.188 1.594-1.196-1.594 1.196-1.593"/><use xlink:href="#s" x="158.628" y="140.706" fill="#939"/><path fill="none" stroke="#939" stroke-linecap="round" stroke-miterlimit="10" stroke-width=".399" d="M36.3 117.41h6.313"/><path fill="#939" d="m44.605 117.41-3.187-1.594 1.195 1.594-1.195 1.594"/><use xlink:href="#s" x="45.469" y="118.595" fill="#939"/><path fill="none" stroke="#939" stroke-linecap="round" stroke-miterlimit="10" stroke-width=".399" d="M171.965 95.3h-6.313"/><path fill="#939" d="m163.66 95.3 3.188 1.595-1.196-1.594 1.196-1.594"/><use xlink:href="#s" x="158.628" y="96.485" fill="#939"/><path fill="none" stroke="#939" stroke-linecap="round" stroke-miterlimit="10" stroke-width=".399" d="M36.3 51.078h6.313"/><path fill="#939" d="m44.605 51.078-3.187-1.594 1.195 1.594-1.195 1.598"/><use xlink:href="#s" x="45.469" y="52.264" fill="#939"/><path fill="none" stroke="#939" stroke-linecap="round" stroke-miterlimit="10" stroke-width=".399" d="M194.078 117.41h-6.312"/><path fill="#939" d="m185.773 117.41 3.188 1.594-1.195-1.594 1.195-1.594"/><use xlink:href="#s" x="180.738" y="118.595" fill="#939"/><path fill="none" stroke="#939" stroke-linecap="round" stroke-miterlimit="10" stroke-width=".399" d="M58.41 73.191h6.313"/><path fill="#939" d="m66.715 73.191-3.188-1.593 1.196 1.593-1.196 1.594"/><use xlink:href="#s" x="67.579" y="74.374" fill="#939"/><path fill="none" stroke="#939" stroke-linecap="round" stroke-miterlimit="10" stroke-width=".399" d="M194.078 51.078h-6.312"/><path fill="#939" d="m185.773 51.078 3.188 1.598-1.195-1.598 1.195-1.594"/><use xlink:href="#s" x="180.738" y="52.264" fill="#939"/><path fill="none" stroke="#939" stroke-linecap="round" stroke-miterlimit="10" stroke-width=".399" d="M58.41 117.41h6.313"/><path fill="#939" d="m66.715 117.41-3.188-1.594 1.196 1.594-1.196 1.594"/><use xlink:href="#s" x="67.579" y="118.595" fill="#939"/><path fill="none" stroke="#939" stroke-linecap="round" stroke-miterlimit="10" stroke-width=".399" d="M216.188 139.523h-6.313"/><path fill="#939" d="m207.883 139.523 3.187 1.594-1.195-1.594 1.195-1.593"/><use xlink:href="#s" x="202.849" y="140.706" fill="#939"/><path fill="none" stroke="#939" stroke-linecap="round" stroke-miterlimit="10" stroke-width=".399" d="M80.52 51.078h6.312"/><path fill="#939" d="m88.824 51.078-3.187-1.594 1.195 1.594-1.195 1.598"/><use xlink:href="#s" x="89.69" y="52.264" fill="#939"/><path fill="none" stroke="#939" stroke-linecap="round" stroke-miterlimit="10" stroke-width=".399" d="M238.297 73.191h-6.313"/><path fill="#939" d="m229.992 73.191 3.188 1.594-1.196-1.594 1.196-1.593"/><use xlink:href="#s" x="224.959" y="74.374" fill="#939"/><path fill="none" stroke="#939" stroke-linecap="round" stroke-miterlimit="10" stroke-width=".399" d="M102.633 95.3h6.312"/><path fill="#939" d="m110.938 95.3-3.188-1.593 1.195 1.594-1.195 1.594"/><use xlink:href="#s" x="111.8" y="96.485" fill="#939"/><path fill="none" stroke="#939" stroke-linecap="round" stroke-miterlimit="10" stroke-width=".399" d="M238.297 117.41h-6.313"/><path fill="#939" d="m229.992 117.41 3.188 1.594-1.196-1.594 1.196-1.594"/><use xlink:href="#s" x="224.959" y="118.595" fill="#939"/><path fill="none" stroke="#939" stroke-linecap="round" stroke-miterlimit="10" stroke-width=".399" d="M102.633 139.523h6.312"/><path fill="#939" d="m110.938 139.523-3.188-1.593 1.195 1.593-1.195 1.594"/><use xlink:href="#s" x="111.8" y="140.706" fill="#939"/><path fill="none" stroke="#939" stroke-linecap="round" stroke-miterlimit="10" stroke-width=".399" d="M260.406 95.3h-6.308"/><path fill="#939" d="m252.102 95.3 3.191 1.595-1.195-1.594 1.195-1.594"/><use xlink:href="#s" x="247.069" y="96.485" fill="#939"/><path fill="none" stroke="#939" stroke-linecap="round" stroke-miterlimit="10" stroke-width=".399" d="M124.742 139.523h6.313"/><path fill="#939" d="m133.047 139.523-3.188-1.593 1.196 1.593-1.196 1.594"/><use xlink:href="#s" x="133.911" y="140.706" fill="#939"/><path fill="none" stroke="#000" stroke-linecap="round" stroke-miterlimit="10" stroke-width=".797" d="M190.121 18.012h-82.45"/><path d="m105.082 18.012 4.145 2.074-1.555-2.074 1.555-2.07"/><use xlink:href="#t" x="115.138" y="15.417"/><use xlink:href="#u" x="121.429" y="15.417"/><use xlink:href="#q" x="124.003" y="15.417"/><use xlink:href="#v" x="128.116" y="15.417"/><use xlink:href="#n" x="132.229" y="15.417"/><use xlink:href="#w" x="135.829" y="15.417"/><use xlink:href="#x" x="139.447" y="15.417"/><use xlink:href="#v" x="142.021" y="15.417"/><use xlink:href="#y" x="149.221" y="15.417"/><use xlink:href="#x" x="155.26" y="15.417"/><use xlink:href="#q" x="157.834" y="15.417"/><use xlink:href="#u" x="161.947" y="15.417"/><use xlink:href="#z" x="164.521" y="15.417"/><use xlink:href="#A" x="172.747" y="15.417"/><g fill="#B2997F"><use xlink:href="#B" x="112.646" y="178.951"/><use xlink:href="#q" x="119.711" y="178.951"/><use xlink:href="#p" x="123.824" y="178.951"/><use xlink:href="#u" x="128.963" y="178.951"/><use xlink:href="#q" x="131.537" y="178.951"/><use xlink:href="#n" x="135.65" y="178.951"/><use xlink:href="#x" x="139.25" y="178.951"/><use xlink:href="#C" x="141.824" y="178.951"/><use xlink:href="#D" x="146.45" y="178.951"/></g><g fill="#B2997F"><use xlink:href="#E" x="154.676" y="178.951"/><use xlink:href="#q" x="161.48" y="178.951"/><use xlink:href="#F" x="165.593" y="178.951"/><use xlink:href="#x" x="170.219" y="178.951"/><use xlink:href="#C" x="172.793" y="178.951"/><use xlink:href="#D" x="177.419" y="178.951"/></g><use xlink:href="#G" x="111.823" y="197.307"/><use xlink:href="#H" x="120.076" y="197.307"/><use xlink:href="#I" x="124.097" y="197.307"/><use xlink:href="#J" x="137.569" y="197.307"/><use xlink:href="#K" x="143.806" y="197.307"/><use xlink:href="#L" x="150.516" y="197.307"/><use xlink:href="#M" x="157.225" y="197.307"/><use xlink:href="#N" x="162.59" y="197.307"/><use xlink:href="#O" x="167.284" y="197.307"/><use xlink:href="#P" x="170.633" y="197.307"/><use xlink:href="#L" x="176.671" y="197.307"/><use xlink:href="#Q" x="298.788" y="33.357"/><use xlink:href="#R" x="306.054" y="33.357"/><use xlink:href="#S" x="311.587" y="33.357"/><use xlink:href="#R" x="317.625" y="33.357"/><use xlink:href="#L" x="323.159" y="33.357"/><use xlink:href="#T" x="329.868" y="33.357"/><path fill="none" stroke="#000" stroke-miterlimit="10" stroke-width=".797" d="M299.258 37.855h99.215"/><path fill="none" stroke="#000" stroke-miterlimit="10" stroke-width=".399" d="M314.223 49.996a6.377 6.377 0 1 0-12.754 0 6.377 6.377 0 1 0 12.754 0Zm0 0"/><use xlink:href="#U" x="304.556" y="51.871"/><path fill="none" stroke="#000" stroke-miterlimit="10" stroke-width=".399" d="M331.629 49.996a6.377 6.377 0 1 0-12.754 0 6.377 6.377 0 1 0 12.754 0Zm0 0"/><use xlink:href="#V" x="321.903" y="51.871"/><path fill="none" stroke="#000" stroke-dasharray="0.3985 0.99628" stroke-miterlimit="10" stroke-width=".399" d="M310.68 66.695a2.835 2.835 0 1 0-2.836 2.832 2.835 2.835 0 0 0 2.836-2.832Zm0 0"/><path d="M328.086 66.695a2.835 2.835 0 1 0-2.836 2.832 2.835 2.835 0 0 0 2.836-2.832Zm0 0"/><g transform="translate(-.14)"><use xlink:href="#W" x="339.071" y="69.273"/><use xlink:href="#X" x="344.823" y="69.273"/><use xlink:href="#Y" x="349.248" y="69.273"/><use xlink:href="#Z" x="353.231" y="69.273"/><use xlink:href="#aa" x="356.336" y="69.273"/><use xlink:href="#ab" x="360.319" y="69.273"/></g><g transform="translate(-.141)"><use xlink:href="#W" x="366.513" y="69.273"/><use xlink:href="#Y" x="372.266" y="69.273"/><use xlink:href="#Z" x="376.248" y="69.273"/><use xlink:href="#Z" x="379.353" y="69.273"/><use xlink:href="#ac" x="382.459" y="69.273"/><use xlink:href="#ab" x="384.671" y="69.273"/><use xlink:href="#Z" x="388.211" y="69.273"/><use xlink:href="#ad" x="391.316" y="69.273"/></g><use xlink:href="#ae" x="339.071" y="53.228"/><use xlink:href="#af" x="341.943" y="53.228"/><use xlink:href="#ag" x="345.926" y="53.228"/><use xlink:href="#ad" x="350.351" y="53.228"/><path fill="none" stroke="#939" stroke-linecap="round" stroke-miterlimit="10" stroke-width=".399" d="M309.992 82.305h9.344"/><path fill="#939" d="m321.328 82.305-3.187-1.594 1.195 1.594-1.195 1.593"/><use xlink:href="#s" x="322.193" y="83.487" fill="#939"/><path fill="none" stroke="#404040" stroke-linecap="round" stroke-miterlimit="10" stroke-width=".399" d="M309.992 97.184h9.344"/><path fill="#404040" d="m321.328 97.184-3.187-1.594 1.195 1.594-1.195 1.597"/><use xlink:href="#s" x="322.193" y="98.37" fill="#404040"/><g transform="translate(-.755)"><use xlink:href="#ah" x="339.779" y="84.906"/><use xlink:href="#ac" x="345.862" y="84.906"/><use xlink:href="#ai" x="348.074" y="84.906"/><use xlink:href="#aj" x="352.724" y="84.906"/><use xlink:href="#ad" x="357.149" y="84.906"/><use xlink:href="#ac" x="360.291" y="84.906"/><use xlink:href="#af" x="362.504" y="84.906"/><use xlink:href="#ag" x="366.487" y="84.906"/></g><g transform="translate(-.767)"><use xlink:href="#ah" x="339.791" y="99.788"/><use xlink:href="#Z" x="345.873" y="99.788"/><use xlink:href="#ac" x="348.978" y="99.788"/><use xlink:href="#ak" x="351.191" y="99.788"/><use xlink:href="#al" x="353.629" y="99.788"/></g></svg>