<svg xmlns="http://www.w3.org/2000/svg" width="97.12" height="84.173" viewBox="0 0 72.84 63.13"><path fill="none" stroke="#000" stroke-miterlimit="10" stroke-width=".399" d="M35.332 31.563c0-8.137-6.594-14.735-14.73-14.735-8.137 0-14.735 6.598-14.735 14.735 0 8.136 6.598 14.73 14.735 14.73 8.136 0 14.73-6.594 14.73-14.73Zm0 0"/><path d="M15.564 32.086h2.922c.156 0 .36 0 .36-.203s-.204-.203-.36-.203h-2.922v-2.953c0-.14 0-.344-.219-.344-.203 0-.203.203-.203.344v2.953h-2.938c-.156 0-.343 0-.343.203s.187.203.343.203h2.938v2.953c0 .14 0 .344.203.344.219 0 .219-.203.219-.344zm6.956-4.296c0-.25 0-.282-.25-.282-.657.672-1.579.672-1.907.672v.328c.203 0 .828 0 1.375-.266v5.438c0 .375-.031.5-.984.5h-.328v.328c.359-.031 1.28-.031 1.703-.031.422 0 1.328 0 1.703.031v-.328h-.344c-.937 0-.969-.11-.969-.5zm5.25 4.984v.921c0 .375-.032.485-.813.485h-.219v.328c.438-.031.984-.031 1.422-.031.437 0 1 0 1.422.031v-.328h-.219c-.766 0-.797-.11-.797-.485v-.921h1.063v-.329h-1.063V27.68c0-.219 0-.281-.156-.281-.094 0-.14 0-.219.125l-3.219 4.921v.329zm.062-.329h-2.563l2.563-3.906zm0 0"/><path fill="none" stroke="#000" stroke-linecap="round" stroke-miterlimit="10" stroke-width=".399" d="M43.238 25.496a23.445 23.445 0 0 0-3.441-7.375"/><path d="m42.738 34.133 1.125-1.079c1.625-1.453 2.266-2.015 2.266-3.062 0-1.203-.953-2.047-2.235-2.047a1.933 1.933 0 0 0-1.953 1.906c0 .594.516.594.547.594.188 0 .547-.125.547-.563a.533.533 0 0 0-.547-.546c-.094 0-.11 0-.14.015.234-.687.812-1.078 1.421-1.078.953 0 1.407.86 1.407 1.719 0 .844-.532 1.672-1.11 2.312l-2.015 2.25c-.11.125-.11.141-.11.391h3.89l.298-1.828h-.266c-.047.312-.125.781-.234.937-.078.078-.766.078-1 .078zm0 0"/><path fill="none" stroke="#000" stroke-linecap="round" stroke-miterlimit="10" stroke-width=".399" d="M43.238 37.629a23.485 23.485 0 0 1-3.441 7.375M52.594 25.27a32.624 32.624 0 0 0-5.657-12.934"/><path d="M51.633 30.148c-.485-.312-.531-.672-.531-.86 0-.64.687-1.077 1.421-1.077.766 0 1.438.547 1.438 1.312 0 .594-.406 1.094-1.031 1.469zm1.531 1c.75-.39 1.266-.937 1.266-1.625 0-.969-.938-1.578-1.891-1.578-1.047 0-1.906.781-1.906 1.766 0 .187.031.656.469 1.156.109.125.5.375.765.562-.61.297-1.515.891-1.515 1.938 0 1.11 1.078 1.812 2.171 1.812 1.188 0 2.188-.875 2.188-2 0-.375-.11-.843-.516-1.297-.203-.218-.36-.312-1.031-.734Zm-1.062.438 1.296.812c.297.203.797.516.797 1.156 0 .782-.797 1.328-1.656 1.328-.906 0-1.656-.656-1.656-1.515 0-.61.328-1.281 1.219-1.781zm0 0"/><path fill="none" stroke="#000" stroke-linecap="round" stroke-miterlimit="10" stroke-width=".399" d="M52.594 37.855a32.648 32.648 0 0 1-5.657 12.934M61.098 25.27a40.977 40.977 0 0 0-8.575-19.407"/><path d="M61.512 33.21v.922c0 .376-.032.485-.813.485h-.219v.328c.438-.031.985-.031 1.422-.031.438 0 1 0 1.422.031v-.328h-.219c-.765 0-.796-.11-.796-.484v-.922h1.062v-.328H62.31v-4.766c0-.219 0-.281-.157-.281-.093 0-.14 0-.218.125l-3.22 4.922v.328zm.062-.328h-2.562l2.562-3.906zm0 0"/><path fill="none" stroke="#000" stroke-linecap="round" stroke-miterlimit="10" stroke-width=".399" d="M61.098 37.855a40.977 40.977 0 0 1-8.575 19.407"/></svg>