<svg xmlns="http://www.w3.org/2000/svg" width="155.187" height="81.56pt" viewBox="0 0 116.39 81.56"><path fill="none" stroke="#000" stroke-miterlimit="10" stroke-width=".399" d="M40.277 29.547c0-5.922-4.8-10.727-10.726-10.727-5.926 0-10.727 4.805-10.727 10.727 0 5.926 4.801 10.73 10.727 10.73s10.726-4.804 10.726-10.73Zm0 0"/><path d="M30.406 31.18c0-1.046-.687-1.905-1.562-2.124l-1.344-.328a1.36 1.36 0 0 1-1.062-1.328c0-.735.562-1.375 1.375-1.375 1.765 0 1.984 1.718 2.047 2.203.015.062.015.125.125.125.14 0 .14-.063.14-.266v-2.11c0-.171 0-.25-.11-.25-.077 0-.093.016-.155.141l-.375.594c-.313-.297-.75-.734-1.672-.734a2.024 2.024 0 0 0-2.047 2.047c0 .859.547 1.625 1.375 1.921.11.032.64.157 1.375.344.297.063.61.14.89.531.235.282.329.625.329.97 0 .75-.516 1.5-1.407 1.5-.297 0-1.093-.048-1.656-.563-.61-.578-.64-1.25-.656-1.625 0-.11-.094-.11-.125-.11-.125 0-.125.078-.125.266v2.11c0 .171 0 .25.11.25.077 0 .077-.032.155-.141 0 0 .032-.047.375-.594.329.36 1 .734 1.938.734 1.234 0 2.062-1.03 2.062-2.187zm3.198 1.954v-.328c-.688 0-.735-.047-.735-.453v-3.86l-1.468.11v.328c.687 0 .78.062.78.578v2.828c0 .469-.124.469-.827.469v.328l1.156-.031c.375 0 .734.015 1.094.031zm-.578-6.344a.57.57 0 0 0-.563-.562.57.57 0 0 0-.562.562c0 .281.25.563.562.563a.56.56 0 0 0 .563-.563zM11.34 29.547a2.835 2.835 0 0 0-2.836-2.832 2.835 2.835 0 1 0 2.836 2.832Zm42.094 0a2.835 2.835 0 1 0-5.67.006 2.835 2.835 0 0 0 5.67-.006ZM32.387 8.5a2.836 2.836 0 1 0-5.672 0 2.836 2.836 0 0 0 5.672 0Zm0 42.094a2.835 2.835 0 0 0-2.836-2.832 2.835 2.835 0 1 0 2.836 2.832Zm0 0"/><path fill="none" stroke="#000" stroke-miterlimit="10" stroke-width=".399" d="M97.566 29.547c0-5.922-4.804-10.727-10.726-10.727-5.926 0-10.73 4.805-10.73 10.727 0 5.926 4.804 10.73 10.73 10.73 5.922 0 10.726-4.804 10.726-10.73Zm0 0"/><path d="M87.694 31.18c0-1.046-.687-1.905-1.562-2.124l-1.344-.328a1.36 1.36 0 0 1-1.062-1.328c0-.735.562-1.375 1.375-1.375 1.765 0 1.984 1.718 2.046 2.203.016.062.016.125.125.125.141 0 .141-.063.141-.266v-2.11c0-.171 0-.25-.11-.25-.077 0-.093.016-.156.141l-.375.594c-.312-.297-.75-.734-1.671-.734a2.024 2.024 0 0 0-2.047 2.047c0 .859.547 1.625 1.375 1.921.11.032.64.157 1.375.344.297.063.61.14.89.531.235.282.328.625.328.97 0 .75-.515 1.5-1.406 1.5-.297 0-1.094-.048-1.656-.563-.61-.578-.64-1.25-.656-1.625 0-.11-.094-.11-.125-.11-.125 0-.125.078-.125.266v2.11c0 .171 0 .25.11.25.077 0 .077-.032.155-.141 0 0 .032-.047.375-.594.328.36 1 .734 1.938.734 1.234 0 2.062-1.03 2.062-2.187zm3.198 1.954v-.328c-.688 0-.735-.047-.735-.453v-3.86l-1.468.11v.328c.687 0 .78.062.78.578v2.828c0 .469-.124.469-.827.469v.328l1.156-.031c.375 0 .734.015 1.094.031zm-.578-6.344a.57.57 0 0 0-.563-.562.57.57 0 0 0-.562.562c0 .281.25.563.562.563a.56.56 0 0 0 .563-.563zm-21.689 2.757a2.835 2.835 0 0 0-5.668 0 2.835 2.835 0 1 0 5.668 0Zm42.094 0a2.835 2.835 0 1 0-5.666.006 2.835 2.835 0 0 0 5.666-.006ZM89.672 8.5a2.835 2.835 0 1 0-2.832 2.836A2.835 2.835 0 0 0 89.672 8.5Zm0 0"/><path fill="none" stroke="#000" stroke-dasharray="0.3985 0.99628" stroke-miterlimit="10" stroke-width=".399" d="M89.672 50.594a2.834 2.834 0 1 0-5.668.004 2.834 2.834 0 0 0 5.668-.004Zm0 0"/><path fill="none" stroke="#000" stroke-dasharray="2.98883 2.98883" stroke-miterlimit="10" stroke-width=".399" d="M45.617 31.691v-4.289a2.836 2.836 0 0 1 2.836-2.836h19.484a2.835 2.835 0 0 1 2.833 2.836v4.29a2.835 2.835 0 0 1-2.832 2.835H48.453a2.836 2.836 0 0 1-2.836-2.836Zm0 0"/><path d="M40.96 17.167c0-.063 0-.125-.109-.125-.078 0-.093.047-.093.093-.047.844-.813 1.22-1.407 1.22-.671 0-1.687-.391-1.687-1.782 0-1.375 1-1.781 1.672-1.781.625 0 1.265.422 1.406 1.265.016.063.016.11.11.11.109 0 .109-.047.109-.157v-1.28c0-.095 0-.157-.094-.157-.047 0-.047.031-.094.078l-.297.422c-.328-.328-.75-.5-1.203-.5-1.218 0-2.218.906-2.218 2 0 1.094 1 1.984 2.218 1.984 1 0 1.688-.703 1.688-1.39zm3.536.109c0-.687-.625-1.281-1.422-1.281-.797 0-1.406.594-1.406 1.281 0 .672.625 1.235 1.406 1.235.797 0 1.422-.563 1.422-1.235zm-.532-.047c0 .266 0 1.078-.89 1.078s-.89-.812-.89-1.078c0-.172 0-.547.202-.781a.944.944 0 0 1 .688-.281c.266 0 .516.093.703.297.188.218.188.593.188.765zm3.94-.937v-.219s-.25.031-.437.031c-.188 0-.484-.015-.516-.031v.219c.235.015.235.187.235.203 0 .078-.032.125-.047.172l-.656 1.328-.704-1.485a.168.168 0 0 1-.03-.093c0-.125.187-.125.28-.125v-.219l-.656.031a7.18 7.18 0 0 1-.562-.031v.219c.328 0 .375.015.468.187l.907 1.89c.047.11.11.142.172.142.109 0 .14-.063.171-.141l.844-1.75c.14-.266.328-.328.531-.328Zm3.06 1.656v-.297h-.203v.297c0 .047 0 .297-.219.297-.203 0-.203-.25-.203-.297v-1.14c0-.516-.531-.813-1.14-.813-.266 0-.922.031-.922.484a.27.27 0 0 0 .28.282.263.263 0 0 0 .266-.266c0-.11-.046-.203-.156-.235.188-.093.469-.093.516-.093.39 0 .687.234.687.656v.14c-.25.016-.687.016-1.093.172-.36.125-.704.36-.704.735 0 .484.579.64 1.016.64.453 0 .734-.234.86-.453.03.297.218.422.406.422.015 0 .609 0 .609-.531zm-1.094-.281c0 .578-.562.656-.734.656-.297 0-.578-.172-.578-.453 0-.313.297-.703 1.312-.735zm2.923.781v-.219c-.375 0-.437 0-.437-.234v-3.36l-.86.063v.203c.375 0 .422.047.422.313v2.78c0 .235-.047.235-.422.235v.219l.641-.016c.219 0 .438 0 .656.016zm3.03-.656c0-.032-.016-.094-.11-.094-.077 0-.077.031-.109.094-.156.422-.578.515-.828.515a.95.95 0 0 1-.719-.328c-.203-.265-.203-.625-.203-.781h1.797c.125 0 .172 0 .172-.125 0-.422-.234-1.078-1.156-1.078-.766 0-1.328.594-1.328 1.25 0 .687.625 1.265 1.406 1.265.797 0 1.078-.593 1.078-.718Zm-.406-.75H53.87c.062-.735.562-.875.797-.875.703 0 .75.718.75.875zm4.097 1.406v-.219c-.376 0-.422 0-.422-.234v-1.203c0-.547-.313-.766-.875-.766-.485 0-.782.25-.938.516v-.516l-.86.063v.203c.391 0 .438.047.438.312v1.39c0 .235-.062.235-.437.235v.219c.047 0 .422-.016.656-.016.25 0 .61.016.672.016v-.219c-.375 0-.438 0-.438-.234v-.969c0-.61.516-.828.86-.828.375 0 .453.234.453.578v1.219c0 .234-.047.234-.422.234v.219c.031 0 .406-.016.656-.016s.61.016.657.016Zm2.307-.688v-.312h-.203v.297c0 .39-.203.562-.406.562-.39 0-.39-.437-.39-.546v-1.47h.89v-.218h-.89v-1h-.204c-.016.484-.25 1.016-.797 1.047v.172h.547v1.468c0 .579.422.75.797.75.39 0 .656-.312.656-.75zm6.965-.328c0-.421-.422-.859-1.203-.953.562-.093 1.031-.422 1.031-.86 0-.5-.625-.921-1.406-.921h-2.282v.203h.141c.453 0 .453.078.453.25v2.828c0 .188 0 .25-.453.25h-.14v.219h2.453c.796 0 1.406-.469 1.406-1.016Zm-.735-1.812c0 .422-.437.781-1.062.781h-.969V15.12c0-.172 0-.219.281-.219h.875c.532 0 .875.36.875.719zm.157 1.812c0 .407-.407.797-1.032.797h-.875c-.28 0-.28-.047-.28-.203V16.59h1.25c.593 0 .937.453.937.843zm4.118-.156c0-.687-.625-1.281-1.422-1.281-.797 0-1.406.594-1.406 1.281 0 .672.625 1.235 1.406 1.235.797 0 1.422-.563 1.422-1.235zm-.531-.047c0 .266 0 1.078-.891 1.078-.89 0-.89-.812-.89-1.078 0-.172 0-.547.202-.781a.944.944 0 0 1 .688-.281c.266 0 .516.093.703.297.188.218.188.593.188.765zm4.235 1.219v-.219c-.375 0-.422 0-.422-.234v-1.203c0-.547-.312-.766-.875-.766-.484 0-.781.25-.937.516v-.516l-.86.063v.203c.39 0 .438.047.438.312v1.39c0 .235-.063.235-.438.235v.219c.047 0 .422-.016.656-.016.25 0 .61.016.672.016v-.219c-.375 0-.437 0-.437-.234v-.969c0-.61.515-.828.86-.828.374 0 .452.234.452.578v1.219c0 .234-.047.234-.422.234v.219c.032 0 .407-.016.657-.016.25 0 .61.016.656.016Zm3.671 0v-.219c-.375 0-.437-.031-.437-.297v-3.296l-.86.062v.203c.375 0 .438.047.438.313v1.109a1.244 1.244 0 0 0-.813-.297c-.765 0-1.422.547-1.422 1.235 0 .687.61 1.25 1.36 1.25.328 0 .61-.125.844-.344v.343Zm-.89-.703c0 .11 0 .125-.079.234a.972.972 0 0 1-.734.344.83.83 0 0 1-.656-.297c-.172-.219-.219-.515-.219-.765 0-1 .75-1.063.938-1.063.187 0 .468.063.671.297.079.094.079.11.079.219Zm0 0"/><path fill="none" stroke="#000" stroke-miterlimit="10" stroke-width=".399" d="M58.324 24.512v-4.375"/><path d="M69.348 70.922a2.836 2.836 0 0 0-2.836-2.836 2.832 2.832 0 0 0-2.832 2.836 2.832 2.832 0 0 0 2.832 2.836 2.836 2.836 0 0 0 2.836-2.836Zm0 0"/><path fill="none" stroke="#000" stroke-linecap="round" stroke-miterlimit="10" stroke-width=".399" d="M86.84 55.047c1.617 8.64-7.238 17.496-13.918 16.242"/><path d="m70.965 70.922 2.84 2.152-.883-1.785 1.469-1.348m3.803-4.687c0-.36-.203-.469-.328-.469-.156 0-.312.172-.312.313 0 .11.062.172.093.188a.507.507 0 0 1 .22.421c0 .297-.423 1.391-1.063 1.391-.297 0-.547-.11-.547-.5 0-.281.156-.64.312-1.047a.637.637 0 0 0 .078-.281c0-.266-.25-.484-.593-.484-.594 0-.891.718-.891.859 0 .078.094.078.11.078.093 0 .109-.031.14-.11.11-.374.36-.64.61-.64.109 0 .171.063.171.219 0 .11-.031.172-.093.328-.22.531-.297.797-.297 1 0 .531.437.766.968.766.438 0 .766-.329.954-.626a2.927 2.927 0 0 0 .468-1.406zM59.94 47.325h-.203c-.156.86-.313 1.25-1.36 1.25h-.921c-.282 0-.282-.047-.282-.203v-1.406h.594c.563 0 .672.14.672.64h.203v-1.5h-.203c0 .5-.11.641-.672.641h-.594v-1.266c0-.156 0-.203.282-.203h.875c.921 0 1.109.266 1.218 1.063h.203l-.171-1.281h-3.532v.218h.141c.437 0 .437.063.437.25v2.797c0 .188 0 .25-.437.25h-.14v.219h3.624zm1.91 1.469v-.219c-.374 0-.437 0-.437-.234v-3.36l-.86.063v.203c.376 0 .423.047.423.313v2.78c0 .235-.047.235-.422.235v.219l.64-.016c.22 0 .438 0 .657.016zm3.03-.656c0-.032-.015-.094-.109-.094-.078 0-.078.031-.11.094-.155.422-.577.515-.827.515a.95.95 0 0 1-.72-.328c-.202-.265-.202-.625-.202-.781h1.797c.125 0 .172 0 .172-.125 0-.422-.235-1.078-1.157-1.078-.765 0-1.328.594-1.328 1.25 0 .687.625 1.265 1.406 1.265.797 0 1.079-.593 1.079-.718Zm-.406-.75h-1.547c.063-.735.563-.875.797-.875.703 0 .75.718.75.875zm3.409.75c0-.078-.093-.078-.109-.078-.078 0-.078.03-.11.078-.03.078-.093.25-.28.375a.921.921 0 0 1-.516.14c-.422 0-.922-.297-.922-1.047 0-.25.047-.546.25-.78.25-.298.531-.298.703-.298.156 0 .344.016.484.047a.278.278 0 0 0-.109.235c0 .14.11.25.266.25.172 0 .265-.11.265-.266 0-.438-.578-.453-.922-.453-1.03 0-1.453.719-1.453 1.265 0 .688.61 1.25 1.375 1.25.875 0 1.078-.656 1.078-.718zm2.457-.032v-.312h-.204v.297c0 .39-.203.562-.406.562-.39 0-.39-.437-.39-.547v-1.468h.89v-.219h-.89v-1h-.204c-.015.484-.25 1.016-.796 1.047v.172h.546v1.468c0 .579.422.75.797.75.391 0 .657-.312.657-.75zm2.833-1.375c0-.218-.22-.359-.454-.359-.328 0-.609.188-.78.563v-.563l-.845.063v.203c.391 0 .438.047.438.312v1.39c0 .235-.047.235-.438.235v.219c.141-.016.547-.016.672-.016.282 0 .672.016.75.016v-.219h-.125c-.422 0-.422-.047-.422-.234v-.781c0-.516.266-1 .75-1.016-.046.047-.062.11-.062.187 0 .157.11.266.25.266.156 0 .266-.11.266-.266zm3.348.891c0-.687-.625-1.281-1.422-1.281-.797 0-1.406.594-1.406 1.281 0 .672.625 1.234 1.406 1.234.797 0 1.422-.562 1.422-1.234zm-.531-.047c0 .266 0 1.078-.89 1.078-.891 0-.891-.812-.891-1.078 0-.172 0-.547.203-.781a.944.944 0 0 1 .687-.281c.266 0 .516.093.703.297.188.218.188.593.188.765zm4.236 1.219v-.219c-.375 0-.422 0-.422-.234v-1.203c0-.547-.313-.766-.875-.766-.485 0-.782.25-.938.516v-.516l-.86.063v.203c.391 0 .438.047.438.312v1.39c0 .235-.062.235-.437.235v.219c.047 0 .422-.016.656-.016.25 0 .61.016.672.016v-.219c-.375 0-.438 0-.438-.234v-.969c0-.61.516-.828.86-.828.375 0 .453.234.453.578v1.219c0 .234-.047.234-.422.234v.219c.031 0 .406-.016.656-.016s.61.016.657.016ZM66.047 54.8v-.219h-.141c-.438 0-.438-.062-.438-.25v-2.828c0-.172 0-.25.438-.25h.14v-.203l-.859.016-.86-.016v.203h.141c.454 0 .454.078.454.25v1.234h-1.954v-1.234c0-.172 0-.25.454-.25h.14v-.203l-.86.016-.859-.016v.203h.141c.438 0 .438.078.438.25v2.828c0 .188 0 .25-.438.25h-.14v.219l.859-.016.86.016v-.219h-.141c-.454 0-.454-.062-.454-.25v-1.375h1.954v1.375c0 .188 0 .25-.454.25h-.14v.219l.86-.016zm3.459-1.172c0-.687-.625-1.281-1.422-1.281-.797 0-1.406.594-1.406 1.281 0 .672.625 1.234 1.406 1.234.797 0 1.422-.562 1.422-1.234zm-.531-.047c0 .266 0 1.078-.891 1.078-.89 0-.89-.812-.89-1.078 0-.172 0-.547.202-.781a.944.944 0 0 1 .688-.281c.266 0 .516.093.703.297.188.218.188.593.188.765zm2.454 1.219v-.219c-.375 0-.438 0-.438-.234v-3.36l-.86.063v.203c.376 0 .423.047.423.313v2.78c0 .235-.047.235-.422.235v.219l.64-.016c.22 0 .438 0 .657.016zm3.03-.656c0-.032-.016-.094-.11-.094-.078 0-.078.031-.11.094-.155.422-.577.515-.827.515a.95.95 0 0 1-.72-.328c-.202-.265-.202-.625-.202-.781h1.797c.125 0 .172 0 .172-.125 0-.422-.235-1.078-1.157-1.078-.765 0-1.328.594-1.328 1.25 0 .687.625 1.265 1.406 1.265.797 0 1.079-.593 1.079-.718Zm-.407-.75h-1.547c.063-.735.563-.875.797-.875.703 0 .75.718.75.875zm0 0"/><path fill="none" stroke="#8C4040" stroke-linecap="round" stroke-miterlimit="10" stroke-width=".399" d="M9.707 73.473c.84-.922-.586-3.059.254-3.98.605-.665 2.027-.423 3.516-.169 1.492.258 2.914.5 3.52-.164.605-.668.23-2.062-.169-3.52-.398-1.46-.773-2.85-.168-3.519.84-.922 3.102.293 3.938-.629l1.945-2.137"/><path fill="#8C4040" d="m23.883 57.883-3.324 1.285 1.984.187.375 1.958m5.339 3.271v-.219h-.156c-.469 0-.469-.062-.469-.25v-2.828c0-.172 0-.25.47-.25h.155v-.203l-.89.016-.89-.016v.203h.155c.454 0 .454.078.454.25v2.828c0 .188 0 .25-.454.25h-.156v.219l.89-.016Zm3.765 0v-.219c-.375 0-.422 0-.422-.234v-1.203c0-.547-.312-.766-.875-.766-.484 0-.781.25-.937.516v-.516l-.86.063v.203c.39 0 .438.047.438.312v1.39c0 .235-.063.235-.438.235v.219c.047 0 .422-.016.656-.016.25 0 .61.016.672.016v-.219c-.375 0-.437 0-.437-.234v-.969c0-.61.515-.828.86-.828.374 0 .452.234.452.578v1.219c0 .234-.047.234-.422.234v.219c.032 0 .407-.016.657-.016.25 0 .61.016.656.016Zm2.308-.687v-.313h-.204v.297c0 .39-.203.562-.406.562-.39 0-.39-.437-.39-.546v-1.47h.89v-.218h-.89v-1h-.204c-.015.484-.25 1.016-.796 1.047v.172h.546v1.469c0 .578.422.75.797.75.391 0 .657-.313.657-.75zm2.833-1.375c0-.22-.22-.36-.454-.36-.328 0-.609.188-.78.563v-.563l-.845.063v.203c.391 0 .438.047.438.312v1.39c0 .235-.047.235-.438.235v.219c.141-.016.547-.016.672-.016.282 0 .672.016.75.016v-.219h-.125c-.422 0-.422-.047-.422-.234v-.781c0-.516.266-1 .75-1.016-.046.047-.062.11-.062.188 0 .156.11.265.25.265.156 0 .266-.11.266-.265zm1.864 2.062v-.219c-.344 0-.39 0-.39-.234v-1.969l-.845.063v.203c.36 0 .407.047.407.312v1.39c0 .235-.047.235-.422.235v.219l.64-.016c.047 0 .47 0 .61.016zm-.313-3.313a.33.33 0 0 0-.328-.328.344.344 0 0 0-.344.329c0 .187.157.343.344.343.203 0 .328-.172.328-.343zm4.077 3.313v-.219c-.375 0-.422 0-.422-.234v-1.203c0-.547-.312-.766-.875-.766-.484 0-.781.25-.937.516v-.516l-.86.063v.203c.39 0 .438.047.438.312v1.39c0 .235-.063.235-.438.235v.219c.047 0 .422-.016.656-.016.25 0 .61.016.672.016v-.219c-.375 0-.437 0-.437-.234v-.969c0-.61.515-.828.86-.828.374 0 .452.234.452.578v1.219c0 .234-.047.234-.422.234v.219c.032 0 .407-.016.657-.016.25 0 .61.016.656.016Zm2.671-.704a.67.67 0 0 0-.234-.5c-.235-.202-.453-.233-.782-.296-.406-.063-.78-.125-.78-.406 0-.156.155-.39.718-.39.39 0 .672.14.719.53 0 .079 0 .125.093.125.11 0 .11-.046.11-.156v-.5c0-.094 0-.156-.094-.156-.031 0-.047 0-.125.062l-.094.094c-.218-.156-.484-.156-.609-.156-.86 0-1.016.437-1.016.687 0 .532.641.641 1.063.704.25.046.719.109.719.484 0 .203-.157.453-.72.453-.53 0-.75-.297-.859-.719-.015-.047-.03-.078-.109-.078-.094 0-.094.047-.094.156v.672c0 .094 0 .157.078.157.032 0 .047-.016.141-.11l.14-.14c.266.25.594.25.704.25.812 0 1.031-.454 1.031-.766zm1.903.704v-.219c-.344 0-.39 0-.39-.234v-1.969l-.844.063v.203c.359 0 .406.047.406.312v1.39c0 .235-.047.235-.422.235v.219l.64-.016c.047 0 .47 0 .61.016zm-.313-3.313a.33.33 0 0 0-.328-.328.344.344 0 0 0-.343.329c0 .187.156.343.343.343.203 0 .328-.172.328-.343zm3.39 2.657c0-.078-.094-.078-.11-.078-.078 0-.078.03-.11.078-.03.078-.093.25-.28.375a.921.921 0 0 1-.516.14c-.422 0-.922-.296-.922-1.046 0-.25.047-.547.25-.782.25-.297.531-.297.703-.297.156 0 .344.016.485.047a.278.278 0 0 0-.11.235c0 .14.11.25.266.25.172 0 .265-.11.265-.266 0-.438-.578-.453-.921-.453-1.032 0-1.454.719-1.454 1.266 0 .687.61 1.25 1.375 1.25.875 0 1.079-.657 1.079-.72zm-23.097 5.193h-.203c-.156.86-.313 1.25-1.36 1.25h-.921c-.282 0-.282-.047-.282-.203v-1.406h.594c.563 0 .672.14.672.64h.203v-1.5h-.203c0 .5-.11.641-.672.641h-.594v-1.266c0-.156 0-.203.282-.203h.875c.921 0 1.109.266 1.218 1.063h.203l-.171-1.281h-3.532v.218h.141c.437 0 .437.063.437.25v2.797c0 .188 0 .25-.437.25h-.14v.219h3.624zm3.598 1.469v-.219c-.281 0-.406 0-.562-.156l-.828-.906.547-.578a.978.978 0 0 1 .734-.297v-.219a3.56 3.56 0 0 1-.484.031c-.204 0-.532-.015-.579-.031v.219c.079.015.11.062.11.125 0 .093-.031.14-.203.312l-.266.281-.469-.515c-.062-.047-.062-.063-.062-.094 0-.078.094-.11.156-.11v-.218c-.14.016-.516.031-.656.031-.094 0-.438-.015-.563-.031v.219c.313 0 .422.015.563.156l.719.781c.046.047.046.063.046.063 0 .015-.5.515-.562.578a.96.96 0 0 1-.797.36v.218c.078 0 .313-.016.5-.016a7 7 0 0 1 .563.016v-.219a.107.107 0 0 1-.11-.11.31.31 0 0 1 .094-.202c.14-.172.297-.328.453-.485l.484.532c.11.125.11.125.11.156 0 .062-.047.11-.14.11v.218l.64-.016c.203 0 .484.016.562.016Zm2.949-.656c0-.078-.094-.078-.11-.078-.078 0-.078.03-.11.078-.03.078-.093.25-.28.375a.921.921 0 0 1-.516.14c-.422 0-.922-.297-.922-1.047 0-.25.047-.546.25-.78.25-.298.531-.298.703-.298.156 0 .344.016.485.047a.278.278 0 0 0-.11.235c0 .14.11.25.266.25.172 0 .265-.11.265-.266 0-.438-.578-.453-.922-.453-1.03 0-1.453.719-1.453 1.265 0 .688.61 1.25 1.375 1.25.875 0 1.078-.656 1.078-.718zm1.862.656v-.219c-.344 0-.39 0-.39-.234v-1.969l-.844.063v.203c.359 0 .406.047.406.312v1.39c0 .235-.047.235-.422.235v.219l.64-.016c.047 0 .47 0 .61.016zm-.313-3.313a.33.33 0 0 0-.328-.328.344.344 0 0 0-.343.328c0 .188.156.344.343.344.203 0 .328-.172.328-.344zm2.843 2.625v-.312h-.203v.297c0 .39-.204.562-.407.562-.39 0-.39-.437-.39-.547v-1.468h.89v-.219h-.89v-1h-.203c-.016.484-.25 1.016-.797 1.047v.172h.547v1.468c0 .579.421.75.796.75.391 0 .657-.312.657-.75zm3.63.188v-.297h-.204v.297c0 .047 0 .297-.218.297-.203 0-.203-.25-.203-.297v-1.14c0-.516-.532-.813-1.141-.813-.266 0-.922.031-.922.484 0 .156.11.281.281.281a.263.263 0 0 0 .266-.265c0-.11-.047-.203-.156-.235.187-.093.468-.093.515-.093.39 0 .688.234.688.656v.14c-.25.016-.688.016-1.094.172-.36.125-.703.36-.703.735 0 .484.578.64 1.016.64.453 0 .734-.234.859-.453.031.297.219.422.406.422.016 0 .61 0 .61-.531zm-1.094-.281c0 .578-.563.656-.735.656-.296 0-.578-.172-.578-.453 0-.313.297-.703 1.313-.735zm3.47.093v-.312h-.204v.297c0 .39-.203.562-.406.562-.39 0-.39-.437-.39-.547v-1.468h.89v-.219h-.89v-1h-.204c-.015.484-.25 1.016-.796 1.047v.172h.546v1.468c0 .579.422.75.797.75.391 0 .657-.312.657-.75zm2.051.688v-.219c-.343 0-.39 0-.39-.234v-1.969l-.844.063v.203c.36 0 .406.047.406.312v1.39c0 .235-.047.235-.422.235v.219l.641-.016c.047 0 .469 0 .61.016zm-.312-3.313a.33.33 0 0 0-.328-.328.344.344 0 0 0-.344.328c0 .188.156.344.344.344.203 0 .328-.172.328-.344zm3.733 2.141c0-.687-.625-1.281-1.422-1.281-.797 0-1.406.594-1.406 1.281 0 .672.625 1.234 1.406 1.234.797 0 1.422-.562 1.422-1.234zm-.532-.047c0 .266 0 1.078-.89 1.078s-.89-.812-.89-1.078c0-.172 0-.547.202-.781a.944.944 0 0 1 .688-.281c.265 0 .515.093.703.297.187.218.187.593.187.765zm4.236 1.219v-.219c-.375 0-.422 0-.422-.234v-1.203c0-.547-.312-.766-.875-.766-.484 0-.781.25-.937.516v-.516l-.86.063v.203c.39 0 .438.047.438.312v1.39c0 .235-.063.235-.438.235v.219c.047 0 .422-.016.657-.016.25 0 .609.016.671.016v-.219c-.375 0-.437 0-.437-.234v-.969c0-.61.516-.828.86-.828.374 0 .452.234.452.578v1.219c0 .234-.047.234-.422.234v.219c.032 0 .407-.016.657-.016.25 0 .61.016.656.016Zm0 0"/></svg>