<svg xmlns="http://www.w3.org/2000/svg" xmlns:xlink="http://www.w3.org/1999/xlink" width="180.248" height="33.507" viewBox="0 0 135.186 25.13"><defs><path id="c" d="M3.375-5.516c-.047-.109-.063-.171-.203-.171s-.172.062-.203.171L1.188-.828c-.079.219-.25.562-.907.562V0c.266-.031.688-.031.828-.031.25 0 .5 0 .875.031v-.266c-.343 0-.546-.171-.546-.39 0-.063 0-.078.03-.172l.376-1h2.172l.453 1.187A.419.419 0 0 1 4.5-.5c0 .234-.406.234-.64.234V0c.687-.031.703-.031 1.14-.031.438 0 .594 0 1.047.031v-.266h-.14c-.5 0-.579-.062-.673-.328Zm-.438.829.97 2.593h-1.97Zm0 0"/><path id="d" d="M3.875-2.422c0-.656-.313-1.094-1.14-1.094a1.38 1.38 0 0 0-1.25.766v-.766l-1.157.094v.266c.547 0 .61.047.61.437v2.094c0 .36-.094.36-.61.36V0c.344-.031.688-.031.906-.031.235 0 .563 0 .907.031v-.266c-.5 0-.61 0-.61-.359v-1.438c0-.843.64-1.234 1.125-1.234s.61.344.61.844v1.828c0 .36-.094.36-.61.36V0c.344-.031.703-.031.906-.031.235 0 .579 0 .922.031v-.266c-.515 0-.609 0-.609-.359Zm0 0"/><path id="e" d="M3.984-1.703c0-.984-.828-1.844-1.875-1.844-1.046 0-1.875.86-1.875 1.844 0 1 .86 1.781 1.875 1.781 1.032 0 1.875-.781 1.875-1.781ZM2.11-.172c-.421 0-.765-.203-.937-.484C.97-.984.954-1.375.954-1.766c0-.312 0-.78.235-1.125.218-.28.546-.437.921-.437.422 0 .766.203.938.469.219.343.234.765.234 1.093 0 .36-.015.797-.25 1.141-.203.313-.562.453-.922.453Zm0 0"/><path id="f" d="M2.625-5.438v.266c.531 0 .61.047.61.438v1.687a1.409 1.409 0 0 0-1.079-.469c-1 0-1.875.782-1.875 1.797 0 .985.797 1.797 1.797 1.797.469 0 .86-.219 1.125-.5v.5L4.422 0v-.266c-.547 0-.61-.046-.61-.437v-4.828Zm.578 4.454c0 .14 0 .171-.125.328a1.146 1.146 0 0 1-.953.515c-.375 0-.688-.187-.875-.484-.219-.313-.266-.703-.266-1.078 0-.469.079-.797.266-1.063.188-.296.547-.53.953-.53.375 0 .766.202 1 .608Zm0 0"/><path id="g" d="M3.297-1.813c.172 0 .219 0 .219-.187 0-.703-.391-1.547-1.516-1.547-.984 0-1.766.813-1.766 1.797 0 1.031.86 1.828 1.875 1.828 1 0 1.407-.844 1.407-1.031a.12.12 0 0 0-.125-.11c-.094 0-.11.047-.125.094a1.14 1.14 0 0 1-1.11.797c-.36 0-.734-.156-.969-.531-.234-.36-.234-.875-.234-1.11ZM.953-2.03c.078-1.11.75-1.297 1.047-1.297.938 0 .969 1.125.969 1.297Zm0 0"/><path id="h" d="M2.656 1.984c.063 0 .156 0 .156-.093 0-.032 0-.032-.109-.141C1.61.719 1.343-.75 1.343-1.984c0-2.297.938-3.375 1.345-3.75.124-.094.124-.11.124-.141 0-.047-.03-.094-.109-.094-.125 0-.531.407-.594.469C1.047-4.375.83-2.953.83-1.984c0 1.78.734 3.218 1.827 3.968Zm0 0"/><path id="i" d="M2.469-1.984a5.61 5.61 0 0 0-.625-2.61C1.454-5.328.719-5.969.578-5.969c-.078 0-.094.047-.094.094 0 .031 0 .047.094.14 1.11 1.063 1.36 2.516 1.36 3.75C1.938.298 1 1.376.593 1.75c-.11.094-.11.11-.11.14 0 .048.016.094.094.094.125 0 .531-.406.594-.468C2.234.39 2.469-1.031 2.469-1.984Zm0 0"/><path id="j" d="M5.64-5.406c0-.125 0-.203-.109-.203-.062 0-.062 0-.14.109l-.407.594a2.117 2.117 0 0 0-1.578-.703C1.812-5.61.47-4.33.47-2.72S1.797.171 3.422.171C4.75.172 5.64-.89 5.64-1.858c0-.079 0-.157-.141-.157-.078 0-.11.047-.11.125-.06 1.22-1.06 1.796-1.904 1.796-.671 0-2.187-.422-2.187-2.625 0-2.156 1.437-2.625 2.187-2.625.75 0 1.672.532 1.891 1.907 0 .062.016.109.125.109.14 0 .14-.047.14-.203Zm0 0"/><path id="k" d="M3.344-2.375c0-.781-.75-1.172-1.485-1.172-.656 0-1.25.25-1.25.781a.36.36 0 0 0 .375.375c.235 0 .375-.156.375-.375 0-.187-.109-.328-.296-.359.296-.203.734-.203.78-.203.454 0 .891.312.891.969v.234c-.453.031-.984.047-1.546.281-.704.313-.844.766-.844 1.032 0 .687.812.89 1.36.89.577 0 .937-.328 1.124-.64.031.296.235.609.594.609.078 0 .75-.031.75-.766v-.437h-.25v.437c0 .328-.11.453-.281.453-.297 0-.297-.359-.297-.453Zm-.61 1.25c0 .781-.64.984-.968.984C1.359-.14 1-.42 1-.812c0-.516.5-1.063 1.734-1.094Zm0 0"/><path id="l" d="M1.484-3.172h1.188v-.265H1.484v-1.47h-.25c0 .735-.328 1.485-1.078 1.516v.22h.719V-1c0 .938.719 1.078 1.078 1.078.547 0 .86-.469.86-1.078v-.438h-.25v.422c0 .547-.25.844-.547.844-.532 0-.532-.687-.532-.812Zm0 0"/><path id="m" d="M3.875-2.422c0-.656-.313-1.094-1.14-1.094-.704 0-1.063.454-1.22.704v-2.72l-1.187.095v.265c.547 0 .61.047.61.438v4.109c0 .36-.094.36-.61.36V0c.344-.031.688-.031.906-.031.235 0 .563 0 .907.031v-.266c-.5 0-.61 0-.61-.359v-1.438c0-.843.64-1.234 1.125-1.234s.61.344.61.844v1.828c0 .36-.094.36-.61.36V0c.344-.031.703-.031.906-.031.235 0 .579 0 .922.031v-.266c-.515 0-.609 0-.609-.359Zm0 0"/><path id="n" d="M3.406-3.313 4.97-4.687c.515-.47.937-.485 1.125-.485v-.266c-.313.016-.328.016-.735.016-.406 0-.437 0-.953-.016v.266c.157 0 .297.078.297.234 0 .063-.031.172-.172.297l-2.64 2.344v-2.5c0-.297.015-.375.625-.375h.171v-.266c-.671.016-.687.016-1.171.016-.47 0-.485 0-1.172-.016v.266H.53c.61 0 .625.078.625.375V-.64c0 .297-.015.375-.625.375H.344V0c.687-.031.703-.031 1.172-.031.484 0 .5 0 1.171.031v-.266h-.171c-.61 0-.625-.078-.625-.375v-1.328l1.03-.922L4.47-.75c.078.094.125.172.125.266 0 .218-.282.218-.422.218V0c.687-.031.703-.031 1.094-.031.218 0 .656 0 .937.031v-.266c-.281 0-.547 0-.781-.312Zm0 0"/><clipPath id="a"><path d="M46 0h39v25.129H46Zm0 0"/></clipPath><clipPath id="b"><path d="M70 4h5v21.129h-5Zm0 0"/></clipPath></defs><path fill="none" stroke="#000" stroke-miterlimit="10" stroke-width=".399" d="M9.016 13.309h48.757m15.872 0h48.757"/><g clip-path="url(#a)" transform="translate(0 -1.5)"><path fill="none" stroke="#000" stroke-miterlimit="10" stroke-width=".797" d="M73.645 14.809 57.773 4.887V24.73zm0 0"/></g><g clip-path="url(#b)" transform="translate(0 -1.5)"><path fill="none" stroke="#000" stroke-miterlimit="10" stroke-width=".797" d="M73.645 24.73V4.887h-3.172"/></g><path stroke="#000" stroke-miterlimit="10" stroke-width=".399" d="M10.602 13.309a1.587 1.587 0 1 0-3.175.002 1.587 1.587 0 0 0 3.175-.002zm113.386 0a1.587 1.587 0 1 0-3.174.002 1.587 1.587 0 0 0 3.174-.002zm0 0"/><g transform="translate(0 -1.5)"><use xlink:href="#c" x="3.321" y="9.298"/><use xlink:href="#d" x="9.664" y="9.298"/><use xlink:href="#e" x="14.368" y="9.298"/></g><g transform="translate(0 -1.5)"><use xlink:href="#f" x="18.834" y="9.298"/><use xlink:href="#g" x="23.539" y="9.298"/></g><g transform="translate(0 -1.5)"><use xlink:href="#h" x="30.132" y="9.298"/><use xlink:href="#c" x="33.425" y="9.298"/><use xlink:href="#i" x="39.767" y="9.298"/></g><g transform="translate(0 -1.5)"><use xlink:href="#j" x="84.592" y="9.298"/><use xlink:href="#k" x="90.708" y="9.298"/><use xlink:href="#l" x="94.943" y="9.298"/><use xlink:href="#m" x="98.236" y="9.298"/><use xlink:href="#e" x="102.941" y="9.298"/></g><g transform="translate(0 -1.5)"><use xlink:href="#f" x="107.406" y="9.298"/><use xlink:href="#g" x="112.111" y="9.298"/></g><g transform="translate(0 -1.5)"><use xlink:href="#h" x="118.704" y="9.298"/><use xlink:href="#n" x="121.997" y="9.298"/><use xlink:href="#i" x="128.576" y="9.298"/></g></svg>