<svg width="386" height="291" xmlns="http://www.w3.org/2000/svg" xmlns:xlink="http://www.w3.org/1999/xlink" overflow="hidden"><defs><clipPath id="clip0"><rect x="3292" y="1078" width="386" height="291"/></clipPath><linearGradient x1="3485" y1="1144" x2="3485" y2="1364" gradientUnits="userSpaceOnUse" spreadMethod="reflect" id="fill1"><stop offset="0" stop-color="#D2D2D2"/><stop offset="0.5" stop-color="#C8C8C8"/><stop offset="1" stop-color="#C0C0C0"/></linearGradient></defs><g clip-path="url(#clip0)" transform="translate(-3292 -1078)"><rect x="3293" y="1144" width="384" height="220" stroke="#A5A5A5" stroke-width="2.29167" stroke-miterlimit="8" fill="url(#fill1)"/><text font-family="Cambria Math,Cambria Math_MSFontService,sans-serif" font-weight="400" font-size="46" transform="translate(3629.62 1353)">Ω</text><path d="M3401 1255C3401 1211.92 3435.7 1177 3478.5 1177 3521.3 1177 3556 1211.92 3556 1255 3556 1298.08 3521.3 1333 3478.5 1333 3435.7 1333 3401 1298.08 3401 1255Z" fill="#000000" fill-rule="evenodd" fill-opacity="0.501961"/><text fill="#FFFFFF" font-family="Cambria Math,Cambria Math_MSFontService,sans-serif" font-weight="400" font-size="46" transform="translate(3459.22 1276)">𝐴</text><path d="M3622.64 1220.13 3620.14 1219.82C3620.03 1219.8 3619.92 1219.78 3619.81 1219.74L3617.38 1218.93C3617.28 1218.9 3617.19 1218.86 3617.11 1218.81L3614.67 1217.5C3614.59 1217.46 3614.51 1217.41 3614.44 1217.35L3612.06 1215.54 3609.6 1213.16 3607.29 1210.4 3603.1 1203.85 3599.6 1196.2 3596.91 1187.63 3595.17 1178.49 3594.52 1169.04 3594.08 1164.46 3594.14 1164.75 3592.89 1160.12 3592.97 1160.37 3590.97 1155.87 3588.33 1151.64 3585.07 1147.56 3581.2 1143.63 3576.8 1139.85 3571.86 1136.32 3566.53 1133.08 3560.76 1130.14 3554.69 1127.57 3548.35 1125.36 3541.78 1123.58 3535.09 1122.3 3528.28 1121.51 3524.81 1121.36 3524.96 1117.92 3528.68 1118.09 3535.75 1118.92 3542.68 1120.27 3549.49 1122.11 3556.03 1124.4 3562.33 1127.08 3568.31 1130.14 3573.86 1133.53 3579.04 1137.25 3583.64 1141.22 3587.77 1145.42 3591.26 1149.83 3594.12 1154.48 3596.12 1158.98C3596.15 1159.06 3596.18 1159.14 3596.2 1159.23L3597.45 1163.85C3597.48 1163.94 3597.5 1164.04 3597.51 1164.14L3597.95 1168.81 3598.55 1177.86 3600.19 1186.6 3602.74 1194.78 3605.99 1202 3609.93 1208.2 3611.99 1210.69 3614.15 1212.81 3616.53 1214.62 3616.3 1214.47 3618.74 1215.79 3618.46 1215.67 3620.9 1216.48 3620.57 1216.41 3623.07 1216.72ZM3550.71 1138.33 3521.47 1119.49 3552.27 1103.32C3553.11 1102.88 3554.15 1103.2 3554.59 1104.04 3555.03 1104.88 3554.71 1105.92 3553.87 1106.36L3525.68 1121.16 3525.81 1118.19 3552.57 1135.45C3553.37 1135.96 3553.6 1137.02 3553.08 1137.82 3552.57 1138.62 3551.51 1138.85 3550.71 1138.33Z"/><text font-family="Cambria Math,Cambria Math_MSFontService,sans-serif" font-weight="400" font-size="46" transform="translate(3482.23 1134)">𝐴</text><path d="M1.88672-26.8857-14.7568-26.8857-14.7568-29.2666 1.88672-29.2666Z" transform="matrix(1 0 0 1 3510.63 1125)"/></g></svg>