<?xml version="1.0" encoding="UTF-8" standalone="no"?>
<svg
   width="617.53003pt"
   height="604.13702pt"
   viewBox="0 0 617.53003 604.13702"
   version="1.1"
   id="svg8"
   sodipodi:docname="BlackMagicCircle.svg"
   inkscape:version="1.2.2 (732a01da63, 2022-12-09)"
   xmlns:inkscape="http://www.inkscape.org/namespaces/inkscape"
   xmlns:sodipodi="http://sodipodi.sourceforge.net/DTD/sodipodi-0.dtd"
   xmlns="http://www.w3.org/2000/svg"
   xmlns:svg="http://www.w3.org/2000/svg">
  <defs
     id="defs12" />
  <sodipodi:namedview
     id="namedview10"
     pagecolor="#ffffff"
     bordercolor="#000000"
     borderopacity="0.25"
     inkscape:showpageshadow="2"
     inkscape:pageopacity="0.0"
     inkscape:pagecheckerboard="0"
     inkscape:deskcolor="#d1d1d1"
     inkscape:document-units="pt"
     showgrid="false"
     inkscape:zoom="1"
     inkscape:cx="479"
     inkscape:cy="331"
     inkscape:window-width="1920"
     inkscape:window-height="1046"
     inkscape:window-x="-11"
     inkscape:window-y="-11"
     inkscape:window-maximized="1"
     inkscape:current-layer="svg8" />
  <g
     fill="#b2b2b2"
     style="fill:#502d16;fill-opacity:0.25"
     id="g6"
     transform="translate(-21,-15.024851)">
    <path
       d="m 321.02,16.56 c 1.25,-2.02 2.67,-2.06 3.96,-0.04 8.34,0.46 17.27,-2.09 25.23,0.56 8.36,-0.39 16.6,1.35 24.81,2.69 61.15,10.08 118.55,40.28 162.33,83.93 43.83,43.98 74.09,101.7 84.03,163.17 1.29,7.92 2.93,15.87 2.52,23.92 2.64,5.91 0.24,12.79 0.82,19.09 1.38,1.28 1.35,3.14 1.44,4.88 3.94,1.93 9.86,0.89 12.37,4.91 -4.13,0.94 -8.1,2.41 -12.17,3.56 -0.32,1.37 -0.79,2.71 -1.62,3.86 -0.44,5.65 1.7,11.86 -0.83,17.12 0.41,8.05 -1.24,16 -2.53,23.92 -9.94,61.47 -40.21,119.21 -84.05,163.19 -43.99,43.85 -101.72,74.11 -163.19,84.06 -7.92,1.3 -15.88,2.93 -23.93,2.53 -10.26,2.89 -21.53,-0.56 -32.18,0.66 -7.02,-0.38 -14.61,1.93 -21.24,-0.64 -8.06,0.37 -16.01,-1.25 -23.93,-2.55 C 211.39,605.43 153.66,575.16 109.67,531.32 65.83,487.33 35.56,429.61 25.62,368.14 24.33,360.21 22.68,352.26 23.1,344.21 20.27,336.59 23.55,328 23,320 l 0.98,-0.01 c -0.44,3.51 1.24,6.6 2.99,9.49 0.05,-6.66 0.05,-13.31 0,-19.96 -1.75,2.89 -3.43,5.97 -2.99,9.48 h -0.99 c 0.39,-9.32 -2.72,-19.26 0.11,-28.2 -0.42,-8.06 1.23,-16.01 2.52,-23.94 9.94,-61.47 40.21,-119.2 84.05,-163.18 43.99,-43.85 101.72,-74.11 163.19,-84.06 7.92,-1.3 15.87,-2.93 23.93,-2.55 7.63,-2.65 16.22,-0.12 24.23,-0.51 M 201.4,43.37 c -0.41,0.35 -1.24,1.07 -1.66,1.42 -30.72,13.44 -58.7,32.9 -83.11,55.84 -1.68,2.3 -3.87,4.14 -6.04,5.97 C 61.9,155.99 29.92,222.62 25,292 h 0.55 c 3.28,-10.98 9.57,-20.79 16.99,-29.43 3.06,-6.33 3.32,-13.62 5.49,-20.29 6.52,-20.6 13.5,-41.39 24.75,-59.92 0.07,-0.47 0.21,-1.4 0.29,-1.86 28.56,-50.41 71.98,-92.89 124.38,-117.98 32.62,-16.78 69.22,-26.25 105.76,-28.55 -1.24,-6.7 3.66,-12.68 9.05,-15.97 -38.08,0.71 -75.73,10.75 -110.86,25.37 m 110.14,-21.5 c 3.15,0.16 6.31,0.13 9.46,0.13 0,10.4 -0.01,20.81 0.01,31.22 l 4.08,0.12 c -0.21,-8.6 0.02,-17.2 -0.09,-25.79 -2.56,-0.17 -2.03,-2.59 -2.15,-4.42 3.21,-0.57 6.41,-1.22 9.66,-1.56 -5.54,-5.51 -15.33,-4.69 -20.97,0.3 M 332.62,18 c 1.71,1.09 3.4,2.22 5.13,3.28 2.23,4.04 5.46,8.22 3.81,13.12 3.86,-0.39 7.85,-0.9 11.63,0.27 31.69,2.53 62.5,11.92 91.55,24.54 0.41,0.35 1.24,1.05 1.65,1.4 3.68,0.94 7.02,2.82 10.17,4.9 55.42,28.5 101.24,76.22 126.84,133.1 0.34,0.41 1.04,1.24 1.39,1.65 6.29,15.26 12.42,30.66 16.22,46.77 -0.09,0.81 -0.26,2.44 -0.35,3.26 3.68,-2.38 7.45,-4.62 11.27,-6.77 0,0.71 -0.01,2.14 -0.02,2.86 -2.38,4.68 -6.77,8.38 -7.9,13.62 1.08,6.63 3.16,13.17 3.09,19.94 5.53,-0.81 10.4,2.15 15.14,4.51 -2.21,-3.15 -0.8,-7.23 -2.03,-10.72 C 613.36,228.66 596.38,185.11 570.37,147.66 545.19,111.31 512.01,80.6 473.9,58.18 431.1,33.5 381.98,18.89 332.62,18 M 329,26.14 V 36 h 11 c 0.54,-4.02 -0.99,-7.82 -3.4,-10.96 -2.51,0.52 -5.01,1.14 -7.6,1.1 M 307.44,26 c -2.31,3.13 -1.43,7.64 -4.25,10.27 4.59,-0.43 9.2,-0.26 13.81,-0.27 V 26 h -9.56 M 280,37.99 l 0.01,1.05 c 7.36,-0.48 14.6,-2.09 21.99,-2.1 v -0.97 c -7.38,0.13 -14.61,2.04 -22,2.02 m 60.47,-0.88 c 12.97,-0.69 25.71,2.34 38.53,3.98 v -0.93 c -12.82,-0.75 -25.84,-6.14 -38.53,-3.05 m -66.22,2.1 c 0.45,1.46 3.28,1.09 4.48,0.52 -0.49,-1.42 -3.3,-1.14 -4.48,-0.52 m 0.76,2.94 c 1.3,4.48 2.17,9.17 2.01,13.85 7.05,-0.01 13.93,-1.98 20.98,-2.11 0.57,-4.99 -0.97,-9.8 -1,-14.73 -7.15,1.36 -14.66,2.08 -21.99,2.99 m 23.88,-3.13 c 0.3,5.36 2.02,10.62 0.69,16.01 2.83,-3.98 8.54,-1.31 12.71,-1.97 -3.43,-1.99 -6,-5.07 -8.07,-8.41 -0.6,-1.96 -1.45,-3.83 -2.37,-5.66 -0.74,0.01 -2.22,0.03 -2.96,0.03 M 342.38,39 c -0.81,5.96 -4.66,11.13 -9.79,14.13 4.12,-0.14 8.25,-0.16 12.39,-0.13 -0.59,-4.75 0.99,-9.29 1.08,-13.99 C 344.83,39 343.6,39 342.38,39 m 5.75,-0.22 c 0.15,5.17 -1.71,10.15 -1.12,15.36 7.43,-0.98 14.61,1.69 21.99,1.91 -0.18,-4.68 0.67,-9.35 1.96,-13.82 -7.51,-1.92 -15.34,-1.62 -22.83,-3.45 m -79.84,1.46 c 0.74,1.4 3.63,0.89 5.06,0.47 -0.78,-1.34 -3.66,-0.98 -5.06,-0.47 m 36.68,-0.26 c 2.27,5.48 6.24,10.22 11.94,12.3 0.13,-4.09 0.08,-8.18 0.09,-12.28 -4.01,0 -8.02,0.01 -12.03,-0.02 M 329,40 v 12.16 c 2.25,-1.46 4.36,-3.13 6.56,-4.67 1.61,-2.43 3.07,-4.96 4.52,-7.49 H 329 m -64.27,1.15 c 0.27,1.29 1.05,1.52 2.33,0.69 -0.29,-1.28 -1.06,-1.5 -2.33,-0.69 M 380,40.87 v 0.88 c 3.18,0.24 6.36,1.88 9.53,0.75 -3.2,-0.44 -6.36,-1.05 -9.53,-1.63 m -120.46,1.35 c 0.15,1.4 2.7,1.15 3.65,0.57 -0.17,-1.37 -2.71,-1.15 -3.65,-0.57 m 113.57,0.03 c -1.29,4.95 -0.78,10.57 -3.5,15 6.99,-0.79 13.65,2.45 20.5,3.39 1.25,-4.32 2.39,-8.67 3.89,-12.91 -0.35,-0.4 -1.06,-1.18 -1.41,-1.58 -6.59,-0.58 -13.02,-2.51 -19.48,-3.9 m -117.38,0.9 c 0.28,1.28 1.06,1.5 2.34,0.67 -0.29,-1.27 -1.07,-1.49 -2.34,-0.67 m -3.33,4.12 c -0.35,0.36 -1.05,1.09 -1.4,1.45 1.31,4.06 2.9,8.11 3.31,12.39 7.25,-1.07 14.23,-3.66 21.56,-4.16 -1.83,-4.52 -1.58,-9.53 -3.17,-14.12 -6.9,0.81 -13.49,3.21 -20.3,4.44 m 137.33,-3.43 c 1.27,0.81 2.05,0.58 2.34,-0.68 -1.29,-0.83 -2.07,-0.6 -2.34,0.68 m -145.19,3 c 3.7,-0.54 7.29,-1.75 10.97,-2.48 -3.71,-0.5 -7.79,0.62 -10.97,2.48 m 148.83,-2.52 c 2.46,3.23 4.77,-2.57 0,0 m 4.16,1.13 c 1.62,0.72 4.6,2.35 5.94,1.09 -1.61,-0.73 -4.6,-2.34 -5.94,-1.09 m -158.3,2.14 c -3.34,2.51 3.49,0.58 4.65,0.05 -0.88,-1.55 -3.38,-0.7 -4.65,-0.05 m 164.89,-0.35 c 0.7,1.34 4.74,2.65 5.77,1.22 -1.66,-0.86 -3.91,-1.96 -5.77,-1.22 m -175.93,7.77 c 1.37,3.89 2.92,7.72 4.21,11.64 0.32,0.34 0.94,1.02 1.26,1.36 6.15,-2.72 12.85,-3.81 19.13,-6.22 -1.42,-4.48 -2.77,-8.98 -3.92,-13.53 -6.86,2.34 -13.92,4.1 -20.68,6.75 M 396.39,48 c -2.8,4.27 -1.72,10.18 -4.88,14.31 7.39,-0.37 14.47,3.34 21.48,5.48 1.33,-3.87 2.9,-7.65 4.19,-11.53 0.66,-0.64 1.32,-1.27 1.99,-1.91 -7.7,-1.68 -14.99,-5.23 -22.78,-6.35 m -170.97,5.15 c 4.2,-0.66 8.41,-1.92 12.05,-4.17 -4.09,1.13 -8.22,2.31 -12.05,4.17 m 185.87,-4.08 c -0.03,3.26 3.13,-1.39 0,0 m 2.21,0.83 c 2.67,1.9 5.87,2.83 9.08,3.29 -2.65,-1.94 -5.84,-2.98 -9.08,-3.29 m -189.8,3.21 c 0.29,3.21 3.1,-1.54 0,0 m 199.03,0 c 0.19,3.21 3.12,-1.51 0,0 m -200.99,1.11 c 0.57,0.58 0.57,0.58 0,0 M 425.3,54.07 c -0.1,3.26 3.15,-1.35 0,0 m -207.08,1.05 c 0.49,3.24 2.88,-1.73 0,0 m 201.72,0.08 c -1.69,4.5 -2.91,9.16 -4.69,13.63 6.83,1.73 12.99,5.19 19.44,7.91 1.87,-4.56 4.32,-8.86 6.49,-13.28 -7.17,-2.57 -13.87,-6.22 -21.24,-8.26 m 8.79,0.04 c 0.58,0.59 0.58,0.59 0,0 m -211.8,0.85 c -1.36,0.19 -2.59,0.65 -3.71,1.38 0.36,1.83 6.06,-0.68 3.71,-1.38 m -10.97,8.27 c 1.58,4.38 4.66,8.15 5.53,12.81 6.03,-3.65 12.85,-5.48 19.3,-8.21 -1.36,-3.89 -2.91,-7.71 -4.19,-11.61 -0.33,-0.35 -0.98,-1.05 -1.31,-1.39 -6.34,3.02 -13.36,4.63 -19.33,8.4 M 252,65.19 V 66 c 0.72,-0.01 2.16,-0.05 2.88,-0.06 3.03,2.91 3.66,7.13 4.38,11.06 h -2.07 c -0.94,-2.93 -1.12,-6.62 -3.92,-8.48 l -0.36,3.3 c 1.77,1.81 0.96,4.13 -0.38,5.88 -1.27,-2.87 -0.94,-7.33 -4.76,-8.14 0.68,2.99 1.43,5.98 2.41,8.9 a 64.4,64.4 0 0 1 3.45,2.29 c -0.91,0.08 -2.72,0.26 -3.63,0.35 0,1.28 0,2.55 0.01,3.83 -1.48,0.48 -2.96,0.98 -4.46,1.4 0.23,-1.47 1.05,-2.46 2.44,-2.96 l -0.03,-2.68 a 12.889,12.889 0 0 1 -4.32,-7.2 c 0.51,-0.47 1.53,-1.4 2.04,-1.86 -0.33,-3.86 3.54,-3.9 6.35,-3.73 -0.03,-0.52 -0.09,-1.56 -0.13,-2.09 -20.21,6.2 -40.29,13.65 -58.3,24.87 24.75,5.57 49.05,13.36 73.72,19.43 C 285.18,91.96 303.39,74.13 321.28,56 297.81,54.97 274.8,60.18 252,65.19 M 324.73,56 c 18.22,18.34 36.5,36.64 54.87,54.83 23.95,-6.05 47.84,-13.41 71.96,-19.08 0.39,-0.36 1.17,-1.09 1.56,-1.45 -5.06,-2.23 -9.38,-5.9 -14.68,-7.57 C 403.36,65.24 363.9,55.5 324.73,56 m 105.49,0.52 c 0.94,0.95 2.53,1.78 3.89,1.29 0.18,-1.46 -3.31,-2.71 -3.89,-1.29 M 249.6,131.6 a 15.035,15.035 0 0 0 -4.99,5.01 c -2.79,1.82 -5.16,4.22 -7,6.98 -3.15,2 -5.06,5.32 -8.09,7.46 1.92,-0.48 3.86,-0.93 5.83,-1.2 1.86,-2.3 4.52,-3.86 6.06,-6.45 27.59,-26.13 53.83,-53.77 80.99,-80.39 1.33,-0.42 2.06,0.9 2.93,1.63 15.9,16.02 31.9,31.93 47.82,47.92 1.34,-0.32 2.69,-0.59 4.05,-0.83 C 359.08,93.78 341.13,75.67 323.02,57.71 298.58,82.36 273.42,106.39 249.6,131.6 M 435.3,58.04 c -0.11,3.26 3.16,-1.33 0,0 m -226.06,1.15 c 0.48,3.24 2.9,-1.71 0,0 m 228.5,0.04 c 0.57,0.58 0.57,0.58 0,0 m -231.37,0.89 -2.16,1.32 c 0.78,2.54 5.96,-1.89 2.16,-1.32 m 233.34,-0.4 c 1.22,1.04 2.49,2.03 3.72,3.07 1,0.17 3.01,0.5 4.01,0.66 -2.49,-1.43 -5.02,-2.78 -7.73,-3.73 m -236.98,2.6 c 0.58,0.57 0.58,0.57 0,0 m -2,0.99 c 0.58,0.57 0.58,0.57 0,0 m 247.58,0.74 c -0.14,3.25 3.17,-1.32 0,0 m -252.09,1.11 c 0.55,3.24 2.87,-1.74 0,0 M 183.7,75.39 c 2.58,4.13 4.65,8.57 7.49,12.53 5.46,-4.49 12.53,-6.28 18.08,-10.5 -1.52,-4.24 -3.98,-8.05 -5.62,-12.24 -6.52,3.66 -13.41,6.6 -19.95,10.21 M 442.49,64.72 c -1.28,4.55 -3.69,8.62 -5.53,12.93 2.3,1.63 4.95,2.71 7.62,3.6 3.43,2.38 7.28,4.01 10.99,5.88 2.79,-3.77 4.48,-8.21 7.35,-11.91 -6.32,-4.32 -13.45,-7.4 -20.43,-10.5 m 8.25,0.59 c 0.57,0.58 0.57,0.58 0,0 m -258,1.85 c 0.58,0.57 0.58,0.57 0,0 m 83.12,45.6 c 15.78,3.82 31.33,8.58 47.1,12.38 0.01,-5.06 0.13,-10.12 0.18,-15.17 -2.31,-14.27 -0.71,-28.92 -1.03,-43.36 -15.5,15.3 -30.77,30.83 -46.25,46.15 M 324,66.72 c 0.08,12.1 -0.11,24.21 -0.03,36.3 2.01,7.48 0.69,15.31 1,22.97 14.95,-4.75 30.24,-8.56 45.41,-12.46 C 355.4,97.49 339.45,82.32 324,66.72 m 130.73,0.44 c 0.57,0.58 0.57,0.58 0,0 m -263.99,1.01 c 0.58,0.57 0.58,0.57 0,0 m 265.59,-0.14 c -0.15,3.25 3.16,-1.33 0,0 M 188.2,69.11 c 0.52,3.24 2.88,-1.72 0,0 m -1.89,1.09 c -1.2,0.64 -2.28,1.43 -3.22,2.36 0.75,2.12 7.09,-3.43 3.22,-2.36 m 274.77,0.7 c 2.52,1.86 5.19,3.53 7.78,5.32 0.44,-0.29 0.89,-0.58 1.35,-0.86 -3.1,-1.39 -5.92,-3.34 -9.13,-4.46 m -279.35,2.41 c 0.58,0.58 0.58,0.58 0,0 m -10.16,6.7 c 3.64,-1.32 6.78,-3.62 9.63,-6.2 -3.56,1.44 -6.62,3.87 -9.63,6.2 m 74.5,-5.73 c -1.43,3.09 3.29,0.02 0,0 M 457.1,88.59 c 6.06,3.02 11.69,6.72 17.16,10.68 2.95,-3.9 6.26,-7.61 8.82,-11.75 -5.69,-4.23 -12.13,-7.3 -17.89,-11.42 -2.61,4.23 -5.69,8.14 -8.09,12.49 m 22.85,-5.93 c -2.6,-3.11 -6.13,-5.28 -9.79,-6.91 2.84,2.83 6.52,4.65 9.79,6.91 m -315.88,5.66 c 2.2,4.02 5.71,7.22 7.34,11.55 5.89,-3.6 11.47,-7.66 17.48,-11.08 -2.92,-3.59 -4.57,-7.96 -6.53,-12.09 -6.36,3.29 -12.64,7.17 -18.29,11.62 m -81.78,81.55 c 6.11,-6.52 9.77,-15.03 15.85,-21.66 15.35,-20.47 33.49,-38.85 53.98,-54.19 5.96,-5.34 13.3,-8.82 19.28,-14.13 -36.3,22.32 -66.56,53.92 -89.11,89.98 m 398.94,-86.8 c -0.23,1.4 2.46,2.71 3.74,2.87 -0.09,-1.55 -2.07,-3.68 -3.74,-2.87 m 4.32,2.77 c 6.92,5.82 14.22,11.65 21.8,16.42 -7.06,-5.74 -14.01,-11.67 -21.8,-16.42 m -1.27,2.1 c -1.32,5.05 -5.35,8.6 -7.36,13.31 5.73,4.04 11.51,8.11 16.81,12.72 2.27,-4.51 6.63,-7.42 9.22,-11.73 -6.27,-4.7 -12.86,-9.04 -18.67,-14.3 m -339.57,14.85 c 2.96,3.08 4.92,7.03 8.29,9.72 v 1.66 c 5.43,-4.68 11.31,-8.84 17.15,-12.99 -2.64,-3.78 -5.67,-7.28 -7.9,-11.32 -6.38,3.54 -11.86,8.41 -17.54,12.93 m -3.1,26.85 a 71.651,71.651 0 0 0 -6.97,6.97 c -14.76,15.07 -27.13,32.28 -38.03,50.3 23.98,-7.3 48.44,-13.08 72.58,-19.87 1.08,-0.12 1.88,-0.62 2.4,-1.48 5.9,-24.72 13.27,-49.05 19.5,-73.68 -17.88,10.62 -34.6,23.22 -49.48,37.76 M 454.98,91.7 c 5.73,22.87 11.98,45.59 18.02,68.37 0.96,2.07 0.55,4.98 2.4,6.5 24.73,7.31 49.84,13.36 74.61,20.56 -1,11.69 -7.32,22.74 -7.09,34.72 0.94,1.53 1.13,3.31 1.34,5.06 1.73,10.53 5.24,20.88 5.64,31.55 2.94,-0.97 3.69,-4.17 5.17,-6.53 0.02,-2.09 -0.71,-4.6 1.36,-5.99 -0.11,-0.72 -0.31,-2.16 -0.41,-2.88 0.88,-2.24 1.62,-4.53 2.13,-6.88 3.04,-3.63 7.25,-5.85 11.64,-7.46 -3.7,-8.77 -6.82,-17.87 -11.51,-26.16 -9.81,-21.19 -23.61,-40.38 -38.6,-58.22 -3.98,-4.08 -8.35,-7.84 -11.57,-12.59 -0.12,0.23 -0.37,0.69 -0.5,0.92 a 61.93,61.93 0 0 0 -0.73,3.06 c -3.1,3.69 -9.02,7.29 -5.7,12.78 -3.39,-0.38 -3.56,-3.35 -3.25,-6.09 2.58,-3.24 5.75,-6.1 7.59,-9.86 -3.32,1.01 -5.75,3.61 -8.88,4.98 0.74,-3.54 3.72,-5.86 4.94,-9.18 -3.04,1.65 -5.83,3.72 -8.96,5.18 0.32,-4.56 5.52,-5.86 9.18,-6.77 -13.57,-14.01 -29.84,-25.52 -46.82,-35.07 m -261.64,1.16 c -11.25,41.83 -22.8,83.57 -33.48,125.55 1.31,-1.2 2.6,-2.43 3.88,-3.67 10.21,-39.4 20.96,-78.67 31.46,-118 22.46,5.7 44.85,11.73 67.09,18.24 0.91,-0.85 1.82,-1.7 2.75,-2.54 -0.38,-0.29 -1.13,-0.89 -1.51,-1.18 -23.62,-5.21 -46.61,-13.01 -70.19,-18.4 m 143.38,32.13 c -2.28,0.69 -4.62,1.11 -7,0.98 0.47,0.54 1.42,1.62 1.89,2.16 40.07,-10.75 80.28,-21.09 120.19,-32.41 6.15,23.67 12.61,47.26 18.73,70.93 2.58,-1.1 0.56,-3.8 0.36,-5.74 -6.1,-22.54 -11.98,-45.12 -18.01,-67.68 -38.52,11.22 -77.55,20.78 -116.16,31.76 M 196.47,98.74 c 4.99,6.4 7.94,14.08 12.47,20.75 l 0.28,1.89 c 5.98,9.64 11.59,19.56 16.95,29.58 0.74,-0.48 1.49,-0.94 2.24,-1.4 1.27,-2.07 3.01,-3.77 4.97,-5.18 3.63,-4.34 7.66,-8.38 12.01,-11.99 4.52,-5.74 10.45,-10.17 15,-15.87 -21.3,-5.94 -42.94,-10.99 -63.92,-17.78 m 188.4,17.51 c 2.37,2.25 4.73,4.53 6.75,7.12 4.16,3.82 8.16,7.86 12.02,11.99 1.88,1.43 3.57,3.11 5,5 2.28,1.7 4.14,3.88 5.95,6.06 1.35,1.24 2.76,2.4 4.14,3.61 10.11,-16.79 19.86,-33.85 29.61,-50.87 -21.06,6.08 -42.3,11.43 -63.47,17.09 m 34.92,35.56 c 16.19,4.17 32.42,8.46 48.48,13.16 -6.54,-21.53 -12.08,-43.4 -17.5,-65.24 -10.22,17.4 -19.5,35.54 -30.98,52.08 M 195.27,104.45 c -2.75,11.56 -5.74,23.1 -9.16,34.51 -2.49,8.82 -3.7,18.14 -7.51,26.52 8.61,-4.42 18.53,-5.41 27.72,-8.25 5.93,-1.59 11.72,-3.88 17.85,-4.56 -8.88,-16.74 -18.43,-33.12 -27.45,-49.79 -0.36,0.39 -1.09,1.17 -1.45,1.57 m 308.99,-0.48 c -2.62,4.24 -6.34,7.61 -9.17,11.71 4.68,2.96 8.2,7.31 12.55,10.68 1.2,1.1 1.87,3.17 3.43,3.64 3.97,-3.13 7.12,-7.18 10.92,-10.53 -5.7,-5.38 -11.46,-10.81 -17.73,-15.5 M 141.5,105 c -4.6,5.42 -10.3,9.68 -15.53,14.43 3.58,3.45 7.17,6.91 10.53,10.59 1.06,-1.73 2.6,-3.08 3.92,-4.61 3.91,-2.6 6.38,-6.89 10.56,-9.11 0.01,-0.94 0.01,-1.88 0.02,-2.82 -2.92,-2.38 -5.22,-5.37 -7.31,-8.48 h -2.19 m 373.9,4.26 c -0.04,4.83 4.52,1.06 0,0 m -241.12,5.12 c -0.77,0.73 -1.55,1.46 -2.32,2.19 0.38,0.29 1.13,0.86 1.51,1.14 46.4,11.93 92.5,25.14 138.85,37.36 -1.57,-1.54 -2.91,-3.53 -5.07,-4.28 C 363.01,138.34 318.5,126.9 274.28,114.38 m 104.53,3.87 c 10.4,9.9 19.93,20.78 30.8,30.14 1.82,2.79 4.22,5.16 6.99,7 1.49,2.47 3.81,4.19 5.99,5.99 1.55,1.8 3.23,3.48 5.03,5.03 1.79,2.18 3.51,4.5 5.97,6 1.76,2.86 4.57,4.75 7.08,6.89 1.67,1.67 3.33,3.35 4.97,5.06 1.71,1.63 3.38,3.29 5.03,5 2.11,2.53 4.44,4.86 6.97,6.97 1.7,1.64 3.37,3.32 5.01,5.02 1.7,1.63 3.36,3.31 4.98,5.03 2.53,2.12 4.86,4.47 7,7 2.22,1.96 4.32,4.09 6.03,6.53 0.33,0.02 0.99,0.07 1.32,0.1 0,-1.26 0.01,-2.51 0.02,-3.76 -2.69,-1.24 -4.98,-3.17 -6.62,-5.64 -2.65,-1.99 -4.99,-4.35 -7,-6.98 -2.3,-1.68 -4.14,-3.87 -6,-6 -1.73,-1.62 -3.4,-3.28 -5.01,-5 a 63.381,63.381 0 0 1 -7,-7 c -1.72,-1.62 -3.39,-3.28 -5.02,-4.98 -2.07,-1.94 -4.06,-3.95 -5.9,-6.1 a 75.414,75.414 0 0 1 -6.09,-5.9 c -1.71,-1.64 -3.39,-3.31 -5.03,-5.01 a 54.638,54.638 0 0 0 -6.97,-6.97 c -1.7,-1.65 -3.37,-3.32 -5,-5.03 -1.71,-1.64 -3.39,-3.3 -5.06,-4.97 -2.14,-2.51 -4.03,-5.32 -6.89,-7.08 -1.5,-2.46 -3.82,-4.18 -6,-5.97 -1.56,-1.8 -3.23,-3.48 -5.03,-5.03 -1.8,-2.18 -3.52,-4.5 -5.99,-5.99 -1.99,-2.67 -4.93,-7.72 -8.58,-4.35 m -108.72,0.53 c 1.72,6.43 4.58,12.61 5.19,19.3 11.53,-1.4 22.36,-6.06 33.72,-8.34 v -0.41 c -12.98,-3.5 -26.01,-6.75 -38.91,-10.55 m 66.28,10.99 c 11.76,1.32 22.76,6.13 34.32,8.37 0.88,-6.52 3,-12.79 4.47,-19.2 -12.95,3.53 -26.08,6.56 -38.79,10.83 m -78.76,0.84 c -5.68,6.24 -11.41,12.65 -18.21,17.68 11.39,-3.37 23.07,-5.7 34.35,-9.47 -1.99,-6.24 -4.18,-12.58 -4.88,-19.08 -3.7,3.67 -7.16,7.62 -11.26,10.87 m 119.63,-10.75 c -1.93,6.24 -2.99,12.72 -5.01,18.94 11.52,2.97 23,6.1 34.42,9.44 -6.89,-4.91 -12.55,-11.42 -18.26,-17.63 -4.07,-3.2 -7.48,-7.13 -11.15,-10.75 m -252.81,1.1 c -4.81,5.51 -9.6,11.04 -14.86,16.12 3.97,2.9 7.28,6.68 11.62,9.06 2.23,-4.26 6.55,-6.78 9.22,-10.72 1.54,-1.31 2.86,-2.92 4.67,-3.9 -3.71,-3.36 -7.19,-6.95 -10.65,-10.56 m 399.1,0.04 c -3.38,3.57 -6.86,7.07 -10.43,10.45 3.54,5.88 9.85,9.45 13.15,15.55 3.86,-3.56 8.25,-6.48 12.19,-9.95 -5.53,-4.84 -9.76,-10.87 -14.91,-16.05 m -20.32,6.22 a 59.94,59.94 0 0 0 -0.26,3.57 c 1.32,0.26 2.65,0.57 4,0.82 -1.19,-1.52 -2.5,-2.93 -3.74,-4.39 m -205.49,7.7 c -40.07,11.41 -80.67,21.02 -120.59,32.87 1.86,2.16 4.57,0.12 6.81,-0.13 41.45,-11.21 82.97,-22.13 124.35,-33.61 3.14,-0.82 6.45,-1.27 9.26,-3.03 -6.82,-0.29 -13.21,2.66 -19.83,3.9 M 297,139.26 V 140 c 6.04,-0.02 11.93,-1.78 18.02,-0.86 10.3,1.1 20.9,-1.76 30.95,1.2 l 0.03,-1.06 c -8.5,-1.21 -16.47,-5.06 -24.98,-6.2 -8.06,1.85 -15.86,4.89 -24.02,6.18 m 243.74,-2.66 c 1.63,2.09 3.04,4.6 5.52,5.8 -1.63,-2.09 -3.04,-4.6 -5.52,-5.8 m -432.39,2.5 c -5.13,5.18 -8.75,11.59 -13.53,17.06 3.97,2.95 8.4,5.35 11.86,8.93 3.38,-5.74 7.5,-11.18 12.24,-15.83 l 0.08,-1.54 c -3.8,-2.54 -7.08,-5.77 -10.65,-8.62 m 431.31,-0.01 c -3.74,3.2 -7.61,6.26 -11.54,9.22 4.06,5.54 8.44,10.86 12.2,16.61 4.34,-2.81 8.61,-5.74 13.01,-8.47 -4.5,-5.83 -8.9,-11.74 -13.67,-17.36 m -246.22,1.12 c 1.17,3.67 3.59,-2.18 0,0 m 10.87,2.25 c -16.82,2.57 -34.08,5.78 -49.35,13.48 6.35,-2.73 13.18,-4.13 19.56,-6.74 47.67,-13.04 100.7,-5.83 142.46,20.95 0.4,-0.3 0.82,-0.6 1.23,-0.9 -4.71,-2.39 -9.25,-5.1 -13.8,-7.78 -19.78,-9.5 -40.9,-16.83 -62.88,-18.76 -6.01,-2.01 -12.82,0.9 -18.53,-1.73 -5.77,2.68 -12.6,-0.26 -18.69,1.48 m 3.84,2.29 c 0.89,3.76 1.85,7.57 1.89,11.46 2.04,-2.13 5.22,-0.98 7.83,-1.22 1.3,-3.23 2.43,-6.55 3.3,-9.93 -4.34,-0.05 -8.69,-0.05 -13.02,-0.31 m 16.68,0.31 a 75.83,75.83 0 0 0 3.28,9.85 c 2.66,-0.21 5.24,0.4 7.67,1.46 0,-3.91 1.42,-7.64 1.31,-11.55 -4.09,0.15 -8.18,0.19 -12.26,0.24 m -30.94,2.06 c 1.61,3.09 0.11,7.23 2.54,9.79 3.95,0.19 7.78,-1.63 11.82,-0.98 -0.85,-3.26 -1.55,-6.55 -1.35,-9.94 -4.41,-0.32 -8.6,1.44 -13.01,1.13 m 45.29,-1.13 c 0,3.36 -0.97,6.58 -1.41,9.89 4.02,-0.49 7.82,1.48 11.8,1.01 2.42,-2.6 0.96,-6.77 2.56,-9.9 -4.39,0.49 -8.57,-1.35 -12.95,-1 M 549.36,147 c -0.55,1.24 1.26,2.99 2.48,2.78 0.37,-1.27 -1,-3.49 -2.48,-2.78 m -270.56,3.32 c 1.01,3.22 2.31,6.39 2.5,9.8 4.35,-0.99 8.76,-2.77 13.27,-1.74 -2.56,-2.83 -1.6,-7.08 -2.87,-10.51 -4.3,0.82 -8.56,1.88 -12.9,2.45 m 75.52,-2.54 c -0.87,3.36 -1,6.87 -2.1,10.16 4.25,0.11 8.32,1.52 12.5,2.18 0.06,-2.97 1.05,-5.78 2.31,-8.44 -0.37,-0.35 -1.09,-1.06 -1.45,-1.42 -3.83,-0.48 -7.48,-1.77 -11.26,-2.48 M 322.39,149 c -12.51,39.44 -25.72,78.66 -38.46,118.01 -41.44,0.01 -82.89,-0.09 -124.33,0.06 33.44,24.11 66.72,48.5 100.47,72.2 -12.66,40.01 -25.05,80.12 -38.29,119.94 32.38,-23.76 64.9,-47.33 97.17,-71.25 1.31,-0.76 2.69,-1.39 4.05,-2.06 16.98,10.27 32.2,23.37 48.8,34.29 17.24,12.99 35.14,25.04 52.26,38.16 -12.84,-39.57 -25.62,-79.2 -38.22,-118.86 33.66,-24.27 66.95,-49.1 100.58,-73.4 -28.15,-0.18 -56.3,-0.03 -84.44,-0.28 -13.1,2.41 -26.59,0.65 -39.88,1.21 C 349.12,227.74 336.25,188.41 323.61,149 h -1.22 m -91.82,8.27 c -4.63,6.16 -10.97,10.77 -15.77,16.78 13.41,-9.92 28.07,-18.15 43.69,-23.97 -9.48,1.71 -18.43,5.55 -27.92,7.19 m 33.7,-2.03 c 1.13,2.95 2.09,5.96 3.16,8.94 3.89,-1.2 7.7,-2.72 11.68,-3.62 -0.56,-3.26 -1.42,-6.46 -2.39,-9.62 -4.23,1.19 -8.3,2.86 -12.45,4.3 m 104.86,-4.04 c -0.88,3.17 -1.74,6.36 -2.28,9.61 3.41,1.52 7.06,2.31 10.65,3.28 1.22,-2.77 2.36,-5.58 3.55,-8.36 -0.35,-0.37 -1.04,-1.11 -1.38,-1.48 -3.69,-0.28 -7.15,-1.69 -10.54,-3.05 m 26.41,1.67 c 12.34,6.26 24.55,12.78 35.65,21.14 -4.13,-5.35 -9.92,-9.27 -13.79,-14.78 -7.06,-2.87 -14.73,-3.69 -21.86,-6.36 m 28.33,1.93 c 0.52,0.9 1.03,1.8 1.55,2.71 1.09,0.7 2.16,1.43 3.23,2.17 33.72,8.98 67.35,18.36 101.06,27.38 5.07,1.38 10.15,3.58 15.53,2.92 -1.27,7.6 -4.61,14.87 -4.35,22.68 3.23,-7.36 4.55,-15.37 7.06,-22.97 -0.32,-0.36 -0.97,-1.08 -1.29,-1.43 -40.96,-11.02 -82.07,-21.6 -122.79,-33.46 m 130.93,-0.2 c 3.15,5.1 6.6,10.08 10.29,14.82 -2.95,-5.21 -5.98,-10.62 -10.29,-14.82 m -302.37,1.62 c 1.26,3.59 3.68,-2.09 0,0 m -2.32,4.93 c 1.67,2.94 3.19,5.97 4.38,9.13 0.54,-0.7 1.07,-1.41 1.62,-2.1 3.08,-0.92 6.17,-1.96 8.95,-3.59 -0.41,-2.53 -1.79,-4.77 -2.48,-7.23 -0.32,-0.36 -0.97,-1.07 -1.29,-1.43 -3.83,1.5 -7.58,3.21 -11.18,5.22 m 133.39,-5.26 c -1.44,3.11 -2.75,6.29 -3.68,9.6 3.8,0.91 7.21,2.92 10.84,4.3 1.3,-3.19 2.89,-6.26 4.51,-9.3 -4.04,-1.11 -7.93,-2.72 -11.67,-4.6 m -290.03,2.22 c -3.42,6.69 -8.92,12.16 -11.74,19.15 4.27,2.17 8.27,4.82 12.62,6.84 2.94,-6.55 8.05,-11.86 10.98,-18.39 -4.42,-1.76 -7.8,-5.22 -11.86,-7.6 m 129.09,1.15 c -2.66,1.72 -4.93,3.9 -6.89,6.38 a 139.74,139.74 0 0 1 -5.05,4.99 57.688,57.688 0 0 1 -6.99,6.99 c -1.62,1.72 -3.28,3.39 -4.98,5.03 -1.64,1.7 -3.31,3.36 -5.03,4.98 a 59.247,59.247 0 0 1 -6.99,7 c -1.62,1.72 -3.29,3.38 -5.01,5 -1.86,2.13 -3.71,4.3 -5.97,6.01 -3.86,4.13 -7.88,8.15 -12.01,12 -1.44,1.9 -3.12,3.61 -5.07,4.99 -1.98,2.63 -4.31,5 -6.94,6.99 a 24.23,24.23 0 0 1 -5,5.01 c -1.4,1.76 -2.95,3.38 -4.55,4.96 0.43,0.45 0.87,0.9 1.31,1.36 1.58,-1.61 3.21,-3.17 4.98,-4.58 1.69,-2.3 3.87,-4.13 6.03,-5.96 1.83,-2.17 3.68,-4.35 5.96,-6.05 1.71,-2.27 3.88,-4.12 6.01,-5.98 4.07,-3.94 7.69,-8.32 12,-12.01 1.62,-1.71 3.28,-3.39 4.98,-5.02 1.63,-1.7 3.31,-3.37 5.03,-4.98 2.13,-2.53 4.46,-4.86 6.99,-6.99 a 124.3,124.3 0 0 1 4.98,-5.03 c 1.65,-1.7 3.31,-3.38 4.98,-5.05 2.51,-2.14 5.32,-4.03 7.08,-6.89 2.47,-1.5 4.2,-3.82 5.94,-6.06 2.24,-1.77 4.62,-3.48 6.03,-6.03 1.12,-0.71 2.23,-1.44 3.34,-2.18 -1.71,0.42 -3.43,0.82 -5.16,1.12 m 24.76,-1.05 c -4,4.23 6.75,-1.26 0,0 m 36.62,4.94 c -12.8,2.43 -24.58,8.09 -36.38,13.33 -4.91,3.36 -10.91,5.23 -15,9.7 8.3,4 14.59,11.12 22.64,15.58 12.68,9.69 26.03,18.42 38.56,28.29 7.4,-24.24 15.78,-48.34 23.59,-72.49 -11.09,2.09 -22.53,2.13 -33.41,5.59 m 44.74,-5.69 c 6.54,20.6 13.6,41.11 20.1,61.74 1.67,3.86 3.25,7.85 3.61,12.1 20.53,-14.6 40.21,-30.41 60.72,-45.04 -22.83,-14.75 -48.89,-25 -76.13,-27.24 -2.87,0.23 -5.55,-0.95 -8.3,-1.56 m 223.99,1.6 c -3.14,3.2 -7.34,5 -10.86,7.73 4.27,5.78 7.81,12 11.46,18.18 2.56,-1.76 5.14,-3.6 8.17,-4.47 1.73,-1.13 3.56,-2.11 5.46,-2.94 -3.72,-6.25 -8.2,-12.06 -11.46,-18.57 -0.93,0.02 -1.85,0.04 -2.77,0.07 m -336.43,2.17 c 0.57,0.57 0.57,0.57 0,0 m 26.03,-0.03 c 0.41,3.26 2.93,-1.65 0,0 m -64.54,9.93 c 5.15,5.03 10.2,10.15 15.26,15.26 0.01,-0.47 0.01,-1.43 0.01,-1.91 2.43,-2.39 4.76,-4.9 7.36,-7.11 1.62,-1.72 3.29,-3.39 5.02,-5 1.87,-2.14 3.69,-4.34 6.03,-5.99 1.22,-1.55 2.52,-3.04 3.79,-4.55 -12.62,2.55 -24.75,7.44 -37.47,9.3 m 61.47,-9.06 c 0.44,3.25 2.92,-1.67 0,0 m -3.4,6.66 c 1.82,2.29 3.2,4.86 4.56,7.44 3.91,-1.94 7.78,-3.98 11.78,-5.74 -1.5,-2.82 -2.76,-5.78 -4.52,-8.46 -4.16,1.8 -8.56,3.52 -11.82,6.76 m 161.6,-6.78 a 45.386,45.386 0 0 0 -4.43,8.7 c 3.49,2.32 7.67,3.48 10.84,6.3 1.49,-3.03 3.28,-5.9 5.2,-8.68 -3.99,-1.89 -7.42,-4.85 -11.61,-6.32 m 32.84,0.28 c 0.57,0.56 0.57,0.56 0,0 m 1.81,0.61 c 0.01,0.37 0.01,1.12 0.01,1.49 2.46,1.7 4.58,3.81 6.58,6.02 1.7,1.64 3.37,3.3 5.01,5 1.7,1.63 3.37,3.31 4.98,5.05 1.84,1.98 3.9,3.73 5.94,5.5 4.48,-4.72 9.13,-9.26 13.74,-13.84 -12.36,-1.52 -24.1,-6.47 -36.26,-9.22 m -201.5,4.98 c 3.14,-1.14 6.21,-2.55 8.86,-4.61 -3.14,1.13 -6.23,2.52 -8.86,4.61 m -1.33,0.34 c 0.56,3.22 2.86,-1.75 0,0 M 99.99,188.04 c -0.81,-0.1 -2.44,-0.3 -3.25,-0.39 4.4,15.05 8.19,30.28 12.56,45.35 h 2.55 c -4.02,-12.35 -7.08,-25.03 -10.41,-37.6 -0.78,-2.08 -0.17,-4.26 0.28,-6.33 22.97,-4.53 45.37,-12.23 68.28,-17.37 v -2.48 c -23.29,6.43 -46.69,12.51 -70.01,18.82 m 124.77,-12.23 c 1.57,2.54 3.44,4.86 5.06,7.36 3.08,-1.75 5.61,-4.42 9.05,-5.56 -2.19,-2.55 -3.75,-5.57 -5.18,-8.59 -2.86,2.45 -6.49,3.84 -8.93,6.79 m 185.55,-6.63 c -1.18,2.97 -2.6,5.83 -4.16,8.62 3.49,2.05 6.84,4.32 10.4,6.24 1.8,-2.59 3.37,-5.35 5.35,-7.82 -3.53,-2.87 -7.56,-4.98 -11.59,-7.04 m -184.07,1 c 0.55,3.23 2.87,-1.73 0,0 m 338.93,-0.15 c -0.3,1.49 1.04,3.85 2.66,3.94 0.27,-1.5 -1.03,-3.87 -2.66,-3.94 m -483.55,1.01 c -1.18,1.19 -3.16,2.99 -2.6,4.83 1.4,-0.4 3.89,-3.36 2.6,-4.83 m 336.73,-0.45 c 10.26,7.3 20.06,15.22 29.22,23.84 2.44,3.16 5.18,6.18 8.53,8.39 -7.15,-9.87 -17.12,-17.59 -26.58,-25.27 -3.75,-2.28 -6.84,-5.76 -11.17,-6.96 m -195.11,1.59 c 0.52,3.23 2.89,-1.72 0,0 m -116.67,18.23 c 0.83,1.15 1.82,2.22 3.14,2.83 15.8,9.07 31.75,17.93 47.05,27.84 3.57,-15.87 8.2,-31.48 12.48,-47.17 -20.85,5.65 -41.64,11.63 -62.67,16.5 m 69.69,-14.93 c -2.57,12.13 -6.61,23.91 -9.34,36.02 1.47,-1.71 2.9,-3.46 4.39,-5.16 1.66,-1.68 3.34,-3.35 5.04,-4.98 1.64,-1.71 3.3,-3.39 5.01,-5.02 2.16,-1.84 4.22,-3.78 6.02,-5.98 0.84,-0.7 1.69,-1.38 2.57,-2.03 0.01,-0.45 0.04,-1.33 0.05,-1.77 -4.26,-4.12 -8.46,-8.3 -12.55,-12.59 l -1.19,1.51 m 279.45,12.63 c 1.98,0.99 3.48,2.63 4.96,4.24 2.09,2.55 4.44,4.86 6.97,6.99 1.7,1.64 3.38,3.31 5.06,4.99 2.33,2.5 4.02,5.93 7.49,7.03 -3.09,-12.6 -7.37,-24.95 -9.47,-37.77 -5.6,4.16 -10.1,9.6 -15.01,14.52 m 18.5,-8.25 c 7.65,28.97 15.36,57.93 23.09,86.88 0.47,0.49 1.4,1.47 1.87,1.96 -5.51,-24.01 -12.69,-47.58 -18.49,-71.52 -2.13,-7.91 -5.15,-15.66 -5.95,-23.85 -3.12,1.09 -1.07,4.38 -0.52,6.53 m -254.96,-4.62 c 0.56,0.57 0.56,0.57 0,0 m 257.66,-0.42 c 3.51,14.66 8.48,28.97 11.33,43.78 0.43,0.41 1.3,1.23 1.74,1.64 16.15,-10.32 33.3,-19.23 50.41,-27.9 -21.17,-5.79 -42.45,-11.29 -63.48,-17.52 m 91.38,0.34 c -0.76,4.78 4.32,0.97 0,0 m -357.04,1.08 c 0.56,0.57 0.56,0.57 0,0 m 10.98,-0.13 c -3.61,2.38 3.31,2.03 0,0 m 212.02,0.12 c 0.56,0.57 0.56,0.57 0,0 m -358.24,4.62 c 1.49,-0.5 2.99,-2.89 2.93,-4.54 -1.53,0.46 -3.27,2.82 -2.93,4.54 m 4.13,-1.81 c -3.02,5.47 -5.68,11.12 -8.72,16.56 -0.37,1.1 -0.76,2.21 -1.18,3.31 4.38,2.21 8.65,4.67 13.26,6.37 2.04,-6.77 5.85,-12.85 9.84,-18.62 -4.36,-2.61 -8.83,-5.03 -13.2,-7.62 M 213,183.37 c 0,0.5 0.01,1.52 0.01,2.03 1.64,1.71 3.2,3.51 4.99,5.08 v 1.87 c 1.03,-1.01 2.07,-2.01 3.11,-3.01 -0.65,-3.74 -2.31,-7.4 -1.79,-11.27 -1.71,2.2 -3.86,3.98 -6.32,5.3 m 357.11,-4.76 c -0.45,1.36 0.03,2.03 1.43,2.02 0.37,-1.38 -0.11,-2.06 -1.43,-2.02 m -142.77,1.29 c -1.16,3.45 -2.33,6.89 -3.46,10.34 1.34,0.83 2.65,1.71 3.93,2.65 1.75,-2.71 3.25,-6.08 6.37,-7.41 -2.37,-1.75 -4.63,-3.64 -6.84,-5.58 m 127.47,6.83 c 1.24,3.41 2.83,6.71 4.94,9.68 1.11,3.44 2.85,6.63 4.55,9.8 0.62,-0.67 1.24,-1.34 1.87,-2 3.28,-0.89 6.2,-2.76 9.51,-3.6 0.87,-0.85 1.74,-1.71 2.62,-2.57 -4.49,-5.44 -6.01,-12.88 -10.87,-18.19 -4.26,2.21 -8.59,4.26 -12.62,6.88 m 17.63,-4.35 c -0.38,1.39 0.11,2.06 1.45,2.01 0.41,-1.36 -0.07,-2.03 -1.45,-2.01 m -498.29,0.83 c -1.74,2.86 3.23,0.56 0,0 m 279.68,50.31 c 2.83,9.99 6.05,19.95 9.67,29.67 18.98,-27.08 38.79,-53.56 57.78,-80.64 -22.12,17.45 -45.02,33.92 -67.45,50.97 M 207.22,184.16 c 0.55,3.23 2.88,-1.74 0,0 m 17.57,-1.31 c 18.77,27.11 38.8,53.37 57.74,80.38 3.69,-10.17 6.62,-20.61 10.56,-30.68 -22.4,-17.08 -45.68,-32.94 -68.3,-49.7 m 140.08,82.18 c 10.95,0.03 21.9,0.13 32.85,0.15 2.59,-12.92 8.08,-25.13 11.5,-37.86 5.09,-14.57 9.44,-29.41 14.84,-43.85 -20.13,26.86 -39.29,54.5 -59.19,81.56 M 222.33,183.56 c 8.33,27.25 17.73,54.18 26.05,81.44 11.02,0.03 22.03,-0.05 33.05,0.05 -6.51,-7.39 -11.44,-16.08 -17.8,-23.65 -13.39,-19.55 -28.06,-38.2 -41.3,-57.84 m 351.83,2.17 c 0.58,0.58 0.58,0.58 0,0 m -373.11,8.8 c 2.21,2.05 4.34,4.18 6.39,6.38 3.42,-1.98 6.02,-4.98 8.74,-7.79 -1.45,-2.66 -3.48,-4.91 -5.6,-7.05 -3.74,2.14 -6.43,5.56 -9.53,8.46 m -128.74,-6.8 c 0.57,0.58 0.57,0.58 0,0 m 356.77,7 c 3.58,1.74 6.14,4.84 8.94,7.55 2.31,-2.25 4.58,-4.55 6.94,-6.75 -3.05,-2.87 -5.94,-5.9 -8.85,-8.9 -2.74,2.35 -4.96,5.18 -7.03,8.1 m 145.96,-7.41 c -1.32,3.17 3.25,-0.15 0,0 m -503.72,2.41 c 0.57,0.58 0.57,0.58 0,0 m 23.17,0.14 c -7.71,16.31 -16.27,32.51 -20.64,50.08 10.25,-4.72 21.75,-6.58 32.94,-6.95 -3.87,-13.78 -7.48,-27.67 -11.08,-41.51 l -1.22,-1.62 m -26.08,6.82 c 1.29,-1.45 2.61,-3.57 2.51,-5.55 -1.36,0.91 -3.94,3.97 -2.51,5.55 m 508.76,-4.96 c 0.57,0.58 0.57,0.58 0,0 m -474.4,0.16 c 3.53,13.27 7.7,26.43 10.44,39.87 1.29,0.8 2.58,1.58 3.87,2.38 7.86,-0.66 15.58,1.99 22.88,4.64 0.8,-1.13 1.6,-2.26 2.36,-3.4 2.1,-1.19 3.8,-2.94 5.08,-4.98 2.96,-1.78 4.92,-4.68 6.94,-7.4 h 2.27 c -17.94,-10.38 -35.89,-20.75 -53.84,-31.11 m 102.87,16.73 c -14.71,15.15 -25.53,33.61 -33.36,53.14 1.1,1.07 2.2,2.15 3.29,3.24 h 70.52 c -7.56,-24.09 -15.82,-47.96 -23.12,-72.13 -6.35,4.5 -11.85,10.22 -17.33,15.75 m 372.39,-15.3 c -1.33,3.16 3.25,-0.14 0,0 m -155.6,2.12 c -7.52,23.25 -16.02,46.35 -22.57,69.84 2.36,-0.42 4.66,-1.34 7.09,-1.32 22.08,0.06 44.16,0.06 66.25,0.01 -3.06,-8.06 -7.16,-15.62 -10.66,-23.43 -10.3,-17.63 -23.73,-33.27 -39.14,-46.59 -0.24,0.38 -0.73,1.12 -0.97,1.49 m 92.11,13.05 c -2.15,1.4 -4.42,2.6 -6.65,3.85 0.78,3.24 1.86,6.64 -0.16,9.7 1.5,4.39 3.37,9.16 7.47,11.75 5.38,3.75 7.21,10.86 6.72,17.1 1,2.11 1.81,4.3 2.73,6.46 3.98,-16.74 5.83,-33.98 10.46,-50.53 -0.06,-1.47 -0.1,-2.94 -0.14,-4.4 0.69,0.81 1.37,1.63 2.05,2.46 -0.2,-0.92 -0.61,-2.76 -0.82,-3.68 l 2.14,0.01 c 0.19,2.77 0.44,5.56 1.24,8.24 -1.7,-5.55 1.18,-10.47 2.49,-15.72 -9.48,4.3 -18.01,10.57 -27.53,14.76 M 199.51,196.04 c -2.86,3.07 -5.9,5.96 -8.86,8.93 1.98,2.02 4.23,3.78 6.1,5.93 0.45,0.03 1.36,0.08 1.82,0.11 2.33,-2.96 4.67,-5.92 7.33,-8.59 -2.21,-2.05 -4.34,-4.17 -6.39,-6.38 m -132.34,1.19 c -1.73,2.88 3.23,0.52 0,0 m 379.31,-0.2 c -2.2,2.36 -4.5,4.62 -6.74,6.93 2.83,2.7 5.39,5.67 7.49,8.98 2.91,-2.06 5.75,-4.23 8.02,-7 -3.25,-2.61 -5.73,-6.05 -8.77,-8.91 m 133.58,0.27 c -1.33,3.17 3.24,-0.14 0,0 m -513.9,2.44 c 0.58,0.58 0.58,0.58 0,0 m 2.98,1.32 c -3.08,6.34 -5.89,12.95 -8.18,19.54 4.4,2.16 8.86,4.29 13.61,5.6 1.98,-6.42 4.69,-12.57 7.5,-18.66 -4.4,-1.97 -8.71,-4.15 -12.93,-6.48 m 495.75,6.33 c 2.36,6.36 5.88,12.24 7.49,18.89 3.4,-4.75 5.62,-14.02 12.36,-13.72 -2.42,-3.58 -3.65,-7.79 -5.88,-11.49 -4.47,2.5 -9.04,4.87 -13.97,6.32 m 17.24,-6.09 c -0.41,1.32 0.21,3.97 1.73,4.1 0.33,-1.33 -0.32,-3.87 -1.73,-4.1 M 64.4,203.06 c -1.14,0.94 -2.42,4.01 -0.82,4.8 0.54,-1.23 2.28,-3.98 0.82,-4.8 m 123.77,0.17 c -1.75,2.86 3.23,0.55 0,0 m 269.02,0.87 c 7.64,10.91 16.43,22.05 22.53,34.32 2.97,7.86 7.67,15.09 9.63,23.33 0.45,0.36 1.35,1.09 1.81,1.46 -7.56,-21.5 -18.32,-42.41 -33.97,-59.11 m 126.97,2.63 c 0.58,0.58 0.58,0.58 0,0 M 188.38,208 c -1.94,2.68 -3.86,5.41 -6.36,7.61 0,0.43 0,1.29 -0.01,1.72 2.47,1.57 4.76,3.41 7.25,4.94 2.26,-2.81 4.34,-5.77 7,-8.23 -1.92,-2.02 -3.88,-4.01 -5.78,-6.04 h -2.1 M 449,214.28 c 2.41,3.49 4.8,7.05 7.89,9.98 2.6,-2.01 5.1,-4.21 8.06,-5.68 -2.84,-3.52 -5.77,-6.98 -8.37,-10.7 -2.17,2.53 -4.53,4.96 -7.58,6.4 m 86.68,-7.38 c 0.63,5.85 -1.32,11.52 -2.55,17.17 -2.11,11.95 -3.12,24.56 -7.46,35.89 0.07,1.97 0.87,4.18 -0.52,5.93 -0.18,1.69 -0.05,3.49 -0.98,5 -0.18,1.79 -0.23,3.65 -1.15,5.25 -0.02,1.23 -0.03,2.46 -0.02,3.69 4.5,-2.1 9.42,-1.87 14.22,-1.21 -0.46,-22.53 -0.07,-45.08 -0.19,-67.61 0,-1.5 -0.45,-2.87 -1.35,-4.11 m 49.4,1.39 c -1.34,3.16 3.26,-0.11 0,0 m -522.83,0.45 c 0.58,0.58 0.58,0.58 0,0 m 115.45,1.34 c -2.06,2.79 -4.86,4.89 -7.15,7.47 -2.51,2.27 -4.65,4.92 -7.26,7.09 -1.61,6.65 -3.62,13.19 -5.36,19.81 6.23,-11.99 12.17,-24.37 21.33,-34.47 -0.39,0.02 -1.17,0.07 -1.56,0.1 m 289.07,-0.1 c 10.16,11.57 16.85,25.71 23.31,39.54 -1.21,-7.46 -4.37,-14.46 -5.31,-21.98 -1.11,-1.32 -2.2,-2.66 -3.36,-3.93 a 74.31,74.31 0 0 1 -5.04,-5 c -2.74,-2.8 -5.85,-5.26 -8.03,-8.55 l -1.57,-0.08 m -405.54,1.75 c 0.59,0.58 0.59,0.58 0,0 m 419.03,0.51 c 0.57,0.56 0.57,0.56 0,0 m -420.11,0.99 c -1.72,2.88 3.25,0.5 0,0 m 478.62,65.39 c 4.95,-1.01 10,-0.45 14.57,1.72 -2.99,-8.32 -4.3,-17.46 -5.48,-26.27 -1.27,-4.97 -2.39,-10.03 -2.88,-15.14 -2.6,-8.62 -4.17,-17.58 -5.2,-26.52 -2.01,21.85 0,44.18 -1.01,66.21 m 48.39,-65.4 c -0.55,1.43 0.12,4.24 1.67,4.57 0.53,-1.44 -0.16,-4.23 -1.67,-4.57 m -97.51,9.27 c 1.31,0.97 2.64,1.94 4.02,2.84 0.89,1.36 1.84,2.68 2.81,3.99 1.58,-4.28 2.69,-9.22 6.77,-11.88 l -0.36,-2.5 c -4.12,3.02 -8.8,5.08 -13.24,7.55 M 59.11,215.74 c -1.53,3.11 3.21,0.27 0,0 m 445.75,5.33 c 0.36,3.83 -0.24,7.75 0.48,11.53 2.57,4.68 7.6,8.01 8.26,13.72 -0.1,5.9 0.41,11.8 0.51,17.71 1.19,5.24 4.33,9.71 6.74,14.44 0.6,-4.91 0.86,-10.31 3.59,-14.55 -0.5,-2.2 -1.11,-4.37 -1.46,-6.6 -0.48,-0.37 -1.45,-1.11 -1.93,-1.48 -1.6,-5.33 -0.9,-11.23 -3.79,-16.18 -1.86,-4.7 -8.05,-5.65 -9.42,-10.63 -0.89,-3.17 -3.46,-7.37 -0.49,-10.13 -0.04,-0.93 -0.13,-2.78 -0.18,-3.7 -0.81,1.94 -1.45,3.95 -2.31,5.87 m 61.59,11.33 c -6.56,2.7 -7.92,9.58 -9.48,15.67 0.59,5.31 -1.93,10.43 -6.05,13.7 1.7,5.42 3.44,11.24 2.75,16.99 4.84,-4.21 7.39,-10.16 10.29,-15.71 -0.04,-1.94 -0.23,-4.04 1.62,-5.27 -4.42,-9.93 0.58,-22.56 11,-26.18 3.39,-4.25 4.69,-9.72 4.46,-15.08 -4.05,5.84 -6.74,14.28 -14.59,15.88 m 16.85,-14.97 c -0.49,5.06 -1.06,10.49 -4.16,14.72 -2.67,4.13 -9.48,4.04 -10.7,9.3 -1.23,3.73 -2.27,7.54 -3.05,11.39 2.54,1.61 1.83,4.95 0.81,7.27 -0.48,6.14 -3.32,12.17 -7.98,16.24 6.12,-2.12 10.76,-7.07 16.78,-9.55 0.59,-8.44 -4.76,-17.09 -0.71,-25.29 7.69,-5.06 11.65,-15.22 9.01,-24.08 m 3.03,0.91 c -2.48,4.81 3.24,2.46 0,0 m -528.08,0.4 c 0.58,0.57 0.58,0.57 0,0 m 122.11,0.29 c -3.18,3.28 -5.11,7.46 -7.52,11.28 2.81,1.7 5.65,3.35 8.56,4.85 1.45,-4.03 4.03,-7.42 6.59,-10.8 -2.66,-1.61 -5.07,-3.57 -7.63,-5.33 m 408.86,-0.29 c 0.58,0.57 0.58,0.57 0,0 m -532,2.99 c 0.58,0.58 0.58,0.58 0,0 m 407.45,-0.67 c -1.99,1.97 -4.29,3.56 -6.54,5.19 1.63,3.06 3.44,6.01 5.34,8.91 2.99,-1.42 5.84,-3.1 8.67,-4.82 -1.55,-3.35 -3.72,-6.33 -5.83,-9.33 -0.41,0.01 -1.23,0.03 -1.64,0.05 m 34.06,6.94 c -0.18,6.14 0.82,12.64 4.53,17.71 2.69,3.12 2.19,7.74 0.94,11.38 -0.26,4.2 -1.53,8.29 -1.21,12.53 1.51,0.95 3.02,1.92 4.52,2.93 3.92,1.06 7.06,3.78 10.59,5.66 -3.25,-3.74 -4.51,-8.55 -6.06,-13.13 0.86,-5.37 -0.29,-10.76 -0.08,-16.15 -0.03,-7 -8.28,-10.13 -8.79,-16.95 0.05,-3.82 0.1,-7.63 -0.25,-11.43 -1.33,2.52 -2.58,5.09 -4.19,7.45 m 91.32,-6.7 c -1.37,3.14 3.26,-0.08 0,0 M 56.1,223.71 c -1.54,3.09 3.21,0.28 0,0 m 3.92,-0.5 c -2.81,6.88 -4.78,14.02 -6.98,21.1 0.33,0.36 1,1.08 1.34,1.44 5.82,2.62 10.98,-1.39 15.31,-4.95 0.97,-4.31 2.49,-8.46 4.05,-12.57 -4.62,-1.55 -9.09,-3.49 -13.72,-5.02 m 113.14,0.01 c -1.76,2.85 3.24,0.56 0,0 m 414.25,-0.87 c -1.65,3.95 -2.41,8.18 -3.51,12.29 -1.78,2.54 -3.66,5 -5.98,7.07 0.61,2.58 1.38,5.19 0.77,7.87 4.7,-3.33 11.07,-2.61 16.32,-4.85 -2.04,-7.62 -4.42,-15.16 -7.6,-22.38 m 3.83,2.38 c 0.58,0.58 0.58,0.58 0,0 m -536.07,1.64 c -0.89,1.17 -0.67,1.92 0.65,2.25 0.88,-1.18 0.66,-1.93 -0.65,-2.25 m 537.03,2.22 c 1.31,-0.32 1.53,-1.07 0.66,-2.24 -1.33,0.32 -1.55,1.06 -0.66,2.24 m -101.21,-1.67 c 0.01,0.59 0.04,1.77 0.05,2.36 1.25,1.35 2.47,2.74 3.54,4.26 0.82,0.5 1.64,1.01 2.46,1.53 -0.03,-0.59 -0.08,-1.76 -0.11,-2.34 -0.86,-1.05 -1.68,-2.11 -2.48,-3.2 -1.18,-0.84 -2.32,-1.72 -3.46,-2.61 m -320.7,1.81 c 0.58,0.58 0.58,0.58 0,0 m -17.97,16.08 1.92,1.6 c 3.48,-5.3 3.52,-11.99 5.5,-17.88 -5.55,3.56 -5.31,10.69 -7.42,16.28 M 54.1,229.74 c -1.53,3.11 3.22,0.27 0,0 m 115.11,0.51 c -1.72,2.88 3.26,0.51 0,0 m 424.05,-0.01 c 0.55,0.57 0.55,0.57 0,0 m -422.18,1.73 c -1.99,3.96 -3.84,7.98 -5.98,11.87 3.06,1.64 6.14,3.28 9.43,4.43 0.57,-1.62 1.14,-3.23 1.66,-4.85 1.42,-1.99 2.57,-4.14 3.77,-6.26 -3.09,-1.5 -6.02,-3.29 -8.88,-5.19 m 292.87,5.39 c 3.14,3.16 4.56,7.53 6.38,11.5 2.84,-1.65 5.78,-3.12 8.8,-4.44 -0.34,-4.88 -4.02,-8.47 -6.01,-12.71 -2.76,2.32 -5.68,4.58 -9.17,5.65 m 129.91,-5.4 c 0.38,3.45 1.34,6.85 2.92,9.95 -0.01,-3.39 -2.1,-6.44 -2.03,-9.88 l -0.89,-0.07 M 53.1,232.74 c -1.53,3.11 3.21,0.26 0,0 m 29.07,6.51 c -3.64,1.63 -8.87,1.47 -10.61,5.69 -4.05,-0.41 -7.69,1.9 -10.05,5.02 -0.48,0.05 -1.42,0.13 -1.89,0.17 -5.19,3.61 -9.49,8.28 -14.2,12.46 -11.5,13.04 -19.79,29.43 -21.45,46.87 1.28,-1.28 2.46,-2.65 3.42,-4.18 3.49,-2.36 7.2,-5.38 11.7,-4.06 0.48,-0.43 1.43,-1.29 1.91,-1.73 0.48,0.43 1.43,1.29 1.91,1.72 4.52,-1.31 8.21,1.76 11.75,4.06 1.83,2.69 4.06,5.16 5.25,8.24 -0.23,6.64 1.5,14.48 -4.82,18.98 -0.03,0.56 -0.07,1.68 -0.1,2.24 -8.54,3.97 -19.9,5.59 -27.61,-1 -0.95,-1.47 -2.03,-2.84 -3.18,-4.16 -0.22,2.08 -0.4,4.16 -0.52,6.25 1.91,2.77 2.4,6.14 3.36,9.29 4.83,17.1 15.98,32.01 29.96,42.77 5.3,3.06 10.03,8.39 16.59,8.17 1.41,3.81 6.14,3.45 9.3,4.92 20.06,6.86 42.78,4.99 61.55,-4.65 9.79,-4.68 19.51,-10.99 25.89,-19.94 3.22,-1.93 5.41,-4.99 7.52,-7.99 l 0.2,-1.87 c 7.49,-7.9 10.43,-19.22 13.15,-29.51 L 190.38,337 c -2.79,10.86 -8.97,20.66 -16.75,28.63 -4.84,4.7 -10.69,8.08 -15.98,12.17 -8.5,3.05 -17.18,5.33 -26.08,6.84 -4.49,-1.3 -9.23,0 -13.72,-1.18 -20.22,-3.11 -38.55,-16.3 -47.75,-34.54 -5.75,-9.86 -6.65,-21.58 -7.9,-32.61 l 0.64,-1.2 c 0.66,-7.79 2.68,-15.36 5.35,-22.69 4.12,-7.14 8.16,-14.28 14.18,-20.05 4.54,-4.32 9.85,-7.63 15,-11.15 19.76,-10.17 44.61,-9.96 63.72,1.62 3.25,2.57 7.43,2.35 11.33,2.1 -1.02,-0.79 -2.06,-1.55 -3.11,-2.29 -2.94,-4.8 -7.43,-9.22 -12.91,-10.91 -3.23,-4.68 -9,-7.12 -14.23,-8.94 -0.35,-0.39 -1.05,-1.16 -1.4,-1.54 -0.75,0.33 -1.49,0.66 -2.23,0.98 -1.19,-3.07 -5.07,-2.81 -7.69,-3.91 -7.38,-1.17 -14.88,-4.46 -22.35,-2.76 -8.84,-1.55 -17.81,1.39 -26.33,3.68 m 84.21,-4.13 c -0.98,0.82 -1.81,2.46 -1.21,3.71 1.39,0.22 2.76,-3.34 1.21,-3.71 m -114.3,0.62 c -1.51,3.12 3.21,0.22 0,0 m 93.89,5.75 c 1.68,0.73 3.33,1.54 4.93,2.43 0.19,-2.83 0.87,-5.6 1.17,-8.42 -2.16,1.87 -3.55,4.6 -6.1,5.99 m 347.27,-5.89 c 2.05,9.53 5.48,18.77 6.95,28.4 h 0.55 c 0.43,-5.41 4.51,-11.54 0.78,-16.49 -2.77,-4.1 -3.47,-9.45 -8.28,-11.91 M 51.3,239 c -1.07,5.03 -2.65,9.95 -3.44,15.05 l 0.96,-0.16 c 0.54,-5.08 2.21,-9.92 3.34,-14.87 L 51.3,239 m 110.86,4.23 c -1.75,2.86 3.26,0.52 0,0 m 434.97,0.01 c -1.65,2.87 3.29,0.15 0,0 m -435.87,3 c 0.57,0.56 0.57,0.56 0,0 m 3.22,-0.03 c -0.76,1.24 -1.6,2.43 -2.47,3.6 0,0.43 -0.01,1.29 -0.01,1.73 2.51,2.29 5.15,4.42 7.8,6.55 1,-2.56 2.03,-5.11 3.28,-7.55 a 82.326,82.326 0 0 1 -8.6,-4.33 m 307.52,4.3 v 2.18 c 4.39,1.91 8.86,7.57 13.89,5.34 -1.96,-3.86 -3.38,-7.96 -4.95,-11.99 -2.91,1.63 -5.88,3.14 -8.94,4.47 M 575,246 c -0.9,6.55 3.01,12.52 1.93,19.07 1.02,-0.59 2.07,-1.17 3.12,-1.73 C 578.1,257.72 576.54,251.9 575.8,246 H 575 m 23.24,0.22 c -0.81,1.42 -0.32,4.51 1.59,4.59 0.16,-1.4 -0.31,-4.04 -1.59,-4.59 m -546.1,1.11 c -0.44,2.82 -1.17,5.6 -2.22,8.26 2.31,-2.56 4.8,-4.94 7.47,-7.12 -1.76,-0.32 -3.53,-0.63 -5.25,-1.14 m 527.65,2.63 c 1,3.72 2.11,7.43 2.57,11.26 5.54,-1.59 9.58,-6.13 14.76,-8.59 -0.5,-1.87 -1.02,-3.73 -1.42,-5.61 -5.26,1.17 -10.46,3.24 -15.91,2.94 m -89.54,0.29 c 0.57,0.56 0.57,0.56 0,0 m 65.63,31.11 c 4.13,1.77 7.62,4.7 10.86,7.76 0.8,-1.3 1.61,-2.6 2.54,-3.81 2.82,-1.82 5.14,-4.23 7.08,-6.96 4.05,-3.23 8.1,-6.63 11.03,-10.96 6.22,-4.87 11.5,-10.87 16.93,-16.58 -16.1,10.29 -32.35,20.18 -48.44,30.55 M 47.21,254.4 c -2.04,4.83 3.49,2.43 0,0 m 74.03,1.8 c 0.57,0.57 0.57,0.57 0,0 m 4.38,-0.2 c -1.5,1.54 -3.02,3.06 -4.58,4.54 0.48,0.47 0.97,0.94 1.45,1.42 1.88,-2.01 3.84,-3.96 5.74,-5.96 h -2.61 m 6,-0.23 c -2.79,3.08 -5.75,6 -8.76,8.88 6.87,2.03 13.67,4.75 20.86,5.41 0.14,-4.1 2.47,-7.76 2.36,-11.9 -4.85,-0.56 -9.65,-1.51 -14.46,-2.39 m -15.72,0.65 c 4.25,19.72 10.41,39.04 15.49,58.58 h 0.62 c -0.02,-2.65 0.27,-5.33 -0.33,-7.94 -4.38,-16.19 -8.95,-32.35 -13.07,-48.6 a 8.682,8.682 0 0 0 -2.71,-2.04 m -11.55,3.8 c -0.39,0.4 -1.18,1.19 -1.57,1.59 -4.92,1.05 -8.85,4.32 -12.75,7.28 -9.75,7.87 -18.29,17.99 -21.52,30.32 -2.11,4.53 -2.12,9.59 -3.86,14.21 16.46,-16.23 32.7,-32.68 49.12,-48.94 2.37,-1.68 0.02,-4.58 -0.12,-6.8 -3.08,0.85 -6.18,1.63 -9.3,2.34 m 470.26,23.39 c -1.42,1.96 -3.13,3.72 -5.21,4.99 -0.39,0.65 -0.77,1.31 -1.15,1.97 2.67,2.93 5.06,6.12 7.14,9.5 8.85,-14.52 18.28,-28.61 26.7,-43.39 -9.35,8.78 -17.87,18.44 -27.48,26.93 m -426.7,-25.05 c 0.42,3.59 -0.89,7.02 -1.92,10.39 -8.93,33.49 -17.8,67.01 -26.97,100.43 0.91,0.93 1.8,1.87 2.7,2.82 9.26,-37.31 20.08,-74.2 29.39,-111.49 -1.08,-0.7 -2.15,-1.42 -3.2,-2.15 m 338.33,1.66 c 0.57,0.57 0.57,0.57 0,0 m -3.99,1.97 c -0.41,1.55 3.07,2.97 3.53,1.35 -0.83,-0.89 -2.3,-1.88 -3.53,-1.35 m -325.17,1.21 c -0.72,3.99 3.97,-0.52 0,0 M 601.97,263 c -0.03,6.5 2.63,12.72 2.03,19.26 2.68,-6.27 -1.47,-12.79 -1.14,-19.26 h -0.89 M 65,316.55 v 4.89 c 20.27,20.1 40.41,40.32 60.54,60.56 h 2.7 C 107.77,361.31 87.11,340.81 66.55,320.21 65.32,319.36 66.16,317.83 67.11,317.2 83.47,301 99.6,284.58 116,268.42 v -2.66 C 98.9,282.6 82.1,299.73 65,316.55 m 88.07,-50.32 c -1.66,2.93 3.29,0.37 0,0 m 334.58,1.54 c 6.61,7.35 13.98,13.97 20.74,21.19 3.25,-2.99 6.71,-5.87 10.79,-7.67 -9.17,-5.47 -19.13,-9.5 -28.06,-15.35 -1.15,0.61 -2.31,1.22 -3.47,1.83 m 111.57,-1.56 c -4.44,3.05 3.65,3.27 0,0 m -476.49,0.78 c 3.98,12.65 7.45,25.48 10.66,38.36 3.94,-10.48 5.93,-21.59 9.19,-32.29 -6.44,-2.47 -13.39,-3.58 -19.85,-6.07 m 32.58,2.33 c -0.32,1.27 -0.67,2.54 -1.04,3.8 3.85,1.1 7.78,1.95 11.59,3.2 -2,-3.75 -5.9,-5.66 -8.84,-8.53 -0.42,0.39 -1.28,1.15 -1.71,1.53 m -3.16,0.92 c -1.68,2.92 3.28,0.39 0,0 m 330.92,0.78 c 2.14,5 5.55,9.37 7.41,14.47 3.04,5.17 6.13,10.32 8.82,15.68 1.78,-4.05 4.64,-7.49 7.61,-10.72 -6.98,-6.77 -13.83,-13.67 -20.62,-20.62 -1.08,0.38 -2.16,0.77 -3.22,1.19 m -366.53,-0.06 c -15.48,15.8 -31.31,31.26 -46.81,47.04 5.11,0.06 10.32,-0.56 15.27,1.07 14.99,0.39 30.03,-0.26 45.04,-0.07 -4.01,-15.53 -8.91,-30.86 -12.3,-46.54 -0.3,-0.38 -0.9,-1.13 -1.2,-1.5 M 596.25,271 c -2.38,5.03 -5.95,9.33 -8.69,14.15 l 3.34,0.12 c 1.93,-2.07 4.88,-1.09 7.37,-1.21 1.2,-0.98 2.43,-1.91 3.73,-2.76 0.21,-3.5 -0.33,-6.95 -1.29,-10.3 h -4.46 m -116,2.25 c -2.28,5.38 4.9,-0.68 0,0 m -326.35,2.03 c -1.12,3.78 -1.95,7.64 -3.09,11.42 3.63,0.95 7.46,1 10.97,2.37 0.39,-3.52 0.95,-7.07 2.16,-10.41 -0.33,-0.35 -0.99,-1.06 -1.32,-1.42 -2.97,-0.35 -5.86,-1.12 -8.72,-1.96 m 318.02,5.25 c 1.91,1.06 4.07,1.49 6.23,1.72 -0.29,-2.12 -0.77,-4.2 -1.29,-6.27 -1.52,1.6 -4.49,2.21 -4.94,4.55 M 167.26,278.4 c -1.78,9.31 -4.44,18.56 -4.54,28.08 -2.8,18.74 1.46,37.71 5.55,56.03 0.24,0.33 0.72,0.97 0.97,1.29 11.85,-5.77 16.8,-19.32 19.99,-31.28 4.18,-13.66 0.83,-28.27 -4.71,-41.01 -2.89,-6.98 -9.81,-10.49 -15.61,-14.7 -0.41,0.39 -1.24,1.19 -1.65,1.59 m 313.41,0.68 c 0.4,0.39 1.19,1.17 1.58,1.56 0.88,-0.32 1.76,-0.63 2.66,-0.92 -0.64,-1.08 -1.26,-2.17 -1.88,-3.25 -0.79,0.87 -1.58,1.74 -2.36,2.61 m 39.81,0.26 c -1.36,4.96 5.09,0.36 0,0 m 0.07,4.06 c -10.22,5.25 -17.81,14.7 -21.5,25.5 -3.37,13.06 0.07,27.75 9.52,37.51 7.58,7.82 18.33,13.39 29.43,12.59 10.42,0.91 19.97,-4.87 27.45,-11.55 2.56,-2.82 4.69,-5.99 7.14,-8.9 2.3,-6.1 4.81,-12.32 4.51,-18.97 0.72,-6.8 -2.28,-12.9 -4.48,-19.12 -2.12,-3.19 -4.66,-6.04 -7.2,-8.89 -7.48,-6.96 -17.41,-12.23 -27.85,-11.64 -5.99,-0.63 -11.47,1.62 -17.02,3.47 m -53.57,0.22 c 1.5,1.35 2.97,2.74 4.42,4.17 7.21,1.2 14.59,2.01 20.85,6.25 -2.34,-3.98 -3.07,-9.56 -7.56,-11.74 -4.59,2.69 -11.45,2.99 -15.3,-1.16 -0.8,0.83 -1.61,1.66 -2.41,2.48 m -317.84,-1.37 c -1.63,2.96 3.3,0.3 0,0 m 443.97,3.5 c -1.84,1.86 -4.53,1.17 -6.85,1.3 -1.72,3.88 -4.8,6.92 -6.58,10.76 2.35,0.21 4.73,0.39 7.11,0.45 3.41,-1.73 7.34,-2.1 10.87,-3.64 2.89,-2.77 5.76,-5.58 8.53,-8.47 3.17,-0.77 6.23,-1.93 9.34,-2.92 -7.9,-3.99 -14.64,3.78 -22.42,2.52 m -131.14,0.64 c 3.78,8.76 17.02,9.04 17.54,19.67 5.93,-1.25 11.8,-2.97 17.88,-3.4 -2.47,-4.36 -6.82,-6.84 -10.97,-9.32 -2.55,-0.69 -5.11,-1.37 -7.57,-2.31 -5.51,1.02 -10.34,-1.81 -13.55,-6.07 -1.11,0.49 -2.22,0.96 -3.33,1.43 m 138.27,9.09 c 2.67,-0.08 5.37,-0.3 7.88,-1.31 -0.05,-5.03 4.71,-6.92 8.64,-8.46 -7.1,-0.35 -12.26,4.82 -16.52,9.77 m -452.02,-8.07 c -2.22,3.61 3.68,1.05 0,0 m 460.58,7.43 c 5.68,1.73 11.06,5.27 14.2,10.39 0.79,-6.32 -1.19,-12.36 -1.28,-18.63 -4.74,2.01 -10.67,2.89 -12.92,8.24 m -187.97,21.97 c 0.53,0.2 1.6,0.62 2.14,0.83 9.72,-4.29 21.35,-4.87 31.94,-6.86 7.47,-1.38 15.1,-4.23 22.73,-3.12 -0.73,-2.18 -1.48,-4.34 -1.96,-6.59 -5.3,-4.03 -12.13,-6.61 -15.2,-12.97 -13.48,9.2 -26.19,19.48 -39.65,28.71 m -270.95,-28 c 0.75,4.44 -0.93,8.68 -0.95,13.09 3.72,-0.24 7.3,0.79 10.94,1.34 -1.08,-4.25 3.33,-9.74 -0.34,-12.96 -3.25,-0.27 -6.47,-0.77 -9.65,-1.47 m 36.34,0.65 c -0.52,0.99 0.43,3.13 1.67,2.79 0.61,-1.04 -0.33,-3.22 -1.67,-2.79 m -39.05,3 c -2.24,4.62 3.6,2.2 0,0 m -123.15,0.8 c -1.69,2.92 3.3,0.35 0,0 m 164.07,0.04 c -1.35,3.14 3.27,-0.09 0,0 m 2.84,-0.43 c 5.88,18.23 5.36,38.08 -0.71,56.19 0.27,-0.04 0.79,-0.11 1.05,-0.15 12.43,-9.91 26.23,-18.41 39.04,-28.01 -13.36,-9.02 -25.93,-19.16 -39.38,-28.03 m -1.85,3.43 c -1.39,3.12 3.28,-0.05 0,0 m -45.86,1.94 c -1.69,2.91 3.31,0.35 0,0 m 446.28,4.55 c 7.16,0.45 14.33,0.17 21.5,0.2 v 11.06 l 0.38,-0.21 c 2.36,-3.01 4.99,-5.82 6.97,-9.1 -7.31,-7.52 -21.13,-10.03 -28.85,-1.95 m -443.27,-2.51 c -0.55,1.52 -0.87,4.53 0.55,5.43 0.64,-1.51 0.93,-4.55 -0.55,-5.43 m 44.01,-0.04 c 0.56,0.57 0.56,0.57 0,0 m 390.02,-0.56 c -0.62,1.3 -1.22,2.61 -1.82,3.93 1.71,-0.28 3.43,-0.55 5.15,-0.8 0.85,-0.91 1.72,-1.82 2.59,-2.72 -1.98,-0.11 -3.95,-0.24 -5.92,-0.41 m -438,2.32 c -0.36,6.56 -3.92,12.48 -4.26,19.01 1.15,7.14 3.91,13.9 5.32,20.99 l 1.06,-0.02 c -2.95,-13.03 0.02,-26.69 -1.39,-39.98 h -0.73 M 33,304.29 V 305 h 14 c 0,3.33 0,6.67 0.01,10.01 1.33,0.02 2.65,0.04 3.98,0.07 0.01,-2.88 0.01,-5.76 0.01,-8.63 -1.62,-1.07 -3.23,-2.17 -4.75,-3.39 -4.46,-0.23 -8.95,-0.1 -13.25,1.23 M 588.01,303 c -0.01,4.67 -0.01,9.33 0,14 h 1.98 c 0.01,-4.67 0.01,-9.33 0,-14 h -1.98 M 148,305.51 c -0.29,4.48 0.16,8.99 0.01,13.49 H 159 c 0.6,-4.48 -1.56,-9.81 1.54,-13.58 -4.13,0.34 -9.22,-3.54 -12.54,0.09 m 43.25,-1.26 c 0.57,0.57 0.57,0.57 0,0 m 385.74,-0.33 c 0.54,1.81 0.97,3.66 1.12,5.56 0.38,0.41 1.14,1.22 1.52,1.62 0.68,-1.97 1.36,-3.95 2.12,-5.9 -1.61,-0.35 -3.19,-0.81 -4.76,-1.28 m -94.09,2.87 c -1.26,1.32 -3.07,1.1 -4.71,1.2 -10.5,2.83 -21.32,4.7 -32.09,6.18 -5.96,1.38 -11.97,3.36 -18.15,2.51 1.21,0.91 2.56,1.36 4.06,1.35 21.52,0.1 43.06,-0.25 64.58,0.17 -0.82,-4.46 -0.63,-9.01 1.23,-13.2 -1.24,-0.02 -2.47,-0.04 -3.7,-0.04 -3.55,1.4 -7.4,2.27 -11.22,1.83 M 594.01,307 c -0.01,3.33 -0.01,6.66 0,10 H 599 c 0,-3.34 0,-6.67 -0.01,-10 h -4.98 m 9,0 c -0.01,3.33 -0.01,6.66 0,10 h 3.98 c 0.01,-3.34 0.01,-6.67 0,-10 h -3.98 m -572,2.02 C 31,316.01 30.99,323 31.01,330 h 1.74 c 0.14,-3.24 0.92,-6.61 3.28,-8.98 2.71,0.19 5.29,-0.57 7.68,-1.79 -2.97,-0.05 -5.9,-0.48 -8.77,-1.28 -2.1,-2.59 -2.21,-5.82 -1.89,-8.99 -0.51,0.01 -1.53,0.04 -2.04,0.06 M 37.04,309 c -0.03,1.27 -0.06,2.55 -0.1,3.83 1.95,0.98 3.93,1.89 5.97,2.67 0.06,-2.17 0.09,-4.34 0.11,-6.5 h -5.98 m 18.07,0.43 c -0.28,6.34 -0.18,12.68 0.03,19.02 4.88,-5.22 3.04,-13.32 -0.03,-19.02 M 581.98,317 h 2.03 c 0,-2.5 0,-5 -0.11,-7.5 a 11.57,11.57 0 0 0 -1.92,7.5 m 32.81,0.01 c 2.78,-0.01 5.57,-0.01 8.36,-0.04 -0.38,-2.53 -1.04,-5 -1.69,-7.46 -2.4,2.34 -4.28,5.15 -6.67,7.5 m -422.56,-5.77 c 0.57,0.57 0.57,0.57 0,0 m -47.55,3.73 v 8.06 l 1.32,-0.08 c -0.01,-2.64 -0.01,-5.27 0,-7.91 l -1.32,-0.07 m -97.32,4.22 c 2.44,3.33 4.83,-2.31 0,0 m 22.23,0.66 c 15.97,15.84 31.48,32.23 47.94,47.54 3.73,-15.55 7.96,-31.01 12.32,-46.4 -13.53,-0.05 -27.08,0.16 -40.59,-0.08 -6.38,-2.01 -13.12,-0.85 -19.67,-1.06 m 359.71,1.18 c 11.7,0.63 23.4,3.34 34.8,5.96 1.72,0.11 3.59,-0.07 4.9,1.3 2.01,0.02 4.46,-1 5.91,0.95 3.81,-0.57 7.56,0.52 11.16,1.66 3.79,0.26 7.92,0.37 11.21,2.49 -1.38,-4.44 -1.28,-9.04 -0.68,-13.59 -21.2,0.41 -42.41,0.06 -63.62,0.18 -1.32,0 -2.55,0.35 -3.68,1.05 M 148.01,321 c 0.01,3.68 -0.01,7.35 -0.13,11.03 4.22,0.43 8.21,-1.44 12.41,-1.02 -2.54,-2.64 -0.87,-6.72 -1.29,-10.01 h -10.99 m 241.76,18.6 c 16.34,5.03 32.49,10.83 48.69,16.43 1.11,-4.2 4.69,-6.66 8.01,-9.05 0.77,0.04 2.31,0.11 3.07,0.14 -10.59,-9.85 -23.15,-17.49 -34.66,-26.28 -8.13,6.53 -16.65,12.64 -25.11,18.76 m 28.68,-18.65 c 11.79,7.42 22.51,16.42 33.91,24.42 2.9,-6.24 7.49,-13.6 15.52,-12.47 1.23,-0.45 2.48,-0.86 3.74,-1.24 0.54,-0.51 1.64,-1.52 2.18,-2.03 -1.99,0.12 -4.21,0.78 -5.84,-0.75 -5.77,-0.08 -11.51,-1.22 -17.06,-2.72 -10.88,-1.2 -21.57,-4.07 -32.45,-5.21 m 163.42,0.09 c 0.48,1.98 1.03,3.96 1.46,5.96 H 584 c -0.01,-2.01 -0.01,-4.02 -0.01,-6.02 -0.53,0.02 -1.59,0.05 -2.12,0.06 m 6.14,-0.04 c -0.01,4.22 -0.01,8.45 -0.01,12.67 4.11,3.4 9.27,4.55 14.06,6.51 4.92,-1.92 10.46,-2.67 14.7,-6.32 -0.85,-1.73 -1.63,-3.51 -2.19,-5.35 -1.16,-1.65 -2.27,-3.33 -3.49,-4.91 -0.12,3.46 -0.08,6.93 -0.08,10.4 -7.12,0.9 -13.86,0.46 -21,0.01 0,-4.34 0,-8.68 -0.01,-13.01 h -1.98 m 5.99,0 v 9 h 5 c -0.01,-3 -0.01,-6 0,-9 h -5 m 9.01,0 c -0.01,3 -0.01,6 0,9 h 3.98 v -9 h -3.98 m 12.7,0.07 c 1.63,2.72 3.23,5.46 4.8,8.23 1,-2.73 1.94,-5.48 2.74,-8.27 -2.52,-0.03 -5.04,-0.02 -7.54,0.04 m -427.64,32.24 c -0.02,0.54 -0.06,1.63 -0.09,2.18 -2.61,2.69 -3.07,6.59 -5.09,9.65 24.12,-9.42 49.1,-16.57 73.4,-25.64 -8.19,-5.42 -16.19,-11.22 -23.83,-17.38 -14.67,10.57 -29.39,21.08 -44.39,31.19 M 39.06,325.33 c -1.06,1.94 -1.94,3.98 -2.71,6.07 2.19,-0.12 4.38,-0.23 6.58,-0.32 0.04,-2.57 0.12,-5.13 0.35,-7.68 -1.12,1.22 -2.62,1.73 -4.22,1.93 m 7.95,-1.51 c -0.01,3.78 -0.02,7.55 0.01,11.33 1.33,-0.51 2.65,-1.04 3.98,-1.55 -0.01,-3.31 -0.01,-6.62 0.09,-9.93 l -4.08,0.15 m 17.65,0.56 c 2.56,12.96 6.92,25.94 15.9,36 1.49,1.19 2.76,2.62 4.06,4.03 8.14,7.6 18.02,13.54 29.01,15.8 0.56,-1.82 1.11,-3.64 1.53,-5.49 C 98.2,358.07 81.6,341.05 64.66,324.38 m 71.52,0.62 c -0.27,1.61 -0.76,3.19 -0.86,4.83 3.84,16.57 9.99,32.85 12.6,49.53 1,-0.66 2.01,-1.31 3.04,-1.93 -5.19,-17.35 -9.85,-34.87 -14.23,-52.43 h -0.55 m 55.94,1.43 c -2.24,3.56 3.72,1.05 0,0 M 579.19,326 c -0.49,2.42 -1.06,4.83 -1.28,7.3 1.32,-0.38 2.64,-0.79 3.95,-1.24 -1,-1.92 -1.9,-3.91 -2.2,-6.06 h -0.47 m -103.5,4.81 c -2.56,5.01 -9.78,3.64 -14.49,5.38 -3.8,3.17 -4.29,8.83 -8.52,11.56 -4.18,1.28 -8.55,2.55 -11.26,6.31 3.42,-1.38 6.77,-3.27 10.56,-3.25 8.51,-0.72 13.4,-9.57 21.9,-10.25 3.64,-0.97 7.43,-0.53 11.14,-0.32 3.39,-2.41 7.44,-3.69 10.71,-6.28 -4.06,0.41 -8.01,-0.66 -11.87,-1.77 -2.79,-0.04 -5.49,-0.66 -8.17,-1.38 m 133.38,11.54 c -1.89,7.28 5.18,10.84 10.87,12.65 -1.35,0.41 -2.69,0.82 -4.03,1.23 -6.86,-2.04 -9.26,-8.77 -12.31,-14.44 -8.37,1.82 -15.77,-2.68 -21.41,-8.47 -1.3,2.45 -3.83,1.3 -5.95,1.01 2.07,2.98 4.09,6.6 7.9,7.54 2.67,0.29 5.51,-0.33 8.01,0.98 9.19,-0.2 12.21,10.11 19.78,13.44 -6.92,1.68 -9.96,-6.18 -14.1,-10.05 -2.75,-0.54 -5.57,-1.03 -8.04,-2.41 -2.36,0.03 -4.72,0.15 -7.07,0.31 1.93,3.74 4,7.44 6.55,10.8 2.02,-0.04 4.11,-0.08 5.93,1.01 7.03,-0.53 12.58,6.93 19.8,2.86 v -0.39 c -1.4,-0.33 -2.7,-0.85 -3.91,-1.57 3.38,-0.43 6.79,-0.28 10.2,-0.21 -0.22,-8.31 2.04,-16.52 1.7,-24.86 -3.03,5.22 -8.58,8.21 -13.92,10.57 M 149,334.11 c -0.31,4.39 0.52,8.68 1.29,12.98 3.52,-0.75 7.67,-0.29 10.64,-2.49 0.15,-3.96 -1.63,-7.79 -1,-11.84 -3.64,0.51 -7.21,1.56 -10.93,1.35 m 42.2,-0.69 c -2.18,3.61 3.66,1.17 0,0 m -158.85,0.33 c 3.75,3.43 9.06,1.98 13.65,2.21 V 335 c -4.64,0.47 -9.13,-0.4 -13.65,-1.25 m 113.9,0.74 c -2.56,4.59 3.51,2.09 0,0 m -12.97,1.88 c -3.58,11.47 -5.28,23.54 -9.67,34.74 6.07,-2.08 12.16,-4.16 18.46,-5.43 -1.3,-10.5 -5.85,-20.41 -7.24,-30.89 -0.39,0.4 -1.17,1.19 -1.55,1.58 m 365.02,0.17 c -2.33,7.83 -7.86,14.14 -11.25,21.49 -3.14,7.09 -7.38,13.6 -11.25,20.3 7.85,-7.32 15.22,-15.14 22.87,-22.67 2.46,-2.25 4.44,-5.47 7.97,-6.1 -2.38,-4.6 -5.99,-8.4 -8.34,-13.02 m -22.17,5.24 c -7.03,1.79 -12.36,6.7 -18.56,10.11 -2.85,0.58 -5.71,1.16 -8.63,0.9 -1.23,0.73 -2.58,1.23 -3.93,1.66 L 445,355 c 5.41,-0.73 10.51,1.69 15.92,1.07 6.15,-4.42 13.2,-6.24 20.57,-3.98 1.13,1.21 2.39,2.29 3.67,3.37 4.11,-5.81 7.42,-12.14 10.8,-18.39 -5.98,3.85 -12.71,5.95 -19.83,4.71 m 99.5,-3.9 c -1.48,3.65 -4.12,6.6 -6.47,9.7 -0.06,0.44 -0.18,1.31 -0.25,1.75 2.42,1.01 4.2,2.96 5.7,5.05 1.91,1.41 3.6,3.09 5.01,5.01 8.26,7.17 15.46,15.48 23.48,22.92 -8.5,-15.21 -18.45,-29.53 -27.47,-44.43 m -395.18,30.37 c -0.89,1.57 -1.85,3.1 -2.73,4.67 23.05,0.18 46.1,0.03 69.15,0.08 3.93,-10.22 6.29,-20.96 10.31,-31.15 -25.59,8.78 -51.26,17.28 -76.73,26.4 m 208.41,-26.44 c 3.52,10.37 6.86,20.78 10.23,31.19 26.23,-0.14 52.46,0.28 78.68,-0.22 -0.85,-1.07 -2.02,-1.68 -3.3,-2.01 -28.51,-9.77 -56.87,-19.9 -85.61,-28.96 m -241.75,1.68 c -2.21,3.71 3.71,0.79 0,0 m 12.45,4.44 c -2.89,0.26 -5.7,1 -8.58,1.34 -0.37,4.67 2.07,8.91 2.11,13.53 3.64,-1.16 7.3,-2.27 11,-3.2 -1.08,-4.41 -2.64,-8.89 -1.78,-13.48 -0.69,0.45 -2.06,1.36 -2.75,1.81 M 24.72,348 c 1.37,4.32 1.23,8.86 2.08,13.27 9.13,62.8 39.19,122.09 83.79,167.12 52.98,53.84 127.21,86.83 202.71,88.61 -2.12,-1.45 -4.12,-3.07 -6.3,-4.41 0,-0.54 -0.01,-1.63 -0.01,-2.17 -0.48,-0.4 -1.44,-1.21 -1.92,-1.61 -0.44,-1.95 -0.96,-3.88 -1.37,-5.82 -39.77,-1.95 -79.26,-13.47 -114.25,-32.5 C 116.6,532.51 61.95,461.05 44.73,380.61 36.65,370.88 29.15,360.31 25.56,348 H 24.72 M 148,350.3 c -1.47,3.05 3.33,0.04 0,0 m 332.41,26.9 c 1.96,-0.99 3.96,-1.96 6.04,-2.69 6.41,-4.2 13.82,-6.6 20.18,-10.91 4.3,-2.04 8.38,-5.07 13.25,-5.51 -4.54,-1.96 -8.33,-5.19 -12.03,-8.4 -9.18,9.15 -18.31,18.33 -27.44,27.51 m 75.43,-19.52 c 8.87,4.36 16.34,11.17 25.68,14.62 6.88,5.19 14.39,9.55 21.87,13.87 -5.41,-5.75 -10.83,-11.57 -16.98,-16.55 a 60.99,60.99 0 0 0 -4.98,-5.06 c -1.88,-2.12 -3.93,-4.07 -6.08,-5.91 -2.43,-3.26 -6.03,-5.46 -8.16,-8.94 -3.56,2.96 -7.06,6.12 -11.35,7.97 m -84.93,-5.07 a 31.248,31.248 0 0 1 -4.11,3.32 c 3.21,2.57 6.54,5 10.06,7.13 0.2,-2.94 0.92,-5.8 1.23,-8.71 -2.41,-0.54 -4.78,-1.23 -7.18,-1.74 m -27.17,2.67 c 0.56,0.58 0.56,0.58 0,0 m 36.91,0.09 c 0.19,1.72 0.39,3.44 0.6,5.17 1.65,-0.7 3.28,-1.45 4.89,-2.23 -1.81,-1.03 -3.65,-1.99 -5.49,-2.94 M 444,356.41 c 0.61,0.55 1.83,1.67 2.44,2.22 10.98,3.63 21.78,8.32 33.15,10.51 -4.19,-5.51 -11.15,-8.39 -16.53,-12.73 -5.52,4 -12.82,-0.52 -19.06,0 m 151.1,8.27 c 1.89,0.42 3.75,0.97 5.62,1.48 0.13,-2 0.4,-4.02 1.44,-5.79 -3.15,-3.03 -7.8,-1.43 -11.14,-3.88 0.55,3.06 2.75,5.45 4.08,8.19 m 14.91,-2.67 c -1.57,-0.06 -3.88,0.2 -3.84,2.25 -0.11,5.12 -2.12,9.97 -2.26,15.09 4.48,4.08 6.43,10.06 9.9,14.92 2.21,-12.24 4.99,-24.5 7.15,-36.7 -3.25,2.28 -6.84,4.5 -10.95,4.44 m -87.21,-2.87 c 1.31,7.91 3.89,15.67 4.23,23.71 1.64,4.94 2.33,10.14 3.24,15.26 1,1.82 0.63,3.86 0.52,5.83 3.37,8.42 4.32,17.71 5.39,26.68 0.51,-1.16 0.8,-2.36 0.87,-3.61 0.16,-22.21 -0.3,-44.43 0.22,-66.63 -4.88,0.73 -9.88,0.82 -14.47,-1.24 M 510.96,379 c 0.58,5.65 -0.52,11.22 -2.05,16.64 -4.2,5.41 -10.45,10.16 -10.02,17.79 2.13,-5.89 7.76,-8.58 12.2,-12.36 4.87,-6.47 5.84,-15.71 13.86,-19.59 -1.36,-7.28 -3.17,-14.54 -4.39,-21.88 -6.16,4.24 -10.55,11.77 -9.6,19.4 m 27.75,-18.67 c 0.54,18.21 0.11,36.45 0.22,54.67 0.23,3.4 -0.9,7.27 1.49,10.14 -1.06,-6.55 1.52,-12.83 2.28,-19.27 0.24,-1.7 0.55,-3.39 1.18,-4.98 0.53,-5.64 1.22,-11.35 2.97,-16.76 1.29,-7.43 1.25,-15.96 4.97,-22.45 -0.89,-1.13 -2.21,-1.62 -3.52,-2.03 -2.65,2.55 -6.42,0.71 -9.59,0.68 m 14.65,-0.68 c -1.61,5.05 -1.36,10.5 -3.29,15.46 -0.08,2.07 0.24,4.32 -1.13,6.08 0.02,0.58 0.05,1.75 0.07,2.33 0.95,0.88 1.9,1.78 2.86,2.68 2.18,6.45 2.74,13.94 7.94,18.89 3.19,2.37 6.68,4.65 10.72,5.13 1.39,3.17 5.37,3.35 7.34,5.97 1.72,2.21 2.69,4.89 4.18,7.26 0.83,-8.01 -5.18,-14.06 -11.26,-18.2 -7.46,-5.94 -8.79,-16.29 -7.51,-25.19 -2.92,-6.98 -4.31,-14.84 -9.92,-20.41 m -398.02,4.61 c -0.33,0.35 -0.98,1.07 -1.31,1.43 0.87,2.37 1.47,4.83 2.14,7.27 3.54,-1.76 6.68,-4.16 9.84,-6.52 -1.11,-1.8 -1.16,-3.86 -0.88,-5.88 -2.68,2.51 -6.37,2.94 -9.79,3.7 m 324.87,-3.74 c -0.21,1.41 -0.42,2.84 -0.69,4.26 0.4,0.49 1.19,1.47 1.59,1.96 0.23,-1.37 0.5,-2.72 0.79,-4.07 -0.57,-0.72 -1.13,-1.44 -1.69,-2.15 m 121.71,13.46 1.01,0.02 c -0.07,-3.5 0.99,-6.87 1.18,-10.35 0.4,-0.97 1.21,-2.92 1.61,-3.89 -3.63,3.8 -2.75,9.45 -3.8,14.22 m -44.09,-12.39 c 5.67,7.8 7.73,17.95 6.89,27.44 0.27,5.91 4.1,11.04 8.12,15.09 6.26,3.76 11.95,9.99 11.35,17.81 0.48,1.26 2.07,2.67 0.58,3.85 -0.87,0.6 -1.87,0.87 -2.88,1.08 -0.34,0.27 -1.03,0.81 -1.37,1.07 -0.74,-2.04 -1.2,-4.17 -1.61,-6.3 -2.04,-3.37 -4.93,-5.97 -8.36,-7.87 -1.67,5.75 -4.62,11.02 -6.79,16.59 3.66,1.66 7.12,3.84 11.05,4.84 0.43,0.46 1.3,1.36 1.73,1.81 h 2.04 c 1.01,-2.39 2.02,-4.79 2.87,-7.24 1.16,0.76 1.43,2.23 2.03,3.41 1.49,-5.55 8.31,-11.84 2.8,-16.87 0.55,2.32 0.43,4.74 -1.23,6.59 0.18,-3.79 -0.42,-7.51 -1.29,-11.18 -2.78,-3.85 -4.6,-8.27 -7.26,-12.2 -5.74,-6.81 -0.41,-15.74 0.55,-23.31 -3.61,-7.57 -12.79,-9.93 -19.22,-14.61 m -57.71,7.74 c -3.57,7.51 3.53,15.25 0.39,22.95 -2.03,3.88 -3.84,7.87 -5.67,11.85 0.06,3.02 0.73,5.95 1.46,8.87 h 0.77 c -1.37,-7.76 5.59,-12.92 9.67,-18.48 4.46,-10.82 -0.98,-23.83 7.64,-33.12 -4.37,3.15 -8.96,6.66 -14.26,7.93 m 99.36,1.4 c 0.83,-0.47 0.93,-1.19 0.28,-2.15 -3.1,-3.46 -3.78,1.57 -0.28,2.15 m -477.04,2.43 c 3.3,2.76 6.27,5.88 9.18,9.04 4.83,-0.87 9.66,-1.76 14.52,-2.47 -0.71,-4.07 -1.65,-8.14 -3.38,-11.92 -6.93,1.16 -13.36,4.45 -20.32,5.35 M 496.32,372 c -3.56,12.65 -6.4,25.56 -10.55,38.02 l 0.68,-0.1 c 4.37,-4.27 4.08,-10.72 6.2,-16.1 1.46,-7.28 5.02,-14.22 4.43,-21.82 h -0.76 m -13.57,22.58 c -1.39,1.78 -2.38,3.84 -3.02,6.01 -1.46,2.27 -3.26,4.58 -3.52,7.35 2.46,-2.33 3.28,-5.82 5.29,-8.49 3.9,-8.56 7.69,-17.17 10.72,-26.09 -4.5,6.24 -6.21,14.22 -9.47,21.22 M 174,378.08 c 9.99,25.78 27.52,48.21 48.57,65.92 h 2.04 c 7,-23.14 14.84,-46.03 21.62,-69.24 -23.06,0 -46.12,-0.04 -69.18,0.01 -1.82,-0.28 -3.44,1.52 -3.05,3.31 m 225.77,-3.23 c 6.94,22.66 14.32,45.18 21.63,67.71 0.26,0.38 0.77,1.12 1.02,1.49 18.37,-16.12 35.11,-35.14 44.78,-57.8 0.36,-0.41 1.07,-1.24 1.42,-1.66 1.01,-3.31 2.41,-6.48 3.56,-9.74 -24.14,-0.03 -48.27,-0.01 -72.41,0 m 182.41,1.12 c -0.89,3.21 -1.77,6.44 -2.33,9.73 5.46,0.49 10.45,3.02 15.73,4.34 0.44,-1.54 0.93,-3.06 1.5,-4.55 -4.44,-3.99 -10.33,-5.76 -14.9,-9.52 m -466.47,4.98 c 0.71,0.01 2.11,0.01 2.81,0.01 0.37,-0.36 1.11,-1.07 1.49,-1.43 -0.97,-0.9 -1.93,-1.8 -2.88,-2.7 -0.51,1.36 -0.98,2.73 -1.42,4.12 m 368.07,-3.03 c -3.81,3.62 -9.38,4.57 -12.96,8.52 3.55,1.5 6.91,3.44 10.52,4.8 2.04,-4.2 4.43,-8.39 4.79,-13.14 -0.59,-0.05 -1.76,-0.13 -2.35,-0.18 m -313.36,1.8 c -1.1,4.72 -6.52,6.01 -9.19,9.62 4.07,3.85 8.37,-1.76 12.58,-2.68 -1.29,-2.24 -2.44,-4.54 -3.39,-6.94 m -49.21,1.55 c 0.57,0.56 0.57,0.56 0,0 m -73.98,0.96 c 0.57,0.56 0.57,0.56 0,0 m 449.99,2.23 c -0.32,5.14 -2.97,9.77 -3.32,14.88 3.46,-5.1 6.01,-10.85 5.61,-17.15 -0.57,0.57 -1.72,1.7 -2.29,2.27 m -449.06,2.16 c 1.32,-0.29 1.55,-1.03 0.67,-2.22 -1.33,0.28 -1.55,1.02 -0.67,2.22 m 470.18,4.85 c -1.03,6.19 -4.66,11.62 -10.13,14.73 -5.63,2.87 -6.9,9.43 -10.04,14.37 15.21,8.19 30.24,16.73 44.99,25.74 -2.26,-3.92 -2.29,-8.67 -4.63,-12.55 0.07,2.42 0.35,4.83 0.6,7.24 h -3.06 c -0.23,-5.05 -2.18,-9.85 -2.29,-14.91 -1.36,-6.97 -3.63,-13.91 -3.64,-21.04 -2.52,-6.42 -3.78,-13.43 -4.25,-20.29 -3.59,0.86 -5.78,3.7 -7.55,6.71 m -467.37,-6 c 0.76,1.74 1.14,3.6 1.29,5.5 1.71,0.01 3.41,0.04 5.11,0.1 -2.47,-1.45 -4.54,-3.45 -6.4,-5.6 m 496.92,-0.33 c -0.55,11.72 -3.33,23.35 -6.06,34.77 2.52,9.54 5.88,18.88 7.71,28.59 1.48,-1.91 2.71,-4.01 3.99,-6.06 4.75,-9.86 10.39,-19.48 13.64,-30.04 -4.67,-2.64 -10.15,-4.99 -12.35,-10.28 -3.94,-5.02 -2.44,-12.3 -6.93,-16.98 m 50.37,1.86 c -0.58,5.32 -2.54,10.35 -3.42,15.61 2.54,-4.8 3.16,-10.35 4.3,-15.6 L 598.26,387 m -549.09,3.61 c 1.32,-0.3 1.55,-1.04 0.67,-2.23 -1.32,0.29 -1.54,1.03 -0.67,2.23 m 530.21,-2.75 c -0.62,3.49 -3.78,7.48 -0.9,10.66 3.77,4.89 5.97,10.68 9.06,15.97 3.59,-6.87 4.94,-14.53 7.42,-21.81 -0.32,-0.35 -0.96,-1.06 -1.28,-1.42 -4.77,-1.12 -9.49,-2.49 -14.3,-3.4 m 21.96,-0.11 c -12.33,52.63 -41.27,101.01 -80.5,138.07 -47.74,45.22 -111.7,74.13 -177.53,77.11 -0.42,1.96 -0.94,3.91 -1.38,5.88 -0.48,0.4 -1.44,1.21 -1.92,1.61 0,0.54 -0.01,1.63 -0.01,2.17 -2.19,1.34 -4.18,2.96 -6.3,4.41 39.79,-0.84 79.78,-10.54 115.73,-27.73 79.65,-36.13 140.95,-109.41 163.58,-193.77 -3.4,-3.27 -7.82,-5.11 -11.67,-7.75 m -436.58,5.9 c 0.95,2.78 2.23,5.45 4.04,7.77 0.39,1.21 0.8,2.42 1.23,3.62 3.27,-2.14 6.72,-3.98 9.92,-6.23 -1.22,-2.16 -2.38,-4.37 -3.93,-6.32 -0.03,-0.53 -0.08,-1.59 -0.11,-2.12 -0.43,-0.37 -1.3,-1.09 -1.73,-1.45 -3.07,1.71 -6.22,3.28 -9.42,4.73 m 130.57,14.51 c 8.36,26.34 18.24,52.33 25.95,78.84 H 322 v -98.08 c -8.95,6.33 -17.68,12.97 -26.67,19.24 M 324,388.85 V 487 l 0.88,-0.02 c 6.77,-27 18.14,-52.9 25.19,-79.71 -9.08,-5.56 -17.16,-12.59 -26.07,-18.42 m 146.36,0.12 a 57.51,57.51 0 0 0 -5.6,11.61 c 3.07,1.64 6.08,3.39 8.97,5.34 2.65,-3.84 4.87,-7.94 6.32,-12.39 -3.3,-1.38 -6.35,-3.28 -9.69,-4.56 m -420.25,3.75 c -1.52,3.12 3.21,0.21 0,0 m 3.11,1.34 c 1.86,6.4 4.66,12.48 6.04,19.04 4.96,-1.75 9.83,-3.74 14.78,-5.5 -1,-2.41 -1.85,-4.89 -2.35,-7.46 -4.26,-3.14 -9.12,-5.36 -13.63,-8.13 -1.6,0.71 -3.23,1.36 -4.84,2.05 m 103.73,-2.52 c 3.01,10.79 4.02,23.53 14.69,29.83 1.74,2.14 3.43,4.34 5.6,6.08 -0.59,-1.82 -1.3,-3.64 -2.57,-5.1 -7.3,-9.43 -12.15,-20.35 -17.72,-30.81 m -4.13,1.91 c 5.5,23.7 12.83,46.91 18.49,70.56 0.71,-0.01 2.12,-0.05 2.83,-0.07 -3.59,-14.33 -7.92,-28.45 -11.35,-42.81 -2.74,-8.21 -4.64,-16.67 -6.95,-25 -0.24,-1.52 -1.95,-1.93 -3.02,-2.68 m -101.95,0.98 c 0.43,2.52 1.12,5 1.4,7.56 l 0.84,0.02 c -0.21,-2.65 -0.77,-5.33 -2.24,-7.58 m 436.38,0.81 c 0.56,0.56 0.56,0.56 0,0 m -339.56,2.54 c 1.68,1.98 3.48,3.86 5.27,5.75 -0.81,-2.45 -1.46,-4.95 -2.15,-7.44 -1.04,0.57 -2.08,1.13 -3.12,1.69 m 324.6,24.89 c 2.42,0.22 3.36,-2.97 5.04,-4.32 2.2,-2.23 4.41,-4.46 6.46,-6.83 0.63,-5.09 2.46,-9.94 3.33,-14.98 -4.35,9.02 -10.02,17.54 -14.83,26.13 M 142.47,398.82 c 3.79,3.89 7.63,7.74 11.53,11.53 v -3.68 c -3.41,-1.81 -5.85,-4.88 -8.5,-7.6 -0.76,-0.06 -2.27,-0.19 -3.03,-0.25 m 350.73,0.63 c -0.89,1.17 -0.66,1.91 0.69,2.22 0.87,-1.18 0.64,-1.92 -0.69,-2.22 m -418.18,1.37 c 6.3,15.31 12.1,30.94 20.56,45.24 0.28,-0.39 0.85,-1.16 1.13,-1.55 3.49,-12.46 6.11,-25.26 10.22,-37.53 a 86.25,86.25 0 0 1 -31.91,-6.16 m 39.25,6.4 c -3.28,11.93 -5.97,24.04 -9.49,35.92 16.23,-9.99 33.07,-18.92 49.31,-28.89 -3.7,-4.92 -8.71,-8.75 -12.79,-13.37 -8.65,3.55 -17.91,4.74 -27.03,6.34 m 66.54,-6.12 c -2.84,2.17 -6,3.84 -9.07,5.63 1.3,4.24 4.91,7.15 6.45,11.29 2.91,-2.31 5.87,-4.56 8.99,-6.59 -2.05,-3.49 -4.02,-7.03 -6.37,-10.33 m 276.2,10.56 c 3.03,2.21 5.94,4.6 9.2,6.49 2.31,-3.27 4.4,-6.68 6.72,-9.95 -3.28,-1.99 -6.67,-3.81 -9.75,-6.1 -1.58,3.48 -3.93,6.49 -6.17,9.56 m -403.92,-8.9 c -1.5,3.13 3.22,0.19 0,0 m 439.16,-0.01 c 0.6,0.55 0.6,0.55 0,0 m 101.88,0 c -1.55,3.1 3.2,0.27 0,0 m -539.89,3.49 c 0.56,0.56 0.56,0.56 0,0 m 539.01,0 c 0.56,0.56 0.56,0.56 0,0 m -484.84,2.22 c -2.89,13.56 -7.31,26.72 -10.54,40.2 41.66,11.69 83.62,22.29 125.14,34.48 l -0.08,-1.45 c -0.99,-0.67 -1.86,-1.48 -2.6,-2.42 -39.65,-10.28 -79.04,-21.6 -118.54,-32.49 2.91,-13.49 6.89,-26.69 10.4,-40.01 -1.36,0.32 -3.18,0.08 -3.78,1.69 m 373.24,9.19 c -1.73,2.26 -3.89,4.11 -6.03,5.97 -1.9,2.09 -3.92,4.09 -6.07,5.93 a 78.859,78.859 0 0 1 -5.9,6.09 c -1.64,1.7 -3.31,3.37 -5,5.01 a 131.5,131.5 0 0 1 -5.04,4.98 c -0.68,0.64 -1.33,1.3 -1.98,1.98 a 131.5,131.5 0 0 1 -4.98,5.04 c -1.65,1.69 -3.31,3.38 -4.98,5.05 -2.51,2.14 -5.32,4.03 -7.08,6.9 a 15.256,15.256 0 0 0 -4.99,4.99 c -2.48,1.49 -4.22,3.81 -5.94,6.06 -1.69,1.43 -3.47,2.74 -5.2,4.11 1.62,-0.41 3.25,-0.77 4.9,-1.05 1.78,-2.92 4.32,-5.26 7.01,-7.32 1.68,-2.31 3.87,-4.15 6,-6.01 1.61,-1.73 3.28,-3.4 5.01,-5.01 1.86,-2.13 3.7,-4.3 5.98,-6.01 1.71,-2.28 3.87,-4.12 6.01,-5.98 1.61,-1.73 3.28,-3.4 5,-5.01 a 57.77,57.77 0 0 1 7,-6.99 c 1.62,-1.73 3.28,-3.41 4.99,-5.05 2.53,-2.11 4.86,-4.44 6.97,-6.97 3.37,-4.01 8.15,-6.58 11.01,-11.03 1.52,-1.29 3.14,-2.45 4.72,-3.66 0.07,-0.79 0.22,-2.37 0.3,-3.17 -4.35,3.26 -7.61,7.65 -11.71,11.15 M 55.11,408.72 c -1.51,3.13 3.21,0.2 0,0 m 537.01,-0.01 c -1.54,3.1 3.2,0.27 0,0 m -239.95,0.26 c -7.14,23.69 -15.22,47.09 -23.19,70.52 13.51,-2.4 27.55,-3.05 40.58,-8 14.57,-4.5 29.21,-11.11 41.41,-19.59 -18.97,-14.77 -39.46,-28.32 -58.8,-42.93 m -291.94,6.27 c 3.23,6.78 4.98,14.22 8.93,20.69 4.48,-2.55 9.11,-4.88 14.06,-6.36 -3.16,-5.79 -5.94,-11.86 -7.58,-18.27 -0.33,-0.33 -0.98,-0.99 -1.3,-1.32 -4.7,1.77 -9.35,3.65 -14.11,5.26 m 174.61,37.3 c 21.27,13.91 45.87,22.69 71.12,25.39 3.78,-0.29 7.41,0.77 11.07,1.52 -8.07,-23.17 -16.24,-46.3 -23.55,-69.74 -19.62,14.18 -38.99,28.7 -58.64,42.83 m 232.98,-31.72 c 3.07,-3.1 5.7,-6.79 7.07,-10.95 -2.88,3.25 -5.22,7.02 -7.07,10.95 M 56.17,413.63 c 1.31,-0.33 1.53,-1.08 0.65,-2.25 -1.32,0.33 -1.54,1.08 -0.65,2.25 m 433.85,2.14 c 2.17,1.66 4.55,3.01 6.91,4.38 -1.08,-2.19 -2.01,-4.44 -2.93,-6.69 0.15,-0.94 0.45,-2.8 0.61,-3.73 -1.35,2.15 -2.81,4.23 -4.59,6.04 m 101.1,-4.05 c -1.53,3.1 3.2,0.25 0,0 m -402.45,1.31 c -3.14,2.35 -5.97,5.43 -9.97,6.25 3.53,3 5.81,7.11 8.61,10.74 3.09,-2.04 5.7,-4.73 8.94,-6.55 -1.95,-3.88 -5.21,-6.84 -7.58,-10.44 m 260.38,9.74 c 3.01,1.39 5.33,3.77 7.48,6.23 h 2.13 c 1.86,-3.06 4.06,-5.9 6.28,-8.7 -3.22,-1.93 -6.14,-4.31 -9.12,-6.59 -2.23,3.04 -4.45,6.09 -6.77,9.06 m 141.06,-8.05 c -1.54,3.09 3.21,0.26 0,0 m -532.87,0.52 c 0.56,0.56 0.56,0.56 0,0 m 47.24,30.72 c 21.78,4.18 43.02,11.75 64.61,17.11 -4.25,-14.63 -8.08,-29.39 -12.12,-44.08 l 0.28,-3.43 c -17.75,9.84 -35.14,20.34 -52.77,30.4 M 58.05,417.31 c -1.34,3.15 3.26,-0.12 0,0 m 531.27,0.42 c 0.57,0.58 0.57,0.58 0,0 m -425.88,0.22 c 2.62,4.39 5.88,8.56 10.16,11.44 1.25,2.05 2.96,3.75 4.99,5.01 1.75,2.87 4.57,4.76 7.08,6.9 1.67,1.67 3.33,3.35 4.97,5.06 1.71,1.63 3.39,3.29 5.03,5 2.11,2.53 4.44,4.86 6.97,6.98 1.7,1.63 3.37,3.31 5.01,5.01 1.7,1.63 3.36,3.3 4.98,5.03 2.53,2.13 4.86,4.46 7,6.99 1.72,1.61 3.38,3.28 5,5.01 2.13,1.86 4.31,3.7 6,6 2.63,2 4.99,4.36 6.98,6.99 1.92,1.4 3.61,3.09 5.02,5.01 4.32,3.64 8.38,7.65 11.98,12.01 3.64,2.85 6.75,6.3 9.96,9.61 h 2.74 c -2.47,-2.64 -4.93,-5.33 -7.91,-7.4 a 15.251,15.251 0 0 0 -5.01,-5 24.624,24.624 0 0 0 -6.99,-6.99 15.128,15.128 0 0 0 -4.99,-5.01 c -1.49,-2.48 -3.82,-4.21 -6.05,-5.96 -2.93,-4.39 -7.63,-7.03 -11.03,-10.99 -2.1,-2.54 -4.44,-4.87 -6.97,-6.99 -1.71,-1.64 -3.37,-3.31 -5.01,-5.01 -2.41,-2.25 -4.6,-4.72 -6.96,-7.01 a 95.07,95.07 0 0 1 -5.02,-5.02 c -2.13,-1.86 -4.3,-3.71 -6.01,-5.98 -2.28,-1.71 -4.12,-3.88 -5.98,-6.01 -1.73,-1.62 -3.4,-3.29 -5.01,-5.01 -2.13,-1.86 -4.3,-3.71 -6.01,-5.98 -1.9,-1.43 -3.59,-3.11 -4.99,-5.03 -2.65,-2.05 -5.19,-4.35 -6.94,-7.25 -0.99,-0.48 -1.99,-0.95 -2.99,-1.41 m 324.89,0.04 c -3.91,15.75 -8.46,31.34 -12.48,47.06 21.78,-5.77 43.52,-11.73 65.35,-17.33 -16.85,-10.06 -34.39,-19.01 -50.89,-29.62 -0.49,-0.03 -1.49,-0.08 -1.98,-0.11 m -429.09,2.24 c 0.56,0.57 0.56,0.57 0,0 m 422.99,3.23 c -7.93,32.43 -17.57,64.49 -25.73,96.89 -2.48,7.58 -4,15.43 -6.69,22.92 -22.91,-7.08 -46.18,-12.91 -69.24,-19.48 l -2.08,2.28 c 3.58,-0.21 7.01,0.88 10.43,1.76 20.87,5.92 41.84,11.42 62.74,17.18 11.82,-41.72 22.2,-83.91 34.48,-125.51 -1.31,1.32 -2.61,2.64 -3.91,3.96 m -26.32,12.84 c 4.53,-4.93 9.3,-9.9 12.6,-15.79 -4.73,4.37 -8.98,10.22 -12.6,15.79 m -395.84,-14 c -1.35,3.14 3.26,-0.1 0,0 m 411.11,0.95 c -1.79,2.74 3.23,0.51 0,0 m -23.86,0.86 c -2.28,3.48 -5.13,6.54 -8.19,9.35 2.5,2.79 4.8,5.75 7.28,8.57 3.15,-3.54 7.1,-6.41 9.49,-10.58 a 57.757,57.757 0 0 0 -8.58,-7.34 m -386.3,1.21 c -1.37,3.14 3.26,-0.09 0,0 m 135.73,-0.24 c -2.03,2.37 -4.53,4.26 -6.75,6.44 v 1.95 c 2.95,2.78 5.84,5.62 8.62,8.58 2.26,-3 4.6,-5.94 7.26,-8.6 -2.8,-2.53 -5.38,-5.32 -7.54,-8.41 l -1.59,0.04 m 272.39,0.14 c -1.74,2.86 3.23,0.54 0,0 m 10.11,0.01 c 0.57,0.57 0.57,0.57 0,0 m -313.26,0.32 c 3.73,12.78 7.5,25.58 10.26,38.62 4.6,-4.74 9.33,-9.35 13.97,-14.05 -3.13,-4.31 -7.49,-7.42 -10.86,-11.48 a 24.73,24.73 0 0 1 -4.99,-5.02 c -3.06,-2.4 -5.73,-5.24 -8.38,-8.07 m 379.3,23.31 c -23.41,6.2 -46.72,13.04 -70.3,18.4 0.01,0.47 0.04,1.42 0.06,1.89 24.23,-6.41 48.48,-12.73 72.67,-19.28 -2.13,-8.1 -4.35,-16.19 -6.22,-24.36 -1.95,7.9 3.38,15.44 3.79,23.35 m -76.66,-12.24 c -1.62,1.72 -3.28,3.39 -4.98,5.03 -1.64,1.7 -3.31,3.37 -5.04,4.97 -1.21,1.28 -2.34,2.64 -3.52,3.95 5.06,4.45 9.22,9.89 14.68,13.86 1.69,-12.87 6.82,-24.97 9.36,-37.67 -4.11,2.61 -6.62,6.96 -10.5,9.86 M 63.19,429.2 c -0.55,1.42 0.1,4.24 1.63,4.59 0.54,-1.43 -0.09,-4.25 -1.63,-4.59 m 6.25,9.68 c 0.78,0.76 1.57,1.53 2.36,2.31 1.64,6.16 6.03,11.06 8.66,16.79 4.34,-3.01 8.69,-6.06 13.48,-8.34 -4.49,-5.53 -6.84,-12.35 -10.31,-18.49 -4.62,2.77 -9.76,4.62 -14.19,7.73 m 493.08,-7.18 c -2.57,6.96 -6.34,13.75 -10.43,19.98 5.11,2.18 10.09,4.93 14.55,8.26 1.88,-3.54 3.71,-7.12 5.9,-10.49 0.89,-2.99 2.26,-5.85 4.35,-8.18 l 0.12,-1.7 c -4.64,-3 -10.01,-4.58 -14.49,-7.87 m 19.7,3.03 c 0.57,0.58 0.57,0.58 0,0 m -382.11,8.82 c 3.03,2.82 5.89,5.83 8.8,8.78 3.13,-2.49 5.21,-6.09 8.58,-8.26 -3.43,-2.99 -7.22,-5.58 -10.12,-9.13 -2.25,3 -4.6,5.95 -7.26,8.61 m 227.94,-0.32 c 2.29,3.36 5.23,6.26 7.3,9.78 2.84,-3.48 6.5,-6.21 9.57,-9.5 -2.76,-2.56 -5.28,-5.38 -7.32,-8.54 -2.77,3.21 -5.96,6.01 -9.55,8.26 M 66.06,436.31 c -1.31,3.17 3.26,-0.17 0,0 m 515.25,0.42 c 0.57,0.58 0.57,0.58 0,0 m -141.46,15.38 c 6.35,-4.36 11.99,-9.97 16.3,-16.32 -5.67,5.19 -11.21,10.57 -16.3,16.32 m 140.46,-13.38 c 0.57,0.58 0.57,0.58 0,0 M 67.48,438.41 c 0.2,1.03 0.58,3.09 0.78,4.12 1.33,1.73 2.52,3.55 3.85,5.31 -1.27,-3.28 -2.88,-6.39 -4.63,-9.43 m 511.66,1.8 c -1.75,2.87 3.23,0.54 0,0 m -0.98,2.53 c 0.56,0.58 0.56,0.58 0,0 m -359.94,2.37 c -1.93,3.17 -4.1,6.49 -7.33,8.45 2.78,2.39 5.74,4.54 8.65,6.77 0.83,-4.04 2.03,-7.98 3.7,-11.74 -1.7,-1.12 -3.41,-2.24 -5.02,-3.48 m 207.69,-0.57 c -0.6,1.47 -1.61,2.53 -3.03,3.19 1.26,3.84 2.64,7.64 3.65,11.56 2.09,-1.66 4.19,-3.31 6.47,-4.71 0,-0.51 0,-1.53 -0.01,-2.05 -2.72,-2.33 -4.95,-5.13 -7.08,-7.99 m 150.23,1.67 c -1.75,2.88 3.22,0.53 0,0 m -503.96,2.52 c 0.58,0.58 0.58,0.58 0,0 m 502.99,0 c 0.56,0.59 0.56,0.59 0,0 m -502.1,1.57 c -1.3,3.18 3.26,-0.18 0,0 m 25.59,0.85 c 10.64,17.85 23.27,34.54 37.94,49.26 15.75,16.66 34.53,30.17 53.56,42.86 C 185,519.33 176.99,496 171.8,472.1 c -8.54,-4.51 -18.36,-5.3 -27.44,-8.28 -15.21,-4.35 -30.52,-8.28 -45.7,-12.67 m -17.56,8.23 c 3.89,5.81 7.07,12.07 11.35,17.63 l 1.88,-0.08 c 3.61,-2.93 7.63,-5.38 10.86,-8.75 -4.08,-5.12 -7.14,-10.94 -10.72,-16.41 -4.39,2.66 -8.87,5.15 -13.37,7.61 m 96.76,6.31 c 12.73,3.4 25.56,6.43 38.15,10.36 l -0.08,-1.38 c -2.46,-1.7 -4.57,-3.82 -6.58,-6.02 -2.07,-1.94 -4.05,-3.95 -5.9,-6.1 -3.97,-3.47 -7.4,-7.51 -11.55,-10.77 -4.71,4.6 -9.28,9.35 -14.04,13.91 M 452.9,451.72 c -1.74,2.61 -3.95,4.85 -6.26,6.94 a 54.715,54.715 0 0 0 -6.97,6.98 c -3.74,4.09 -8.34,7.24 -11.87,11.53 13.47,-3.31 27.09,-6.4 40.35,-10.54 -5.2,-4.86 -10,-10.11 -15.25,-14.91 m 120.4,1.01 c 0.56,0.58 0.56,0.58 0,0 m -498.98,0.69 c 0.43,0.37 0.43,0.37 0,0 m 401.07,17.83 c -0.72,0.73 -1.44,1.47 -2.15,2.21 -5.41,23.47 -12.76,46.54 -18.5,69.94 16.99,-9.25 32.67,-21.1 46.55,-34.51 -2.27,0.47 -4.5,1.07 -6.8,1.33 -0.96,-1.34 -1.97,-2.62 -2.94,-3.94 2.04,-0.52 4.07,-1.1 6.14,-1.54 0.78,-2.2 1.56,-4.41 2.4,-6.59 1.85,-0.28 3.67,-0.72 5.45,-1.29 1.02,-4.32 4.72,-6.75 8.95,-7.23 -0.54,1.2 -1.09,2.4 -1.66,3.59 0.93,-0.49 1.88,-0.96 2.85,-1.4 0.21,0.56 0.63,1.68 0.84,2.23 11.53,-12.69 22.02,-26.38 30.67,-41.22 -24.11,5.4 -47.76,12.7 -71.8,18.42 m -70.26,-11.11 c 1.75,3.23 3.32,6.55 5.01,9.8 4.08,-2.42 8.42,-4.48 12.06,-7.55 -1.39,-4.04 -4.57,-6.7 -8.29,-8.53 -2.47,2.7 -5.82,4.23 -8.78,6.28 m 31.43,-6.03 c -1.09,0.51 -1.9,1.31 -2.41,2.39 0.88,2.22 5.79,-3.13 2.41,-2.39 m 114.14,-0.34 c -2.56,6 -7.12,10.8 -9.85,16.7 3.81,3.02 8.34,5.05 11.83,8.47 0.42,0.02 1.27,0.05 1.69,0.07 3.6,-6.04 7.72,-11.73 11.6,-17.59 -5.38,-1.99 -9.78,-5.9 -15.27,-7.65 m 20.62,3.09 c 4.35,-0.95 -0.7,-4.78 0,0 M 75.26,455.12 c 0.6,1.94 1.74,3.65 3.48,4.76 -0.56,-1.97 -1.78,-3.62 -3.48,-4.76 m 148.59,8.05 c 3.49,2.33 6.72,5.05 10.44,7.04 2.05,-3.25 3.86,-6.63 5.59,-10.06 -2.6,-1.84 -5.45,-3.28 -7.95,-5.24 -3.71,1.64 -5.57,5.32 -8.08,8.26 m 207.39,-5.12 c -3.77,3.78 4.75,0.23 0,0 m 137.72,0.87 c 0.04,3.82 3.76,-2.68 0,0 m -489.91,2.39 c -0.11,1.62 1,4.43 2.82,4.36 0.1,-1.54 -1.58,-4.08 -2.82,-4.36 m 163.12,-0.19 c -1.68,3.43 -3.67,6.72 -6.14,9.64 3.43,2.74 7.56,4.33 11.4,6.37 1.63,-3.69 3.44,-7.3 5.43,-10.8 -3.67,-1.52 -7.21,-3.31 -10.69,-5.21 m 149.96,5.21 c 2.02,3.52 3.82,7.16 5.47,10.87 3.57,-1.76 6.82,-4.1 10.41,-5.81 l -0.12,-1.66 c -2.18,-2.57 -3.51,-5.68 -5.02,-8.64 -3.49,1.91 -7.05,3.72 -10.74,5.24 m 35.08,-5.29 c -3.71,3.81 4.75,0.2 0,0 m 141.13,-0.27 c -0.81,2.52 -2.33,4.81 -4.35,6.51 0.28,0.51 0.56,1.01 0.85,1.53 1.25,-2.37 2.5,-4.76 4.36,-6.72 -0.3,-0.45 -0.58,-0.89 -0.86,-1.32 m -353.36,3.02 0.08,1.55 c 3.13,2.36 5.88,5.18 8.58,8.02 2.13,1.94 4.15,4 5.93,6.29 7.73,2.43 15.6,4.37 23.41,6.53 L 253,485.4 c -13.64,-5.08 -26.65,-12.5 -38.02,-21.61 m 208.28,0.28 c -3.77,3.79 4.75,0.21 0,0 m 7,1.19 c 0.56,0.57 0.56,0.57 0,0 m -175.65,2.6 c -1.42,3.31 -3.32,6.39 -4.64,9.74 3.56,2.42 7.61,3.96 11.61,5.5 0.71,-3.72 2.33,-7.15 3.67,-10.66 -3.29,-2.08 -6.9,-3.55 -10.64,-4.58 m 126.23,3.68 c 1.16,3.78 2.79,7.45 3.24,11.42 3.51,-2.09 7.61,-2.95 10.96,-5.33 -1.32,-3.36 -3.23,-6.46 -4.65,-9.78 -3.29,0.96 -6.46,2.24 -9.55,3.69 m 36.35,-3.42 c 0.52,3.23 2.89,-1.72 0,0 m -18.62,15.66 c -2.51,0.91 -4.97,1.98 -7.57,2.63 l 0.02,0.76 c 9.12,-3.13 19.97,-2.98 27.4,-9.72 1.92,-2.72 4.29,-5.12 7.04,-7.01 0.88,-1.21 1.78,-2.4 2.68,-3.59 -9.43,6.37 -19.44,11.87 -29.57,16.93 m 26.69,-3.2 c -33.19,8.15 -65.99,17.98 -99.26,25.69 v 0.77 c 5.35,0.41 10.48,-1.15 15.5,-2.78 41.77,-10.6 83.29,-22.14 125.07,-32.67 0.88,-0.77 1.58,-1.69 2.1,-2.78 -14.35,4.37 -28.97,7.73 -43.41,11.77 m 138.06,-11.84 c -1.43,3.96 -4.34,7.11 -6.47,10.68 3.51,-2.01 4.32,-6.67 7.32,-9.33 -0.29,-0.46 -0.57,-0.91 -0.85,-1.35 m -457.71,2.31 c -3.49,3.22 -7.28,6.18 -11.48,8.42 4.1,6.23 8.75,12.13 13.64,17.76 4.49,-2.6 8.18,-6.28 12.14,-9.57 -4.54,-5.27 -8.59,-10.97 -12.59,-16.65 l -1.71,0.04 m 306.59,0.05 c 0.48,3.23 2.89,-1.71 0,0 m -238.33,0.99 c 6.17,23.97 12.84,47.8 19.26,71.7 34.77,-9.95 69.93,-18.49 104.79,-28.15 6.52,-2.05 13.65,-2.42 19.72,-5.69 -2.96,-0.11 -5.9,0.31 -8.73,1.17 -31.13,8.26 -62.34,16.19 -93.42,24.66 -6.8,1.34 -13.38,4.08 -20.37,4.25 -6.55,-22.58 -12.74,-45.27 -18.42,-68.09 -0.71,0.04 -2.12,0.11 -2.83,0.15 m 192.44,4 c 0.97,3.88 1.66,7.83 2.81,11.67 4.25,-1.71 8.8,-2.45 13.06,-4.13 -0.5,-3.99 -3.01,-7.39 -3.38,-11.41 -4.01,1.75 -8.25,2.83 -12.49,3.87 m 160.71,11.89 c 3.07,3.66 7.68,6.11 10.73,9.96 0.44,0.02 1.32,0.05 1.76,0.07 5.25,-4.93 8.38,-11.63 13.56,-16.6 -4.79,-2.73 -9.25,-6.1 -13.76,-9.29 -4.24,5.17 -7.97,10.74 -12.29,15.86 M 178.89,472.79 c 6.3,20.71 10.82,42.02 17.52,62.55 9.38,-16.78 19.67,-33.07 28.76,-50 -15.54,-3.6 -31.08,-7.68 -46.28,-12.55 m 88.52,0.05 c -1.26,3.51 -2.45,7.05 -3.56,10.62 4.06,2.11 8.48,3.27 12.84,4.56 0.97,-4.04 1.58,-8.24 3.35,-12.02 -4.37,-0.27 -8.49,-1.86 -12.63,-3.16 m 141.82,0.38 c 0.57,0.56 0.57,0.56 0,0 m 9.6,13.08 c 11.46,16.21 20.04,34.34 30.83,51.01 4.86,-21.23 11.71,-42.08 16.47,-63.36 -15.79,4.02 -31.49,8.42 -47.3,12.35 m -13.62,-11.18 c 0.51,3.24 2.88,-1.73 0,0 m -187.97,1.15 c 0.56,0.57 0.56,0.57 0,0 m 63.85,0.55 c 0.26,4.1 -1.17,7.98 -2.24,11.86 4.38,0.35 8.47,2.23 12.87,2.4 0.49,-4.09 1.45,-8.1 2.47,-12.09 -4.52,0.48 -8.69,-1.61 -13.1,-2.17 m 70.47,2.54 1.36,2.08 c 0.37,3.26 1.23,6.45 1.29,9.75 4.21,-0.78 8.35,-1.89 12.46,-3.08 -0.88,-3.67 -1.85,-7.38 -1.71,-11.19 -4.59,0.07 -8.85,2.07 -13.4,2.44 m 50.69,-2.11 c 0.56,0.57 0.56,0.57 0,0 m -2,1 c 0.56,0.57 0.56,0.57 0,0 m -3.81,1.1 c -4.43,4.09 6.84,-1.49 0,0 m -100.1,0.44 c -1.19,3.91 -2.13,7.92 -2.42,12.02 4.39,0.14 8.63,1.61 13.06,1.19 -0.28,-4.07 0.13,-8.11 1.28,-12.02 -4.05,0.43 -7.98,-0.49 -11.92,-1.19 m 41.37,1.34 c 0.64,3.94 1.69,7.84 1.35,11.88 4.41,0.35 8.61,-1.49 13.03,-1.01 -0.39,-3.52 -1.09,-7 -1.38,-10.53 -3.25,-3.73 -8.73,0.78 -13,-0.34 m 195.89,27.19 c 9.39,-7.93 16.71,-18.51 23.58,-28.73 -7.83,9.53 -14.94,19.82 -23.58,28.73 M 310.04,480.84 c -0.25,4.45 -1.52,8.8 -1.03,13.31 4.35,-0.14 8.71,-0.22 13.07,-0.13 -1.97,-3.81 -2.98,-8.01 -4.43,-12.02 -2.54,-0.19 -5.56,0.82 -7.61,-1.16 m 18.3,1.19 c -1.43,4 -2.48,8.17 -4.39,11.99 4.34,-0.09 8.69,-0.02 13.03,0.19 0.39,-4.55 -0.52,-8.99 -1.24,-13.44 -2.23,1.43 -4.85,1.37 -7.4,1.26 m 64.9,-0.81 c 0.56,0.56 0.56,0.56 0,0 m -2,1.03 c 0.57,0.56 0.57,0.56 0,0 m -157.81,0.97 c 1.28,1.22 2.65,2.33 4.02,3.47 45.19,12.06 90.14,25.06 135.51,36.45 L 373,521.17 C 326.25,509.59 280,495.66 233.43,483.22 m 149.09,2.83 c 2.79,-0.63 5.61,-1.44 7.98,-3.1 -2.8,0.6 -5.63,1.41 -7.98,3.1 m -155.01,-0.43 c -9.49,17.75 -20.17,34.86 -29.86,52.49 20.88,-5.78 41.87,-11.24 62.89,-16.37 l 1.52,-1.24 c -2.13,-2.06 -4.22,-4.19 -6.66,-5.9 a 15.346,15.346 0 0 0 -5.01,-5 24.406,24.406 0 0 0 -7,-6.99 c -1.23,-2.06 -2.95,-3.76 -4.99,-5.01 -1.48,-2.49 -3.8,-4.22 -6.06,-5.95 -1.66,-1.97 -3.23,-4.02 -4.83,-6.03 m 152.73,0.51 c 0.42,3.27 2.91,-1.69 0,0 m -3,1.01 c 0.42,3.27 2.91,-1.7 0,0 m 11.99,0.11 c 0.57,0.56 0.57,0.56 0,0 m 28.14,-0.54 c -1.35,3.23 -5,4.82 -6.73,7.93 -2.23,1.76 -4.54,3.5 -6.05,5.96 a 15.286,15.286 0 0 0 -4.99,5 c -6.17,4.76 -11.12,10.89 -16.82,16.19 21.58,6.61 43.59,12.03 65.31,18.3 -10.18,-17.83 -20.73,-35.45 -30.72,-53.38 m -43.12,1.52 c 0.56,0.56 0.56,0.56 0,0 m 36.16,-0.8 c -0.55,1.06 -1.09,2.13 -1.62,3.21 -2.96,1.64 -5.31,4.17 -7.18,6.96 -26.61,25.11 -51.84,51.77 -78.01,77.39 -1.34,0.43 -2.08,-0.9 -2.94,-1.63 -15.98,-16.17 -32.18,-32.13 -48.13,-48.32 -0.71,-0.03 -2.13,-0.08 -2.84,-0.1 17.72,17.83 35.48,35.64 53.33,53.35 21.91,-21.51 43.13,-43.76 65.37,-64.9 3.61,-4.36 7.65,-8.37 11.99,-12.01 1.4,-1.92 3.09,-3.61 5.01,-5 2.23,-2.91 4.75,-5.7 8.07,-7.37 -1.01,-0.54 -2.03,-1.07 -3.05,-1.58 m -300.38,11.28 c -0.01,0.44 -0.02,1.33 -0.03,1.77 5.34,4.69 9.11,10.82 14.5,15.49 3.48,-3.71 7.16,-7.22 10.71,-10.86 -3.95,-5.89 -10.02,-10.03 -13.54,-16.17 -3.6,3.56 -7.56,6.78 -11.64,9.77 m 260.21,-9.62 c 0.36,3.28 2.93,-1.67 0,0 m -129.71,0.81 c 1.85,2.33 4.36,4.04 6.11,6.48 4.31,3.65 8.37,7.65 11.97,12.01 3.78,2.96 6.96,6.57 10.36,9.94 0.17,-6.55 3.44,-12.6 4.18,-19.13 -10.61,-3.92 -21.88,-5.75 -32.62,-9.3 m 126.72,0.22 c 0.35,3.29 2.93,-1.67 0,0 m 3.65,9.25 c 2.65,6.32 3.76,13.15 5.35,19.78 7.03,-6.93 13.68,-14.29 21.14,-20.76 2.35,-3.08 5.28,-5.65 7.91,-8.48 -11.44,3.25 -23.18,5.46 -34.4,9.46 m 143.8,2.3 c -1.5,1.58 -3.01,3.19 -4.96,4.23 3.72,4.22 7.95,7.94 11.76,12.08 5.84,-5.6 10.39,-12.38 16.62,-17.59 -4.16,-3.5 -8.72,-6.49 -12.65,-10.27 -3.67,3.78 -7.5,7.41 -10.77,11.55 M 362.41,491.14 c 1.19,3.66 3.56,-2.22 0,0 m -4.16,0.94 c 0.31,3.3 2.95,-1.64 0,0 m -5.85,1 c 1.11,3.68 3.58,-2.23 0,0 m -55.12,0.99 c 0.06,3.31 3.05,-1.49 0,0 m 49.13,0.07 c 1.11,3.68 3.6,-2.21 0,0 m 162.84,0.1 c 0.57,0.56 0.57,0.56 0,0 m 0.53,6.16 c 2.03,-1.26 3.44,-3.22 5.13,-4.87 -1.05,-3.61 -5.18,2.81 -5.13,4.87 m -205.31,-5.1 c 2.15,3.44 4.64,-2.58 0,0 m 31.78,-0.02 c 0.92,1.4 3.96,1.05 5.51,0.49 -0.9,-1.46 -3.98,-1.1 -5.51,-0.49 m -13.98,1.15 c 0.75,1.36 4.7,1.35 5.45,0 -1.65,-0.7 -3.8,-0.7 -5.45,0 m 185.97,-0.19 c 0.57,0.56 0.57,0.56 0,0 m -214.95,0.82 c 0,3.32 3.08,-1.44 0,0 m 56.96,-0.03 c 0.31,3.3 2.94,-1.65 0,0 M 297,498 v 0.75 c 8.18,1.16 15.96,4.45 23.97,6.25 9.12,-1.36 17.97,-4.44 27.03,-6.3 v -0.89 c -11.83,2.52 -23.99,-0.01 -35.97,1.12 -5.11,0.87 -9.95,-1.36 -15.03,-0.93 m -21.72,1.93 c -1.01,6.64 -2.77,13.28 -5.51,19.42 12.99,-4.39 26.62,-6.75 39.67,-10.95 -11.44,-2.42 -22.61,-6.58 -34.16,-8.47 m 58.72,8.2 v 0.56 c 13.72,3.56 27.42,7.28 40.97,11.49 -1.74,-5.7 -3.9,-11.29 -5.02,-17.16 -0.32,-1.09 -0.61,-3.44 -2.21,-2.99 -11.33,2.28 -22.25,6.62 -33.74,8.1 m 167.25,-6.89 c 0.56,0.56 0.56,0.56 0,0 m 2.05,1.84 c -0.38,1.72 -0.88,3.42 -1.36,5.13 2.97,-2.24 5.91,-4.54 8.48,-7.25 -2.61,-0.25 -4.98,0.75 -7.12,2.12 m -3.07,1.16 c 0.56,0.57 0.56,0.57 0,0 m -388.07,2.49 c 0.58,0.57 0.58,0.57 0,0 m 13.86,10.78 c 4.96,5.4 10.87,9.76 16.08,14.9 3.28,-4.25 7.05,-8.09 10.02,-12.58 -5.07,-4.25 -11.03,-8.48 -14.54,-13.99 -3.66,4.07 -7.62,7.87 -11.56,11.67 m 370.22,-10.26 c 0.56,0.56 0.56,0.56 0,0 m -2.33,13.56 c 2.69,4.81 7.64,8.01 9.4,13.38 5.87,-4.54 10.6,-10.37 16.76,-14.56 -4.11,-3.91 -8.02,-8.03 -12.13,-11.94 -4.62,4.43 -8.78,9.4 -14.03,13.12 m -219.03,3.46 c 15.79,15.58 31.32,31.43 47.12,47.01 -0.09,-8.78 0.16,-17.55 0.13,-26.32 -2.33,-10.86 -0.58,-22.11 -1.16,-33.14 -15.28,4.48 -30.8,8.06 -46.09,12.45 m 48.11,-12.15 c 0.12,8.97 -0.15,17.94 -0.12,26.91 2.29,10.56 0.63,21.5 1.13,32.24 15.47,-15.23 30.66,-30.75 46.13,-45.99 -15.62,-4.72 -31.57,-8.28 -47.14,-13.16 m -169.61,9.87 c -2.59,4.27 -6.23,7.77 -9.3,11.69 5.69,4.51 11,9.48 17.1,13.46 2.91,-3.94 5.34,-8.26 8.76,-11.8 0.02,-0.42 0.05,-1.28 0.06,-1.7 -5.31,-3.25 -10.4,-7.11 -14.74,-11.56 -0.47,-0.02 -1.41,-0.06 -1.88,-0.09 M 490.56,523 c -4.14,4.76 -9.51,8.2 -14.81,11.53 2.87,4.64 6.02,9.1 9.04,13.63 6.57,-4.1 12.49,-9.15 18.52,-13.97 -4.93,-1.46 -7.46,-7.35 -10.69,-11.19 h -2.06 m -295.91,22.45 c 38.27,21.1 81.85,33.97 125.62,33.55 -17.55,-17.73 -35.23,-35.34 -52.87,-52.99 -24.11,6.97 -48.5,12.98 -72.75,19.44 M 325.72,579 c 36.04,0.72 71.76,-8.48 104.87,-22.37 0.42,-0.36 1.25,-1.07 1.67,-1.42 5.97,-2.26 12.06,-4.85 17.05,-8.91 -24.01,-5.76 -47.92,-12.49 -71.69,-19.33 -17.29,17.36 -34.67,34.62 -51.9,52.03 M 132.63,527.98 c 4.93,4.14 9.96,8.19 14.64,12.62 -0.11,-0.51 -0.33,-1.55 -0.43,-2.07 -5.38,-2.71 -8.69,-8.2 -14.21,-10.55 m 30.5,20.55 c 5.85,3.81 11.75,7.56 17.62,11.35 0.42,0.03 1.26,0.1 1.67,0.14 2.67,-4.39 4.98,-8.99 7.77,-13.31 -5.92,-3.46 -11.83,-6.92 -17.37,-10.96 -3.77,3.82 -6.78,8.29 -9.69,12.78 m 292.86,-1.23 0.12,1.95 c 2.83,3.91 5.44,8.05 7.23,12.56 7.05,-3.22 13.02,-8.23 19.67,-12.13 -3.2,-4.43 -6.55,-8.78 -9.2,-13.58 -5.83,3.92 -11.59,7.94 -17.82,11.2 m 18.75,10.01 c 0.43,0.28 0.88,0.57 1.33,0.87 10.18,-7.69 21.84,-14.18 30.39,-23.6 -9.96,8.34 -20.38,16.48 -31.72,22.73 M 147.77,540.74 c 7.7,5.71 15.19,11.81 23.65,16.39 -7.11,-6.21 -16.23,-10.15 -22.78,-17.16 -0.29,0.25 -0.58,0.5 -0.87,0.77 m 44.37,7.4 c -2.82,4.48 -5.85,8.84 -8.46,13.46 4.23,2.45 8.87,4.14 12.88,6.96 2.3,0.79 4.53,1.78 6.82,2.62 2.12,-4.67 4.47,-9.22 6.89,-13.74 -6.39,-2.43 -11.94,-6.45 -18.13,-9.3 m 250.44,6.35 c -2.01,1.44 -4.22,2.66 -6.72,2.96 2.41,3.84 3.07,8.61 6.12,12.05 0.03,0.67 0.11,2.01 0.15,2.68 1.77,-0.49 3.52,-1.03 5.29,-1.53 4.24,-3.07 9.14,-5.03 13.84,-7.28 -1.79,-5.29 -5.33,-9.69 -7.98,-14.54 -3.44,2.1 -6.78,4.51 -10.7,5.66 m -270.61,2.93 c -0.6,1.84 2.69,3.37 3.99,2.27 -1.03,-0.96 -2.5,-2.51 -3.99,-2.27 m 40.06,0.65 c -2.14,4.92 -4.05,9.97 -6.89,14.56 6.54,3.26 13.34,5.9 20.2,8.38 0.31,-0.34 0.94,-1.01 1.25,-1.35 1.34,-4.48 3.61,-8.69 4.46,-13.31 -6.29,-2.83 -12.97,-4.89 -19.02,-8.28 m 256.55,4 c 2.36,-0.97 4.57,-2.37 6.2,-4.36 -2.2,1.25 -4.37,2.6 -6.2,4.36 m -53.71,4.42 c 0.74,4.95 3.04,9.43 4.54,14.15 0.32,0.36 0.98,1.08 1.3,1.44 6.75,-3.03 13.65,-5.72 20.47,-8.59 -2.29,-4.88 -5.45,-9.44 -6.69,-14.75 -6.62,2.39 -12.94,5.6 -19.62,7.75 m -238.65,-6.21 c 3.44,2.32 6.9,4.68 10.66,6.46 -2.89,-2.83 -6.67,-5.68 -10.66,-6.46 m 291.31,1.75 c -1.36,0.38 -3.5,1.15 -3.49,2.8 1.28,0.5 4.94,-1.66 3.49,-2.8 m -5.29,3.22 c 0.56,0.56 0.56,0.56 0,0 m -5.93,3.68 c 1.66,0.08 4.05,-1.45 4.54,-2.96 -1.73,-0.32 -4.04,1.45 -4.54,2.96 m -268.07,-1.81 c -0.38,3.08 3.28,-1.22 0,0 m 45.16,-0.18 c -1.11,5.21 -3.59,9.98 -5.19,15.05 6.61,2.57 13.57,4.2 20.05,7.13 0.37,-0.39 1.12,-1.17 1.5,-1.56 0.45,-4.88 2.5,-9.41 3.42,-14.19 -6.67,-1.9 -13.33,-3.87 -19.78,-6.43 m 158.57,7.45 c 1.3,4.89 2.22,10.06 4.4,14.62 7.33,-1.09 14.41,-3.77 21.39,-6.22 -1.66,-5.01 -4.08,-9.76 -5.21,-14.93 -6.91,1.91 -14.04,3.7 -20.58,6.53 m -199.24,-5.22 c 0.58,0.58 0.58,0.58 0,0 m 261.48,-0.02 c 0.51,3.23 2.89,-1.73 0,0 m -259.89,0.89 c -0.15,3.25 3.17,-1.32 0,0 m 258.41,0.28 c 0.58,0.57 0.58,0.57 0,0 m -2,0.98 c 0.58,0.57 0.58,0.57 0,0 m -252.42,0.74 c -0.15,3.24 3.18,-1.32 0,0 m 2.43,1.26 c 0.58,0.58 0.58,0.58 0,0 m 245.48,-0.16 c 0.51,3.23 2.88,-1.73 0,0 m -243.48,1.14 c 0.58,0.58 0.58,0.58 0,0 m 52.61,-0.4 c -1.38,5.41 -2.25,11.01 -4.64,16.11 7.43,0.57 14.62,2.97 21.98,4.17 1.61,-5.18 1.74,-10.7 3.45,-15.87 -7,-1.12 -13.98,-2.44 -20.79,-4.41 M 369.84,578 c 1.54,5.5 2.31,11.16 3.25,16.78 6.84,-1.67 13.93,-2.53 20.59,-4.94 -1.01,-5.35 -3.74,-10.44 -3.61,-15.92 -6.4,2.46 -13.4,3.72 -20.23,4.08 m 74.89,-3.68 c 0.58,0.57 0.58,0.57 0,0 m -239.99,0.99 c 0.58,0.58 0.58,0.58 0,0 m 234.83,1.36 c -1.07,0.47 -2.13,0.96 -3.16,1.5 3.07,-0.02 5.68,-1.75 8.16,-3.36 -1.88,0.05 -3.56,0.7 -5,1.86 m -232.83,-0.44 c 0.58,0.57 0.58,0.57 0,0 m 2.51,0.97 c -0.44,1.57 3.04,2.82 3.53,1.26 -0.8,-0.92 -2.32,-1.82 -3.53,-1.26 m 4.49,2.01 c 0.58,0.58 0.58,0.58 0,0 m 64.55,-0.35 c -1.78,5.18 -1.51,10.82 -3.29,16 7.31,0.94 14.78,1.59 21.87,3.51 0.01,-5.84 1.75,-11.51 1.12,-17.39 -6.66,0.51 -13.14,-1.3 -19.7,-2.12 m 67.96,1.68 c 3.36,4.81 1.29,11.92 2.97,17.69 7.14,-1.81 14.59,-1.73 21.76,-3.46 -1.77,-5.18 -1.49,-10.81 -3.28,-15.98 -7.13,0.89 -14.24,3.19 -21.45,1.75 m 85.11,-1.08 c -3.85,2.23 3.34,1.57 3.47,-0.27 -1.17,-0.51 -2.32,-0.42 -3.47,0.27 m -214.63,0.78 c 0.58,0.57 0.58,0.57 0,0 m 1.57,0.83 c -0.1,3.26 3.15,-1.35 0,0 m 3.43,1.18 c 0.58,0.57 0.58,0.57 0,0 m 78.16,-0.24 c 0.46,5.37 0.05,10.7 -1.08,15.97 1.79,0 3.6,0.01 5.4,0.02 -1.27,-5.34 2.39,-9.64 5.09,-13.78 1.46,-0.75 2.91,-1.51 4.36,-2.29 -4.6,0.04 -9.18,0.1 -13.77,0.08 m 15.67,1.97 c 2.56,-0.04 6.18,0.95 6.05,-2.91 -2.16,0.64 -4.16,1.69 -6.05,2.91 m 8.78,-2.32 c 0.53,3.54 4.44,2.03 6.92,2.4 -1.08,-0.83 -2.16,-1.66 -3.21,-2.5 -0.93,0.02 -2.78,0.08 -3.71,0.1 m 9.29,0.22 c 5.42,3.36 10.41,9.33 9.17,16.12 l 4.42,-0.03 c -1.17,-5.25 -1.58,-10.59 -1.06,-15.96 -4.18,0.01 -8.36,0 -12.53,-0.13 m 92.12,0.26 c 0.29,3.2 3.09,-1.56 0,0 m -202.03,0.95 c 0.23,3.21 3.12,-1.53 0,0 m 199.51,0.09 c 0.47,3.24 2.91,-1.71 0,0 m -196.93,0.87 c -0.1,3.26 3.15,-1.35 0,0 m 193.93,0.09 c 0.45,3.24 2.91,-1.69 0,0 m -191.49,0.98 c 0.23,3.21 3.13,-1.52 0,0 m 189,0.13 c 0.58,0.57 0.58,0.57 0,0 m -185.99,0.87 c 0.22,3.2 3.12,-1.52 0,0 m 181.54,0.12 c -5.54,2.17 2.7,2.12 3.52,0.02 -1.14,-0.49 -2.32,-0.5 -3.52,-0.02 m -178.05,1.01 c 0.57,0.56 0.57,0.56 0,0 m 2.48,0.87 c 0.17,3.21 3.14,-1.49 0,0 M 310.47,588 c -0.4,0.5 -1.22,1.5 -1.63,2 4.05,0 8.11,0 12.16,-0.01 v -1.98 C 317.49,588 313.98,588 310.47,588 m 14.53,0.01 v 1.98 c 4.39,0.01 8.77,0.01 13.16,0.01 -0.41,-0.5 -1.22,-1.5 -1.63,-2 -3.84,0 -7.69,0 -11.53,0.01 m 80.11,1.47 c 1.11,1.4 4.16,-0.15 5.56,-0.96 -1.13,-1.39 -4.06,0.37 -5.56,0.96 m -164.39,0.38 c 1.27,0.8 2.05,0.58 2.34,-0.69 -1.28,-0.83 -2.06,-0.6 -2.34,0.69 m 3.67,0.95 c 1.17,0.88 1.92,0.66 2.24,-0.65 -1.17,-0.89 -1.92,-0.68 -2.24,0.65 m 157,-0.64 c 0.29,1.31 1.04,1.53 2.23,0.66 -0.31,-1.33 -1.05,-1.55 -2.23,-0.66 m -154.9,1.18 c 4.12,0.61 8.15,2.71 12.33,2.31 -4.04,-0.96 -8.11,-2.95 -12.33,-2.31 m 146.51,0.91 0.01,0.87 c 2.35,-0.35 4.66,-0.92 6.99,-1.37 v -0.87 c -2.31,0.56 -4.63,1.12 -7,1.37 m -3.29,0.89 c 0.29,1.27 1.07,1.49 2.35,0.66 -0.31,-1.28 -1.09,-1.5 -2.35,-0.66 m -129.62,1.2 c 2.46,1.23 5.17,1.72 7.91,1.69 v -0.86 c -2.66,-0.09 -5.26,-0.71 -7.91,-0.83 M 305.98,594 c 0.04,3.66 0.04,7.33 0,11 h 1.01 c 0.01,-3.67 0.01,-7.34 0,-11 h -1.01 m 5.02,0 v 4.9 c 2.28,0.21 4.56,0.43 6.85,0.71 -1.89,-1.35 -2.03,-3.51 -2.06,-5.61 -1.6,-0.01 -3.2,-0.01 -4.79,0 m 8.8,-0.02 c 0.65,1.72 1.22,3.48 1.65,5.28 1.03,-0.01 2.06,-0.01 3.1,0 0.43,-1.8 1,-3.56 1.65,-5.28 -2.14,0.01 -4.27,0.01 -6.4,0 m 10.41,0.02 c -0.03,2.11 -0.17,4.26 -2.07,5.61 2.28,-0.28 4.57,-0.5 6.86,-0.7 0,1.35 0,2.72 0.01,4.09 -3.57,0.16 -7.28,-0.48 -10.72,0.72 3.55,0.45 7.14,0.22 10.71,0.28 v 4.03 c -3.33,-0.07 -6.66,-0.12 -9.99,-0.12 -0.01,3.07 -0.02,6.14 0.02,9.21 4.32,-0.06 8.03,-2.63 10.97,-5.59 V 594 c -1.94,-0.01 -3.87,-0.01 -5.79,0 m 9.8,0 c -0.01,3.66 -0.01,7.33 0,11 h 1.04 c -0.08,-3.67 -0.1,-7.34 0,-11 h -1.04 m 40.03,1.25 -0.05,0.83 c 3.22,-0.2 6.39,-0.9 9.53,-1.63 -3.18,-0.95 -6.33,0.43 -9.48,0.8 m -111.96,0.72 -0.08,1.01 c 12.42,0.47 25.09,5.51 37.34,2.97 -12.56,0.53 -24.86,-2.64 -37.26,-3.98 m 107.19,0.29 c 0.33,1.33 4.13,1.49 4.47,0.1 -1.31,-0.71 -3.15,-0.81 -4.47,-0.1 m -6.01,0.99 c 0.33,1.34 4.12,1.45 4.48,0.09 -1.32,-0.72 -3.16,-0.81 -4.48,-0.09 M 354,598.96 V 600 c 4.74,0.48 9.27,-1.35 14,-1.07 v -0.97 c -4.7,0.11 -9.26,1.63 -14,1 m -12.35,1.01 c 3.56,1.62 7.56,0.85 11.35,1.13 v -1.08 c -3.79,0 -7.57,-0.06 -11.35,-0.05 M 311,603 v 1 c 3.57,-0.06 7.16,0.17 10.71,-0.29 -3.44,-1.19 -7.15,-0.55 -10.71,-0.71 m 0,5.03 v 4.38 c 3.17,1.89 6.3,3.98 9.93,4.91 0.08,-3.14 0.07,-6.28 0.07,-9.41 -3.34,0 -6.67,0.04 -10,0.12 z"
       opacity="0.5"
       style="fill:#502d16;fill-opacity:0.25"
       id="path2" />
    <path
       d="m 383.24,65 c 1.22,-0.02 2.44,-0.03 3.67,-0.05 1.58,2.12 2.92,4.41 4.24,6.7 1.75,0.43 3.46,0.97 5.19,1.52 -0.55,1.4 -1.12,2.79 -1.67,4.19 C 387.53,75.24 380.34,73.17 373,71.88 V 70 h 2.12 c -0.35,-0.5 -1.06,-1.5 -1.42,-2 h 6.85 c 0.89,-1 1.79,-2 2.69,-3 m -1.52,5.02 c -1.24,-0.05 -2.48,-0.1 -3.72,-0.14 v 0.83 c 4.32,0.39 8.39,2.03 12.48,3.37 -0.84,-0.8 -1.66,-1.59 -2.49,-2.38 -0.01,-0.55 -0.03,-1.66 -0.05,-2.21 -1.01,-0.94 -2,-1.88 -2.99,-2.83 -1.08,1.12 -2.16,2.24 -3.23,3.36 z M 138.34,135 l 3.58,-0.06 c 1.99,2.67 3.51,5.66 5.57,8.28 1.29,-0.58 2.6,-1.14 3.93,-1.66 -0.03,2.99 -2.49,4 -5.07,3.58 -1.1,-1.17 -2.22,-2.31 -3.35,-3.44 -0.01,-0.56 -0.04,-1.68 -0.05,-2.24 -0.99,-0.92 -1.97,-1.85 -2.94,-2.77 -1,0.96 -2,1.92 -3.01,2.87 v 1.84 c 1.46,1.4 2.9,2.83 4.34,4.27 1.57,0.4 3.13,0.88 4.69,1.37 -0.02,1.32 -0.02,2.64 -0.03,3.96 -0.71,0 -2.12,0.01 -2.82,0.01 -1.4,-3.08 -4.26,-4.89 -7.19,-6.3 -0.87,-2 -1.12,-4.17 -1.13,-6.33 1.18,-1.11 2.34,-2.23 3.48,-3.38 z M 21,310.98 22.07,311 c 0.32,6 0.34,12 -0.02,18 L 21,329.02 Z m 121.34,177.15 c 2.58,0.09 5.24,-0.29 7.72,0.62 -0.17,2.3 -0.26,4.61 -0.17,6.93 -0.72,0.77 -1.44,1.54 -2.15,2.32 -1.25,0 -2.5,0.01 -3.75,0.02 -0.01,1.99 0,3.98 0.02,5.98 H 142 v -5.4 c -0.88,-0.87 -1.75,-1.73 -2.61,-2.6 H 134 v -2.01 c 2.12,0.02 4.24,0.03 6.37,0.02 -0.13,-1.23 -0.26,-2.45 -0.39,-3.66 0.79,-0.74 1.57,-1.48 2.36,-2.22 m 1.11,8.28 c 1.57,-0.63 3.13,-1.28 4.7,-1.89 0.1,-2.34 -0.97,-5.41 -3.88,-4.49 -3.72,0.39 -1.55,4.24 -0.82,6.38 z m 249.54,58.62 c 1.17,-0.48 2.35,-0.95 3.54,-1.4 -0.44,0.61 -1.31,1.83 -1.75,2.43 -0.02,0.71 -0.05,2.11 -0.07,2.81 0.65,0.05 1.94,0.13 2.59,0.17 -0.27,0.81 -0.53,1.63 -0.79,2.46 1.26,1.81 2.2,3.82 2.97,5.89 -3.11,-0.04 -4.01,-3.37 -5.79,-5.31 -1.2,-0.13 -2.4,-0.25 -3.59,-0.37 0.18,2.97 0.22,6.89 -3.33,7.89 0.13,-1.64 0.2,-3.37 1.43,-4.61 -1.18,-1.18 -1.16,-2.8 -1.25,-4.34 -1.46,-1.53 -3.27,-2.95 -3.32,-5.26 2.32,1.41 6.25,2.87 5.33,6.26 1.03,-1.26 2.52,-1.73 4.04,-2.06 -0.01,-1.53 -0.01,-3.05 -0.01,-4.56 z m -135.86,2.13 1.96,-1.64 a 41.54,41.54 0 0 1 -1.7,10.26 c 0.96,0.91 1.91,1.82 2.88,2.73 2.37,-1.97 1.28,-4.57 0.46,-7.02 3.5,0.32 3.64,3.4 3.35,6.19 -0.8,0.76 -1.6,1.53 -2.39,2.32 -1.14,0 -2.29,0.01 -3.43,0.03 -0.41,-0.51 -1.24,-1.52 -1.65,-2.03 -1.77,-0.01 -3.53,0 -5.29,0 -0.77,-0.79 -1.55,-1.56 -2.32,-2.33 -0.02,-1.19 -0.04,-2.37 -0.05,-3.54 1.31,-0.92 2.64,-1.81 4,-2.66 0.03,0.63 0.09,1.88 0.13,2.51 l -2.66,0.24 c 0.58,1.26 1.17,2.52 1.79,3.78 h 2.42 c 1.12,-2.86 2.28,-5.75 2.5,-8.84 z"
       opacity="0.5"
       style="fill:#502d16;fill-opacity:0.25"
       id="path4" />
  </g>
</svg>
